<svg xmlns="http://www.w3.org/2000/svg" viewBox="0 0 650.15 319.14"><defs><style>.cls-1{fill:#1d1d1b;}</style></defs><g id="Layer_2" data-name="Layer 2"><g id="Layer_1-2" data-name="Layer 1"><path class="cls-1" d="M3.9,303.73c46.5,2.14,95-5.46,135.33-29.78,17.63-10.61,33.6-24.33,46-40.84,12.23-16.34,22.57-36.85,22.39-57.7-.08-9.88-2.92-20.13-9.62-27.61a40.38,40.38,0,0,0-21.83-12.35c-16.77-3.41-33.35,6.08-35.72,23.66-2.57,19,11.28,33.55,27.7,40.5,19.54,8.28,42.41,8.81,63.18,6.12a168.8,168.8,0,0,0,111.55-64.5,176.16,176.16,0,0,0,29-56.72c6-20.3,9.27-44-2.1-63.09C361.06,6.91,342.83-1.84,326.1.33c-17.84,2.31-29.35,18.18-28,35.79C299.68,55.89,316,69.36,333,76.87c19.93,8.78,42.57,11.88,64.21,11.62,45.32-.55,89.73-16.48,128.32-39.55,20-12,41.38-27.92,65.67-28.43,23.57-.5,41.07,16.66,48.63,37.78,4.17,11.66,5.76,24,7.31,36.23.18,1.39,3.17,1.39,3,.06C647.52,74,644.42,52.24,630.28,36c-12.95-14.84-32-20.32-51-16.11C558,24.6,540,37.73,521.57,48.55a294.14,294.14,0,0,1-59.65,26.87c-20.89,6.65-42.72,10.74-64.67,11-21.14.26-43.23-2.72-62.7-11.31-17.36-7.64-33.74-21.87-33.54-42.3.09-8.44,3.13-16.92,9.33-22.8,6.89-6.54,16.6-8.88,25.88-7.61a44.45,44.45,0,0,1,23.31,10.82c7.56,6.74,11.92,16.32,13.71,26.17,3.72,20.5-2.47,42.33-10.24,61.2-16,38.79-45.91,71.26-84.06,89a162.44,162.44,0,0,1-63.15,15.32c-20,.64-43-1.75-59.2-14.71-7.12-5.7-12.09-13.49-13.22-22.63-1-8.1,1-16.69,6.57-22.82,13-14.3,36.79-7.69,47.26,6.29,13.13,17.54,6.77,42.33-1.92,60.27-8.5,17.54-21.24,32.89-36.11,45.41-33.9,28.55-77.86,41.91-121.57,44.71a307.26,307.26,0,0,1-33.66.23c-1.86-.09-1.89,2,0,2.06Z"/><path class="cls-1" d="M14.3,290.08A35.76,35.76,0,0,0,.11,301.77a.47.47,0,0,0,0,.55l9.7,16.16c.44.74,2.88,1,2.27,0L2.34,302.3l0,.56a34.76,34.76,0,0,1,13.84-11.45c1.08-.5-1-1.7-1.84-1.33Z"/></g></g></svg>