<svg width="202" height="1843" viewBox="0 0 202 1843" fill="none" xmlns="http://www.w3.org/2000/svg">
<g clip-path="url(#clip0)">
<path fill-rule="evenodd" clip-rule="evenodd" d="M376.998 484.997C115.87 429.946 259.378 556.282 77.5 502.5C-329.047 344.722 1.7784 573.119 -92 623.998C-230.976 699.389 -969.934 1725.58 -854.356 1803.42C-798.439 1841.08 -89.3002 1820.57 57.6371 1750.11C93.436 1732.94 171.798 1729.65 245.443 1771.09C719.64 2037.97 1059.52 628.873 376.998 484.997Z" fill="#E9EFF4"/>
<path fill-rule="evenodd" clip-rule="evenodd" d="M665.914 33.7439C404.786 -21.3073 278.98 148.92 97.1024 95.1376C-309.444 -62.6397 -483.633 12.0329 -577.411 62.912C-716.387 138.303 -653.932 1746.59 -538.354 1824.43C-482.437 1862.08 127.563 1680.96 274.5 1610.5C310.299 1593.33 487.8 1750.65 561.445 1792.1C1035.64 2058.97 1348.43 177.619 665.914 33.7439Z" fill="#E9EFF4"/>
</g>
<defs>
<clipPath id="clip0">
<rect width="202" height="1843" fill="white"/>
</clipPath>
</defs>
</svg>
