<svg width="638" height="392" viewBox="0 0 638 392" fill="none" xmlns="http://www.w3.org/2000/svg">
<path d="M376.302 391.899C427.392 391.23 499.838 374.466 519.523 332.899C540.682 288.212 538.176 278.653 572.709 229.978C607.189 181.371 588.764 112.977 551.908 83.9221C499.708 42.7688 454.328 52.9829 361.643 53.3004C296.735 53.5212 224.204 15.8393 187.433 6.03234C162.723 -0.558546 109.962 -7.71536 76.4602 19.78C39.4671 50.1395 47.7037 106.276 41.2815 127.733C34.5525 150.211 -9.98548 229.681 37.9333 291.67C95.7204 366.426 224.687 393.894 376.302 391.899Z" fill="white"/>
<path fill-rule="evenodd" clip-rule="evenodd" d="M344.874 250.718C384.625 250.718 429.133 265.814 429.133 271.775C429.133 273.057 425.825 274.281 420.228 275.423C444.668 277.15 461.585 280.872 461.585 285.195C461.585 285.588 461.444 285.973 461.176 286.351C464.974 286.959 468.527 287.627 471.805 288.361C474.979 287.56 478.807 286.855 483.14 286.255C476.592 284.631 472.734 282.637 472.734 280.479C472.734 275.03 497.36 270.618 527.738 270.618C558.116 270.618 582.741 275.037 582.741 280.479C582.741 283.667 574.29 286.507 561.186 288.309C566.173 289.547 569.6 291 570.953 292.572C574.521 292.438 578.215 292.372 581.998 292.372C612.376 292.372 637.002 296.791 637.002 302.233C637.002 307.675 612.376 312.094 581.998 312.094C554.481 312.094 531.685 308.468 527.634 303.738C524.066 303.871 520.372 303.938 516.589 303.938C509.044 303.938 501.849 303.664 495.308 303.174C493.509 306.918 486.589 310.322 476.124 313.05C488.143 314.859 495.776 317.573 495.776 320.605C495.776 323.408 489.258 325.936 478.792 327.73C472.786 332.876 454.71 336.605 433.34 336.605C407.065 336.605 385.769 330.97 385.769 324.023C385.769 323.356 385.97 322.696 386.349 322.058C385.97 321.591 385.769 321.109 385.769 320.62C385.769 319.975 386.111 319.345 386.773 318.737C353.005 316.379 328.536 309.432 328.536 301.232C328.536 298.97 330.394 296.805 333.798 294.804C323.972 295.56 312.83 295.982 301.027 295.982C292.107 295.982 283.567 295.738 275.681 295.293C274.893 301.276 259.313 306.607 235.231 310.151C247.948 314.021 255.939 319.627 255.939 325.862C255.939 337.532 227.961 346.993 193.458 346.993C177.016 346.993 162.061 344.842 150.904 341.336C113.613 340.742 84.194 333.847 84.194 325.439C84.194 320.086 96.1016 315.356 114.364 312.464C78.6714 309.172 54.2617 302.507 54.2617 294.818C54.2617 283.86 118.772 264.42 179.922 264.42C208.792 264.42 231.752 268.75 247.948 274.481C246.454 273.614 245.667 272.709 245.667 271.775C245.667 265.814 305.13 250.718 344.874 250.718Z" fill="#DAE9E7"/>
<path fill-rule="evenodd" clip-rule="evenodd" d="M243.144 274.904C241.568 273.339 261.34 260.372 262.291 220.201H311.913C312.865 260.372 332.636 273.339 331.06 274.904H243.144Z" fill="#A2B2BC"/>
<path fill-rule="evenodd" clip-rule="evenodd" d="M141.969 47.4487H432.596C434.239 47.4487 435.569 48.7759 435.569 50.4144V233.547C435.569 235.186 434.239 236.513 432.596 236.513H141.969C140.327 236.513 138.996 235.186 138.996 233.547V50.4144C138.996 48.7759 140.327 47.4487 141.969 47.4487Z" fill="#C3CFD7"/>
<path d="M425.905 56.3457H147.914V215.011H425.905V56.3457Z" fill="white"/>
<path fill-rule="evenodd" clip-rule="evenodd" d="M376.104 73.3989H405.836C408.296 73.3989 410.296 75.3934 410.296 77.8475V160.887C410.296 163.341 408.296 165.336 405.836 165.336H376.104C373.644 165.336 371.645 163.341 371.645 160.887V77.8475C371.645 75.3934 373.644 73.3989 376.104 73.3989Z" fill="#E7E3E3"/>
<path fill-rule="evenodd" clip-rule="evenodd" d="M165.011 73.3989H211.095C213.555 73.3989 215.554 75.3934 215.554 77.8475V193.51C215.554 195.964 213.555 197.959 211.095 197.959H165.011C162.55 197.959 160.551 195.964 160.551 193.51V77.8475C160.551 75.3934 162.55 73.3989 165.011 73.3989Z" fill="#E7E3E3"/>
<path fill-rule="evenodd" clip-rule="evenodd" d="M236.369 73.3989H349.349C354.277 73.3989 358.268 77.3804 358.268 82.2961V148.283C358.268 153.199 354.277 157.18 349.349 157.18H236.369C231.441 157.18 227.449 153.199 227.449 148.283V82.2961C227.449 77.3804 231.441 73.3989 236.369 73.3989Z" fill="#E7E3E3"/>
<path fill-rule="evenodd" clip-rule="evenodd" d="M307.725 107.134L277.25 122.333V91.9346L307.725 107.134Z" fill="white"/>
<path fill-rule="evenodd" clip-rule="evenodd" d="M227.449 142.352H358.268V154.214C358.268 159.13 354.277 163.112 349.349 163.112H236.369C231.441 163.112 227.449 159.13 227.449 154.214V142.352Z" fill="#F7F7F7"/>
<path fill-rule="evenodd" clip-rule="evenodd" d="M229.679 171.267H356.038C357.272 171.267 358.268 172.261 358.268 173.491C358.268 174.722 357.272 175.716 356.038 175.716H229.679C228.445 175.716 227.449 174.722 227.449 173.491C227.449 172.261 228.445 171.267 229.679 171.267Z" fill="#E7E3E3"/>
<path fill-rule="evenodd" clip-rule="evenodd" d="M229.679 178.682H356.038C357.272 178.682 358.268 179.675 358.268 180.906C358.268 182.137 357.272 183.13 356.038 183.13H229.679C228.445 183.13 227.449 182.137 227.449 180.906C227.449 179.675 228.445 178.682 229.679 178.682Z" fill="#E7E3E3"/>
<path fill-rule="evenodd" clip-rule="evenodd" d="M229.679 186.096H356.038C357.272 186.096 358.268 187.089 358.268 188.32C358.268 189.551 357.272 190.544 356.038 190.544H229.679C228.445 190.544 227.449 189.551 227.449 188.32C227.449 187.089 228.445 186.096 229.679 186.096Z" fill="#E7E3E3"/>
<path fill-rule="evenodd" clip-rule="evenodd" d="M229.679 193.51H356.038C357.272 193.51 358.268 194.504 358.268 195.735C358.268 196.965 357.272 197.959 356.038 197.959H229.679C228.445 197.959 227.449 196.965 227.449 195.735C227.449 194.504 228.445 193.51 229.679 193.51Z" fill="#E7E3E3"/>
<path d="M287.282 231.323C290.361 231.323 292.856 228.833 292.856 225.762C292.856 222.691 290.361 220.201 287.282 220.201C284.203 220.201 281.707 222.691 281.707 225.762C281.707 228.833 284.203 231.323 287.282 231.323Z" fill="#A2B2BC"/>
<path fill-rule="evenodd" clip-rule="evenodd" d="M377.592 82.2959H404.35C405.168 82.2959 405.837 82.9632 405.837 83.7788C405.837 84.5943 405.168 85.2616 404.35 85.2616H377.592C376.774 85.2616 376.105 84.5943 376.105 83.7788C376.105 82.9632 376.774 82.2959 377.592 82.2959Z" fill="white"/>
<path fill-rule="evenodd" clip-rule="evenodd" d="M377.592 111.211H404.35C405.168 111.211 405.837 111.879 405.837 112.694C405.837 113.51 405.168 114.177 404.35 114.177H377.592C376.774 114.177 376.105 113.51 376.105 112.694C376.105 111.879 376.774 111.211 377.592 111.211Z" fill="white"/>
<path fill-rule="evenodd" clip-rule="evenodd" d="M377.592 87.4858H404.35C405.168 87.4858 405.837 88.1531 405.837 88.9687C405.837 89.7843 405.168 90.4515 404.35 90.4515H377.592C376.774 90.4515 376.105 89.7843 376.105 88.9687C376.105 88.1531 376.774 87.4858 377.592 87.4858Z" fill="white"/>
<path fill-rule="evenodd" clip-rule="evenodd" d="M377.592 116.401H404.35C405.168 116.401 405.837 117.069 405.837 117.884C405.837 118.7 405.168 119.367 404.35 119.367H377.592C376.774 119.367 376.105 118.7 376.105 117.884C376.105 117.069 376.774 116.401 377.592 116.401Z" fill="white"/>
<path fill-rule="evenodd" clip-rule="evenodd" d="M377.592 91.9346H404.35C405.168 91.9346 405.837 92.6019 405.837 93.4174C405.837 94.233 405.168 94.9003 404.35 94.9003H377.592C376.774 94.9003 376.105 94.233 376.105 93.4174C376.105 92.6019 376.774 91.9346 377.592 91.9346Z" fill="white"/>
<path fill-rule="evenodd" clip-rule="evenodd" d="M377.592 120.85H404.35C405.168 120.85 405.837 121.517 405.837 122.333C405.837 123.149 405.168 123.816 404.35 123.816H377.592C376.774 123.816 376.105 123.149 376.105 122.333C376.105 121.517 376.774 120.85 377.592 120.85Z" fill="white"/>
<path fill-rule="evenodd" clip-rule="evenodd" d="M377.592 97.1245H404.35C405.168 97.1245 405.837 97.7918 405.837 98.6074C405.837 99.4229 405.168 100.09 404.35 100.09H377.592C376.774 100.09 376.105 99.4229 376.105 98.6074C376.105 97.7918 376.774 97.1245 377.592 97.1245Z" fill="white"/>
<path fill-rule="evenodd" clip-rule="evenodd" d="M377.592 126.04H404.35C405.168 126.04 405.837 126.707 405.837 127.523C405.837 128.338 405.168 129.006 404.35 129.006H377.592C376.774 129.006 376.105 128.338 376.105 127.523C376.105 126.707 376.774 126.04 377.592 126.04Z" fill="white"/>
<path fill-rule="evenodd" clip-rule="evenodd" d="M377.592 140.127H404.35C405.168 140.127 405.837 140.794 405.837 141.61C405.837 142.425 405.168 143.093 404.35 143.093H377.592C376.774 143.093 376.105 142.425 376.105 141.61C376.105 140.794 376.774 140.127 377.592 140.127Z" fill="white"/>
<path fill-rule="evenodd" clip-rule="evenodd" d="M377.592 145.317H404.35C405.168 145.317 405.837 145.984 405.837 146.8C405.837 147.615 405.168 148.283 404.35 148.283H377.592C376.774 148.283 376.105 147.615 376.105 146.8C376.105 145.984 376.774 145.317 377.592 145.317Z" fill="white"/>
<path fill-rule="evenodd" clip-rule="evenodd" d="M377.592 149.766H404.35C405.168 149.766 405.837 150.433 405.837 151.248C405.837 152.064 405.168 152.731 404.35 152.731H377.592C376.774 152.731 376.105 152.064 376.105 151.248C376.105 150.433 376.774 149.766 377.592 149.766Z" fill="white"/>
<path fill-rule="evenodd" clip-rule="evenodd" d="M377.592 154.956H404.35C405.168 154.956 405.837 155.623 405.837 156.438C405.837 157.254 405.168 157.921 404.35 157.921H377.592C376.774 157.921 376.105 157.254 376.105 156.438C376.105 155.623 376.774 154.956 377.592 154.956Z" fill="white"/>
<path opacity="0.5" fill-rule="evenodd" clip-rule="evenodd" d="M99.3571 104.969C101.698 101.64 106.047 93.1726 109.347 91.9863C111.473 91.2226 110.848 99.1485 110.878 100.661C110.982 106.511 110.41 112.331 109.704 118.129C108.433 128.598 104.278 137.918 98.5766 146.822C95.6406 151.404 92.2066 156.046 87.4421 158.907C85.2494 160.227 82.6107 160.442 80.4477 161.577C77.928 162.896 79.2956 161.829 78.1658 164.453C76.5901 168.094 76.0846 172.787 75.3488 176.672C71.9965 194.503 63.8798 288.746 65.2846 306.882C65.411 308.49 63.1662 308.876 63.0473 306.911C62.4527 296.509 67.6111 224.45 70.2126 200.887C72.8142 177.325 75.4528 156.505 78.0915 148.357C81.2951 138.466 87.0853 126.574 91.9019 117.35C94.1317 113.065 96.5697 108.928 99.3571 104.969Z" fill="#69A1AC"/>
<path opacity="0.5" fill-rule="evenodd" clip-rule="evenodd" d="M116.743 220.542C122.838 216.079 129.438 224.502 123.923 228.965C120.876 231.434 117.687 230.552 115.888 228.498C114.721 229.914 113.636 231.397 112.588 232.65C109.392 236.461 106.381 240.368 103.497 244.357C97.5065 252.654 92.3703 261.425 87.0038 270.033C81.7041 278.529 76.4491 287.063 71.6474 295.775C67.5816 303.152 62.1556 311.834 60.7656 319.923C62.8766 302.767 70.8967 286.277 80.4405 271.152C89.91 256.153 100.777 239.768 115.442 227.927C113.948 225.74 113.911 222.618 116.743 220.542Z" fill="#C1DEE2"/>
<path opacity="0.5" fill-rule="evenodd" clip-rule="evenodd" d="M1.06368 178.696C4.47538 179.363 10.0501 187.059 12.8597 189.995C16.2045 193.48 19.2297 197.195 22.0914 201.087C28.2458 209.465 33.7462 218.37 38.4215 227.66C46.0476 242.8 52.1575 258.347 56.5949 274.837C59.3079 284.928 61.0695 295.389 62.1101 305.784C62.3034 307.741 64.3697 322.852 61.3966 323.252C58.7282 323.615 59.5532 311.782 59.4269 310.173C57.97 292.008 53.6143 274.333 47.5491 257.213C46.226 253.484 44.9996 248.917 42.8886 245.558C41.3649 243.141 42.8812 243.986 40.2054 243.067C37.9086 242.281 35.2922 242.474 32.9434 241.51C27.837 239.419 23.7489 235.363 20.1662 231.285C13.2016 223.36 7.67897 214.789 4.80243 204.631C3.20436 198.996 1.74007 193.332 0.922455 187.526C0.714333 186.021 -1.12903 178.266 1.06368 178.696Z" fill="#69A1AC"/>
<path opacity="0.5" fill-rule="evenodd" clip-rule="evenodd" d="M14.532 50.6293C27.3835 72.8573 37.9382 97.2725 44.7616 122.006C48.8943 136.991 51.7783 152.368 54.6548 167.634C59.0997 191.271 63.2993 214.907 64.496 238.959C65.7001 263.152 68.0786 291.059 60.1329 314.362C64.102 290.703 60.3261 265.517 59.6571 241.71C59.3375 230.344 58.4084 219.089 57.1969 207.79C56.015 196.831 54.0899 185.925 52.2986 175.048C51.4215 169.754 50.5072 164.468 49.5707 159.182C49.2882 157.602 49.1767 152.924 48.1733 151.849C47.1624 150.766 42.0114 150.322 40.3985 149.528C37.1429 147.927 34.0805 145.651 31.3675 143.248C26.1719 138.637 21.6527 132.616 18.0849 126.677C9.82695 112.931 6.52674 96.1678 6.6977 80.2567C6.72743 77.165 11.7075 43.8971 9.70803 43.4374C9.82695 43.2966 9.94588 43.1483 10.0499 43C11.5663 45.5283 13.0528 48.0788 14.532 50.6293Z" fill="#89C5CC"/>
<path opacity="0.5" fill-rule="evenodd" clip-rule="evenodd" d="M153.216 130.8C153.417 130.518 154.702 128.531 154.056 128.657C155.379 128.398 152.235 130.844 155.535 129.347C153.967 130.822 154.873 132.735 154.896 134.722C154.933 137.947 154.39 141.143 153.781 144.294C152.822 149.276 151.387 154.125 149.306 158.759C144.772 168.857 137.079 178.585 127.951 184.902C123.44 188.023 119.025 189.083 113.881 190.514C110.633 191.419 110.373 193.095 108.648 196.238C105.058 202.785 101.535 209.31 98.3685 216.079C94.5851 224.16 90.9207 232.257 87.457 240.479C75.7947 268.186 66.3029 296.887 61.3229 326.596C61.2039 309.091 65.2623 291.059 70.3836 274.377C74.1149 262.218 78.9686 250.503 84.1493 238.9C85.4055 236.09 87.3083 232.472 87.836 229.373C88.2077 227.2 87.0704 225.109 86.5427 222.818C84.5061 213.899 84.6548 203.912 86.4386 194.941C88.4084 185.058 94.1168 180.468 103.765 179.067C107.295 178.555 111.777 178.741 115.011 177.243C118.534 175.612 119.991 170.236 121.99 166.789C127.372 157.528 133.771 148.646 141.115 140.839C143.152 138.681 145.337 136.687 147.656 134.833C149.128 133.669 152.22 132.231 153.216 130.8Z" fill="#89C5CC"/>
<path opacity="0.5" fill-rule="evenodd" clip-rule="evenodd" d="M45.0375 307.689H79.2735C80.8121 307.689 82.0608 308.935 82.0608 310.47C82.0608 310.603 82.0534 310.744 82.0311 310.878L79.385 328.776C78.5748 334.233 73.8846 338.273 68.3545 338.273H55.9564C50.4264 338.273 45.7362 334.233 44.926 328.776L42.2799 310.878C42.0569 309.358 43.105 307.949 44.6287 307.719C44.7699 307.697 44.9037 307.689 45.0375 307.689Z" fill="#C1DEE2"/>
<path fill-rule="evenodd" clip-rule="evenodd" d="M390.733 241.584C389.871 241.584 389.001 241.599 388.139 241.643C387.477 241.68 386.474 241.547 385.916 241.955C385.337 242.377 385.374 243.252 385.47 243.868C385.946 247.122 387.12 250.014 389.566 252.32C393.334 255.871 397.645 257.68 402.759 258.481C406.349 259.045 409.657 258.259 412.303 255.716C414.236 259.289 415.7 263.241 416.428 267.23C416.793 269.202 416.904 271.145 416.837 273.147C416.793 274.429 416.726 275.712 416.584 276.987C416.525 277.543 416.243 278.381 416.458 278.907C416.711 279.523 417.573 279.582 417.967 279.056C418.287 278.618 418.227 277.758 418.294 277.239C418.405 276.379 418.502 275.519 418.576 274.652C418.695 273.25 418.785 271.849 418.777 270.448C418.762 267.297 418.056 264.131 417.097 261.135C415.254 255.389 412.258 250.288 407.605 246.285C404.744 243.823 401.466 242.822 397.749 242.288C395.43 241.977 393.082 241.584 390.733 241.584Z" fill="#89C5CC"/>
<path fill-rule="evenodd" clip-rule="evenodd" d="M404.099 264.42C394.748 264.42 388.453 271.938 385.472 279.753C384.35 282.696 384.09 285.936 383.651 289.028C383.51 290.021 383.562 291.534 383.16 292.416C383.012 292.735 382.677 292.854 382.841 293.291C382.937 293.558 383.131 293.721 383.413 293.773C384 293.884 384.833 293.239 385.338 292.987C389.523 290.896 392.273 287.656 394.51 283.697C395.9 281.243 397.313 278.692 398.138 276.001C398.643 274.355 398.933 272.62 399.111 270.915C399.178 270.24 399.245 269.551 399.238 268.876C399.23 268.201 398.918 267.853 398.695 267.267C401.817 266.088 405.34 265.769 408.499 266.985C411.42 268.112 413.851 270.299 415.211 273.043C415.568 273.754 415.835 274.511 416.036 275.274C416.163 275.779 416.17 276.431 416.415 276.883C417.002 277.981 418.229 277.247 418.11 276.223C417.783 273.362 416.14 270.492 414.044 268.505C411.405 265.999 407.823 264.42 404.099 264.42Z" fill="#89C5CC"/>
<path fill-rule="evenodd" clip-rule="evenodd" d="M419.424 99.3486H512.96C515.851 99.3486 518.193 101.684 518.193 104.568V291.171C518.193 294.055 515.851 296.39 512.96 296.39H419.424C416.533 296.39 414.191 294.055 414.191 291.171V104.568C414.191 101.684 416.533 99.3486 419.424 99.3486Z" fill="#DDE3E9"/>
<path d="M465.866 283.994C471.285 283.994 475.678 279.612 475.678 274.207C475.678 268.802 471.285 264.42 465.866 264.42C460.447 264.42 456.055 268.802 456.055 274.207C456.055 279.612 460.447 283.994 465.866 283.994Z" fill="white"/>
<path d="M457.363 112.398C458.085 112.398 458.671 111.814 458.671 111.093C458.671 110.372 458.085 109.788 457.363 109.788C456.64 109.788 456.055 110.372 456.055 111.093C456.055 111.814 456.64 112.398 457.363 112.398Z" fill="white"/>
<path fill-rule="evenodd" clip-rule="evenodd" d="M463.25 109.788H474.369C475.09 109.788 475.677 110.374 475.677 111.093C475.677 111.812 475.09 112.398 474.369 112.398H463.25C462.529 112.398 461.941 111.812 461.941 111.093C461.941 110.374 462.529 109.788 463.25 109.788Z" fill="white"/>
<path fill-rule="evenodd" clip-rule="evenodd" d="M425.968 117.617H506.422C507.864 117.617 509.038 118.789 509.038 120.227V150.24C509.038 151.678 507.864 152.85 506.422 152.85H425.968C424.526 152.85 423.352 151.678 423.352 150.24V120.227C423.352 118.789 424.526 117.617 425.968 117.617Z" fill="white"/>
<path fill-rule="evenodd" clip-rule="evenodd" d="M431.201 128.187H475.025C476.11 128.187 476.987 129.062 476.987 130.144V131.516C476.987 132.599 476.11 133.473 475.025 133.473H431.201C430.115 133.473 429.238 132.599 429.238 131.516V130.144C429.238 129.062 430.115 128.187 431.201 128.187Z" fill="#DDE3E9"/>
<path fill-rule="evenodd" clip-rule="evenodd" d="M431.201 136.995H459.327C460.412 136.995 461.289 137.87 461.289 138.952V140.324C461.289 141.407 460.412 142.281 459.327 142.281H431.201C430.115 142.281 429.238 141.407 429.238 140.324V138.952C429.238 137.87 430.115 136.995 431.201 136.995Z" fill="#DDE3E9"/>
<path d="M499.879 139.801C502.408 139.801 504.458 137.756 504.458 135.234C504.458 132.711 502.408 130.667 499.879 130.667C497.351 130.667 495.301 132.711 495.301 135.234C495.301 137.756 497.351 139.801 499.879 139.801Z" fill="#DDE3E9"/>
<path d="M499.88 137.191C500.964 137.191 501.842 136.315 501.842 135.234C501.842 134.153 500.964 133.276 499.88 133.276C498.797 133.276 497.918 134.153 497.918 135.234C497.918 136.315 498.797 137.191 499.88 137.191Z" fill="#F2F2F2"/>
<path fill-rule="evenodd" clip-rule="evenodd" d="M425.968 158.069H506.422C507.864 158.069 509.038 159.241 509.038 160.679V182.863C509.038 184.301 507.864 185.472 506.422 185.472H425.968C424.526 185.472 423.352 184.301 423.352 182.863V160.679C423.352 159.241 424.526 158.069 425.968 158.069Z" fill="white"/>
<path fill-rule="evenodd" clip-rule="evenodd" d="M450.822 166.29H494.646C495.731 166.29 496.608 167.165 496.608 168.247V168.44C496.608 169.523 495.731 170.398 494.646 170.398H450.822C449.736 170.398 448.859 169.523 448.859 168.44V168.247C448.859 167.165 449.736 166.29 450.822 166.29Z" fill="#DDE3E9"/>
<path fill-rule="evenodd" clip-rule="evenodd" d="M450.822 173.141H478.948C480.033 173.141 480.91 174.016 480.91 175.098V175.291C480.91 176.373 480.033 177.248 478.948 177.248H450.822C449.736 177.248 448.859 176.373 448.859 175.291V175.098C448.859 174.016 449.736 173.141 450.822 173.141Z" fill="#DDE3E9"/>
<path d="M437.087 179.6C441.422 179.6 444.937 176.095 444.937 171.771C444.937 167.447 441.422 163.941 437.087 163.941C432.752 163.941 429.238 167.447 429.238 171.771C429.238 176.095 432.752 179.6 437.087 179.6Z" fill="#C5CFD6"/>
<path fill-rule="evenodd" clip-rule="evenodd" d="M425.968 190.692H506.422C507.864 190.692 509.038 191.864 509.038 193.302V215.486C509.038 216.924 507.864 218.096 506.422 218.096H425.968C424.526 218.096 423.352 216.924 423.352 215.486V193.302C423.352 191.864 424.526 190.692 425.968 190.692Z" fill="white"/>
<path fill-rule="evenodd" clip-rule="evenodd" d="M431.201 198.913H475.025C476.11 198.913 476.987 199.788 476.987 200.87V201.063C476.987 202.146 476.11 203.021 475.025 203.021H431.201C430.115 203.021 429.238 202.146 429.238 201.063V200.87C429.238 199.788 430.115 198.913 431.201 198.913Z" fill="#DDE3E9"/>
<path fill-rule="evenodd" clip-rule="evenodd" d="M431.201 205.764H459.327C460.412 205.764 461.289 206.639 461.289 207.721V207.914C461.289 208.996 460.412 209.871 459.327 209.871H431.201C430.115 209.871 429.238 208.996 429.238 207.914V207.721C429.238 206.639 430.115 205.764 431.201 205.764Z" fill="#AFB9C5"/>
<path d="M499.879 208.961C502.408 208.961 504.458 206.916 504.458 204.394C504.458 201.871 502.408 199.827 499.879 199.827C497.351 199.827 495.301 201.871 495.301 204.394C495.301 206.916 497.351 208.961 499.879 208.961Z" fill="#DDE3E9"/>
<path d="M499.88 206.351C500.964 206.351 501.842 205.475 501.842 204.394C501.842 203.313 500.964 202.437 499.88 202.437C498.797 202.437 497.918 203.313 497.918 204.394C497.918 205.475 498.797 206.351 499.88 206.351Z" fill="#F2F2F2"/>
<path fill-rule="evenodd" clip-rule="evenodd" d="M425.968 223.315H506.422C507.864 223.315 509.038 224.486 509.038 225.925V248.108C509.038 249.547 507.864 250.718 506.422 250.718H425.968C424.526 250.718 423.352 249.547 423.352 248.108V225.925C423.352 224.486 424.526 223.315 425.968 223.315Z" fill="white"/>
<path fill-rule="evenodd" clip-rule="evenodd" d="M450.822 231.536H494.646C495.731 231.536 496.608 232.411 496.608 233.493V233.686C496.608 234.768 495.731 235.643 494.646 235.643H450.822C449.736 235.643 448.859 234.768 448.859 233.686V233.493C448.859 232.411 449.736 231.536 450.822 231.536Z" fill="#DDE3E9"/>
<path fill-rule="evenodd" clip-rule="evenodd" d="M450.822 238.386H478.948C480.033 238.386 480.91 239.261 480.91 240.344V240.536C480.91 241.619 480.033 242.494 478.948 242.494H450.822C449.736 242.494 448.859 241.619 448.859 240.536V240.344C448.859 239.261 449.736 238.386 450.822 238.386Z" fill="#DDE3E9"/>
<path d="M437.087 244.846C441.422 244.846 444.937 241.341 444.937 237.016C444.937 232.692 441.422 229.187 437.087 229.187C432.752 229.187 429.238 232.692 429.238 237.016C429.238 241.341 432.752 244.846 437.087 244.846Z" fill="#C5CFD6"/>
<path d="M411.005 266.907C410.403 256.712 412.7 244.212 412.618 240.297L395.909 239.34C395.909 239.34 395.59 251.262 395.738 261.591C395.909 273.246 398.34 306.684 397.619 311.911C397.165 315.174 385.131 319.659 382.656 321.216C383.846 321.824 395.315 319.859 398.325 318.369C401.729 316.686 405.557 314.81 408.263 314.721C408.151 312.964 408.047 311.311 408.025 310.213C407.936 304.89 411.734 279.199 411.005 266.907Z" fill="#F7CA2C"/>
<path d="M394.638 318.369C390.543 319.852 387.674 319.437 386.061 318.829C385.184 319.237 384.321 319.6 383.541 319.941C380.56 321.238 375.788 321.743 376.309 323.099C376.718 324.16 387.971 324.649 393.999 323.389C396.846 322.795 401.729 320.875 401.729 320.875L401.915 323.478C401.915 323.478 407.326 323.774 407.906 323.307C408.791 322.595 408.486 318.406 408.174 314.714C404.494 314.81 399.269 316.693 394.638 318.369Z" fill="#1978C5"/>
<path d="M430.922 318.719C434.475 316.962 438.497 314.997 441.21 315.072C441.098 313.314 440.972 311.661 440.897 310.556C440.682 307.153 440.6 301.281 441.024 288.944C441.447 276.606 439.232 267.932 438.467 260.614C437.701 253.296 437.701 245.555 437.612 241.641L421.706 243.598C421.706 243.598 422.932 255.283 424.01 265.552C425.028 275.25 431.22 306.345 430.491 311.579C430.045 314.797 420.301 319.379 417.93 321.062C419.097 321.7 427.801 320.262 430.922 318.719Z" fill="#F7CA2C"/>
<path d="M410.609 323.991C410.609 324.718 421.387 324.992 427.155 323.739C429.875 323.146 434.536 321.225 434.536 321.225L434.714 323.828C434.714 323.828 440.252 323.991 440.809 323.516C441.649 322.805 441.456 318.705 441.159 315.057C437.628 314.983 432.388 316.955 427.765 318.705C423.699 320.247 420.897 319.735 419.388 319.097C418.533 319.565 417.752 319.965 417.158 320.284C414.437 321.737 410.609 322.59 410.609 323.991Z" fill="#1978C5"/>
<path d="M432.59 180.636C434.382 183.357 439.243 192.039 441.034 201.1C442.684 209.456 442.573 214.245 443.465 220.755C444.357 227.265 448.965 241.559 448.712 242.449C448.46 243.339 446.408 244.681 442.402 244.792C439.406 244.874 437.199 244.621 431.825 246.408C426.451 248.195 420.393 249.218 413.057 248.447C405.721 247.684 399.923 244.621 396.258 244.532C392.587 244.451 387.725 244.451 387.22 243.428C386.715 242.405 390.037 234.508 390.758 229.563C391.576 223.973 393.36 213.311 397.284 202.76C400.956 192.87 406.144 181.489 406.144 181.489C406.144 181.489 413.778 181.444 419.278 181.318C424.779 181.192 432.59 180.636 432.59 180.636Z" fill="#D84326"/>
<path d="M417.962 245.385C416.342 245.385 414.692 245.296 413.005 245.118C408.954 244.696 405.311 243.561 402.375 242.657C399.937 241.9 397.841 241.248 396.243 241.211L395.232 241.189C392.386 241.129 389.16 241.063 387.695 240.529C387.428 240.432 387.294 240.136 387.391 239.876C387.487 239.609 387.777 239.476 388.045 239.572C389.346 240.047 392.616 240.114 395.247 240.173L396.258 240.195C397.997 240.232 400.168 240.907 402.673 241.685C405.713 242.627 409.154 243.695 413.101 244.11C419.583 244.785 425.477 244.147 431.654 242.093C436.359 240.529 438.7 240.499 441.183 240.47C441.577 240.462 441.971 240.462 442.379 240.447C445.969 240.351 447.464 239.283 447.835 238.957C448.051 238.772 448.37 238.794 448.556 239.009C448.742 239.224 448.72 239.543 448.504 239.728C447.939 240.217 446.222 241.367 442.402 241.463C441.985 241.47 441.584 241.478 441.19 241.485C438.797 241.515 436.53 241.537 431.973 243.057C427.268 244.622 422.719 245.385 417.962 245.385Z" fill="#F7CA2C"/>
<path d="M419.589 241.989C417.552 241.989 415.411 241.871 413.167 241.634C408.922 241.189 405.147 240.032 401.817 239.001C399.408 238.26 397.327 237.622 395.684 237.459C394.324 237.326 393.09 237.437 391.998 237.533C390.704 237.645 389.589 237.748 388.66 237.407C388.393 237.311 388.259 237.014 388.356 236.755C388.452 236.495 388.742 236.355 389.01 236.451C389.723 236.71 390.734 236.621 391.901 236.518C393.038 236.414 394.324 236.303 395.781 236.444C397.535 236.614 399.654 237.266 402.121 238.023C405.407 239.031 409.131 240.18 413.278 240.61C420.525 241.367 426.605 240.885 431.86 239.142C436.521 237.593 437.829 237.63 439.791 237.689C440.126 237.697 440.475 237.711 440.869 237.711C444.6 237.748 446.154 236.77 447.001 236.028C447.217 235.843 447.536 235.865 447.722 236.08C447.908 236.295 447.886 236.614 447.67 236.799C446.711 237.637 444.987 238.735 441.04 238.735C440.981 238.735 440.914 238.735 440.854 238.735C440.453 238.735 440.096 238.72 439.754 238.712C437.829 238.653 436.669 238.616 432.18 240.114C428.426 241.367 424.271 241.989 419.589 241.989Z" fill="#F7CA2C"/>
<path d="M384.524 126.375C383.744 126.634 382.435 127.331 382.688 128.614C382.941 129.889 385.253 132.128 386.018 132.469C386.784 132.811 386.271 130.779 385.587 129.889C384.903 129 386.806 131.031 387.423 130.824C387.869 130.675 388.018 129.823 387.527 128.481C387.088 127.287 389.043 126.182 388.189 126.012C387.341 125.849 385.55 126.034 384.524 126.375Z" fill="url(#paint0_linear)"/>
<path d="M396.52 141.144C396.743 140.855 402.964 136.555 403.425 136.384C404.072 136.147 414.158 149.285 415.563 150.753C416.968 152.221 413.705 159.546 411.014 160.058C408.338 160.562 395.94 141.9 396.52 141.144Z" fill="#F7CA2C"/>
<path d="M378.727 125.804C379.626 124.899 384.138 125.418 384.74 125.589C385.335 125.759 386.829 124.529 387.728 124.484C388.628 124.44 391.363 124.944 392.976 125.848C394.76 126.849 403.679 136.651 403.679 136.651C403.679 136.651 403.553 139.201 401.315 140.736C399.071 142.271 397.629 141.567 397.629 141.567C397.629 141.567 394.47 135.821 393.385 135.116C392.299 134.412 389.609 135.598 387.401 135.057C385.312 134.545 382.414 131.861 383.216 131.164C384.064 130.416 386.1 132.136 387.015 132.44C388.367 132.885 390.909 132.351 390.961 131.32C391.006 130.075 386.963 128.925 383.908 128.006C381.745 127.353 377.991 126.538 378.727 125.804Z" fill="#F7CA2C"/>
<path d="M398.393 142.234C397.026 142.234 396.238 141.574 396.186 141.53C395.97 141.344 395.948 141.025 396.134 140.81C396.319 140.595 396.646 140.573 396.855 140.758C396.914 140.81 398.401 142.004 401.024 140.306C403.039 139.001 403.158 136.658 403.158 136.629C403.173 136.347 403.41 136.125 403.685 136.139C403.968 136.147 404.191 136.384 404.176 136.666C404.169 136.784 404.05 139.557 401.574 141.159C400.318 141.982 399.248 142.234 398.393 142.234Z" fill="#1AA9E8"/>
<path d="M429.173 129.5C430.541 132.31 435.655 142.089 435.313 149.667C434.971 157.244 432.927 165.066 432.667 170.938C432.407 176.81 432.585 180.636 432.585 180.636C432.585 180.636 426.958 184.121 418.426 183.869C410.153 183.624 406.146 181.489 406.146 181.489C406.146 181.489 405.901 172.48 404.868 166.341C404.058 161.537 402.073 158.727 402.051 153.322C402.021 146.412 412.687 137.478 415.869 132.651C418.478 128.684 429.173 129.5 429.173 129.5Z" fill="#0C6F63"/>
<path d="M419.333 184.395C419.028 184.395 418.723 184.388 418.411 184.38C410.116 184.136 406.072 182.03 405.901 181.941C405.656 181.807 405.559 181.503 405.693 181.251C405.827 180.999 406.139 180.91 406.385 181.036C406.422 181.059 410.413 183.12 418.441 183.357C426.706 183.609 432.258 180.236 432.311 180.199C432.548 180.05 432.868 180.124 433.017 180.362C433.165 180.599 433.091 180.918 432.853 181.066C432.63 181.207 427.397 184.395 419.333 184.395Z" fill="#9E0216"/>
<path d="M437.321 101.489C438.599 101.556 442.516 100.54 445.445 99.8948C451.228 98.6196 456.906 98.6937 458.363 102.705C459.619 106.152 457.531 109.014 457.873 111.424C458.341 114.701 468.152 117.467 468.338 124.013C468.524 130.293 463.351 132.562 461.939 135.305C460.534 138.049 457.732 146.375 447.994 145.708C442.427 145.322 440.896 142.052 440.896 139.776C440.896 136.855 443.713 134.608 442.368 132.503C441.022 130.397 436.719 131.791 435.782 129.315C434.756 126.616 437.061 124.399 438.785 123.064C440.51 121.722 443.074 120.321 442.494 118.342C441.922 116.362 438.399 115.865 438.525 113.878C438.674 111.557 442.94 109.837 442.234 107.494C441.699 105.73 438.651 106.093 436.027 105.582C433.419 105.063 437.321 101.489 437.321 101.489Z" fill="#003C66"/>
<path d="M427.894 117.934C427.567 120.892 429.172 129.508 429.172 129.508C429.172 129.508 425.166 133.652 419.279 133.934C416.387 134.068 415.867 132.659 415.867 132.659L417.064 120.833C417.064 120.833 418.863 117.467 422.52 116.066C426.184 114.664 427.552 115.977 427.552 115.977L427.894 117.934Z" fill="#F7CA2C"/>
<path d="M426.275 96.4921C421.072 94.2827 417.192 94.379 417.192 94.379C413.133 96.5811 402.348 116.696 409.127 121.589C413.312 124.607 420.484 121.53 425.249 117.423C425.539 117.512 425.851 117.563 426.178 117.563C427.836 117.563 429.181 116.266 429.181 114.657C429.181 114.197 429.069 113.767 428.876 113.382C429.315 112.692 429.657 112.018 429.857 111.373C431.032 107.621 431.478 98.709 426.275 96.4921Z" fill="#F7CA2C"/>
<path d="M418.196 108.673C418.122 108.673 418.04 108.659 417.966 108.636C417.564 108.51 417.334 108.08 417.468 107.673C417.706 106.924 418.56 105.537 419.11 105.018C419.415 104.729 419.906 104.736 420.196 105.048C420.486 105.352 420.478 105.841 420.166 106.13C419.809 106.464 419.081 107.643 418.932 108.132C418.828 108.458 418.523 108.673 418.196 108.673Z" fill="#0A304F"/>
<path d="M410.935 104.625C410.868 104.625 410.809 104.618 410.742 104.596C410.408 104.492 410.222 104.129 410.326 103.795C410.556 103.076 411.247 101.964 411.775 101.452C412.035 101.215 412.437 101.222 412.682 101.482C412.927 101.734 412.912 102.142 412.66 102.386C412.288 102.735 411.708 103.676 411.545 104.188C411.463 104.455 411.21 104.625 410.935 104.625Z" fill="#0A304F"/>
<path d="M418.239 111.691C417.704 111.691 417.206 111.573 416.76 111.328C415.816 110.824 415.199 109.867 415.013 108.629C414.842 107.436 415.095 106.123 415.741 104.922C416.745 103.054 418.477 101.845 420.164 101.845C420.699 101.845 421.197 101.964 421.643 102.209C423.553 103.224 424.007 106.101 422.661 108.614C421.658 110.483 419.919 111.691 418.239 111.691ZM420.156 102.609C418.774 102.609 417.273 103.684 416.41 105.278C415.845 106.331 415.615 107.48 415.764 108.511C415.905 109.497 416.388 110.253 417.109 110.639C417.451 110.817 417.823 110.913 418.231 110.913C419.614 110.913 421.123 109.838 421.978 108.244C423.122 106.101 422.81 103.691 421.271 102.876C420.937 102.705 420.558 102.609 420.156 102.609Z" fill="black"/>
<path d="M409.656 106.872C409.276 106.872 408.92 106.783 408.6 106.62C407.069 105.805 406.838 103.343 408.08 101.03C409.016 99.2799 410.585 98.1011 411.975 98.1011C412.354 98.1011 412.711 98.19 413.03 98.3532C413.788 98.7609 414.257 99.5839 414.331 100.681C414.405 101.712 414.13 102.868 413.55 103.944C412.614 105.693 411.046 106.872 409.656 106.872ZM411.982 98.8573C410.882 98.8573 409.559 99.8953 408.764 101.378C407.76 103.254 407.857 105.337 408.972 105.931C409.18 106.042 409.41 106.094 409.663 106.094C410.763 106.094 412.086 105.056 412.881 103.573C413.394 102.624 413.64 101.608 413.573 100.726C413.513 99.9027 413.194 99.2948 412.673 99.0204C412.465 98.9166 412.235 98.8573 411.982 98.8573Z" fill="black"/>
<path d="M414.293 103.046C412.279 104.714 406.682 107.472 406.533 108.451C406.332 109.756 409.328 110.49 410.012 110.49C410.696 110.49 411.194 108.644 413.015 106.115C414.04 104.677 415.363 102.156 414.293 103.046Z" fill="#F7CA2C"/>
<path d="M416.33 105.048C416.174 105.048 416.033 104.959 415.974 104.811C415.446 103.498 414.77 103.105 413.64 103.454C413.439 103.521 413.223 103.402 413.157 103.202C413.097 103.002 413.209 102.787 413.409 102.72C414.933 102.245 416.003 102.839 416.68 104.522C416.762 104.722 416.665 104.944 416.464 105.018C416.427 105.041 416.383 105.048 416.33 105.048Z" fill="black"/>
<path d="M418.91 134.446C416.034 134.446 415.424 132.896 415.395 132.829C415.298 132.563 415.432 132.273 415.699 132.177C415.967 132.081 416.257 132.214 416.353 132.481C416.368 132.511 416.844 133.541 419.26 133.423C424.879 133.156 428.774 129.196 428.811 129.152C429.004 128.952 429.331 128.944 429.532 129.137C429.733 129.33 429.74 129.656 429.547 129.856C429.376 130.034 425.325 134.157 419.312 134.438C419.171 134.446 419.037 134.446 418.91 134.446Z" fill="#710110"/>
<path d="M425.368 111.869C424.825 112.003 424.045 111.765 424.104 110.661C424.208 108.577 427.799 105.382 427.709 102.431C427.598 98.8497 420.856 98.0489 416.218 96.2398C411.216 94.2899 411.283 88.5364 412.531 86.6532C413.906 84.5772 416.337 85.2593 417.363 86.2825C418.388 87.3056 418.857 88.44 419.749 88.4104C420.782 88.3807 420.395 86.3714 421.964 86.3714C423.554 86.3714 424.922 89.2927 426.015 90.5012C427.88 92.5623 437.669 95.7876 438.167 102.794C438.851 112.41 429.255 119.891 428.193 119.891C426.379 119.891 426.476 117.793 427.249 117.378C428.029 116.955 429.486 116.073 429.114 114.049C428.75 112.017 426.572 111.573 425.368 111.869Z" fill="#003C66"/>
<path d="M427.269 111.958C428.124 112.277 428.793 112.959 429.061 113.819C429.128 113.73 429.157 113.612 429.12 113.5C428.503 111.306 425.3 109.356 423.575 108.311C423.211 108.088 422.899 107.895 422.713 107.769C422.542 107.651 422.297 107.688 422.178 107.858C422.052 108.029 422.096 108.266 422.267 108.392C422.475 108.54 422.78 108.726 423.174 108.963C424.296 109.638 426.088 110.728 427.269 111.958Z" fill="black"/>
<path d="M366.886 136.225C367.919 136.025 369.093 139.398 369.606 141.311C370.119 143.224 370.491 146.464 372.371 148.607C374.088 150.564 379.581 152.351 379.581 152.351C379.581 152.351 380.176 155.539 378.726 157.326C377.277 159.113 375.136 159.024 375.136 159.024C375.136 159.024 368.833 152.773 366.187 150.95C363.541 149.118 361.921 146.649 361.519 144.885C361.088 142.994 360.776 142.052 360.984 139.969C361.096 138.835 361.542 137.337 361.542 137.337C361.542 137.337 365.466 143.55 366.484 145.159C367.547 144.944 367.042 142.008 366.908 140.822C366.782 139.628 365.838 136.425 366.886 136.225Z" fill="#F7CA2C"/>
<path d="M422.349 137.804C426.824 137.033 429.455 139.042 430.853 142.075C432.391 145.396 432.072 149.496 429.678 151.876C427.292 154.256 411.914 172.488 403.812 172.258C394.781 171.999 374.704 159.572 374.504 158.401C374.303 157.237 378.116 151.824 378.636 152.017C379.157 152.203 399.828 159.995 402.897 159.172C405.975 158.342 419.242 138.345 422.349 137.804Z" fill="#F7CA2C"/>
<path d="M122.508 101.336C125.578 95.2113 137.969 68.7202 139.247 67.1038C140.526 65.4875 141.529 65.1687 141.893 62.722C142.191 60.6905 142.035 59.2892 142.406 57.7025C142.919 55.5302 146.004 49.7396 145.223 48.0492C144.711 46.9444 142.666 49.8805 141.893 50.8147C141.128 51.7489 138.846 55.4041 138.303 55.0705C138.162 53.6469 138.348 48.8647 138.348 48.8647C137.374 50.0139 136.036 52.95 135.263 56.0121C134.49 59.0742 134.728 60.127 133.019 63.6117C131.316 67.1038 117.283 82.4143 110.118 98.3698C109.702 99.2892 109.3 100.231 108.906 101.187C111.931 103.308 115.982 105.443 120.858 106.288C121.371 104.227 121.929 102.492 122.508 101.336Z" fill="#F7CA2C"/>
<path d="M106.704 323.432C107.648 325.789 111.684 326.776 115.066 327.576C118.716 328.436 121.31 328.933 121.161 330.386C120.99 332.047 113.059 332.596 107.299 332.425C101.538 332.255 97.3684 331.58 96.521 330.942C95.6217 330.268 95.6588 324.173 95.8744 322.816C96.0899 321.459 106.704 323.432 106.704 323.432Z" fill="#0A304F"/>
<path d="M100.69 185.103C99.9243 187.913 97.962 194.379 97.2782 206.627C96.5943 218.875 97.4491 256.481 97.4491 265.674C97.4491 274.861 95.2341 291.194 95.0632 302.256C94.8922 313.318 94.6692 323.721 95.3159 324.121C96.743 325.011 104.934 325.656 107.684 324.121C108.167 323.854 112.635 285.241 115.704 269.077C117.734 258.416 125.598 200.503 126.11 191.999C126.623 183.487 100.69 185.103 100.69 185.103Z" fill="#0A304F"/>
<path d="M102.477 321.541C98.6785 321.541 95.75 320.785 94.6722 320.244C94.4195 320.118 94.3154 319.806 94.4492 319.562C94.5756 319.31 94.8803 319.206 95.1331 319.339C96.6196 320.088 101.971 321.267 108.215 319.918C108.49 319.858 108.765 320.036 108.824 320.31C108.884 320.585 108.713 320.859 108.431 320.918C106.327 321.363 104.305 321.541 102.477 321.541Z" fill="#0A304F"/>
<path d="M148.249 326.383C149.059 327.828 152.664 329.623 156.053 330.423C159.703 331.283 162.297 331.78 162.148 333.233C161.977 334.894 154.046 335.443 148.286 335.272C142.525 335.102 138.645 334.887 137.798 334.249C136.898 333.574 136.43 328.763 136.646 327.398C136.861 326.034 148.249 326.383 148.249 326.383Z" fill="#0A304F"/>
<path d="M141.336 191.146C141.723 196.255 145.172 258.149 145.945 268.359C146.71 278.568 150.077 325.693 149.654 326.598C148.948 328.088 138.073 329.749 136.416 328.281C135.353 327.339 131.919 303.458 129.184 287.806C126.456 272.155 120.487 244.418 117.41 233.526C114.333 222.635 108.713 204.811 111.91 188.989C114.853 185.667 121.379 185.749 128.544 187.076C135.918 188.433 141.336 191.146 141.336 191.146Z" fill="#0A304F"/>
<path d="M139.486 325.285C137.479 325.285 135.852 325.07 135.153 324.811C134.885 324.714 134.752 324.418 134.856 324.151C134.952 323.884 135.25 323.758 135.517 323.854C137.16 324.462 144.868 324.796 149.305 322.023C149.543 321.875 149.863 321.949 150.011 322.186C150.16 322.423 150.086 322.742 149.848 322.89C146.897 324.729 142.697 325.285 139.486 325.285Z" fill="#0A304F"/>
<path d="M127.605 132.573C118.515 130.03 119.407 131.409 118.418 130.965C117.333 129.875 118.678 115.113 120.863 106.297C115.987 105.452 111.944 103.317 108.911 101.196C102.482 116.818 98.8472 136.725 98.6094 152.355C98.3566 168.948 98.9959 185.534 99.1222 186.305C99.2486 187.068 110.889 194.216 123.814 194.342C136.696 194.468 141.341 191.154 141.341 191.154C141.341 191.154 143.92 145.675 143.504 144.399C143.08 143.117 136.696 135.117 127.605 132.573Z" fill="#D84326"/>
<path d="M125.622 191.242C125.228 191.242 124.827 191.242 124.411 191.235C109.136 190.975 99.6592 184.251 98.5517 183.027C98.3658 182.82 98.3807 182.494 98.5888 182.308C98.797 182.123 99.124 182.138 99.3098 182.345C100.202 183.339 109.545 189.96 124.426 190.219C136.98 190.434 141.172 187.194 141.217 187.157C141.44 186.979 141.759 187.016 141.938 187.239C142.116 187.461 142.079 187.78 141.856 187.958C141.685 188.091 137.597 191.242 125.622 191.242Z" fill="#9E0216"/>
<path d="M135.351 142.613C135.165 142.613 134.987 142.516 134.898 142.338C133.3 139.298 127.829 135.057 125.376 134.101C125.116 133.997 124.982 133.701 125.086 133.441C125.19 133.182 125.488 133.048 125.748 133.152C128.401 134.183 134.08 138.587 135.804 141.864C135.938 142.116 135.842 142.42 135.589 142.553C135.515 142.598 135.433 142.613 135.351 142.613Z" fill="#9E0216"/>
<path d="M109.931 127.102C109.686 127.102 109.47 126.924 109.426 126.679C108.378 120.681 111.73 111.065 113.343 106.445C113.692 105.445 113.967 104.659 114.071 104.251C114.146 103.976 114.421 103.813 114.696 103.888C114.971 103.962 115.134 104.236 115.06 104.51C114.941 104.955 114.673 105.719 114.309 106.779C112.726 111.317 109.433 120.77 110.437 126.501C110.489 126.775 110.295 127.042 110.02 127.094C109.991 127.102 109.961 127.102 109.931 127.102Z" fill="#9E0216"/>
<path d="M103.724 129.252C103.583 129.252 103.441 129.193 103.337 129.081C103.152 128.866 103.174 128.548 103.382 128.362C104.408 127.465 109.93 124.433 116.33 127.124C116.59 127.235 116.709 127.532 116.605 127.791C116.494 128.051 116.196 128.169 115.936 128.066C109.997 125.567 104.831 128.459 104.058 129.126C103.962 129.207 103.843 129.252 103.724 129.252Z" fill="#9E0216"/>
<path d="M153.204 216.068C151.754 211.641 150.223 182.896 147.636 162.9C140.449 163.093 134.592 164.887 131.492 166.37C132.221 169.736 133.276 174.133 134.941 179.923C139.505 195.76 145.622 213.806 145.734 217.699C145.793 219.997 143.838 222.689 143.586 226.084C143.415 228.361 144.344 232.06 145.221 231.994C146.328 231.912 146.239 228.546 146.678 226.952C147.384 224.431 148.885 223.571 148.885 223.571C148.885 223.571 152.081 223.578 157.478 223.578C156.719 220.857 153.836 217.995 153.204 216.068Z" fill="#F7CA2C"/>
<path d="M143.084 143.845C137.963 138.396 128.159 144.097 127.215 151.245C127.014 152.772 128.411 154.566 129.43 157.198C130.039 158.763 130.418 161.462 131.481 166.362C134.581 164.88 140.43 163.085 147.625 162.893C146.392 153.343 144.912 145.788 143.084 143.845Z" fill="#D84326"/>
<path d="M131.49 166.874C131.297 166.874 131.119 166.77 131.03 166.585C130.911 166.333 131.015 166.029 131.267 165.903C132.873 165.139 138.797 162.619 147.62 162.389C147.902 162.389 148.14 162.604 148.148 162.885C148.155 163.167 147.932 163.404 147.65 163.412C140.804 163.59 134.932 165.295 131.713 166.83C131.639 166.859 131.565 166.874 131.49 166.874Z" fill="#9E0216"/>
<path d="M127.217 151.756C127.195 151.756 127.172 151.756 127.15 151.749C126.868 151.712 126.674 151.452 126.712 151.178C127.254 147.041 130.777 143.03 135.088 141.651C138.329 140.613 141.377 141.28 143.458 143.497C143.651 143.704 143.644 144.023 143.436 144.216C143.228 144.409 142.908 144.401 142.715 144.194C140.254 141.577 137.081 142.081 135.408 142.622C131.446 143.89 128.22 147.545 127.73 151.312C127.693 151.571 127.47 151.756 127.217 151.756Z" fill="#9E0216"/>
<path d="M131.928 97.0273C133.875 100.245 137.755 100.853 138.075 101.943C138.395 103.025 136.284 105.198 135.644 105.583C135.005 105.969 131.935 99.7113 131.675 99.0144C131.415 98.3174 131.928 97.0273 131.928 97.0273Z" fill="#F7CA2C"/>
<path d="M126.523 90.2954C126.523 90.2954 117.663 92.883 113.314 98.9182C110.913 102.255 113.894 108.127 117.046 112.724C115.99 113.621 115.448 114.659 115.448 114.659L115.039 115.786C114.801 118.358 111.999 127.218 110.973 129.858C110.594 130.837 113.255 134.447 119.067 134.737C124.189 134.989 127.6 132.564 127.6 132.564L128.091 121.369C128.091 121.369 128.262 120.664 128.448 119.715C130.923 119.404 133.74 118.433 136.089 116.023C141.976 109.98 129.823 92.9423 126.523 90.2954Z" fill="#F7CA2C"/>
<path d="M124.747 105.813C125.393 105.376 125.215 104.026 123.684 102.492C122.153 100.957 120.525 99.6001 120.829 97.9838C121.127 96.3823 126.419 94.6696 128.902 92.8309C132.982 89.8133 134.305 82.4954 131.83 82.0283C128.433 81.3833 127.356 86.0246 126.456 86.0246C125.393 86.0246 125.936 83.5408 124.405 83.7262C122.19 83.9857 121.335 87.1367 120.056 88.108C118.139 89.576 107.948 92.7049 107.302 100.275C106.781 106.436 110.654 109.943 112.356 112.145C114.17 114.488 114.727 115.689 115.039 115.785C115.604 115.956 118.094 115.585 120.22 114.703C122.524 113.747 123.929 112.531 123.483 111.96C123.037 111.389 119.685 110.744 119.454 107.941C119.283 105.902 120.673 105.005 121.759 105.198C122.844 105.391 124.018 106.303 124.747 105.813Z" fill="#710110"/>
<path d="M126.301 107.874C126.702 107.889 127.007 110.595 128.576 110.966C129.616 111.211 132.976 108.89 134.492 108.223C135.414 107.815 137.049 107.541 137.161 107.956C137.265 108.379 137.502 109.913 138.075 111.285C138.558 112.442 139.673 113.509 139.13 115.882C138.335 119.366 132.255 121.976 128.092 121.368C127.996 120.382 127.855 118.847 127.163 116.075C126.361 112.872 125.119 109.958 125.149 109.372C125.194 108.534 125.617 107.852 126.301 107.874Z" fill="#710110"/>
<path d="M130.759 101.424C130.425 101.424 130.113 101.291 130.023 101.098C129.845 100.727 129.042 99.9116 128.879 99.7856C128.626 99.5928 128.685 99.3111 129.02 99.1554C129.354 99.0071 129.823 99.0368 130.083 99.2221C130.291 99.3704 131.257 100.327 131.502 100.853C131.614 101.091 131.376 101.343 130.967 101.402C130.893 101.424 130.826 101.424 130.759 101.424Z" fill="#0A304F"/>
<path d="M119.075 134.743C124.196 134.996 127.608 132.571 127.608 132.571L127.786 128.493C126.5 129.183 123.713 130.376 120.048 130.191C115.596 129.969 113.002 127.804 112.192 126.358C111.709 127.841 111.27 129.109 110.973 129.857C110.594 130.844 113.262 134.447 119.075 134.743Z" fill="#D84326"/>
<path d="M119.835 135.27C119.574 135.27 119.314 135.262 119.047 135.248C114.75 135.033 111.985 133.046 110.915 131.4C110.477 130.725 110.328 130.117 110.499 129.679C110.603 129.42 110.9 129.287 111.16 129.39C111.421 129.494 111.554 129.783 111.458 130.05C111.443 130.102 111.473 130.451 111.904 131.029C112.952 132.452 115.397 134.046 119.099 134.232C123.982 134.469 127.275 132.178 127.305 132.156C127.535 131.993 127.855 132.045 128.018 132.274C128.182 132.504 128.13 132.823 127.899 132.986C127.765 133.083 124.629 135.27 119.835 135.27Z" fill="#9E0216"/>
<defs>
<linearGradient id="paint0_linear" x1="382.667" y1="129.222" x2="388.42" y2="129.222" gradientUnits="userSpaceOnUse">
<stop stop-color="#C16846"/>
<stop offset="0.2653" stop-color="#D27565"/>
<stop offset="0.5308" stop-color="#DE7F7B"/>
<stop offset="0.7814" stop-color="#E58589"/>
<stop offset="1" stop-color="#E8878E"/>
</linearGradient>
</defs>
</svg>
