<svg width="72" height="66" viewBox="0 0 72 66" fill="none" xmlns="http://www.w3.org/2000/svg">
<g clip-path="url(#clip0)">
<path d="M9.88037 45.72L23.6604 62.63C24.0667 63.128 24.6223 63.4823 25.2452 63.6407C25.8681 63.7991 26.5255 63.7533 27.1204 63.51L35.2504 60.19C35.4933 60.0902 35.7142 59.9435 35.9005 59.7583C36.0868 59.5732 36.2347 59.3531 36.3359 59.1108C36.4371 58.8684 36.4896 58.6085 36.4904 58.3458C36.4912 58.0832 36.4402 57.823 36.3404 57.58L35.6904 56C35.3708 55.2208 34.8622 54.5334 34.2104 54L27.2104 48.26C26.0761 47.3579 25.1198 46.2523 24.3904 45L21.9104 40.77" fill="white"/>
<path d="M9.88037 45.72L23.6604 62.63C24.0667 63.128 24.6223 63.4823 25.2452 63.6407C25.8681 63.7991 26.5255 63.7533 27.1204 63.51L35.2504 60.19C35.4933 60.0902 35.7142 59.9435 35.9005 59.7583C36.0868 59.5732 36.2347 59.3531 36.3359 59.1108C36.4371 58.8684 36.4896 58.6085 36.4904 58.3458C36.4912 58.0832 36.4402 57.823 36.3404 57.58L35.6904 56C35.3708 55.2208 34.8622 54.5334 34.2104 54L27.2104 48.26C26.0761 47.3579 25.1198 46.2523 24.3904 45L21.9104 40.77" stroke="black" stroke-width="3" stroke-linecap="round" stroke-linejoin="round"/>
<path d="M24.0103 48.58L25.8603 47.82" stroke="black" stroke-width="3" stroke-linecap="round" stroke-linejoin="round"/>
<path d="M28.6802 52.07L30.5302 51.31" stroke="black" stroke-width="3" stroke-linecap="round" stroke-linejoin="round"/>
<path d="M32.4302 55.94L34.2802 55.18" stroke="black" stroke-width="3" stroke-linecap="round" stroke-linejoin="round"/>
<path d="M21.9103 40.79C21.9103 40.79 41.9103 36.92 52.7503 42.22L36.0903 1.5C32.4703 13.78 15.0903 24.13 15.0903 24.13" fill="white"/>
<path d="M21.9103 40.79C21.9103 40.79 41.9103 36.92 52.7503 42.22L36.0903 1.5C32.4703 13.78 15.0903 24.13 15.0903 24.13" stroke="black" stroke-width="3" stroke-linecap="round" stroke-linejoin="round"/>
<path d="M41.48 14.69C43.2302 14.4603 45.0072 14.816 46.5341 15.7015C48.0611 16.5871 49.2524 17.9528 49.9223 19.5859C50.5922 21.219 50.7031 23.0278 50.2379 24.7306C49.7726 26.4334 48.7573 27.9344 47.35 29" fill="white"/>
<path d="M41.48 14.69C43.2302 14.4603 45.0072 14.816 46.5341 15.7015C48.0611 16.5871 49.2524 17.9528 49.9223 19.5859C50.5922 21.219 50.7031 23.0278 50.2379 24.7306C49.7726 26.4334 48.7573 27.9344 47.35 29" stroke="black" stroke-width="3" stroke-linecap="round" stroke-linejoin="round"/>
<path d="M18.8801 33.39L21.8801 40.79L10.8001 45.34C9.81874 45.7395 8.71895 45.7332 7.74217 45.3226C6.76538 44.912 5.99141 44.1307 5.59013 43.15L1.80013 33.9C1.60108 33.4129 1.50011 32.8913 1.50299 32.3651C1.50587 31.8389 1.61255 31.3184 1.81692 30.8335C2.02129 30.3486 2.31933 29.9087 2.69396 29.5392C3.0686 29.1697 3.51246 28.8777 4.00013 28.68L15.1001 24.13L15.8501 26" fill="white"/>
<path d="M18.8801 33.39L21.8801 40.79L10.8001 45.34C9.81874 45.7395 8.71895 45.7332 7.74217 45.3226C6.76538 44.912 5.99141 44.1307 5.59013 43.15L1.80013 33.9C1.60108 33.4129 1.50011 32.8913 1.50299 32.3651C1.50587 31.8389 1.61255 31.3184 1.81692 30.8335C2.02129 30.3486 2.31933 29.9087 2.69396 29.5392C3.0686 29.1697 3.51246 28.8777 4.00013 28.68L15.1001 24.13L15.8501 26" stroke="black" stroke-width="3" stroke-linecap="round" stroke-linejoin="round"/>
<path d="M50.1104 9.32C50.2829 8.27635 50.7086 7.29092 51.3503 6.45C52.5003 5 54.3603 3.82 54.6903 2" stroke="black" stroke-width="3" stroke-linecap="round" stroke-linejoin="round"/>
<path d="M53.73 14.68C58.6233 12.14 63.6233 9.82667 68.73 7.74001" stroke="black" stroke-width="3" stroke-linecap="round" stroke-linejoin="round"/>
<path d="M56.1401 22.89C60.6501 21.64 65.1401 20.51 69.7501 19.47" stroke="black" stroke-width="3" stroke-linecap="round" stroke-linejoin="round"/>
<path d="M58 29.13C59.795 30.6798 62.0607 31.5783 64.43 31.68C64.7707 32.2737 65.2222 32.7965 65.76 33.22C66.0325 33.429 66.3593 33.5552 66.7015 33.5836C67.0437 33.6119 67.3868 33.5413 67.69 33.38L67.25 33.31" stroke="black" stroke-width="3" stroke-linecap="round" stroke-linejoin="round"/>
</g>
<defs>
<clipPath id="clip0">
<rect width="71.25" height="65.24" fill="white"/>
</clipPath>
</defs>
</svg>
