<svg width="81" height="85" viewBox="0 0 81 85" fill="none" xmlns="http://www.w3.org/2000/svg">
<path d="M44.284 79.3677L10.3873 83.086C9.25412 83.2103 8.23931 82.3961 8.115 81.2629L3.23763 36.7996C3.11332 35.6664 3.92752 34.6516 5.06072 34.5273L38.9574 30.809C40.0906 30.6847 41.1054 31.4989 41.2297 32.6321L46.1071 77.0954C46.2413 78.2275 45.4172 79.2434 44.284 79.3677Z" fill="white"/>
<path fill-rule="evenodd" clip-rule="evenodd" d="M5.2249 36.0183C4.91519 36.0523 4.69533 36.3263 4.7293 36.636L9.60672 81.0993C9.64062 81.409 9.91472 81.6289 10.2244 81.5949L44.1211 77.8766C44.4428 77.8413 44.6522 77.5593 44.6181 77.272L44.6167 77.2589L39.7393 32.7956C39.7053 32.4859 39.4313 32.2661 39.1216 32.3L5.2249 36.0183ZM1.74719 36.9632C1.53255 35.0065 2.94109 33.2508 4.89778 33.0362L38.7944 29.3179C40.7511 29.1033 42.5068 30.5118 42.7214 32.4685L47.5981 76.926C47.8281 78.9 46.3904 80.6457 44.4482 80.8588L10.5515 84.577C8.59483 84.7917 6.8392 83.3831 6.62457 81.4264L1.74719 36.9632Z" fill="black"/>
<path d="M33.3179 45.0589L25.793 45.8843L25.5684 43.8366L33.0933 43.0112L33.3179 45.0589ZM30.9765 48.384L28.8194 48.6207L27.9428 40.6286L30.0998 40.392L30.9765 48.384Z" fill="black"/>
<path d="M17.618 53.6219L14.4072 53.9741L18.063 39.4287L20.1008 39.2052L20.1026 41.881L17.618 53.6219ZM23.9926 50.1058L16.587 50.9182L16.3199 48.4828L23.7254 47.6704L23.9926 50.1058ZM19.4167 41.9562L18.8085 39.347L20.8562 39.1223L27.608 52.526L24.3973 52.8782L19.4167 41.9562Z" fill="black"/>
<path fill-rule="evenodd" clip-rule="evenodd" d="M11.9202 62.7577C11.8299 61.9342 12.4242 61.1934 13.2477 61.103L32.2139 59.0226C33.0374 58.9322 33.7782 59.5266 33.8685 60.35C33.9589 61.1735 33.3645 61.9143 32.541 62.0047L13.5748 64.0852C12.7513 64.1755 12.0105 63.5811 11.9202 62.7577Z" fill="black"/>
<path fill-rule="evenodd" clip-rule="evenodd" d="M12.6302 69.2288C12.5398 68.4054 13.1342 67.6646 13.9577 67.5742L26.9398 66.1502C27.7633 66.0598 28.5041 66.6542 28.5944 67.4777C28.6847 68.3011 28.0904 69.0419 27.2669 69.1323L14.2848 70.5563C13.4613 70.6467 12.7205 70.0523 12.6302 69.2288Z" fill="black"/>
<path fill-rule="evenodd" clip-rule="evenodd" d="M13.3401 75.7C13.2498 74.8765 13.8441 74.1357 14.6676 74.0454L38.1567 71.4688C38.9802 71.3784 39.721 71.9728 39.8113 72.7963C39.9017 73.6198 39.3073 74.3605 38.4838 74.4509L14.9947 77.0275C14.1712 77.1178 13.4305 76.5235 13.3401 75.7Z" fill="black"/>
<path fill-rule="evenodd" clip-rule="evenodd" d="M44.4696 11.9589C45.2042 12.3417 45.4894 13.2476 45.1066 13.9823C43.5927 16.8874 42.3875 19.9446 41.5051 23.1039C41.2823 23.9018 40.4548 24.368 39.6569 24.1451C38.859 23.9223 38.3929 23.0948 38.6157 22.2969C39.5536 18.9389 40.8352 15.6873 42.4461 12.5959C42.829 11.8613 43.7349 11.5761 44.4696 11.9589Z" fill="black"/>
<path fill-rule="evenodd" clip-rule="evenodd" d="M61.8578 15.1005C62.2427 15.8341 61.9599 16.7408 61.2263 17.1256C56.1144 19.8073 51.3023 23.0784 46.9181 26.8359C46.2891 27.375 45.3421 27.3021 44.803 26.6731C44.2639 26.044 44.3368 25.0971 44.9659 24.558C49.5196 20.6552 54.5188 17.2567 59.8327 14.469C60.5663 14.0841 61.473 14.3669 61.8578 15.1005Z" fill="black"/>
<path fill-rule="evenodd" clip-rule="evenodd" d="M73.7986 29.2304C65.9523 30.0113 58.1624 31.3049 50.4883 33.1044C49.6817 33.2936 48.8745 32.7931 48.6854 31.9865C48.4963 31.18 48.9968 30.3728 49.8033 30.1837C57.6057 28.354 65.5252 27.0389 73.5016 26.2451C74.3259 26.1631 75.0606 26.7649 75.1426 27.5893C75.2247 28.4137 74.6229 29.1483 73.7986 29.2304Z" fill="black"/>
</svg>
