<svg width="83" height="75" viewBox="0 0 83 75" fill="none" xmlns="http://www.w3.org/2000/svg">
<g clip-path="url(#clip0)">
<path d="M61.9012 20.5941L2.30319 24.9917C1.824 25.027 1.46421 25.4441 1.49957 25.9233L4.44008 65.775C4.47543 66.2542 4.89255 66.614 5.37174 66.5786L64.9697 62.1811C65.4489 62.1457 65.8087 61.7286 65.7733 61.2494L62.8328 21.3978C62.7975 20.9186 62.3804 20.5588 61.9012 20.5941Z" fill="white" stroke="black" stroke-width="3" stroke-linecap="round" stroke-linejoin="round"/>
<path d="M24.0998 51.77L16.2998 45.04L23.0298 37.24" stroke="black" stroke-width="3" stroke-linecap="round" stroke-linejoin="round"/>
<path d="M43.2002 35.75L51.0002 42.48L44.2702 50.28" stroke="black" stroke-width="3" stroke-linecap="round" stroke-linejoin="round"/>
<path d="M36.2601 30.66L30.3701 56.91" stroke="black" stroke-width="3" stroke-linecap="round" stroke-linejoin="round"/>
<path d="M35.1699 64.39L35.7099 71.72" stroke="black" stroke-width="3" stroke-linecap="round" stroke-linejoin="round"/>
<path d="M22.0698 72.73L49.3598 70.71" stroke="black" stroke-width="3" stroke-linecap="round" stroke-linejoin="round"/>
<path d="M54.6001 13.16C54.3796 10.8716 54.4705 8.56395 54.8701 6.3" stroke="black" stroke-width="3" stroke-linecap="round" stroke-linejoin="round"/>
<path d="M63 14.23L67.68 1.5" stroke="black" stroke-width="3" stroke-linecap="round" stroke-linejoin="round"/>
<path d="M68.7603 17.79C72.4435 15.2547 76.6513 13.5832 81.0703 12.9" stroke="black" stroke-width="3" stroke-linecap="round" stroke-linejoin="round"/>
</g>
<defs>
<clipPath id="clip0">
<rect width="82.57" height="74.23" fill="white"/>
</clipPath>
</defs>
</svg>
