<svg width="84" height="75" viewBox="0 0 84 75" fill="none" xmlns="http://www.w3.org/2000/svg">
<g clip-path="url(#clip0)">
<path d="M60.4706 18.9869L2.17726 32.1453C1.70857 32.2511 1.41438 32.7168 1.52018 33.1855L10.3188 72.1648C10.4246 72.6335 10.8904 72.9277 11.359 72.8219L69.6524 59.6635C70.1211 59.5577 70.4153 59.092 70.3095 58.6233L61.5108 19.644C61.405 19.1753 60.9393 18.8811 60.4706 18.9869Z" fill="white" stroke="black" stroke-width="3" stroke-linecap="round" stroke-linejoin="round"/>
<path d="M54.9461 27.7679L43.1821 30.4233L46.3748 44.5674L58.1389 41.912L54.9461 27.7679Z" fill="white" stroke="black" stroke-width="3" stroke-linecap="round" stroke-linejoin="round"/>
<path d="M13.3198 48.44L29.5798 44.77" stroke="black" stroke-width="3" stroke-linecap="round" stroke-linejoin="round"/>
<path d="M14.9497 55.65L26.0697 53.14" stroke="black" stroke-width="3" stroke-linecap="round" stroke-linejoin="round"/>
<path d="M16.5698 62.85L36.6998 58.31" stroke="black" stroke-width="3" stroke-linecap="round" stroke-linejoin="round"/>
<path d="M54.5898 12C57.1082 8.77241 59.2176 5.24561 60.8698 1.5" stroke="black" stroke-width="3" stroke-linecap="round" stroke-linejoin="round"/>
<path d="M64.3799 13.58C68.2584 10.3257 71.8148 6.70565 74.9999 2.77" stroke="black" stroke-width="3" stroke-linecap="round" stroke-linejoin="round"/>
<path d="M70.77 20C74.3381 18.6375 78.0827 17.7923 81.89 17.49" stroke="black" stroke-width="3" stroke-linecap="round" stroke-linejoin="round"/>
</g>
<defs>
<clipPath id="clip0">
<rect width="83.39" height="74.34" fill="white"/>
</clipPath>
</defs>
</svg>
