<svg width="412" height="354" viewBox="0 0 412 354" fill="none" xmlns="http://www.w3.org/2000/svg">
<g clip-path="url(#clip0)">
<path fill-rule="evenodd" clip-rule="evenodd" d="M145.58 255.59C105.38 255.59 72.7899 262.22 72.7899 270.39C72.7899 271.63 73.5399 272.84 74.9699 274H73.9999H72.7999C32.5999 274 0.00994873 280.63 0.00994873 288.8C0.00994873 296.97 32.5999 303.6 72.7999 303.6C89.6899 303.6 105.24 302.43 117.59 300.47C129.94 302.43 145.49 303.6 162.38 303.6C171.4 303.6 180.04 303.27 188.01 302.66C188.57 308.47 196.65 313.84 209.98 318.2C196.4 320.89 187.97 324.64 187.97 328.8C187.97 332.99 196.53 336.77 210.28 339.46C217.71 347.38 242.15 353.19 271.15 353.19C306.05 353.19 334.34 344.77 334.34 334.39C334.34 333.08 333.89 331.79 333.03 330.56C333.37 329.98 333.54 329.39 333.54 328.79C333.54 328.51 333.5 328.23 333.43 327.95C378.93 324.48 411.94 314.17 411.94 301.98C411.94 286.96 361.8 274.78 299.96 274.78C271.59 274.78 245.68 277.34 225.95 281.57C221.68 280.02 216.07 278.64 209.44 277.49C215.13 275.38 218.37 272.96 218.37 270.38C218.37 262.21 185.78 255.59 145.58 255.59Z" fill="#DEEEEC"/>
<path d="M182.88 290.27L223.72 288.62" stroke="#0A5D5A" stroke-width="0.66" stroke-linecap="square"/>
<path fill-rule="evenodd" clip-rule="evenodd" d="M188.44 248.02L44.2999 250.55C42.1899 258.66 41.1299 265.04 41.1299 269.71C41.1299 274.38 42.1899 280.69 44.2999 288.67H188.44C186.18 279.64 185.05 272.86 185.05 268.34C185.05 263.82 186.18 257.05 188.44 248.02Z" fill="#6DE2D9"/>
<path fill-rule="evenodd" clip-rule="evenodd" d="M165.02 248.41L155.06 248.62C152.95 253.66 151.89 260.35 151.89 268.71C151.89 277.07 152.95 283.71 155.06 288.63L164.78 288.66C162.52 279.8 161.39 273.14 161.39 268.7C161.39 264.27 162.6 257.51 165.02 248.41Z" fill="#00AA99"/>
<path fill-rule="evenodd" clip-rule="evenodd" d="M117.16 249.67L107.44 249.85C105.85 252.92 104.79 259.34 104.27 269.09C104.74 278.93 105.8 285.46 107.44 288.68H117.16C114.9 279.98 113.77 273.45 113.77 269.09C113.77 264.73 114.9 258.25 117.16 249.67Z" fill="#00AA99"/>
<path fill-rule="evenodd" clip-rule="evenodd" d="M104.41 249.81L94.6599 250.05C92.6899 254.54 91.6999 260.89 91.6999 269.09C91.6999 277.29 92.7598 283.81 94.8698 288.65L104.59 288.68C102.07 281.06 100.89 274.69 101.05 269.58C101.2 264.47 102.32 257.88 104.41 249.81Z" fill="#00AA99"/>
<path d="M184.92 277.38L225.77 275.74" stroke="#13847F" stroke-width="0.66" stroke-linecap="square"/>
<path d="M184.92 274.43L225.77 272.78" stroke="#13847F" stroke-width="0.66" stroke-linecap="square"/>
<path d="M184.92 271.47L225.77 269.82" stroke="#0A5D5A" stroke-width="0.66" stroke-linecap="square"/>
<path d="M184.92 269.99L225.77 268.35" stroke="#13847F" stroke-width="0.66" stroke-linecap="square"/>
<path d="M184.92 267.03L225.77 265.39" stroke="#0A5D5A" stroke-width="0.66" stroke-linecap="square"/>
<path d="M184.92 265.56L225.77 263.91" stroke="#13847F" stroke-width="0.66" stroke-linecap="square"/>
<path d="M184.92 262.6L225.77 260.95" stroke="#0A5D5A" stroke-width="0.66" stroke-linecap="square"/>
<path d="M184.91 259.29L225.78 258.35" stroke="#13847F" stroke-width="0.66" stroke-linecap="square"/>
<path d="M184.91 256.33L225.78 255.4" stroke="#0A5D5A" stroke-width="0.66" stroke-linecap="square"/>
<path d="M184.92 283.3L225.77 281.65" stroke="#13847F" stroke-width="0.66" stroke-linecap="square"/>
<path d="M184.92 280.34L225.77 278.69" stroke="#0A5D5A" stroke-width="0.66" stroke-linecap="square"/>
<path fill-rule="evenodd" clip-rule="evenodd" d="M226.09 249.09L187.01 247.05C186.57 247.03 186.22 248.04 186.22 249.3C186.22 250.56 186.57 251.58 187.01 251.57L226.09 251.72C226.53 251.72 226.88 251.15 226.88 250.43C226.88 249.71 226.52 249.11 226.09 249.09Z" fill="#A1CECB"/>
<path fill-rule="evenodd" clip-rule="evenodd" d="M226.09 283.64L187.01 285.69C186.57 285.71 186.22 286.38 186.22 287.2C186.22 288.02 186.57 288.66 187.01 288.64L226.09 286.25C226.53 286.22 226.88 285.61 226.88 284.89C226.87 284.17 226.52 283.61 226.09 283.64Z" fill="#A1CECB"/>
<path fill-rule="evenodd" clip-rule="evenodd" d="M188.44 248.02L184.64 248.05C182.53 253.07 181.47 259.83 181.47 268.34C181.47 276.85 182.53 283.62 184.64 288.63L188.44 288.66C186.18 279.63 185.05 272.85 185.05 268.33C185.05 263.82 186.18 257.05 188.44 248.02Z" fill="#00AA99"/>
<path d="M59.08 134.916H130.04V162.266H59.08V134.916Z" fill="white"/>
<path fill-rule="evenodd" clip-rule="evenodd" d="M122.28 162.266H55.0101C54.4001 162.266 53.9001 162.766 53.9001 163.376C53.9001 163.986 54.4001 164.486 55.0101 164.486H122.28C122.89 164.486 123.39 163.986 123.39 163.376C123.39 162.766 122.89 162.266 122.28 162.266Z" fill="#FF9D00"/>
<path d="M128.93 153.026H58.7097" stroke="#94791A" stroke-width="0.66" stroke-linecap="square"/>
<path d="M128.93 143.426H58.7097" stroke="#94791A" stroke-width="0.66" stroke-linecap="square"/>
<path d="M128.93 151.556H58.7097" stroke="#DFB726" stroke-width="0.66" stroke-linecap="square"/>
<path d="M128.93 147.116H58.7097" stroke="#94791A" stroke-width="0.66" stroke-linecap="square"/>
<path d="M128.93 155.246H58.7097" stroke="#DFB726" stroke-width="0.66" stroke-linecap="square"/>
<path d="M128.93 158.946H58.7097" stroke="#94791A" stroke-width="0.66" stroke-linecap="square"/>
<path d="M128.93 140.466H58.7097" stroke="#94791A" stroke-width="0.66" stroke-linecap="square"/>
<path d="M128.93 148.596H58.7097" stroke="#DFB726" stroke-width="0.66" stroke-linecap="square"/>
<path fill-rule="evenodd" clip-rule="evenodd" d="M121.32 132.546C127.13 142.336 128.54 151.926 121.32 164.336C134.76 164.336 179.2 164.336 254.64 164.336C263.54 153.736 263.54 143.146 254.64 132.546C231.16 132.546 163.66 132.546 121.32 132.546Z" fill="#EAB91F"/>
<path fill-rule="evenodd" clip-rule="evenodd" d="M178.66 132.546C187.07 144.956 184.09 155.746 178.66 164.336C182.43 164.336 196.01 164.336 219.39 164.336C225.25 153.736 225.25 143.146 219.39 132.546C212.8 132.546 190.54 132.546 178.66 132.546Z" fill="#FF9D00"/>
<path fill-rule="evenodd" clip-rule="evenodd" d="M121 132.546C129.41 144.956 126.43 155.746 121 164.336C124.77 164.336 126.03 164.336 124.77 164.336C130.63 153.736 130.63 143.146 124.77 132.546C118.18 132.546 132.88 132.546 121 132.546Z" fill="#FF9D00"/>
<path fill-rule="evenodd" clip-rule="evenodd" d="M122.28 132.706H55.0101C54.4001 132.706 53.9001 133.206 53.9001 133.816C53.9001 134.426 54.4001 134.926 55.0101 134.926H122.28C122.89 134.926 123.39 134.426 123.39 133.816C123.39 133.196 122.89 132.706 122.28 132.706Z" fill="#FF9D00"/>
<path d="M50.5868 215.972H112.947V247.052H50.5868V215.972Z" fill="white"/>
<path fill-rule="evenodd" clip-rule="evenodd" d="M105.997 247.052H47.1569C46.5469 247.052 46.0469 247.552 46.0469 248.162V248.462C46.0469 249.072 46.5469 249.572 47.1569 249.572H105.997C106.607 249.572 107.107 249.072 107.107 248.462V248.162C107.097 247.542 106.607 247.052 105.997 247.052Z" fill="#EA9248"/>
<path d="M111.977 236.552H50.257" stroke="#D2AC85" stroke-width="0.66" stroke-linecap="square"/>
<path d="M111.977 225.632H50.257" stroke="#975218" stroke-width="0.66" stroke-linecap="square"/>
<path d="M111.977 234.872H50.257" stroke="#975218" stroke-width="0.66" stroke-linecap="square"/>
<path d="M111.977 229.832H50.257" stroke="#D2AC85" stroke-width="0.66" stroke-linecap="square"/>
<path d="M111.977 239.072H50.257" stroke="#975218" stroke-width="0.66" stroke-linecap="square"/>
<path d="M111.977 243.272H50.257" stroke="#D2AC85" stroke-width="0.66" stroke-linecap="square"/>
<path d="M111.977 222.272H50.257" stroke="#975218" stroke-width="0.66" stroke-linecap="square"/>
<path d="M111.977 231.512H50.257" stroke="#975218" stroke-width="0.66" stroke-linecap="square"/>
<path fill-rule="evenodd" clip-rule="evenodd" d="M105.277 213.272C110.377 224.392 111.617 235.292 105.277 249.392C117.087 249.392 163.557 249.392 244.657 249.392C252.477 237.352 252.477 225.312 244.657 213.272C224.027 213.272 142.497 213.272 105.277 213.272Z" fill="#EA2121"/>
<path fill-rule="evenodd" clip-rule="evenodd" d="M193.847 213.272C198.947 227.372 197.137 239.632 193.847 249.392C196.137 249.392 204.367 249.392 218.537 249.392C222.087 237.352 222.087 225.312 218.537 213.272C214.537 213.272 201.047 213.272 193.847 213.272Z" fill="#FF5500"/>
<path fill-rule="evenodd" clip-rule="evenodd" d="M158.367 213.272C163.467 227.372 161.657 239.632 158.367 249.392C160.657 249.392 168.887 249.392 183.057 249.392C186.607 237.352 186.607 225.312 183.057 213.272C179.057 213.272 165.567 213.272 158.367 213.272Z" fill="#FF5500"/>
<path fill-rule="evenodd" clip-rule="evenodd" d="M122.887 213.272C127.987 227.372 126.177 239.632 122.887 249.392C125.177 249.392 133.407 249.392 147.577 249.392C151.127 237.352 151.127 225.312 147.577 213.272C143.577 213.272 130.087 213.272 122.887 213.272Z" fill="#FF5500"/>
<path fill-rule="evenodd" clip-rule="evenodd" d="M105.007 213.272C112.397 227.372 109.787 239.632 105.007 249.392C108.317 249.392 109.427 249.392 108.317 249.392C113.467 237.352 113.467 225.312 108.317 213.272C102.527 213.272 115.447 213.272 105.007 213.272Z" fill="#FF6D00"/>
<path fill-rule="evenodd" clip-rule="evenodd" d="M105.281 213.278H46.8811C46.2711 213.278 45.7711 213.778 45.7711 214.388C45.7711 214.998 46.2711 215.498 46.8811 215.498H105.281C105.891 215.498 106.391 214.998 106.391 214.388C106.381 213.768 105.891 213.278 105.281 213.278Z" fill="#EA9248"/>
<path d="M31.3878 168.734H93.9878V209.134H31.3878V168.734Z" fill="white"/>
<path fill-rule="evenodd" clip-rule="evenodd" d="M87.0077 209.134H27.9277C27.3177 209.134 26.8177 209.634 26.8177 210.244V211.304C26.8177 211.914 27.3177 212.414 27.9277 212.414H87.0077C87.6177 212.414 88.1177 211.914 88.1177 211.304V210.244C88.1177 209.634 87.6177 209.134 87.0077 209.134Z" fill="#0695F7"/>
<path d="M93.0078 195.484H31.0578" stroke="#1978C5" stroke-width="0.66" stroke-linecap="square"/>
<path d="M93.0078 181.284H31.0578" stroke="#1978C5" stroke-width="0.66" stroke-linecap="square"/>
<path d="M93.0078 193.304H31.0578" stroke="#1978C5" stroke-width="0.66" stroke-linecap="square"/>
<path d="M93.0078 186.744H31.0578" stroke="#14609E" stroke-width="0.66" stroke-linecap="square"/>
<path d="M93.0078 198.764H31.0578" stroke="#14609E" stroke-width="0.66" stroke-linecap="square"/>
<path d="M93.0078 204.224H31.0578" stroke="#1978C5" stroke-width="0.66" stroke-linecap="square"/>
<path d="M93.0078 176.924H31.0578" stroke="#14609E" stroke-width="0.66" stroke-linecap="square"/>
<path d="M93.0078 188.934H31.0578" stroke="#14609E" stroke-width="0.66" stroke-linecap="square"/>
<path fill-rule="evenodd" clip-rule="evenodd" d="M86.2878 165.224C91.4078 179.684 92.6578 193.854 86.2878 212.184C98.1478 212.184 144.768 212.184 226.158 212.184C232.458 198.004 232.458 182.354 226.158 165.224C205.448 165.224 123.648 165.224 86.2878 165.224Z" fill="#62C8E8"/>
<path fill-rule="evenodd" clip-rule="evenodd" d="M196.748 165.224C204.168 183.554 201.538 199.494 196.748 212.184C200.078 212.184 202.198 212.184 203.108 212.184C208.278 196.534 208.278 180.884 203.108 165.224C197.298 165.224 207.228 165.224 196.748 165.224Z" fill="#0695F7"/>
<path fill-rule="evenodd" clip-rule="evenodd" d="M184.188 165.224C191.608 183.554 188.978 199.494 184.188 212.184C187.518 212.184 189.638 212.184 190.548 212.184C195.718 196.534 195.718 180.884 190.548 165.224C184.728 165.224 194.668 165.224 184.188 165.224Z" fill="#0695F7"/>
<path fill-rule="evenodd" clip-rule="evenodd" d="M115.438 165.224C122.858 183.554 120.228 199.494 115.438 212.184C118.768 212.184 120.888 212.184 121.798 212.184C126.968 196.534 126.968 180.884 121.798 165.224C115.988 165.224 125.918 165.224 115.438 165.224Z" fill="#0695F7"/>
<path fill-rule="evenodd" clip-rule="evenodd" d="M102.878 165.224C110.298 183.554 107.668 199.494 102.878 212.184C106.208 212.184 108.328 212.184 109.238 212.184C114.408 196.534 114.408 180.884 109.238 165.224C103.418 165.224 113.358 165.224 102.878 165.224Z" fill="#0695F7"/>
<path fill-rule="evenodd" clip-rule="evenodd" d="M86.0178 165.224C93.4378 183.554 90.8078 199.494 86.0178 212.184C89.3478 212.184 90.4478 212.184 89.3378 212.184C94.5078 196.534 94.5078 180.884 89.3378 165.224C83.5278 165.224 96.4978 165.224 86.0178 165.224Z" fill="#0695F7"/>
<path fill-rule="evenodd" clip-rule="evenodd" d="M86.7919 165.23H27.6519C27.0419 165.23 26.5419 165.73 26.5419 166.34V167.08C26.5419 167.69 27.0419 168.19 27.6519 168.19H86.7919C87.4019 168.19 87.9019 167.69 87.9019 167.08V166.34C87.9019 165.72 87.4119 165.23 86.7919 165.23Z" fill="#0695F7"/>
<path fill-rule="evenodd" clip-rule="evenodd" d="M164.11 36.19C164.06 38.74 164.31 40.79 164.86 42.34C165.41 43.89 166.22 44.77 167.27 45L181.82 64.91L185.28 90.81L164.11 97.6L148.4 82.06V64.92L144.04 69.04L141.41 87.28H126.1L134.08 64.92L144.04 47.11L153.96 42.34V32.6H161.97L164.11 36.19Z" fill="#A58A83"/>
<path fill-rule="evenodd" clip-rule="evenodd" d="M164.11 0C161.15 0 158.45 0.81 156.4 2.13L156.04 2.12L155.66 2.11C149.24 2.11 144.04 6.6 144.04 12.14C144.04 14.94 145.37 17.48 147.51 19.3C147.31 19.88 147.2 20.49 147.2 21.12C147.2 25.2 151.69 28.51 157.23 28.51C160.11 28.51 162.71 27.61 164.54 26.18C168.52 25.31 171.49 21.96 171.49 17.95C171.49 17 171.32 16.09 171.02 15.23C173.87 13.69 175.72 11.22 175.72 8.44C175.73 3.78 170.52 0 164.11 0Z" fill="url(#paint0_linear)"/>
<path fill-rule="evenodd" clip-rule="evenodd" d="M156.78 52.77L160.45 70.43V112.86L158.62 122.22L138.88 119.35L143.3 70.43L130.72 68.8L134.38 52.77C139.74 47.68 144.01 45.14 147.16 45.14C150.3 45.14 153.51 47.68 156.78 52.77Z" fill="#B70449"/>
<path fill-rule="evenodd" clip-rule="evenodd" d="M160.45 50.18L160.29 70.43V112.86L161.9 122.22L181.83 118.11C179.94 108.97 178.63 101.66 177.88 96.16C177.13 90.66 176.33 83.21 175.47 73.8L185.29 70.43C181.95 60.61 180.26 55.66 180.22 55.59C176.84 48.79 175.94 45.75 171.94 45.14C168.51 46.42 164.68 48.1 160.45 50.18Z" fill="#B70449"/>
<path fill-rule="evenodd" clip-rule="evenodd" d="M157.24 52.03L152.76 58.44L146.11 45.14L151.67 42.34L157.24 52.03Z" fill="#E20020"/>
<path fill-rule="evenodd" clip-rule="evenodd" d="M163.25 56.21C167.91 53.41 171.53 51.24 174.1 49.7C174.05 49.64 172.37 46.53 171.91 45.01C168.51 46.13 164.69 47.7 160.45 49.7L163.25 56.21Z" fill="#E20020"/>
<path fill-rule="evenodd" clip-rule="evenodd" d="M219.9 117.56C217.94 113.38 216.8 111.32 216.46 111.38C182.95 117.36 161.62 112.96 151.96 117.56C142.15 122.23 143.36 127.32 155.58 132.81L206.85 119.13" fill="#003C66"/>
<path fill-rule="evenodd" clip-rule="evenodd" d="M221.12 104.43C227.02 111.14 227.02 118.6 221.12 126.79C215.22 134.98 195 138.18 160.45 136.38V123.14C168.3 119.95 175.66 117.29 182.52 115.18C183.51 114.88 200.6 107.39 201.4 106.9C208.03 102.83 214.6 102.01 221.12 104.43Z" fill="#3957D8"/>
<path fill-rule="evenodd" clip-rule="evenodd" d="M149.82 127.38L153.59 124.57C156.24 121.73 159.34 119.68 162.87 118.41C166.18 117.23 167.74 117.31 170.8 118.41C173.3 119.31 173.16 120.23 173.99 122.4C175.33 125.88 176.03 126.28 175.16 129.72C174.44 132.52 173.93 133.19 170.8 134.88C167.78 136.51 166.77 136.35 162.87 136.35C160.21 136.35 159.78 135.9 157.1 135.47C155.14 135.16 152.38 135.97 150.57 135.47C148.45 134.89 149.54 136.37 148.79 134.88C148.04 133.37 148.38 130.87 149.82 127.38Z" fill="#B3B3B3"/>
<path fill-rule="evenodd" clip-rule="evenodd" d="M169 22.85C168.9 23.93 168.51 25.6 167.83 27.88C167.15 30.16 166.49 32.18 165.85 33.95C165.51 35.25 163.97 36 161.24 36.19C158.76 36.19 157.08 35.67 156.19 34.63L152.78 31.06L150.51 24.34H147.93L146.87 21.69V18.82L149.58 19.45L150.51 18.07V13.35C150.07 12.84 150.83 12.84 152.78 13.35C153.57 13.55 153.87 7.27002 154.94 7.27002C157.58 7.27002 161.88 7.67002 167.84 8.48002L171.16 11L170.28 17.08L169 19.45V22.85Z" fill="#BFA399"/>
<path fill-rule="evenodd" clip-rule="evenodd" d="M199.512 116.924V118.644H155.862H140.992V116.924H154.492L159.582 87.6436H163.462L199.512 107.324V116.924Z" fill="#666666"/>
<path fill-rule="evenodd" clip-rule="evenodd" d="M204.232 87.6436H160.872L157.162 116.924H199.512L204.232 87.6436Z" fill="#111111"/>
<path fill-rule="evenodd" clip-rule="evenodd" d="M122.27 85.76C116.95 98 116.95 113.69 122.27 132.81C132.49 133.67 137.6 134.25 137.6 134.54L122.27 85.76Z" fill="#002DAA"/>
<path fill-rule="evenodd" clip-rule="evenodd" d="M148.8 95.42C148.8 125.36 148.8 148.36 148.8 164.43C144.44 166.62 147.65 172.28 143.02 171.67C138.46 162.72 131.54 139.75 122.28 102.76C118.43 96.38 118.43 90.72 122.28 85.76C135.2 78.62 144.04 81.84 148.8 95.42Z" fill="#0025FF"/>
<path fill-rule="evenodd" clip-rule="evenodd" d="M147.11 162.32C153.78 166.27 156.5 169.06 162.29 171.25C168.08 173.44 167.56 177.76 165.25 179.53C163.71 180.71 161.48 181.31 158.56 181.33L150.36 178.25C147.44 175.41 145.73 173.8 145.21 173.44C144.7 173.08 144.27 172.96 143.92 173.08L141.5 171.39V172.07C140.82 169.9 140.47 168.38 140.47 167.53C140.47 166.68 140.47 166.26 140.47 166.27L141.5 163.13C142.38 165.39 143.02 166.5 143.42 166.48C143.61 166.47 143.01 164.98 143.01 164.85C143.02 163.57 144.51 162.32 147.11 162.32Z" fill="#888888"/>
<path fill-rule="evenodd" clip-rule="evenodd" d="M161.6 171.59C158.57 173.93 156.71 175.76 156.01 177.07C155.55 177.21 154.95 176.88 154.2 176.09C156.7 172.8 158.55 171.02 159.75 170.77C160.34 170.99 160.95 171.27 161.6 171.59Z" fill="#666666"/>
<path fill-rule="evenodd" clip-rule="evenodd" d="M158.44 169.77C155.9 172.39 154.33 174.47 153.71 176.01C153.3 176.17 152.76 175.79 152.11 174.87C154.33 171.03 155.98 168.96 157.04 168.66C157.54 168.92 158.01 169.29 158.44 169.77Z" fill="#666666"/>
<path fill-rule="evenodd" clip-rule="evenodd" d="M156.32 168.6C153.38 170.82 151.55 172.59 150.82 173.91C150.33 174.05 149.7 173.72 148.92 172.93C151.55 169.64 153.49 167.86 154.74 167.61C155.36 167.83 155.89 168.16 156.32 168.6Z" fill="#666666"/>
<path fill-rule="evenodd" clip-rule="evenodd" d="M205.97 251.97C203.77 259.96 202.42 269.72 201.91 281.25V295.84L207.25 297.3C209.79 289.56 211.06 282.8 211.06 277.03C211.06 271.26 210.21 263.39 208.51 253.42C208.51 251.8 207.67 251.32 205.97 251.97Z" fill="#BFA399"/>
<path fill-rule="evenodd" clip-rule="evenodd" d="M333.07 233.91L324.23 235.33C325.2 255.62 330.62 272.2 340.5 285.07C350.37 297.94 356.35 301.59 358.44 296.03L333.07 233.91Z" fill="#0DBCA7"/>
<path fill-rule="evenodd" clip-rule="evenodd" d="M203.66 301.97H209.72L201.91 266.28C197.06 265.82 190.35 267.04 181.77 269.95C173.19 272.86 172.39 272.86 179.37 269.95L168.89 263.95L164.84 267.32L172.98 299.01L203.66 301.97Z" fill="white"/>
<path fill-rule="evenodd" clip-rule="evenodd" d="M176.93 271.08L163.12 265.96L173.66 302.72L185.75 303.97L176.93 271.08Z" fill="#0A304F"/>
<path fill-rule="evenodd" clip-rule="evenodd" d="M181.76 271.08L198 266.87L205.22 300.54L188.76 303.97L181.76 271.08Z" fill="#003C66"/>
<path fill-rule="evenodd" clip-rule="evenodd" d="M181.76 271.08C184.42 281.65 187.06 292.61 189.68 303.98H185.74L176.92 271.08C179.45 271.08 181.06 271.08 181.76 271.08Z" fill="#0F4673"/>
<path fill-rule="evenodd" clip-rule="evenodd" d="M171.15 294.55C172.02 294.19 172.77 294.19 173.42 294.55C174.09 294.92 174.5 296.35 175.35 297.91C175.73 298.61 176.63 299.02 176.93 299.92C177.23 300.81 177.01 301.85 176.27 303.02L173.42 304.37L170.36 301.45C169.38 299.46 168.89 297.95 168.89 296.95C168.89 295.95 169.64 295.15 171.15 294.55Z" fill="#BFA399"/>
<path fill-rule="evenodd" clip-rule="evenodd" d="M226.43 196.7C220.6 196.7 215.87 201.43 215.87 207.26V207.31C214.75 207.42 213.69 207.7 212.7 208.14C211.41 207.57 209.98 207.26 208.48 207.26C202.65 207.26 197.92 211.99 197.92 217.82C197.92 220.97 199.3 223.81 201.5 225.74C199.31 228.45 197.92 232.41 197.92 236.83C197.92 239.52 198.43 242.05 199.33 244.22C198.43 245.77 197.92 247.57 197.92 249.5C197.92 255.33 202.65 260.06 208.48 260.06C214.31 260.06 219.04 255.33 219.04 249.5C219.04 247.58 218.53 245.77 217.63 244.22C218.53 242.05 219.04 239.52 219.04 236.83C219.04 233.69 218.34 230.77 217.15 228.38C219.69 228.33 222 227.38 223.8 225.85C224.9 226.79 226.19 227.51 227.6 227.94C227.53 228.43 227.49 228.93 227.49 229.45C227.49 229.96 227.53 230.46 227.6 230.96C223.26 232.27 220.1 236.3 220.1 241.07C220.1 245.89 223.33 249.95 227.73 251.22C227.57 252.04 227.49 252.88 227.49 253.74C227.49 256.04 228.08 258.19 229.11 260.07C228.08 261.95 227.49 264.11 227.49 266.41C227.49 273.7 233.4 279.61 240.69 279.61C242.57 279.61 244.35 279.22 245.97 278.51C247.59 279.22 249.37 279.61 251.25 279.61C258.54 279.61 264.45 273.7 264.45 266.41C264.45 260.02 259.91 254.7 253.89 253.47C253.81 249.18 251.67 245.39 248.43 243.04C248.55 242.4 248.61 241.74 248.61 241.07C248.61 238.92 247.97 236.93 246.87 235.26C247.97 233.59 248.61 231.6 248.61 229.45C248.61 227.3 247.97 225.31 246.87 223.64C247.97 221.97 248.61 219.98 248.61 217.83C248.61 212 243.88 207.27 238.05 207.27C237.69 207.27 237.34 207.29 236.99 207.32V207.27C236.99 201.43 232.26 196.7 226.43 196.7Z" fill="url(#paint1_linear)"/>
<path fill-rule="evenodd" clip-rule="evenodd" d="M230.72 249.14C229.72 248.3 228.1 247.36 225.84 246.34C223.58 245.32 223.3 241.17 224.99 233.91L214.5 235.93L215.34 246.34L209.72 250.25L212.44 271.07L215.34 269.14H224.98L230.72 249.14Z" fill="#A58A83"/>
<path fill-rule="evenodd" clip-rule="evenodd" d="M228.249 231.88C226.599 236.84 223.999 240.38 220.449 242.48C216.899 244.58 213.769 242.8 211.069 237.15C209.369 231.65 208.519 228.46 208.519 227.59C208.519 226.28 206.789 218.51 211.539 215.75C216.289 213 219.989 214.66 224.799 218.4C227.339 220.37 224.339 227.17 226.259 227.17C226.369 225.72 226.659 224.61 227.109 223.85C228.089 222.12 229.049 221.69 230.009 222.56C231.439 223.85 230.609 226.36 230.009 229.56C229.819 230.52 229.229 231.3 228.249 231.88Z" fill="#BFA399"/>
<path fill-rule="evenodd" clip-rule="evenodd" d="M221.2 253.43C225.84 251.97 226.97 251.97 229.81 247.88C232.24 248.34 235.05 249.71 238.26 251.97L237.42 265.44L219.27 272.92L205.97 267.7C205.97 264.18 205.97 259.29 205.97 253.02C206.34 251.57 207.04 251.14 208.01 250.7C208.84 250.33 209.85 250.16 211.02 249.14C212.66 251.41 212.21 252.08 216.71 253.43C216.71 256.47 217.01 260.05 217.6 264.16H219.28C219.27 261.64 219.91 258.06 221.2 253.43Z" fill="#D0E6E5"/>
<path fill-rule="evenodd" clip-rule="evenodd" d="M230.54 266.71C228.92 263.26 231.73 254.55 234.25 249.5C233.18 248.72 231.95 248.18 230.54 247.88C226.44 254.29 225.02 260.75 226.28 267.26C226.28 268.13 229.28 269.48 230.54 266.71Z" fill="#0DBCA7"/>
<path fill-rule="evenodd" clip-rule="evenodd" d="M205.97 266.44C203.84 274.38 206.25 279.98 213.2 283.25C223.63 288.15 240.38 303.98 255.28 303.98C265.21 303.98 296.95 304.11 350.49 304.38C355.79 304.18 358.45 300.41 358.45 293.07C358.45 285.73 355.8 266.01 350.49 233.91H341.8C334.75 265.25 334.75 282.4 341.8 285.36C352.38 289.8 330.7 281.99 318.35 280.28C290.5 276.41 285.67 260.06 261.4 274.18C251.31 275.67 251.31 269.18 245.36 263.57C241.16 262.28 243.46 263.42 233.97 265.73C227.63 267.27 218.3 267.5 205.97 266.44Z" fill="#4CF2E2"/>
<path fill-rule="evenodd" clip-rule="evenodd" d="M229.72 275.56H211.54L221.61 282.95H232.66L229.72 275.56Z" fill="#0DBCA7"/>
<path fill-rule="evenodd" clip-rule="evenodd" d="M237.77 251.61C240.33 253.7 257.56 277.16 252.86 301.66C249.73 317.99 235.99 318.9 211.64 304.37H201.86C199.85 303.02 198.85 301.08 198.85 298.54C198.85 296 203.12 296.01 211.65 298.54C222.41 297.24 229.88 296.58 234.05 296.58C240.31 296.58 236.17 260.05 234.05 258.2C232.63 250.73 235.27 250.19 237.77 251.61Z" fill="#BFA399"/>
<path fill-rule="evenodd" clip-rule="evenodd" d="M210.07 249.83C210.39 253.25 210.72 258.92 211.06 266.84C210.52 267.96 210.03 268.52 209.59 268.52C208.76 268.52 207.97 267.96 207.24 266.84L205.96 251.97C207.02 250.54 208.39 249.83 210.07 249.83Z" fill="#0DBCA7"/>
<path fill-rule="evenodd" clip-rule="evenodd" d="M324.23 235.33L322.88 219.49C321.3 219.76 320.31 218.74 319.89 216.42C320.46 215.74 323.71 217.77 325.62 215.43C327.06 213.65 326.65 207.76 329.95 205.4C335.81 203.45 339.02 203.29 339.95 204.57C333.59 211.38 330.57 212.18 328.63 216.77C328.97 221.03 330.38 226.83 332.85 234.19L324.23 235.33Z" fill="#BFA399"/>
<path fill-rule="evenodd" clip-rule="evenodd" d="M323.849 229.09L321.219 219.96C320.589 219.55 320.069 218.23 319.649 215.99C319.829 215.78 318.799 212.32 318.839 211.68C318.889 210.81 319.769 211.35 320.359 210.53C320.709 210.05 321.699 214.38 322.269 213.92C324.009 212.53 326.469 207.65 329.829 205.35C335.759 203.46 339.009 203.31 339.959 204.55C333.529 211.12 331.139 212.3 329.169 216.73C329.509 220.84 330.349 224.26 331.669 226.99L328.119 227.95L326.089 221.94L325.969 228.53L323.849 229.09Z" fill="#710110"/>
<path fill-rule="evenodd" clip-rule="evenodd" d="M341.33 233.91V213.1C339.3 213.1 338.29 211.58 338.29 208.55C339.15 207.82 342.75 211.11 345.65 208.55C347.85 206.61 348.65 199.06 353.29 196.8C361.03 195.61 365.07 196.12 365.95 197.95C356.51 205.17 353.29 206.2 349.84 211.6C349.31 217.07 349.52 224.51 350.47 233.91H341.33Z" fill="#BFA399"/>
<path fill-rule="evenodd" clip-rule="evenodd" d="M340.43 226.67L339.31 214.11C338.63 213.44 338.29 211.58 338.29 208.55C338.56 208.32 338.1 203.54 338.29 202.72C338.55 201.59 339.51 202.49 340.43 201.53C340.97 200.97 341.19 206.88 342 206.4C344.47 204.95 348.62 199.08 353.29 196.8C361.03 195.61 365.07 196.12 365.95 197.95C356.51 205.17 353.29 206.2 349.84 211.6C349.31 217.07 349.55 221.74 350.55 225.6L345.95 226.08L344.84 217.75L343.17 226.37L340.43 226.67Z" fill="#9E0216"/>
</g>
<defs>
<linearGradient id="paint0_linear" x1="175.725" y1="14.2557" x2="144.046" y2="14.2557" gradientUnits="userSpaceOnUse">
<stop stop-color="#FF0066"/>
<stop offset="0.1992" stop-color="#F30C50"/>
<stop offset="0.5206" stop-color="#E31B33"/>
<stop offset="0.7987" stop-color="#D92521"/>
<stop offset="1" stop-color="#D6281B"/>
</linearGradient>
<linearGradient id="paint1_linear" x1="264.441" y1="238.15" x2="197.914" y2="238.15" gradientUnits="userSpaceOnUse">
<stop stop-color="#FF0066"/>
<stop offset="0.1992" stop-color="#F30C50"/>
<stop offset="0.5206" stop-color="#E31B33"/>
<stop offset="0.7987" stop-color="#D92521"/>
<stop offset="1" stop-color="#D6281B"/>
</linearGradient>
<clipPath id="clip0">
<rect width="411.94" height="353.17" fill="white" transform="matrix(-1 0 0 1 411.94 0)"/>
</clipPath>
</defs>
</svg>
