<svg width="166" height="111" viewBox="0 0 166 111" fill="none" xmlns="http://www.w3.org/2000/svg">
<g clip-path="url(#clip0)">
<path d="M124.45 48.61C124.45 48.61 124.45 51.49 124.45 39.63C124.45 29.09 111.17 27.64 108.22 27.45C105.26 27.64 91.9902 29.09 91.9902 39.63C91.9902 51.49 91.9902 48.61 91.9902 48.61" stroke="#020203" stroke-width="2" stroke-miterlimit="10" stroke-linecap="round" stroke-linejoin="round"/>
<path d="M100.39 37.4401C100.39 37.4401 96.0101 37.5601 96.0101 41.8201C96.0101 46.0801 95.0901 48.9201 95.0901 48.9201L93.7901 49.3801C92.1501 49.9601 91.0601 51.5001 91.0601 53.2401C91.0601 54.0601 91.3001 54.8501 91.7601 55.5301L94.1701 59.1001C94.1701 62.4201 95.4901 65.6001 97.8301 67.9501L99.7101 69.8301C101.97 72.0901 105.02 73.4001 108.21 73.4901C111.4 73.4001 114.44 72.0901 116.71 69.8301L118.59 67.9501C120.94 65.6001 122.25 62.4201 122.25 59.1001L124.66 55.5301C125.12 54.8501 125.36 54.0601 125.36 53.2401C125.36 51.5101 124.27 49.9601 122.63 49.3801L121.33 48.9201C121.33 48.9201 120.41 46.0801 120.41 41.8201C120.41 37.5601 116.03 37.4401 116.03 37.4401H100.39Z" stroke="#020203" stroke-width="2" stroke-miterlimit="10" stroke-linecap="round" stroke-linejoin="round"/>
<path d="M95.12 77.1801C95.12 77.1801 74.09 82.0601 72.19 86.0001C70.29 89.9301 70.29 93.7301 70.29 93.7301" stroke="#020203" stroke-width="2" stroke-miterlimit="10" stroke-linecap="round" stroke-linejoin="round"/>
<path d="M121.32 77.1801C121.32 77.1801 142.35 82.0601 144.25 86.0001C146.15 89.9401 146.15 93.7301 146.15 93.7301" stroke="#020203" stroke-width="2" stroke-miterlimit="10" stroke-linecap="round" stroke-linejoin="round"/>
<path d="M121.32 77.0701C121.32 82.8301 115.46 87.5101 108.23 87.5101C101 87.5101 95.1401 82.8401 95.1401 77.0701" stroke="#020203" stroke-width="2" stroke-miterlimit="10" stroke-linecap="round" stroke-linejoin="round"/>
<path d="M91.9899 70.4399H60.8599V106.44H91.9899V70.4399Z" fill="white"/>
<path d="M22.48 36.01C20.63 35.23 18.6 34.79 16.46 34.79C7.92 34.79 1 41.72 1 50.26C1 58.8 7.92 65.72 16.46 65.72C19.43 65.72 22.21 64.88 24.57 63.43C25.81 64.84 27.63 65.72 29.66 65.72C31.02 65.72 32.28 65.32 33.34 64.64C31.24 63.45 29.73 61.35 29.32 58.87C30.98 56.41 31.94 53.45 31.94 50.26" stroke="#020203" stroke-width="2" stroke-miterlimit="10" stroke-linecap="round" stroke-linejoin="round"/>
<path d="M79.5102 88.96C79.5102 88.96 84.7402 88.26 86.9602 86.03C89.1902 83.8 87.7502 74.11 87.7502 74.11C87.7502 74.11 85.8402 55.44 83.4702 50.6C77.7102 38.81 66.6902 43.83 66.6902 43.83C66.6902 43.83 61.4002 39.01 53.3502 45.12C41.2602 54.29 46.3702 75.52 46.3702 75.52C46.3702 75.52 44.9302 85.21 47.1602 87.44C49.3902 89.67 52.9202 89.41 52.9202 89.41" fill="white"/>
<path d="M79.5102 88.96C79.5102 88.96 84.7402 88.26 86.9602 86.03C89.1902 83.8 87.7502 74.11 87.7502 74.11C87.7502 74.11 85.8402 55.44 83.4702 50.6C77.7102 38.81 66.6902 43.83 66.6902 43.83C66.6902 43.83 61.4002 39.01 53.3502 45.12C41.2602 54.29 46.3702 75.52 46.3702 75.52C46.3702 75.52 44.9302 85.21 47.1602 87.44C49.3902 89.67 52.9202 89.41 52.9202 89.41" stroke="#020203" stroke-width="2" stroke-miterlimit="10" stroke-linecap="round" stroke-linejoin="round"/>
<path d="M82.3001 74.12C80.3201 85.65 72.7601 89.9 68.9801 91.32C67.5701 91.85 66.0401 91.85 64.6301 91.32C60.6701 89.82 52.5501 85.22 51.0601 72.39" stroke="#020203" stroke-width="2" stroke-miterlimit="10" stroke-linecap="round" stroke-linejoin="round"/>
<path d="M78.6103 70.4399C66.8403 68.4799 62.0603 59.8199 62.0603 59.8199C62.0603 59.8199 59.7203 64.5399 54.7803 67.3899" stroke="#020203" stroke-width="2" stroke-miterlimit="10" stroke-linecap="round" stroke-linejoin="round"/>
<path d="M97.8503 109.92C98.3703 108.22 97.3303 103.5 96.4103 101.27C95.4903 99.04 80.8203 94.85 80.8203 94.85L66.8003 107.17" stroke="#020203" stroke-width="2" stroke-miterlimit="10" stroke-linecap="round" stroke-linejoin="round"/>
<path d="M35.5102 109.92C34.9902 108.22 36.0302 103.5 36.9502 101.27C37.8702 99.04 52.5402 94.85 52.5402 94.85L66.5602 107.16" stroke="#020203" stroke-width="2" stroke-miterlimit="10" stroke-linecap="round" stroke-linejoin="round"/>
<path d="M164.07 13.49V27.48C164.07 30.65 161.5 33.21 158.34 33.21H149.29L139.29 43.56C138.39 44.49 136.83 43.85 136.83 42.56V33.2H133.96C130.79 33.2 128.23 30.63 128.23 27.47V11.07C128.23 7.90003 130.8 5.34003 133.96 5.34003H149.14" fill="white"/>
<path d="M164.07 13.49V27.48C164.07 30.65 161.5 33.21 158.34 33.21H149.29L139.29 43.56C138.39 44.49 136.83 43.85 136.83 42.56V33.2H133.96C130.79 33.2 128.23 30.63 128.23 27.47V11.07C128.23 7.90003 130.8 5.34003 133.96 5.34003H149.14" stroke="#020203" stroke-width="2" stroke-miterlimit="10" stroke-linecap="round" stroke-linejoin="round"/>
<path d="M136.84 17.05L144.99 25.48L164.07 1" stroke="#020203" stroke-width="2" stroke-miterlimit="10" stroke-linecap="round" stroke-linejoin="round"/>
<path d="M9.56982 47.82L17.7098 56.25L36.7998 31.77" stroke="#020203" stroke-width="2" stroke-miterlimit="10" stroke-linecap="round" stroke-linejoin="round"/>
</g>
<defs>
<clipPath id="clip0">
<rect width="165.07" height="110.92" fill="white"/>
</clipPath>
</defs>
</svg>
