<svg width="88" height="402" viewBox="0 0 88 402" fill="none" xmlns="http://www.w3.org/2000/svg">
<g clip-path="url(#clip0)">
<path d="M58.77 0.529974C29.43 30.11 13.7 69.86 7.65003 110.57C4.65003 130.77 3.84003 151.27 4.81003 171.66C5.78003 191.76 8.69003 216.09 28.45 226.73C35.92 230.75 44.72 231.67 52.44 227.81C59.76 224.15 65.75 216.56 65.41 208.08C64.81 192.76 47.62 187.48 34.82 189.8C18.3 192.8 7.33003 208.16 3.03003 223.46C-1.89997 240.96 -0.269973 259.99 4.05003 277.44C15.68 324.36 42.41 367.12 79.11 398.5C80.86 400 83.42 397.46 81.66 395.95C52.54 371.05 29.76 339.06 15.98 303.28C9.68003 286.92 4.67003 269.59 3.80003 252C3.00003 235.76 5.53003 217.83 16.47 205.07C25.74 194.26 43.91 187.4 56.4 197.51C63.84 203.53 62.96 213.95 56.6 220.42C49.06 228.09 37.91 228.28 29 222.9C10.13 211.51 8.90003 186.67 8.22003 167.03C7.58003 148.76 8.37003 130.4 11.01 112.3C16.88 71.91 32.2 32.42 61.31 3.07997C62.95 1.42997 60.4 -1.11003 58.77 0.529974Z" fill="black"/>
<path d="M83.8799 368.11C83.5199 373.27 83.1599 378.43 82.7999 383.59C82.6199 386.17 82.4399 388.75 82.2599 391.33C82.1699 392.62 82.0799 393.91 81.9899 395.2C81.0699 397.3 79.6199 398.14 77.6299 397.71C72.9399 398.63 67.0799 397.71 62.3099 397.6C57.1999 397.48 52.0999 397.28 46.9999 397.02C44.6799 396.9 44.6899 400.5 46.9999 400.62C53.6999 400.97 60.3999 401.2 67.0999 401.29C70.2899 401.33 73.4899 401.34 76.6799 401.32C78.7399 401.31 81.5799 401.65 83.4199 400.35C86.4799 398.18 85.7899 392.54 86.0099 389.4C86.5099 382.31 86.9999 375.21 87.4999 368.12C87.6399 365.8 84.0399 365.81 83.8799 368.11Z" fill="black"/>
</g>
<defs>
<clipPath id="clip0">
<rect width="87.49" height="401.35" fill="white"/>
</clipPath>
</defs>
</svg>
