<svg width="111" height="355" viewBox="0 0 111 355" fill="none" xmlns="http://www.w3.org/2000/svg">
<g clip-path="url(#clip0)">
<path d="M41.5895 0.35991C23.8995 30.1999 11.7195 63.1899 5.32952 97.2599C-1.01048 131.06 -1.72048 165.89 3.31952 199.92C5.84952 217.03 9.84952 233.92 15.3195 250.33C17.9895 258.34 21.0095 266.22 24.3795 273.96C26.9295 279.82 30.9495 287.41 38.0895 288.21C44.0895 288.88 48.4895 283.64 49.1495 278.07C49.9295 271.49 45.0595 266.31 38.7795 265.15C31.8395 263.87 25.2695 267.07 21.3295 272.78C17.0895 278.93 16.1495 286.87 17.3795 294.1C19.9095 308.91 31.7095 320.3 44.1495 327.64C59.5195 336.72 77.8995 341 95.5795 342.17C100.45 342.49 105.34 342.54 110.21 342.34C111.17 342.3 111.18 340.8 110.21 340.84C92.0395 341.58 73.4095 338.81 56.4795 332.04C43.1395 326.71 29.8395 317.8 22.7895 304.94C19.3595 298.69 17.6495 291.4 18.6095 284.28C19.5895 276.96 23.7695 269.19 31.2795 266.98C37.3895 265.19 45.8995 267.38 47.4895 274.37C48.8695 280.43 44.2295 288.02 37.3995 286.58C30.2295 285.06 26.9095 276.24 24.4095 270.29C21.2695 262.83 18.4495 255.23 15.9595 247.53C10.9995 232.23 7.31952 216.51 4.90952 200.61C0.0195174 168.36 0.349518 135.3 5.77952 103.14C11.1895 71.1099 21.6495 39.9099 37.0895 11.2999C38.9495 7.85991 40.8795 4.45991 42.8695 1.09991C43.3795 0.28991 42.0795 -0.47009 41.5895 0.35991Z" fill="black"/>
<path d="M100.23 326.87C101.3 329.11 102.38 331.35 103.45 333.59C104.02 334.78 104.6 335.98 105.17 337.17C105.73 338.33 106.49 339.54 106.72 340.82C107.14 343.13 104.64 345.31 103.34 346.96C101.76 348.96 100.19 350.96 98.6097 352.96C98.0197 353.71 99.0697 354.78 99.6697 354.02C101.45 351.76 103.23 349.5 105.01 347.24C106.34 345.56 108.3 343.68 108.29 341.38C108.28 340.24 107.8 339.2 107.32 338.19C106.69 336.84 106.03 335.5 105.39 334.16C104.1 331.47 102.81 328.79 101.52 326.1C101.11 325.24 99.8197 326 100.23 326.87Z" fill="black"/>
</g>
<defs>
<clipPath id="clip0">
<rect width="110.95" height="354.28" fill="white"/>
</clipPath>
</defs>
</svg>
