<svg xmlns="http://www.w3.org/2000/svg" viewBox="0 0 245.36 119.74"><defs><style>.cls-1{fill:#1d1d1b;}</style></defs><g id="Layer_2" data-name="Layer 2"><g id="Layer_1-2" data-name="Layer 1"><path class="cls-1" d="M1.54,119.74a189.43,189.43,0,0,0,78.89-17.83A176,176,0,0,0,114.6,81.14c9.47-7.43,18.49-16.82,22.18-28.55a30.64,30.64,0,0,0,.44-18c-1.78-5.77-6-10.68-12.08-12.07a13.44,13.44,0,0,0-15,6.46,20.42,20.42,0,0,0-1.29,16.27c3.42,10.66,13.93,18.2,24.73,19.89,12.69,2,25.41-3.68,35.23-11.3,10.8-8.38,18-20.41,28.85-28.74a58.45,58.45,0,0,1,35-12,59.85,59.85,0,0,1,9.26.68c1.5.23,3-1.49,1.51-2.57A70.33,70.33,0,0,0,218.69.08a2.25,2.25,0,0,0-2.48.82,1.26,1.26,0,0,0,.91,1.83,68,68,0,0,1,23.93,10.81L242.57,11a63.11,63.11,0,0,0-35.68,5.15,61.72,61.72,0,0,0-15,9.77c-5,4.42-9.28,9.57-13.72,14.54-8.22,9.21-17.77,17.59-29.92,21a31.62,31.62,0,0,1-16.66.37,29.34,29.34,0,0,1-13.45-8,23.27,23.27,0,0,1-6.55-13.39c-.54-5.07.93-11.39,5.59-14.19s10.84-.06,13.86,4c3.52,4.8,4.14,11.27,3.28,17-1.74,11.51-9.51,21-18,28.52C107,83.9,96.19,90.61,85.2,96.31A184.1,184.1,0,0,1,11.58,116.6q-4.7.29-9.39.31c-.84,0-1.95.31-2.16,1.27s.71,1.56,1.51,1.56Z"/><path class="cls-1" d="M241.87,11.4a157.94,157.94,0,0,1-16.42,19c-1.34,1.32,1.74,3.4,2.91,2.24A161.69,161.69,0,0,0,245.22,13.1c.52-.73-.53-1.72-1.1-2a1.71,1.71,0,0,0-2.25.3Z"/></g></g></svg>