<?xml version="1.0" encoding="utf-8"?>
<!-- Generator: Adobe Illustrator 24.0.3, SVG Export Plug-In . SVG Version: 6.00 Build 0)  -->
<svg version="1.1" id="Слой_1" xmlns="http://www.w3.org/2000/svg" xmlns:xlink="http://www.w3.org/1999/xlink" x="0px" y="0px"
	 viewBox="0 0 732 631" style="enable-background:new 0 0 732 631;" xml:space="preserve">
<style type="text/css">
	.st0{fill-rule:evenodd;clip-rule:evenodd;fill:#DEEEEC;}
	.st1{fill-rule:evenodd;clip-rule:evenodd;fill:#F7CA2C;}
	.st2{fill-rule:evenodd;clip-rule:evenodd;fill:#FFFFFF;}
	.st3{fill-rule:evenodd;clip-rule:evenodd;fill:#D8D8D8;}
	.st4{fill-rule:evenodd;clip-rule:evenodd;fill:#444444;}
	.st5{fill-rule:evenodd;clip-rule:evenodd;fill:#F2F2F2;}
	.st6{fill-rule:evenodd;clip-rule:evenodd;fill:#DDE3E9;}
	.st7{fill-rule:evenodd;clip-rule:evenodd;fill:#C5CFD6;}
	.st8{fill-rule:evenodd;clip-rule:evenodd;fill:#AFB9C5;}
	.st9{fill-rule:evenodd;clip-rule:evenodd;fill:#89C5CC;}
	.st10{fill-rule:evenodd;clip-rule:evenodd;fill:url(#Path-5_1_);}
	.st11{fill-rule:evenodd;clip-rule:evenodd;fill:#A1CECB;}
	.st12{fill-rule:evenodd;clip-rule:evenodd;fill:url(#Path-4-Copy-2_1_);}
	.st13{fill-rule:evenodd;clip-rule:evenodd;fill:#4C3C00;}
	.st14{fill-rule:evenodd;clip-rule:evenodd;fill:#D0E6E5;}
	.st15{fill-rule:evenodd;clip-rule:evenodd;fill:#DB4B2D;}
	.st16{fill-rule:evenodd;clip-rule:evenodd;fill:#D73716;}
	.st17{opacity:0.9;fill-rule:evenodd;clip-rule:evenodd;fill:#D73716;enable-background:new    ;}
	.st18{fill-rule:evenodd;clip-rule:evenodd;fill:#0A304F;}
	.st19{fill-rule:evenodd;clip-rule:evenodd;fill:#003C66;}
	.st20{fill-rule:evenodd;clip-rule:evenodd;fill:#69303A;}
	.st21{fill-rule:evenodd;clip-rule:evenodd;fill:#845161;}
	.st22{fill:#845161;}
	.st23{fill:#69303A;}
	.st24{fill:#00214E;}
	.st25{fill:none;stroke:#00214E;stroke-width:0.5;}
	.st26{fill:#DB4B2D;}
	.st27{fill-rule:evenodd;clip-rule:evenodd;fill:#FDEEC0;}
	.st28{fill-rule:evenodd;clip-rule:evenodd;fill:#14609E;}
	.st29{fill-rule:evenodd;clip-rule:evenodd;fill:#0C3341;}
	.st30{fill-rule:evenodd;clip-rule:evenodd;fill:#94791A;}
	.st31{fill-rule:evenodd;clip-rule:evenodd;fill:#E8E8E8;}
	.st32{fill:none;stroke:#000000;stroke-width:1.08;}
	.st33{fill-rule:evenodd;clip-rule:evenodd;fill:#222222;}
	.st34{fill-rule:evenodd;clip-rule:evenodd;}
	.st35{fill:none;stroke:#FFFFFF;stroke-width:1.08;stroke-linecap:round;stroke-linejoin:round;}
	.st36{fill-rule:evenodd;clip-rule:evenodd;fill:#AACAC7;}
	.st37{fill-rule:evenodd;clip-rule:evenodd;fill:#0F9283;}
	.st38{fill-rule:evenodd;clip-rule:evenodd;fill:#10665C;}
	.st39{fill-rule:evenodd;clip-rule:evenodd;fill:#4C000A;}
	.st40{fill-rule:evenodd;clip-rule:evenodd;fill:#7D0514;}
	.st41{fill-rule:evenodd;clip-rule:evenodd;fill:#710110;}
	.st42{fill:none;stroke:#270005;stroke-width:1.728;stroke-linejoin:round;}
	.st43{fill:none;stroke:#94791A;stroke-width:1.512;}
	.st44{fill-rule:evenodd;clip-rule:evenodd;fill:#8CC6C0;}
	.st45{fill:none;stroke:#13847F;stroke-width:0.5;stroke-linecap:square;}
	.st46{fill:none;stroke:#0A5D5A;stroke-width:0.5;stroke-linecap:square;}
	.st47{fill-rule:evenodd;clip-rule:evenodd;fill:#DFB726;}
	.st48{fill:none;stroke:#94791A;stroke-width:0.5;stroke-linecap:square;}
	.st49{fill:none;stroke:#DFB726;stroke-width:0.5;stroke-linecap:square;}
	.st50{fill-rule:evenodd;clip-rule:evenodd;fill:#FADF80;}
	.st51{fill-rule:evenodd;clip-rule:evenodd;fill:#AE8B0C;}
	.st52{fill-rule:evenodd;clip-rule:evenodd;fill:#D84326;}
	.st53{fill:none;stroke:#D2AC85;stroke-width:0.5;stroke-linecap:square;}
	.st54{fill:none;stroke:#975218;stroke-width:0.5;stroke-linecap:square;}
	.st55{fill-rule:evenodd;clip-rule:evenodd;fill:#FF9D8A;}
	.st56{fill-rule:evenodd;clip-rule:evenodd;fill:#006285;}
	.st57{fill:none;stroke:#1978C5;stroke-width:0.5;stroke-linecap:square;}
	.st58{fill:none;stroke:#14609E;stroke-width:0.5;stroke-linecap:square;}
	.st59{fill-rule:evenodd;clip-rule:evenodd;fill:#A4C4CF;}
	.st60{fill:#FFFFFF;}
	.st61{fill-rule:evenodd;clip-rule:evenodd;fill:#666666;}
</style>
<title>Group 40</title>
<g id="Page-1">
	<g id="Artboard-Copy" transform="translate(-55.000000, -4184.000000)">
		<g id="Group-40" transform="translate(55.000000, 4184.000000)">
			<path id="Combined-Shape-Copy-2" class="st0" d="M366,430c202.14,0,366,30.89,366,69c0,15.9-28.54,30.55-76.5,42.22
				c47.04,7.03,76.5,17.1,76.5,28.28c0,11.32-30.22,21.51-78.33,28.55C625.66,617.23,548.86,631,458.5,631
				C344.45,631,252,609.06,252,582c0-3.48,1.53-6.88,4.44-10.15c-0.29-0.78-0.44-1.56-0.44-2.35c0-1.55,0.56-3.07,1.66-4.57
				C108.42,556.22,0,530,0,499C0,460.89,163.86,430,366,430z"/>
			<path id="Path-39" class="st1" d="M332.73,296.82c-0.7,3.58-2.01,5.97-3.94,7.17c-2.89,1.8-11.97,4.9-11.97,8.15
				c0,2.16,0,6.12,0,11.88c0.2,1.42,0.03,2.5-0.5,3.24c-0.8,1.11-1.83,2.9-0.66,2.9c1.17,0,4.93-1.42,5.63-2.5
				c0.7-1.08,1.34,0.25,1.02,0.77c-0.32,0.51,2.99,1.94,4.06-0.4c1.06-2.34,4.97-4.55,5.67-5.21c0.7-0.66,4.06-1.6,5.34-4.13
				c0.86-1.69,1.09-4.06,0.71-7.12l5.03-3.52l2.28-1.34c1.12-4.87,1.56-7.74,1.32-8.59c-0.37-1.28-1.34-6.86-5.34-7.45
				s-7.87,0.73-8.25,0.73C332.86,291.37,332.73,293.19,332.73,296.82z"/>
			
				<g id="Group-7" transform="translate(364.547798, 362.045612) rotate(62.000000) translate(-364.547798, -362.045612) translate(352.047798, 339.045612)">
				<path id="Rectangle" class="st2" d="M2.94,0l18.13,0c1.62,0,2.94,1.32,2.94,2.94l0,39.2c0,1.62-1.32,2.94-2.94,2.94l-18.13,0
					C1.32,45.08,0,43.76,0,42.14l0-39.2C0,1.32,1.32,0,2.94,0z"/>
				<path id="Rectangle_1_" class="st3" d="M3.92,1.96l3.43,0c1.35,0,2.45,1.1,2.45,2.45l0,3.43c0,1.35-1.1,2.45-2.45,2.45H3.92
					c-1.35,0-2.45-1.1-2.45-2.45l0-3.43C1.47,3.06,2.57,1.96,3.92,1.96z"/>
				<circle id="Oval" class="st4" cx="3.92" cy="4.41" r="1.47"/>
				<circle id="Oval-Copy" class="st4" cx="3.92" cy="7.84" r="1.47"/>
				<circle id="Oval-Copy-2" class="st4" cx="7.35" cy="5.88" r="1.47"/>
			</g>
			<g id="Group-17" transform="translate(285.000000, 0.000000)">
				<g id="Mobile3">
					<path id="Container" class="st5" d="M10.56,0h188.76c5.83,0,10.56,4.73,10.56,10.56v377.52c0,5.83-4.73,10.56-10.56,10.56
						H10.56C4.73,398.64,0,393.91,0,388.08V10.56C0,4.73,4.73,0,10.56,0z"/>
					<circle id="Touch" class="st2" cx="104.28" cy="353.76" r="19.8"/>
					<g id="Camera" transform="translate(84.480000, 21.120000)">
						<circle id="Lens" class="st2" cx="2.64" cy="2.64" r="2.64"/>
						<path id="Sensor" class="st2" d="M14.52,0h22.44c1.46,0,2.64,1.18,2.64,2.64l0,0c0,1.46-1.18,2.64-2.64,2.64H14.52
							c-1.46,0-2.64-1.18-2.64-2.64l0,0C11.88,1.18,13.06,0,14.52,0z"/>
					</g>
					<g id="Rows" transform="translate(18.480000, 36.960000)">
						<g id="Row">
							<path id="Background" class="st2" d="M5.28,0h162.36c2.92,0,5.28,2.36,5.28,5.28V66c0,2.92-2.36,5.28-5.28,5.28H5.28
								C2.36,71.28,0,68.92,0,66V5.28C0,2.36,2.36,0,5.28,0z"/>
							<g id="Text" transform="translate(51.480000, 21.384000)">
								<path id="Name" class="st6" d="M3.96,0H92.4c2.19,0,3.96,1.77,3.96,3.96v2.77c0,2.19-1.77,3.96-3.96,3.96H3.96
									C1.77,10.69,0,8.92,0,6.73V3.96C0,1.77,1.77,0,3.96,0z"/>
								<path id="Name_1_" class="st6" d="M3.96,17.82h56.76c2.19,0,3.96,1.77,3.96,3.96v2.77c0,2.19-1.77,3.96-3.96,3.96H3.96
									C1.77,28.51,0,26.74,0,24.55v-2.77C0,19.59,1.77,17.82,3.96,17.82z"/>
							</g>
							<circle id="Avatar" class="st7" cx="27.72" cy="35.64" r="15.84"/>
						</g>
						<g id="Row_1_" transform="translate(0.000000, 81.840000)">
							<path id="Background_1_" class="st2" d="M5.28,0h162.36c2.92,0,5.28,2.36,5.28,5.28v44.88c0,2.92-2.36,5.28-5.28,5.28H5.28
								C2.36,55.44,0,53.08,0,50.16V5.28C0,2.36,2.36,0,5.28,0z"/>
							<g id="Text_1_" transform="translate(51.480000, 16.632000)">
								<path id="Name_2_" class="st6" d="M3.96,0H92.4c2.19,0,3.96,1.77,3.96,3.96v0.4c0,2.19-1.77,3.96-3.96,3.96H3.96
									C1.77,8.32,0,6.54,0,4.36v-0.4C0,1.77,1.77,0,3.96,0z"/>
								<path id="Name_3_" class="st6" d="M3.96,13.86h56.76c2.19,0,3.96,1.77,3.96,3.96v0.4c0,2.19-1.77,3.96-3.96,3.96H3.96
									C1.77,22.18,0,20.4,0,18.22v-0.4C0,15.63,1.77,13.86,3.96,13.86z"/>
							</g>
							<circle id="Avatar_1_" class="st7" cx="27.72" cy="27.72" r="15.84"/>
						</g>
						<g id="Row_2_" transform="translate(0.000000, 147.840000)">
							<path id="Background_2_" class="st2" d="M5.28,0h162.36c2.92,0,5.28,2.36,5.28,5.28v44.88c0,2.92-2.36,5.28-5.28,5.28H5.28
								C2.36,55.44,0,53.08,0,50.16V5.28C0,2.36,2.36,0,5.28,0z"/>
							<g id="Text_2_" transform="translate(51.480000, 16.632000)">
								<path id="Name_4_" class="st6" d="M3.96,0H92.4c2.19,0,3.96,1.77,3.96,3.96v0.4c0,2.19-1.77,3.96-3.96,3.96H3.96
									C1.77,8.32,0,6.54,0,4.36v-0.4C0,1.77,1.77,0,3.96,0z"/>
								<path id="Name_5_" class="st6" d="M3.96,13.86h56.76c2.19,0,3.96,1.77,3.96,3.96v0.4c0,2.19-1.77,3.96-3.96,3.96H3.96
									C1.77,22.18,0,20.4,0,18.22v-0.4C0,15.63,1.77,13.86,3.96,13.86z"/>
							</g>
							<circle id="Avatar_2_" class="st8" cx="27.72" cy="27.72" r="15.84"/>
						</g>
						<g id="Row_3_" transform="translate(0.000000, 213.840000)">
							<path id="Background_3_" class="st2" d="M5.28,0h162.36c2.92,0,5.28,2.36,5.28,5.28v44.88c0,2.92-2.36,5.28-5.28,5.28H5.28
								C2.36,55.44,0,53.08,0,50.16V5.28C0,2.36,2.36,0,5.28,0z"/>
							<g id="Text_3_" transform="translate(51.480000, 16.632000)">
								<path id="Name_6_" class="st6" d="M3.96,0H92.4c2.19,0,3.96,1.77,3.96,3.96v0.4c0,2.19-1.77,3.96-3.96,3.96H3.96
									C1.77,8.32,0,6.54,0,4.36v-0.4C0,1.77,1.77,0,3.96,0z"/>
								<path id="Name_7_" class="st6" d="M3.96,13.86h56.76c2.19,0,3.96,1.77,3.96,3.96v0.4c0,2.19-1.77,3.96-3.96,3.96H3.96
									C1.77,22.18,0,20.4,0,18.22v-0.4C0,15.63,1.77,13.86,3.96,13.86z"/>
							</g>
							<circle id="Avatar_3_" class="st7" cx="27.72" cy="27.72" r="15.84"/>
						</g>
					</g>
				</g>
				<g id="Mobile3_1_" transform="translate(38.622604, 39.975000)">
					<g id="Group" transform="translate(0.000000, 287.760000)">
						<path id="Fill-16" class="st9" d="M16.02,0c-1.75,0-3.49,0.04-5.24,0.13C9.45,0.2,7.42-0.08,6.29,0.75
							C5.12,1.61,5.2,3.38,5.39,4.62c0.97,6.59,3.33,12.43,8.26,17.1c7.6,7.19,16.31,10.84,26.62,12.47
							c7.24,1.14,13.93-0.44,19.26-5.59c3.89,7.23,6.85,15.23,8.33,23.3c0.73,3.98,0.95,7.92,0.83,11.98
							c-0.08,2.6-0.23,5.19-0.5,7.78c-0.12,1.12-0.69,2.82-0.25,3.89c0.52,1.25,2.26,1.37,3.04,0.3c0.65-0.88,0.53-2.62,0.66-3.67
							c0.22-1.74,0.43-3.48,0.57-5.23c0.24-2.83,0.41-5.67,0.4-8.51c-0.03-6.38-1.45-12.79-3.39-18.84
							c-3.72-11.62-9.76-21.95-19.16-30.05c-5.78-4.98-12.39-7-19.89-8.08C25.5,0.79,20.75,0,16.02,0"/>
						<path id="Fill-18" class="st9" d="M42.99,46.2c-18.87,0-31.59,15.21-37.6,31.02c-2.27,5.96-2.8,12.5-3.67,18.76
							c-0.28,2.01-0.18,5.07-0.99,6.86c-0.3,0.65-0.97,0.88-0.65,1.77c0.2,0.54,0.58,0.86,1.16,0.97c1.19,0.22,2.87-1.07,3.88-1.58
							c8.44-4.23,13.99-10.78,18.52-18.79c2.81-4.96,5.65-10.12,7.32-15.57c1.02-3.33,1.61-6.84,1.96-10.29
							c0.14-1.36,0.27-2.75,0.26-4.12c-0.01-1.36-0.64-2.08-1.09-3.26c6.3-2.38,13.41-3.03,19.79-0.56
							c5.9,2.28,10.8,6.7,13.55,12.25c0.71,1.44,1.26,2.96,1.66,4.51c0.26,1.02,0.27,2.33,0.76,3.25c1.18,2.23,3.66,0.74,3.42-1.34
							c-0.66-5.78-3.97-11.59-8.2-15.61C57.73,49.4,50.5,46.2,42.99,46.2"/>
					</g>
					<path id="Container_1_" class="st6" d="M73.92,0h188.76c5.83,0,10.56,4.73,10.56,10.56v377.52c0,5.83-4.73,10.56-10.56,10.56
						H73.92c-5.83,0-10.56-4.73-10.56-10.56V10.56C63.36,4.73,68.09,0,73.92,0z"/>
					<circle id="Touch_1_" class="st2" cx="167.64" cy="353.76" r="19.8"/>
					<g id="Camera_1_" transform="translate(147.840000, 21.120000)">
						<circle id="Lens_1_" class="st2" cx="2.64" cy="2.64" r="2.64"/>
						<path id="Sensor_1_" class="st2" d="M14.52,0h22.44c1.46,0,2.64,1.18,2.64,2.64l0,0c0,1.46-1.18,2.64-2.64,2.64H14.52
							c-1.46,0-2.64-1.18-2.64-2.64l0,0C11.88,1.18,13.06,0,14.52,0z"/>
					</g>
					<g id="Rows_1_" transform="translate(81.840000, 36.960000)">
						<g id="Row_4_">
							<path id="Container_2_" class="st2" d="M5.28,0h162.36c2.92,0,5.28,2.36,5.28,5.28V66c0,2.92-2.36,5.28-5.28,5.28H5.28
								C2.36,71.28,0,68.92,0,66V5.28C0,2.36,2.36,0,5.28,0z"/>
							<g id="Text-Stuff" transform="translate(11.880000, 21.384000)">
								<path id="Label" class="st6" d="M3.96,0H92.4c2.19,0,3.96,1.77,3.96,3.96v2.77c0,2.19-1.77,3.96-3.96,3.96H3.96
									C1.77,10.69,0,8.92,0,6.73V3.96C0,1.77,1.77,0,3.96,0z"/>
								<path id="Label_1_" class="st6" d="M3.96,17.82h56.76c2.19,0,3.96,1.77,3.96,3.96v2.77c0,2.19-1.77,3.96-3.96,3.96H3.96
									C1.77,28.51,0,26.74,0,24.55v-2.77C0,19.59,1.77,17.82,3.96,17.82z"/>
							</g>
							<g id="Check" transform="translate(145.200000, 26.400000)">
								<circle id="Background_4_" class="st6" cx="9.24" cy="9.24" r="9.24"/>
								<circle id="Indicator" class="st5" cx="9.24" cy="9.24" r="3.96"/>
							</g>
						</g>
						<g id="Row_5_" transform="translate(0.000000, 81.840000)">
							<path id="Background_5_" class="st2" d="M5.28,0h162.36c2.92,0,5.28,2.36,5.28,5.28v44.88c0,2.92-2.36,5.28-5.28,5.28H5.28
								C2.36,55.44,0,53.08,0,50.16V5.28C0,2.36,2.36,0,5.28,0z"/>
							<g id="Text_4_" transform="translate(51.480000, 16.632000)">
								<path id="Name_8_" class="st6" d="M3.96,0H92.4c2.19,0,3.96,1.77,3.96,3.96v0.4c0,2.19-1.77,3.96-3.96,3.96H3.96
									C1.77,8.32,0,6.54,0,4.36v-0.4C0,1.77,1.77,0,3.96,0z"/>
								<path id="Name_9_" class="st6" d="M3.96,13.86h56.76c2.19,0,3.96,1.77,3.96,3.96v0.4c0,2.19-1.77,3.96-3.96,3.96H3.96
									C1.77,22.18,0,20.4,0,18.22v-0.4C0,15.63,1.77,13.86,3.96,13.86z"/>
							</g>
							<circle id="Avatar_4_" class="st7" cx="27.72" cy="27.72" r="15.84"/>
						</g>
						<g id="Row_6_" transform="translate(0.000000, 147.840000)">
							<path id="Container_3_" class="st2" d="M5.28,0h162.36c2.92,0,5.28,2.36,5.28,5.28v44.88c0,2.92-2.36,5.28-5.28,5.28H5.28
								C2.36,55.44,0,53.08,0,50.16V5.28C0,2.36,2.36,0,5.28,0z"/>
							<g id="Text-Stuff_1_" transform="translate(11.880000, 16.632000)">
								<path id="Label_2_" class="st6" d="M3.96,0H92.4c2.19,0,3.96,1.77,3.96,3.96v0.4c0,2.19-1.77,3.96-3.96,3.96H3.96
									C1.77,8.32,0,6.54,0,4.36v-0.4C0,1.77,1.77,0,3.96,0z"/>
								<path id="Label_3_" class="st8" d="M3.96,13.86h56.76c2.19,0,3.96,1.77,3.96,3.96v0.4c0,2.19-1.77,3.96-3.96,3.96H3.96
									C1.77,22.18,0,20.4,0,18.22v-0.4C0,15.63,1.77,13.86,3.96,13.86z"/>
							</g>
							<g id="Check_1_" transform="translate(145.200000, 18.480000)">
								<circle id="Background_6_" class="st6" cx="9.24" cy="9.24" r="9.24"/>
								<circle id="Indicator_1_" class="st5" cx="9.24" cy="9.24" r="3.96"/>
							</g>
						</g>
						<g id="Row_7_" transform="translate(0.000000, 213.840000)">
							<path id="Background_7_" class="st2" d="M5.28,0h162.36c2.92,0,5.28,2.36,5.28,5.28v44.88c0,2.92-2.36,5.28-5.28,5.28H5.28
								C2.36,55.44,0,53.08,0,50.16V5.28C0,2.36,2.36,0,5.28,0z"/>
							<g id="Text_5_" transform="translate(51.480000, 16.632000)">
								<path id="Name_10_" class="st6" d="M3.96,0H92.4c2.19,0,3.96,1.77,3.96,3.96v0.4c0,2.19-1.77,3.96-3.96,3.96H3.96
									C1.77,8.32,0,6.54,0,4.36v-0.4C0,1.77,1.77,0,3.96,0z"/>
								<path id="Name_11_" class="st6" d="M3.96,13.86h56.76c2.19,0,3.96,1.77,3.96,3.96v0.4c0,2.19-1.77,3.96-3.96,3.96H3.96
									C1.77,22.18,0,20.4,0,18.22v-0.4C0,15.63,1.77,13.86,3.96,13.86z"/>
							</g>
							<circle id="Avatar_5_" class="st7" cx="27.72" cy="27.72" r="15.84"/>
						</g>
					</g>
				</g>
			</g>
			<g id="Group-14" transform="translate(5.000000, 29.000000)">
				
					<linearGradient id="Path-5_1_" gradientUnits="userSpaceOnUse" x1="55.2419" y1="680.7119" x2="55.3163" y2="680.6572" gradientTransform="matrix(242 0 0 -52 -13199 35830)">
					<stop  offset="0" style="stop-color:#A1CECB"/>
					<stop  offset="1" style="stop-color:#3A8A84"/>
				</linearGradient>
				<path id="Path-5" class="st10" d="M293,446c-3.75-9.54-13.03-17.15-27.82-22.82c-22.19-8.51-28.52,18.57-56.01-5.02
					c-8.08-7.22-21.47-10.73-48.57-2.85c-23.32,2.85-15.73-6.32-29.49-18.6c-11.95-5.08-19.92-5.08-31.68,18.6
					s-25.43,3.04-32.79,7.87c-13.98,0-18.42,13.26-13.98,22.82C52.65,446,132.77,446,293,446z"/>
				<path id="Combined-Shape" class="st11" d="M54.1,5.12c14.44-8.75,35.9-4.94,53.87,8C117.63,5.59,130.45,1,144.5,1
					c25.01,0,46.08,14.53,52.5,34.33c27.04,2.77,48,22.61,48,46.67c0,6.38-1.47,12.46-4.14,18c2.67,5.54,4.14,11.62,4.14,18
					c0,6.77-1.66,13.2-4.65,19.02c1.73,5.29,2.65,10.81,2.65,16.48c0,39.49-44.32,71.5-99,71.5c-49.87,0-91.13-26.63-98-61.27
					c-25.27-2.78-45-26.44-45-55.23c0-28.38,19.19-51.79,43.96-55.1C36.24,33.76,39.25,14.13,54.1,5.12z"/>
				
					<linearGradient id="Path-4-Copy-2_1_" gradientUnits="userSpaceOnUse" x1="55.1695" y1="682.8181" x2="55.2289" y2="681.6335" gradientTransform="matrix(200 0 0 -224 -10877.1211 152918.3906)">
					<stop  offset="0" style="stop-color:#A1CECB"/>
					<stop  offset="1" style="stop-color:#3A8A84"/>
				</linearGradient>
				<path id="Path-4-Copy-2" class="st12" d="M68.23,199.08c40.3,34.64,87.03,40.54,140.19,17.7
					c30.83-17.11,54.12-30.59,49.85-73.35c-0.57-5.73,4.18-14.67,4.27-23.08c0.04-4.07-1.38-10.27-4.27-18.58
					c6.14-15.77,6.14-28.56,0-38.39c-9.21-14.74-10.27-29.96-46.36-27.05c4.2,4.97-9.43-48.35-59.33-23.13
					c-9.17,4.63,0.9,35.13,0,43.55c-28.3-3.45-60.51-7.54-67.78,0c-9.17,9.51,11.09,32.51,14.56,42.81
					c-1.43,3.95-25.42,6.74-33.33,17.88c-13.96,19.65,23.09,44.02,20.94,65.79C86,193.07,79.75,198.35,68.23,199.08z"/>
				<path id="Path-2" class="st13" d="M143.91,437.74h12.94V211.07L182,161.85c-0.13-4.96-1.72-4.96-4.79,0
					c-3.06,4.96-9.14,16.73-18.24,35.33l1.04-64.03c-1.01-5.53-2.49-5.53-4.45,0c-1.96,5.53-2.44,15.1-1.45,28.7l-7-18.15
					c-0.84-0.02-1.58,0.67-2.23,2.08c-0.65,1.4,2.43,11.44,9.24,30.1l-4.63,131.71l-19.64-109c-2.26-2.56-3.9-2.01-4.94,1.64
					c-1.03,3.65,0.19,12.19,3.67,25.64l-11.06-12.55c-1.68-0.54-2.53,0.72-2.53,3.79s5.25,9.97,15.76,20.71l15.41,93.63L143.91,439"
					/>
				<g id="Combined-Shape_1_" transform="translate(110.000000, 395.999882)">
					<g id="Mask">
					</g>
				</g>
			</g>
			<path id="Combined-Shape_2_" class="st14" d="M194.4,428.16c3.41,0.48,4.87,10.48,3.56,23.03c1.63-1.97,3.47-3.02,5.27-2.77
				c1.16,0.16,2.19,0.85,3.04,1.94c3.62-5.82,8.31-9.16,11.56-7.79c2.73,1.15,3.75,5.32,3,10.56c2.98-2.4,5.92-3.33,7.62-2.11
				c1.69,1.22,1.71,4.27,0.34,7.81c7.62-4.34,15.3-5.09,17.52-1.58c2.33,3.69-2.26,10.7-10.24,15.64
				c-7.99,4.95-16.35,5.96-18.68,2.27c-0.65-1.03-0.76-2.32-0.41-3.76c-1.28,0.35-2.4,0.26-3.23-0.33c-0.36-0.26-0.64-0.59-0.85-1
				c-2.07,2.22-4.25,3.61-6.18,3.87c-2.07,5.12-5.21,8.37-8.23,7.95c-2.87-0.4-4.92-4-5.6-9.05c-1.86,4.35-3.92,6.9-5.75,6.64
				c-1.62-0.23-2.8-2.6-3.45-6.38c-1.18,3.74-3,6.13-5.19,6.29c-2.99,0.21-5.88-3.81-7.68-9.92c-0.55,2.2-1.59,3.69-3,3.93
				c-1.89,0.33-3.95-1.68-5.42-4.93c1.09,4.54,0.22,8.55-2.37,9.64c-1.76,0.74-3.94-0.02-5.96-1.81c0.43,2.28,0.06,4.28-1.23,5.61
				c-3.05,3.13-10.11,1.29-15.75-4.11c-5.65-5.4-7.75-12.32-4.69-15.46c3.05-3.13,10.11-1.29,15.75,4.11
				c0.22,0.21,0.44,0.43,0.65,0.64c-1.12-4.58-0.26-8.62,2.35-9.72c3.11-1.31,7.55,2.07,10.03,7.58c-0.15-0.57-0.27-1.16-0.38-1.76
				c-1.09-6.13,0.28-11.49,3.06-11.98c1.77-0.31,3.69,1.43,5.13,4.33c0.11-9.23,2.81-16.34,6.64-16.61c3.49-0.24,6.86,5.3,8.49,13.2
				C186.18,438.32,190.74,427.65,194.4,428.16z"/>
			<g id="Group-31" transform="translate(158.000000, 146.000000)">
				<path id="Path-45" class="st15" d="M454.91,261.03c6.23,44.15,10.64,75.17,13.22,93.08c4.83,2.43,7.65-2.18,7.65-0.78
					c0.48-13.24-4.14-34.41-4.14-43.63c0-9.22-1.36-44.36-6.29-48.67c-3.29-2.87-4.28-5.86-2.98-8.98l-10.02,2.04L454.91,261.03z"/>
				<path id="Path-45-Copy-2" class="st15" d="M418.19,257.34c6.23,25.98,10.64,44.24,13.22,54.77c4.83,1.43,7.65-1.28,7.65-0.46
					c0.48-7.79-4.14-20.25-4.14-25.67s-1.36-26.11-6.29-28.64c-3.29-1.69-4.28-3.45-2.98-5.28l-10.02,1.2L418.19,257.34z"/>
				<path id="Path-45-Copy-3" class="st15" d="M165.47,256.26c6.23,25.98,10.64,44.24,13.22,54.77c4.83,1.43,7.65-1.28,7.65-0.46
					c0.48-7.79-4.14-20.25-4.14-25.67s-1.36-26.11-6.29-28.64c-3.29-1.69-4.28-3.45-2.98-5.28l-10.02,1.2L165.47,256.26z"/>
				<path id="Path-45-Copy" class="st15" d="M146.59,260.71c0.35,47.27,0.57,80.49,0.66,99.67c-4.43,3.22-7.9-1.22-7.69,0.24
					c-2.43-13.84-0.98-36.74-2.34-46.43s-5.2-46.82-0.96-52.03c2.83-3.47,3.37-6.76,1.62-9.85l10.22,0.75L146.59,260.71z"/>
				<path id="Path-26-Copy" class="st16" d="M462.53,190.89c4.84-5.6,6.05-13.52,3.61-23.76c-12.26,0-132.93,0-362.01,0
					c-0.42,6.16-0.42,10.12,0,11.88c1.67,6.93,4.77,11.88,4.77,11.88"/>
				<path id="Path-36" class="st1" d="M211.58,65.23c-11.89-11.21-19.47-19.75-22.73-25.6c-4.89-8.79,0.43-22.23-17.26-15.51
					c-11.79,4.48-21.16,9.65-28.1,15.51c7.21,12.96,13.54,21.5,19.01,25.6c8.2,6.16,12.71,13.29,15.14,10.85
					c1.62-1.63,4.77-4.16,9.44-7.58c1.18,0.56,1.77,1.53,1.77,2.89c0,1.36-1.39,2.05-4.16,2.06l-3.72,18.44l10.02,34.76l20.59,9.41
					l10.81-61.39L211.58,65.23z"/>
				<path id="Path-26-Copy-2" class="st16" d="M465.65,157.41c5.07-5.8,2.12-15.49,0-19.44c-3.73,0-17.46,0-41.19,0
					c-36.23,0-143,0-320.33,0c-1.72,4.27-2.58,7.25-2.58,8.93c0,6.99,2.58,10.51,2.58,10.51S371.97,157.41,465.65,157.41z"/>
				<path id="Path-27" class="st16" d="M115.61,126.66c-8.07,4.69-12.1,7.83-12.1,9.41c39.6,0,354.52-1.91,357.48,0
					c0-3.18,0-6.59-5.52-9.41C451.78,126.66,338.49,126.66,115.61,126.66z"/>
				<path id="Path-25" class="st17" d="M103.83,260.73h390.93c0.9-9.31-0.03-16.31-2.78-20.99c-18.78,0-257.9-1.02-382.49,0
					C104.58,243.19,102.7,250.18,103.83,260.73z"/>
				<path id="Path-25-Copy" class="st17" d="M109.83,236.05h378.45c0.87-3.28-0.03-5.75-2.69-7.4c-18.18,0-249.67-0.36-370.28,0
					C110.56,229.87,108.74,232.33,109.83,236.05z"/>
				<path id="Path-26" class="st17" d="M458.83,221.13c1.89-0.66,3.6-6.91,5.12-18.76c-11.95,0-130.09,1.04-354.42,3.12
					c-0.41,2.79-0.41,4.87,0,6.26c1.63,5.47,4.65,9.38,4.65,9.38"/>
				<path id="Path-41" class="st18" d="M183.97,165.32c-0.88,15.09-3.5,23.62-7.84,25.57c-6.52,2.93-74.82,15.55-80.37,26.58
					S78.58,251.4,76.1,260.73c-1.65,6.22-7.83,24.48-18.54,54.79l-11.67,17.82c11.01,1.65,18.38,2.48,22.11,2.48
					c5.6,0,46.56-53.84,47.03-91.32c0.31-24.99,2.93-26.73,7.87-5.21l46.65-10.8l52.84-26.12l-8.3-14.38l-5.19-8.98l-3.09-10.59
					L183.97,165.32z"/>
				<path id="Path-40" class="st19" d="M235.7,180.68c10.28,26.58,9.76,43.78-1.54,51.59s-38.48,11.75-81.5,11.81
					c5.79,13.6,9.57,24.54,11.34,32.8c10.66,49.7,11.69,53.2,7.96,59.89c-5.07,9.11-10.34,12-15.82,8.68l-37.87-84.72
					c-6.03-10.33-9.05-21.08-9.05-32.24s8.59-18.35,25.76-21.57c35.92-5.1,53.89-9.05,53.89-11.84s1.8-9.89,5.4-21.3v-6.64
					l36.37,1.29L235.7,180.68z"/>
				<g id="Group-32" transform="translate(164.723718, 0.000000)">
					<path id="Path-19" class="st20" d="M143.17,239.74c37.27-0.82,57.72-2.36,61.34-4.6c5.44-3.36-9.94-27.63-15.48-25.51
						c-5.54,2.12-37.2,1.17-38.8,3.71c-0.87,1.37-6.87,3.36-9.42,14.07C140.42,229.09,141.2,233.19,143.17,239.74z"/>
					<path id="Path-16" class="st21" d="M142.8,228.37c2.55,12.89,2.55,23.86,0,32.93c-3.83,13.6-2.39,39.67,6.71,58.97
						c6.07,12.87,9.11,22.49,9.11,28.86l-2.65,16.78c-0.38,2.07,0.51,3.11,2.65,3.11c3.22,0,10.08,0,12.11,0s6.02-3.11,6.02-3.11
						s0-1.81,0-5.43c-0.08-0.79-0.62-1.73-1.61-2.82c-1.49-1.64-4.61-7.97-5.58-12.34c-0.97-4.37,0.07-4.32-1.63-9.83
						c-1.7-5.51,0-19.5,0-22.54c0-3.04,3.26-31.64,1.63-37.28c-1.09-3.76-0.7-11.05,1.17-21.87c2.42-12.41,3.24-21.11,2.45-26.09
						s-1.99-9.16-3.62-12.53c-3.93-3.51-7.84-4.83-11.73-3.96c-5.84,1.3-11.24,2.11-13.84,8.61
						C142.26,224.15,141.86,227,142.8,228.37z"/>
					<path id="Path-17" class="st21" d="M179.34,213.86c-3.45,6.29-4.31,12.99-2.59,20.08c1.73,7.1,4.01,12.49,6.85,16.17l2.87,6.07
						l2.64,6.4c1.64,12.22,3,19.51,4.07,21.85c0,6.69,7.7,29.9,13.41,39.77c3.81,6.58,4.89,14.88,3.26,24.9
						c-0.72,4.01,0.18,7.54,2.72,10.58c3.81,4.57,5.35,6.29,7.85,9.33s9.04,2.7,9.82,2.7c0.52,0,2.36-0.61,5.51-1.84l1.5-3.95
						c0.16-2.22-0.34-4.3-1.5-6.24c-1.16-1.94-3.91-6.57-8.23-13.89c-3.63-4.38-5.44-8.02-5.44-10.92c0-4.36,0-11.92,0-19.08
						c0-7.16-0.99-30.32-1.66-34.46s-0.6-8.56-1.82-11.36c-0.82-1.87-1.61-4.33-2.38-7.4l-1.36-3.9c-0.57-2.86-0.86-4.29-0.86-4.29
						s-0.15-2.03-2.15-5.4c-0.39-0.66-3.33-4.11-3.96-5.65c-1.01-2.45-2.41-7.85-4.2-16.2c-1.37-4.05-3.53-7.57-6.48-10.54
						c-4.43-4.46-3.49-4.79-8.1-6.41C186.04,209.11,182.78,210.33,179.34,213.86z"/>
					<g id="Artboard-1" transform="translate(0.276282, 0.000000)">
						<path id="Path" d="M198.62,38.47c-0.1,2.36-3.18,4.26-3.72,6.47c-0.55,2.28,1.31,5.38,0.35,7.46s-4.55,2.69-5.93,4.55
							s-0.84,5.46-2.54,7.02s-5.23,0.73-7.21,1.94c-1.98,1.21-2.84,4.72-5.03,5.52c-2.19,0.8-5.09-1.33-7.4-0.97
							c-2.25,0.35-4.4,3.26-6.76,3.15c-2.36-0.11-4.26-3.18-6.47-3.72c-2.27-0.55-5.38,1.31-7.46,0.35s-2.69-4.55-4.55-5.92
							c-1.86-1.37-5.46-0.84-7.02-2.54s-0.74-5.23-1.94-7.21c-1.21-1.98-4.71-2.84-5.52-5.02c-0.8-2.18,1.33-5.09,0.97-7.4
							c-0.35-2.25-3.26-4.41-3.15-6.76s3.19-4.26,3.72-6.47c0.55-2.27-1.31-5.38-0.35-7.46s4.55-2.69,5.92-4.55
							c1.37-1.86,0.84-5.46,2.54-7c1.7-1.54,5.23-0.73,7.21-1.94c1.98-1.21,2.84-4.72,5.03-5.52s5.09,1.31,7.39,0.96
							c2.24-0.35,4.4-3.26,6.76-3.15s4.26,3.19,6.48,3.72c2.27,0.55,5.38-1.31,7.46-0.35s2.69,4.55,4.55,5.92
							c1.86,1.37,5.46,0.84,7.02,2.54s0.74,5.23,1.94,7.21c1.21,1.98,4.72,2.84,5.52,5.03c0.8,2.18-1.33,5.09-0.97,7.4
							C195.8,33.95,198.72,36.12,198.62,38.47z"/>
						<path id="Path_1_" class="st22" d="M206.8,105.11c-0.79,0.74-1.6,1.46-2.41,2.16c-23.19,19.78-54.41,18.89-76.86-2.58
							l17.03-9.74c0.52-0.3,1.03-4.63,1.52-5v-0.92c0.14-0.11,0.26,0.12,0.39,0c2.15-1.81,4.32,0.06,5.55-2.75
							c1.4-3.22,1.86-6.78,1.88-10.41c0-2.44-0.11-4.88-0.13-7.33c-0.01-1.35-0.03-2.71-0.03-4.06l0.7,0.43l1.82,1.15l10.6,2.2
							l10.89,2.26l0.33,13.66l0.16,2.78l4.01,0.87l3.16,2.68L206.8,105.11z"/>
						<path id="Path_2_" class="st23" d="M178.08,80.61c-3.52,0.63-7.14,0.35-10.52-0.81c-7.55-2.54-12.64-8.66-13.12-14.97
							l1.82,0.94l10.6,1.8l10.89,1.85L178.08,80.61z"/>
						<path id="Path_3_" class="st22" d="M206.8,97.78c-23.4,18.01-56.03,17.87-79.27-0.35l17.03-7.98
							c0.52-0.25,1.03-0.52,1.52-0.82c8.29,6.09,19.82,10.06,29.77,5.6c2.82-1.27,5.37-3.52,6.4-6.41l3.15,1.27L206.8,97.78z"/>
						<circle id="Oval_1_" class="st22" cx="145.86" cy="52.72" r="5.95"/>
						<circle id="Oval_2_" class="st23" cx="147.99" cy="52.12" r="5.95"/>
						<path id="Path_4_" class="st22" d="M175.15,76.43c-7.35-0.31-24.93-6.93-28.44-21.33c-0.74-3-1.07-6.09-0.98-9.17
							c0-0.61,0.06-1.2,0.1-1.8c0.86-9.89,6.28-17.97,14.39-19.95c0.47-0.11,0.94-0.21,1.4-0.27c2.83-0.41,5.72-0.08,8.39,0.94
							c3.43,1.34,6.5,3.47,8.96,6.22c1.04,1.13,1.98,2.35,2.83,3.63c2.16,3.28,3.73,6.91,4.64,10.72
							C189.96,59.83,180.51,76.65,175.15,76.43z"/>
						<path id="Path_5_" class="st24" d="M163.69,46.23c2.13,0.11,2,3.37-0.14,3.3h-0.09c-2.13-0.11-1.99-3.37,0.14-3.3H163.69
							L163.69,46.23z"/>
						<path id="Path_6_" class="st24" d="M2.69,55.23c2.13,0.11,2,3.37-0.14,3.3H2.45c-2.13-0.11-2-3.37,0.14-3.3H2.69L2.69,55.23z"
							/>
						<path id="Path_7_" class="st24" d="M181.32,45.63c1.98,0.1,1.85,3.13-0.13,3.06h-0.09c-1.98-0.1-1.85-3.13,0.13-3.06H181.32z"
							/>
						<path id="Path_8_" class="st25" d="M174.92,45.52c0.04,1.36,0.22,2.72,0.53,4.05c0.32,1.17,0.8,1.91,1.46,2.94
							c0.23,0.34,0.42,0.7,0.58,1.07c0.84,2.1-0.49,4.37-2.82,4.27l-1.44-0.06"/>
						<path id="Path_9_" class="st25" d="M168.23,54.89c-0.54,0.24-0.82,0.84-0.65,1.41c0.16,0.57,0.71,0.93,1.3,0.85"/>
						<path id="Path_10_" class="st25" d="M176.76,41.3c2.52-1.16,5.39-1.31,8.02-0.42"/>
						<path id="Path_11_" class="st25" d="M158.37,41.54c3.48-1.59,7.49-1.55,10.93,0.12"/>
						<path id="Path_12_" d="M179.6,31.33c0.17,0.41,0.14,0.77-0.16,1.34c-0.35,0.67-0.79,1.28-1.3,1.84
							c-2.14,2.36-5.42,3.32-8.5,2.5c-0.81-0.19-1.58-0.52-2.29-0.96c-0.53-0.35-1.13-1.18-1.85-0.9c-0.29,0.15-0.52,0.4-0.65,0.7
							c-1.14,2.02-1.85,4.15-4.11,5.21c-1.31,0.56-2.77,0.71-4.17,0.41c-1.2-0.21-1.57-1.16-2.59-1.45
							c-0.58-0.16-1.15,0.28-1.5,0.77c-0.66,0.93-0.72,2.1-1.26,3.08c-0.7,1.29-2.12,2.45-3.64,2.62c-0.61,0.08-1.21-0.14-1.62-0.61
							c-0.77-1-0.32-2.8-0.17-3.96c0.56-4.33,2.05-8.62,4.69-12.14c2.38-3.15,5.7-5.6,9.57-6.53c6.7-1.63,15,2.27,19.16,7.41
							C179.37,30.86,179.5,31.09,179.6,31.33z"/>
						<path id="Path_13_" class="st26" d="M178.79,30.16L178.79,30.16c-6.44-1.73-14.04-1.4-19.19,1.49
							c-8.96,5.02-11.06,9-13.91,13.18l-0.12,0.19c0-0.24,0-0.49,0.03-0.73c0.55-10.38,6.07-18.97,14.47-21
							c6.62-1.61,13.52,1.21,18.72,6.86L178.79,30.16z"/>
					</g>
					<path id="Path-20" class="st27" d="M201.91,97.35c7.58-0.7,12.25,2.5,14.01,9.62c2.64,10.68,1.33,32,10.45,56.38
						c6.08,16.26,0.09,26.45-17.98,30.59l-73.79,1.13c-7.61-0.11-13.2-1.59-16.78-4.43c-3.58-2.85-6.18-7.91-7.82-15.18
						c1.42-15.06,3.66-26.5,6.73-34.3c4.61-11.7,4.61-22.73,4.61-26.62c0-3.89,0.21-19.76,15.16-19.76
						c1.99,0,6.51,15.37,17.11,19.76c10.59,4.39,19.44,4.92,27.11,3.36s14.39-6.84,17.79-10.94
						C200.77,104.24,201.91,101.03,201.91,97.35z"/>
					<path id="Path-18" class="st28" d="M144.31,239.51c2.03,1.13-3.5-1.96-3.5-7.43s2.58-13.92,5.6-15.81
						c3.02-1.89,5.64-4.28,10.41-5.32c4.77-1.04,9.83,1.9,9.83,1.9s2.78,1.7,3.74,3.9c0.69,1.61,2.51,2.49,3.94,2.02
						c1.26-0.41,2.43-3.45,3.25-3.92c1.75-0.99,3.32-2.55,5.49-3.9c2.17-1.36,5.24-1.47,7.78-0.43s13.37,12.43,13.37,19.75
						c1.04,3.61,1.04,6.13,3.02,5.36c5.17-2.03,4.69-2.56,11.27-10.96c6.58-8.4,3.56-25.04-4.19-32.93
						c-7.75-7.89-14.81-12.46-14.81-22.05c0-6.39,0-16.06,0-28.99c0.79-7.49-3.32-11.23-12.34-11.23s-20.16,0-33.42,0
						c-5.91,0.35-9.54,3.21-10.9,8.56c-2.04,8.03,5.09,22.43,0,31.66c-5.09,9.23-8.98,16.93-14.36,22.05
						c-5.38,5.11-8.83,8.57-6.32,29.93C128.5,237.15,137.02,235.44,144.31,239.51z"/>
					<path id="Rectangle_2_" class="st29" d="M133.47,151.62h78.84c0.6,0,1.07,0.49,1.05,1.1l-1.45,48.55
						c-0.02,0.61-0.5,1.1-1.07,1.1h-75.89c-0.57,0-1.05-0.49-1.07-1.1l-1.45-48.55C132.41,152.11,132.88,151.62,133.47,151.62z"/>
					<path id="Path-21" class="st28" d="M185.68,89.09c-1.32,18.18-1.74,30.31-1.27,36.39c1.89,0.65,4.76,0.65,8.62,0
						c0.39-19.55,1.16-30.39,2.31-32.51C193.16,91.43,189.94,90.14,185.68,89.09z"/>
					<path id="Path-21-Copy" class="st28" d="M148.36,87.82c4.83,18.66,7.42,30.93,7.77,36.79c-1.78,0.89-4.63,1.29-8.53,1.2
						c-4.37-20.62-7.27-31.86-8.69-33.72c0.79-0.53,6.2-3.61,7.45-3.46C146.89,88.69,147.56,88.42,148.36,87.82z"/>
					<path id="Path-28" class="st30" d="M185.96,122.6c-1.73,6.27-1.73,9.88,0,10.83c1.73,0.95,3.17,1.19,4.33,0.71
						c-0.45-5.81-1.03-9.26-1.74-10.35C187.84,122.7,186.97,122.3,185.96,122.6z"/>
					<path id="Path-28-Copy" class="st30" d="M152.28,122.6c1.73,6.27,1.73,9.88,0,10.83c-1.73,0.95-3.17,1.19-4.33,0.71
						c0.45-5.81,1.03-9.26,1.74-10.35C150.4,122.7,151.26,122.3,152.28,122.6z"/>
					<g id="Group-28" transform="translate(207.537432, 340.176698)">
						<path id="Path-49" class="st31" d="M1.14,14.65c-1.19,4.02-1.45,6.79-0.77,8.31c1.01,2.27,17.19,18.21,21.64,19.74
							c4.45,1.52,6.82,1,8.96,0.64s5.12-5.57,3.27-9.75c-0.06-0.13-0.62-1.19-0.75-1.34c-1.22-1.4-9.15-5.86-23.8-13.36L1.14,14.65z
							"/>
						<path id="Path-49_1_" class="st32" d="M2.02,12.66c-0.65,2.77-0.65,4.85,0,6.23C3,20.95,17.25,36.38,21.56,37.77
							c0.91,0.29,3.39,1.17,4.21,1.4c1.99,0.57,2.16,0.3,3.98,0c1-0.17,3.34-1.07,3.75-1.4c1.46-1.21,0.68-3.61-0.28-6.81
							c-0.04-0.12-0.6-1.08-0.72-1.22c-1.18-1.28-8.87-5.33-23.06-12.17L2.02,12.66z"/>
						<path id="Path-46" class="st33" d="M2.02,9.29c0-1.19,0.46-3.05,1.38-5.57c0.77,4.7,2.45,7.73,5.04,9.1
							c3.88,2.05,13.34,0.36,10.67-7.93C18.22,0.57,16.97,0.9,16.41,0c6.74,9.29,11.53,19.05,13.35,21.34
							c0.94,1.19,4.43,6.28,5.07,10.21c0.59,3.66-1.49,6.21-5.07,6.21c-7.43,0-13.35-5.16-16.86-8.93S2.02,17.94,2.02,16.29
							S2.02,11.07,2.02,9.29z"/>
						<path id="Path-47" class="st34" d="M11.11,13.44c1.95-5.14,4.62-6.9,8-5.27s5.93,6.18,7.65,13.66
							c0.91,1.82,0.05,2.73-2.56,2.73S17.22,20.86,11.11,13.44z"/>
						<path id="Path_14_" class="st35" d="M21.56,22.96l4.21-6.08l-8.01,2.87l5.08-7.49l-8.8,3.83l6.68-6.67c-4.26,1.7-6.93,3-8,3.9
							"/>
						<path id="Path-48" class="st35" d="M25.72,20.51l-6.98,0.7l5.4-6.25l-7.45,2.08l6.41-6.65l-7.54,3.8
							c3-3.27,5.04-5.24,6.13-5.91"/>
					</g>
					
						<g id="Group-28-Copy" transform="translate(159.797432, 371.896698) scale(-1, 1) translate(-159.797432, -371.896698) translate(142.297432, 349.896698)">
						<path id="Path-49_2_" class="st31" d="M1.14,14.65c-1.19,4.02-1.45,6.79-0.77,8.31c1.01,2.27,17.19,18.21,21.64,19.74
							c4.45,1.52,6.82,1,8.96,0.64s5.12-5.57,3.27-9.75c-0.06-0.13-0.62-1.19-0.75-1.34c-1.22-1.4-9.15-5.86-23.8-13.36L1.14,14.65z
							"/>
						<path id="Path-49_3_" class="st32" d="M2.02,12.66c-0.65,2.77-0.65,4.85,0,6.23C3,20.95,17.25,36.38,21.56,37.77
							c0.91,0.29,3.39,1.17,4.21,1.4c1.99,0.57,2.16,0.3,3.98,0c1-0.17,3.34-1.07,3.75-1.4c1.46-1.21,0.68-3.61-0.28-6.81
							c-0.04-0.12-0.6-1.08-0.72-1.22c-1.18-1.28-8.87-5.33-23.06-12.17L2.02,12.66z"/>
						<path id="Path-46_1_" class="st33" d="M2.02,9.29c0-1.19,0.46-3.05,1.38-5.57c0.77,4.7,2.45,7.73,5.04,9.1
							c3.88,2.05,13.34,0.36,10.67-7.93C18.22,0.57,16.97,0.9,16.41,0c6.74,9.29,11.53,19.05,13.35,21.34
							c0.94,1.19,4.43,6.28,5.07,10.21c0.59,3.66-1.49,6.21-5.07,6.21c-7.43,0-13.35-5.16-16.86-8.93S2.02,17.94,2.02,16.29
							S2.02,11.07,2.02,9.29z"/>
						<path id="Path-47_1_" class="st34" d="M11.11,13.44c1.95-5.14,4.62-6.9,8-5.27s5.93,6.18,7.65,13.66
							c0.91,1.82,0.05,2.73-2.56,2.73S17.22,20.86,11.11,13.44z"/>
						<path id="Path_15_" class="st35" d="M21.56,22.96l4.21-6.08l-8.01,2.87l5.08-7.49l-8.8,3.83l6.68-6.67c-4.26,1.7-6.93,3-8,3.9
							"/>
						<path id="Path-48_1_" class="st35" d="M25.72,20.51l-6.98,0.7l5.4-6.25l-7.45,2.08l6.41-6.65l-7.54,3.8
							c3-3.27,5.04-5.24,6.13-5.91"/>
					</g>
				</g>
				<path id="Path-33" class="st36" d="M200.63,124.67l-1.94-46.36c7.84-4.39,12.62-7.73,14.35-10.01c2.59-3.42,3.27-7.38,0-7.38
					s12.1,16.34,16.6,14.65c3-1.12-1.01,14.2-12.04,45.98l-2.96,41.48c-15.17,0-22.76,0-22.76,0s0.17-0.49,0.46-1.4
					C193.72,157.35,200.86,141.77,200.63,124.67c-0.18-13.95-2.77-28.13-6.52-40.02c-0.33-1.06-2.47-1.61-3-2.56
					c-7.4-6.69-5.73-4.95-5.01-8.15c0.44-1.95-0.37-1.41-2.44,1.62c-7.4-0.7-11.1,2.32-11.1,9.08c0,6.76,2.17,15.86,6.52,27.32
					c-7.52,6.65-11.28,11.54-11.28,14.68c0,3.14,1.59,6.27,4.76,9.41c-1.96,1.14-3.55,2.9-4.76,5.29c-1.21,2.39-1.21,4.5,0,6.34
					h1.89c6.85-1.21,11.51-1.21,13.97,0c2.46,1.21,3.8,4.98,4.02,11.29l2.17,4.05"/>
				<path id="Path-29" class="st37" d="M233.29,78.31c-7.19,7.58-9.59,18.31-7.19,32.21s5.6,30.6,9.61,50.11
					c-8.41-0.03-14.07,2.14-16.97,6.51c-8.44,12.67-19.43,12.67-21.97,13.55c2-23.56,3.93-58.78,5.71-64.47s2.81-17.15,6.5-21.42
					c3.69-4.27,12.69-16.66,17.13-18.59c2.95-1.29,5.83-0.58,8.64,2.11H233.29z"/>
				<path id="Path-30" class="st37" d="M183.78,95.06c9.5,13.52,14.99,24.05,16.47,31.59c0.63,3.22,0.49,7.53-0.42,12.92
					c-0.81,4.82-2.67,19.25-5.57,43.3c-12.86,3.57-19.29,5.36-19.29,5.36s10.18-27.79,10.18-29.3c0-1.01,0.74-4.15,2.22-9.42
					c1.37-8.37,0.63-15.05-2.22-20.03c-2.86-4.98-4.87-12.57-6.05-22.75l2.7-14.83L183.78,95.06z"/>
				<path id="Path-32" class="st36" d="M238.86,173.77c-8.01-10.34-12.98-14.69-14.9-13.06c-1.93,1.64-2.89,2.75-2.89,3.34
					c-4-9.07-4.52-14.53-1.56-16.37c2.96-1.84,4.45-5.08,4.45-9.72c0.1-3.73,0.81-6.55,2.13-8.46c1.98-2.86,1.98-5.31,1.98-9.43
					c0-4.13,0.15-9.15-1.98-14.55s0-12.6,0-16.74s2.55-6.97,4.07-8.87c1.01-1.27,2.22-2.72,3.64-4.35
					c12.5,6.85,17.89,21.19,16.16,43.03c-2.58,32.76,2.58,26.44,0,34.28c-2.58,7.84,0.02,10.19-4.82,15.54
					C241.92,171.99,239.82,173.77,238.86,173.77z"/>
				<path id="Path-34" class="st38" d="M198.69,78.31c5.73,3.49,8.6,6.99,8.6,10.49c1.68,3.14,7.41-2.05,17.17-15.58l-9-10.75
					c-2.57,4.57-4.84,7.78-6.81,9.63C206.69,73.96,203.37,76.03,198.69,78.31z"/>
				<path id="Path-35" class="st38" d="M188.86,80.49c-1.51,1.44-2.61,3.1-3.3,4.96c-0.69,1.87-1.14,4.36-1.33,7.49
					c-3.43-3.11-5.14-8.73-5.14-16.86c3.52-6.25,5.24-6.25,5.14,0L188.86,80.49z"/>
				<path id="Path-38" class="st30" d="M138,46.04c34.57-10.56,51.85-16.5,51.85-17.83c0-1.98-3.95-14.33-10.77-14.33
					c-6.83,0-12.7-3.77-20.87,4.29c-5.45,5.37-10.35,10.8-14.72,16.28l-6.36,4.37c-1.18,1.65-1.34,2.75-0.49,3.31
					c1.28,0.84-0.59,2.78-4.47,2.78c-3.88,0-2.17,2.38-1.08,2.38C131.82,47.29,134.12,46.88,138,46.04z"/>
				<path id="Path-31" class="st1" d="M156.4,190.89c4.22-1.97,7.47-2.63,9.75-1.97c2.29,0.66,3.43,1.32,3.43,1.97
					c29.26-10.59,46.41-19.78,51.46-27.58c5.04-7.8,11.47-5.05,19.26,8.23c-11.92,12.98-33.64,21.61-65.16,25.9
					c-1.05,2.16-6.45,3.81-16.21,4.94c-4.53-0.71-7.96-1.96-10.29-3.77c-2.33-1.8-3.97-2.79-4.92-2.96
					c-0.47-0.56-0.22-1.07,0.76-1.52c1.46-0.68,6.81,0.68,9.36,0c2.55-0.68,4.3-1.62,2.55-1.62c-1.16,0-2.01-0.36-2.55-1.09
					L156.4,190.89z"/>
				
					<g id="Group-30" transform="translate(154.504644, 342.793814) scale(-1, 1) rotate(20.000000) translate(-154.504644, -342.793814) translate(121.504644, 309.793814)">
					<g id="Group-29" transform="translate(0.052267, 8.182862)">
						<path id="Path-53" class="st13" d="M64.45,47.61v2.97c-7.14,3.51-12.17,5.26-15.09,5.26c-4.38,0-6.77,0.9-9.23,0.9
							c-1.64,0-4.47-0.3-8.5-0.9l-10.95-3.66l-6.63-2.63l-0.97,1.88l-0.73,0.75C5.91,51.71,2.1,50.84,0.91,49.55
							s-1.21-3.13-0.06-5.51l61.51,2.11L64.45,47.61z"/>
						<path id="Path-52" class="st39" d="M62.37,45.11c0.78,1.19,1.44,1.59,1.98,1.19c0.82-0.6-3.87,3.48-8.18,4.3
							c-4.31,0.82-16.91,4.72-19.82,3.33c-1.94-0.93-7.86-2.75-17.75-5.48L11,46.31l-5.65-1.19c-3-0.52-4.5-1.24-4.5-2.16
							c0-0.92,0.26-1.58,0.78-1.97l12.03,3.05l22.8,5.38l10.16,0l8.62-3.11l6.27-1.19H62.37z"/>
						<path id="Path-50" class="st40" d="M39.41,51.43c2.75,0,11.12-1.87,14.83-3.15c2.47-0.85,4.89-1.86,7.26-3.02
							c1.14-0.99,1.14-2.3,0-3.91c-1.14-1.61-2.61-2.61-4.39-2.98c-3.45-0.52-5.25-0.77-5.38-0.77c-0.13,0-2.81-1.13-8.04-3.39
							c-1.82-1.73-2.84-2.61-3.08-2.66c-18.5-3.51-26.76-2.3-28.09-2.3c-2.02,0-10.49,2.58-10.92,4.83c-0.29,1.5-0.29,3.26,0,5.28
							l-0.69,2.81l15.41,3.1c3.34,0.62,5.41,1.11,6.18,1.47c1.17,0.54,8.24,3.91,10.76,3.91S36.65,51.43,39.41,51.43z"/>
						<path id="Path-51" class="st41" d="M36.48,40.99c3.32-4.75,4.82-7.53,4.5-8.36c-0.32-0.82,0.58-0.3,2.7,1.59l0.53,0.83
							l-2.28-4.09l-3.86-3.49c-4.69-4.79-7.03-8.01-7.03-9.67c0-1.65-0.6-5.45-1.79-11.38l0-6.42l-2.53,0.67l-2.54,0L18.52,0.6
							c-3.01-0.15-5.06-0.23-6.18-0.23C10.67,0.37,9.14,0,7.21,0C5.93,0,5.08,0.22,4.66,0.67c0.95,7.85,1.43,12.35,1.43,13.52
							c0,1.17-0.39,4.24-1.17,9.22l-1.33,5.48c-1.33,1.91-2,3.62-2,5.15c0,1.52,0,3.35,0,5.5c1.22,0.97,2.85,1.46,4.92,1.46
							s4.01,0.43,5.83,1.3l6.18,1.75c0.02-1.17,0.85-1.97,2.5-2.4c2.48-0.65,5.89-2.11,8.24-2.11
							C30.82,39.53,33.23,40.02,36.48,40.99z"/>
						<path id="Path-54" class="st42" d="M41.98,33.11c-1.48-0.38-2.81,0.12-3.99,1.49c-1.18,1.38-0.79-0.28,1.16-4.97
							c-2.85,0.2-4.63,0.83-5.33,1.89c-1.06,1.59,3.21-3.38,2.8-4.68c-0.27-0.87-0.55-0.48-0.85,1.17c-3.05-0.05-4.89,0.12-5.5,0.52
							c-0.92,0.6,5.51-0.63,4.85-3.94c0-0.11-6.32,0-7.12,0c-0.8,0,4.69-2.8,4.69-3.89c0-0.73-0.42-0.93-1.26-0.59l-6.48,1.16
							c5.5-2.54,7.87-4.29,7.12-5.26c-0.76-0.97-0.97-0.97-0.63,0c-4.58,0-7.25,0-8.01,0c-1.14,0,7.81-1.08,7.33-5.41
							c-0.32-2.89-0.48-2.38-0.48,1.53c-3.71,0-6-0.27-6.85-0.83c-1.29-0.83,6.65-1.25,7.33-4.1c0.45-1.9,0.29-1.9-0.48,0
							c-1.31-1.08-3-1.42-5.08-1.02"/>
					</g>
					<path id="Path-55" class="st43" d="M4.67,8.7c0.66-0.6,1.13-1.05,1.41-1.33C9.2,4.24,9.8,2,7.91,0.66
						c-2.16-1.52-3.6-0.18-4.32,4.02L4.67,8.7z"/>
				</g>
				
					<g id="Group-30-Copy" transform="translate(43.638255, 334.541775) scale(-1, 1) rotate(-30.000000) translate(-43.638255, -334.541775) translate(11.638255, 303.541775)">
					<g id="Group-29_1_" transform="translate(0.468222, 9.043320)">
						<path id="Path-53_1_" class="st13" d="M62.3,43.12v2.69c-6.9,3.18-11.77,4.77-14.59,4.77c-4.23,0-6.54,0.82-8.92,0.82
							c-1.59,0-4.32-0.27-8.22-0.82l-10.58-3.32l-6.41-2.38l-0.94,1.71l-0.71,0.68c-6.22-0.42-9.91-1.21-11.05-2.38
							s-1.17-2.83-0.06-4.99l59.46,1.91L62.3,43.12z"/>
						<path id="Path-52_1_" class="st39" d="M60.3,40.86c0.75,1.08,1.39,1.44,1.91,1.08c0.79-0.54-3.74,3.15-7.9,3.9
							c-4.17,0.74-16.34,4.28-19.16,3.02c-1.88-0.84-7.6-2.49-17.16-4.96l-7.36-1.95l-5.47-1.08c-2.9-0.47-4.35-1.12-4.35-1.95
							c0-0.83,0.25-1.43,0.76-1.78l11.63,2.77l22.04,4.87l9.82,0l8.33-2.82l6.06-1.08H60.3z"/>
						<path id="Path-50_1_" class="st40" d="M38.09,46.58c2.66,0,10.75-1.69,14.33-2.85c2.39-0.77,4.73-1.68,7.02-2.73
							c1.11-0.9,1.11-2.08,0-3.54c-1.11-1.46-2.52-2.36-4.24-2.7c-3.34-0.47-5.07-0.7-5.2-0.7c-0.13,0-2.72-1.02-7.77-3.07
							c-1.75-1.56-2.75-2.37-2.98-2.41C21.36,25.41,13.38,26.5,12.1,26.5c-1.96,0-10.14,2.34-10.56,4.37
							c-0.28,1.36-0.28,2.95,0,4.78l-0.66,2.54L15.78,41c3.23,0.56,5.23,1.01,5.98,1.33c1.13,0.49,7.96,3.54,10.4,3.54
							S35.43,46.58,38.09,46.58z"/>
						<path id="Path-51_1_" class="st41" d="M35.27,37.12c3.21-4.3,4.65-6.82,4.35-7.57c-0.31-0.75,0.56-0.27,2.61,1.44l0.51,0.75
							l-2.2-3.71l-3.73-3.16c-4.53-4.34-6.8-7.26-6.8-8.75c0-1.5-0.58-4.93-1.73-10.31V0l-2.45,0.61l-2.46,0L17.9,0.55
							c-2.9-0.14-4.9-0.21-5.97-0.21C10.32,0.34,8.83,0,6.97,0C5.73,0,4.91,0.2,4.5,0.61c0.92,7.11,1.38,11.19,1.38,12.24
							c0,1.06-0.38,3.84-1.13,8.35l-1.28,4.96c-1.29,1.73-1.93,3.28-1.93,4.66c0,1.38,0,3.04,0,4.98c1.17,0.88,2.76,1.32,4.75,1.32
							s3.87,0.39,5.64,1.18l5.97,1.58c0.02-1.06,0.83-1.78,2.42-2.18c2.39-0.59,5.7-1.91,7.96-1.91
							C29.79,35.8,32.12,36.24,35.27,37.12z"/>
						<path id="Path-54_1_" class="st42" d="M40.58,29.99c-1.43-0.35-2.72,0.11-3.86,1.35c-1.14,1.25-0.77-0.25,1.12-4.5
							c-2.75,0.18-4.47,0.75-5.15,1.71c-1.02,1.44,3.1-3.06,2.71-4.24c-0.26-0.79-0.53-0.44-0.82,1.06
							c-2.95-0.05-4.72,0.11-5.31,0.47c-0.89,0.54,5.33-0.57,4.69-3.57c0-0.1-6.11,0-6.88,0s4.53-2.53,4.53-3.52
							c0-0.66-0.41-0.84-1.22-0.54l-6.26,1.05c5.32-2.3,7.61-3.89,6.88-4.77c-0.73-0.88-0.94-0.88-0.61,0c-4.42,0-7.01,0-7.74,0
							c-1.11,0,7.55-0.98,7.09-4.9c-0.31-2.62-0.46-2.16-0.46,1.39c-3.59,0-5.8-0.25-6.63-0.75c-1.24-0.75,6.43-1.14,7.09-3.72
							c0.44-1.72,0.28-1.72-0.46,0c-1.27-0.97-2.9-1.28-4.91-0.93"/>
					</g>
					<path id="Path-55_1_" class="st43" d="M4.39,9.43C5.05,8.83,5.52,8.38,5.8,8.1c3.11-3.13,3.72-5.36,1.82-6.7
						C5.47-0.12,4.03,1.21,3.3,5.41L4.39,9.43z"/>
				</g>
			</g>
			<g id="Group-9-Copy" transform="translate(541.000000, 323.000000)">
				<path id="Rectangle_3_" class="st44" d="M29.38,46.79l58.12,1.02c0.85,3.27,1.28,5.84,1.28,7.72c0,1.88-0.43,4.43-1.28,7.65
					H29.38c0.91-3.64,1.37-6.37,1.37-8.2S30.29,50.43,29.38,46.79z"/>
				<path id="Rectangle-Copy-15" class="st37" d="M38.82,46.95l4.01,0.08c0.85,2.03,1.28,4.73,1.28,8.1c0,3.37-0.43,6.05-1.28,8.03
					l-3.92,0.01c0.91-3.57,1.37-6.26,1.37-8.05C40.29,53.35,39.8,50.62,38.82,46.95z"/>
				<path id="Rectangle-Copy-16" class="st37" d="M58.12,47.46l3.92,0.07c0.64,1.24,1.07,3.82,1.28,7.76
					c-0.19,3.97-0.62,6.6-1.28,7.9h-3.92c0.91-3.51,1.37-6.14,1.37-7.9C59.49,53.53,59.03,50.92,58.12,47.46z"/>
				<path id="Rectangle-Copy-17" class="st37" d="M63.26,47.52l3.93,0.09c0.79,1.81,1.19,4.37,1.19,7.68s-0.43,5.94-1.28,7.88
					l-3.92,0.01c1.01-3.07,1.49-5.64,1.43-7.7C64.56,53.43,64.11,50.77,63.26,47.52z"/>
				<line id="Line-4" class="st45" x1="30.8" y1="58.63" x2="14.33" y2="57.97"/>
				<line id="Line-4-Copy" class="st45" x1="30.8" y1="57.44" x2="14.33" y2="56.78"/>
				<line id="Line-4-Copy-7" class="st46" x1="30.8" y1="56.25" x2="14.33" y2="55.59"/>
				<line id="Line-4-Copy-2" class="st45" x1="30.8" y1="55.65" x2="14.33" y2="54.99"/>
				<line id="Line-4-Copy-8" class="st46" x1="30.8" y1="54.46" x2="14.33" y2="53.8"/>
				<line id="Line-4-Copy-3" class="st45" x1="30.8" y1="53.86" x2="14.33" y2="53.2"/>
				<line id="Line-4-Copy-9" class="st46" x1="30.8" y1="52.67" x2="14.33" y2="52.01"/>
				<line id="Line-4-Copy-4" class="st45" x1="30.8" y1="51.34" x2="14.33" y2="50.96"/>
				<line id="Line-4-Copy-10" class="st46" x1="30.8" y1="50.14" x2="14.33" y2="49.77"/>
				<line id="Line-4-Copy-5" class="st45" x1="30.8" y1="61.02" x2="14.33" y2="60.35"/>
				<line id="Line-4-Copy-11" class="st46" x1="30.8" y1="59.83" x2="14.33" y2="59.16"/>
				<path id="Rectangle_4_" class="st11" d="M14.2,47.22l15.76-0.82c0.18-0.01,0.32,0.4,0.32,0.91s-0.14,0.92-0.32,0.92L14.2,48.28
					c-0.18,0-0.32-0.23-0.32-0.52S14.03,47.23,14.2,47.22z"/>
				<path id="Rectangle-Copy-14" class="st37" d="M14.2,61.16l15.76,0.82c0.18,0.01,0.32,0.28,0.32,0.61s-0.14,0.59-0.32,0.58
					L14.2,62.21c-0.18-0.01-0.32-0.26-0.32-0.55S14.03,61.14,14.2,61.16z"/>
				<path id="Rectangle_5_" class="st37" d="M29.38,46.79l1.53,0.01c0.85,2.02,1.28,4.75,1.28,8.18s-0.43,6.16-1.28,8.18l-1.53,0.01
					c0.91-3.64,1.37-6.37,1.37-8.2S30.29,50.43,29.38,46.79z"/>
				<g id="Group-22" transform="translate(0.000000, 0.236113)">
					<g id="Group-20">
						<rect id="Rectangle_6_" x="52.93" y="0.96" class="st2" width="28.61" height="11.03"/>
						<path id="Rectangle-Copy-13" class="st47" d="M56.06,11.98h27.12c0.25,0,0.45,0.2,0.45,0.45v0.11c0,0.25-0.2,0.45-0.45,0.45
							H56.06c-0.25,0-0.45-0.2-0.45-0.45v-0.11C55.61,12.18,55.81,11.98,56.06,11.98z"/>
						<line id="Line-3" class="st48" x1="53.38" y1="8.26" x2="81.69" y2="8.26"/>
						<line id="Line-3-Copy-2" class="st48" x1="53.38" y1="4.38" x2="81.69" y2="4.38"/>
						<line id="Line-3-Copy-6" class="st49" x1="53.38" y1="7.66" x2="81.69" y2="7.66"/>
						<line id="Line-3-Copy-3" class="st48" x1="53.38" y1="5.87" x2="81.69" y2="5.87"/>
						<line id="Line-3-Copy-7" class="st49" x1="53.38" y1="9.15" x2="81.69" y2="9.15"/>
						<line id="Line-3-Copy-4" class="st48" x1="53.38" y1="10.64" x2="81.69" y2="10.64"/>
						<line id="Line-3-Copy-5" class="st48" x1="53.38" y1="3.19" x2="81.69" y2="3.19"/>
						<line id="Line-3-Copy-8" class="st49" x1="53.38" y1="6.47" x2="81.69" y2="6.47"/>
						<path id="Path-2_1_" class="st50" d="M56.45,0c-2.34,3.95-2.91,7.81,0,12.82c-5.42,0-23.34,0-53.76,0
							C-0.9,8.54-0.9,4.27,2.69,0C12.16,0,39.37,0,56.45,0z"/>
						<path id="Path-2_2_" class="st51" d="M33.33,0c-3.39,5-2.19,9.35,0,12.82c-1.52,0-6.99,0-16.42,0
							c-2.36-4.27-2.36-8.54,0-12.82C19.56,0,28.54,0,33.33,0z"/>
						<path id="Path-2-Copy-4" class="st51" d="M56.57,0c-3.39,5-2.19,9.35,0,12.82c-1.52,0-2.03,0-1.52,0
							c-2.36-4.27-2.36-8.54,0-12.82C57.71,0,51.78,0,56.57,0z"/>
					</g>
					<path id="Rectangle_7_" class="st47" d="M56.06,0.06h27.12c0.25,0,0.45,0.2,0.45,0.45v0.11c0,0.25-0.2,0.45-0.45,0.45H56.06
						c-0.25,0-0.45-0.2-0.45-0.45V0.51C55.61,0.26,55.81,0.06,56.06,0.06z"/>
				</g>
				<g id="Group-22-Copy" transform="translate(4.172636, 32.723066)">
					<g id="Group-20_1_" transform="translate(0.175069, 0.061932)">
						<rect id="Rectangle_8_" x="55.47" y="1.09" class="st2" width="25.14" height="12.53"/>
						<path id="Rectangle-Copy-13_1_" class="st52" d="M58.28,13.62H82c0.25,0,0.45,0.2,0.45,0.45v0.12c0,0.25-0.2,0.45-0.45,0.45
							H58.28c-0.25,0-0.45-0.2-0.45-0.45v-0.12C57.83,13.82,58.03,13.62,58.28,13.62z"/>
						<line id="Line-3_1_" class="st53" x1="55.87" y1="9.38" x2="80.75" y2="9.38"/>
						<line id="Line-3-Copy-2_1_" class="st54" x1="55.87" y1="4.98" x2="80.75" y2="4.98"/>
						<line id="Line-3-Copy-6_1_" class="st54" x1="55.87" y1="8.71" x2="80.75" y2="8.71"/>
						<line id="Line-3-Copy-3_1_" class="st53" x1="55.87" y1="6.67" x2="80.75" y2="6.67"/>
						<line id="Line-3-Copy-7_1_" class="st54" x1="55.87" y1="10.4" x2="80.75" y2="10.4"/>
						<line id="Line-3-Copy-4_1_" class="st53" x1="55.87" y1="12.09" x2="80.75" y2="12.09"/>
						<line id="Line-3-Copy-5_1_" class="st54" x1="55.87" y1="3.63" x2="80.75" y2="3.63"/>
						<line id="Line-3-Copy-8_1_" class="st54" x1="55.87" y1="7.35" x2="80.75" y2="7.35"/>
						<path id="Path-2_3_" class="st55" d="M58.56,0c-2.06,4.48-2.56,8.88,0,14.56c-4.76,0-23.5,0-56.2,0
							C-0.79,9.71-0.79,4.85,2.36,0C10.68,0,43.56,0,58.56,0z"/>
						<path id="Path-2_4_" class="st52" d="M22.85,0c-2.05,5.69-1.33,10.63,0,14.56c-0.92,0-4.24,0-9.95,0
							c-1.43-4.85-1.43-9.71,0-14.56C14.51,0,19.95,0,22.85,0z"/>
						<path id="Path-2-Copy-8" class="st52" d="M37.16,0c-2.05,5.69-1.33,10.63,0,14.56c-0.92,0-4.24,0-9.95,0
							c-1.43-4.85-1.43-9.71,0-14.56C28.82,0,34.26,0,37.16,0z"/>
						<path id="Path-2-Copy-9" class="st52" d="M51.47,0c-2.05,5.69-1.33,10.63,0,14.56c-0.92,0-4.24,0-9.95,0
							c-1.43-4.85-1.43-9.71,0-14.56C43.12,0,48.56,0,51.47,0z"/>
						<path id="Path-2-Copy-4_1_" class="st52" d="M58.68,0c-2.98,5.69-1.93,10.63,0,14.56c-1.34,0-1.78,0-1.33,0
							c-2.08-4.85-2.08-9.71,0-14.56C59.68,0,54.47,0,58.68,0z"/>
					</g>
					<path id="Rectangle_9_" class="st52" d="M58.74,0.06h23.55c0.25,0,0.45,0.2,0.45,0.45v0.11c0,0.25-0.2,0.45-0.45,0.45H58.74
						c-0.25,0-0.45-0.2-0.45-0.45V0.51C58.29,0.26,58.49,0.06,58.74,0.06z"/>
				</g>
				<g id="Group-22_1_" transform="translate(11.921818, 13.350112)">
					<g id="Group-20_2_" transform="translate(0.175069, 0.061932)">
						<rect id="Rectangle_10_" x="55.37" y="1.41" class="st2" width="25.24" height="16.29"/>
						<path id="Rectangle-Copy-13_2_" class="st56" d="M58.18,17.7H82c0.25,0,0.45,0.2,0.45,0.45v0.43c0,0.25-0.2,0.45-0.45,0.45
							H58.18c-0.25,0-0.45-0.2-0.45-0.45v-0.43C57.74,17.9,57.94,17.7,58.18,17.7z"/>
						<line id="Line-3_2_" class="st57" x1="55.76" y1="12.2" x2="80.74" y2="12.2"/>
						<line id="Line-3-Copy-2_2_" class="st57" x1="55.76" y1="6.48" x2="80.74" y2="6.48"/>
						<line id="Line-3-Copy-6_2_" class="st57" x1="55.76" y1="11.32" x2="80.74" y2="11.32"/>
						<line id="Line-3-Copy-3_2_" class="st58" x1="55.76" y1="8.68" x2="80.74" y2="8.68"/>
						<line id="Line-3-Copy-7_2_" class="st58" x1="55.76" y1="13.52" x2="80.74" y2="13.52"/>
						<line id="Line-3-Copy-4_2_" class="st57" x1="55.76" y1="15.72" x2="80.74" y2="15.72"/>
						<line id="Line-3-Copy-5_2_" class="st58" x1="55.76" y1="4.71" x2="80.74" y2="4.71"/>
						<line id="Line-3-Copy-8_2_" class="st58" x1="55.76" y1="9.56" x2="80.74" y2="9.56"/>
						<path id="Path-2_5_" class="st59" d="M58.47,0c-2.07,5.83-2.57,11.54,0,18.93c-4.78,0-23.58,0-56.4,0
							C-0.46,13.22-0.46,6.91,2.08,0C10.43,0,43.41,0,58.47,0z"/>
						<path id="Path-2_6_" class="st56" d="M13.93,0c-2.99,7.39-1.93,13.82,0,18.93c-1.34,0-2.2,0-2.56,0
							C9.29,12.62,9.29,6.31,11.37,0C13.71,0,9.71,0,13.93,0z"/>
						<path id="Path-2-Copy-5" class="st56" d="M19,0c-2.99,7.39-1.93,13.82,0,18.93c-1.34,0-2.2,0-2.56,0
							c-2.08-6.31-2.08-12.62,0-18.93C18.78,0,14.77,0,19,0z"/>
						<path id="Path-2-Copy-6" class="st56" d="M46.72,0c-2.99,7.39-1.93,13.82,0,18.93c-1.34,0-2.2,0-2.56,0
							c-2.08-6.31-2.08-12.62,0-18.93C46.5,0,42.49,0,46.72,0z"/>
						<path id="Path-2-Copy-7" class="st56" d="M51.79,0c-2.99,7.39-1.93,13.82,0,18.93c-1.34,0-2.2,0-2.56,0
							c-2.08-6.31-2.08-12.62,0-18.93C51.57,0,47.56,0,51.79,0z"/>
						<path id="Path-2-Copy-4_2_" class="st56" d="M58.58,0c-2.99,7.39-1.93,13.82,0,18.93c-1.34,0-1.79,0-1.34,0
							c-2.08-6.31-2.08-12.62,0-18.93C59.59,0,54.36,0,58.58,0z"/>
					</g>
					<path id="Rectangle_11_" class="st56" d="M58.44,0.06h23.84c0.25,0,0.45,0.2,0.45,0.45v0.3c0,0.25-0.2,0.45-0.45,0.45H58.44
						C58.2,1.25,58,1.05,58,0.81v-0.3C58,0.26,58.2,0.06,58.44,0.06z"/>
				</g>
			</g>
			
				<g id="Group-19" transform="translate(490.955770, 209.520589) scale(-1, 1) rotate(-63.000000) translate(-490.955770, -209.520589) translate(485.955770, 205.520589)">
				<path id="Path_16_" class="st60" d="M2.14,1.1c0.12-0.08,0.26-0.11,0.4-0.08c0.14,0.03,0.25,0.12,0.32,0.24
					c0.35,0.6,0.93,1.8,2.13,2.66c1.64,1.18,3.54,1.13,3.7,1.77c0.09,0.37-0.32,0.58-1,0.79c-1.4,0.34-2.87,0.1-4.07-0.69
					C2.04,4.69,1.66,2.03,1.99,1.29C2.02,1.22,2.07,1.15,2.14,1.1z"/>
			</g>
			<g id="Group-24" transform="translate(235.000000, 295.000000)">
				<polygon id="Path-66" class="st61" points="8.34,51.65 8.34,54.68 85.33,54.68 111.57,54.68 111.57,51.65 87.75,51.65 78.77,0 
					71.93,0 8.34,34.72 				"/>
				<polygon id="Path-65" class="st34" points="0,0 76.49,0 83.03,51.65 8.34,51.65 				"/>
			</g>
			<path id="Path-81" class="st18" d="M364.37,346l17.42,23.11c-8.38,6.47-18.73,10.79-31.02,12.95s-18.34,3.24-18.12,3.24
				c-6.83-10.79-10.72-18.7-11.67-23.73C329.74,359.02,344.21,353.84,364.37,346z"/>
			<path id="Path-39_1_" class="st1" d="M332.73,296.82c-0.7,3.58-2.01,5.97-3.94,7.17c-2.89,1.8-11.97,4.9-11.97,8.15
				c0,2.16,0,6.12,0,11.88c0.2,1.42,0.03,2.5-0.5,3.24c-0.8,1.11-1.83,2.9-0.66,2.9c1.17,0,4.93-1.42,5.63-2.5
				c0.7-1.08,1.34,0.25,1.02,0.77c-0.32,0.51,2.99,1.94,4.06-0.4c1.06-2.34,4.97-4.55,5.67-5.21c0.7-0.66,4.06-1.6,5.34-4.13
				c0.86-1.69,1.09-4.06,0.71-7.12l5.03-3.52l2.28-1.34c1.12-4.87,1.56-7.74,1.32-8.59c-0.37-1.28-1.34-6.86-5.34-7.45
				s-7.87,0.73-8.25,0.73C332.86,291.37,332.73,293.19,332.73,296.82z"/>
			
				<g id="Group-7_1_" transform="translate(364.547798, 362.045612) rotate(62.000000) translate(-364.547798, -362.045612) translate(352.047798, 339.045612)">
				<path id="Rectangle_12_" class="st2" d="M2.94,0l18.13,0c1.62,0,2.94,1.32,2.94,2.94l0,39.2c0,1.62-1.32,2.94-2.94,2.94
					l-18.13,0C1.32,45.08,0,43.76,0,42.14l0-39.2C0,1.32,1.32,0,2.94,0z"/>
				<path id="Rectangle_13_" class="st3" d="M3.92,1.96l3.43,0c1.35,0,2.45,1.1,2.45,2.45l0,3.43c0,1.35-1.1,2.45-2.45,2.45H3.92
					c-1.35,0-2.45-1.1-2.45-2.45l0-3.43C1.47,3.06,2.57,1.96,3.92,1.96z"/>
				<circle id="Oval_3_" class="st4" cx="3.92" cy="4.41" r="1.47"/>
				<circle id="Oval-Copy_1_" class="st4" cx="3.92" cy="7.84" r="1.47"/>
				<circle id="Oval-Copy-2_1_" class="st4" cx="7.35" cy="5.88" r="1.47"/>
			</g>
			<g id="Group-24_1_" transform="translate(235.000000, 295.000000)">
				<polygon id="Path-66_1_" class="st61" points="8.34,51.65 8.34,54.68 85.33,54.68 111.57,54.68 111.57,51.65 87.75,51.65 
					78.77,0 71.93,0 8.34,34.72 				"/>
				<polygon id="Path-65_1_" class="st34" points="0,0 76.49,0 83.03,51.65 8.34,51.65 				"/>
			</g>
			<path id="Path-81_1_" class="st18" d="M364.37,346l17.42,23.11c-8.38,6.47-18.73,10.79-31.02,12.95s-18.34,3.24-18.12,3.24
				c-6.83-10.79-10.72-18.7-11.67-23.73C329.74,359.02,344.21,353.84,364.37,346z"/>
			<path id="Path_17_" class="st60" d="M330.51,216.19c-0.1-0.1-0.16-0.24-0.15-0.37c0.01-0.14,0.07-0.27,0.18-0.36
				c0.52-0.45,1.59-1.25,2.21-2.6c0.84-1.84,0.43-3.69,1.03-3.97c0.34-0.16,0.63,0.2,0.96,0.83c0.61,1.31,0.64,2.8,0.1,4.12
				c-0.79,1.77-3.33,2.65-4.12,2.47C330.64,216.29,330.57,216.25,330.51,216.19z"/>
			<path id="Path-37" class="st41" d="M335.3,187.07c-10.57,16.52-17.86,24.78-21.88,24.78s-4.98-2.16-2.9-6.48
				c-4.82,4.21-8.9,5.35-12.24,3.43c-3.34-1.92-5.19-3.06-5.53-3.43c4.57-2.1,6.41-3.45,5.53-4.05c-0.88-0.61-5.04-1.23-12.48-1.86
				c-1.28-2.08-0.97-3.37,0.92-3.87c2.85-0.76,52.47-25.5,55.24-23.21c2.77,2.29,5.89-2.26,5.89,3.45c0,3.8-0.33,6.39-1,7.76
				l5.4,8.46h-4.39c-0.27-4.76-1.48-7.58-3.66-8.46c-2.17-0.87-3.26,0.47-3.26,4.04l2.31,4.42l-1.28,2.71
				c-1.97-5.11-3.42-7.67-4.36-7.67S335.91,187.07,335.3,187.07z"/>
		</g>
	</g>
</g>
</svg>
