<svg width="684" height="358" viewBox="0 0 684 358" fill="none" xmlns="http://www.w3.org/2000/svg">
<path fill-rule="evenodd" clip-rule="evenodd" d="M6.29844 37.7998H678.598C681.578 37.7998 683.998 40.2198 683.998 43.1998C683.998 46.1798 681.578 48.5998 678.598 48.5998H6.29844C3.31844 48.5998 0.898438 46.1798 0.898438 43.1998C0.898438 40.2198 3.31844 37.7998 6.29844 37.7998Z" fill="#DDE3E9"/>
<path fill-rule="evenodd" clip-rule="evenodd" d="M6.29844 83.6997H678.598C681.578 83.6997 683.998 86.1197 683.998 89.0997C683.998 92.0797 681.578 94.4997 678.598 94.4997H6.29844C3.31844 94.4997 0.898438 92.0797 0.898438 89.0997C0.898438 86.1197 3.31844 83.6997 6.29844 83.6997Z" fill="#DDE3E9"/>
<path fill-rule="evenodd" clip-rule="evenodd" d="M6.29844 129.6H678.598C681.578 129.6 683.998 132.02 683.998 135C683.998 137.98 681.578 140.4 678.598 140.4H6.29844C3.31844 140.4 0.898438 137.98 0.898438 135C0.898438 132.02 3.31844 129.6 6.29844 129.6Z" fill="#DDE3E9"/>
<path fill-rule="evenodd" clip-rule="evenodd" d="M6.29844 175.5H678.598C681.578 175.5 683.998 177.92 683.998 180.9C683.998 183.88 681.578 186.3 678.598 186.3H6.29844C3.31844 186.3 0.898438 183.88 0.898438 180.9C0.898438 177.92 3.31844 175.5 6.29844 175.5Z" fill="#DDE3E9"/>
<path fill-rule="evenodd" clip-rule="evenodd" d="M6.29844 221.4H678.598C681.578 221.4 683.998 223.82 683.998 226.8C683.998 229.78 681.578 232.2 678.598 232.2H6.29844C3.31844 232.2 0.898438 229.78 0.898438 226.8C0.898438 223.82 3.31844 221.4 6.29844 221.4Z" fill="#DDE3E9"/>
<path fill-rule="evenodd" clip-rule="evenodd" d="M6.29844 267.3H678.598C681.578 267.3 683.998 269.72 683.998 272.7C683.998 275.68 681.578 278.1 678.598 278.1H6.29844C3.31844 278.1 0.898438 275.68 0.898438 272.7C0.898438 269.72 3.31844 267.3 6.29844 267.3Z" fill="#DDE3E9"/>
<path fill-rule="evenodd" clip-rule="evenodd" d="M6.29844 313.2H678.598C681.578 313.2 683.998 315.62 683.998 318.6C683.998 321.58 681.578 324 678.598 324H6.29844C3.31844 324 0.898438 321.58 0.898438 318.6C0.898438 315.62 3.31844 313.2 6.29844 313.2Z" fill="#DDE3E9"/>
<path fill-rule="evenodd" clip-rule="evenodd" d="M269.909 7.77977C269.799 7.66977 269.719 7.51977 269.579 7.44977C269.449 7.37977 269.219 7.32977 269.099 7.36977C268.219 7.66977 267.319 7.93977 266.499 8.31977C262.059 10.3898 257.649 12.4998 253.199 14.5498C252.049 15.0798 250.819 15.5098 249.579 15.9098C248.819 16.1598 247.569 15.7298 247.049 15.1498C246.539 14.5898 246.459 13.5398 247.029 13.1198C247.839 12.5198 248.689 11.9098 249.639 11.4498C253.529 9.54977 257.469 7.68977 261.399 5.82977C264.509 4.35977 267.629 2.89977 270.769 1.44977C271.589 1.06977 272.449 0.72977 273.319 0.42977C274.329 0.0897705 275.879 0.42977 276.419 1.10977C276.809 1.59977 277.179 2.11977 277.419 2.64977C280.409 9.33977 283.379 16.0398 286.319 22.7398C286.559 23.2798 286.629 23.8598 286.699 24.4298C286.779 25.0698 285.979 25.8098 285.059 26.0298C284.209 26.2398 282.699 26.0398 282.359 25.6198C281.859 25.0098 281.339 24.3898 281.029 23.7198C279.829 21.1398 278.709 18.5298 277.549 15.9398C276.999 14.7098 276.459 13.4798 275.859 12.2598C275.669 11.8598 275.299 11.3698 274.659 11.5098C274.189 11.6098 273.749 12.0098 273.489 12.3598C273.029 12.9898 272.689 13.6698 272.349 14.3398C266.109 26.7398 259.889 39.1398 253.649 51.5398C253.169 52.4798 252.639 53.4098 252.179 54.3598C251.359 56.0698 249.619 56.8098 247.319 56.9898C244.789 57.1898 242.279 57.0398 239.769 56.7598C237.079 56.4598 234.389 56.1598 231.679 55.9898C230.149 55.8898 228.549 55.9098 227.049 56.1198C223.589 56.5898 221.029 58.0698 219.439 60.3898C218.919 61.1498 218.539 61.9898 218.259 62.8198C214.519 73.8298 210.049 84.7098 207.209 95.8898C206.919 97.0198 206.539 98.1498 206.029 99.2298C204.999 101.41 204.069 103.59 203.619 105.89C203.459 106.72 202.949 107.54 202.419 108.3C201.689 109.37 198.759 109.42 197.899 108.38C197.399 107.78 196.899 107.12 196.739 106.44C196.069 103.74 194.919 101.15 193.639 98.5798C193.299 97.9098 193.099 97.1998 192.879 96.4998C191.449 91.8698 189.559 87.3498 187.479 82.8498C185.469 78.5098 184.049 74.0098 182.469 69.5598C179.799 62.0398 176.679 54.6298 173.439 47.2498C173.199 46.7098 172.899 46.1798 172.599 45.6598C172.409 45.3198 171.489 45.2298 171.119 45.5198C168.869 47.3098 166.449 48.9998 164.419 50.9098C157.099 57.8098 149.289 64.4298 142.769 71.7898C142.349 72.2598 141.789 72.6798 141.219 73.0498C140.109 73.7798 137.779 73.1898 137.449 72.0798C137.329 71.6798 137.259 71.1798 137.479 70.8298C138.139 69.7998 138.869 68.7698 139.749 67.8298C141.739 65.6998 143.779 63.5898 145.919 61.5498C149.969 57.6898 154.059 53.8398 158.249 50.0598C162.319 46.3898 166.519 42.7998 170.699 39.1998C172.889 37.3198 175.269 37.6498 176.309 40.0498C178.209 44.4298 180.029 48.8298 181.759 53.2498C185.209 62.0898 188.559 70.9498 191.989 79.7898C192.579 81.3098 193.399 82.7798 193.999 84.2898C195.349 87.7398 196.619 91.2098 197.939 94.6698C198.359 95.7698 198.819 96.8698 199.299 97.9598C199.449 98.2998 199.809 98.3898 200.189 98.2598C200.359 98.1998 200.589 98.1298 200.639 98.0198C201.009 97.2098 201.399 96.3998 201.669 95.5798C203.419 90.1198 205.069 84.6498 206.889 79.2098C208.909 73.2098 210.979 67.2198 213.219 61.2598C215.729 54.5898 223.539 50.9198 232.799 51.8998C236.259 52.2698 239.709 52.6898 243.169 53.0798C243.549 53.1198 243.939 53.1298 244.329 53.1498C245.939 53.2298 247.049 52.7998 247.659 51.7998C248.139 51.0098 248.549 50.1998 248.959 49.3998C254.299 38.8998 259.629 28.3998 264.959 17.8998C266.599 14.6698 267.789 11.3198 269.929 8.22977C269.949 8.08977 269.899 7.92977 269.909 7.77977Z" fill="#D84326"/>
<path d="M60.1973 343.9V336.12H65.2073V336.75H60.9273V339.56H64.8173V340.19H60.9273V343.9H60.1973Z" fill="#8D9AA9"/>
<path d="M66.4676 341.25C66.4676 341.55 66.5076 341.84 66.5876 342.11C66.6676 342.38 66.7876 342.61 66.9376 342.81C67.0876 343.01 67.2876 343.17 67.5276 343.28C67.7676 343.4 68.0376 343.46 68.3476 343.46C68.7676 343.46 69.1376 343.35 69.4376 343.13C69.7376 342.91 69.9376 342.59 70.0376 342.18H70.7576C70.6776 342.45 70.5776 342.69 70.4476 342.92C70.3176 343.15 70.1576 343.34 69.9576 343.51C69.7676 343.68 69.5376 343.81 69.2676 343.9C68.9976 343.99 68.6876 344.04 68.3376 344.04C67.8876 344.04 67.5076 343.96 67.1776 343.81C66.8576 343.66 66.5876 343.45 66.3776 343.19C66.1676 342.93 66.0176 342.62 65.9176 342.26C65.8176 341.9 65.7676 341.52 65.7676 341.11C65.7676 340.7 65.8276 340.31 65.9476 339.95C66.0676 339.59 66.2376 339.28 66.4576 339.01C66.6776 338.74 66.9476 338.53 67.2576 338.37C67.5776 338.22 67.9376 338.14 68.3376 338.14C69.1076 338.14 69.7176 338.4 70.1476 338.93C70.5876 339.46 70.8076 340.23 70.7976 341.24H66.4676V341.25ZM70.1176 340.71C70.1176 340.44 70.0776 340.18 70.0076 339.94C69.9376 339.7 69.8176 339.49 69.6776 339.31C69.5276 339.13 69.3476 338.99 69.1176 338.89C68.8876 338.79 68.6376 338.73 68.3476 338.73C68.0576 338.73 67.8076 338.78 67.5876 338.89C67.3676 339 67.1776 339.14 67.0276 339.32C66.8776 339.5 66.7476 339.71 66.6576 339.95C66.5676 340.19 66.5076 340.44 66.4776 340.71H70.1176Z" fill="#8D9AA9"/>
<path d="M72.6871 343.9H72.0371V336.12H72.6871V339.2C72.8971 338.85 73.1871 338.59 73.5471 338.42C73.9071 338.24 74.2871 338.16 74.6871 338.16C75.1071 338.16 75.4771 338.24 75.7971 338.4C76.1071 338.56 76.3671 338.78 76.5771 339.05C76.7871 339.32 76.9371 339.63 77.0371 340C77.1371 340.36 77.1871 340.73 77.1871 341.12C77.1871 341.53 77.1371 341.91 77.0471 342.28C76.9571 342.65 76.8071 342.95 76.5971 343.21C76.3871 343.47 76.1271 343.68 75.8171 343.83C75.4971 343.98 75.1171 344.06 74.6571 344.06C74.4771 344.06 74.2971 344.03 74.1071 343.98C73.9171 343.93 73.7371 343.86 73.5571 343.76C73.3771 343.67 73.2171 343.55 73.0671 343.41C72.9171 343.27 72.7971 343.11 72.7071 342.92H72.6871V343.9V343.9ZM72.6871 341.08C72.6871 341.42 72.7271 341.73 72.8071 342.02C72.8871 342.31 73.0071 342.56 73.1671 342.78C73.3271 342.99 73.5271 343.16 73.7571 343.28C73.9971 343.4 74.2671 343.46 74.5671 343.46C74.8371 343.46 75.0971 343.41 75.3271 343.31C75.5571 343.21 75.7571 343.07 75.9271 342.88C76.0971 342.69 76.2371 342.46 76.3371 342.19C76.4371 341.92 76.4871 341.61 76.4871 341.26C76.4971 340.91 76.4771 340.58 76.3971 340.27C76.3271 339.96 76.2071 339.7 76.0471 339.47C75.8871 339.24 75.6871 339.06 75.4371 338.92C75.1871 338.79 74.8971 338.72 74.5671 338.72C74.2671 338.72 74.0071 338.78 73.7771 338.91C73.5471 339.04 73.3471 339.21 73.1871 339.42C73.0271 339.63 72.8971 339.88 72.8171 340.17C72.7371 340.46 72.6871 340.76 72.6871 341.08Z" fill="#8D9AA9"/>
<path d="M119.637 343.9V336.12H120.757L123.307 342.98H123.327L125.837 336.12H126.947V343.9H126.217V336.97H126.197L123.647 343.9H122.957L120.397 336.97H120.377V343.9H119.637Z" fill="#8D9AA9"/>
<path d="M131.038 340.639C131.158 340.629 131.307 340.599 131.477 340.579C131.647 340.549 131.788 340.509 131.898 340.459C132.008 340.409 132.068 340.329 132.098 340.209C132.128 340.089 132.137 339.979 132.137 339.879C132.137 339.549 132.028 339.279 131.818 339.059C131.608 338.849 131.247 338.739 130.747 338.739C130.527 338.739 130.318 338.759 130.128 338.799C129.938 338.839 129.777 338.909 129.637 339.009C129.497 339.109 129.377 339.239 129.287 339.399C129.197 339.559 129.137 339.769 129.107 340.009H128.448C128.468 339.679 128.547 339.399 128.677 339.159C128.807 338.929 128.977 338.739 129.177 338.589C129.387 338.439 129.617 338.339 129.887 338.269C130.157 338.199 130.447 338.169 130.747 338.169C131.027 338.169 131.288 338.199 131.538 338.259C131.788 338.319 131.998 338.419 132.188 338.549C132.368 338.679 132.518 338.859 132.618 339.089C132.718 339.309 132.777 339.589 132.777 339.909V342.959C132.777 343.209 132.818 343.369 132.908 343.439C132.998 343.509 133.178 343.489 133.458 343.389V343.899C133.408 343.909 133.338 343.939 133.238 343.959C133.138 343.989 133.047 343.999 132.947 343.999C132.847 343.999 132.748 343.989 132.658 343.969C132.548 343.959 132.468 343.919 132.398 343.869C132.338 343.819 132.278 343.749 132.238 343.679C132.198 343.599 132.168 343.519 132.158 343.429C132.148 343.339 132.137 343.239 132.137 343.139C131.867 343.439 131.547 343.669 131.197 343.829C130.847 343.989 130.467 344.069 130.057 344.069C129.807 344.069 129.578 344.039 129.348 343.969C129.118 343.909 128.917 343.799 128.747 343.669C128.577 343.529 128.438 343.369 128.338 343.169C128.238 342.969 128.188 342.739 128.188 342.459C128.188 341.509 128.838 340.949 130.148 340.779L131.038 340.639ZM132.128 340.959C131.858 341.079 131.578 341.149 131.298 341.189C131.018 341.229 130.738 341.249 130.458 341.279C129.958 341.319 129.578 341.429 129.298 341.609C129.018 341.799 128.878 342.079 128.878 342.459C128.878 342.629 128.908 342.779 128.978 342.909C129.048 343.039 129.137 343.139 129.247 343.219C129.357 343.299 129.487 343.359 129.637 343.399C129.787 343.439 129.937 343.459 130.087 343.459C130.347 343.459 130.598 343.429 130.848 343.359C131.088 343.299 131.307 343.199 131.497 343.059C131.687 342.929 131.838 342.759 131.958 342.549C132.068 342.339 132.128 342.099 132.128 341.819V340.959V340.959Z" fill="#8D9AA9"/>
<path d="M135.037 343.899H134.387V338.309H135.037V339.359H135.057C135.237 338.909 135.467 338.599 135.757 338.429C136.037 338.249 136.417 338.169 136.887 338.169V338.869C136.517 338.859 136.217 338.919 135.977 339.039C135.737 339.159 135.547 339.329 135.407 339.539C135.267 339.749 135.167 339.999 135.117 340.279C135.067 340.559 135.037 340.859 135.037 341.169V343.899Z" fill="#8D9AA9"/>
<path d="M180.158 343.9L183.218 336.12H184.048L187.028 343.9H186.268L185.368 341.46H181.828L180.908 343.9H180.158ZM182.078 340.83H185.128L183.608 336.75L182.078 340.83Z" fill="#8D9AA9"/>
<path d="M188.597 346.099H187.947V338.299H188.597V339.279H188.617C188.707 339.099 188.827 338.939 188.977 338.789C189.127 338.649 189.287 338.529 189.467 338.429C189.647 338.339 189.827 338.259 190.017 338.209C190.207 338.159 190.387 338.129 190.567 338.129C191.017 338.129 191.407 338.209 191.727 338.359C192.047 338.509 192.307 338.719 192.507 338.979C192.717 339.239 192.857 339.549 192.957 339.909C193.047 340.269 193.097 340.659 193.097 341.069C193.097 341.459 193.047 341.829 192.947 342.189C192.847 342.549 192.697 342.859 192.487 343.129C192.277 343.399 192.027 343.619 191.707 343.779C191.397 343.939 191.027 344.019 190.597 344.019C190.197 344.019 189.817 343.929 189.457 343.759C189.097 343.579 188.807 343.319 188.597 342.979V346.099ZM188.597 341.119C188.597 341.439 188.637 341.739 188.727 342.019C188.817 342.309 188.937 342.549 189.097 342.769C189.257 342.979 189.457 343.149 189.687 343.279C189.917 343.409 190.187 343.469 190.477 343.469C190.807 343.469 191.097 343.399 191.347 343.269C191.597 343.139 191.797 342.959 191.957 342.729C192.117 342.499 192.227 342.229 192.307 341.929C192.377 341.619 192.407 341.289 192.397 340.939C192.397 340.589 192.347 340.279 192.247 340.009C192.147 339.739 192.017 339.509 191.837 339.319C191.657 339.129 191.467 338.989 191.237 338.889C191.007 338.789 190.757 338.739 190.477 338.739C190.177 338.739 189.907 338.799 189.667 338.919C189.427 339.039 189.227 339.209 189.077 339.419C188.917 339.629 188.797 339.879 188.717 340.179C188.637 340.469 188.597 340.789 188.597 341.119Z" fill="#8D9AA9"/>
<path d="M195.039 343.899H194.389V338.309H195.039V339.359H195.059C195.239 338.909 195.469 338.599 195.759 338.429C196.039 338.249 196.419 338.169 196.889 338.169V338.869C196.519 338.859 196.219 338.919 195.979 339.039C195.739 339.159 195.549 339.329 195.409 339.539C195.269 339.749 195.169 339.999 195.119 340.279C195.069 340.559 195.039 340.859 195.039 341.169V343.899Z" fill="#8D9AA9"/>
<path d="M242.037 343.9V336.12H243.157L245.707 342.98H245.727L248.237 336.12H249.347V343.9H248.617V336.97H248.597L246.047 343.9H245.357L242.797 336.97H242.777V343.9H242.037Z" fill="#8D9AA9"/>
<path d="M253.438 340.639C253.558 340.629 253.708 340.599 253.878 340.579C254.048 340.549 254.188 340.509 254.298 340.459C254.408 340.409 254.468 340.329 254.498 340.209C254.528 340.089 254.538 339.979 254.538 339.879C254.538 339.549 254.428 339.279 254.218 339.059C254.008 338.849 253.648 338.739 253.148 338.739C252.928 338.739 252.718 338.759 252.528 338.799C252.338 338.839 252.178 338.909 252.038 339.009C251.898 339.109 251.778 339.239 251.688 339.399C251.598 339.559 251.538 339.769 251.508 340.009H250.848C250.868 339.679 250.948 339.399 251.078 339.159C251.208 338.929 251.378 338.739 251.578 338.589C251.788 338.439 252.018 338.339 252.288 338.269C252.558 338.199 252.848 338.169 253.148 338.169C253.428 338.169 253.688 338.199 253.938 338.259C254.188 338.319 254.398 338.419 254.588 338.549C254.768 338.679 254.918 338.859 255.018 339.089C255.118 339.309 255.178 339.589 255.178 339.909V342.959C255.178 343.209 255.218 343.369 255.308 343.439C255.398 343.509 255.578 343.489 255.858 343.389V343.899C255.808 343.909 255.738 343.939 255.638 343.959C255.538 343.989 255.448 343.999 255.348 343.999C255.248 343.999 255.148 343.989 255.058 343.969C254.948 343.959 254.868 343.919 254.798 343.869C254.738 343.819 254.678 343.749 254.638 343.679C254.598 343.599 254.568 343.519 254.558 343.429C254.548 343.339 254.538 343.239 254.538 343.139C254.268 343.439 253.948 343.669 253.598 343.829C253.248 343.989 252.868 344.069 252.458 344.069C252.208 344.069 251.978 344.039 251.748 343.969C251.518 343.909 251.318 343.799 251.148 343.669C250.978 343.529 250.838 343.369 250.738 343.169C250.638 342.969 250.588 342.739 250.588 342.459C250.588 341.509 251.238 340.949 252.548 340.779L253.438 340.639ZM254.528 340.959C254.258 341.079 253.978 341.149 253.698 341.189C253.418 341.229 253.138 341.249 252.858 341.279C252.358 341.319 251.978 341.429 251.698 341.609C251.418 341.799 251.278 342.079 251.278 342.459C251.278 342.629 251.308 342.779 251.378 342.909C251.448 343.039 251.538 343.139 251.648 343.219C251.758 343.299 251.888 343.359 252.038 343.399C252.188 343.439 252.338 343.459 252.488 343.459C252.748 343.459 252.998 343.429 253.248 343.359C253.488 343.299 253.708 343.199 253.898 343.059C254.088 342.929 254.238 342.759 254.358 342.549C254.468 342.339 254.528 342.099 254.528 341.819V340.959V340.959Z" fill="#8D9AA9"/>
<path d="M256.718 345.41C256.808 345.42 256.888 345.44 256.978 345.45C257.068 345.46 257.158 345.47 257.258 345.47C257.438 345.47 257.588 345.41 257.698 345.3C257.818 345.18 257.908 345.05 257.988 344.88C258.068 344.72 258.128 344.55 258.178 344.37C258.228 344.19 258.288 344.04 258.348 343.92L256.178 338.29H256.898L258.688 343.1L260.478 338.29H261.178L259.098 343.81C258.968 344.16 258.848 344.48 258.728 344.76C258.608 345.04 258.488 345.28 258.348 345.48C258.208 345.68 258.068 345.83 257.908 345.93C257.748 346.03 257.558 346.09 257.328 346.09C257.208 346.09 257.098 346.08 256.998 346.07C256.898 346.06 256.798 346.04 256.708 346.02V345.41H256.718Z" fill="#8D9AA9"/>
<path d="M306.068 341.44C306.068 341.68 306.078 341.93 306.098 342.16C306.118 342.4 306.168 342.61 306.258 342.8C306.348 342.99 306.488 343.14 306.678 343.26C306.868 343.38 307.138 343.43 307.468 343.43C307.968 343.43 308.328 343.29 308.528 343C308.738 342.71 308.838 342.29 308.838 341.75V336.12H309.568V341.77C309.568 342.53 309.388 343.1 309.038 343.5C308.688 343.9 308.128 344.1 307.378 344.1C306.938 344.1 306.588 344.03 306.318 343.88C306.048 343.73 305.848 343.54 305.698 343.29C305.548 343.04 305.448 342.76 305.398 342.44C305.348 342.12 305.318 341.79 305.318 341.44H306.068Z" fill="#8D9AA9"/>
<path d="M314.958 338.31H315.608V343.9H314.958V343.12C314.868 343.22 314.778 343.33 314.668 343.43C314.558 343.54 314.438 343.64 314.298 343.73C314.158 343.82 313.998 343.9 313.808 343.96C313.618 344.02 313.408 344.05 313.158 344.05C312.788 344.05 312.468 344 312.218 343.89C311.968 343.79 311.758 343.64 311.608 343.45C311.458 343.26 311.338 343.04 311.278 342.8C311.208 342.55 311.178 342.28 311.178 341.99V338.31H311.828V341.98C311.828 342.46 311.938 342.83 312.158 343.09C312.378 343.35 312.748 343.47 313.258 343.47C313.528 343.47 313.768 343.42 313.978 343.31C314.188 343.2 314.368 343.06 314.508 342.87C314.648 342.68 314.768 342.46 314.838 342.2C314.918 341.94 314.958 341.66 314.958 341.35V338.31V338.31Z" fill="#8D9AA9"/>
<path d="M317.709 343.9H317.059V338.31H317.709V339.09C317.969 338.82 318.239 338.59 318.509 338.42C318.789 338.25 319.119 338.16 319.509 338.16C319.859 338.16 320.179 338.22 320.469 338.34C320.759 338.46 321.009 338.67 321.219 338.96C321.359 339.16 321.439 339.37 321.459 339.58C321.479 339.79 321.499 340.01 321.499 340.24V343.9H320.849V340.25C320.849 339.75 320.739 339.37 320.519 339.12C320.299 338.87 319.929 338.74 319.409 338.74C319.209 338.74 319.019 338.77 318.859 338.83C318.689 338.89 318.549 338.97 318.409 339.07C318.279 339.17 318.159 339.29 318.069 339.41C317.979 339.54 317.899 339.68 317.849 339.82C317.789 340 317.749 340.17 317.729 340.34C317.719 340.51 317.709 340.68 317.709 340.88V343.9V343.9Z" fill="#8D9AA9"/>
<path d="M365.469 341.44C365.469 341.68 365.479 341.93 365.499 342.16C365.519 342.4 365.569 342.61 365.659 342.8C365.749 342.99 365.889 343.14 366.079 343.26C366.269 343.38 366.539 343.43 366.869 343.43C367.369 343.43 367.729 343.29 367.929 343C368.129 342.71 368.239 342.29 368.239 341.75V336.12H368.969V341.77C368.969 342.53 368.789 343.1 368.439 343.5C368.089 343.9 367.529 344.1 366.779 344.1C366.339 344.1 365.989 344.03 365.719 343.88C365.449 343.73 365.249 343.54 365.099 343.29C364.949 343.04 364.849 342.76 364.799 342.44C364.749 342.12 364.729 341.79 364.729 341.44H365.469Z" fill="#8D9AA9"/>
<path d="M374.358 338.31H375.008V343.9H374.358V343.12C374.268 343.22 374.178 343.33 374.068 343.43C373.958 343.54 373.838 343.64 373.698 343.73C373.558 343.82 373.398 343.9 373.208 343.96C373.018 344.02 372.808 344.05 372.558 344.05C372.178 344.05 371.868 344 371.618 343.89C371.368 343.79 371.158 343.64 371.008 343.45C370.848 343.26 370.738 343.04 370.678 342.8C370.608 342.55 370.578 342.28 370.578 341.99V338.31H371.228V341.98C371.228 342.46 371.338 342.83 371.558 343.09C371.778 343.35 372.148 343.47 372.658 343.47C372.928 343.47 373.168 343.42 373.378 343.31C373.588 343.2 373.768 343.06 373.908 342.87C374.048 342.68 374.168 342.46 374.248 342.2C374.328 341.94 374.368 341.66 374.368 341.35V338.31H374.358Z" fill="#8D9AA9"/>
<path d="M376.559 343.9V336.12H377.209V343.9H376.559Z" fill="#8D9AA9"/>
<path d="M418.658 343.9L421.718 336.12H422.548L425.528 343.9H424.768L423.868 341.46H420.328L419.408 343.9H418.658ZM420.578 340.83H423.628L422.108 336.75L420.578 340.83Z" fill="#8D9AA9"/>
<path d="M430.159 338.31H430.809V343.9H430.159V343.12C430.069 343.22 429.979 343.33 429.869 343.43C429.759 343.54 429.639 343.64 429.499 343.73C429.359 343.82 429.199 343.9 429.009 343.96C428.819 344.02 428.609 344.05 428.359 344.05C427.989 344.05 427.669 344 427.419 343.89C427.169 343.79 426.959 343.64 426.809 343.45C426.659 343.26 426.539 343.04 426.479 342.8C426.409 342.55 426.379 342.28 426.379 341.99V338.31H427.029V341.98C427.029 342.46 427.139 342.83 427.359 343.09C427.579 343.35 427.949 343.47 428.459 343.47C428.729 343.47 428.969 343.42 429.179 343.31C429.389 343.2 429.569 343.06 429.719 342.87C429.859 342.68 429.969 342.46 430.049 342.2C430.129 341.94 430.169 341.66 430.169 341.35V338.31H430.159Z" fill="#8D9AA9"/>
<path d="M436.588 338.309H437.238V343.359C437.238 343.729 437.198 344.089 437.128 344.429C437.048 344.769 436.918 345.069 436.718 345.329C436.528 345.589 436.258 345.799 435.918 345.949C435.578 346.099 435.148 346.179 434.608 346.179C434.198 346.179 433.848 346.129 433.548 346.019C433.248 345.909 433.008 345.779 432.828 345.629C432.638 345.469 432.498 345.299 432.398 345.109C432.298 344.919 432.248 344.739 432.238 344.579H432.928C432.978 344.789 433.058 344.959 433.168 345.089C433.278 345.219 433.408 345.329 433.548 345.399C433.698 345.479 433.858 345.529 434.038 345.559C434.218 345.589 434.408 345.599 434.598 345.599C435.038 345.599 435.388 345.519 435.658 345.369C435.928 345.219 436.128 345.019 436.258 344.779C436.398 344.529 436.488 344.259 436.518 343.949C436.548 343.639 436.578 343.319 436.568 342.999C436.358 343.349 436.068 343.609 435.708 343.779C435.348 343.959 434.968 344.039 434.568 344.039C434.148 344.039 433.778 343.959 433.458 343.799C433.148 343.639 432.888 343.419 432.678 343.149C432.468 342.879 432.318 342.569 432.218 342.209C432.118 341.849 432.068 341.479 432.068 341.089C432.068 340.679 432.118 340.289 432.208 339.929C432.298 339.569 432.448 339.259 432.658 338.999C432.868 338.739 433.128 338.529 433.438 338.379C433.748 338.229 434.138 338.149 434.598 338.149C434.778 338.149 434.958 338.169 435.148 338.229C435.338 338.279 435.518 338.349 435.698 338.449C435.878 338.539 436.038 338.659 436.188 338.809C436.338 338.949 436.458 339.119 436.548 339.299H436.568V338.309H436.588ZM436.588 341.119C436.588 340.779 436.548 340.469 436.468 340.169C436.388 339.879 436.268 339.629 436.108 339.409C435.948 339.199 435.748 339.029 435.518 338.909C435.278 338.789 435.008 338.729 434.708 338.729C434.438 338.729 434.178 338.779 433.948 338.879C433.718 338.979 433.518 339.119 433.348 339.309C433.178 339.499 433.038 339.729 432.938 339.999C432.838 340.269 432.788 340.579 432.788 340.929C432.778 341.279 432.798 341.609 432.878 341.919C432.948 342.229 433.068 342.489 433.228 342.719C433.388 342.949 433.588 343.129 433.828 343.259C434.078 343.389 434.368 343.459 434.698 343.459C434.998 343.459 435.258 343.399 435.488 343.269C435.718 343.139 435.918 342.979 436.078 342.759C436.238 342.549 436.368 342.299 436.448 342.009C436.548 341.739 436.588 341.439 436.588 341.119Z" fill="#8D9AA9"/>
<path d="M480.878 341.58C480.908 341.93 480.988 342.22 481.108 342.46C481.228 342.7 481.398 342.9 481.598 343.05C481.798 343.2 482.028 343.31 482.288 343.38C482.548 343.45 482.828 343.48 483.118 343.48C483.468 343.48 483.758 343.44 484.018 343.35C484.278 343.26 484.478 343.15 484.638 343C484.798 342.85 484.918 342.68 484.988 342.49C485.068 342.3 485.098 342.09 485.098 341.87C485.098 341.57 485.028 341.32 484.888 341.14C484.748 340.96 484.578 340.8 484.358 340.68C484.138 340.56 483.888 340.47 483.598 340.39C483.308 340.32 483.018 340.25 482.718 340.18C482.418 340.11 482.128 340.03 481.838 339.94C481.558 339.85 481.298 339.72 481.078 339.56C480.858 339.4 480.678 339.2 480.538 338.95C480.398 338.7 480.328 338.39 480.328 338.01C480.328 337.74 480.388 337.48 480.498 337.23C480.608 336.98 480.778 336.76 480.998 336.56C481.218 336.36 481.498 336.21 481.828 336.1C482.158 335.98 482.538 335.93 482.978 335.93C483.418 335.93 483.798 335.99 484.128 336.11C484.458 336.23 484.728 336.4 484.948 336.61C485.168 336.82 485.328 337.07 485.438 337.35C485.548 337.63 485.598 337.93 485.598 338.25H484.898C484.898 337.96 484.848 337.7 484.738 337.48C484.628 337.26 484.488 337.09 484.308 336.95C484.128 336.81 483.928 336.71 483.688 336.65C483.458 336.59 483.218 336.55 482.978 336.55C482.598 336.55 482.288 336.6 482.028 336.71C481.768 336.82 481.568 336.95 481.418 337.12C481.268 337.29 481.158 337.47 481.108 337.67C481.048 337.87 481.038 338.07 481.078 338.27C481.118 338.52 481.218 338.72 481.378 338.87C481.538 339.02 481.728 339.15 481.958 339.24C482.188 339.34 482.438 339.42 482.718 339.48C482.998 339.54 483.278 339.61 483.568 339.67C483.858 339.73 484.138 339.82 484.408 339.91C484.678 340 484.918 340.13 485.128 340.29C485.338 340.45 485.508 340.65 485.628 340.9C485.748 341.15 485.818 341.46 485.818 341.83C485.818 342.55 485.568 343.11 485.068 343.5C484.568 343.9 483.868 344.09 482.978 344.09C482.578 344.09 482.198 344.04 481.858 343.93C481.508 343.83 481.218 343.67 480.958 343.45C480.708 343.24 480.508 342.98 480.368 342.66C480.228 342.34 480.158 341.98 480.158 341.55H480.878V341.58Z" fill="#8D9AA9"/>
<path d="M487.368 341.25C487.368 341.55 487.408 341.84 487.488 342.11C487.568 342.38 487.688 342.61 487.838 342.81C487.988 343.01 488.188 343.17 488.428 343.28C488.668 343.4 488.938 343.46 489.248 343.46C489.668 343.46 490.038 343.35 490.338 343.13C490.638 342.91 490.838 342.59 490.938 342.18H491.658C491.578 342.45 491.478 342.69 491.348 342.92C491.218 343.15 491.058 343.34 490.858 343.51C490.668 343.68 490.438 343.81 490.168 343.9C489.898 343.99 489.588 344.04 489.238 344.04C488.788 344.04 488.408 343.96 488.078 343.81C487.758 343.66 487.488 343.45 487.278 343.19C487.068 342.93 486.918 342.62 486.818 342.26C486.718 341.9 486.668 341.52 486.668 341.11C486.668 340.7 486.728 340.31 486.848 339.95C486.968 339.59 487.138 339.28 487.358 339.01C487.578 338.74 487.848 338.53 488.158 338.37C488.478 338.22 488.838 338.14 489.238 338.14C490.008 338.14 490.618 338.4 491.048 338.93C491.478 339.46 491.708 340.23 491.698 341.24H487.368V341.25ZM491.018 340.71C491.018 340.44 490.978 340.18 490.908 339.94C490.828 339.7 490.718 339.49 490.578 339.31C490.428 339.13 490.248 338.99 490.018 338.89C489.798 338.79 489.538 338.73 489.248 338.73C488.958 338.73 488.708 338.78 488.488 338.89C488.268 339 488.078 339.14 487.928 339.32C487.778 339.5 487.648 339.71 487.558 339.95C487.468 340.19 487.398 340.44 487.378 340.71H491.018Z" fill="#8D9AA9"/>
<path d="M493.587 346.1H492.938V338.3H493.587V339.28H493.607C493.697 339.1 493.817 338.94 493.967 338.79C494.117 338.65 494.277 338.53 494.457 338.43C494.637 338.33 494.817 338.26 495.007 338.21C495.197 338.16 495.377 338.13 495.557 338.13C496.007 338.13 496.397 338.21 496.717 338.36C497.037 338.51 497.297 338.72 497.497 338.98C497.697 339.24 497.847 339.55 497.947 339.91C498.037 340.27 498.087 340.66 498.087 341.07C498.087 341.46 498.038 341.83 497.938 342.19C497.837 342.55 497.687 342.86 497.477 343.13C497.267 343.4 497.017 343.62 496.697 343.78C496.387 343.94 496.017 344.02 495.587 344.02C495.187 344.02 494.807 343.93 494.447 343.76C494.087 343.58 493.797 343.32 493.587 342.98V346.1V346.1ZM493.587 341.12C493.587 341.44 493.627 341.74 493.717 342.02C493.807 342.31 493.927 342.55 494.087 342.77C494.247 342.98 494.447 343.15 494.677 343.28C494.907 343.41 495.177 343.47 495.467 343.47C495.797 343.47 496.087 343.4 496.337 343.27C496.587 343.14 496.787 342.96 496.947 342.73C497.107 342.5 497.217 342.23 497.297 341.93C497.367 341.62 497.397 341.29 497.387 340.94C497.387 340.59 497.337 340.28 497.237 340.01C497.137 339.74 497.007 339.51 496.827 339.32C496.647 339.13 496.447 338.99 496.217 338.89C495.987 338.79 495.737 338.74 495.457 338.74C495.157 338.74 494.887 338.8 494.647 338.92C494.407 339.04 494.207 339.21 494.057 339.42C493.897 339.63 493.777 339.88 493.697 340.18C493.627 340.47 493.587 340.79 493.587 341.12Z" fill="#8D9AA9"/>
<path d="M541.467 340.02C541.467 339.45 541.547 338.92 541.697 338.42C541.847 337.92 542.077 337.49 542.387 337.12C542.687 336.75 543.067 336.46 543.507 336.24C543.947 336.02 544.467 335.92 545.047 335.92C545.647 335.92 546.177 336.03 546.637 336.24C547.097 336.45 547.477 336.74 547.777 337.12C548.087 337.49 548.317 337.93 548.467 338.43C548.617 338.93 548.697 339.47 548.697 340.03C548.697 340.59 548.617 341.12 548.467 341.61C548.307 342.1 548.087 342.53 547.777 342.91C547.477 343.28 547.097 343.57 546.647 343.79C546.197 344.01 545.667 344.11 545.067 344.11C544.467 344.11 543.947 344 543.487 343.79C543.037 343.57 542.657 343.28 542.357 342.91C542.057 342.54 541.827 342.11 541.677 341.61C541.527 341.11 541.467 340.58 541.467 340.02ZM545.097 343.48C545.597 343.48 546.037 343.38 546.397 343.19C546.757 343 547.057 342.74 547.297 342.43C547.527 342.11 547.707 341.75 547.817 341.33C547.927 340.91 547.987 340.48 547.987 340.02C547.987 339.48 547.917 339 547.787 338.57C547.657 338.14 547.457 337.78 547.207 337.47C546.957 337.17 546.647 336.94 546.287 336.78C545.927 336.62 545.527 336.54 545.077 336.54C544.577 336.54 544.147 336.64 543.787 336.83C543.427 337.02 543.127 337.28 542.887 337.6C542.647 337.92 542.477 338.29 542.367 338.71C542.257 339.13 542.197 339.56 542.197 340.02C542.197 340.48 542.257 340.92 542.367 341.34C542.477 341.76 542.647 342.13 542.887 342.44C543.117 342.76 543.417 343.01 543.787 343.2C544.147 343.39 544.587 343.48 545.097 343.48Z" fill="#8D9AA9"/>
<path d="M553.937 340.07C553.817 339.65 553.627 339.33 553.347 339.09C553.067 338.86 552.707 338.74 552.277 338.74C551.947 338.74 551.657 338.81 551.427 338.95C551.187 339.09 550.997 339.27 550.847 339.49C550.697 339.72 550.587 339.97 550.517 340.26C550.447 340.54 550.407 340.83 550.407 341.12C550.407 341.41 550.437 341.7 550.507 341.98C550.577 342.26 550.687 342.51 550.837 342.74C550.987 342.96 551.187 343.14 551.417 343.27C551.657 343.4 551.947 343.47 552.277 343.47C552.757 343.47 553.147 343.34 553.437 343.07C553.727 342.8 553.917 342.44 553.997 341.97H554.687C554.627 342.28 554.537 342.56 554.407 342.82C554.277 343.07 554.117 343.29 553.917 343.48C553.717 343.66 553.487 343.81 553.207 343.91C552.927 344.01 552.617 344.06 552.267 344.06C551.817 344.06 551.437 343.98 551.107 343.83C550.787 343.68 550.517 343.47 550.307 343.21C550.097 342.95 549.947 342.64 549.847 342.28C549.747 341.92 549.697 341.53 549.697 341.12C549.697 340.73 549.757 340.36 549.867 340C549.977 339.64 550.147 339.33 550.357 339.05C550.577 338.78 550.837 338.56 551.157 338.4C551.477 338.24 551.847 338.16 552.267 338.16C552.917 338.16 553.437 338.31 553.837 338.62C554.237 338.93 554.487 339.41 554.587 340.07H553.937V340.07Z" fill="#8D9AA9"/>
<path d="M557.827 343.92C557.747 343.93 557.647 343.96 557.517 344C557.387 344.04 557.247 344.05 557.087 344.05C556.767 344.05 556.517 343.97 556.347 343.81C556.177 343.65 556.097 343.36 556.097 342.94V338.85H555.307V338.31H556.097V336.76H556.747V338.31H557.797V338.85H556.747V342.68C556.747 342.82 556.747 342.94 556.757 343.04C556.767 343.14 556.787 343.22 556.817 343.29C556.857 343.35 556.907 343.4 556.987 343.43C557.067 343.46 557.167 343.47 557.307 343.47C557.397 343.47 557.477 343.46 557.567 343.45C557.657 343.44 557.747 343.42 557.827 343.4V343.92Z" fill="#8D9AA9"/>
<path d="M603.707 337.12H603.687V343.9H602.957V336.12H603.787L608.277 342.91H608.297V336.12H609.027V343.9H608.177L603.707 337.12Z" fill="#8D9AA9"/>
<path d="M612.787 344.05C612.427 344.04 612.087 343.98 611.777 343.86C611.467 343.74 611.187 343.55 610.957 343.31C610.727 343.06 610.537 342.76 610.397 342.39C610.257 342.02 610.188 341.59 610.188 341.1C610.188 340.69 610.237 340.31 610.347 339.95C610.457 339.59 610.617 339.28 610.837 339.02C611.057 338.75 611.327 338.54 611.647 338.39C611.967 338.24 612.347 338.16 612.777 338.16C613.217 338.16 613.597 338.24 613.917 338.39C614.237 338.55 614.507 338.75 614.727 339.02C614.947 339.28 615.107 339.59 615.207 339.95C615.307 340.31 615.367 340.7 615.367 341.11C615.367 341.56 615.307 341.96 615.188 342.32C615.068 342.68 614.887 342.99 614.667 343.25C614.437 343.51 614.167 343.71 613.847 343.85C613.527 343.99 613.177 344.05 612.787 344.05ZM614.688 341.1C614.688 340.77 614.648 340.46 614.578 340.17C614.508 339.88 614.397 339.63 614.247 339.42C614.097 339.21 613.897 339.04 613.667 338.92C613.427 338.8 613.137 338.74 612.787 338.74C612.447 338.74 612.157 338.81 611.917 338.94C611.677 339.07 611.478 339.25 611.328 339.47C611.178 339.69 611.067 339.94 610.997 340.23C610.927 340.52 610.888 340.81 610.888 341.11C610.888 341.46 610.928 341.77 611.008 342.07C611.088 342.36 611.207 342.61 611.367 342.82C611.527 343.03 611.727 343.19 611.957 343.31C612.197 343.43 612.467 343.48 612.777 343.48C613.117 343.48 613.407 343.41 613.647 343.28C613.887 343.15 614.087 342.97 614.237 342.75C614.387 342.53 614.498 342.27 614.568 341.99C614.658 341.7 614.688 341.41 614.688 341.1Z" fill="#8D9AA9"/>
<path d="M615.867 338.31H616.567L618.377 343.11L620.187 338.31H620.887L618.717 343.9H617.997L615.867 338.31Z" fill="#8D9AA9"/>
<path d="M664.168 343.9V336.12H666.828C667.048 336.12 667.258 336.13 667.468 336.14C667.678 336.15 667.878 336.18 668.088 336.22C668.288 336.26 668.488 336.32 668.678 336.4C668.868 336.48 669.058 336.58 669.238 336.71C669.498 336.9 669.708 337.13 669.878 337.4C670.048 337.67 670.178 337.95 670.268 338.25C670.368 338.55 670.438 338.85 670.478 339.16C670.518 339.47 670.538 339.75 670.538 340.01C670.538 340.27 670.518 340.53 670.488 340.8C670.458 341.07 670.408 341.33 670.328 341.58C670.258 341.84 670.158 342.08 670.038 342.31C669.918 342.54 669.768 342.76 669.588 342.95C669.408 343.15 669.208 343.31 668.998 343.44C668.788 343.56 668.558 343.66 668.328 343.73C668.098 343.8 667.848 343.85 667.598 343.87C667.348 343.9 667.088 343.91 666.828 343.91H664.168V343.9ZM664.908 343.27H666.668C666.998 343.27 667.308 343.25 667.598 343.21C667.888 343.17 668.188 343.07 668.488 342.91C668.748 342.78 668.958 342.6 669.128 342.38C669.298 342.16 669.428 341.91 669.518 341.65C669.618 341.39 669.688 341.11 669.728 340.82C669.768 340.53 669.788 340.25 669.788 339.99C669.788 339.71 669.768 339.42 669.738 339.13C669.698 338.84 669.638 338.56 669.528 338.3C669.428 338.04 669.288 337.8 669.118 337.58C668.948 337.36 668.718 337.18 668.448 337.03C668.218 336.91 667.948 336.83 667.628 336.79C667.308 336.75 666.988 336.74 666.668 336.74H664.908V343.27V343.27Z" fill="#8D9AA9"/>
<path d="M672.169 341.25C672.169 341.55 672.209 341.84 672.289 342.11C672.369 342.38 672.489 342.61 672.639 342.81C672.789 343.01 672.989 343.17 673.229 343.28C673.469 343.4 673.739 343.46 674.049 343.46C674.469 343.46 674.839 343.35 675.139 343.13C675.439 342.91 675.639 342.59 675.739 342.18H676.459C676.379 342.45 676.279 342.69 676.149 342.92C676.019 343.15 675.859 343.34 675.659 343.51C675.469 343.68 675.239 343.81 674.969 343.9C674.699 343.99 674.389 344.04 674.039 344.04C673.589 344.04 673.209 343.96 672.879 343.81C672.559 343.66 672.289 343.45 672.079 343.19C671.869 342.93 671.719 342.62 671.619 342.26C671.519 341.9 671.469 341.52 671.469 341.11C671.469 340.7 671.529 340.31 671.649 339.95C671.769 339.59 671.939 339.28 672.159 339.01C672.379 338.74 672.649 338.53 672.959 338.37C673.279 338.22 673.639 338.14 674.039 338.14C674.809 338.14 675.419 338.4 675.849 338.93C676.279 339.46 676.509 340.23 676.499 341.24H672.169V341.25ZM675.819 340.71C675.819 340.44 675.779 340.18 675.709 339.94C675.629 339.7 675.519 339.49 675.379 339.31C675.229 339.13 675.049 338.99 674.819 338.89C674.599 338.79 674.339 338.73 674.049 338.73C673.759 338.73 673.509 338.78 673.289 338.89C673.069 339 672.879 339.14 672.729 339.32C672.579 339.5 672.449 339.71 672.359 339.95C672.269 340.19 672.199 340.44 672.179 340.71H675.819Z" fill="#8D9AA9"/>
<path d="M681.629 340.07C681.509 339.65 681.319 339.33 681.039 339.09C680.759 338.86 680.399 338.74 679.969 338.74C679.639 338.74 679.349 338.81 679.119 338.95C678.889 339.09 678.689 339.27 678.539 339.49C678.389 339.72 678.279 339.97 678.209 340.26C678.139 340.54 678.099 340.83 678.099 341.12C678.099 341.41 678.129 341.7 678.199 341.98C678.269 342.26 678.379 342.51 678.529 342.74C678.679 342.96 678.879 343.14 679.109 343.27C679.349 343.4 679.639 343.47 679.969 343.47C680.449 343.47 680.839 343.34 681.129 343.07C681.419 342.8 681.609 342.44 681.689 341.97H682.379C682.319 342.28 682.229 342.56 682.099 342.82C681.969 343.07 681.809 343.29 681.609 343.48C681.409 343.67 681.179 343.81 680.899 343.91C680.629 344.01 680.309 344.06 679.959 344.06C679.509 344.06 679.129 343.98 678.799 343.83C678.479 343.68 678.209 343.47 677.999 343.21C677.789 342.95 677.639 342.64 677.539 342.28C677.439 341.92 677.389 341.53 677.389 341.12C677.389 340.73 677.449 340.36 677.559 340C677.669 339.64 677.839 339.33 678.049 339.05C678.269 338.78 678.529 338.56 678.849 338.4C679.169 338.24 679.539 338.16 679.959 338.16C680.609 338.16 681.129 338.31 681.529 338.62C681.929 338.93 682.179 339.41 682.279 340.07H681.629V340.07Z" fill="#8D9AA9"/>
<path d="M2.76758 341.44C2.76758 341.68 2.77758 341.93 2.79758 342.16C2.81758 342.4 2.86758 342.61 2.95758 342.8C3.04758 342.99 3.18758 343.14 3.37758 343.26C3.56758 343.38 3.83758 343.43 4.16758 343.43C4.66758 343.43 5.02758 343.29 5.22758 343C5.43758 342.71 5.53758 342.29 5.53758 341.75V336.12H6.26758V341.77C6.26758 342.53 6.08758 343.1 5.73758 343.5C5.38758 343.9 4.82758 344.1 4.07758 344.1C3.63758 344.1 3.28758 344.03 3.01758 343.88C2.74758 343.73 2.54758 343.54 2.39758 343.29C2.24758 343.04 2.14758 342.76 2.09758 342.44C2.04758 342.12 2.01758 341.79 2.01758 341.44H2.76758Z" fill="#8D9AA9"/>
<path d="M10.5473 340.639C10.6673 340.629 10.8173 340.599 10.9873 340.579C11.1573 340.549 11.2973 340.509 11.4073 340.459C11.5173 340.409 11.5773 340.329 11.6073 340.209C11.6373 340.089 11.6473 339.979 11.6473 339.879C11.6473 339.549 11.5373 339.279 11.3273 339.059C11.1173 338.849 10.7573 338.739 10.2573 338.739C10.0373 338.739 9.82727 338.759 9.63727 338.799C9.44727 338.839 9.28727 338.909 9.14727 339.009C9.00727 339.109 8.88727 339.239 8.79727 339.399C8.70727 339.559 8.64727 339.769 8.61727 340.009H7.95727C7.97727 339.679 8.05727 339.399 8.18727 339.159C8.31727 338.929 8.48727 338.739 8.68727 338.589C8.89727 338.439 9.12727 338.339 9.39727 338.269C9.66727 338.199 9.95727 338.169 10.2573 338.169C10.5373 338.169 10.7973 338.199 11.0473 338.259C11.2973 338.319 11.5073 338.419 11.6973 338.549C11.8773 338.679 12.0273 338.859 12.1273 339.089C12.2273 339.309 12.2873 339.589 12.2873 339.909V342.959C12.2873 343.209 12.3273 343.369 12.4173 343.439C12.5073 343.509 12.6873 343.489 12.9673 343.389V343.899C12.9173 343.909 12.8473 343.939 12.7473 343.959C12.6473 343.989 12.5573 343.999 12.4573 343.999C12.3573 343.999 12.2573 343.989 12.1673 343.969C12.0573 343.959 11.9773 343.919 11.9073 343.869C11.8473 343.819 11.7873 343.749 11.7473 343.679C11.7073 343.599 11.6773 343.519 11.6673 343.429C11.6573 343.339 11.6473 343.239 11.6473 343.139C11.3773 343.439 11.0573 343.669 10.7073 343.829C10.3573 343.989 9.97727 344.069 9.56727 344.069C9.31727 344.069 9.08727 344.039 8.85727 343.969C8.62727 343.909 8.42727 343.799 8.25727 343.669C8.08727 343.529 7.94727 343.369 7.84727 343.169C7.74727 342.969 7.69727 342.739 7.69727 342.459C7.69727 341.509 8.34727 340.949 9.65727 340.779L10.5473 340.639ZM11.6373 340.959C11.3673 341.079 11.0873 341.149 10.8073 341.189C10.5273 341.229 10.2473 341.249 9.96727 341.279C9.46727 341.319 9.08727 341.429 8.80727 341.609C8.52727 341.799 8.38727 342.079 8.38727 342.459C8.38727 342.629 8.41727 342.779 8.48727 342.909C8.55727 343.039 8.64727 343.139 8.75727 343.219C8.86727 343.299 8.99727 343.359 9.14727 343.399C9.29727 343.439 9.44727 343.459 9.59727 343.459C9.85727 343.459 10.1073 343.429 10.3573 343.359C10.5973 343.299 10.8173 343.199 11.0073 343.059C11.1973 342.929 11.3473 342.759 11.4673 342.549C11.5773 342.339 11.6373 342.099 11.6373 341.819V340.959Z" fill="#8D9AA9"/>
<path d="M14.6285 343.9H13.9785V338.31H14.6285V339.09C14.8885 338.82 15.1585 338.59 15.4285 338.42C15.7085 338.25 16.0385 338.16 16.4285 338.16C16.7785 338.16 17.0985 338.22 17.3885 338.34C17.6785 338.46 17.9285 338.67 18.1385 338.96C18.2785 339.16 18.3585 339.37 18.3785 339.58C18.3985 339.79 18.4185 340.01 18.4185 340.24V343.9H17.7685V340.25C17.7685 339.75 17.6585 339.37 17.4385 339.12C17.2185 338.87 16.8485 338.74 16.3285 338.74C16.1285 338.74 15.9385 338.77 15.7785 338.83C15.6085 338.89 15.4685 338.97 15.3285 339.07C15.1985 339.17 15.0785 339.29 14.9885 339.41C14.8985 339.54 14.8185 339.68 14.7685 339.82C14.7085 340 14.6685 340.17 14.6485 340.34C14.6385 340.51 14.6285 340.68 14.6285 340.88V343.9V343.9Z" fill="#8D9AA9"/>
<path fill-rule="evenodd" clip-rule="evenodd" d="M329.818 159.3C331.308 159.3 332.518 160.51 332.518 162V180.9C332.518 182.39 331.308 183.6 329.818 183.6H269.518C268.028 183.6 266.818 182.39 266.818 180.9V173.28C266.808 173.27 266.808 173.27 266.798 173.26L263.958 170.7C263.618 170.39 263.618 169.89 263.958 169.58L266.798 167.02L266.818 167V161.98C266.818 160.49 268.028 159.28 269.518 159.28H329.818V159.3Z" fill="#304154" fill-opacity="0.85"/>
<path d="M275.057 179.33H274.557V178.51C273.947 178.47 273.437 178.3 273.037 178C272.637 177.7 272.377 177.24 272.247 176.64C272.237 176.55 272.217 176.46 272.217 176.37C272.207 176.28 272.207 176.2 272.197 176.11H272.897C272.897 176.36 272.937 176.58 273.017 176.8C273.097 177.01 273.207 177.2 273.357 177.36C273.507 177.52 273.677 177.65 273.877 177.75C274.077 177.85 274.297 177.91 274.547 177.92V174.71C274.247 174.64 273.977 174.55 273.707 174.46C273.447 174.36 273.217 174.24 273.017 174.08C272.827 173.93 272.667 173.73 272.557 173.5C272.447 173.27 272.387 172.99 272.387 172.65C272.387 172.35 272.447 172.07 272.557 171.83C272.667 171.58 272.827 171.38 273.027 171.2C273.227 171.03 273.457 170.9 273.717 170.81C273.977 170.72 274.257 170.68 274.547 170.69V170.03H275.047V170.69C275.337 170.69 275.617 170.73 275.867 170.81C276.117 170.89 276.337 171.02 276.527 171.18C276.717 171.34 276.857 171.54 276.967 171.78C277.077 172.02 277.137 172.29 277.147 172.59H276.447C276.447 172.4 276.407 172.22 276.337 172.05C276.267 171.88 276.157 171.75 276.037 171.63C275.907 171.52 275.767 171.42 275.597 171.36C275.427 171.3 275.247 171.26 275.047 171.26V174.13C275.397 174.22 275.717 174.31 276.007 174.41C276.297 174.51 276.537 174.64 276.737 174.81C276.937 174.98 277.097 175.19 277.207 175.45C277.317 175.71 277.377 176.05 277.377 176.46C277.377 176.78 277.307 177.06 277.167 177.31C277.027 177.56 276.857 177.77 276.637 177.94C276.417 178.11 276.167 178.25 275.887 178.34C275.607 178.43 275.327 178.48 275.047 178.49V179.33H275.057ZM274.547 171.27C274.347 171.27 274.157 171.3 273.977 171.37C273.797 171.43 273.647 171.53 273.517 171.65C273.387 171.77 273.277 171.91 273.207 172.08C273.127 172.25 273.097 172.43 273.097 172.63C273.097 172.87 273.137 173.07 273.207 173.22C273.287 173.38 273.387 173.51 273.517 173.61C273.647 173.71 273.807 173.8 273.977 173.86C274.157 173.92 274.347 173.99 274.547 174.04V171.27ZM275.057 177.92C275.277 177.92 275.487 177.88 275.687 177.8C275.887 177.72 276.057 177.61 276.207 177.48C276.357 177.34 276.477 177.18 276.567 176.99C276.657 176.8 276.697 176.59 276.697 176.36C276.697 176.09 276.657 175.87 276.567 175.7C276.477 175.52 276.367 175.38 276.217 175.27C276.067 175.16 275.897 175.07 275.697 175.01C275.497 174.95 275.287 174.89 275.057 174.84V177.92Z" fill="white"/>
<path d="M280.988 172.64H279.018V172.19C279.308 172.17 279.568 172.14 279.798 172.1C280.028 172.06 280.238 172 280.418 171.89C280.598 171.79 280.738 171.64 280.858 171.45C280.978 171.26 281.068 171 281.118 170.68H281.668V178.29H280.978V172.64H280.988Z" fill="white"/>
<path d="M284.758 178.3V177.35H285.548V178.3H284.758Z" fill="white"/>
<path d="M290.447 176.42H286.967V175.83L290.507 170.77H291.137V175.85H292.197V176.43H291.137V178.31H290.447V176.42ZM287.647 175.84H290.447V171.8L287.647 175.84Z" fill="white"/>
<path d="M293.576 176.32C293.646 176.84 293.856 177.23 294.196 177.48C294.536 177.74 294.956 177.86 295.456 177.86C295.736 177.86 295.986 177.81 296.216 177.71C296.446 177.61 296.636 177.47 296.796 177.29C296.956 177.11 297.076 176.91 297.156 176.67C297.236 176.44 297.276 176.18 297.276 175.91C297.276 175.63 297.236 175.37 297.146 175.13C297.056 174.89 296.926 174.69 296.766 174.51C296.606 174.34 296.406 174.2 296.176 174.11C295.946 174.02 295.676 173.97 295.396 173.97C295.046 173.97 294.736 174.03 294.466 174.16C294.196 174.29 293.956 174.49 293.746 174.76L293.176 174.68L293.796 170.74H297.576V171.32H294.376L293.896 173.88C294.046 173.79 294.186 173.71 294.316 173.64C294.446 173.57 294.566 173.52 294.696 173.48C294.826 173.44 294.956 173.41 295.096 173.4C295.236 173.39 295.396 173.38 295.566 173.38C295.916 173.38 296.236 173.44 296.526 173.55C296.816 173.67 297.076 173.83 297.296 174.05C297.516 174.27 297.676 174.53 297.796 174.84C297.916 175.15 297.976 175.5 297.976 175.89C297.976 176.29 297.906 176.65 297.776 176.96C297.646 177.27 297.466 177.54 297.246 177.75C297.026 177.96 296.766 178.13 296.476 178.24C296.186 178.35 295.886 178.41 295.576 178.41C295.216 178.41 294.876 178.37 294.566 178.3C294.256 178.23 293.976 178.11 293.736 177.94C293.496 177.77 293.306 177.55 293.156 177.28C293.006 177.01 292.916 176.68 292.896 176.28H293.576V176.32Z" fill="white"/>
<path d="M301.447 170.69C301.817 170.69 302.147 170.75 302.417 170.86C302.687 170.97 302.927 171.12 303.117 171.32C303.307 171.52 303.467 171.74 303.577 172C303.697 172.26 303.787 172.54 303.857 172.83C303.917 173.12 303.967 173.42 303.987 173.73C304.007 174.04 304.017 174.34 304.017 174.64C304.017 175.14 303.977 175.63 303.907 176.09C303.837 176.55 303.707 176.96 303.517 177.31C303.327 177.66 303.067 177.94 302.737 178.15C302.407 178.36 301.977 178.46 301.447 178.46C300.917 178.46 300.487 178.36 300.157 178.15C299.827 177.94 299.557 177.66 299.367 177.3C299.177 176.94 299.047 176.53 298.977 176.06C298.907 175.59 298.867 175.09 298.867 174.56C298.867 174.08 298.897 173.61 298.967 173.15C299.027 172.69 299.157 172.28 299.337 171.91C299.517 171.55 299.777 171.25 300.117 171.03C300.457 170.8 300.897 170.69 301.447 170.69ZM303.327 174.55C303.327 174.14 303.307 173.74 303.257 173.35C303.207 172.96 303.117 172.61 302.977 172.3C302.837 171.99 302.647 171.74 302.397 171.55C302.147 171.36 301.827 171.27 301.417 171.27C301.037 171.27 300.727 171.37 300.487 171.56C300.247 171.75 300.057 172 299.917 172.32C299.777 172.64 299.687 173 299.627 173.4C299.567 173.8 299.547 174.21 299.547 174.63C299.547 175.12 299.577 175.56 299.637 175.96C299.697 176.36 299.797 176.7 299.947 176.98C300.087 177.26 300.287 177.48 300.527 177.63C300.767 177.78 301.077 177.86 301.437 177.86C301.847 177.86 302.177 177.76 302.427 177.56C302.677 177.36 302.867 177.1 302.997 176.78C303.127 176.46 303.217 176.11 303.257 175.71C303.297 175.32 303.327 174.93 303.327 174.55Z" fill="white"/>
<path d="M306.257 178.62C306.257 178.94 306.187 179.19 306.037 179.38C305.887 179.57 305.697 179.7 305.467 179.77V179.37C305.557 179.31 305.637 179.23 305.717 179.13C305.797 179.03 305.837 178.87 305.837 178.65V178.28H305.467V177.33H306.257V178.62Z" fill="white"/>
<path d="M310.297 170.69C310.667 170.69 310.997 170.75 311.267 170.86C311.537 170.97 311.777 171.12 311.967 171.32C312.157 171.52 312.317 171.74 312.427 172C312.547 172.26 312.637 172.54 312.707 172.83C312.767 173.12 312.817 173.42 312.837 173.73C312.857 174.04 312.867 174.34 312.867 174.64C312.867 175.14 312.827 175.63 312.757 176.09C312.687 176.55 312.557 176.96 312.367 177.31C312.177 177.66 311.917 177.94 311.587 178.15C311.257 178.36 310.827 178.46 310.297 178.46C309.767 178.46 309.337 178.36 309.007 178.15C308.677 177.94 308.407 177.66 308.217 177.3C308.027 176.94 307.897 176.53 307.827 176.06C307.757 175.59 307.717 175.09 307.717 174.56C307.717 174.08 307.747 173.61 307.817 173.15C307.877 172.69 308.007 172.28 308.187 171.91C308.367 171.55 308.627 171.25 308.967 171.03C309.307 170.8 309.747 170.69 310.297 170.69ZM312.177 174.55C312.177 174.14 312.157 173.74 312.107 173.35C312.057 172.96 311.967 172.61 311.827 172.3C311.687 171.99 311.497 171.74 311.247 171.55C310.997 171.36 310.677 171.27 310.267 171.27C309.887 171.27 309.577 171.37 309.337 171.56C309.097 171.75 308.907 172 308.767 172.32C308.627 172.64 308.537 173 308.477 173.4C308.417 173.8 308.397 174.21 308.397 174.63C308.397 175.12 308.427 175.56 308.487 175.96C308.547 176.36 308.647 176.7 308.797 176.98C308.937 177.26 309.137 177.48 309.377 177.63C309.617 177.78 309.927 177.86 310.287 177.86C310.697 177.86 311.027 177.76 311.277 177.56C311.527 177.36 311.717 177.1 311.847 176.78C311.977 176.46 312.067 176.11 312.107 175.71C312.157 175.32 312.177 174.93 312.177 174.55Z" fill="white"/>
<path d="M316.226 170.69C316.596 170.69 316.926 170.75 317.196 170.86C317.466 170.97 317.706 171.12 317.896 171.32C318.086 171.52 318.246 171.74 318.356 172C318.476 172.26 318.566 172.54 318.636 172.83C318.696 173.12 318.746 173.42 318.766 173.73C318.786 174.04 318.796 174.34 318.796 174.64C318.796 175.14 318.756 175.63 318.686 176.09C318.616 176.55 318.486 176.96 318.296 177.31C318.106 177.66 317.846 177.94 317.516 178.15C317.186 178.36 316.756 178.46 316.226 178.46C315.696 178.46 315.266 178.36 314.936 178.15C314.606 177.94 314.336 177.66 314.146 177.3C313.956 176.94 313.826 176.53 313.756 176.06C313.686 175.59 313.646 175.09 313.646 174.56C313.646 174.08 313.676 173.61 313.746 173.15C313.806 172.69 313.936 172.28 314.116 171.91C314.296 171.55 314.556 171.25 314.896 171.03C315.236 170.8 315.676 170.69 316.226 170.69ZM318.106 174.55C318.106 174.14 318.086 173.74 318.036 173.35C317.986 172.96 317.896 172.61 317.756 172.3C317.616 171.99 317.426 171.74 317.176 171.55C316.926 171.36 316.606 171.27 316.196 171.27C315.816 171.27 315.506 171.37 315.266 171.56C315.026 171.75 314.836 172 314.696 172.32C314.556 172.64 314.466 173 314.406 173.4C314.346 173.8 314.326 174.21 314.326 174.63C314.326 175.12 314.356 175.56 314.416 175.96C314.476 176.36 314.576 176.7 314.726 176.98C314.866 177.26 315.066 177.48 315.306 177.63C315.546 177.78 315.856 177.86 316.216 177.86C316.626 177.86 316.956 177.76 317.206 177.56C317.456 177.36 317.646 177.1 317.776 176.78C317.906 176.46 317.996 176.11 318.036 175.71C318.086 175.32 318.106 174.93 318.106 174.55Z" fill="white"/>
<path d="M251.547 324.22V47.7598" stroke="#EA4972" stroke-width="0.9"/>
<path d="M11.6976 307.58C14.5584 307.58 16.8776 305.261 16.8776 302.4C16.8776 299.539 14.5584 297.22 11.6976 297.22C8.83674 297.22 6.51758 299.539 6.51758 302.4C6.51758 305.261 8.83674 307.58 11.6976 307.58Z" stroke="#4A90E2" stroke-width="1.35"/>
<path d="M70.1976 260.78C73.0584 260.78 75.3776 258.461 75.3776 255.6C75.3776 252.739 73.0584 250.42 70.1976 250.42C67.3367 250.42 65.0176 252.739 65.0176 255.6C65.0176 258.461 67.3367 260.78 70.1976 260.78Z" stroke="#4A90E2" stroke-width="1.35"/>
<path d="M11.6981 265.72C14.802 265.72 17.3181 263.204 17.3181 260.1C17.3181 256.996 14.802 254.48 11.6981 254.48C8.59428 254.48 6.07812 256.996 6.07812 260.1C6.07812 263.204 8.59428 265.72 11.6981 265.72Z" stroke="#D6563D" stroke-width="2.25"/>
<path d="M70.1981 291.82C73.302 291.82 75.8181 289.303 75.8181 286.2C75.8181 283.096 73.302 280.58 70.1981 280.58C67.0943 280.58 64.5781 283.096 64.5781 286.2C64.5781 289.303 67.0943 291.82 70.1981 291.82Z" stroke="#D6563D" stroke-width="2.25"/>
<path d="M128.698 252.22C131.802 252.22 134.318 249.704 134.318 246.6C134.318 243.496 131.802 240.98 128.698 240.98C125.594 240.98 123.078 243.496 123.078 246.6C123.078 249.704 125.594 252.22 128.698 252.22Z" stroke="#D6563D" stroke-width="2.25"/>
<path d="M189.897 201.82C193.001 201.82 195.517 199.303 195.517 196.2C195.517 193.096 193.001 190.58 189.897 190.58C186.794 190.58 184.277 193.096 184.277 196.2C184.277 199.303 186.794 201.82 189.897 201.82Z" stroke="#D6563D" stroke-width="2.25"/>
<path d="M251.997 144.22C255.101 144.22 257.617 141.704 257.617 138.6C257.617 135.496 255.101 132.98 251.997 132.98C248.893 132.98 246.377 135.496 246.377 138.6C246.377 141.704 248.893 144.22 251.997 144.22Z" fill="white" stroke="#D6563D" stroke-width="2.25"/>
<path d="M314.997 88.4197C318.101 88.4197 320.617 85.9035 320.617 82.7997C320.617 79.6958 318.101 77.1797 314.997 77.1797C311.893 77.1797 309.377 79.6958 309.377 82.7997C309.377 85.9035 311.893 88.4197 314.997 88.4197Z" stroke="#D6563D" stroke-width="2.25"/>
<path d="M375.298 71.3196C378.402 71.3196 380.918 68.8034 380.918 65.6996C380.918 62.5957 378.402 60.0796 375.298 60.0796C372.194 60.0796 369.678 62.5957 369.678 65.6996C369.678 68.8034 372.194 71.3196 375.298 71.3196Z" stroke="#D6563D" stroke-width="2.25"/>
<path d="M430.198 102.82C433.302 102.82 435.818 100.303 435.818 97.1996C435.818 94.0957 433.302 91.5796 430.198 91.5796C427.094 91.5796 424.578 94.0957 424.578 97.1996C424.578 100.303 427.094 102.82 430.198 102.82Z" stroke="#D6563D" stroke-width="2.25"/>
<path d="M491.397 129.82C494.501 129.82 497.017 127.303 497.017 124.2C497.017 121.096 494.501 118.58 491.397 118.58C488.293 118.58 485.777 121.096 485.777 124.2C485.777 127.303 488.293 129.82 491.397 129.82Z" stroke="#D6563D" stroke-width="2.25"/>
<path d="M548.997 175.72C552.101 175.72 554.617 173.204 554.617 170.1C554.617 166.996 552.101 164.48 548.997 164.48C545.893 164.48 543.377 166.996 543.377 170.1C543.377 173.204 545.893 175.72 548.997 175.72Z" stroke="#D6563D" stroke-width="2.25"/>
<path d="M612.897 207.22C616.001 207.22 618.517 204.704 618.517 201.6C618.517 198.496 616.001 195.98 612.897 195.98C609.793 195.98 607.277 198.496 607.277 201.6C607.277 204.704 609.793 207.22 612.897 207.22Z" stroke="#D6563D" stroke-width="2.25"/>
<path d="M672.298 218.92C675.402 218.92 677.918 216.404 677.918 213.3C677.918 210.196 675.402 207.68 672.298 207.68C669.194 207.68 666.678 210.196 666.678 213.3C666.678 216.404 669.194 218.92 672.298 218.92Z" fill="white" stroke="#D6563D" stroke-width="2.25"/>
<path d="M128.698 291.38C131.558 291.38 133.878 289.06 133.878 286.2C133.878 283.339 131.558 281.02 128.698 281.02C125.837 281.02 123.518 283.339 123.518 286.2C123.518 289.06 125.837 291.38 128.698 291.38Z" stroke="#4A90E2" stroke-width="1.35"/>
<path d="M189.897 232.88C192.758 232.88 195.077 230.56 195.077 227.7C195.077 224.839 192.758 222.52 189.897 222.52C187.036 222.52 184.717 224.839 184.717 227.7C184.717 230.56 187.036 232.88 189.897 232.88Z" stroke="#4A90E2" stroke-width="1.35"/>
<path d="M251.547 177.07C255.148 177.07 258.067 174.151 258.067 170.55C258.067 166.949 255.148 164.03 251.547 164.03C247.946 164.03 245.027 166.949 245.027 170.55C245.027 174.151 247.946 177.07 251.547 177.07Z" fill="#D9E5FA" stroke="#4A90E2" stroke-width="1.35"/>
<path d="M326.698 166.5C328.189 166.5 329.398 165.291 329.398 163.8C329.398 162.308 328.189 161.1 326.698 161.1C325.207 161.1 323.998 162.308 323.998 163.8C323.998 165.291 325.207 166.5 326.698 166.5Z" fill="#D9E5FA"/>
<path d="M314.998 241.87C317.853 241.87 320.168 239.555 320.168 236.7C320.168 233.844 317.853 231.53 314.998 231.53C312.143 231.53 309.828 233.844 309.828 236.7C309.828 239.555 312.143 241.87 314.998 241.87Z" stroke="#4A90E2" stroke-width="1.35"/>
<path d="M374.399 192.37C377.254 192.37 379.569 190.055 379.569 187.2C379.569 184.344 377.254 182.03 374.399 182.03C371.543 182.03 369.229 184.344 369.229 187.2C369.229 190.055 371.543 192.37 374.399 192.37Z" stroke="#4A90E2" stroke-width="1.35"/>
<path d="M430.197 126.67C433.053 126.67 435.367 124.355 435.367 121.5C435.367 118.644 433.053 116.33 430.197 116.33C427.342 116.33 425.027 118.644 425.027 121.5C425.027 124.355 427.342 126.67 430.197 126.67Z" stroke="#4A90E2" stroke-width="1.35"/>
<path d="M490.498 151.87C493.353 151.87 495.668 149.555 495.668 146.7C495.668 143.844 493.353 141.53 490.498 141.53C487.643 141.53 485.328 143.844 485.328 146.7C485.328 149.555 487.643 151.87 490.498 151.87Z" stroke="#4A90E2" stroke-width="1.35"/>
<path d="M548.998 138.37C551.853 138.37 554.168 136.055 554.168 133.2C554.168 130.344 551.853 128.03 548.998 128.03C546.143 128.03 543.828 130.344 543.828 133.2C543.828 136.055 546.143 138.37 548.998 138.37Z" stroke="#4A90E2" stroke-width="1.35"/>
<path d="M612.898 123.97C615.754 123.97 618.069 121.655 618.069 118.8C618.069 115.945 615.754 113.63 612.898 113.63C610.043 113.63 607.729 115.945 607.729 118.8C607.729 121.655 610.043 123.97 612.898 123.97Z" stroke="#4A90E2" stroke-width="1.35"/>
<path d="M672.297 155.47C675.152 155.47 677.467 153.155 677.467 150.3C677.467 147.445 675.152 145.13 672.297 145.13C669.442 145.13 667.127 147.445 667.127 150.3C667.127 153.155 669.442 155.47 672.297 155.47Z" stroke="#4A90E2" stroke-width="1.35"/>
<path d="M16.6484 262.35L65.2484 284.85" stroke="#D73716" stroke-width="2.25" stroke-linecap="round"/>
<path d="M65.698 258.75L15.748 298.8" stroke="#4A90E2" stroke-width="1.35" stroke-linecap="round"/>
<path d="M74.6973 258.3L124.197 283.05" stroke="#4A90E2" stroke-width="1.35" stroke-linecap="round"/>
<path d="M185.847 231.3L133.197 283.05" stroke="#4A90E2" stroke-width="1.35" stroke-linecap="round"/>
<path d="M246.598 175.05L193.498 224.1" stroke="#4A90E2" stroke-width="1.35" stroke-linecap="round"/>
<path d="M257.398 173.25L310.948 232.65" stroke="#4A90E2" stroke-width="1.35" stroke-linecap="round"/>
<path d="M370.798 191.25L319.498 234" stroke="#4A90E2" stroke-width="1.35" stroke-linecap="round"/>
<path d="M426.598 125.55L378.898 184.05" stroke="#4A90E2" stroke-width="1.35" stroke-linecap="round"/>
<path d="M435.148 123.75L485.548 144.45" stroke="#4A90E2" stroke-width="1.35" stroke-linecap="round"/>
<path d="M543.598 135.45L495.898 147.6" stroke="#4A90E2" stroke-width="1.35" stroke-linecap="round"/>
<path d="M607.498 120.6L554.398 132.3" stroke="#4A90E2" stroke-width="1.35" stroke-linecap="round"/>
<path d="M667.797 147.6L618.297 120.6" stroke="#4A90E2" stroke-width="1.35" stroke-linecap="round"/>
<path d="M124.198 249.75L75.1484 283.95" stroke="#D73716" stroke-width="2.25" stroke-linecap="round"/>
<path d="M185.848 199.8L133.648 243.45" stroke="#D73716" stroke-width="2.25" stroke-linecap="round"/>
<path d="M248.847 142.65L193.947 192.15" stroke="#D73716" stroke-width="2.25" stroke-linecap="round"/>
<path d="M310.498 85.9497L256.498 135.45" stroke="#D73716" stroke-width="2.25" stroke-linecap="round"/>
<path d="M369.898 66.5996L320.398 81.4496" stroke="#D73716" stroke-width="2.25" stroke-linecap="round"/>
<path d="M380.248 67.5L425.698 94.05" stroke="#D73716" stroke-width="2.25" stroke-linecap="round"/>
<path d="M434.697 99.8999L485.997 122.85" stroke="#D73716" stroke-width="2.25" stroke-linecap="round"/>
<path d="M496.348 126.9L544.498 166.5" stroke="#D73716" stroke-width="2.25" stroke-linecap="round"/>
<path d="M553.047 173.7L607.497 199.35" stroke="#F5A623" stroke-width="1.35" stroke-linecap="round"/>
<path d="M553.047 173.7L607.497 199.35" stroke="#D73716" stroke-width="2.25" stroke-linecap="round"/>
<path d="M617.848 203.85L666.898 213.3" stroke="#D73716" stroke-width="2.25" stroke-linecap="round"/>
<path d="M273.158 163.64H272.338V163.45C272.458 163.44 272.568 163.43 272.668 163.41C272.768 163.39 272.848 163.37 272.928 163.32C272.998 163.28 273.068 163.22 273.108 163.14C273.158 163.06 273.198 162.95 273.218 162.82H273.448V165.99H273.158V163.64Z" fill="white"/>
<path d="M274.708 165.18C274.738 165.4 274.828 165.56 274.968 165.66C275.108 165.76 275.288 165.82 275.488 165.82C275.608 165.82 275.708 165.8 275.808 165.76C275.898 165.72 275.978 165.66 276.048 165.59C276.118 165.52 276.168 165.43 276.198 165.33C276.228 165.23 276.248 165.13 276.248 165.01C276.248 164.89 276.228 164.79 276.188 164.69C276.148 164.59 276.098 164.51 276.028 164.43C275.958 164.36 275.878 164.3 275.778 164.26C275.678 164.22 275.568 164.2 275.448 164.2C275.308 164.2 275.178 164.23 275.058 164.28C274.948 164.33 274.848 164.42 274.758 164.53L274.518 164.5L274.778 162.86H276.358V163.1H275.028L274.828 164.17C274.888 164.13 274.948 164.1 274.998 164.07C275.048 164.04 275.108 164.02 275.158 164C275.208 163.98 275.268 163.97 275.328 163.97C275.388 163.97 275.448 163.96 275.528 163.96C275.668 163.96 275.808 163.98 275.928 164.03C276.048 164.08 276.158 164.15 276.248 164.24C276.338 164.33 276.408 164.44 276.458 164.57C276.508 164.7 276.528 164.85 276.528 165.01C276.528 165.18 276.498 165.33 276.448 165.46C276.388 165.59 276.318 165.7 276.228 165.79C276.138 165.88 276.028 165.95 275.908 166C275.788 166.05 275.658 166.07 275.528 166.07C275.378 166.07 275.238 166.05 275.108 166.02C274.978 165.99 274.858 165.94 274.768 165.87C274.668 165.8 274.588 165.71 274.528 165.6C274.468 165.49 274.428 165.35 274.418 165.18H274.708V165.18Z" fill="white"/>
<path d="M278.277 166V162.76H278.747L279.807 165.62H279.817L280.857 162.76H281.317V166H281.007V163.11H280.997L279.937 166H279.647L278.577 163.11H278.567V166H278.277Z" fill="white"/>
<path d="M283.037 164.64C283.087 164.63 283.147 164.63 283.217 164.61C283.287 164.6 283.347 164.58 283.387 164.56C283.427 164.54 283.457 164.5 283.467 164.45C283.477 164.4 283.487 164.35 283.487 164.31C283.487 164.17 283.447 164.06 283.357 163.97C283.267 163.88 283.117 163.84 282.907 163.84C282.817 163.84 282.727 163.85 282.647 163.87C282.567 163.89 282.497 163.91 282.437 163.95C282.377 163.99 282.327 164.04 282.297 164.11C282.267 164.18 282.237 164.26 282.227 164.36H281.957C281.967 164.22 281.997 164.1 282.047 164.01C282.097 163.91 282.167 163.83 282.257 163.77C282.347 163.71 282.437 163.66 282.557 163.63C282.667 163.6 282.787 163.59 282.917 163.59C283.037 163.59 283.147 163.6 283.247 163.63C283.347 163.66 283.437 163.7 283.517 163.75C283.597 163.81 283.657 163.88 283.697 163.97C283.737 164.06 283.767 164.18 283.767 164.31V165.58C283.767 165.68 283.787 165.75 283.827 165.78C283.867 165.81 283.937 165.8 284.057 165.76V165.97C284.037 165.98 284.007 165.98 283.967 166C283.927 166.01 283.887 166.02 283.847 166.02C283.807 166.02 283.767 166.02 283.727 166.01C283.687 166 283.647 165.99 283.617 165.97C283.587 165.95 283.567 165.92 283.557 165.89C283.537 165.86 283.527 165.82 283.527 165.79C283.517 165.75 283.517 165.71 283.517 165.67C283.407 165.8 283.277 165.89 283.127 165.96C282.977 166.03 282.817 166.06 282.647 166.06C282.547 166.06 282.447 166.05 282.357 166.02C282.267 165.99 282.177 165.95 282.107 165.89C282.037 165.83 281.977 165.76 281.937 165.68C281.897 165.6 281.877 165.5 281.877 165.39C281.877 164.99 282.147 164.76 282.687 164.69L283.037 164.64ZM283.487 164.78C283.377 164.83 283.257 164.86 283.137 164.87C283.017 164.89 282.907 164.9 282.787 164.91C282.577 164.93 282.417 164.97 282.307 165.05C282.187 165.13 282.137 165.25 282.137 165.41C282.137 165.48 282.147 165.54 282.177 165.6C282.207 165.65 282.247 165.7 282.287 165.73C282.337 165.76 282.387 165.79 282.447 165.81C282.507 165.83 282.567 165.84 282.637 165.84C282.747 165.84 282.847 165.83 282.947 165.8C283.047 165.77 283.137 165.73 283.217 165.68C283.297 165.63 283.357 165.55 283.407 165.47C283.457 165.38 283.477 165.28 283.477 165.17V164.78H283.487Z" fill="white"/>
<path d="M284.408 166.63C284.448 166.64 284.478 166.64 284.518 166.65C284.558 166.66 284.598 166.66 284.628 166.66C284.708 166.66 284.768 166.64 284.808 166.59C284.858 166.54 284.898 166.48 284.928 166.42C284.958 166.35 284.988 166.28 285.008 166.21C285.028 166.14 285.048 166.07 285.078 166.02L284.178 163.67H284.478L285.228 165.67L285.978 163.67H286.268L285.398 165.97C285.348 166.12 285.288 166.25 285.238 166.37C285.188 166.49 285.138 166.59 285.078 166.67C285.018 166.75 284.958 166.82 284.898 166.86C284.828 166.9 284.748 166.93 284.658 166.93C284.608 166.93 284.568 166.93 284.518 166.92C284.468 166.91 284.438 166.91 284.398 166.9V166.63H284.408Z" fill="white"/>
<path d="M287.828 163.87C287.828 163.71 287.848 163.57 287.898 163.44C287.948 163.31 288.018 163.2 288.108 163.11C288.198 163.02 288.308 162.95 288.438 162.9C288.568 162.85 288.708 162.83 288.868 162.83C289.028 162.83 289.168 162.85 289.288 162.9C289.408 162.95 289.508 163.01 289.598 163.09C289.688 163.17 289.738 163.26 289.788 163.37C289.828 163.48 289.848 163.59 289.848 163.71C289.848 163.85 289.828 163.98 289.778 164.08C289.728 164.19 289.668 164.28 289.598 164.37C289.518 164.45 289.438 164.53 289.338 164.6C289.238 164.67 289.138 164.73 289.038 164.79C288.938 164.85 288.838 164.9 288.738 164.96C288.638 165.01 288.548 165.07 288.468 165.13C288.418 165.17 288.368 165.21 288.318 165.25C288.268 165.29 288.228 165.34 288.188 165.39C288.148 165.44 288.118 165.5 288.098 165.56C288.078 165.62 288.058 165.69 288.058 165.76H289.828V166H287.758C287.758 165.85 287.778 165.71 287.808 165.59C287.838 165.47 287.908 165.35 288.008 165.23C288.118 165.1 288.238 165 288.348 164.91C288.468 164.82 288.578 164.74 288.698 164.67C288.808 164.6 288.918 164.54 289.018 164.48C289.118 164.42 289.208 164.36 289.288 164.29C289.368 164.22 289.428 164.14 289.468 164.06C289.508 163.97 289.538 163.87 289.538 163.74C289.538 163.64 289.518 163.55 289.488 163.47C289.448 163.39 289.398 163.32 289.338 163.26C289.278 163.2 289.198 163.16 289.118 163.13C289.038 163.1 288.938 163.09 288.848 163.09C288.748 163.09 288.648 163.11 288.558 163.16C288.468 163.2 288.398 163.26 288.338 163.33C288.278 163.4 288.228 163.49 288.198 163.58C288.168 163.68 288.148 163.78 288.158 163.89H287.828V163.87Z" fill="white"/>
<path d="M291.239 162.83C291.399 162.83 291.529 162.85 291.639 162.9C291.749 162.95 291.849 163.01 291.929 163.09C292.009 163.17 292.069 163.26 292.119 163.37C292.169 163.48 292.209 163.59 292.229 163.71C292.259 163.83 292.269 163.96 292.279 164.09C292.289 164.22 292.289 164.34 292.289 164.47C292.289 164.68 292.279 164.88 292.249 165.07C292.219 165.26 292.169 165.43 292.089 165.58C292.009 165.73 291.899 165.84 291.759 165.93C291.619 166.02 291.439 166.06 291.219 166.06C290.999 166.06 290.819 166.02 290.679 165.93C290.539 165.84 290.429 165.72 290.349 165.58C290.269 165.44 290.219 165.26 290.189 165.06C290.159 164.86 290.139 164.66 290.139 164.44C290.139 164.24 290.149 164.04 290.179 163.85C290.209 163.66 290.259 163.49 290.339 163.34C290.419 163.19 290.529 163.07 290.669 162.97C290.819 162.87 291.009 162.83 291.239 162.83ZM292.019 164.44C292.019 164.27 292.009 164.1 291.989 163.94C291.969 163.78 291.929 163.63 291.879 163.5C291.819 163.37 291.739 163.27 291.639 163.19C291.539 163.11 291.399 163.07 291.229 163.07C291.069 163.07 290.939 163.11 290.839 163.19C290.739 163.27 290.659 163.38 290.599 163.51C290.539 163.64 290.499 163.79 290.479 163.96C290.459 164.13 290.449 164.3 290.449 164.47C290.449 164.67 290.459 164.86 290.489 165.03C290.519 165.2 290.559 165.34 290.619 165.46C290.679 165.58 290.759 165.67 290.859 165.73C290.959 165.79 291.089 165.83 291.239 165.83C291.409 165.83 291.549 165.79 291.649 165.7C291.749 165.61 291.829 165.51 291.889 165.38C291.939 165.25 291.979 165.1 291.999 164.93C292.019 164.76 292.019 164.6 292.019 164.44Z" fill="white"/>
<path d="M293.799 163.64H292.979V163.45C293.099 163.44 293.209 163.43 293.309 163.41C293.409 163.39 293.489 163.37 293.569 163.32C293.639 163.28 293.709 163.22 293.749 163.14C293.799 163.06 293.839 162.95 293.859 162.82H294.089V165.99H293.799V163.64Z" fill="white"/>
<path d="M295.438 165.3C295.468 165.47 295.538 165.6 295.638 165.69C295.738 165.78 295.878 165.82 296.058 165.82C296.248 165.82 296.398 165.77 296.508 165.68C296.618 165.59 296.708 165.47 296.768 165.33C296.828 165.19 296.868 165.04 296.898 164.87C296.918 164.71 296.938 164.55 296.938 164.41L296.928 164.4C296.828 164.56 296.708 164.69 296.568 164.77C296.428 164.85 296.258 164.9 296.068 164.9C295.918 164.9 295.778 164.88 295.668 164.83C295.548 164.78 295.448 164.71 295.358 164.62C295.268 164.53 295.208 164.42 295.158 164.3C295.108 164.17 295.088 164.03 295.088 163.88C295.088 163.73 295.108 163.59 295.148 163.46C295.188 163.33 295.248 163.22 295.338 163.13C295.428 163.04 295.528 162.96 295.658 162.91C295.788 162.86 295.938 162.83 296.108 162.83C296.318 162.83 296.498 162.87 296.638 162.96C296.778 163.05 296.898 163.16 296.978 163.3C297.068 163.44 297.128 163.61 297.158 163.81C297.198 164.01 297.208 164.21 297.208 164.44C297.208 164.71 297.178 164.95 297.118 165.15C297.058 165.35 296.978 165.52 296.878 165.66C296.778 165.8 296.648 165.9 296.508 165.97C296.368 166.04 296.208 166.07 296.048 166.07C295.928 166.07 295.808 166.05 295.698 166.02C295.588 165.99 295.498 165.94 295.418 165.88C295.338 165.82 295.268 165.74 295.218 165.64C295.168 165.54 295.138 165.43 295.128 165.3H295.438V165.3ZM296.108 163.07C295.868 163.08 295.678 163.15 295.558 163.3C295.438 163.44 295.378 163.64 295.378 163.89C295.378 164.13 295.438 164.32 295.568 164.46C295.698 164.6 295.878 164.66 296.108 164.66C296.218 164.66 296.318 164.64 296.408 164.6C296.498 164.56 296.568 164.5 296.638 164.43C296.698 164.36 296.748 164.27 296.778 164.18C296.808 164.09 296.828 163.98 296.828 163.88C296.828 163.65 296.768 163.46 296.638 163.31C296.508 163.16 296.328 163.08 296.108 163.07Z" fill="white"/>
<mask id="mask0" mask-type="alpha" maskUnits="userSpaceOnUse" x="177" y="139" width="215" height="217">
<path d="M177.328 355.93H391.818V139.5H177.328V355.93Z" fill="white"/>
</mask>
<g mask="url(#mask0)">
<path fill-rule="evenodd" clip-rule="evenodd" d="M308.802 252.827C311.502 255.757 312.842 257.607 312.842 258.377C312.842 259.147 312.842 264.137 312.842 273.367V279.497L306.252 278.607H304.772V278.087C308.982 278.247 311.182 278.247 311.382 278.087C311.672 277.837 312.202 260.997 311.942 260.607C311.682 260.217 312.412 258.767 311.052 256.867C310.142 255.607 309.392 254.257 308.802 252.827Z" fill="#A3C9E8"/>
<path fill-rule="evenodd" clip-rule="evenodd" d="M312.512 281.727V282.487C308.002 282.487 305.422 282.357 304.772 282.107C304.112 281.857 304.112 281.477 304.772 280.987H312.512V281.727Z" fill="#A3C9E8"/>
<path fill-rule="evenodd" clip-rule="evenodd" d="M309.112 260.097C309.822 260.417 310.232 261.057 310.342 262.037C310.382 263.007 310.062 263.617 309.372 263.887C308.692 264.157 308.152 263.877 307.752 263.057C307.752 262.537 307.752 262.047 307.752 261.597C307.752 260.917 308.022 260.097 309.052 260.097" fill="#A3C9E8"/>
<path d="M310.861 277.197L306.391 273.527" stroke="#A3C9E8" stroke-width="0.648"/>
<path d="M306.273 277.047L310.973 273.677" stroke="#A3C9E8" stroke-width="0.648"/>
<path fill-rule="evenodd" clip-rule="evenodd" d="M282.938 219.783C288.128 217.183 290.728 214.133 290.728 210.623C290.728 205.353 291.628 207.583 289.158 204.233C288.848 201.043 288.848 197.753 289.158 194.343C287.608 192.143 286.828 190.763 286.828 190.193C286.828 189.623 286.468 186.343 285.748 180.333C285.678 179.473 286.038 179.033 286.828 179.033C287.618 179.033 288.388 179.463 289.158 180.333L287.858 170.423C288.908 162.703 290.328 157.923 292.118 156.053C294.808 153.263 304.248 145.593 308.818 144.473C313.398 143.353 322.258 143.893 324.628 145.813C326.998 147.733 335.508 150.633 339.648 160.533C342.408 167.133 342.718 173.733 340.578 180.333L339.648 181.833H342.528L343.518 184.903L342.528 190.193L341.498 192.483L339.648 196.173L336.908 197.573L335.138 205.803C334.578 208.733 333.608 210.843 332.228 212.113C330.848 213.383 330.198 215.283 330.288 217.813V224.233V228.453L329.138 233.863L324.628 243.343L311.558 256.423L290.728 248.683L286.828 236.233L281.058 228.463L279.588 219.783H282.938V219.783Z" fill="#97593E"/>
<path fill-rule="evenodd" clip-rule="evenodd" d="M289.357 211.163L284.177 212.703L283.017 213.543L278.457 216.833L275.867 218.973L272.057 220.553L268.537 221.683L267.397 223.453C259.337 222.203 253.377 223.623 249.517 227.703C245.657 231.783 245.187 232.253 248.127 229.093C247.267 228.293 246.027 228.293 244.407 229.093C242.787 229.893 240.017 231.423 236.097 233.703L232.007 236.833L229.067 241.623L224.187 249.693L221.787 253.623L219.597 259.413V262.723L217.837 265.323L216.857 268.373L217.837 270.383H216.857V272.323V274.833L215.367 277.203C224.697 285.773 233.747 289.593 242.497 288.683C242.777 288.683 242.777 289.773 242.497 291.953V295.743L244.407 333.043C245.927 347.943 247.637 356.653 249.527 359.183C251.417 361.713 283.397 361.713 345.467 359.183V345.993L346.977 337.883V329.903L350.167 317.523L355.687 309.443L357.497 307.313C372.337 305.013 380.377 302.973 381.597 301.193C382.817 299.413 383.957 298.673 384.997 298.983V295.743L386.307 293.683C383.467 284.083 381.357 277.793 379.987 274.833C377.917 270.383 362.467 244.033 353.037 244.033C351.347 242.943 350.387 242.143 350.167 241.633C342.147 236.443 337.487 233.053 336.177 231.473C334.867 229.893 333.697 228.643 332.657 227.713L330.777 223.463C330.187 231.243 329.407 235.693 328.437 236.833C327.467 237.973 325.117 240.373 321.367 244.033L315.527 248.703L313.647 249.703L311.777 253.633L307.497 250.533L302.557 246.323L297.207 242.833L288.147 236.833L282.277 227.713C281.477 222.213 281.077 219.473 281.077 219.473C281.077 219.473 281.037 220.343 282.277 220.113C284.087 219.773 287.157 218.193 287.427 217.503C287.797 216.543 289.367 215.153 290.027 213.563C290.687 211.973 290.117 212.383 290.727 210.643C290.687 210.593 290.237 210.773 289.357 211.163Z" fill="#D7E7F5"/>
<path fill-rule="evenodd" clip-rule="evenodd" d="M305.687 250.673L296.217 248.693V244.503L295.467 243.633C288.467 247.843 283.077 249.533 279.277 248.703C275.477 247.863 274.217 238.253 275.497 219.853L281.607 214.983C282.347 214.013 283.347 213.213 284.587 212.583C285.827 211.953 287.877 211.303 290.737 210.633C288.687 211.573 287.247 212.363 286.407 213.003C285.567 213.643 284.357 214.733 282.767 216.263C282.067 217.623 281.687 218.563 281.607 219.093C281.057 222.783 282.187 225.413 283.647 227.673C285.417 230.423 289.367 234.553 295.477 240.083L304.957 247.453L311.777 253.633L305.687 250.673Z" fill="#A3C9E8"/>
<path fill-rule="evenodd" clip-rule="evenodd" d="M311.766 253.623C312.486 252.693 313.486 251.773 314.786 250.863C316.076 249.953 317.626 249.013 319.426 248.033L325.526 246.903V244.253C325.856 243.873 326.476 244.403 327.396 245.863C328.776 248.043 335.566 249.563 336.956 246.913C337.886 245.143 338.706 243.763 339.406 242.773L335.766 233.093L333.206 228.743L330.596 225.533C329.706 231.973 328.646 235.943 327.396 237.453C326.146 238.963 324.056 241.233 321.106 244.263L316.876 246.913L313.876 249.353L311.766 253.623Z" fill="#A3C9E8"/>
<path fill-rule="evenodd" clip-rule="evenodd" d="M244.688 285.063L242.997 288.773C240.517 289.283 237.467 289.043 233.837 288.043C231.877 287.503 228.857 286.953 225.487 285.063C223.577 283.993 220.317 281.683 215.707 278.133C215.667 276.043 215.877 274.993 216.347 274.993C216.817 274.993 219.067 276.623 223.097 279.873C225.967 281.613 227.927 282.723 228.957 283.193C232.847 284.963 234.597 285.073 234.887 285.073C235.477 285.073 237.367 285.803 240.757 285.803C241.507 285.793 242.817 285.543 244.688 285.063Z" fill="#A3C9E8"/>
<path fill-rule="evenodd" clip-rule="evenodd" d="M384.997 295.733C377.287 302.303 368.437 305.583 358.467 305.583C348.497 305.583 348.177 306.153 357.487 307.303C367.767 306.863 375.717 305.063 381.317 301.903C382.637 300.723 382.517 299.543 384.987 298.973C385.617 297.933 385.617 296.853 384.997 295.733Z" fill="#A3C9E8"/>
<path fill-rule="evenodd" clip-rule="evenodd" d="M269.256 223.143C263.366 221.533 251.246 223.013 248.126 229.083C252.586 235.263 257.666 246.253 263.366 262.033C265.816 269.403 267.166 274.453 267.396 277.193C268.556 290.813 265.566 302.233 264.616 305.393C266.166 307.263 268.476 308.773 271.526 309.923L274.056 307.353C279.166 300.463 282.326 293.653 283.556 286.923C284.296 280.433 284.096 275.033 282.946 270.713L279.666 254.793C275.116 237.413 271.646 226.863 269.256 223.143Z" fill="#9E0216"/>
<path opacity="0.9" fill-rule="evenodd" clip-rule="evenodd" d="M270.996 309.623L267.926 314.853L265.296 319.973L259.666 327.493L256.816 330.973L254.556 334.723L250.476 340.423L246.276 348.793L247.626 354.943L248.136 359.163H184.246V353.933C183.306 351.683 183.306 350.103 184.246 349.203C185.656 347.843 187.806 335.303 187.806 335.013C187.806 334.823 189.566 331.413 193.096 324.793H194.786L200.076 329.743L205.826 333.983L212.436 340.433C224.706 311.703 233.416 294.283 238.556 288.193C242.026 284.073 242.516 286.883 242.496 294.023C242.486 296.303 242.486 300.593 242.496 306.893L243.546 319.983C244.236 325.903 244.606 329.573 244.676 330.983C244.746 332.393 245.716 331.733 247.616 328.963L250.466 324.793L258.256 314.853L262.546 309.623L265.286 305.903L270.996 309.623Z" fill="#710110"/>
<path fill-rule="evenodd" clip-rule="evenodd" d="M270.806 289.063C270.356 298.533 267.406 303.273 261.946 303.273C261.646 303.453 260.786 304.053 259.366 305.083L240.786 324.193C236.076 330.073 232.686 333.593 230.616 334.753C227.506 336.483 204.216 345.343 202.246 343.743C200.276 342.143 194.426 334.713 194.426 332.423C194.426 330.903 194.426 328.153 194.426 324.193C194.426 321.233 194.426 319.303 194.426 318.423C194.426 317.103 196.296 310.503 197.466 308.833C198.246 307.723 199.346 305.683 200.766 302.713C202.396 298.093 203.836 294.663 205.076 292.423C206.326 290.183 208.486 286.633 211.556 281.783L215.466 275.733L243.286 286.113H244.426L239.216 296.053L233.876 302.363L242.016 299.003L247.346 296.053L251.786 293.763L254.066 290.043L257.936 277.523L259.366 271.673L261.946 266.303L264.696 263.373C265.296 262.553 266.456 262.133 268.196 262.133C269.936 262.133 273.126 261.603 277.756 260.553C278.046 260.553 278.796 260.553 280.006 260.553C281.216 260.553 282.106 261.083 282.676 262.133L284.506 261.313C284.546 260.803 284.936 260.553 285.696 260.553C286.446 260.553 287.476 261.083 288.776 262.133L289.586 264.363L288.776 266.293L285.696 271.013L284.506 271.663L283.916 272.363V274.403C283.816 277.573 282.756 279.433 280.766 279.993C280.206 280.153 279.956 280.563 280.016 281.223C280.016 284.063 279.646 285.693 278.896 286.103C278.896 286.703 278.516 287.453 277.766 288.343C274.156 289.293 272.356 289.533 272.356 289.053C272.356 288.573 272.356 287.593 272.356 286.103L270.816 287.013V289.063H270.806Z" fill="#97593E"/>
<path fill-rule="evenodd" clip-rule="evenodd" d="M368.99 289.283L363.44 283.933L333.95 291.093L315.73 345.993C316.66 345.993 317.12 345.993 317.12 345.993C317.12 345.993 318.57 347.243 321.47 349.743V351.963H322.33L339.26 297.623L368.99 289.283Z" fill="#FDEEF0" stroke="#F299A6" stroke-width="0.648"/>
<path fill-rule="evenodd" clip-rule="evenodd" d="M338.811 324.983L346.071 302.173L375.391 294.973H376.461L373.161 305.683L358.481 349.673L329.531 356.023L338.811 324.983Z" fill="#A1CECB"/>
<path fill-rule="evenodd" clip-rule="evenodd" d="M376.461 294.973L369.941 289.283L339.711 298.273L323.021 350.933V352.253L323.831 351.633L328.611 354.573V356.023H329.531L346.481 303.793L376.461 294.973Z" fill="#FDFAEA" stroke="#86C1BD" stroke-width="0.648"/>
<path fill-rule="evenodd" clip-rule="evenodd" d="M381.91 302.173C381.91 304.023 381.91 305.113 381.91 305.453C381.91 305.963 389.64 316.163 387.06 335.053C387.75 338.033 388.09 339.533 388.09 339.533L389.83 345.973L390.97 348.153V350.523L391.57 353.023L389.83 356.013V358.453V360.173C390.12 361.823 389.73 363.323 388.66 364.653C387.59 365.993 384.89 366.563 380.56 366.363L370.48 365.753L360.41 362.303L354.36 359.183C353.78 357.553 353.21 356.743 352.66 356.743C351.83 356.743 346.24 356.023 344.65 356.023C343.59 356.023 341.85 356.023 339.42 356.023L336.62 354.693H332.54L329.35 353.023L324.47 348.163C323.26 347.893 322.45 347.463 322.01 346.873C321.57 346.283 320.34 345.163 318.28 343.533L316.66 341.453L314.77 338.253C313.21 337.423 312.82 336.553 313.6 335.653C314.38 334.753 315.21 334.563 316.1 335.083H316.67L316.4 332.303L315.79 330.753C315.74 329.813 315.94 329.013 316.4 328.373C316.86 327.733 317.49 327.723 318.28 328.373C317.25 326.233 316.99 324.643 317.51 323.593C318.03 322.543 319.01 321.713 320.45 321.113C321.25 318.423 322.28 316.813 323.53 316.283C324.78 315.753 325.31 315.753 325.11 316.283L327.31 318.483L331.49 321.713L340.55 327.123L342.61 328.373L344.65 329.483H347.04L351.32 325.843L351.86 323.593V318.483V316.283V312.523L352.67 309.863C353.29 308.473 353.86 307.663 354.37 307.413C354.88 307.163 355.75 307.163 356.98 307.413L357.67 311.873V313.803L358.63 316.293L359.06 318.913V321.123L359.67 323.603C360.65 325.443 360.89 328.353 360.4 332.323C359.91 336.293 360.71 337.683 362.79 336.503L365.4 328.383L368.77 318.483L373.09 306.353L374.07 304.323L381.91 302.173Z" fill="#97593E"/>
<path fill-rule="evenodd" clip-rule="evenodd" d="M307.4 261.933C306.7 261.843 306.23 260.913 306.36 259.843C306.49 258.773 307.17 257.983 307.87 258.073C308.57 258.163 309.04 259.093 308.91 260.163C308.78 261.223 308.1 262.013 307.4 261.933Z" fill="#A3C9E8"/>
<path fill-rule="evenodd" clip-rule="evenodd" d="M311.77 254.253C311.22 260.513 310.74 264.503 310.35 266.233C309.95 267.963 309.52 270.883 309.05 274.993C308.46 275.663 308.03 276.033 307.75 276.133C305.76 276.793 304.34 276.253 303.56 275.803C302.62 275.263 302.05 274.893 301.85 274.693C302.78 274.893 303.5 274.993 304.01 274.993C304.45 274.993 305.89 275.343 307.75 274.693C307.95 274.623 308.16 274.283 308.4 273.683L311.77 254.253Z" fill="#A3C9E8"/>
<path fill-rule="evenodd" clip-rule="evenodd" d="M307.75 278.373H302.56V279.493H306.81L307.75 278.373Z" fill="#A3C9E8"/>
<path d="M307.16 273.683L304.01 270.403" stroke="#A3C9E8" stroke-width="0.648"/>
<path d="M307.4 270.663L303.77 273.413" stroke="#A3C9E8" stroke-width="0.648" stroke-linecap="square" stroke-linejoin="round"/>
</g>
<mask id="mask1" mask-type="alpha" maskUnits="userSpaceOnUse" x="367" y="144" width="201" height="214">
<path d="M567.574 144.036H367.344V357.226H567.574V144.036Z" fill="white"/>
</mask>
<g mask="url(#mask1)">
<path fill-rule="evenodd" clip-rule="evenodd" d="M441.583 227.444C446.623 240.074 446.023 249.374 439.763 255.354C433.513 261.334 445.763 263.664 476.523 262.324L493.183 246.374L496.813 229.684C494.293 229.684 491.023 229.684 487.003 229.684C482.983 229.684 479.493 229.684 476.523 229.684C474.673 227.784 473.493 226.294 472.983 225.224C469.623 218.194 468.303 213.784 466.843 213.784C465.073 213.814 456.643 218.354 441.583 227.444Z" fill="#F7CA2C"/>
<path fill-rule="evenodd" clip-rule="evenodd" d="M419.453 180.474C418.563 187.434 418.213 192.444 418.393 195.494C418.703 200.704 420.713 206.104 421.323 209.074C422.473 214.654 429.693 222.494 442.993 232.574C449.043 235.294 454.173 235.694 458.383 233.784C462.593 231.874 465.413 228.184 466.843 222.724C470.003 214.734 471.333 208.874 470.823 205.124C470.313 201.374 470.313 199.004 470.823 198.004C471.553 199.424 472.423 199.784 473.433 199.074C474.443 198.364 474.443 195.644 473.433 190.924L470.823 185.204L469.593 190.924C462.263 180.184 456.623 173.504 452.673 170.894C446.753 166.974 437.363 165.584 433.323 168.774C429.283 171.964 425.243 173.184 422.343 177.494C420.423 180.354 419.453 181.354 419.453 180.474Z" fill="#F0C220"/>
<path fill-rule="evenodd" clip-rule="evenodd" d="M494.204 232.534C509.224 232.534 517.774 232.534 519.864 232.534C521.944 232.534 523.614 233.394 524.874 235.124C527.804 235.814 529.734 236.684 530.684 237.724C531.634 238.764 533.944 242.564 537.614 249.104C539.384 256.514 540.554 260.694 541.114 261.624C541.964 263.024 545.314 269.154 546.864 271.204C548.414 273.254 552.614 277.464 546.864 281.304C543.034 283.864 542.374 282.064 544.904 275.914C542.524 273.584 535.844 275.624 524.864 282.044C513.884 288.464 512.924 289.704 521.994 285.794L527.094 306.094L524.864 320.984V379.244L431.084 370.004V310.214L428.054 310.764C416.104 302.154 406.284 299.734 398.574 303.514C397.204 304.184 399.614 308.584 397.894 307.914C396.174 307.254 392.004 306.084 391.234 303.514C390.464 300.944 396.174 296.914 396.174 296.914C396.174 296.914 397.214 282.914 397.894 279.754C398.344 277.644 399.304 274.794 400.784 271.194L409.444 259.494C415.014 254.594 419.594 251.124 423.194 249.084C426.794 247.044 428.584 245.544 428.584 244.564C432.384 251.014 436.334 255.474 440.414 257.924C446.544 261.604 466.114 266.014 479.124 254.274C487.814 246.454 492.834 239.204 494.204 232.534Z" fill="#D84326"/>
<path fill-rule="evenodd" clip-rule="evenodd" d="M438.183 167.004C435.243 171.904 431.873 174.874 428.063 175.914C424.253 176.954 421.013 181.574 418.353 189.754C418.763 202.164 422.003 212.064 428.063 219.424C435.653 227.244 441.333 231.744 445.103 232.924C445.483 236.364 445.873 239.184 446.273 241.374C446.683 243.564 446.683 246.514 446.273 250.224L438.183 255.704C434.173 258.484 430.803 260.814 428.063 262.694C423.963 265.514 429.483 273.384 425.423 280.104C422.713 284.574 425.013 291.244 432.303 300.104C436.883 308.864 438.033 313.244 435.743 313.244C436.283 310.394 435.133 308.044 432.303 306.194C428.063 303.424 425.583 300.104 424.713 300.104C423.843 300.104 418.703 295.124 416.523 289.814C414.343 284.494 413.453 272.944 416.523 265.874C418.573 261.154 418.573 260.104 416.523 262.714C414.383 265.314 411.263 265.314 407.163 262.714C404.813 265.484 402.383 270.284 399.893 277.134V280.124C395.043 269.414 395.043 261.284 399.893 255.724C402.583 252.644 398.613 251.574 396.543 248.714C395.433 247.184 393.663 244.324 391.213 240.144C388.983 232.144 389.873 224.344 393.883 216.744C397.893 209.144 399.493 202.754 398.683 197.574C401.233 180.684 406.203 167.284 413.613 157.364C421.023 147.444 427.723 144.434 433.743 148.354C443.123 142.674 450.533 143.584 455.963 151.074C464.113 162.314 470.393 167.074 472.303 175.914C474.213 184.754 477.703 187.554 483.423 197.544C487.233 204.204 488.753 211.024 487.983 217.994C489.743 222.894 492.693 226.544 496.823 228.954C503.023 232.564 514.003 226.824 518.423 229.694C522.833 232.564 522.343 233.764 518.423 233.764C515.813 233.764 511.583 234.164 505.723 234.964V240.114C512.723 241.154 516.223 244.014 516.223 248.684C516.223 253.354 516.223 260.014 516.223 268.664L505.723 248.684L498.213 244.834H494.483C503.473 255.614 507.223 262.624 505.723 265.854C504.233 269.094 503.473 272.844 503.453 277.114C500.893 276.274 499.143 273.464 498.213 268.674C496.823 261.484 496.173 257.964 494.483 255.704C492.783 253.444 490.803 246.754 487.983 244.844C486.103 243.574 482.283 238.524 476.533 229.704C471.813 223.784 469.453 219.884 469.453 218.004C469.453 215.184 472.153 204.424 470.803 200.984C469.903 198.694 469.903 197.794 470.803 198.274C471.663 199.334 472.513 199.704 473.343 199.404C474.603 198.944 473.923 192.964 473.343 190.724C472.763 188.484 471.723 186.864 470.803 187.944C469.883 189.024 469.033 190.934 469.453 191.984C469.873 193.034 469.523 194.214 467.493 191.984C465.463 189.754 461.423 182.584 460.403 179.254C459.883 177.554 457.323 172.834 448.903 168.944C447.193 168.154 443.623 167.504 438.183 167.004Z" fill="#222222"/>
<path fill-rule="evenodd" clip-rule="evenodd" d="M454.312 298.016L456.782 287.076L518.772 271.346L507.012 309.636L492.202 314.236L485.972 321.516H463.792L454.312 298.016Z" fill="#D0E6E5"/>
<path fill-rule="evenodd" clip-rule="evenodd" d="M452.423 298.506L456.853 287.296L449.713 283.096L431.133 358.986L441.333 326.826L452.423 298.506Z" fill="#A1CECB"/>
<path d="M507.992 267.536L450.502 282.506L456.822 286.906L518.772 271.966" stroke="#A1CECB" stroke-width="0.5" stroke-linecap="round" stroke-linejoin="round"/>
<path fill-rule="evenodd" clip-rule="evenodd" d="M450.502 282.506L456.682 286.906L518.772 271.966L507.992 267.536L450.502 282.506Z" fill="white"/>
<path fill-rule="evenodd" clip-rule="evenodd" d="M445.303 319.134L448.223 305.394L521.313 285.634L499.403 370.964L431.133 387.244L445.303 319.134Z" fill="#0F9283"/>
<path fill-rule="evenodd" clip-rule="evenodd" d="M446.383 319.344L450.503 305.684L442.553 299.924L426.053 380.954L432.483 387.244L446.383 319.344Z" fill="#0C7065"/>
<path d="M507.863 280.554L442.883 299.454L450.023 305.004L520.043 286.144" stroke="#A3C9E8" stroke-width="0.5" stroke-linecap="round" stroke-linejoin="round"/>
<path fill-rule="evenodd" clip-rule="evenodd" d="M442.883 299.454L449.863 305.004L520.043 286.144L507.863 280.554L442.883 299.454Z" fill="white"/>
<path fill-rule="evenodd" clip-rule="evenodd" d="M520.592 286.594C526.222 301.444 530.102 311.054 532.232 315.424C532.992 315.734 531.282 315.734 531.172 316.044C531.082 316.294 530.832 316.414 530.442 316.414C521.002 319.084 515.062 321.434 512.632 323.464C508.982 326.514 478.222 333.644 469.682 332.494C461.142 331.354 460.872 322.144 457.922 320.544C455.952 319.474 452.462 318.094 447.472 316.404C443.902 315.604 441.402 314.724 439.992 313.774C438.582 312.824 436.932 312.824 435.062 313.774C433.442 314.204 432.632 314.744 432.632 315.414C432.632 316.074 432.332 317.044 431.722 318.314L430.772 319.694L430.012 321.754V324.344V326.144L430.772 326.994L430.012 328.284L429.492 330.144L430.012 332.494L431.242 334.064L430.012 338.274C432.762 344.624 436.752 348.554 441.982 350.064C447.212 351.574 452.522 351.904 457.922 351.064L466.622 350.064C497.012 348.934 515.542 347.514 522.222 345.804C528.262 344.264 537.902 340.914 551.152 335.764C552.092 335.394 553.542 334.834 555.512 334.054C560.002 329.404 562.242 325.304 562.242 321.744C562.242 316.404 550.282 287.854 547.882 284.774C546.282 282.714 545.052 278.354 544.202 271.694C534.912 269.424 528.772 269.424 525.782 271.694C522.802 273.964 520.662 277.384 519.372 281.964L520.592 286.594Z" fill="#F7CA2C"/>
<path fill-rule="evenodd" clip-rule="evenodd" d="M398.013 303.064C394.243 331.224 394.983 349.824 400.213 358.844C405.443 367.864 418.073 371.214 438.103 368.874C475.393 363.594 495.673 360.244 498.943 358.844C502.223 357.434 507.673 352.114 515.303 342.874L493.533 333.744L457.353 342.874L425.253 346.614C425.253 339.024 425.253 334.064 425.253 331.734C425.253 329.404 425.513 321.774 426.033 308.844C421.293 306.264 417.093 304.334 413.413 303.064C409.733 301.794 404.603 301.214 398.013 301.344V303.064V303.064Z" fill="#F7CA2C"/>
</g>
<path d="M435.022 191.924C431.451 191.549 427.862 192.552 424.999 194.722" stroke="#00214E" stroke-width="0.756"/>
<path d="M457.713 184.627C452.777 184.101 447.874 185.811 444.319 189.275" stroke="#00214E" stroke-width="0.756"/>
<path d="M442.386 205.582C442.386 205.582 443.186 208.028 443.056 209.363C443 209.942 442.78 210.486 442.733 211.061C442.496 213.262 444.165 213.061 445.621 212.502" stroke="#00214E" stroke-width="0.756"/>
<path d="M449.894 207.509C450.655 207.592 451.233 208.205 451.27 208.973C451.304 209.731 450.78 210.403 450.037 210.56" stroke="#00214E" stroke-width="0.756"/>
<path d="M457.936 213.023C457.363 214.518 456.37 218.209 454.341 219.705C452.23 221.265 449.001 222.034 447.586 221.388" stroke="#00214E" stroke-width="0.756"/>
<path d="M452.67 192.03C450.766 192.604 449.414 193.703 449.65 194.486C449.886 195.269 451.62 195.438 453.524 194.865C455.428 194.291 456.78 193.191 456.544 192.409C456.308 191.626 454.574 191.457 452.67 192.03Z" fill="#00214E"/>
<path d="M430.282 199.857C428.558 200.847 427.49 202.224 427.897 202.933C428.304 203.642 430.031 203.414 431.756 202.424C433.48 201.434 434.548 200.057 434.141 199.348C433.734 198.639 432.006 198.867 430.282 199.857Z" fill="#00214E"/>
<path d="M319.877 186.246C319.756 187.645 319.776 189.055 319.94 190.448C320.109 191.68 320.537 192.496 321.087 193.626C321.281 194.001 321.442 194.391 321.55 194.793C322.154 197.056 320.538 199.199 318.168 198.824L316.716 198.594" stroke="#00214E" stroke-width="0.9"/>
<path d="M311.934 195.032C311.357 195.224 311.013 195.797 311.112 196.39C311.21 196.983 311.728 197.419 312.327 197.413" stroke="#00214E" stroke-width="0.9"/>
<path d="M322.25 179.444C324.962 178.557 327.908 178.751 330.501 179.961" stroke="#00214E" stroke-width="0.9"/>
<path d="M303.43 177.516C307.175 176.307 311.265 176.823 314.588 178.919" stroke="#00214E" stroke-width="0.9"/>
<path d="M307.351 202.872C307.475 202.729 307.65 202.646 307.833 202.644C308.015 202.643 308.196 202.712 308.327 202.844C308.985 203.485 310.165 204.796 312.02 205.484C314.554 206.422 316.992 205.735 317.429 206.493C317.674 206.926 317.225 207.331 316.42 207.811C314.729 208.708 312.748 208.88 310.928 208.288C308.484 207.415 307.049 204.201 307.214 203.164C307.229 203.065 307.276 202.961 307.351 202.872Z" fill="white"/>
<path d="M307.707 182.345C309.877 182.708 309.353 186.017 307.177 185.693L307.078 185.677C304.908 185.313 305.432 182.005 307.608 182.329L307.707 182.345V182.345Z" fill="#00214E"/>
<path d="M325.61 184.947C327.625 185.266 327.135 188.358 325.117 188.058L325.028 188.044C323.013 187.725 323.503 184.634 325.521 184.933L325.61 184.947V184.947Z" fill="#00214E"/>
</svg>
