<svg width="901" height="516" viewBox="0 0 901 516" fill="none" xmlns="http://www.w3.org/2000/svg">
<path fill-rule="evenodd" clip-rule="evenodd" d="M408.245 407.691C405.427 404.887 440.777 381.644 442.478 309.642H531.198C532.899 381.644 568.249 404.887 565.431 407.691H408.245Z" fill="#A2B2BC"/>
<path fill-rule="evenodd" clip-rule="evenodd" d="M227.35 0H746.964C749.901 0 752.28 2.3788 752.28 5.31575V333.563C752.28 336.5 749.901 338.879 746.964 338.879H227.35C224.413 338.879 222.034 336.5 222.034 333.563V5.31575C222.034 2.3788 224.413 0 227.35 0Z" fill="#C3CFD7"/>
<path d="M735.005 15.9473H237.982V300.34H735.005V15.9473Z" fill="white"/>
<path fill-rule="evenodd" clip-rule="evenodd" d="M645.965 46.5127H699.122C703.521 46.5127 707.096 50.0875 707.096 54.4863V203.327C707.096 207.726 703.521 211.301 699.122 211.301H645.965C641.566 211.301 637.991 207.726 637.991 203.327V54.4863C637.991 50.0875 641.566 46.5127 645.965 46.5127Z" fill="#E7E3E3"/>
<path fill-rule="evenodd" clip-rule="evenodd" d="M268.548 46.5127H350.942C355.341 46.5127 358.916 50.0875 358.916 54.4863V261.8C358.916 266.199 355.341 269.774 350.942 269.774H268.548C264.149 269.774 260.574 266.199 260.574 261.8V54.4863C260.574 50.0875 264.149 46.5127 268.548 46.5127Z" fill="#E7E3E3"/>
<path fill-rule="evenodd" clip-rule="evenodd" d="M396.125 46.5127H598.123C606.934 46.5127 614.071 53.6491 614.071 62.4599V180.735C614.071 189.546 606.934 196.683 598.123 196.683H396.125C387.314 196.683 380.178 189.546 380.178 180.735V62.4599C380.178 53.6491 387.314 46.5127 396.125 46.5127Z" fill="#E7E3E3"/>
<path fill-rule="evenodd" clip-rule="evenodd" d="M523.703 106.979L469.217 134.222V79.7361L523.703 106.979Z" fill="white"/>
<path fill-rule="evenodd" clip-rule="evenodd" d="M380.178 170.104H614.071V191.367C614.071 200.178 606.934 207.314 598.123 207.314H396.125C387.314 207.314 380.178 200.178 380.178 191.367V170.104Z" fill="#F7F7F7"/>
<path fill-rule="evenodd" clip-rule="evenodd" d="M384.165 221.932H610.084C612.29 221.932 614.071 223.713 614.071 225.919C614.071 228.125 612.29 229.906 610.084 229.906H384.165C381.959 229.906 380.178 228.125 380.178 225.919C380.178 223.713 381.959 221.932 384.165 221.932Z" fill="#E7E3E3"/>
<path fill-rule="evenodd" clip-rule="evenodd" d="M384.165 235.222H610.084C612.29 235.222 614.071 237.002 614.071 239.208C614.071 241.414 612.29 243.195 610.084 243.195H384.165C381.959 243.195 380.178 241.414 380.178 239.208C380.178 237.002 381.959 235.222 384.165 235.222Z" fill="#E7E3E3"/>
<path fill-rule="evenodd" clip-rule="evenodd" d="M384.165 248.511H610.084C612.29 248.511 614.071 250.292 614.071 252.498C614.071 254.704 612.29 256.485 610.084 256.485H384.165C381.959 256.485 380.178 254.704 380.178 252.498C380.178 250.292 381.959 248.511 384.165 248.511Z" fill="#E7E3E3"/>
<path fill-rule="evenodd" clip-rule="evenodd" d="M384.165 261.8H610.084C612.29 261.8 614.071 263.581 614.071 265.787C614.071 267.993 612.29 269.774 610.084 269.774H384.165C381.959 269.774 380.178 267.993 380.178 265.787C380.178 263.581 381.959 261.8 384.165 261.8Z" fill="#E7E3E3"/>
<path d="M487.156 329.576C492.661 329.576 497.123 325.114 497.123 319.609C497.123 314.104 492.661 309.642 487.156 309.642C481.652 309.642 477.189 314.104 477.189 319.609C477.189 325.114 481.652 329.576 487.156 329.576Z" fill="#A2B2BC"/>
<path fill-rule="evenodd" clip-rule="evenodd" d="M648.623 62.4601H696.464C697.926 62.4601 699.122 63.6561 699.122 65.118C699.122 66.5798 697.926 67.7758 696.464 67.7758H648.623C647.161 67.7758 645.965 66.5798 645.965 65.118C645.965 63.6561 647.161 62.4601 648.623 62.4601Z" fill="white"/>
<path fill-rule="evenodd" clip-rule="evenodd" d="M648.623 114.289H696.464C697.926 114.289 699.122 115.485 699.122 116.946C699.122 118.408 697.926 119.604 696.464 119.604H648.623C647.161 119.604 645.965 118.408 645.965 116.946C645.965 115.485 647.161 114.289 648.623 114.289Z" fill="white"/>
<path fill-rule="evenodd" clip-rule="evenodd" d="M648.623 71.7626H696.464C697.926 71.7626 699.122 72.9586 699.122 74.4204C699.122 75.8823 697.926 77.0783 696.464 77.0783H648.623C647.161 77.0783 645.965 75.8823 645.965 74.4204C645.965 72.9586 647.161 71.7626 648.623 71.7626Z" fill="white"/>
<path fill-rule="evenodd" clip-rule="evenodd" d="M648.623 123.591H696.464C697.926 123.591 699.122 124.787 699.122 126.249C699.122 127.711 697.926 128.907 696.464 128.907H648.623C647.161 128.907 645.965 127.711 645.965 126.249C645.965 124.787 647.161 123.591 648.623 123.591Z" fill="white"/>
<path fill-rule="evenodd" clip-rule="evenodd" d="M648.623 79.7362H696.464C697.926 79.7362 699.122 80.9322 699.122 82.3941C699.122 83.8559 697.926 85.052 696.464 85.052H648.623C647.161 85.052 645.965 83.8559 645.965 82.3941C645.965 80.9322 647.161 79.7362 648.623 79.7362Z" fill="white"/>
<path fill-rule="evenodd" clip-rule="evenodd" d="M648.623 131.565H696.464C697.926 131.565 699.122 132.761 699.122 134.223C699.122 135.684 697.926 136.88 696.464 136.88H648.623C647.161 136.88 645.965 135.684 645.965 134.223C645.965 132.761 647.161 131.565 648.623 131.565Z" fill="white"/>
<path fill-rule="evenodd" clip-rule="evenodd" d="M648.623 89.0388H696.464C697.926 89.0388 699.122 90.2349 699.122 91.6967C699.122 93.1585 697.926 94.3546 696.464 94.3546H648.623C647.161 94.3546 645.965 93.1585 645.965 91.6967C645.965 90.2349 647.161 89.0388 648.623 89.0388Z" fill="white"/>
<path fill-rule="evenodd" clip-rule="evenodd" d="M648.623 140.867H696.464C697.926 140.867 699.122 142.063 699.122 143.525C699.122 144.987 697.926 146.183 696.464 146.183H648.623C647.161 146.183 645.965 144.987 645.965 143.525C645.965 142.063 647.161 140.867 648.623 140.867Z" fill="white"/>
<path fill-rule="evenodd" clip-rule="evenodd" d="M648.623 166.117H696.464C697.926 166.117 699.122 167.313 699.122 168.775C699.122 170.237 697.926 171.433 696.464 171.433H648.623C647.161 171.433 645.965 170.237 645.965 168.775C645.965 167.313 647.161 166.117 648.623 166.117Z" fill="white"/>
<path fill-rule="evenodd" clip-rule="evenodd" d="M648.623 175.42H696.464C697.926 175.42 699.122 176.616 699.122 178.077C699.122 179.539 697.926 180.735 696.464 180.735H648.623C647.161 180.735 645.965 179.539 645.965 178.077C645.965 176.616 647.161 175.42 648.623 175.42Z" fill="white"/>
<path fill-rule="evenodd" clip-rule="evenodd" d="M648.623 183.393H696.464C697.926 183.393 699.122 184.589 699.122 186.051C699.122 187.513 697.926 188.709 696.464 188.709H648.623C647.161 188.709 645.965 187.513 645.965 186.051C645.965 184.589 647.161 183.393 648.623 183.393Z" fill="white"/>
<path fill-rule="evenodd" clip-rule="evenodd" d="M648.623 192.696H696.464C697.926 192.696 699.122 193.892 699.122 195.354C699.122 196.816 697.926 198.012 696.464 198.012H648.623C647.161 198.012 645.965 196.816 645.965 195.354C645.965 193.892 647.161 192.696 648.623 192.696Z" fill="white"/>
<path fill-rule="evenodd" clip-rule="evenodd" d="M672.119 347.969C670.577 347.969 669.022 347.995 667.481 348.075C666.298 348.142 664.504 347.902 663.507 348.633C662.471 349.391 662.537 350.959 662.71 352.062C663.56 357.896 665.66 363.079 670.032 367.212C676.77 373.577 684.478 376.82 693.621 378.255C700.04 379.265 705.954 377.857 710.685 373.298C714.14 379.704 716.758 386.787 718.06 393.937C718.711 397.472 718.911 400.953 718.791 404.542C718.711 406.841 718.592 409.14 718.339 411.425C718.233 412.422 717.728 413.924 718.113 414.867C718.565 415.97 720.107 416.077 720.811 415.133C721.382 414.349 721.276 412.808 721.396 411.877C721.595 410.336 721.768 408.794 721.901 407.239C722.113 404.728 722.273 402.216 722.26 399.704C722.233 394.056 720.97 388.382 719.256 383.013C715.96 372.714 710.605 363.57 702.286 356.394C697.169 351.982 691.309 350.188 684.664 349.231C680.518 348.673 676.318 347.969 672.119 347.969Z" fill="#89C5CC"/>
<path fill-rule="evenodd" clip-rule="evenodd" d="M696.013 388.9C679.295 388.9 668.039 402.375 662.71 416.382C660.703 421.658 660.238 427.466 659.454 433.007C659.201 434.788 659.294 437.499 658.577 439.081C658.311 439.652 657.713 439.865 658.005 440.649C658.178 441.127 658.524 441.42 659.029 441.513C660.079 441.712 661.567 440.556 662.471 440.104C669.953 436.356 674.87 430.549 678.87 423.452C681.355 419.054 683.88 414.482 685.355 409.658C686.259 406.708 686.777 403.598 687.096 400.542C687.215 399.332 687.335 398.096 687.322 396.887C687.308 395.678 686.75 395.053 686.352 394.003C691.933 391.89 698.232 391.319 703.88 393.498C709.103 395.518 713.449 399.438 715.881 404.356C716.518 405.631 716.997 406.987 717.356 408.356C717.582 409.259 717.595 410.429 718.033 411.239C719.083 413.206 721.276 411.891 721.063 410.057C720.479 404.927 717.542 399.784 713.794 396.222C709.076 391.731 702.671 388.9 696.013 388.9Z" fill="#89C5CC"/>
<path fill-rule="evenodd" clip-rule="evenodd" d="M723.415 93.0255H890.649C895.818 93.0255 900.004 97.2117 900.004 102.381V436.848C900.004 442.017 895.818 446.204 890.649 446.204H723.415C718.246 446.204 714.06 442.017 714.06 436.848V102.381C714.06 97.2117 718.246 93.0255 723.415 93.0255Z" fill="#DDE3E9"/>
<path d="M806.447 423.984C816.135 423.984 823.989 416.13 823.989 406.442C823.989 396.754 816.135 388.9 806.447 388.9C796.759 388.9 788.905 396.754 788.905 406.442C788.905 416.13 796.759 423.984 806.447 423.984Z" fill="white"/>
<path d="M791.244 116.415C792.536 116.415 793.583 115.368 793.583 114.076C793.583 112.784 792.536 111.737 791.244 111.737C789.952 111.737 788.905 112.784 788.905 114.076C788.905 115.368 789.952 116.415 791.244 116.415Z" fill="white"/>
<path fill-rule="evenodd" clip-rule="evenodd" d="M801.77 111.737H821.65C822.94 111.737 823.989 112.787 823.989 114.076C823.989 115.365 822.94 116.415 821.65 116.415H801.77C800.481 116.415 799.431 115.365 799.431 114.076C799.431 112.787 800.481 111.737 801.77 111.737Z" fill="white"/>
<path fill-rule="evenodd" clip-rule="evenodd" d="M735.111 125.77H878.956C881.534 125.77 883.633 127.87 883.633 130.448V184.243C883.633 186.822 881.534 188.921 878.956 188.921H735.111C732.533 188.921 730.434 186.822 730.434 184.243V130.448C730.434 127.87 732.533 125.77 735.111 125.77Z" fill="white"/>
<path fill-rule="evenodd" clip-rule="evenodd" d="M744.465 144.716H822.82C824.76 144.716 826.328 146.284 826.328 148.224V150.683C826.328 152.623 824.76 154.191 822.82 154.191H744.465C742.525 154.191 740.957 152.623 740.957 150.683V148.224C740.957 146.284 742.525 144.716 744.465 144.716Z" fill="#DDE3E9"/>
<path fill-rule="evenodd" clip-rule="evenodd" d="M744.465 160.503H794.752C796.693 160.503 798.261 162.072 798.261 164.012V166.47C798.261 168.411 796.693 169.979 794.752 169.979H744.465C742.525 169.979 740.957 168.411 740.957 166.47V164.012C740.957 162.072 742.525 160.503 744.465 160.503Z" fill="#DDE3E9"/>
<path d="M867.259 165.532C871.781 165.532 875.446 161.867 875.446 157.346C875.446 152.825 871.781 149.16 867.259 149.16C862.738 149.16 859.073 152.825 859.073 157.346C859.073 161.867 862.738 165.532 867.259 165.532Z" fill="#DDE3E9"/>
<path d="M867.259 160.854C869.197 160.854 870.768 159.284 870.768 157.346C870.768 155.408 869.197 153.838 867.259 153.838C865.322 153.838 863.751 155.408 863.751 157.346C863.751 159.284 865.322 160.854 867.259 160.854Z" fill="#F2F2F2"/>
<path fill-rule="evenodd" clip-rule="evenodd" d="M735.11 198.277H878.955C881.533 198.277 883.632 200.377 883.632 202.955V242.717C883.632 245.295 881.533 247.395 878.955 247.395H735.11C732.532 247.395 730.433 245.295 730.433 242.717V202.955C730.433 200.377 732.532 198.277 735.11 198.277Z" fill="white"/>
<path fill-rule="evenodd" clip-rule="evenodd" d="M779.55 213.012H857.904C859.845 213.012 861.413 214.58 861.413 216.521V216.866C861.413 218.806 859.845 220.375 857.904 220.375H779.55C777.61 220.375 776.042 218.806 776.042 216.866V216.521C776.042 214.58 777.61 213.012 779.55 213.012Z" fill="#DDE3E9"/>
<path fill-rule="evenodd" clip-rule="evenodd" d="M779.55 225.292H829.837C831.778 225.292 833.346 226.86 833.346 228.8V229.146C833.346 231.086 831.778 232.654 829.837 232.654H779.55C777.61 232.654 776.042 231.086 776.042 229.146V228.8C776.042 226.86 777.61 225.292 779.55 225.292Z" fill="#DDE3E9"/>
<path d="M754.992 236.87C762.742 236.87 769.025 230.586 769.025 222.836C769.025 215.085 762.742 208.802 754.992 208.802C747.241 208.802 740.958 215.085 740.958 222.836C740.958 230.586 747.241 236.87 754.992 236.87Z" fill="#C5CFD6"/>
<path fill-rule="evenodd" clip-rule="evenodd" d="M735.11 256.75H878.955C881.533 256.75 883.632 258.85 883.632 261.428V301.19C883.632 303.768 881.533 305.868 878.955 305.868H735.11C732.532 305.868 730.433 303.768 730.433 301.19V261.428C730.433 258.85 732.532 256.75 735.11 256.75Z" fill="white"/>
<path fill-rule="evenodd" clip-rule="evenodd" d="M744.465 271.485H822.82C824.76 271.485 826.328 273.054 826.328 274.994V275.339C826.328 277.28 824.76 278.848 822.82 278.848H744.465C742.525 278.848 740.957 277.28 740.957 275.339V274.994C740.957 273.054 742.525 271.485 744.465 271.485Z" fill="#DDE3E9"/>
<path fill-rule="evenodd" clip-rule="evenodd" d="M744.465 283.765H794.752C796.693 283.765 798.261 285.333 798.261 287.274V287.619C798.261 289.559 796.693 291.127 794.752 291.127H744.465C742.525 291.127 740.957 289.559 740.957 287.619V287.274C740.957 285.333 742.525 283.765 744.465 283.765Z" fill="#AFB9C5"/>
<path d="M867.259 289.495C871.781 289.495 875.446 285.83 875.446 281.309C875.446 276.788 871.781 273.123 867.259 273.123C862.738 273.123 859.073 276.788 859.073 281.309C859.073 285.83 862.738 289.495 867.259 289.495Z" fill="#DDE3E9"/>
<path d="M867.259 284.818C869.197 284.818 870.768 283.247 870.768 281.309C870.768 279.372 869.197 277.801 867.259 277.801C865.322 277.801 863.751 279.372 863.751 281.309C863.751 283.247 865.322 284.818 867.259 284.818Z" fill="#F2F2F2"/>
<path fill-rule="evenodd" clip-rule="evenodd" d="M735.11 315.224H878.955C881.533 315.224 883.632 317.323 883.632 319.901V359.663C883.632 362.241 881.533 364.341 878.955 364.341H735.11C732.532 364.341 730.433 362.241 730.433 359.663V319.901C730.433 317.323 732.532 315.224 735.11 315.224Z" fill="white"/>
<path fill-rule="evenodd" clip-rule="evenodd" d="M779.55 329.959H857.904C859.845 329.959 861.413 331.527 861.413 333.467V333.813C861.413 335.753 859.845 337.321 857.904 337.321H779.55C777.61 337.321 776.042 335.753 776.042 333.813V333.467C776.042 331.527 777.61 329.959 779.55 329.959Z" fill="#DDE3E9"/>
<path fill-rule="evenodd" clip-rule="evenodd" d="M779.55 342.238H829.837C831.778 342.238 833.346 343.806 833.346 345.746V346.092C833.346 348.032 831.778 349.6 829.837 349.6H779.55C777.61 349.6 776.042 348.032 776.042 346.092V345.746C776.042 343.806 777.61 342.238 779.55 342.238Z" fill="#DDE3E9"/>
<path d="M754.992 353.816C762.742 353.816 769.025 347.533 769.025 339.782C769.025 332.032 762.742 325.749 754.992 325.749C747.241 325.749 740.958 332.032 740.958 339.782C740.958 347.533 747.241 353.816 754.992 353.816Z" fill="#C5CFD6"/>
<path d="M708.363 393.358C707.287 375.085 711.393 352.679 711.247 345.662L681.373 343.948C681.373 343.948 680.801 365.317 681.067 383.829C681.373 404.72 685.718 464.655 684.429 474.024C683.619 479.871 662.103 487.911 657.678 490.702C659.804 491.792 680.31 488.27 685.692 485.599C691.778 482.582 698.622 479.22 703.46 479.061C703.26 475.911 703.074 472.948 703.034 470.981C702.875 461.439 709.666 415.391 708.363 393.358Z" fill="#F7CA2C"/>
<path d="M679.1 485.599C671.777 488.257 666.647 487.513 663.764 486.423C662.195 487.154 660.654 487.805 659.259 488.416C653.93 490.742 645.398 491.646 646.328 494.078C647.059 495.978 667.179 496.855 677.957 494.596C683.047 493.533 691.778 490.091 691.778 490.091L692.11 494.755C692.11 494.755 701.785 495.287 702.821 494.45C704.403 493.174 703.858 485.665 703.299 479.047C696.721 479.22 687.379 482.596 679.1 485.599Z" fill="#1978C5"/>
<path d="M743.976 486.227C750.328 483.077 757.518 479.556 762.368 479.689C762.169 476.539 761.943 473.575 761.81 471.595C761.425 465.495 761.279 454.97 762.036 432.857C762.794 410.743 758.833 395.195 757.465 382.078C756.096 368.962 756.096 355.087 755.936 348.071L727.497 351.579C727.497 351.579 729.69 372.523 731.617 390.929C733.437 408.311 744.507 464.047 743.205 473.429C742.408 479.197 724.985 487.41 720.746 490.426C722.833 491.569 738.394 488.991 743.976 486.227Z" fill="#F7CA2C"/>
<path d="M707.656 495.676C707.656 496.978 726.926 497.47 737.238 495.224C742.102 494.161 750.435 490.719 750.435 490.719L750.754 495.383C750.754 495.383 760.654 495.676 761.651 494.825C763.153 493.549 762.807 486.2 762.276 479.662C755.963 479.529 746.594 483.064 738.328 486.2C731.059 488.964 726.049 488.047 723.351 486.905C721.823 487.742 720.427 488.459 719.364 489.031C714.5 491.636 707.656 493.164 707.656 495.676Z" fill="#1978C5"/>
<path d="M746.951 238.726C750.153 243.603 758.845 259.165 762.047 275.404C764.998 290.382 764.798 298.967 766.393 310.635C767.988 322.303 776.227 347.925 775.775 349.519C775.323 351.114 771.656 353.519 764.493 353.719C759.137 353.865 755.19 353.413 745.582 356.616C735.974 359.819 725.143 361.652 712.026 360.27C698.91 358.902 688.544 353.413 681.992 353.254C675.427 353.107 666.736 353.107 665.832 351.273C664.929 349.44 670.869 335.286 672.158 326.422C673.62 316.402 676.809 297.292 683.826 278.381C690.391 260.653 699.667 240.254 699.667 240.254C699.667 240.254 713.315 240.174 723.149 239.948C732.984 239.723 746.951 238.726 746.951 238.726Z" fill="#D84326"/>
<path d="M720.797 354.782C717.9 354.782 714.95 354.622 711.933 354.304C704.691 353.546 698.179 351.513 692.929 349.891C688.571 348.536 684.823 347.366 681.966 347.3L680.158 347.26C675.069 347.154 669.301 347.034 666.683 346.077C666.205 345.905 665.965 345.373 666.138 344.908C666.311 344.43 666.829 344.19 667.308 344.363C669.633 345.214 675.48 345.333 680.185 345.44L681.992 345.479C685.102 345.546 688.982 346.755 693.461 348.151C698.896 349.838 705.049 351.752 712.106 352.496C723.694 353.705 734.233 352.563 745.276 348.881C753.688 346.077 757.875 346.024 762.313 345.971C763.018 345.958 763.722 345.958 764.453 345.931C770.872 345.758 773.543 343.845 774.207 343.26C774.593 342.928 775.164 342.968 775.496 343.353C775.828 343.738 775.789 344.31 775.403 344.642C774.393 345.519 771.323 347.579 764.493 347.752C763.748 347.765 763.031 347.778 762.326 347.792C758.047 347.845 753.994 347.885 745.848 350.609C737.436 353.413 729.302 354.782 720.797 354.782Z" fill="#F7CA2C"/>
<path d="M723.708 348.696C720.066 348.696 716.239 348.483 712.226 348.058C704.637 347.26 697.886 345.187 691.933 343.34C687.627 342.011 683.906 340.868 680.969 340.576C678.537 340.337 676.331 340.536 674.377 340.709C672.065 340.908 670.072 341.094 668.41 340.483C667.932 340.31 667.693 339.778 667.866 339.313C668.038 338.848 668.557 338.596 669.035 338.768C670.311 339.234 672.118 339.074 674.205 338.888C676.238 338.702 678.537 338.503 681.142 338.755C684.278 339.061 688.065 340.23 692.478 341.586C698.351 343.393 705.009 345.453 712.425 346.224C725.382 347.579 736.253 346.715 745.648 343.592C753.981 340.815 756.32 340.881 759.828 340.988C760.426 341.001 761.051 341.028 761.755 341.028C768.426 341.094 771.204 339.34 772.719 338.011C773.104 337.679 773.676 337.719 774.008 338.104C774.34 338.489 774.3 339.061 773.915 339.393C772.2 340.895 769.117 342.862 762.061 342.862C761.954 342.862 761.835 342.862 761.728 342.862C761.011 342.862 760.373 342.835 759.762 342.822C756.32 342.715 754.246 342.649 746.22 345.333C739.509 347.579 732.08 348.696 723.708 348.696Z" fill="#F7CA2C"/>
<path d="M661.016 141.468C659.621 141.933 657.282 143.182 657.734 145.481C658.186 147.767 662.319 151.78 663.687 152.391C665.056 153.003 664.139 149.361 662.917 147.767C661.694 146.172 665.096 149.813 666.199 149.441C666.996 149.175 667.262 147.647 666.385 145.242C665.601 143.102 669.096 141.122 667.568 140.816C666.053 140.524 662.85 140.856 661.016 141.468Z" fill="url(#paint0_linear)"/>
<path d="M682.465 167.94C682.864 167.422 693.987 159.714 694.811 159.408C695.967 158.983 714.001 182.532 716.512 185.163C719.024 187.794 713.19 200.924 708.379 201.841C703.595 202.745 681.428 169.295 682.465 167.94Z" fill="#F7CA2C"/>
<path d="M650.65 140.444C652.258 138.823 660.324 139.753 661.401 140.059C662.464 140.365 665.135 138.159 666.743 138.079C668.351 137.999 673.242 138.903 676.125 140.524C679.315 142.318 695.262 159.887 695.262 159.887C695.262 159.887 695.036 164.458 691.036 167.209C687.023 169.96 684.445 168.698 684.445 168.698C684.445 168.698 678.797 158.398 676.856 157.136C674.916 155.873 670.105 158 666.158 157.029C662.424 156.113 657.241 151.302 658.676 150.053C660.191 148.71 663.833 151.793 665.467 152.338C667.886 153.136 672.431 152.179 672.524 150.332C672.604 148.099 665.374 146.039 659.912 144.391C656.045 143.222 649.334 141.76 650.65 140.444Z" fill="#F7CA2C"/>
<path d="M685.813 169.893C683.367 169.893 681.959 168.711 681.866 168.631C681.48 168.299 681.441 167.727 681.773 167.342C682.105 166.957 682.69 166.917 683.062 167.249C683.168 167.342 685.826 169.482 690.517 166.438C694.119 164.099 694.331 159.9 694.331 159.847C694.358 159.342 694.783 158.943 695.275 158.97C695.78 158.983 696.178 159.408 696.152 159.913C696.139 160.126 695.926 165.096 691.501 167.967C689.255 169.442 687.341 169.893 685.813 169.893Z" fill="#1AA9E8"/>
<path d="M740.847 147.069C743.292 152.106 752.435 169.635 751.824 183.216C751.212 196.798 747.558 210.818 747.093 221.343C746.627 231.869 746.946 238.726 746.946 238.726C746.946 238.726 736.886 244.972 721.63 244.52C706.839 244.082 699.676 240.254 699.676 240.254C699.676 240.254 699.238 224.108 697.39 213.104C695.942 204.493 692.393 199.456 692.354 189.768C692.3 177.382 711.371 161.369 717.059 152.717C721.723 145.607 740.847 147.069 740.847 147.069Z" fill="#0C6F63"/>
<path d="M723.251 245.464C722.706 245.464 722.161 245.45 721.603 245.437C706.772 244.998 699.543 241.224 699.237 241.065C698.798 240.826 698.626 240.281 698.865 239.829C699.104 239.377 699.662 239.218 700.101 239.444C700.167 239.483 707.304 243.178 721.656 243.603C736.434 244.055 746.361 238.008 746.454 237.942C746.879 237.676 747.451 237.809 747.717 238.234C747.982 238.659 747.849 239.231 747.424 239.497C747.026 239.749 737.67 245.464 723.251 245.464Z" fill="#9E0216"/>
<path d="M755.41 96.8627C757.696 96.9823 764.699 95.1616 769.935 94.0055C780.275 91.7197 790.428 91.8526 793.032 99.0421C795.278 105.222 791.544 110.351 792.155 114.67C792.992 120.544 810.534 125.501 810.867 137.236C811.199 148.492 801.949 152.558 799.424 157.475C796.913 162.393 791.903 177.316 774.494 176.12C764.54 175.429 761.802 169.569 761.802 165.489C761.802 160.253 766.839 156.226 764.434 152.452C762.028 148.678 754.334 151.176 752.659 146.738C750.825 141.9 754.945 137.927 758.028 135.535C761.111 133.129 765.696 130.618 764.66 127.069C763.636 123.521 757.337 122.631 757.563 119.069C757.829 114.91 765.457 111.826 764.194 107.627C763.238 104.464 757.789 105.115 753.098 104.198C748.433 103.268 755.41 96.8627 755.41 96.8627Z" fill="#003C66"/>
<path d="M738.557 126.338C737.972 131.641 740.843 147.083 740.843 147.083C740.843 147.083 733.68 154.512 723.155 155.017C717.985 155.256 717.055 152.731 717.055 152.731L719.194 131.534C719.194 131.534 722.41 125.501 728.949 122.989C735.5 120.478 737.946 122.83 737.946 122.83L738.557 126.338Z" fill="#F7CA2C"/>
<path d="M735.659 87.9054C726.356 83.9452 719.419 84.1179 719.419 84.1179C712.163 88.0649 692.88 124.119 705 132.89C712.482 138.299 725.306 132.784 733.825 125.421C734.343 125.581 734.901 125.674 735.486 125.674C738.45 125.674 740.855 123.348 740.855 120.464C740.855 119.64 740.656 118.87 740.31 118.179C741.094 116.943 741.706 115.733 742.064 114.577C744.164 107.853 744.961 91.8789 735.659 87.9054Z" fill="#F7CA2C"/>
<path d="M721.214 109.74C721.081 109.74 720.935 109.713 720.802 109.673C720.085 109.448 719.673 108.677 719.912 107.946C720.337 106.604 721.866 104.119 722.849 103.188C723.394 102.67 724.271 102.683 724.789 103.241C725.307 103.786 725.294 104.663 724.736 105.182C724.098 105.78 722.796 107.893 722.53 108.77C722.344 109.355 721.799 109.74 721.214 109.74Z" fill="#0A304F"/>
<path d="M708.23 102.484C708.111 102.484 708.004 102.471 707.885 102.431C707.287 102.245 706.954 101.594 707.141 100.996C707.552 99.7064 708.788 97.713 709.732 96.7961C710.197 96.3708 710.915 96.3841 711.353 96.8492C711.792 97.3011 711.765 98.032 711.313 98.4705C710.649 99.0951 709.612 100.783 709.32 101.7C709.174 102.178 708.722 102.484 708.23 102.484Z" fill="#0A304F"/>
<path d="M721.293 115.149C720.336 115.149 719.446 114.936 718.649 114.498C716.961 113.594 715.858 111.88 715.526 109.66C715.22 107.521 715.672 105.169 716.828 103.016C718.622 99.6668 721.718 97.5006 724.735 97.5006C725.692 97.5006 726.582 97.7132 727.38 98.1518C730.795 99.9724 731.606 105.129 729.2 109.634C727.406 112.983 724.297 115.149 721.293 115.149ZM724.722 98.8694C722.25 98.8694 719.566 100.796 718.024 103.654C717.014 105.541 716.602 107.601 716.868 109.448C717.12 111.215 717.984 112.571 719.273 113.262C719.884 113.581 720.549 113.753 721.28 113.753C723.752 113.753 726.449 111.827 727.978 108.969C730.024 105.129 729.466 100.81 726.715 99.3478C726.117 99.0422 725.439 98.8694 724.722 98.8694Z" fill="black"/>
<path d="M705.944 106.511C705.267 106.511 704.629 106.351 704.057 106.059C701.32 104.597 700.908 100.185 703.127 96.0387C704.801 92.9024 707.605 90.7894 710.091 90.7894C710.768 90.7894 711.406 90.9489 711.978 91.2413C713.333 91.9722 714.17 93.4473 714.303 95.4141C714.436 97.2614 713.944 99.3345 712.908 101.261C711.233 104.398 708.429 106.511 705.944 106.511ZM710.104 92.1449C708.137 92.1449 705.772 94.0055 704.35 96.6633C702.555 100.026 702.728 103.76 704.722 104.823C705.094 105.022 705.506 105.115 705.958 105.115C707.924 105.115 710.29 103.255 711.712 100.597C712.629 98.8959 713.067 97.0753 712.948 95.4939C712.841 94.0187 712.27 92.929 711.34 92.4373C710.968 92.2513 710.556 92.1449 710.104 92.1449Z" fill="black"/>
<path d="M714.237 99.6534C710.636 102.643 700.629 107.587 700.363 109.341C700.004 111.68 705.36 112.996 706.582 112.996C707.805 112.996 708.695 109.687 711.951 105.155C713.785 102.577 716.151 98.0586 714.237 99.6534Z" fill="#F7CA2C"/>
<path d="M717.879 103.241C717.6 103.241 717.347 103.082 717.241 102.816C716.297 100.464 715.088 99.7595 713.068 100.384C712.709 100.504 712.324 100.291 712.204 99.9323C712.098 99.5735 712.297 99.1881 712.656 99.0685C715.38 98.218 717.294 99.2811 718.503 102.298C718.65 102.657 718.477 103.055 718.118 103.188C718.052 103.228 717.972 103.241 717.879 103.241Z" fill="black"/>
<path d="M722.489 155.934C717.346 155.934 716.257 153.156 716.204 153.037C716.031 152.558 716.27 152.04 716.748 151.867C717.227 151.695 717.745 151.934 717.918 152.412C717.944 152.465 718.795 154.313 723.114 154.1C733.161 153.622 740.124 146.525 740.191 146.445C740.536 146.087 741.121 146.073 741.48 146.419C741.839 146.764 741.852 147.349 741.506 147.708C741.201 148.027 733.958 155.416 723.207 155.921C722.955 155.934 722.715 155.934 722.489 155.934Z" fill="#710110"/>
<path d="M734.038 115.468C733.068 115.707 731.673 115.282 731.779 113.301C731.965 109.567 738.384 103.839 738.225 98.5503C738.025 92.1315 725.972 90.6963 717.679 87.4537C708.735 83.9586 708.855 73.646 711.088 70.2705C713.546 66.5495 717.892 67.7721 719.726 69.606C721.56 71.44 722.397 73.4732 723.992 73.4201C725.839 73.3669 725.148 69.7655 727.952 69.7655C730.796 69.7655 733.241 75.0015 735.195 77.1677C738.53 80.8621 756.032 86.643 756.923 99.2015C758.145 116.438 740.989 129.847 739.088 129.847C735.846 129.847 736.019 126.086 737.401 125.342C738.796 124.584 741.401 123.003 740.736 119.375C740.085 115.733 736.191 114.936 734.038 115.468Z" fill="#003C66"/>
<path d="M737.44 115.627C738.968 116.199 740.164 117.421 740.643 118.963C740.762 118.803 740.815 118.591 740.749 118.391C739.646 114.458 733.918 110.963 730.835 109.089C730.184 108.69 729.626 108.345 729.293 108.119C728.988 107.906 728.549 107.972 728.337 108.278C728.111 108.584 728.19 109.009 728.496 109.235C728.868 109.501 729.413 109.833 730.117 110.258C732.124 111.468 735.327 113.421 737.44 115.627Z" fill="black"/>
<path d="M629.48 159.123C631.328 158.764 633.427 164.811 634.344 168.24C635.261 171.668 635.926 177.476 639.288 181.316C642.358 184.825 652.179 188.028 652.179 188.028C652.179 188.028 653.242 193.742 650.65 196.945C648.059 200.147 644.232 199.988 644.232 199.988C644.232 199.988 632.962 188.785 628.231 185.516C623.5 182.233 620.603 177.808 619.886 174.645C619.115 171.256 618.557 169.569 618.929 165.834C619.128 163.801 619.925 161.117 619.925 161.117C619.925 161.117 626.942 172.253 628.763 175.137C630.663 174.751 629.76 169.489 629.52 167.363C629.294 165.223 627.607 159.482 629.48 159.123Z" fill="#F7CA2C"/>
<path d="M728.644 161.954C736.644 160.572 741.349 164.173 743.847 169.609C746.598 175.562 746.027 182.911 741.748 187.177C737.482 191.443 709.986 224.122 695.501 223.71C679.354 223.245 643.459 200.972 643.101 198.872C642.742 196.785 649.559 187.084 650.489 187.43C651.42 187.762 688.377 201.729 693.866 200.254C699.368 198.766 723.089 162.924 728.644 161.954Z" fill="#F7CA2C"/>
<path d="M192.557 96.5871C198.045 85.61 220.199 38.1271 222.484 35.2301C224.77 32.333 226.564 31.7615 227.216 27.3761C227.747 23.7348 227.468 21.2231 228.132 18.3792C229.049 14.4854 234.565 4.10638 233.169 1.0764C232.252 -0.903714 228.598 4.35887 227.216 6.03333C225.847 7.70779 221.767 14.2594 220.797 13.6614C220.544 11.1099 220.876 2.53823 220.876 2.53823C219.136 4.59808 216.743 9.86067 215.361 15.3492C213.979 20.8377 214.405 22.7248 211.348 28.9708C208.305 35.2301 183.214 62.6726 170.403 91.2713C169.659 92.9192 168.942 94.6069 168.237 96.3213C173.646 100.122 180.889 103.949 189.607 105.464C190.524 101.77 191.52 98.6602 192.557 96.5871Z" fill="#F7CA2C"/>
<path d="M164.305 494.673C165.993 498.899 173.209 500.667 179.255 502.102C185.78 503.643 190.418 504.534 190.153 507.139C189.847 510.115 175.667 511.099 165.368 510.793C155.069 510.487 147.613 509.278 146.098 508.135C144.49 506.926 144.557 496.002 144.942 493.57C145.328 491.138 164.305 494.673 164.305 494.673Z" fill="#0A304F"/>
<path d="M153.553 246.734C152.185 251.77 148.676 263.359 147.454 285.313C146.231 307.267 147.759 374.67 147.759 391.149C147.759 407.615 143.799 436.891 143.493 456.719C143.188 476.547 142.789 495.191 143.945 495.909C146.497 497.504 161.142 498.66 166.059 495.909C166.922 495.431 174.909 426.22 180.398 397.249C184.026 378.139 198.086 274.336 199.003 259.093C199.92 243.836 153.553 246.734 153.553 246.734Z" fill="#0A304F"/>
<path d="M156.743 491.284C149.953 491.284 144.717 489.929 142.79 488.959C142.338 488.733 142.152 488.174 142.391 487.736C142.617 487.284 143.162 487.098 143.614 487.337C146.271 488.679 155.84 490.792 167.003 488.374C167.495 488.267 167.986 488.586 168.093 489.078C168.199 489.57 167.893 490.061 167.388 490.168C163.627 490.965 160.013 491.284 156.743 491.284Z" fill="#0A304F"/>
<path d="M238.58 499.962C240.028 502.554 246.474 505.77 252.534 507.205C259.059 508.747 263.697 509.637 263.431 512.242C263.125 515.218 248.946 516.202 238.646 515.896C228.347 515.591 221.41 515.205 219.895 514.062C218.287 512.853 217.45 504.228 217.835 501.783C218.221 499.338 238.58 499.962 238.58 499.962Z" fill="#0A304F"/>
<path d="M226.22 257.564C226.911 266.721 233.077 377.66 234.459 395.96C235.828 414.259 241.848 498.726 241.091 500.348C239.828 503.019 220.386 505.996 217.422 503.365C215.522 501.677 209.382 458.872 204.492 430.818C199.615 402.764 188.943 353.048 183.441 333.526C177.94 314.004 167.893 282.057 173.607 253.697C178.87 247.744 190.538 247.89 203.349 250.269C216.532 252.701 226.22 257.564 226.22 257.564Z" fill="#0A304F"/>
<path d="M222.912 497.995C219.324 497.995 216.413 497.61 215.164 497.145C214.686 496.972 214.446 496.441 214.632 495.962C214.805 495.484 215.337 495.258 215.815 495.431C218.752 496.52 232.533 497.118 240.467 492.148C240.892 491.882 241.464 492.015 241.729 492.44C241.995 492.866 241.862 493.437 241.437 493.703C236.161 496.999 228.653 497.995 222.912 497.995Z" fill="#0A304F"/>
<path d="M201.676 152.578C185.423 148.02 187.018 150.492 185.25 149.695C183.31 147.741 185.715 121.282 189.623 105.481C180.905 103.966 173.675 100.139 168.253 96.3378C156.758 124.338 150.259 160.02 149.834 188.034C149.382 217.776 150.525 247.504 150.751 248.886C150.977 250.255 171.788 263.066 194.898 263.292C217.929 263.518 226.235 257.578 226.235 257.578C226.235 257.578 230.846 176.061 230.102 173.775C229.344 171.476 217.929 157.137 201.676 152.578Z" fill="#D84326"/>
<path d="M198.128 257.737C197.424 257.737 196.706 257.737 195.962 257.724C168.652 257.259 151.708 245.205 149.728 243.012C149.396 242.64 149.422 242.055 149.795 241.723C150.167 241.391 150.751 241.418 151.084 241.79C152.678 243.57 169.383 255.438 195.988 255.903C218.434 256.288 225.929 250.481 226.009 250.415C226.408 250.096 226.979 250.162 227.298 250.561C227.617 250.959 227.551 251.531 227.152 251.85C226.846 252.089 219.537 257.737 198.128 257.737Z" fill="#9E0216"/>
<path d="M215.523 170.572C215.191 170.572 214.872 170.399 214.713 170.08C211.855 164.632 202.075 157.03 197.689 155.316C197.224 155.13 196.985 154.598 197.171 154.133C197.357 153.668 197.888 153.429 198.353 153.615C203.098 155.462 213.251 163.356 216.334 169.23C216.573 169.682 216.4 170.227 215.949 170.466C215.816 170.545 215.67 170.572 215.523 170.572Z" fill="#9E0216"/>
<path d="M170.075 142.771C169.637 142.771 169.251 142.452 169.171 142.013C167.298 131.262 173.291 114.026 176.175 105.747C176.8 103.953 177.291 102.544 177.477 101.813C177.61 101.321 178.102 101.029 178.594 101.162C179.085 101.295 179.378 101.787 179.245 102.278C179.032 103.076 178.554 104.444 177.903 106.345C175.072 114.478 169.185 131.422 170.979 141.695C171.072 142.186 170.726 142.665 170.235 142.758C170.181 142.771 170.128 142.771 170.075 142.771Z" fill="#9E0216"/>
<path d="M158.978 146.625C158.725 146.625 158.473 146.518 158.287 146.319C157.954 145.934 157.994 145.362 158.366 145.03C160.2 143.422 170.074 137.987 181.517 142.811C181.982 143.01 182.194 143.542 182.008 144.007C181.809 144.472 181.277 144.685 180.812 144.498C170.194 140.02 160.958 145.203 159.576 146.399C159.403 146.545 159.19 146.625 158.978 146.625Z" fill="#9E0216"/>
<path d="M247.439 302.234C244.848 294.3 242.11 242.777 237.486 206.936C224.635 207.281 214.163 210.497 208.621 213.155C209.923 219.188 211.811 227.069 214.787 237.448C222.947 265.834 233.884 298.18 234.084 305.157C234.19 309.277 230.695 314.101 230.243 320.188C229.937 324.267 231.598 330.899 233.167 330.779C235.147 330.633 234.987 324.6 235.771 321.742C237.034 317.224 239.718 315.683 239.718 315.683C239.718 315.683 245.433 315.696 255.081 315.696C253.725 310.819 248.569 305.689 247.439 302.234Z" fill="#F7CA2C"/>
<path d="M229.353 172.782C220.196 163.014 202.668 173.234 200.98 186.045C200.621 188.782 203.12 191.998 204.94 196.716C206.03 199.52 206.708 204.358 208.608 213.142C214.15 210.484 224.609 207.268 237.473 206.922C235.267 189.806 232.622 176.264 229.353 172.782Z" fill="#D84326"/>
<path d="M208.62 214.059C208.274 214.059 207.955 213.873 207.796 213.541C207.583 213.089 207.769 212.544 208.221 212.318C211.092 210.949 221.683 206.431 237.458 206.019C237.963 206.019 238.388 206.404 238.401 206.909C238.414 207.414 238.016 207.84 237.511 207.853C225.271 208.172 214.773 211.228 209.018 213.979C208.885 214.032 208.753 214.059 208.62 214.059Z" fill="#9E0216"/>
<path d="M200.979 186.962C200.939 186.962 200.899 186.962 200.86 186.948C200.355 186.882 200.009 186.417 200.076 185.925C201.046 178.51 207.345 171.32 215.053 168.848C220.847 166.988 226.295 168.184 230.016 172.157C230.362 172.53 230.349 173.101 229.977 173.446C229.605 173.792 229.033 173.779 228.688 173.407C224.289 168.715 218.614 169.619 215.624 170.589C208.541 172.862 202.773 179.413 201.896 186.164C201.83 186.63 201.431 186.962 200.979 186.962Z" fill="#9E0216"/>
<path d="M209.401 88.865C212.883 94.6326 219.82 95.7223 220.391 97.6758C220.963 99.6161 217.188 103.51 216.046 104.201C214.903 104.892 209.414 93.6757 208.949 92.4265C208.484 91.1773 209.401 88.865 209.401 88.865Z" fill="#F7CA2C"/>
<path d="M199.739 76.7981C199.739 76.7981 183.898 81.4361 176.124 92.2536C171.831 98.2338 177.16 108.759 182.795 116.998C180.908 118.606 179.938 120.467 179.938 120.467L179.207 122.487C178.781 127.098 173.771 142.979 171.937 147.71C171.26 149.464 176.017 155.936 186.409 156.455C195.566 156.906 201.666 152.561 201.666 152.561L202.543 132.494C202.543 132.494 202.848 131.231 203.181 129.53C207.606 128.972 212.643 127.231 216.842 122.912C227.367 112.081 205.639 81.5424 199.739 76.7981Z" fill="#F7CA2C"/>
<path d="M196.562 104.613C197.719 103.829 197.4 101.41 194.662 98.6592C191.925 95.9083 189.014 93.4764 189.559 90.5793C190.091 87.7088 199.553 84.639 203.991 81.3432C211.287 75.9344 213.653 62.8178 209.227 61.9806C203.154 60.8244 201.227 69.1436 199.619 69.1436C197.719 69.1436 198.689 64.6916 195.951 65.0239C191.991 65.489 190.463 71.137 188.177 72.8779C184.748 75.5092 166.529 81.1173 165.372 94.6857C164.442 105.729 171.366 112.015 174.409 115.962C177.652 120.161 178.648 122.314 179.207 122.487C180.217 122.793 184.669 122.128 188.469 120.547C192.589 118.833 195.101 116.653 194.303 115.63C193.506 114.606 187.512 113.45 187.1 108.427C186.795 104.772 189.28 103.164 191.22 103.51C193.16 103.855 195.26 105.49 196.562 104.613Z" fill="#710110"/>
<path d="M199.341 108.307C200.059 108.334 200.604 113.185 203.408 113.849C205.268 114.288 211.275 110.128 213.986 108.932C215.634 108.201 218.557 107.709 218.757 108.454C218.943 109.211 219.368 111.962 220.391 114.42C221.255 116.494 223.249 118.407 222.279 122.66C220.857 128.906 209.986 133.584 202.544 132.494C202.371 130.727 202.119 127.976 200.883 123.005C199.447 117.264 197.228 112.042 197.281 110.992C197.361 109.49 198.118 108.268 199.341 108.307Z" fill="#710110"/>
<path d="M207.315 96.7454C206.717 96.7454 206.159 96.5062 205.999 96.1607C205.68 95.4962 204.245 94.0344 203.953 93.8085C203.501 93.463 203.607 92.958 204.205 92.6789C204.803 92.4131 205.64 92.4663 206.106 92.7985C206.478 93.0643 208.205 94.7786 208.644 95.7221C208.843 96.1474 208.418 96.5992 207.687 96.7056C207.554 96.7454 207.435 96.7454 207.315 96.7454Z" fill="#0A304F"/>
<path d="M186.427 156.467C195.584 156.919 201.684 152.573 201.684 152.573L202.003 145.264C199.704 146.5 194.72 148.64 188.168 148.308C180.208 147.909 175.57 144.028 174.122 141.437C173.258 144.095 172.474 146.367 171.942 147.71C171.264 149.477 176.035 155.936 186.427 156.467Z" fill="#D84326"/>
<path d="M187.781 157.411C187.316 157.411 186.851 157.397 186.372 157.371C178.691 156.985 173.747 153.424 171.834 150.474C171.05 149.264 170.784 148.175 171.089 147.391C171.276 146.925 171.807 146.686 172.272 146.872C172.737 147.058 172.977 147.577 172.804 148.055C172.777 148.148 172.83 148.773 173.601 149.809C175.475 152.361 179.847 155.218 186.465 155.55C195.196 155.975 201.084 151.869 201.137 151.829C201.549 151.537 202.12 151.63 202.413 152.042C202.705 152.454 202.612 153.025 202.2 153.318C201.961 153.49 196.353 157.411 187.781 157.411Z" fill="#9E0216"/>
<path fill-rule="evenodd" clip-rule="evenodd" d="M115.212 185.544C118.398 181.002 124.316 169.45 128.807 167.832C131.7 166.79 130.85 177.603 130.891 179.667C131.032 187.647 130.253 195.588 129.292 203.498C127.563 217.781 121.908 230.496 114.15 242.644C110.154 248.896 105.481 255.228 98.9971 259.132C96.0131 260.933 92.4222 261.226 89.4787 262.774C86.0496 264.574 87.9108 263.118 86.3733 266.698C84.2288 271.665 83.541 278.068 82.5396 283.368C77.9776 307.696 66.9317 436.271 68.8435 461.013C69.0154 463.208 65.9606 463.734 65.7988 461.054C64.9895 446.862 72.0095 348.551 75.5499 316.405C79.0903 284.259 82.6812 255.855 86.2721 244.738C90.6318 231.244 98.5116 215.019 105.066 202.436C108.101 196.589 111.419 190.945 115.212 185.544Z" fill="#69A0AC"/>
<path fill-rule="evenodd" clip-rule="evenodd" d="M-18.5525 286.13C-13.9095 287.04 -6.32308 297.54 -2.4995 301.546C2.05238 306.3 6.16931 311.368 10.0637 316.678C18.4392 328.108 25.9245 340.257 32.287 352.931C42.6653 373.587 50.98 394.798 57.0189 417.295C60.711 431.062 63.1083 445.334 64.5244 459.516C64.7874 462.187 67.5995 482.801 63.5533 483.348C59.922 483.843 61.0448 467.699 60.8728 465.504C58.8902 440.722 52.9626 416.607 44.7086 393.251C42.908 388.163 41.239 381.932 38.3663 377.35C36.2926 374.052 38.3562 375.205 34.7147 373.951C31.589 372.879 28.0284 373.142 24.832 371.827C17.8828 368.974 12.3194 363.441 7.44383 357.878C-2.03419 347.064 -9.54985 335.371 -13.4645 321.513C-15.6393 313.826 -17.632 306.097 -18.7447 298.177C-19.0279 296.124 -21.5365 285.543 -18.5525 286.13Z" fill="#69A1AC"/>
<path opacity="0.5" fill-rule="evenodd" clip-rule="evenodd" d="M-0.223478 111.409C17.2659 141.734 31.6296 175.044 40.9154 208.789C46.5395 229.232 50.4642 250.211 54.3788 271.038C60.4278 303.286 66.1429 335.533 67.7715 368.347C69.4102 401.353 72.6471 439.427 61.8338 471.22C67.2354 438.942 62.0968 404.58 61.1864 372.1C60.7515 356.593 59.4871 341.238 57.8383 325.822C56.2299 310.872 53.6101 295.992 51.1723 281.153C49.9787 273.931 48.7345 266.719 47.46 259.507C47.0756 257.352 46.9239 250.969 45.5583 249.503C44.1826 248.026 37.1727 247.419 34.9777 246.336C30.5472 244.152 26.3797 241.046 22.6877 237.769C15.6171 231.477 9.46697 223.263 4.61163 215.161C-6.62645 196.407 -11.1176 173.537 -10.885 151.829C-10.8445 147.611 -4.06729 102.224 -6.7883 101.597C-6.62645 101.405 -6.46461 101.202 -6.323 101C-4.25948 104.449 -2.23642 107.929 -0.223478 111.409Z" fill="#89C5CC"/>
<path fill-rule="evenodd" clip-rule="evenodd" d="M188.507 220.785C188.78 220.401 190.53 217.69 189.65 217.862C191.451 217.508 187.172 220.846 191.663 218.803C189.529 220.816 190.763 223.425 190.793 226.136C190.844 230.536 190.105 234.896 189.276 239.195C187.971 245.993 186.019 252.608 183.186 258.93C177.016 272.707 166.547 285.978 154.125 294.596C147.985 298.855 141.977 300.302 134.977 302.254C130.557 303.488 130.202 305.774 127.856 310.063C122.97 318.995 118.175 327.896 113.866 337.131C108.718 348.157 103.731 359.203 99.0171 370.421C83.1462 408.222 70.229 447.378 63.4517 487.91C63.2899 464.028 68.8128 439.427 75.7822 416.668C80.8601 400.079 87.4654 384.097 94.5158 368.266C96.2252 364.432 98.8148 359.496 99.5329 355.268C100.039 352.304 98.4911 349.452 97.7729 346.326C95.0013 334.157 95.2036 320.532 97.6313 308.293C100.312 294.809 108.08 288.548 121.21 286.636C126.015 285.938 132.114 286.191 136.514 284.147C141.309 281.922 143.292 274.588 146.013 269.885C153.336 257.251 162.045 245.133 172.039 234.481C174.811 231.538 177.785 228.817 180.941 226.288C182.944 224.7 187.152 222.737 188.507 220.785Z" fill="#89C5CC"/>
<path fill-rule="evenodd" clip-rule="evenodd" d="M41.2896 462.116H87.8806C89.9744 462.116 91.6738 463.815 91.6738 465.909C91.6738 466.091 91.6637 466.283 91.6334 466.465L88.0323 490.883C86.9297 498.328 80.547 503.841 73.0212 503.841H56.1489C48.6231 503.841 42.2404 498.328 41.1378 490.883L37.5368 466.465C37.2333 464.392 38.6596 462.47 40.7332 462.156C40.9254 462.126 41.1075 462.116 41.2896 462.116Z" fill="#C1DEE2"/>
<path opacity="0.5" fill-rule="evenodd" clip-rule="evenodd" d="M138.871 343.221C147.165 337.131 156.148 348.622 148.642 354.712C144.495 358.08 140.155 356.876 137.707 354.074C136.119 356.006 134.642 358.029 133.216 359.739C128.867 364.938 124.77 370.269 120.845 375.711C112.692 387.03 105.703 398.996 98.3994 410.74C91.1872 422.332 84.0356 433.975 77.5012 445.861C71.9681 455.925 64.5839 467.77 62.6924 478.806C65.5651 455.399 76.4795 432.903 89.4676 412.268C102.354 391.804 117.143 369.45 137.1 353.296C135.067 350.311 135.017 346.053 138.871 343.221Z" fill="#C1DEE2"/>
<defs>
<linearGradient id="paint0_linear" x1="657.696" y1="146.57" x2="667.981" y2="146.57" gradientUnits="userSpaceOnUse">
<stop stop-color="#C16846"/>
<stop offset="0.2653" stop-color="#D27565"/>
<stop offset="0.5308" stop-color="#DE7F7B"/>
<stop offset="0.7814" stop-color="#E58589"/>
<stop offset="1" stop-color="#E8878E"/>
</linearGradient>
</defs>
</svg>
