<svg width="1006" height="516" viewBox="0 0 1006 516" fill="none" xmlns="http://www.w3.org/2000/svg">
<g opacity="0.5">
<path fill-rule="evenodd" clip-rule="evenodd" d="M894.73 248.45C911.16 276.01 930.29 302.69 941.78 332.82C941.32 329.27 940.83 325.72 940.28 322.18C937.36 303.4 933.74 284.76 929.93 266.14C927.99 256.66 925.94 247.21 923.84 237.77C922.71 232.7 921.59 227.62 920.44 222.55C920.15 221.32 919.91 219.17 919.56 217C930.73 253.64 941.49 290.31 949.37 327.83C950.4 332.75 951.28 337.67 952 342.58C952.25 341.46 952.49 340.34 952.75 339.22C955.94 325.84 960.72 312.56 966.41 300.05C969.13 294.07 972.26 288.21 975.94 282.76C978.23 279.36 983.65 275.32 985.74 271.84C974.29 292.84 970.16 319.11 963.55 341.94C961.94 347.51 960.31 353.07 958.72 358.64C968.69 338.65 984.16 322.22 1005.66 315.1C979.63 332.3 964.02 362.42 953.5 393.22C953.47 393.59 953.42 393.95 953.39 394.32C956.49 388.44 960.39 383.13 965.67 379.41C976.98 371.44 989.53 373.76 1000.51 380.6C991.9 375.13 976.33 380.11 969.09 385.67C963.9 389.65 959.47 395 955.62 400.21C954.7 401.46 953.44 402.92 952.11 404.47C950.25 416.57 947.21 428.59 942.91 440.51C943.62 437.09 943.11 431.61 943.3 429.06C943.32 428.78 943.34 428.51 943.36 428.23C942.71 430.84 942.07 433.42 941.47 435.96C942.68 431.11 943.34 426.06 943.85 420.95C943.98 418.75 944.11 416.56 944.25 414.36C944.21 410.19 944.04 406.01 943.74 401.82C942.71 397.75 941.56 393.91 940.61 390.71C937.18 379.18 932.15 368.14 925.96 357.83C920.31 348.43 913.55 339.91 905.75 332.21C901.54 328.06 897.14 324.11 892.8 320.1C891.23 318.65 888.42 315.09 886 313.23C903.67 322.97 921.86 333.51 934.75 349.21C933.24 343.41 931.6 337.68 929.86 332.08C921.03 303.64 909.91 274.16 894.73 248.45Z" fill="#A1CECB"/>
<path fill-rule="evenodd" clip-rule="evenodd" d="M912.38 404.44C912.38 436.03 914.88 461.64 948.46 461.64C982.04 461.64 984.54 436.03 984.54 404.44" fill="#C5CFD6"/>
</g>
<path fill-rule="evenodd" clip-rule="evenodd" d="M428.245 407.691C425.427 404.887 460.777 381.644 462.478 309.642H551.198C552.899 381.644 588.249 404.887 585.431 407.691H428.245Z" fill="#A2B2BC"/>
<path fill-rule="evenodd" clip-rule="evenodd" d="M247.35 0H766.964C769.901 0 772.28 2.3788 772.28 5.31575V333.563C772.28 336.5 769.901 338.879 766.964 338.879H247.35C244.413 338.879 242.034 336.5 242.034 333.563V5.31575C242.034 2.3788 244.413 0 247.35 0Z" fill="#C3CFD7"/>
<path d="M755.005 15.9473H257.982V300.34H755.005V15.9473Z" fill="white"/>
<path fill-rule="evenodd" clip-rule="evenodd" d="M665.965 46.5127H719.122C723.521 46.5127 727.096 50.0875 727.096 54.4863V203.327C727.096 207.726 723.521 211.301 719.122 211.301H665.965C661.566 211.301 657.991 207.726 657.991 203.327V54.4863C657.991 50.0875 661.566 46.5127 665.965 46.5127Z" fill="#E7E3E3"/>
<path fill-rule="evenodd" clip-rule="evenodd" d="M288.548 46.5127H370.942C375.341 46.5127 378.916 50.0875 378.916 54.4863V261.8C378.916 266.199 375.341 269.774 370.942 269.774H288.548C284.149 269.774 280.574 266.199 280.574 261.8V54.4863C280.574 50.0875 284.149 46.5127 288.548 46.5127Z" fill="#E7E3E3"/>
<path fill-rule="evenodd" clip-rule="evenodd" d="M416.125 46.5127H618.123C626.934 46.5127 634.071 53.6491 634.071 62.4599V180.735C634.071 189.546 626.934 196.683 618.123 196.683H416.125C407.314 196.683 400.178 189.546 400.178 180.735V62.4599C400.178 53.6491 407.314 46.5127 416.125 46.5127Z" fill="#E7E3E3"/>
<path fill-rule="evenodd" clip-rule="evenodd" d="M543.703 106.979L489.217 134.222V79.7361L543.703 106.979Z" fill="white"/>
<path fill-rule="evenodd" clip-rule="evenodd" d="M400.178 170.104H634.071V191.367C634.071 200.178 626.934 207.314 618.123 207.314H416.125C407.314 207.314 400.178 200.178 400.178 191.367V170.104Z" fill="#F7F7F7"/>
<path fill-rule="evenodd" clip-rule="evenodd" d="M404.165 221.932H630.084C632.29 221.932 634.071 223.713 634.071 225.919C634.071 228.125 632.29 229.906 630.084 229.906H404.165C401.959 229.906 400.178 228.125 400.178 225.919C400.178 223.713 401.959 221.932 404.165 221.932Z" fill="#E7E3E3"/>
<path fill-rule="evenodd" clip-rule="evenodd" d="M404.165 235.222H630.084C632.29 235.222 634.071 237.002 634.071 239.208C634.071 241.414 632.29 243.195 630.084 243.195H404.165C401.959 243.195 400.178 241.414 400.178 239.208C400.178 237.002 401.959 235.222 404.165 235.222Z" fill="#E7E3E3"/>
<path fill-rule="evenodd" clip-rule="evenodd" d="M404.165 248.511H630.084C632.29 248.511 634.071 250.292 634.071 252.498C634.071 254.704 632.29 256.485 630.084 256.485H404.165C401.959 256.485 400.178 254.704 400.178 252.498C400.178 250.292 401.959 248.511 404.165 248.511Z" fill="#E7E3E3"/>
<path fill-rule="evenodd" clip-rule="evenodd" d="M404.165 261.8H630.084C632.29 261.8 634.071 263.581 634.071 265.787C634.071 267.993 632.29 269.774 630.084 269.774H404.165C401.959 269.774 400.178 267.993 400.178 265.787C400.178 263.581 401.959 261.8 404.165 261.8Z" fill="#E7E3E3"/>
<path d="M507.156 329.576C512.661 329.576 517.123 325.114 517.123 319.609C517.123 314.104 512.661 309.642 507.156 309.642C501.652 309.642 497.189 314.104 497.189 319.609C497.189 325.114 501.652 329.576 507.156 329.576Z" fill="#A2B2BC"/>
<path fill-rule="evenodd" clip-rule="evenodd" d="M668.623 62.4601H716.464C717.926 62.4601 719.122 63.6561 719.122 65.118C719.122 66.5798 717.926 67.7758 716.464 67.7758H668.623C667.161 67.7758 665.965 66.5798 665.965 65.118C665.965 63.6561 667.161 62.4601 668.623 62.4601Z" fill="white"/>
<path fill-rule="evenodd" clip-rule="evenodd" d="M668.623 114.289H716.464C717.926 114.289 719.122 115.485 719.122 116.946C719.122 118.408 717.926 119.604 716.464 119.604H668.623C667.161 119.604 665.965 118.408 665.965 116.946C665.965 115.485 667.161 114.289 668.623 114.289Z" fill="white"/>
<path fill-rule="evenodd" clip-rule="evenodd" d="M668.623 71.7626H716.464C717.926 71.7626 719.122 72.9586 719.122 74.4204C719.122 75.8823 717.926 77.0783 716.464 77.0783H668.623C667.161 77.0783 665.965 75.8823 665.965 74.4204C665.965 72.9586 667.161 71.7626 668.623 71.7626Z" fill="white"/>
<path fill-rule="evenodd" clip-rule="evenodd" d="M668.623 123.591H716.464C717.926 123.591 719.122 124.787 719.122 126.249C719.122 127.711 717.926 128.907 716.464 128.907H668.623C667.161 128.907 665.965 127.711 665.965 126.249C665.965 124.787 667.161 123.591 668.623 123.591Z" fill="white"/>
<path fill-rule="evenodd" clip-rule="evenodd" d="M668.623 79.7362H716.464C717.926 79.7362 719.122 80.9322 719.122 82.3941C719.122 83.8559 717.926 85.052 716.464 85.052H668.623C667.161 85.052 665.965 83.8559 665.965 82.3941C665.965 80.9322 667.161 79.7362 668.623 79.7362Z" fill="white"/>
<path fill-rule="evenodd" clip-rule="evenodd" d="M668.623 131.565H716.464C717.926 131.565 719.122 132.761 719.122 134.223C719.122 135.684 717.926 136.88 716.464 136.88H668.623C667.161 136.88 665.965 135.684 665.965 134.223C665.965 132.761 667.161 131.565 668.623 131.565Z" fill="white"/>
<path fill-rule="evenodd" clip-rule="evenodd" d="M668.623 89.0388H716.464C717.926 89.0388 719.122 90.2349 719.122 91.6967C719.122 93.1585 717.926 94.3546 716.464 94.3546H668.623C667.161 94.3546 665.965 93.1585 665.965 91.6967C665.965 90.2349 667.161 89.0388 668.623 89.0388Z" fill="white"/>
<path fill-rule="evenodd" clip-rule="evenodd" d="M668.623 140.867H716.464C717.926 140.867 719.122 142.063 719.122 143.525C719.122 144.987 717.926 146.183 716.464 146.183H668.623C667.161 146.183 665.965 144.987 665.965 143.525C665.965 142.063 667.161 140.867 668.623 140.867Z" fill="white"/>
<path fill-rule="evenodd" clip-rule="evenodd" d="M668.623 166.117H716.464C717.926 166.117 719.122 167.313 719.122 168.775C719.122 170.237 717.926 171.433 716.464 171.433H668.623C667.161 171.433 665.965 170.237 665.965 168.775C665.965 167.313 667.161 166.117 668.623 166.117Z" fill="white"/>
<path fill-rule="evenodd" clip-rule="evenodd" d="M668.623 175.42H716.464C717.926 175.42 719.122 176.616 719.122 178.077C719.122 179.539 717.926 180.735 716.464 180.735H668.623C667.161 180.735 665.965 179.539 665.965 178.077C665.965 176.616 667.161 175.42 668.623 175.42Z" fill="white"/>
<path fill-rule="evenodd" clip-rule="evenodd" d="M668.623 183.393H716.464C717.926 183.393 719.122 184.589 719.122 186.051C719.122 187.513 717.926 188.709 716.464 188.709H668.623C667.161 188.709 665.965 187.513 665.965 186.051C665.965 184.589 667.161 183.393 668.623 183.393Z" fill="white"/>
<path fill-rule="evenodd" clip-rule="evenodd" d="M668.623 192.696H716.464C717.926 192.696 719.122 193.892 719.122 195.354C719.122 196.816 717.926 198.012 716.464 198.012H668.623C667.161 198.012 665.965 196.816 665.965 195.354C665.965 193.892 667.161 192.696 668.623 192.696Z" fill="white"/>
<path fill-rule="evenodd" clip-rule="evenodd" d="M692.119 347.969C690.577 347.969 689.022 347.995 687.481 348.075C686.298 348.142 684.504 347.902 683.507 348.633C682.471 349.391 682.537 350.959 682.71 352.062C683.56 357.896 685.66 363.079 690.032 367.212C696.77 373.577 704.478 376.82 713.621 378.255C720.04 379.265 725.954 377.857 730.685 373.298C734.14 379.704 736.758 386.787 738.06 393.937C738.711 397.472 738.911 400.953 738.791 404.542C738.711 406.841 738.592 409.14 738.339 411.425C738.233 412.422 737.728 413.924 738.113 414.867C738.565 415.97 740.107 416.077 740.811 415.133C741.382 414.349 741.276 412.808 741.396 411.877C741.595 410.336 741.768 408.794 741.901 407.239C742.113 404.728 742.273 402.216 742.26 399.704C742.233 394.056 740.97 388.382 739.256 383.013C735.96 372.714 730.605 363.57 722.286 356.394C717.169 351.982 711.309 350.188 704.664 349.231C700.518 348.673 696.318 347.969 692.119 347.969Z" fill="#89C5CC"/>
<path fill-rule="evenodd" clip-rule="evenodd" d="M716.013 388.9C699.295 388.9 688.039 402.375 682.71 416.382C680.703 421.658 680.238 427.466 679.454 433.007C679.201 434.788 679.294 437.499 678.577 439.081C678.311 439.652 677.713 439.865 678.005 440.649C678.178 441.127 678.524 441.42 679.029 441.513C680.079 441.712 681.567 440.556 682.471 440.104C689.953 436.356 694.87 430.549 698.87 423.452C701.355 419.054 703.88 414.482 705.355 409.658C706.259 406.708 706.777 403.598 707.096 400.542C707.215 399.332 707.335 398.096 707.322 396.887C707.308 395.678 706.75 395.053 706.352 394.003C711.933 391.89 718.232 391.319 723.88 393.498C729.103 395.518 733.449 399.438 735.881 404.356C736.518 405.631 736.997 406.987 737.356 408.356C737.582 409.259 737.595 410.429 738.033 411.239C739.083 413.206 741.276 411.891 741.063 410.057C740.479 404.927 737.542 399.784 733.794 396.222C729.076 391.731 722.671 388.9 716.013 388.9Z" fill="#89C5CC"/>
<path fill-rule="evenodd" clip-rule="evenodd" d="M743.415 93.0255H910.649C915.818 93.0255 920.004 97.2117 920.004 102.381V436.848C920.004 442.017 915.818 446.204 910.649 446.204H743.415C738.246 446.204 734.06 442.017 734.06 436.848V102.381C734.06 97.2117 738.246 93.0255 743.415 93.0255Z" fill="#DDE3E9"/>
<path d="M826.447 423.984C836.135 423.984 843.989 416.13 843.989 406.442C843.989 396.754 836.135 388.9 826.447 388.9C816.759 388.9 808.905 396.754 808.905 406.442C808.905 416.13 816.759 423.984 826.447 423.984Z" fill="white"/>
<path d="M811.244 116.415C812.536 116.415 813.583 115.368 813.583 114.076C813.583 112.784 812.536 111.737 811.244 111.737C809.952 111.737 808.905 112.784 808.905 114.076C808.905 115.368 809.952 116.415 811.244 116.415Z" fill="white"/>
<path fill-rule="evenodd" clip-rule="evenodd" d="M821.77 111.737H841.65C842.94 111.737 843.989 112.787 843.989 114.076C843.989 115.365 842.94 116.415 841.65 116.415H821.77C820.481 116.415 819.431 115.365 819.431 114.076C819.431 112.787 820.481 111.737 821.77 111.737Z" fill="white"/>
<path fill-rule="evenodd" clip-rule="evenodd" d="M755.111 125.77H898.956C901.534 125.77 903.633 127.87 903.633 130.448V184.243C903.633 186.822 901.534 188.921 898.956 188.921H755.111C752.533 188.921 750.434 186.822 750.434 184.243V130.448C750.434 127.87 752.533 125.77 755.111 125.77Z" fill="white"/>
<path fill-rule="evenodd" clip-rule="evenodd" d="M764.465 144.716H842.82C844.76 144.716 846.328 146.284 846.328 148.224V150.683C846.328 152.623 844.76 154.191 842.82 154.191H764.465C762.525 154.191 760.957 152.623 760.957 150.683V148.224C760.957 146.284 762.525 144.716 764.465 144.716Z" fill="#DDE3E9"/>
<path fill-rule="evenodd" clip-rule="evenodd" d="M764.465 160.503H814.752C816.693 160.503 818.261 162.072 818.261 164.012V166.47C818.261 168.411 816.693 169.979 814.752 169.979H764.465C762.525 169.979 760.957 168.411 760.957 166.47V164.012C760.957 162.072 762.525 160.503 764.465 160.503Z" fill="#DDE3E9"/>
<path d="M887.259 165.532C891.781 165.532 895.446 161.867 895.446 157.346C895.446 152.825 891.781 149.16 887.259 149.16C882.738 149.16 879.073 152.825 879.073 157.346C879.073 161.867 882.738 165.532 887.259 165.532Z" fill="#DDE3E9"/>
<path d="M887.259 160.854C889.197 160.854 890.768 159.284 890.768 157.346C890.768 155.408 889.197 153.838 887.259 153.838C885.322 153.838 883.751 155.408 883.751 157.346C883.751 159.284 885.322 160.854 887.259 160.854Z" fill="#F2F2F2"/>
<path fill-rule="evenodd" clip-rule="evenodd" d="M755.11 198.277H898.955C901.533 198.277 903.632 200.377 903.632 202.955V242.717C903.632 245.295 901.533 247.395 898.955 247.395H755.11C752.532 247.395 750.433 245.295 750.433 242.717V202.955C750.433 200.377 752.532 198.277 755.11 198.277Z" fill="white"/>
<path fill-rule="evenodd" clip-rule="evenodd" d="M799.55 213.012H877.904C879.845 213.012 881.413 214.58 881.413 216.521V216.866C881.413 218.806 879.845 220.375 877.904 220.375H799.55C797.61 220.375 796.042 218.806 796.042 216.866V216.521C796.042 214.58 797.61 213.012 799.55 213.012Z" fill="#DDE3E9"/>
<path fill-rule="evenodd" clip-rule="evenodd" d="M799.55 225.292H849.837C851.778 225.292 853.346 226.86 853.346 228.8V229.146C853.346 231.086 851.778 232.654 849.837 232.654H799.55C797.61 232.654 796.042 231.086 796.042 229.146V228.8C796.042 226.86 797.61 225.292 799.55 225.292Z" fill="#DDE3E9"/>
<path d="M774.992 236.87C782.742 236.87 789.025 230.586 789.025 222.836C789.025 215.085 782.742 208.802 774.992 208.802C767.241 208.802 760.958 215.085 760.958 222.836C760.958 230.586 767.241 236.87 774.992 236.87Z" fill="#C5CFD6"/>
<path fill-rule="evenodd" clip-rule="evenodd" d="M755.11 256.75H898.955C901.533 256.75 903.632 258.85 903.632 261.428V301.19C903.632 303.768 901.533 305.868 898.955 305.868H755.11C752.532 305.868 750.433 303.768 750.433 301.19V261.428C750.433 258.85 752.532 256.75 755.11 256.75Z" fill="white"/>
<path fill-rule="evenodd" clip-rule="evenodd" d="M764.465 271.485H842.82C844.76 271.485 846.328 273.054 846.328 274.994V275.339C846.328 277.28 844.76 278.848 842.82 278.848H764.465C762.525 278.848 760.957 277.28 760.957 275.339V274.994C760.957 273.054 762.525 271.485 764.465 271.485Z" fill="#DDE3E9"/>
<path fill-rule="evenodd" clip-rule="evenodd" d="M764.465 283.765H814.752C816.693 283.765 818.261 285.333 818.261 287.274V287.619C818.261 289.559 816.693 291.127 814.752 291.127H764.465C762.525 291.127 760.957 289.559 760.957 287.619V287.274C760.957 285.333 762.525 283.765 764.465 283.765Z" fill="#AFB9C5"/>
<path d="M887.259 289.495C891.781 289.495 895.446 285.83 895.446 281.309C895.446 276.788 891.781 273.123 887.259 273.123C882.738 273.123 879.073 276.788 879.073 281.309C879.073 285.83 882.738 289.495 887.259 289.495Z" fill="#DDE3E9"/>
<path d="M887.259 284.818C889.197 284.818 890.768 283.247 890.768 281.309C890.768 279.372 889.197 277.801 887.259 277.801C885.322 277.801 883.751 279.372 883.751 281.309C883.751 283.247 885.322 284.818 887.259 284.818Z" fill="#F2F2F2"/>
<path fill-rule="evenodd" clip-rule="evenodd" d="M755.11 315.224H898.955C901.533 315.224 903.632 317.323 903.632 319.901V359.663C903.632 362.241 901.533 364.341 898.955 364.341H755.11C752.532 364.341 750.433 362.241 750.433 359.663V319.901C750.433 317.323 752.532 315.224 755.11 315.224Z" fill="white"/>
<path fill-rule="evenodd" clip-rule="evenodd" d="M799.55 329.959H877.904C879.845 329.959 881.413 331.527 881.413 333.467V333.813C881.413 335.753 879.845 337.321 877.904 337.321H799.55C797.61 337.321 796.042 335.753 796.042 333.813V333.467C796.042 331.527 797.61 329.959 799.55 329.959Z" fill="#DDE3E9"/>
<path fill-rule="evenodd" clip-rule="evenodd" d="M799.55 342.238H849.837C851.778 342.238 853.346 343.806 853.346 345.746V346.092C853.346 348.032 851.778 349.6 849.837 349.6H799.55C797.61 349.6 796.042 348.032 796.042 346.092V345.746C796.042 343.806 797.61 342.238 799.55 342.238Z" fill="#DDE3E9"/>
<path d="M774.992 353.816C782.742 353.816 789.025 347.533 789.025 339.782C789.025 332.032 782.742 325.749 774.992 325.749C767.241 325.749 760.958 332.032 760.958 339.782C760.958 347.533 767.241 353.816 774.992 353.816Z" fill="#C5CFD6"/>
<path d="M728.363 393.358C727.287 375.085 731.393 352.679 731.247 345.662L701.373 343.948C701.373 343.948 700.801 365.317 701.067 383.829C701.373 404.72 705.718 464.655 704.429 474.024C703.619 479.871 682.103 487.911 677.678 490.702C679.804 491.792 700.31 488.27 705.692 485.599C711.778 482.582 718.622 479.22 723.46 479.061C723.26 475.911 723.074 472.948 723.034 470.981C722.875 461.439 729.666 415.391 728.363 393.358Z" fill="#F7CA2C"/>
<path d="M699.1 485.599C691.777 488.257 686.647 487.513 683.764 486.423C682.195 487.154 680.654 487.805 679.259 488.416C673.93 490.742 665.398 491.646 666.328 494.078C667.059 495.978 687.179 496.855 697.957 494.596C703.047 493.533 711.778 490.091 711.778 490.091L712.11 494.755C712.11 494.755 721.785 495.287 722.821 494.45C724.403 493.174 723.858 485.665 723.299 479.047C716.721 479.22 707.379 482.596 699.1 485.599Z" fill="#1978C5"/>
<path d="M763.976 486.227C770.328 483.077 777.518 479.556 782.368 479.689C782.169 476.539 781.943 473.575 781.81 471.595C781.425 465.495 781.279 454.97 782.036 432.857C782.794 410.743 778.833 395.195 777.465 382.078C776.096 368.962 776.096 355.087 775.936 348.071L747.497 351.579C747.497 351.579 749.69 372.523 751.617 390.929C753.437 408.311 764.507 464.047 763.205 473.429C762.408 479.197 744.985 487.41 740.746 490.426C742.833 491.569 758.394 488.991 763.976 486.227Z" fill="#F7CA2C"/>
<path d="M727.656 495.676C727.656 496.978 746.926 497.47 757.238 495.224C762.102 494.161 770.435 490.719 770.435 490.719L770.754 495.383C770.754 495.383 780.654 495.676 781.651 494.825C783.153 493.549 782.807 486.2 782.276 479.662C775.963 479.529 766.594 483.064 758.328 486.2C751.059 488.964 746.049 488.047 743.351 486.905C741.823 487.742 740.427 488.459 739.364 489.031C734.5 491.636 727.656 493.164 727.656 495.676Z" fill="#1978C5"/>
<path d="M766.951 238.726C770.153 243.603 778.845 259.165 782.047 275.404C784.998 290.382 784.798 298.967 786.393 310.635C787.988 322.303 796.227 347.925 795.775 349.519C795.323 351.114 791.656 353.519 784.493 353.719C779.137 353.865 775.19 353.413 765.582 356.616C755.974 359.819 745.143 361.652 732.026 360.27C718.91 358.902 708.544 353.413 701.992 353.254C695.427 353.107 686.736 353.107 685.832 351.273C684.929 349.44 690.869 335.286 692.158 326.422C693.62 316.402 696.809 297.292 703.826 278.381C710.391 260.653 719.667 240.254 719.667 240.254C719.667 240.254 733.315 240.174 743.149 239.948C752.984 239.723 766.951 238.726 766.951 238.726Z" fill="#D84326"/>
<path d="M740.797 354.782C737.9 354.782 734.95 354.622 731.933 354.304C724.691 353.546 718.179 351.513 712.929 349.891C708.571 348.536 704.823 347.366 701.966 347.3L700.158 347.26C695.069 347.154 689.301 347.034 686.683 346.077C686.205 345.905 685.965 345.373 686.138 344.908C686.311 344.43 686.829 344.19 687.308 344.363C689.633 345.214 695.48 345.333 700.185 345.44L701.992 345.479C705.102 345.546 708.982 346.755 713.461 348.151C718.896 349.838 725.049 351.752 732.106 352.496C743.694 353.705 754.233 352.563 765.276 348.881C773.688 346.077 777.875 346.024 782.313 345.971C783.018 345.958 783.722 345.958 784.453 345.931C790.872 345.758 793.543 343.845 794.207 343.26C794.593 342.928 795.164 342.968 795.496 343.353C795.828 343.738 795.789 344.31 795.403 344.642C794.393 345.519 791.323 347.579 784.493 347.752C783.748 347.765 783.031 347.778 782.326 347.792C778.047 347.845 773.994 347.885 765.848 350.609C757.436 353.413 749.302 354.782 740.797 354.782Z" fill="#F7CA2C"/>
<path d="M743.708 348.696C740.066 348.696 736.239 348.483 732.226 348.058C724.637 347.26 717.886 345.187 711.933 343.34C707.627 342.011 703.906 340.868 700.969 340.576C698.537 340.337 696.331 340.536 694.377 340.709C692.065 340.908 690.072 341.094 688.41 340.483C687.932 340.31 687.693 339.778 687.866 339.313C688.038 338.848 688.557 338.596 689.035 338.768C690.311 339.234 692.118 339.074 694.205 338.888C696.238 338.702 698.537 338.503 701.142 338.755C704.278 339.061 708.065 340.23 712.478 341.586C718.351 343.393 725.009 345.453 732.425 346.224C745.382 347.579 756.253 346.715 765.648 343.592C773.981 340.815 776.32 340.881 779.828 340.988C780.426 341.001 781.051 341.028 781.755 341.028C788.426 341.094 791.204 339.34 792.719 338.011C793.104 337.679 793.676 337.719 794.008 338.104C794.34 338.489 794.3 339.061 793.915 339.393C792.2 340.895 789.117 342.862 782.061 342.862C781.954 342.862 781.835 342.862 781.728 342.862C781.011 342.862 780.373 342.835 779.762 342.822C776.32 342.715 774.246 342.649 766.22 345.333C759.509 347.579 752.08 348.696 743.708 348.696Z" fill="#F7CA2C"/>
<path d="M681.016 141.468C679.621 141.933 677.282 143.182 677.734 145.481C678.186 147.767 682.319 151.78 683.687 152.391C685.056 153.003 684.139 149.361 682.917 147.767C681.694 146.172 685.096 149.813 686.199 149.441C686.996 149.175 687.262 147.647 686.385 145.242C685.601 143.102 689.096 141.122 687.568 140.816C686.053 140.524 682.85 140.856 681.016 141.468Z" fill="url(#paint0_linear)"/>
<path d="M702.465 167.94C702.864 167.422 713.987 159.714 714.811 159.408C715.967 158.983 734.001 182.532 736.512 185.163C739.024 187.794 733.19 200.924 728.379 201.841C723.595 202.745 701.428 169.295 702.465 167.94Z" fill="#F7CA2C"/>
<path d="M670.65 140.444C672.258 138.823 680.324 139.753 681.401 140.059C682.464 140.365 685.135 138.159 686.743 138.079C688.351 137.999 693.242 138.903 696.125 140.524C699.315 142.318 715.262 159.887 715.262 159.887C715.262 159.887 715.036 164.458 711.036 167.209C707.023 169.96 704.445 168.698 704.445 168.698C704.445 168.698 698.797 158.398 696.856 157.136C694.916 155.873 690.105 158 686.158 157.029C682.424 156.113 677.241 151.302 678.676 150.053C680.191 148.71 683.833 151.793 685.467 152.338C687.886 153.136 692.431 152.179 692.524 150.332C692.604 148.099 685.374 146.039 679.912 144.391C676.045 143.222 669.334 141.76 670.65 140.444Z" fill="#F7CA2C"/>
<path d="M705.813 169.893C703.367 169.893 701.959 168.711 701.866 168.631C701.48 168.299 701.441 167.727 701.773 167.342C702.105 166.957 702.69 166.917 703.062 167.249C703.168 167.342 705.826 169.482 710.517 166.438C714.119 164.099 714.331 159.9 714.331 159.847C714.358 159.342 714.783 158.943 715.275 158.97C715.78 158.983 716.178 159.408 716.152 159.913C716.139 160.126 715.926 165.096 711.501 167.967C709.255 169.442 707.341 169.893 705.813 169.893Z" fill="#1AA9E8"/>
<path d="M760.847 147.069C763.292 152.106 772.435 169.635 771.824 183.216C771.212 196.798 767.558 210.818 767.093 221.343C766.627 231.869 766.946 238.726 766.946 238.726C766.946 238.726 756.886 244.972 741.63 244.52C726.839 244.082 719.676 240.254 719.676 240.254C719.676 240.254 719.238 224.108 717.39 213.104C715.942 204.493 712.393 199.456 712.354 189.768C712.3 177.382 731.371 161.369 737.059 152.717C741.723 145.607 760.847 147.069 760.847 147.069Z" fill="#0C6F63"/>
<path d="M743.251 245.464C742.706 245.464 742.161 245.45 741.603 245.437C726.772 244.998 719.543 241.224 719.237 241.065C718.798 240.826 718.626 240.281 718.865 239.829C719.104 239.377 719.662 239.218 720.101 239.444C720.167 239.483 727.304 243.178 741.656 243.603C756.434 244.055 766.361 238.008 766.454 237.942C766.879 237.676 767.451 237.809 767.717 238.234C767.982 238.659 767.849 239.231 767.424 239.497C767.026 239.749 757.67 245.464 743.251 245.464Z" fill="#9E0216"/>
<path d="M775.41 96.8627C777.696 96.9823 784.699 95.1616 789.935 94.0055C800.275 91.7197 810.428 91.8526 813.032 99.0421C815.278 105.222 811.544 110.351 812.155 114.67C812.992 120.544 830.534 125.501 830.867 137.236C831.199 148.492 821.949 152.558 819.424 157.475C816.913 162.393 811.903 177.316 794.494 176.12C784.54 175.429 781.802 169.569 781.802 165.489C781.802 160.253 786.839 156.226 784.434 152.452C782.028 148.678 774.334 151.176 772.659 146.738C770.825 141.9 774.945 137.927 778.028 135.535C781.111 133.129 785.696 130.618 784.66 127.069C783.636 123.521 777.337 122.631 777.563 119.069C777.829 114.91 785.457 111.826 784.194 107.627C783.238 104.464 777.789 105.115 773.098 104.198C768.433 103.268 775.41 96.8627 775.41 96.8627Z" fill="#003C66"/>
<path d="M758.557 126.338C757.972 131.641 760.843 147.083 760.843 147.083C760.843 147.083 753.68 154.512 743.155 155.017C737.985 155.256 737.055 152.731 737.055 152.731L739.194 131.534C739.194 131.534 742.41 125.501 748.949 122.989C755.5 120.478 757.946 122.83 757.946 122.83L758.557 126.338Z" fill="#F7CA2C"/>
<path d="M755.659 87.9054C746.356 83.9452 739.419 84.1179 739.419 84.1179C732.163 88.0649 712.88 124.119 725 132.89C732.482 138.299 745.306 132.784 753.825 125.421C754.343 125.581 754.901 125.674 755.486 125.674C758.45 125.674 760.855 123.348 760.855 120.464C760.855 119.64 760.656 118.87 760.31 118.179C761.094 116.943 761.706 115.733 762.064 114.577C764.164 107.853 764.961 91.8789 755.659 87.9054Z" fill="#F7CA2C"/>
<path d="M741.214 109.74C741.081 109.74 740.935 109.713 740.802 109.673C740.085 109.448 739.673 108.677 739.912 107.946C740.337 106.604 741.866 104.119 742.849 103.188C743.394 102.67 744.271 102.683 744.789 103.241C745.307 103.786 745.294 104.663 744.736 105.182C744.098 105.78 742.796 107.893 742.53 108.77C742.344 109.355 741.799 109.74 741.214 109.74Z" fill="#0A304F"/>
<path d="M728.23 102.484C728.111 102.484 728.004 102.471 727.885 102.431C727.287 102.245 726.954 101.594 727.141 100.996C727.552 99.7064 728.788 97.713 729.732 96.7961C730.197 96.3708 730.915 96.3841 731.353 96.8492C731.792 97.3011 731.765 98.032 731.313 98.4705C730.649 99.0951 729.612 100.783 729.32 101.7C729.174 102.178 728.722 102.484 728.23 102.484Z" fill="#0A304F"/>
<path d="M741.293 115.149C740.336 115.149 739.446 114.936 738.649 114.498C736.961 113.594 735.858 111.88 735.526 109.66C735.22 107.521 735.672 105.169 736.828 103.016C738.622 99.6668 741.718 97.5006 744.735 97.5006C745.692 97.5006 746.582 97.7132 747.38 98.1518C750.795 99.9724 751.606 105.129 749.2 109.634C747.406 112.983 744.297 115.149 741.293 115.149ZM744.722 98.8694C742.25 98.8694 739.566 100.796 738.024 103.654C737.014 105.541 736.602 107.601 736.868 109.448C737.12 111.215 737.984 112.571 739.273 113.262C739.884 113.581 740.549 113.753 741.28 113.753C743.752 113.753 746.449 111.827 747.978 108.969C750.024 105.129 749.466 100.81 746.715 99.3478C746.117 99.0422 745.439 98.8694 744.722 98.8694Z" fill="black"/>
<path d="M725.944 106.511C725.267 106.511 724.629 106.351 724.057 106.059C721.32 104.597 720.908 100.185 723.127 96.0387C724.801 92.9024 727.605 90.7894 730.091 90.7894C730.768 90.7894 731.406 90.9489 731.978 91.2413C733.333 91.9722 734.17 93.4473 734.303 95.4141C734.436 97.2614 733.944 99.3345 732.908 101.261C731.233 104.398 728.429 106.511 725.944 106.511ZM730.104 92.1449C728.137 92.1449 725.772 94.0055 724.35 96.6633C722.555 100.026 722.728 103.76 724.722 104.823C725.094 105.022 725.506 105.115 725.958 105.115C727.924 105.115 730.29 103.255 731.712 100.597C732.629 98.8959 733.067 97.0753 732.948 95.4939C732.841 94.0187 732.27 92.929 731.34 92.4373C730.968 92.2513 730.556 92.1449 730.104 92.1449Z" fill="black"/>
<path d="M734.237 99.6534C730.636 102.643 720.629 107.587 720.363 109.341C720.004 111.68 725.36 112.996 726.582 112.996C727.805 112.996 728.695 109.687 731.951 105.155C733.785 102.577 736.151 98.0586 734.237 99.6534Z" fill="#F7CA2C"/>
<path d="M737.879 103.241C737.6 103.241 737.347 103.082 737.241 102.816C736.297 100.464 735.088 99.7595 733.068 100.384C732.709 100.504 732.324 100.291 732.204 99.9323C732.098 99.5735 732.297 99.1881 732.656 99.0685C735.38 98.218 737.294 99.2811 738.503 102.298C738.65 102.657 738.477 103.055 738.118 103.188C738.052 103.228 737.972 103.241 737.879 103.241Z" fill="black"/>
<path d="M742.489 155.934C737.346 155.934 736.257 153.156 736.204 153.037C736.031 152.558 736.27 152.04 736.748 151.867C737.227 151.695 737.745 151.934 737.918 152.412C737.944 152.465 738.795 154.313 743.114 154.1C753.161 153.622 760.124 146.525 760.191 146.445C760.536 146.087 761.121 146.073 761.48 146.419C761.839 146.764 761.852 147.349 761.506 147.708C761.201 148.027 753.958 155.416 743.207 155.921C742.955 155.934 742.715 155.934 742.489 155.934Z" fill="#710110"/>
<path d="M754.038 115.468C753.068 115.707 751.673 115.282 751.779 113.301C751.965 109.567 758.384 103.839 758.225 98.5503C758.025 92.1315 745.972 90.6963 737.679 87.4537C728.735 83.9586 728.855 73.646 731.088 70.2705C733.546 66.5495 737.892 67.7721 739.726 69.606C741.56 71.44 742.397 73.4732 743.992 73.4201C745.839 73.3669 745.148 69.7655 747.952 69.7655C750.796 69.7655 753.241 75.0015 755.195 77.1677C758.53 80.8621 776.032 86.643 776.923 99.2015C778.145 116.438 760.989 129.847 759.088 129.847C755.846 129.847 756.019 126.086 757.401 125.342C758.796 124.584 761.401 123.003 760.736 119.375C760.085 115.733 756.191 114.936 754.038 115.468Z" fill="#003C66"/>
<path d="M757.44 115.627C758.968 116.199 760.164 117.421 760.643 118.963C760.762 118.803 760.815 118.591 760.749 118.391C759.646 114.458 753.918 110.963 750.835 109.089C750.184 108.69 749.626 108.345 749.293 108.119C748.988 107.906 748.549 107.972 748.337 108.278C748.111 108.584 748.19 109.009 748.496 109.235C748.868 109.501 749.413 109.833 750.117 110.258C752.124 111.468 755.327 113.421 757.44 115.627Z" fill="black"/>
<path d="M649.48 159.123C651.328 158.764 653.427 164.811 654.344 168.24C655.261 171.668 655.926 177.476 659.288 181.316C662.358 184.825 672.179 188.028 672.179 188.028C672.179 188.028 673.242 193.742 670.65 196.945C668.059 200.147 664.232 199.988 664.232 199.988C664.232 199.988 652.962 188.785 648.231 185.516C643.5 182.233 640.603 177.808 639.886 174.645C639.115 171.256 638.557 169.569 638.929 165.834C639.128 163.801 639.925 161.117 639.925 161.117C639.925 161.117 646.942 172.253 648.763 175.137C650.663 174.751 649.76 169.489 649.52 167.363C649.294 165.223 647.607 159.482 649.48 159.123Z" fill="#F7CA2C"/>
<path d="M748.644 161.954C756.644 160.572 761.349 164.173 763.847 169.609C766.598 175.562 766.027 182.911 761.748 187.177C757.482 191.443 729.986 224.122 715.501 223.71C699.354 223.245 663.459 200.972 663.101 198.872C662.742 196.785 669.559 187.084 670.489 187.43C671.42 187.762 708.377 201.729 713.866 200.254C719.368 198.766 743.089 162.924 748.644 161.954Z" fill="#F7CA2C"/>
<path d="M212.557 96.5871C218.045 85.61 240.199 38.1271 242.484 35.2301C244.77 32.333 246.564 31.7615 247.216 27.3761C247.747 23.7348 247.468 21.2231 248.132 18.3792C249.049 14.4854 254.565 4.10638 253.169 1.0764C252.252 -0.903714 248.598 4.35887 247.216 6.03333C245.847 7.70779 241.767 14.2594 240.797 13.6614C240.544 11.1099 240.876 2.53823 240.876 2.53823C239.136 4.59808 236.743 9.86067 235.361 15.3492C233.979 20.8377 234.405 22.7248 231.348 28.9708C228.305 35.2301 203.214 62.6726 190.403 91.2713C189.659 92.9192 188.942 94.6069 188.237 96.3213C193.646 100.122 200.889 103.949 209.607 105.464C210.524 101.77 211.52 98.6602 212.557 96.5871Z" fill="#F7CA2C"/>
<path d="M184.305 494.673C185.993 498.899 193.209 500.667 199.255 502.102C205.78 503.643 210.418 504.534 210.153 507.139C209.847 510.115 195.667 511.099 185.368 510.793C175.069 510.487 167.613 509.278 166.098 508.135C164.49 506.926 164.557 496.002 164.942 493.57C165.328 491.138 184.305 494.673 184.305 494.673Z" fill="#0A304F"/>
<path d="M173.553 246.734C172.185 251.77 168.676 263.359 167.454 285.313C166.231 307.267 167.759 374.67 167.759 391.149C167.759 407.615 163.799 436.891 163.493 456.719C163.188 476.547 162.789 495.191 163.945 495.909C166.497 497.504 181.142 498.66 186.059 495.909C186.922 495.431 194.909 426.22 200.398 397.249C204.026 378.139 218.086 274.336 219.003 259.093C219.92 243.836 173.553 246.734 173.553 246.734Z" fill="#0A304F"/>
<path d="M176.743 491.284C169.953 491.284 164.717 489.929 162.79 488.959C162.338 488.733 162.152 488.174 162.391 487.736C162.617 487.284 163.162 487.098 163.614 487.337C166.271 488.679 175.84 490.792 187.003 488.374C187.495 488.267 187.986 488.586 188.093 489.078C188.199 489.57 187.893 490.061 187.388 490.168C183.627 490.965 180.013 491.284 176.743 491.284Z" fill="#0A304F"/>
<path d="M258.58 499.962C260.028 502.554 266.474 505.77 272.534 507.205C279.059 508.747 283.697 509.637 283.431 512.242C283.125 515.218 268.946 516.202 258.646 515.896C248.347 515.591 241.41 515.205 239.895 514.062C238.287 512.853 237.45 504.228 237.835 501.783C238.221 499.338 258.58 499.962 258.58 499.962Z" fill="#0A304F"/>
<path d="M246.22 257.564C246.911 266.721 253.077 377.66 254.459 395.96C255.828 414.259 261.848 498.726 261.091 500.348C259.828 503.019 240.386 505.996 237.422 503.365C235.522 501.677 229.382 458.872 224.492 430.818C219.615 402.764 208.943 353.048 203.441 333.526C197.94 314.004 187.893 282.057 193.607 253.697C198.87 247.744 210.538 247.89 223.349 250.269C236.532 252.701 246.22 257.564 246.22 257.564Z" fill="#0A304F"/>
<path d="M242.912 497.995C239.324 497.995 236.413 497.61 235.164 497.145C234.686 496.972 234.446 496.441 234.632 495.962C234.805 495.484 235.337 495.258 235.815 495.431C238.752 496.52 252.533 497.118 260.467 492.148C260.892 491.882 261.464 492.015 261.729 492.44C261.995 492.866 261.862 493.437 261.437 493.703C256.161 496.999 248.653 497.995 242.912 497.995Z" fill="#0A304F"/>
<path d="M221.676 152.578C205.423 148.02 207.018 150.492 205.25 149.695C203.31 147.741 205.715 121.282 209.623 105.481C200.905 103.966 193.675 100.139 188.253 96.3378C176.758 124.338 170.259 160.02 169.834 188.034C169.382 217.776 170.525 247.504 170.751 248.886C170.977 250.255 191.788 263.066 214.898 263.292C237.929 263.518 246.235 257.578 246.235 257.578C246.235 257.578 250.846 176.061 250.102 173.775C249.344 171.476 237.929 157.137 221.676 152.578Z" fill="#D84326"/>
<path d="M218.128 257.737C217.424 257.737 216.706 257.737 215.962 257.724C188.652 257.259 171.708 245.205 169.728 243.012C169.396 242.64 169.422 242.055 169.795 241.723C170.167 241.391 170.751 241.418 171.084 241.79C172.678 243.57 189.383 255.438 215.988 255.903C238.434 256.288 245.929 250.481 246.009 250.415C246.408 250.096 246.979 250.162 247.298 250.561C247.617 250.959 247.551 251.531 247.152 251.85C246.846 252.089 239.537 257.737 218.128 257.737Z" fill="#9E0216"/>
<path d="M235.523 170.572C235.191 170.572 234.872 170.399 234.713 170.08C231.855 164.632 222.075 157.03 217.689 155.316C217.224 155.13 216.985 154.598 217.171 154.133C217.357 153.668 217.888 153.429 218.353 153.615C223.098 155.462 233.251 163.356 236.334 169.23C236.573 169.682 236.4 170.227 235.949 170.466C235.816 170.545 235.67 170.572 235.523 170.572Z" fill="#9E0216"/>
<path d="M190.075 142.771C189.637 142.771 189.251 142.452 189.171 142.013C187.298 131.262 193.291 114.026 196.175 105.747C196.8 103.953 197.291 102.544 197.477 101.813C197.61 101.321 198.102 101.029 198.594 101.162C199.085 101.295 199.378 101.787 199.245 102.278C199.032 103.076 198.554 104.444 197.903 106.345C195.072 114.478 189.185 131.422 190.979 141.695C191.072 142.186 190.726 142.665 190.235 142.758C190.181 142.771 190.128 142.771 190.075 142.771Z" fill="#9E0216"/>
<path d="M178.978 146.625C178.725 146.625 178.473 146.518 178.287 146.319C177.954 145.934 177.994 145.362 178.366 145.03C180.2 143.422 190.074 137.987 201.517 142.811C201.982 143.01 202.194 143.542 202.008 144.007C201.809 144.472 201.277 144.685 200.812 144.498C190.194 140.02 180.958 145.203 179.576 146.399C179.403 146.545 179.19 146.625 178.978 146.625Z" fill="#9E0216"/>
<path d="M267.439 302.234C264.848 294.3 262.11 242.777 257.486 206.936C244.635 207.281 234.163 210.497 228.621 213.155C229.923 219.188 231.811 227.069 234.787 237.448C242.947 265.834 253.884 298.18 254.084 305.157C254.19 309.277 250.695 314.101 250.243 320.188C249.937 324.267 251.598 330.899 253.167 330.779C255.147 330.633 254.987 324.6 255.771 321.742C257.034 317.224 259.718 315.683 259.718 315.683C259.718 315.683 265.433 315.696 275.081 315.696C273.725 310.819 268.569 305.689 267.439 302.234Z" fill="#F7CA2C"/>
<path d="M249.353 172.782C240.196 163.014 222.668 173.234 220.98 186.045C220.621 188.782 223.12 191.998 224.94 196.716C226.03 199.52 226.708 204.358 228.608 213.142C234.15 210.484 244.609 207.268 257.473 206.922C255.267 189.806 252.622 176.264 249.353 172.782Z" fill="#D84326"/>
<path d="M228.62 214.059C228.274 214.059 227.955 213.873 227.796 213.541C227.583 213.089 227.769 212.544 228.221 212.318C231.092 210.949 241.683 206.431 257.458 206.019C257.963 206.019 258.388 206.404 258.401 206.909C258.414 207.414 258.016 207.84 257.511 207.853C245.271 208.172 234.773 211.228 229.018 213.979C228.885 214.032 228.753 214.059 228.62 214.059Z" fill="#9E0216"/>
<path d="M220.979 186.962C220.939 186.962 220.899 186.962 220.86 186.948C220.355 186.882 220.009 186.417 220.076 185.925C221.046 178.51 227.345 171.32 235.053 168.848C240.847 166.988 246.295 168.184 250.016 172.157C250.362 172.53 250.349 173.101 249.977 173.446C249.605 173.792 249.033 173.779 248.688 173.407C244.289 168.715 238.614 169.619 235.624 170.589C228.541 172.862 222.773 179.413 221.896 186.164C221.83 186.63 221.431 186.962 220.979 186.962Z" fill="#9E0216"/>
<path d="M229.401 88.865C232.883 94.6326 239.82 95.7223 240.391 97.6758C240.963 99.6161 237.188 103.51 236.046 104.201C234.903 104.892 229.414 93.6757 228.949 92.4265C228.484 91.1773 229.401 88.865 229.401 88.865Z" fill="#F7CA2C"/>
<path d="M219.739 76.7981C219.739 76.7981 203.898 81.4361 196.124 92.2536C191.831 98.2338 197.16 108.759 202.795 116.998C200.908 118.606 199.938 120.467 199.938 120.467L199.207 122.487C198.781 127.098 193.771 142.979 191.937 147.71C191.26 149.464 196.017 155.936 206.409 156.455C215.566 156.906 221.666 152.561 221.666 152.561L222.543 132.494C222.543 132.494 222.848 131.231 223.181 129.53C227.606 128.972 232.643 127.231 236.842 122.912C247.367 112.081 225.639 81.5424 219.739 76.7981Z" fill="#F7CA2C"/>
<path d="M216.562 104.613C217.719 103.829 217.4 101.41 214.662 98.6592C211.925 95.9083 209.014 93.4764 209.559 90.5793C210.091 87.7088 219.553 84.639 223.991 81.3432C231.287 75.9344 233.653 62.8178 229.227 61.9806C223.154 60.8244 221.227 69.1436 219.619 69.1436C217.719 69.1436 218.689 64.6916 215.951 65.0239C211.991 65.489 210.463 71.137 208.177 72.8779C204.748 75.5092 186.529 81.1173 185.372 94.6857C184.442 105.729 191.366 112.015 194.409 115.962C197.652 120.161 198.648 122.314 199.207 122.487C200.217 122.793 204.669 122.128 208.469 120.547C212.589 118.833 215.101 116.653 214.303 115.63C213.506 114.606 207.512 113.45 207.1 108.427C206.795 104.772 209.28 103.164 211.22 103.51C213.16 103.855 215.26 105.49 216.562 104.613Z" fill="#710110"/>
<path d="M219.341 108.307C220.059 108.334 220.604 113.185 223.408 113.849C225.268 114.288 231.275 110.128 233.986 108.932C235.634 108.201 238.557 107.709 238.757 108.454C238.943 109.211 239.368 111.962 240.391 114.42C241.255 116.494 243.249 118.407 242.279 122.66C240.857 128.906 229.986 133.584 222.544 132.494C222.371 130.727 222.119 127.976 220.883 123.005C219.447 117.264 217.228 112.042 217.281 110.992C217.361 109.49 218.118 108.268 219.341 108.307Z" fill="#710110"/>
<path d="M227.315 96.7454C226.717 96.7454 226.159 96.5062 225.999 96.1607C225.68 95.4962 224.245 94.0344 223.953 93.8085C223.501 93.463 223.607 92.958 224.205 92.6789C224.803 92.4131 225.64 92.4663 226.106 92.7985C226.478 93.0643 228.205 94.7786 228.644 95.7221C228.843 96.1474 228.418 96.5992 227.687 96.7056C227.554 96.7454 227.435 96.7454 227.315 96.7454Z" fill="#0A304F"/>
<path d="M206.427 156.467C215.584 156.919 221.684 152.573 221.684 152.573L222.003 145.264C219.704 146.5 214.72 148.64 208.168 148.308C200.208 147.909 195.57 144.028 194.122 141.437C193.258 144.095 192.474 146.367 191.942 147.71C191.264 149.477 196.035 155.936 206.427 156.467Z" fill="#D84326"/>
<path d="M207.781 157.411C207.316 157.411 206.851 157.397 206.372 157.371C198.691 156.985 193.747 153.424 191.834 150.474C191.05 149.264 190.784 148.175 191.089 147.391C191.276 146.925 191.807 146.686 192.272 146.872C192.737 147.058 192.977 147.577 192.804 148.055C192.777 148.148 192.83 148.773 193.601 149.809C195.475 152.361 199.847 155.218 206.465 155.55C215.196 155.975 221.084 151.869 221.137 151.829C221.549 151.537 222.12 151.63 222.413 152.042C222.705 152.454 222.612 153.025 222.2 153.318C221.961 153.49 216.353 157.411 207.781 157.411Z" fill="#9E0216"/>
<path fill-rule="evenodd" clip-rule="evenodd" d="M135.212 185.544C138.398 181.002 144.316 169.45 148.807 167.832C151.7 166.79 150.85 177.603 150.891 179.667C151.032 187.647 150.253 195.588 149.292 203.498C147.563 217.781 141.908 230.496 134.15 242.644C130.154 248.896 125.481 255.228 118.997 259.132C116.013 260.933 112.422 261.226 109.479 262.774C106.05 264.574 107.911 263.118 106.373 266.698C104.229 271.665 103.541 278.068 102.54 283.368C97.9776 307.696 86.9317 436.271 88.8435 461.013C89.0154 463.208 85.9606 463.734 85.7988 461.054C84.9895 446.862 92.0095 348.551 95.5499 316.405C99.0903 284.259 102.681 255.855 106.272 244.738C110.632 231.244 118.512 215.019 125.066 202.436C128.101 196.589 131.419 190.945 135.212 185.544Z" fill="#69A0AC"/>
<path fill-rule="evenodd" clip-rule="evenodd" d="M1.44754 286.13C6.09046 287.04 13.6769 297.54 17.5005 301.546C22.0524 306.3 26.1693 311.368 30.0637 316.678C38.4392 328.108 45.9245 340.257 52.287 352.931C62.6653 373.587 70.98 394.798 77.0189 417.295C80.711 431.062 83.1083 445.334 84.5244 459.516C84.7874 462.187 87.5995 482.801 83.5533 483.348C79.922 483.843 81.0448 467.699 80.8728 465.504C78.8902 440.722 72.9626 416.607 64.7086 393.251C62.908 388.163 61.239 381.932 58.3663 377.35C56.2926 374.052 58.3562 375.205 54.7147 373.951C51.589 372.879 48.0284 373.142 44.832 371.827C37.8828 368.974 32.3194 363.441 27.4438 357.878C17.9658 347.064 10.4501 335.371 6.53553 321.513C4.36074 313.826 2.36803 306.097 1.25535 298.177C0.972121 296.124 -1.53647 285.543 1.44754 286.13Z" fill="#69A1AC"/>
<path opacity="0.5" fill-rule="evenodd" clip-rule="evenodd" d="M19.7765 111.409C37.2659 141.734 51.6296 175.044 60.9154 208.789C66.5395 229.232 70.4642 250.211 74.3788 271.038C80.4278 303.286 86.1429 335.533 87.7715 368.347C89.4102 401.353 92.6471 439.427 81.8338 471.22C87.2354 438.942 82.0968 404.58 81.1864 372.1C80.7515 356.593 79.4871 341.238 77.8383 325.822C76.2299 310.872 73.6101 295.992 71.1723 281.153C69.9787 273.931 68.7345 266.719 67.46 259.507C67.0756 257.352 66.9239 250.969 65.5583 249.503C64.1826 248.026 57.1727 247.419 54.9777 246.336C50.5472 244.152 46.3797 241.046 42.6877 237.769C35.6171 231.477 29.467 223.263 24.6116 215.161C13.3735 196.407 8.88236 173.537 9.11501 151.829C9.15547 147.611 15.9327 102.224 13.2117 101.597C13.3735 101.405 13.5354 101.202 13.677 101C15.7405 104.449 17.7636 107.929 19.7765 111.409Z" fill="#89C5CC"/>
<path fill-rule="evenodd" clip-rule="evenodd" d="M208.507 220.785C208.78 220.401 210.53 217.69 209.65 217.862C211.451 217.508 207.172 220.846 211.663 218.803C209.529 220.816 210.763 223.425 210.793 226.136C210.844 230.536 210.105 234.896 209.276 239.195C207.971 245.993 206.019 252.608 203.186 258.93C197.016 272.707 186.547 285.978 174.125 294.596C167.985 298.855 161.977 300.302 154.977 302.254C150.557 303.488 150.202 305.774 147.856 310.063C142.97 318.995 138.175 327.896 133.866 337.131C128.718 348.157 123.731 359.203 119.017 370.421C103.146 408.222 90.229 447.378 83.4517 487.91C83.2899 464.028 88.8128 439.427 95.7822 416.668C100.86 400.079 107.465 384.097 114.516 368.266C116.225 364.432 118.815 359.496 119.533 355.268C120.039 352.304 118.491 349.452 117.773 346.326C115.001 334.157 115.204 320.532 117.631 308.293C120.312 294.809 128.08 288.548 141.21 286.636C146.015 285.938 152.114 286.191 156.514 284.147C161.309 281.922 163.292 274.588 166.013 269.885C173.336 257.251 182.045 245.133 192.039 234.481C194.811 231.538 197.785 228.817 200.941 226.288C202.944 224.7 207.152 222.737 208.507 220.785Z" fill="#89C5CC"/>
<path fill-rule="evenodd" clip-rule="evenodd" d="M61.2896 462.116H107.881C109.974 462.116 111.674 463.815 111.674 465.909C111.674 466.091 111.664 466.283 111.633 466.465L108.032 490.883C106.93 498.328 100.547 503.841 93.0212 503.841H76.1489C68.6231 503.841 62.2404 498.328 61.1378 490.883L57.5368 466.465C57.2333 464.392 58.6596 462.47 60.7332 462.156C60.9254 462.126 61.1075 462.116 61.2896 462.116Z" fill="#C1DEE2"/>
<path opacity="0.5" fill-rule="evenodd" clip-rule="evenodd" d="M158.871 343.221C167.165 337.131 176.148 348.622 168.642 354.712C164.495 358.08 160.155 356.876 157.707 354.074C156.119 356.006 154.642 358.029 153.216 359.739C148.867 364.938 144.77 370.269 140.845 375.711C132.692 387.03 125.703 398.996 118.399 410.74C111.187 422.332 104.036 433.975 97.5012 445.861C91.9681 455.925 84.5839 467.77 82.6924 478.806C85.5651 455.399 96.4795 432.903 109.468 412.268C122.354 391.804 137.143 369.45 157.1 353.296C155.067 350.311 155.017 346.053 158.871 343.221Z" fill="#C1DEE2"/>
<defs>
<linearGradient id="paint0_linear" x1="677.696" y1="146.57" x2="687.981" y2="146.57" gradientUnits="userSpaceOnUse">
<stop stop-color="#C16846"/>
<stop offset="0.2653" stop-color="#D27565"/>
<stop offset="0.5308" stop-color="#DE7F7B"/>
<stop offset="0.7814" stop-color="#E58589"/>
<stop offset="1" stop-color="#E8878E"/>
</linearGradient>
</defs>
</svg>
