<svg width="296" height="75" viewBox="0 0 296 75" fill="none" xmlns="http://www.w3.org/2000/svg">
<path d="M208.18 5.36C208.18 2.4 210.64 0 213.68 0H277.06C280.1 0 282.56 2.4 282.56 5.36V69.48C282.56 72.44 280.1 74.84 277.06 74.84H213.68C210.64 74.84 208.18 72.44 208.18 69.48V5.36Z" fill="#0A66C2"/>
<path d="M0 62.6901H31.04V52.5001H11.23V14.6201H0V62.6901Z" fill="black"/>
<path fill-rule="evenodd" clip-rule="evenodd" d="M46.7498 62.6901V28.9001H35.5198V62.6901H46.7498ZM41.1298 24.2801C45.0498 24.2801 47.4798 21.6801 47.4798 18.4401C47.4098 15.1301 45.0398 12.6001 41.1998 12.6001C37.3598 12.6001 34.8398 15.1201 34.8398 18.4401C34.8398 21.6801 37.2799 24.2801 41.0499 24.2801H41.1298Z" fill="black"/>
<path fill-rule="evenodd" clip-rule="evenodd" d="M51.9592 62.6901H63.1892V43.8201C63.1892 42.8101 63.2592 41.8001 63.5592 41.0801C64.3692 39.0601 66.2192 36.9701 69.3192 36.9701C73.3792 36.9701 75.0092 40.0701 75.0092 44.6101V62.6901H86.2392V43.3101C86.2392 32.9301 80.6992 28.1001 73.3092 28.1001C67.2492 28.1001 64.5892 31.4901 63.1092 33.7901H63.1792V28.8901H51.9492C52.1092 32.0701 51.9592 62.6901 51.9592 62.6901Z" fill="black"/>
<path d="M102.099 14.6201H90.8691V62.6801H102.099V51.7201L104.909 48.1901L113.699 62.6801H127.519L112.739 41.7001L125.669 27.4301H112.149C112.149 27.4301 102.909 40.2001 102.099 41.7101V14.6201Z" fill="black"/>
<path fill-rule="evenodd" clip-rule="evenodd" d="M157.551 48.5898C157.701 47.7198 157.921 46.0598 157.921 44.1698C157.921 35.4298 153.491 26.5698 141.811 26.5698C129.321 26.5698 123.561 36.4498 123.561 45.3998C123.561 56.4798 130.581 63.3998 142.851 63.3998C147.731 63.3998 152.231 62.6798 155.931 61.1698L154.451 53.7498C151.421 54.7498 148.321 55.2598 144.481 55.2598C139.231 55.2598 134.651 53.1098 134.281 48.5198L157.551 48.5898ZM134.201 40.9898C134.501 38.1098 136.421 33.8498 141.221 33.8498C146.321 33.8498 147.501 38.3898 147.501 40.9898H134.201Z" fill="black"/>
<path fill-rule="evenodd" clip-rule="evenodd" d="M185.65 14.6201V30.6001H185.5C183.87 28.2201 180.47 26.6401 175.97 26.6401C167.32 26.6401 159.71 33.5601 159.79 45.3801C159.79 56.3401 166.66 63.4701 175.23 63.4701C179.88 63.4701 184.32 61.4501 186.54 57.5601H186.76L187.2 62.6801H197.18C197.03 60.3001 196.88 56.1901 196.88 52.1601V14.6201H185.65ZM185.65 47.0501C185.65 47.9101 185.58 48.7801 185.43 49.5001C184.77 52.6001 182.11 54.7601 178.85 54.7601C174.19 54.7601 171.16 51.0101 171.16 45.1001C171.16 39.5501 173.75 35.0801 178.92 35.0801C182.39 35.0801 184.83 37.4601 185.5 40.4101C185.65 41.0601 185.65 41.7801 185.65 42.4301V47.0501Z" fill="black"/>
<path fill-rule="evenodd" clip-rule="evenodd" d="M230.72 62.6501V28.8601H219.49V62.6501H230.72ZM225.11 24.2401C229.03 24.2401 231.46 21.6401 231.46 18.4001C231.39 15.0801 229.02 12.5601 225.18 12.5601C221.34 12.5601 218.83 15.0801 218.83 18.4001C218.83 21.6401 221.27 24.2401 225.04 24.2401H225.11Z" fill="white"/>
<path fill-rule="evenodd" clip-rule="evenodd" d="M236.94 62.6501H248.17V43.7801C248.17 42.7701 248.24 41.7601 248.54 41.0401C249.35 39.0201 251.2 36.9301 254.3 36.9301C258.37 36.9301 259.99 40.0301 259.99 44.5701V62.6501H271.22V43.2701C271.22 32.8901 265.68 28.0601 258.29 28.0601C252.23 28.0601 249.57 31.4501 248.09 33.7501H248.16V28.8501H236.93C237.08 32.0201 236.94 62.6501 236.94 62.6501Z" fill="white"/>
<path fill-rule="evenodd" clip-rule="evenodd" d="M289.479 62.0599H290.339V60.1299H290.969L292.139 62.0599H293.049L291.819 60.0599C292.459 59.9799 292.949 59.5899 292.949 58.7699C292.949 57.8599 292.419 57.3499 291.289 57.3499H289.469V62.0599H289.479ZM290.339 58.0799H290.969C291.499 58.0699 292.089 58.0999 292.089 58.7299C292.089 59.3599 291.499 59.3999 290.969 59.3999H290.339V58.0799ZM286.939 59.7299C286.939 61.9999 288.789 63.8499 291.059 63.8499C293.329 63.8499 295.179 61.9999 295.179 59.7299C295.179 57.4599 293.329 55.6099 291.059 55.6099C288.789 55.6099 286.939 57.4599 286.939 59.7299ZM287.669 59.7299C287.669 57.8599 289.189 56.3399 291.059 56.3399C292.929 56.3399 294.449 57.8599 294.449 59.7299C294.449 61.5999 292.929 63.1199 291.059 63.1199C289.189 63.1199 287.669 61.5999 287.669 59.7299Z" fill="#0A66C2"/>
</svg>
