<?xml version="1.0" encoding="utf-8"?>
<!-- Generator: Adobe Illustrator 24.2.3, SVG Export Plug-In . SVG Version: 6.00 Build 0)  -->
<svg version="1.1" id="Layer_1" xmlns="http://www.w3.org/2000/svg" xmlns:xlink="http://www.w3.org/1999/xlink" x="0px" y="0px"
	 viewBox="0 0 131.2 69.6" style="enable-background:new 0 0 131.2 69.6;" xml:space="preserve">
<style type="text/css">
	.st0{fill-rule:evenodd;clip-rule:evenodd;fill:url(#SVGID_1_);}
	.st1{fill:#FFFFFF;}
	.st2{enable-background:new    ;}
</style>
<linearGradient id="SVGID_1_" gradientUnits="userSpaceOnUse" x1="61.5965" y1="63.1196" x2="113.0008" y2="63.1196" gradientTransform="matrix(1 0 0 -1 0 72)">
	<stop  offset="0" style="stop-color:#E30613"/>
	<stop  offset="3.000000e-02" style="stop-color:#E30913"/>
	<stop  offset="6.000000e-02" style="stop-color:#E51411"/>
	<stop  offset="9.000000e-02" style="stop-color:#E7260F"/>
	<stop  offset="0.11" style="stop-color:#EA3F0B"/>
	<stop  offset="0.14" style="stop-color:#ED5F07"/>
	<stop  offset="0.16" style="stop-color:#F28702"/>
	<stop  offset="0.16" style="stop-color:#F39200"/>
	<stop  offset="0.31" style="stop-color:#FDC300"/>
	<stop  offset="0.34" style="stop-color:#EEC304"/>
	<stop  offset="0.4" style="stop-color:#C7C210"/>
	<stop  offset="0.48" style="stop-color:#95C11F"/>
	<stop  offset="0.63" style="stop-color:#009FE3"/>
	<stop  offset="0.73" style="stop-color:#007BC4"/>
	<stop  offset="0.81" style="stop-color:#0069B4"/>
	<stop  offset="0.86" style="stop-color:#2351A3"/>
	<stop  offset="0.92" style="stop-color:#483992"/>
	<stop  offset="0.97" style="stop-color:#5E2A87"/>
	<stop  offset="1" style="stop-color:#662483"/>
</linearGradient>
<path class="st0" d="M112.3,12.7C107.2,3.8,96.8,0,87.2,0S67.3,3.8,62.3,12.6c-0.4,0.6-0.6,1.2-0.7,1.9c0,0.7,0.2,1.4,0.7,2
	c0.6,0.7,1.4,1.1,2.3,1.2c1.1,0,2.2-0.6,2.7-1.5C72.2,7.3,77.8,1.3,87.2,1.3c9.3,0,15.3,6.5,20.2,15.1c0.7,0.9,1.8,1.4,3,1.3
	c1.8-0.1,2.6-2,2.6-3C112.9,13.9,112.7,13.3,112.3,12.7z"/>
<path class="st1" d="M5.1,22.7c-0.1-1.9,1.3-3.5,3.1-3.7c0.1,0,0.2,0,0.3,0h7.5v-3.4H6.2C2.7,15.6,0,19,0,23.1v12.5
	c0,4.2,2.7,7.5,6.2,7.5h9.8v-3.4H8.6c-1.9,0-3.4-1.4-3.5-3.3c0-0.1,0-0.2,0-0.3v-5.4h10.1v-3.4H5.1V22.7z"/>
<polygon class="st1" points="33.6,43.1 29,35.2 29,35.2 24.3,43.1 18.7,43.1 26.2,31.9 19.4,21.5 25.2,21.5 29.4,28.6 29.5,28.6 
	33.7,21.5 39,21.5 32,31.6 39.7,43.1 "/>
<path class="st1" d="M47.9,15.6v20.5c-0.1,1.9,1.3,3.5,3.1,3.7c0.1,0,0.2,0,0.3,0h7.5v3.4h-9.8c-3.6,0-6.2-3.4-6.2-7.5v-20
	L47.9,15.6z"/>
<rect x="62.1" y="21.5" class="st1" width="4.9" height="21.5"/>
<path class="st1" d="M79.8,24.1c-1.1-0.1-2.2,0.2-3.3,0.6V40c0.9,0.3,1.9,0.5,2.8,0.4c3.8,0,5.4-3.3,5.4-8.4
	C84.7,27.6,83.4,24,79.8,24.1 M79.1,43.4c-3.3,0-6.1-0.7-7.4-1.6V16.2l4.8-0.9v6.8c1.4-0.6,3-0.9,4.6-0.9c5,0,8.5,4.1,8.5,10.6
	C89.5,39,85.8,43.5,79.1,43.4"/>
<path class="st1" d="M103.6,24.7c-1.7-0.6-3.6-0.5-5.3,0.2v18.2h-4.9V22.7c3.5-1.4,7.4-1.9,11.2-1.5L103.6,24.7z"/>
<rect x="107.5" y="21.5" class="st1" width="4.9" height="21.5"/>
<path class="st1" d="M122.8,43.4c-2.3,0.1-4.5-0.5-6.5-1.5l1.4-3.1c1.3,0.8,2.9,1.3,4.4,1.2c2.2,0,4-1.3,4-3s-1.4-2.7-3.8-3.6
	c-4.5-1.6-5.4-3.8-5.4-6c0-3.4,3-6.2,7.5-6.2c2.1-0.1,4.3,0.5,6.1,1.5l-1.3,2.8c-1.1-0.8-2.4-1.2-3.8-1.2c-2.2,0-3.7,1.3-3.7,2.8
	c0,1.8,1.8,2.6,3.8,3.4c4.6,1.7,5.7,3.8,5.7,6.3C131.2,40.5,127.9,43.5,122.8,43.4"/>
<g>
	<g class="st2">
		<path class="st1" d="M27.6,64.1c-0.6,0.5-1.5,0.8-2.7,0.8c-1.4,0-2.5-0.5-3.3-1.6c-0.9-1.1-1.3-2.6-1.3-4.5c0-1.9,0.4-3.4,1.3-4.5
			c0.8-1,1.9-1.6,3.3-1.6c1.2,0,2.1,0.3,2.7,0.8L27,55.1c-0.4-0.3-0.9-0.5-1.6-0.5c-1.7,0-2.6,1.4-2.6,4.2c0,1.3,0.2,2.3,0.7,3.1
			c0.4,0.8,1.1,1.1,1.8,1.1c0.6,0,1.2-0.2,1.6-0.5L27.6,64.1z"/>
		<path class="st1" d="M38.1,64c-1.1,0.6-2.5,0.8-4.2,0.8c-3.2,0-4.8-1.2-4.8-3.5c0-1.4,0.6-2.5,1.9-3.2c1-0.5,2.5-0.9,4.6-1.1v-0.6
			c0-1.3-0.8-1.9-2.3-1.9c-1,0-1.9,0.2-2.9,0.7l-0.6-1.5c1.2-0.6,2.5-0.9,4-0.9c2.9,0,4.3,1.3,4.3,4V64z M35.7,63.1v-4.8
			c-1.4,0.2-2.4,0.4-3,0.8c-0.7,0.4-1.1,1.2-1.1,2.2c0,1.4,0.8,2.2,2.5,2.2C34.7,63.4,35.2,63.3,35.7,63.1z"/>
		<path class="st1" d="M56.7,64.7H54v-8.3c0-1.3-0.7-1.9-2-1.9c-0.8,0-1.4,0.3-1.9,0.8v9.4h-2.6v-8.3c0-1.2-0.7-1.9-2.2-1.9
			c-0.6,0-1.2,0.1-1.7,0.3v9.9h-2.6v-11c1.2-0.6,2.6-0.8,4.4-0.8c1.6,0,2.9,0.4,3.6,1.3c0.9-0.8,2.2-1.3,3.7-1.3
			c1.3,0,2.3,0.4,3,1.1c0.6,0.6,1,1.5,1,2.5V64.7z"/>
		<path class="st1" d="M68.9,58.7c0,1.9-0.5,3.4-1.4,4.5c-0.9,1.1-2.2,1.6-3.7,1.6c-0.8,0-1.3-0.1-1.8-0.2v4.7h-2.6V53.6
			c1.1-0.6,2.4-0.8,4-0.8c1.7,0,3,0.5,4,1.6S68.9,56.8,68.9,58.7z M66.3,58.8c0-2.9-1-4.4-2.9-4.4c-0.5,0-1,0.1-1.4,0.2V63
			c0.3,0.1,0.7,0.2,1.2,0.2C65.3,63.2,66.3,61.7,66.3,58.8z"/>
		<path class="st1" d="M80.3,64c-1.2,0.6-2.7,0.9-4.5,0.9c-3,0-4.5-1.3-4.5-3.9v-8H74v8.1c0,1.3,0.7,2,2,2c0.7,0,1.3-0.1,1.8-0.4V53
			h2.6V64z"/>
		<path class="st1" d="M89.8,61.3c0,1-0.4,1.8-1.1,2.5s-1.8,1-3,1c-1.3,0-2.4-0.3-3.2-0.8l0.7-1.7c0.6,0.4,1.3,0.7,2.2,0.7
			c0.5,0,1-0.2,1.3-0.5c0.3-0.3,0.5-0.7,0.5-1.2c0-0.5-0.1-0.9-0.4-1.2c-0.3-0.3-0.7-0.5-1.3-0.8c-1.8-0.7-2.7-1.8-2.7-3.3
			c0-1,0.3-1.8,1-2.4s1.6-1,2.7-1c1.2,0,2.2,0.3,3,0.8l-0.6,1.5c-0.5-0.4-1.2-0.6-1.9-0.6c-0.5,0-0.9,0.1-1.2,0.4
			c-0.3,0.3-0.4,0.7-0.4,1.1c0,0.8,0.6,1.4,1.7,1.8C88.9,58.6,89.8,59.8,89.8,61.3z"/>
	</g>
	<path class="st1" d="M101.6,54.1L101.6,54.1c-0.8-1.8-2.1-3.3-3.8-4.3c-1.7-0.9-3.6-1.3-5.6-1.3v16h2.6v-13
		c0.8,0.2,1.5,0.5,2.2,0.9c0.6,0.4,1.2,1,1.6,1.7c0.9,1.5,1.4,3.3,1.5,5.1c0.1,1,0.1,2.7,0.1,5.3h2.7c0-2.7,0-4.4,0.1-4.9
		c0.1-1.7,0.4-3.3,1.1-4.8c0.4-0.8,1-1.6,1.7-2.1c0.8-0.5,1.6-0.9,2.5-1.2v13h2.6v-16c-1.9-0.1-3.9,0.3-5.6,1.2
		C103.6,50.6,102.3,52.2,101.6,54.1z"/>
</g>
</svg>
