<svg width="65" height="66" viewBox="0 0 65 66" fill="none" xmlns="http://www.w3.org/2000/svg">
<g clip-path="url(#clip0)">
<path d="M3.6102 21.28C11.8402 14.66 20.7402 8.92996 30.1602 4.15996C31.2202 3.61996 30.4702 1.77996 29.9702 1.13996C29.2602 0.21996 28.1702 -0.34004 27.0902 0.20996C17.6702 4.97996 8.7702 10.72 0.5402 17.33C-1.2498 18.77 1.8202 22.72 3.6102 21.28Z" fill="#3D3D3B"/>
<path d="M4.48983 41.92C23.5398 36.37 43.1198 32.77 62.8998 31.15C66.0698 30.89 64.6198 26.37 61.8398 26.6C41.6798 28.25 21.6998 31.96 2.27983 37.62C1.04983 37.98 0.739831 39.51 1.26983 40.54C1.86983 41.71 3.23983 42.29 4.48983 41.92Z" fill="#3D3D3B"/>
<path d="M6.41009 59.51C18.7901 61.59 31.1601 63.66 43.5401 65.74C44.5801 65.92 45.6901 65.24 46.4701 64.6C46.6701 64.43 48.2501 62.85 47.3001 62.69C34.9201 60.61 22.5501 58.54 10.1701 56.46C9.13009 56.28 8.02009 56.96 7.24009 57.6C7.05009 57.76 5.47009 59.35 6.41009 59.51Z" fill="#3D3D3B"/>
</g>
<defs>
<clipPath id="clip0">
<rect width="64.7" height="65.77" fill="white"/>
</clipPath>
</defs>
</svg>
