<svg width="65" height="66" viewBox="0 0 65 66" fill="none" xmlns="http://www.w3.org/2000/svg">
<g clip-path="url(#clip0)">
<path d="M4.5003 11.239C14.4981 7.83306 24.8212 5.4926 35.3045 4.23209C36.4853 4.0872 36.4098 2.10165 36.1589 1.32924C35.8064 0.221886 34.9736 -0.677144 33.7706 -0.529695C23.2873 0.730809 12.9608 3.08067 2.96642 6.47721C0.791863 7.21815 2.32574 11.9799 4.5003 11.239Z" fill="#3D3D3B"/>
<path d="M3.29729 33.5903C23.0966 34.8905 42.7271 38.2044 61.8683 43.4472C64.936 44.2871 65.1194 39.5438 62.4284 38.8091C42.9199 33.4644 22.8759 30.1171 2.69126 28.7938C1.41231 28.7114 0.597712 30.0431 0.743468 31.1922C0.90712 32.4969 1.99613 33.5105 3.29729 33.5903Z" fill="#3D3D3B"/>
<path d="M6.41909 50.995C17.3411 57.1838 28.2571 63.3597 39.1791 69.5485C40.0948 70.0734 41.3704 69.814 42.3223 69.4794C42.5684 69.388 44.5935 68.4437 43.7555 67.9684C32.8335 61.7797 21.9175 55.6037 10.9955 49.415C10.0798 48.8901 8.80414 49.1495 7.85229 49.4841C7.61902 49.5695 5.5905 50.5232 6.41909 50.995Z" fill="#3D3D3B"/>
</g>
<defs>
<clipPath id="clip0">
<rect width="64.7" height="65.77" fill="white"/>
</clipPath>
</defs>
</svg>
