<svg width="768" height="1560" viewBox="0 0 768 1560" fill="none" xmlns="http://www.w3.org/2000/svg">
<g clip-path="url(#clip0)">
<path d="M651.86 1559.82H116.08C51.97 1559.82 0 1507.85 0 1443.74V116.08C0 51.97 51.97 0 116.08 0H651.86C715.97 0 767.94 51.97 767.94 116.08V1443.74C767.94 1507.85 715.97 1559.82 651.86 1559.82Z" fill="#E0E0E0"/>
<path d="M652.03 1558.73H115.91C52.4595 1558.73 1.01953 1507.29 1.01953 1443.84V115.33C1.01953 51.8699 52.4595 0.439941 115.91 0.439941H652.03C715.48 0.439941 766.919 51.8799 766.919 115.33V1443.85C766.919 1507.29 715.48 1558.73 652.03 1558.73Z" fill="#E1E1E1"/>
<path d="M652.2 1557.64H115.73C52.9403 1557.64 2.03027 1506.74 2.03027 1443.94V114.57C2.03027 51.7801 52.9303 0.870117 115.73 0.870117H652.2C714.99 0.870117 765.9 51.7701 765.9 114.57V1443.94C765.9 1506.74 715 1557.64 652.2 1557.64Z" fill="#E2E2E2"/>
<path d="M652.38 1556.56H115.56C53.4198 1556.56 3.0498 1506.19 3.0498 1444.05V113.82C3.0598 51.6801 53.4298 1.31006 115.56 1.31006H652.37C714.51 1.31006 764.88 51.6801 764.88 113.82V1444.05C764.88 1506.18 714.51 1556.56 652.38 1556.56Z" fill="#E3E3E3"/>
<path d="M652.55 1555.47H115.39C53.9101 1555.47 4.08008 1505.63 4.08008 1444.16V113.06C4.07008 51.59 53.9101 1.75 115.39 1.75H652.55C714.03 1.75 763.87 51.59 763.87 113.07V1444.16C763.86 1505.63 714.03 1555.47 652.55 1555.47Z" fill="#E4E4E4"/>
<path d="M652.72 1554.38H115.22C54.3996 1554.38 5.09961 1505.08 5.09961 1444.26V112.31C5.08961 51.4899 54.3996 2.18994 115.22 2.18994H652.72C713.54 2.18994 762.84 51.4899 762.84 112.31V1444.26C762.84 1505.08 713.54 1554.38 652.72 1554.38Z" fill="#E5E5E5"/>
<path d="M652.89 1553.29H115.05C54.8901 1553.29 6.12012 1504.52 6.12012 1444.36V111.56C6.11012 51.4001 54.8801 2.62012 115.05 2.62012H652.9C713.06 2.62012 761.83 51.3901 761.83 111.55V1444.35C761.83 1504.52 713.05 1553.29 652.89 1553.29Z" fill="#E6E6E6"/>
<path d="M653.06 1552.21H114.87C55.3699 1552.21 7.12988 1503.97 7.12988 1444.47V110.8C7.12988 51.3001 55.3699 3.06006 114.87 3.06006H653.06C712.56 3.06006 760.8 51.3001 760.8 110.8V1444.46C760.81 1503.97 712.57 1552.21 653.06 1552.21Z" fill="#E7E7E7"/>
<path d="M653.24 1551.12H114.7C55.8504 1551.12 8.15039 1503.42 8.15039 1444.57V110.05C8.15039 51.2 55.8504 3.5 114.7 3.5H653.24C712.09 3.5 759.79 51.2 759.79 110.05V1444.57C759.79 1503.42 712.08 1551.12 653.24 1551.12Z" fill="#E8E8E8"/>
<path d="M653.41 1550.03H114.53C56.3399 1550.03 9.16992 1502.86 9.16992 1444.67V109.3C9.16992 51.1099 56.3399 3.93994 114.53 3.93994H653.41C711.6 3.93994 758.77 51.1099 758.77 109.3V1444.68C758.77 1502.86 711.6 1550.03 653.41 1550.03Z" fill="#E9E9E9"/>
<path d="M653.58 1548.95H114.36C56.8304 1548.95 10.1904 1502.31 10.1904 1444.78V108.54C10.1904 51.0101 56.8304 4.37012 114.36 4.37012H653.59C711.12 4.37012 757.76 51.0101 757.76 108.54V1444.78C757.75 1502.31 711.11 1548.95 653.58 1548.95Z" fill="#EAEAEA"/>
<path d="M653.75 1547.86H114.18C57.3102 1547.86 11.2002 1501.76 11.2002 1444.88V107.79C11.2002 50.9201 57.3002 4.81006 114.18 4.81006H653.75C710.62 4.81006 756.73 50.9101 756.73 107.79V1444.88C756.73 1501.76 710.63 1547.86 653.75 1547.86Z" fill="#EBEBEB"/>
<path d="M653.93 1546.77H114.01C57.7897 1546.77 12.2197 1501.2 12.2197 1444.98V107.04C12.2197 50.82 57.7997 5.25 114.01 5.25H653.93C710.15 5.25 755.72 50.82 755.72 107.04V1444.99C755.71 1501.2 710.14 1546.77 653.93 1546.77Z" fill="#ECECEC"/>
<path d="M654.1 1545.69H113.84C58.2802 1545.69 13.2402 1500.65 13.2402 1445.09V106.28C13.2402 50.7202 58.2802 5.68018 113.84 5.68018H654.1C709.66 5.68018 754.7 50.7202 754.7 106.28V1445.09C754.69 1500.65 709.66 1545.69 654.1 1545.69Z" fill="#EDEDED"/>
<path d="M654.27 1544.6H113.67C58.7695 1544.6 14.2695 1500.09 14.2695 1445.2V105.53C14.2695 50.6299 58.7795 6.12988 113.67 6.12988H654.27C709.17 6.12988 753.669 50.6399 753.669 105.53V1445.2C753.679 1500.09 709.17 1544.6 654.27 1544.6Z" fill="#EEEEEE"/>
<path d="M654.44 1543.51H113.49C59.2503 1543.51 15.2803 1499.54 15.2803 1445.3V104.77C15.2803 50.5301 59.2503 6.56006 113.49 6.56006H654.44C708.68 6.56006 752.65 50.5301 752.65 104.77V1445.3C752.66 1499.54 708.69 1543.51 654.44 1543.51Z" fill="#EFEFEF"/>
<path d="M654.62 1542.43H113.32C59.7398 1542.43 16.2998 1498.99 16.2998 1445.41V104.02C16.2998 50.44 59.7398 7 113.32 7H654.61C708.19 7 751.63 50.44 751.63 104.02V1445.4C751.64 1498.99 708.2 1542.43 654.62 1542.43Z" fill="#F0F0F0"/>
<path d="M654.79 1541.34H113.15C60.2203 1541.34 17.3203 1498.43 17.3203 1445.51V103.27C17.3203 50.3399 60.2303 7.43994 113.15 7.43994H654.79C707.72 7.43994 750.62 50.3499 750.62 103.27V1445.51C750.62 1498.43 707.71 1541.34 654.79 1541.34Z" fill="#F0F0F0"/>
<path d="M654.96 1540.25H112.98C60.7098 1540.25 18.3398 1497.88 18.3398 1445.61V102.51C18.3398 50.2401 60.7098 7.87012 112.98 7.87012H654.96C707.23 7.87012 749.6 50.2401 749.6 102.51V1445.61C749.6 1497.88 707.23 1540.25 654.96 1540.25Z" fill="#F1F1F1"/>
<path d="M655.13 1539.16H112.81C61.2003 1539.16 19.3604 1497.32 19.3604 1445.71V101.76C19.3604 50.1501 61.2003 8.31006 112.81 8.31006H655.14C706.75 8.31006 748.59 50.1501 748.59 101.76V1445.72C748.58 1497.33 706.74 1539.16 655.13 1539.16Z" fill="#F2F2F2"/>
<path d="M655.3 1538.08H112.63C61.6801 1538.08 20.3701 1496.77 20.3701 1445.82V101.01C20.3701 50.06 61.6801 8.75 112.63 8.75H655.3C706.25 8.75 747.56 50.06 747.56 101.01V1445.82C747.56 1496.77 706.26 1538.08 655.3 1538.08Z" fill="#F3F3F3"/>
<path d="M655.48 1536.99H112.46C62.1596 1536.99 21.3896 1496.22 21.3896 1445.92V100.25C21.3896 49.9502 62.1596 9.18018 112.46 9.18018H655.48C705.78 9.18018 746.55 49.9502 746.55 100.25V1445.92C746.55 1496.22 705.77 1536.99 655.48 1536.99Z" fill="#F4F4F4"/>
<path d="M655.65 1535.9H112.29C62.6502 1535.9 22.4102 1495.66 22.4102 1446.02V99.5001C22.4102 49.8601 62.6502 9.62012 112.29 9.62012H655.65C705.29 9.62012 745.53 49.8601 745.53 99.5001V1446.03C745.53 1495.67 705.29 1535.9 655.65 1535.9Z" fill="#F5F5F5"/>
<path d="M655.82 1534.82H112.12C63.1397 1534.82 23.4297 1495.11 23.4297 1446.13V98.7501C23.4297 49.7701 63.1397 10.0601 112.12 10.0601H655.83C704.81 10.0601 744.52 49.7701 744.52 98.7501V1446.14C744.51 1495.11 704.8 1534.82 655.82 1534.82Z" fill="#F6F6F6"/>
<path d="M655.99 1533.73H111.94C63.6202 1533.73 24.4502 1494.56 24.4502 1446.24V97.99C24.4502 49.67 63.6202 10.5 111.94 10.5H655.99C704.31 10.5 743.48 49.67 743.48 97.99V1446.23C743.49 1494.56 704.32 1533.73 655.99 1533.73Z" fill="#F7F7F7"/>
<path d="M656.17 1532.64H111.77C64.1097 1532.64 25.4697 1494 25.4697 1446.34V97.2399C25.4697 49.5799 64.1097 10.9399 111.77 10.9399H656.17C703.83 10.9399 742.47 49.5799 742.47 97.2399V1446.34C742.47 1494 703.83 1532.64 656.17 1532.64Z" fill="#F8F8F8"/>
<path d="M656.34 1531.56H111.6C64.5902 1531.56 26.4902 1493.45 26.4902 1446.45V96.4801C26.4902 49.4701 64.6002 11.3701 111.6 11.3701H656.34C703.35 11.3701 741.45 49.4801 741.45 96.4801V1446.44C741.45 1493.45 703.35 1531.56 656.34 1531.56Z" fill="#F9F9F9"/>
<path d="M656.51 1530.47H111.43C65.0798 1530.47 27.5098 1492.9 27.5098 1446.55V95.7301C27.5098 49.3801 65.0798 11.8101 111.43 11.8101H656.51C702.86 11.8101 740.43 49.3801 740.43 95.7301V1446.55C740.43 1492.9 702.86 1530.47 656.51 1530.47Z" fill="#FAFAFA"/>
<path d="M656.68 1529.38H111.25C65.5595 1529.38 28.5195 1492.34 28.5195 1446.65V94.98C28.5195 49.29 65.5595 12.25 111.25 12.25H656.68C702.37 12.25 739.409 49.29 739.409 94.98V1446.66C739.409 1492.34 702.37 1529.38 656.68 1529.38Z" fill="#FBFBFB"/>
<path d="M656.86 1528.3H111.08C66.05 1528.3 29.54 1491.79 29.54 1446.76V94.2202C29.54 49.1902 66.05 12.6802 111.08 12.6802H656.85C701.88 12.6802 738.39 49.1902 738.39 94.2202V1446.75C738.4 1491.79 701.89 1528.3 656.86 1528.3Z" fill="#FCFCFC"/>
<path d="M657.03 1527.21H110.91C66.5296 1527.21 30.5596 1491.24 30.5596 1446.86V93.4701C30.5596 49.0901 66.5296 13.1201 110.91 13.1201H657.03C701.41 13.1201 737.38 49.0901 737.38 93.4701V1446.86C737.38 1491.24 701.4 1527.21 657.03 1527.21Z" fill="#FDFDFD"/>
<path d="M657.2 1526.12H110.74C67.0201 1526.12 31.5801 1490.68 31.5801 1446.96V92.7201C31.5801 49.0001 67.0201 13.5601 110.74 13.5601H657.2C700.92 13.5601 736.36 49.0001 736.36 92.7201V1446.97C736.36 1490.68 700.92 1526.12 657.2 1526.12Z" fill="#FEFEFE"/>
<path d="M657.37 1525.04H110.56C67.4998 1525.04 32.5898 1490.13 32.5898 1447.07V91.96C32.5998 48.9 67.4998 14 110.56 14H657.37C700.43 14 735.34 48.91 735.34 91.97V1447.08C735.34 1490.13 700.43 1525.04 657.37 1525.04Z" fill="white"/>
<path d="M663.83 27.4199H104.1C60.02 27.4199 24.29 63.1499 24.29 107.23V1444.69C24.29 1488.77 60.02 1524.5 104.1 1524.5H663.83C707.91 1524.5 743.64 1488.77 743.64 1444.69V107.23C743.64 63.1499 707.91 27.4199 663.83 27.4199Z" fill="#E6E7E8"/>
</g>
<defs>
<clipPath id="clip0">
<rect width="767.94" height="1559.82" fill="white"/>
</clipPath>
</defs>
</svg>
