<svg width="57" height="57" viewBox="0 0 57 57" fill="none" xmlns="http://www.w3.org/2000/svg">
<circle cx="28.5" cy="28.5" r="28.5" fill="#E8E8E8"/>
<path d="M20 40.9998C19.7348 40.9998 19.4804 40.8945 19.2929 40.7069C19.1054 40.5194 19 40.265 19 39.9998V17.9998C19 17.8261 19.0453 17.6553 19.1315 17.5044C19.2176 17.3534 19.3416 17.2276 19.4912 17.1391C19.6407 17.0507 19.8108 17.0028 19.9845 17.0001C20.1583 16.9974 20.3297 17.0401 20.482 17.1238L40.482 28.1238C40.6388 28.2102 40.7695 28.337 40.8606 28.4911C40.9517 28.6451 40.9997 28.8208 40.9997 28.9998C40.9997 29.1788 40.9517 29.3545 40.8606 29.5086C40.7695 29.6627 40.6388 29.7895 40.482 29.8758L20.482 40.8758C20.3344 40.9571 20.1685 40.9998 20 40.9998Z" fill="white"/>
</svg>
