<svg width="393" height="169" viewBox="0 0 393 169" fill="none" xmlns="http://www.w3.org/2000/svg">
<g clip-path="url(#clip0)">
<path d="M9.06026 164.06C8.34026 143.65 14.5503 123.65 25.5603 106.47C36.8703 88.8302 52.9903 74.9502 71.6903 65.6302C91.2803 55.8702 113.31 51.2802 135.13 51.0702C145.62 50.9702 156.2 51.6202 166.37 54.1302C175.81 56.4602 185.03 60.6102 191.37 68.2402C191.69 68.6302 191.47 68.3502 191.41 68.2602C191.56 68.4502 191.7 68.6402 191.83 68.8402C192.11 69.2302 192.38 69.6202 192.64 70.0202C193.25 70.9602 193.81 71.9402 194.31 72.9402C195.14 74.5802 195.68 76.0502 196.25 78.1702C196.52 79.1802 196.73 80.2002 196.91 81.2302C197.04 82.0002 196.93 81.1602 197.01 81.9402C197.08 82.5702 197.13 83.2102 197.16 83.8402C197.21 84.7902 197.21 85.7402 197.17 86.6802C197.15 87.2302 197.1 87.7702 197.05 88.3202C197.03 88.5502 197.01 88.7902 196.97 89.0202C197.04 88.5302 196.97 88.9702 196.92 89.2002C196.74 90.1802 196.52 91.1602 196.24 92.1202C196.11 92.5602 195.96 92.9902 195.82 93.4202C195.75 93.6402 195.67 93.8502 195.58 94.0602C195.76 93.6102 195.6 94.0302 195.5 94.2402C195.09 95.1302 194.63 95.9902 194.1 96.8202C193.37 97.9802 193.41 97.9102 192.61 98.7802C191.99 99.4602 191.33 100.09 190.62 100.68C190.23 101 190.53 100.76 190.61 100.69C190.36 100.88 190.1 101.06 189.84 101.23C189.34 101.56 188.83 101.86 188.31 102.15C187.28 102.7 187.1 102.79 185.92 103.17C184.89 103.5 183.83 103.76 182.76 103.91C182.23 103.99 182.61 103.92 182.72 103.91C182.39 103.95 182.05 103.97 181.72 103.99C181.22 104.02 180.71 104.03 180.21 104.03C179.7 104.03 179.2 104.01 178.69 103.98C177.85 103.92 177.92 103.94 177.36 103.85C175.46 103.54 172.91 102.81 171.55 102.22C167.59 100.5 164.05 97.8002 161.77 94.5702C156.02 86.4502 154.96 75.9802 156.94 66.4202C160.88 47.3502 175.14 32.3002 191.81 22.9402C211.78 11.7202 235.26 9.02021 257.91 8.98021C278.91 8.94021 300.36 10.0102 320.79 14.1102C338.97 17.7602 357.2 24.1602 370.95 36.5802C374.24 39.5502 377.45 43.0002 379.99 46.4102C381.44 48.3602 383.89 49.3502 386.15 48.0202C388.07 46.9002 389.22 43.8202 387.76 41.8602C375.16 24.9202 356.71 14.5502 336.69 8.72021C315.88 2.65021 293.96 1.04021 272.39 0.250215C246.67 -0.689785 220.1 0.380215 196.16 10.7602C176.48 19.2902 159.12 34.4802 151.09 54.6902C146.92 65.1902 145.61 77.3402 148.86 88.2702C152.08 99.0802 159.74 107.7 170.49 111.38C180.17 114.69 191.65 112.97 198.82 105.3C205.57 98.0802 207.22 87.8002 205.49 78.3502C203.61 68.0502 197.22 59.6802 188.67 53.8802C179.27 47.5102 167.94 44.7402 156.83 43.2902C133.57 40.2602 109.17 42.4602 86.8703 49.7602C64.6803 57.0202 44.1803 69.5802 28.7903 87.2602C13.9103 104.36 3.79026 125.37 0.830261 147.91C0.130261 153.26 -0.129739 158.65 0.0602611 164.04C0.270261 169.83 9.27026 169.86 9.06026 164.06Z" fill="black"/>
<path d="M383.09 30.2802C383.06 35.7602 383.04 41.2402 383.01 46.7202C384.51 45.2202 386.01 43.7202 387.51 42.2202C381.67 42.3102 375.82 42.3902 369.98 42.4802C367.63 42.5102 365.37 44.5302 365.48 46.9802C365.59 49.3902 367.46 51.5202 369.98 51.4802C375.82 51.3902 381.67 51.3102 387.51 51.2202C389.95 51.1802 392 49.1902 392.01 46.7202C392.04 41.2402 392.06 35.7602 392.09 30.2802C392.1 27.9302 390.01 25.6702 387.59 25.7802C385.14 25.8902 383.1 27.7602 383.09 30.2802Z" fill="black"/>
</g>
<defs>
<clipPath id="clip0">
<rect width="392.09" height="168.4" fill="white"/>
</clipPath>
</defs>
</svg>
