<svg width="145" height="174" viewBox="0 0 145 174" fill="none" xmlns="http://www.w3.org/2000/svg">
<g clip-path="url(#clip0)">
<path d="M144.09 171.18C129.82 164.91 125.131 147.61 124.801 133.39C124.581 123.58 125.801 113.82 125.821 104.02C125.841 95.9699 124.891 87.9399 122.911 80.1399C119.051 64.9999 111.531 50.8199 101.161 39.1399C90.4905 27.1099 76.7705 18.0699 61.6105 12.7599C46.3605 7.41993 29.7505 5.82993 13.7905 8.39993C11.7905 8.71993 9.81051 9.10993 7.84051 9.56993C5.95051 9.99993 6.63051 12.5399 8.42051 12.1299C24.1605 8.52993 40.7105 9.15993 56.1805 13.7599C71.5405 18.3199 85.5805 26.7299 96.6405 38.3399C107.411 49.6399 115.301 63.6499 119.461 78.6899C121.571 86.2999 122.721 94.1699 122.821 102.07C122.941 111.8 121.741 121.48 121.781 131.21C121.841 145.79 125.561 162.35 138.391 171.08C139.861 172.08 141.441 172.91 143.071 173.62C144.761 174.34 145.86 171.96 144.09 171.18Z" fill="#DF1F2C"/>
<path d="M10.0409 0.419908C5.96093 2.64991 0.43093 6.11991 0.0209295 11.2899C-0.40907 16.8099 5.31093 19.4799 9.62093 21.1099C10.2309 21.3399 11.1109 21.1099 11.6609 20.8099C11.9809 20.6399 12.6209 20.1399 11.9909 19.8999C8.01093 18.3999 2.80093 16.0399 2.90093 11.0099C3.00093 6.27991 8.07093 3.02991 11.7509 1.01991C12.1509 0.799908 12.6009 0.439908 12.0809 0.109908C11.5909 -0.190092 10.4809 0.169908 10.0409 0.419908Z" fill="#DF1F2C"/>
</g>
<defs>
<clipPath id="clip0">
<rect width="144.99" height="173.75" fill="white"/>
</clipPath>
</defs>
</svg>
