<svg xmlns="http://www.w3.org/2000/svg" viewBox="0 0 96.07 29.98"><g id="Layer_2" data-name="Layer 2"><g id="Layer_1-2" data-name="Layer 1"><path d="M94.14,6.67c-1.89,4.4-3.65,9.29-7.35,12.54-6,5.31-13.27,1.28-18.88-2.49-8.26-5.56-15.54-13-25.42-15.64-17.29-4.61-35.83,6-40,23.31-.46-2-.77-4.07-1.13-6.16-.14-.78-1.32-.55-1.35.19A40,40,0,0,0,1.6,29.16a1.11,1.11,0,0,0,1.85.48c2.58-3.13,5.51-6,8.07-9.1A1.1,1.1,0,0,0,10,19a37.59,37.59,0,0,0-6.31,6.69C7,14.83,14.87,5.91,26.27,3.15,38.66.15,49,5.41,58.54,12.71c6.4,4.87,15.08,13.1,23.89,11.36C90,22.58,94.12,14.12,96,7.47,96.34,6.38,94.62,5.58,94.14,6.67Z"/></g></g></svg>