<svg width="37" height="42" viewBox="0 0 37 42" fill="none" xmlns="http://www.w3.org/2000/svg">
<g clip-path="url(#clip0)">
<path d="M0.850356 3.39001C11.8704 10.21 19.0004 21.74 20.0604 34.68C20.2504 36.97 23.8504 36.99 23.6604 34.68C22.4904 20.43 14.8404 7.81001 2.66036 0.280007C0.690356 -0.939993 -1.11964 2.17001 0.850356 3.39001Z" fill="black"/>
<path d="M7.54968 33.93C11.2697 36.07 14.9697 38.29 18.7297 40.35C20.6097 41.38 22.2597 42.33 24.3997 41.76C29.4197 40.43 33.9197 31.88 36.0697 27.7C37.1297 25.64 34.0197 23.82 32.9597 25.88C31.1897 29.32 28.2097 35.79 24.5397 37.49C20.5697 39.34 12.7397 32.75 9.35968 30.81C7.35968 29.66 5.53968 32.77 7.54968 33.93Z" fill="black"/>
</g>
<defs>
<clipPath id="clip0">
<rect width="36.29" height="41.94" fill="white"/>
</clipPath>
</defs>
</svg>
