<svg width="2322" height="615" viewBox="0 0 2322 615" fill="none" xmlns="http://www.w3.org/2000/svg">
<path fill-rule="evenodd" clip-rule="evenodd" d="M0 555.999C0 555.999 560.301 465.583 1074 544.192C1751.69 647.899 1911.58 637.562 2232.4 508.759C2429.8 429.274 2239.44 38.999 2239.44 38.999C2239.44 38.999 128.871 -3.92804 113.999 0.999963C99.128 5.92896 0 555.999 0 555.999Z" fill="white"/>
<path d="M0 555.999C0 555.999 560.301 465.583 1074 544.192C1751.69 647.899 1911.58 637.562 2232.4 508.759C2429.8 429.274 2239.44 38.999 2239.44 38.999C2239.44 38.999 128.871 -3.92804 113.999 0.999963C99.128 5.92896 0 555.999 0 555.999Z" fill="url(#paint0_linear_16_21)"/>
<defs>
<linearGradient id="paint0_linear_16_21" x1="1902.06" y1="352.73" x2="1548.36" y2="-584.026" gradientUnits="userSpaceOnUse">
<stop stop-color="#A0F0E5"/>
<stop offset="1" stop-color="#83BCE4"/>
</linearGradient>
</defs>
</svg>
