<svg width="35" height="100" viewBox="0 0 35 100" fill="none" xmlns="http://www.w3.org/2000/svg">
<path fill-rule="evenodd" clip-rule="evenodd" d="M25 65H35V75H33V67H25V65Z" fill="#464646"/>
<path fill-rule="evenodd" clip-rule="evenodd" d="M21.293 77.2929L33.293 65.2929L34.7072 66.7071L22.7072 78.7071L21.293 77.2929Z" fill="#464646"/>
<path fill-rule="evenodd" clip-rule="evenodd" d="M35 90V100H25V98H33V90H35Z" fill="#464646"/>
<path fill-rule="evenodd" clip-rule="evenodd" d="M22.7072 86.2929L34.7072 98.2929L33.293 99.7071L21.293 87.7071L22.7072 86.2929Z" fill="#464646"/>
<path fill-rule="evenodd" clip-rule="evenodd" d="M0 65H10V67H2V75H0V65Z" fill="#464646"/>
<path fill-rule="evenodd" clip-rule="evenodd" d="M12.293 78.7071L0.292969 66.7071L1.70718 65.2929L13.7072 77.2929L12.293 78.7071Z" fill="#464646"/>
<path fill-rule="evenodd" clip-rule="evenodd" d="M2 98V90H0V100H10V98H2Z" fill="#464646"/>
<path fill-rule="evenodd" clip-rule="evenodd" d="M13.7072 87.7071L1.70718 99.7071L0.292969 98.2929L12.293 86.2929L13.7072 87.7071Z" fill="#464646"/>
<path fill-rule="evenodd" clip-rule="evenodd" d="M14 79H21V86H14V79ZM16 81V84H19V81H16Z" fill="#464646"/>
<path d="M22.8207 14.5621H17.7975V8.85776C17.7975 8.67045 17.6442 8.5172 17.4569 8.5172H14.9027C14.7154 8.5172 14.5621 8.67045 14.5621 8.85776V14.5621H9.53888C9.35157 14.5621 9.19832 14.7154 9.19832 14.9027V17.4569C9.19832 17.6442 9.35157 17.7975 9.53888 17.7975H14.5621V23.5018C14.5621 23.6891 14.7154 23.8424 14.9027 23.8424H17.4569C17.6442 23.8424 17.7975 23.6891 17.7975 23.5018V17.7975H22.8207C23.008 17.7975 23.1613 17.6442 23.1613 17.4569V14.9027C23.1613 14.7154 23.008 14.5621 22.8207 14.5621ZM34.9106 32.6118L28.6954 26.3966C33.8932 20.0579 33.5313 10.667 27.5886 4.72846C21.2882 -1.57615 11.0544 -1.57615 4.72846 4.72846C-1.57615 11.0544 -1.57615 21.2882 4.72846 27.5886C10.667 33.5313 20.0579 33.8932 26.3966 28.6954L32.6118 34.9106C32.748 35.0298 32.9652 35.0298 33.0801 34.9106L34.9106 33.0801C35.0298 32.9652 35.0298 32.748 34.9106 32.6118ZM25.3324 25.3324C20.275 30.3854 12.0846 30.3854 7.02725 25.3324C1.97419 20.275 1.97419 12.0846 7.02725 7.02725C12.0846 1.97419 20.275 1.97419 25.3324 7.02725C30.3854 12.0846 30.3854 20.275 25.3324 25.3324Z" fill="#464646"/>
</svg>
