<?xml version="1.0" encoding="UTF-8"?> <svg xmlns="http://www.w3.org/2000/svg" viewBox="0 0 109.01 71.62"><defs><style>.cls-1{fill:none;stroke:#1978c5;stroke-linecap:round;stroke-linejoin:round;stroke-width:3px;}</style></defs><g id="Layer_2" data-name="Layer 2"><g id="Layer_1-2" data-name="Layer 1"><path class="cls-1" d="M62.52,37l5,15.22C63.94,59,56.82,64.92,47.62,68l-.36.12c-9.2,3-18.46,2.54-25.43-.74L18.71,58"></path><line class="cls-1" x1="83.53" y1="54.44" x2="85.71" y2="61.03"></line><line class="cls-1" x1="74.61" y1="27.57" x2="80.9" y2="46.52"></line><path class="cls-1" d="M86.19,49.16a4.19,4.19,0,1,1-5.3-2.66A4.19,4.19,0,0,1,86.19,49.16Z"></path><path class="cls-1" d="M63,16.77A162.64,162.64,0,0,0,77.1,2.48c.3-.35.23-1.19-.15-.93"></path><path class="cls-1" d="M74.48,17.17,93.24,5.43"></path><path class="cls-1" d="M83.06,23.32a201.59,201.59,0,0,1,24.45-8.07"></path><polygon class="cls-1" points="41.78 51.8 1.5 51.84 34.3 27.62 74.58 27.57 41.78 51.8"></polygon></g></g></svg> 