<?xml version="1.0" encoding="UTF-8"?> <svg xmlns="http://www.w3.org/2000/svg" xmlns:xlink="http://www.w3.org/1999/xlink" viewBox="0 0 1060.5 711.09"><defs><style>.cls-1{fill:#e84d00;}.cls-2,.cls-52{fill:#fff;}.cls-3{fill:#deeeec;}.cls-100,.cls-101,.cls-3,.cls-5,.cls-6,.cls-63,.cls-7,.cls-8,.cls-83,.cls-84,.cls-85,.cls-86,.cls-87,.cls-88,.cls-89,.cls-9,.cls-90,.cls-91,.cls-92,.cls-93,.cls-94,.cls-95,.cls-96,.cls-97,.cls-98,.cls-99{fill-rule:evenodd;}.cls-4{fill:#d7e0df;}.cls-5{fill:#0f9283;opacity:0.17;}.cls-5,.cls-92{isolation:isolate;}.cls-6{fill:#a1cecb;}.cls-7{fill:#69a1ac;}.cls-8{fill:#89c5cc;}.cls-28,.cls-9{fill:#f2f2f2;}.cls-10{fill:#e0e0e0;}.cls-11{fill:#e1e1e1;}.cls-12{fill:#e2e2e2;}.cls-13{fill:#e3e3e3;}.cls-14{fill:#e4e4e4;}.cls-15{fill:#e5e5e5;}.cls-16{fill:#e6e6e6;}.cls-17{fill:#e7e7e7;}.cls-18{fill:#e8e8e8;}.cls-19{fill:#e9e9e9;}.cls-20{fill:#eaeaea;}.cls-21{fill:#ebebeb;}.cls-22{fill:#ececec;}.cls-23{fill:#ededed;}.cls-24{fill:#eee;}.cls-25{fill:#efefef;}.cls-26{fill:#f0f0f0;}.cls-27{fill:#f1f1f1;}.cls-29{fill:#f3f3f3;}.cls-30{fill:#f4f4f4;}.cls-31{fill:#f5f5f5;}.cls-32{fill:#f6f6f6;}.cls-33{fill:#f7f7f7;}.cls-34{fill:#f8f8f8;}.cls-35{fill:#f9f9f9;}.cls-36{fill:#fafafa;}.cls-37{fill:#fbfbfb;}.cls-38{fill:#fcfcfc;}.cls-39{fill:#fdfdfd;}.cls-40{fill:#fefefe;}.cls-41{fill:#e6e7e8;}.cls-42{fill:#1a1a1a;}.cls-43{fill:url(#linear-gradient);}.cls-44,.cls-48,.cls-50,.cls-51,.cls-53,.cls-54,.cls-58,.cls-67,.cls-71,.cls-74,.cls-75,.cls-77,.cls-80,.cls-82{fill:none;}.cls-44,.cls-74{stroke:#fff;}.cls-44,.cls-48,.cls-54,.cls-58{stroke-miterlimit:10;}.cls-44{stroke-width:1.9px;}.cls-45{fill:url(#linear-gradient-2);}.cls-46{fill:#eabd3d;}.cls-47{clip-path:url(#clip-path);}.cls-48,.cls-53,.cls-54,.cls-58{stroke:#1a1a1a;}.cls-48{stroke-width:1.93px;}.cls-49{clip-path:url(#clip-path-2);}.cls-50,.cls-51{stroke:#d26665;}.cls-50,.cls-51,.cls-53,.cls-67,.cls-71,.cls-74,.cls-75,.cls-77,.cls-80,.cls-82{stroke-linecap:round;stroke-linejoin:round;}.cls-50{stroke-width:0.52px;}.cls-51{stroke-width:0.39px;}.cls-52{opacity:0.19;}.cls-53,.cls-54{stroke-width:0.33px;}.cls-55{fill:#292728;}.cls-56{fill:#686266;}.cls-57{clip-path:url(#clip-path-3);}.cls-58{stroke-width:1.51px;}.cls-59,.cls-63{fill:#f5f6f7;}.cls-60{fill:#dde3e9;}.cls-61{fill:#c5cfd6;}.cls-62{fill:#afb9c5;}.cls-64{fill:#dcb527;}.cls-65{fill:#05162e;}.cls-66{clip-path:url(#clip-path-4);}.cls-67{stroke:#ad523f;stroke-width:0.48px;}.cls-68{fill:url(#linear-gradient-3);}.cls-69{fill:url(#linear-gradient-4);}.cls-70{fill:url(#linear-gradient-5);}.cls-71{stroke:#f4e3e7;}.cls-71,.cls-77{stroke-width:0.82px;}.cls-72{fill:#2b7ccc;}.cls-73{clip-path:url(#clip-path-5);}.cls-74{stroke-width:0.79px;}.cls-75,.cls-80,.cls-82{stroke:#000;}.cls-75{stroke-width:0.5px;}.cls-76{clip-path:url(#clip-path-6);}.cls-77{stroke:#2819b0;}.cls-78{fill:#bf9b15;}.cls-79{clip-path:url(#clip-path-7);}.cls-80{stroke-width:0.38px;}.cls-81{clip-path:url(#clip-path-8);}.cls-82{stroke-width:0.36px;}.cls-83{fill:#9e0216;}.cls-84{fill:#710110;}.cls-85{fill:#46000a;}.cls-86{fill:#20151d;}.cls-88{fill:#b64e14;}.cls-89{fill:#dfb726;}.cls-90{fill:#a3c9e8;}.cls-91{fill:#f3f8fc;}.cls-92{fill:#b6d2e9;opacity:0.87;}.cls-93{fill:#13847f;}.cls-94{fill:#d84326;}.cls-95{fill:#0a5d5a;}.cls-96{fill:#14609e;}.cls-97{fill:#003c66;}.cls-98{fill:#051c2f;}.cls-99{fill:#222;}.cls-100{fill:#0a304f;}.cls-101{fill:#c9e1f6;}</style><linearGradient id="linear-gradient" x1="760.76" y1="583.57" x2="780.46" y2="583.57" gradientUnits="userSpaceOnUse"><stop offset="0" stop-color="#f06"></stop><stop offset="0.2" stop-color="#f30c50"></stop><stop offset="0.52" stop-color="#e31b33"></stop><stop offset="0.8" stop-color="#d92521"></stop><stop offset="1" stop-color="#d6281b"></stop></linearGradient><linearGradient id="linear-gradient-2" x1="833.09" y1="583.55" x2="852.73" y2="583.55" xlink:href="#linear-gradient"></linearGradient><clipPath id="clip-path"><path class="cls-1" d="M817.19,225.72a19.62,19.62,0,0,1,38.92-3.57h0l8.36,38.27-38.08,8.83-8.33-37.66A19.56,19.56,0,0,1,817.19,225.72Z"></path></clipPath><clipPath id="clip-path-2"><polygon class="cls-1" points="818.63 194.56 803.96 194.77 789.68 194.56 757.63 207.87 764.92 320.38 803.96 320.38 843.4 320.38 843.79 207.19 818.63 194.56"></polygon></clipPath><clipPath id="clip-path-3"><path class="cls-1" d="M776.27,223.27c1.34-9.38-4.7-18-13.47-19.16-7.79-1.07-15.11,4-17.6,11.74h0L733.71,248l30.83,8.85,10.29-28.61A18.18,18.18,0,0,0,776.27,223.27Z"></path></clipPath><clipPath id="clip-path-4"><path class="cls-2" d="M597.35,249.62l-3.66,26.81a1.77,1.77,0,0,0,1.58,2l11.45,1.15a1.76,1.76,0,0,0,1.92-1.54l3.65-26.91a1.76,1.76,0,0,0-1.59-2l-11.44-1.06A1.77,1.77,0,0,0,597.35,249.62Z"></path></clipPath><linearGradient id="linear-gradient-3" x1="500.22" y1="273.14" x2="540.07" y2="273.14" gradientTransform="matrix(-1, 0, 0, 1, 1186.16, 0)" xlink:href="#linear-gradient"></linearGradient><linearGradient id="linear-gradient-4" x1="431.03" y1="273.33" x2="470.87" y2="273.33" gradientTransform="matrix(-1, 0, 0, 1, 1186.16, 0)" xlink:href="#linear-gradient"></linearGradient><linearGradient id="linear-gradient-5" x1="444.25" y1="275.35" x2="525.18" y2="275.35" gradientTransform="matrix(-1, 0, 0, 1, 1186.16, 0)" xlink:href="#linear-gradient"></linearGradient><clipPath id="clip-path-5"><path d="M719.32,612.4a16.47,16.47,0,0,0,14.82-.11s2.28-7,8.64-2.94c0,0,7.35,8.22,18.28,10.43,15.14,3.08,15.82,10.13,15.82,10.13H714.72A141.67,141.67,0,0,1,716,614.29,2.44,2.44,0,0,1,719.32,612.4Z"></path></clipPath><clipPath id="clip-path-6"><path d="M682.81,612.4a16.47,16.47,0,0,1-14.82-.11s-2.28-7-8.65-2.94c0,0-7.35,8.22-18.27,10.43-15.15,3.08-15.83,10.13-15.83,10.13H687.4a140.63,140.63,0,0,0-1.23-15.62A2.44,2.44,0,0,0,682.81,612.4Z"></path></clipPath><clipPath id="clip-path-7"><path class="cls-2" d="M701.36,196.86s1.44-3.65,4.95-3.81a7.1,7.1,0,0,1,5.61,2.61s-.89,3.1-5.15,3.31S701.36,196.86,701.36,196.86Z"></path></clipPath><clipPath id="clip-path-8"><path class="cls-2" d="M692.09,196.86s-1.36-3.65-4.67-3.81a6.6,6.6,0,0,0-5.3,2.61s.84,3.1,4.86,3.31S692.09,196.86,692.09,196.86Z"></path></clipPath></defs><g id="Layer_2" data-name="Layer 2"><g id="Layer_4_copy" data-name="Layer 4 copy"><path id="Combined-Shape" class="cls-3" d="M530.25,517.5c292.85,0,530.25,29.73,530.25,66.4,0,15.4-41.87,29.57-112.14,40.84,68.92,6.72,112.14,16.4,112.14,27.15s-43.59,20.52-113,27.25c-40.18,18.58-151.81,32-283.22,32-165.23,0-299.17-21.13-299.17-47.2,0-3.35,2.21-6.62,6.42-9.77a4.47,4.47,0,0,1-.63-2.23c0-1.54.89-3.06,2.62-4.55C157.17,639,0,613.73,0,583.9,0,547.23,237.4,517.5,530.25,517.5Z"></path><path class="cls-4" d="M371.83,549.5c-4.43-4.37-11.62-1-13.93,5.58s-.53,14.54,3.11,20,8.8,8.79,14,11.53c14.19,7.51,29.36,11.49,44.51,14.69,72.9,15.43,147.37,14,221,6.79C651.58,607,662.86,605.71,673,600c4.9-2.78,9.91-7.47,10.55-14.29,1-10.28-8.08-17-15.83-19.9-13.82-5.1-28.21-7.15-42.54-8.7-84-9.07-168.83-1.41-252.76-12.06"></path><g id="Group-34"><path id="Fill-378" class="cls-5" d="M391.49,479.1c-.27,5.47-.43,11-.53,16.49a1.21,1.21,0,0,1-2.39.07,147.61,147.61,0,0,1-.22-17.23c-8.84-2-18-3.85-24.71-10.43A46.68,46.68,0,0,1,356,457.34c-2.33-4.2-5.11-13.73-10.21-15.19-1.4-.4-.74-2.4.57-2.36,17.56.63,38.43,9.7,42.81,27.57a210.94,210.94,0,0,1,3.34-20.85,1.33,1.33,0,0,1-.66-.1c-16.12-6.6-23.5-23.41-28.79-38.82-.29-.82.44-2,1.4-1.5,13.1,6.23,27.11,16.55,30.13,31.33.33-1.32.65-2.63,1-3.94,1.23-4.66,2.63-9.3,4.16-13.91-9.95-3.85-18.09-16.37-21.19-26.2-4.11-13.05,1-26.85-1.15-40.14a1.18,1.18,0,0,1,2.06-.94c7.55,10.27,16.28,20.38,20.51,32.59a56.91,56.91,0,0,1,2.74,26.29,197.43,197.43,0,0,1,9.85-22l-.06,0c-5.59-5.07-12.46-8.16-14.79-15.88-2.79-9.25.87-19.26,2-28.49a1.09,1.09,0,0,1,1.7-.77c10.55,9.18,17.07,23.82,15.24,37.87,1-1.63,1.92-3.27,2.93-4.86a.8.8,0,0,1-.75-.64,49.48,49.48,0,0,1,5.7-36.29c7.83-13.31,22.32-22.94,33.77-32.95a1.15,1.15,0,0,1,1.86,1c-1.74,13.77-2.75,29.07-9.32,41.6-6.17,11.78-18,19.92-29.67,25.72-1.11,2.06-2.19,4.12-3.26,6.19,9.75-11,27.46-14.08,41.47-14,.91,0,1.2,1.13.8,1.78-9.3,15-28.82,25.4-46.59,20.86a252.4,252.4,0,0,0-10.43,25c13.21-20.23,41-19.68,62.24-24.47a1.19,1.19,0,0,1,1.15,1.85c-15.21,18.81-39.78,37.09-65.17,27.9-1.34,4.13-2.57,8.31-3.64,12.57-.49,1.91-.93,3.83-1.35,5.75a30,30,0,0,1,14.89-9.55c9.93-2.93,19.39.52,29.31-1a1.28,1.28,0,0,1,1.24,2c-10.34,14.9-29.64,22.49-47,16.23a244.1,244.1,0,0,0-2.95,24.8c3.89-6.67,10.92-10.71,18.44-13,12.83-4,26.5-6,39.63-8.8,1.31-.28,1.87,1.41,1,2.22-15,14.23-36.74,37.66-59.53,27.2"></path><path id="Fill-381" class="cls-6" d="M444.8,326a294.17,294.17,0,0,0-23.35,46.87.93.93,0,0,0,.38,1.2q.89-.45,1.77-.93c9.74-22.2,21.43-42.67,33.77-63.5a.51.51,0,0,0-.82-.59c-4.15,5.38-8.07,11.06-11.75,16.95"></path><path id="Fill-382" class="cls-6" d="M400.28,349a1,1,0,0,0-.13.45A48.61,48.61,0,0,0,412.32,385a.57.57,0,0,0,.92-.1.56.56,0,0,0,0-.65A56,56,0,0,1,402,349.67a1,1,0,0,0-1.7-.63"></path><path id="Fill-383" class="cls-6" d="M418.6,386.66a1,1,0,0,0,.95,1.51,84.06,84.06,0,0,0,36.71-18.43.53.53,0,0,0,.1-.12.51.51,0,0,0-.75-.65,100.88,100.88,0,0,1-36.4,17.25.92.92,0,0,0-.61.44"></path><path id="Fill-384" class="cls-6" d="M409.4,411a.93.93,0,0,0,.91,1.44c18.47-3.54,36.8-10,52.88-19.74a.7.7,0,0,0,.23-.22c.3-.48-.14-1.24-.76-.92-16.89,8.58-34,15.14-52.66,19a.89.89,0,0,0-.6.4"></path><path id="Fill-385" class="cls-6" d="M379.92,359.69a1,1,0,0,0-.13.65,130.25,130.25,0,0,0,19.92,55.27.43.43,0,0,0,.73-.08.36.36,0,0,0,0-.4A180.44,180.44,0,0,1,381.74,360a1,1,0,0,0-1.82-.33"></path><path id="Fill-386" class="cls-6" d="M396.08,441.58a.87.87,0,0,0,.84,1.35c14.2-2.06,28.38-6.77,41.48-12.7a.63.63,0,0,0,.3-.25.69.69,0,0,0-.86-1c-13.46,5.49-27,9.14-41.19,12.19a.87.87,0,0,0-.57.39"></path><path id="Fill-387" class="cls-6" d="M368.67,411.85a.77.77,0,0,0,0,.77,116.91,116.91,0,0,0,20.19,29.61.64.64,0,0,0,1-.12.58.58,0,0,0-.06-.69,169.77,169.77,0,0,1-19.61-29.53.88.88,0,0,0-1.52,0"></path><path id="Fill-389" class="cls-6" d="M401,468.9l2.61,1.62a144.22,144.22,0,0,0,43.67-19.14.4.4,0,0,0,.13-.13c.21-.34-.22-.89-.63-.67A219.47,219.47,0,0,1,401,468.9"></path><path id="Fill-389-2" data-name="Fill-389" class="cls-6" d="M350.52,440.86l-.22,2.51A116.58,116.58,0,0,0,380.1,468a.33.33,0,0,0,.13,0,.41.41,0,0,0,.26-.71,176.64,176.64,0,0,1-30-26.51"></path></g><path id="Fill-378-2" data-name="Fill-378" class="cls-5" d="M372.6,471c2.3,8.13,4.45,16.35,6.52,24.66.5,2,3.93,1.35,3.62-.73a225.21,225.21,0,0,0-5.64-26c12.63-6.09,25.84-12.1,33.62-24.35,3.63-5.74,5.92-12.23,7.8-18.72,2.06-7.14,2.93-22.47,10.12-26.44,2-1.09.29-3.89-1.67-3.36-26.25,7.07-54.57,28-55,56.47-3.56-10.29-7.71-20.41-12.25-30.24a2,2,0,0,0,1-.38c22-15.58,27.29-43.48,29.93-68.54.14-1.33-1.35-2.8-2.64-1.78-17.58,14-35.12,34.41-34.55,57.73-.95-1.87-1.89-3.74-2.86-5.59q-5.2-9.88-11.11-19.51c13.67-9.27,21.6-31,22.85-46.86,1.68-21.1-10.79-40.12-12.18-60.89-.12-1.72-2.69-2.4-3.42-.7-7.82,18.11-17.48,36.39-19.61,56.27a88.09,88.09,0,0,0,5,40.56,306,306,0,0,0-22.45-29.65l.07-.07c6.67-9.6,16-16.66,16.79-29.1,1-14.91-8-28.72-12.87-42.23a1.68,1.68,0,0,0-2.83-.56c-12.72,17.5-17.46,41.84-9.84,62.37-2-2.12-4-4.25-6.1-6.29a1.27,1.27,0,0,0,.92-1.23c.25-19.45-7.88-38.65-21.19-52.69-16.42-17.33-41.59-26.78-62.33-37.87a1.77,1.77,0,0,0-2.44,2.14c7.39,20.15,14.22,42.84,28.46,59.43,13.39,15.59,34.06,23.73,53.65,28.4,2.38,2.71,4.73,5.45,7.06,8.19-18.54-13.22-46.28-11.62-67.35-6.54-1.37.33-1.42,2.12-.59,3C250.28,349.23,283.29,358,308.49,345a389.39,389.39,0,0,1,24.41,34.1C306,353.22,264.22,363.76,230.6,364a1.84,1.84,0,0,0-1.09,3.19c29.46,23,72.82,42,107.91,19.28,3.45,5.76,6.75,11.63,9.85,17.67,1.4,2.71,2.72,5.45,4,8.19a46.35,46.35,0,0,0-25.76-9.18c-16-1-29,7.54-44.51,8.78a2,2,0,0,0-1.17,3.43c20.75,18.83,52.48,23.53,76.4,8.06a373.78,373.78,0,0,1,13.05,36.34c-8.17-8.69-20.18-12.32-32.3-13.21-20.74-1.51-42,.23-62.8.59-2.06,0-2.32,2.77-.75,3.69C301,467,341.87,494.7,372.6,471"></path><path id="Fill-381-2" data-name="Fill-381" class="cls-6" d="M238.2,260c19.23,19.23,36.61,41,51.68,62.86a1.48,1.48,0,0,1-.17,2l-3-.79c-22.46-30.26-47.32-57.17-73.28-84.41a.79.79,0,0,1,1-1.19A319.72,319.72,0,0,1,238.2,260"></path><path id="Fill-382-2" data-name="Fill-382" class="cls-6" d="M314.41,278.23a1.48,1.48,0,0,1,.35.62,75.7,75.7,0,0,1-6.84,57.75.88.88,0,0,1-1.42.2.86.86,0,0,1-.16-1c8.21-18.37,9.93-36.51,5.71-56a1.51,1.51,0,0,1,2.36-1.56"></path><path id="Fill-383-2" data-name="Fill-383" class="cls-6" d="M299.5,341.31a1.46,1.46,0,0,1-.89,2.57A128.32,128.32,0,0,1,237.72,329a.78.78,0,0,1-.2-.14.77.77,0,0,1,.89-1.22c19.3,8.34,38.89,13,60,13.27a1.48,1.48,0,0,1,1.07.43"></path><path id="Fill-384-2" data-name="Fill-384" class="cls-6" d="M321.29,376a1.42,1.42,0,0,1-.85,2.47c-28.86.94-58.55-2.6-86-11.71a1.23,1.23,0,0,1-.42-.25c-.62-.63-.23-1.91.82-1.64C263.09,372,291,376,320.25,375.56a1.37,1.37,0,0,1,1,.4"></path><path id="Fill-385-2" data-name="Fill-385" class="cls-6" d="M348.54,287.69a1.57,1.57,0,0,1,.44.94c3.44,29.87.11,61.75-10.16,89.9a.68.68,0,0,1-1.13.13.61.61,0,0,1-.17-.6c7.53-29.68,10.56-58.58,8.41-89.26a1.51,1.51,0,0,1,2.61-1.11"></path><path id="Fill-387-2" data-name="Fill-387" class="cls-6" d="M382.71,361.8A1.18,1.18,0,0,1,383,363a182.28,182.28,0,0,1-20.24,52.1,1,1,0,0,1-1.59.17.87.87,0,0,1-.16-1.06,264.24,264.24,0,0,0,19.39-51.77,1.36,1.36,0,0,1,2.29-.59"></path><path id="Leaf-Me-Alone_" data-name="Leaf-Me-Alone!" class="cls-7" d="M787.8,296.86c15.4-.8,34.45,8.19,36.09,24.93,1.2,12.17.83,24.3,2.67,36.44a98.43,98.43,0,0,0,8.87,27.87c4.09,8.5,12.59,15.74,14.8,24.83,1.41,5.78.62,13.93-1.32,19.59-2.36,6.88-1.11,6.34,3.6,12.11,9.23,11.32,17.53,22.93,23.41,36.45,8.46,19.47,14,42.23,10.87,63.54-.4,2.71-.88,12.42-4.6,13.1-4.17.76-2.22-4.79-2-6.59,1.42-11.45,2.68-21.46,1-33.08-6.59-44.87-38.78-74.43-59.74-112.51-1.15-2-3.58-6.64-5.28-9.73-2.67-4.87-5.35-14.13-9-17.75-6.81-6.8-.55,6.88.77,9.49,1.68,3.3,3.53,6.81,5.24,9.71,7.87,13.41,16.64,28.06,24.77,41.89-35.13,8-59.86-34.23-69.29-62-7.76-22.87-17.06-76.34,19.13-78.3"></path><path id="Leaf-Me-Alone_2" data-name="Leaf-Me-Alone!" class="cls-8" d="M994.23,254.39c-25.75,2-42.27,19-50,42.79-4.15,12.81-4.62,26-6.93,39.12-3.46,19.8-10.92,34.81-25.5,48.91a49.46,49.46,0,0,0-10.21,13.66,58.15,58.15,0,0,0-11.78,16.84c-3.84,8.47-4.92,18.62-.5,27.06,1.2,2.27,4.17,6.83,7.24,8.9-11.52,24.55-17.86,51.43-17.15,78.28.44,16.21,1.23,32.43,2.15,48.62.25,4.34,1.67,11.52,3.79,4.23,2-6.67-.49-17.14-.72-24.1-1.1-33.94-2-64.79,11.93-96.5q2.2-5,4.64-9.89l.27-.18.18.14c.1-.18.24-.4.41-.65a8.6,8.6,0,0,0,1.25-1.76c1.24-1.71,2.65-3.73,2.65-4.83v0c8.65-14.11,18.55-27.45,28.67-40.53-.08.1,11-14.95,9.26-6.63-.82,4-8.95,11.65-12.23,15.89a398.72,398.72,0,0,0-22.88,33c-.95.55-2.3,3.24-3.27,5.24-.54,1-1,2-1.53,2.94,25.11,8.29,44.64-8.42,58-27.85a.43.43,0,0,1,0-.07c4-5.37,8.21-10.71,13.39-15,8.66-7.09,17.92-8.34,28.13-11.82,27.82-9.51,39.65-45.57,43.41-72.33,4.24-30.18-16.5-76.47-52.7-73.49"></path><path id="Leaf-Me-Alone_3" data-name="Leaf-Me-Alone!" class="cls-8" d="M943.37,169.85c-26.42,27.51-39.19,65.65-49.3,101.52-11.29,40.05-18.75,80.72-19,122.37-.19,27.36-.94,54.89.66,82.22.57,9.7,1.54,19.42,3.07,29,.13.79,3.57,22.22,6.87,17.23,1.87-2.84-3.53-22.24-3.94-25.47-2.3-18.2-2.83-36.53-2.72-54.86.19-30.18-.7-60.2,2.36-90.27a100.41,100.41,0,0,1,1.88-13.6c1.13-4.67-.31-2.63,3.38-4.48s8-1.54,11.73-3.79c14.74-8.94,22.29-31.91,28.16-47,6.72-17.23,10.8-35.61,14.06-53.75a380.5,380.5,0,0,0,5.07-40.07c.31-4.25.32-8.7,1.16-12.88.23-1.13,1.36-3.13,1.31-4.13-.08-2.11-1.36-3.36-1.46-5.13q-1.67,1.48-3.26,3"></path><path id="Base" class="cls-8" d="M799.28,536.29a82.36,82.36,0,0,0,164.71,0"></path><path id="Leaf-Me-Alone_4" data-name="Leaf-Me-Alone!" class="cls-7" d="M938.08,464.18c20.38-1.5,43.14,14.94,53,32.05,7.93,13.8,6.59,31.92,1.7,46.57-3.28,9.82-10.44,23.81-22.37,24-11.44.13-14.54-10.69-15.49-20.6l-.07-.86c-.23-2.71-.31-5.33-.37-7.61-.39-14.34-2.2-26.83-13.5-36.6-2.63-2.28-5.51-4.28-8.17-6.53-4.17-3.51-8.77-7.11-9.3-12.93-.75-8,3.78-9.46,10.7-8,1.17.25,13.05,5.58,11.29,1.37-.54-1.29-2.5-2.31-5-3.07l-2.89-.31-1.16-.12c-5.27-.54-10.44-1-12.18-.59-23.69,5.19-32.91,38-35.36,58.85-.27,2.25-.48,4.51-.67,6.77h-4.35a143.88,143.88,0,0,1,1.62-16.31c3.49-20.65,14.4-51,38.34-54.33.37-.05,1.15-.08,2.22-.09h.67c1.42,0,3.21.06,5.18.18A14.61,14.61,0,0,1,938.08,464.18Z"></path><path id="Leaf-Bottom" class="cls-9" d="M606,339a46.3,46.3,0,0,1-1.33-6A18.14,18.14,0,0,0,606,339ZM764.42,83.63c-.86,5.58-1.93,11.14-3.28,16.64a1.79,1.79,0,0,0-.61,0c0-1.37,0-2.86,0-3.37-.48-4.42-4.17-13.39-10-11.65-4.51,1.34-1.75,6.85-.21,9.26,2.47,3.88,5.27,5.56,8.81,7.58a1.59,1.59,0,0,0,1.24,1.48,136.15,136.15,0,0,1-9.56,25.71c-.54-2.58-1.2-5.85-1.61-6.5-2-3.18-6.42-7.07-10.5-5.19-8.57,4,.73,15.34,8,16.58a3.46,3.46,0,0,0,1,1c-1.42,2.47-2.93,4.88-4.55,7.24-2.43,3.54-5,7.07-7.78,10.58a56.31,56.31,0,0,0-1.48-9.52c-1.87-4-7.26-8.1-11.63-5.27-4.92,3.2-.46,9.25,2.34,12,1.15,1.12,6.84,5.23,8.85,5.25-6.62,8.28-13.92,16.41-21.34,24.26a142.16,142.16,0,0,0,1.32-14.26c-.46-5.53-4.09-14.39-11.26-12.23-7,2.09-3.88,11.29-1.5,15.68a23.16,23.16,0,0,0,5.84,7.2c1,.74,2.56,1.17,3.37,2s.47,1.83,1.34,2.57c-4,4.22-8,8.36-12,12.37-1.87,1.9-3.79,3.76-5.72,5.59a1.74,1.74,0,0,0-2.49,1.64,2.47,2.47,0,0,0,.13.58q-2.19,2-4.42,4a9.28,9.28,0,0,0,0-1.7c1.44,2.06.85-2.73,1-3.79.49-3.4,1.43-6.71,1.4-10.18,0-5-3.22-13.45-9.91-10.45-6.16,2.74-3.92,10.19-1.6,14.86a42.49,42.49,0,0,0,5.58,8.11c.93,1.12,2.12,3.23,2.86,3.78-8.27,7.42-16.82,14.52-25.25,21.77-.11-.49-.2-1-.29-1.44a.8.8,0,0,0,.67.26c1-5,7.92-31.57-6.44-26.87-9.73,3.18-2.86,22.67,4.39,29.49-4.4,3.8-8.76,7.66-13,11.63q-4.63,4.31-9,8.91c1.49-4,2.89-9.12,2-13.21-1.34-6-7.62-11.59-13.76-8.2-6.35,3.53-3.36,8.13,1,12.7l.48.5.24.25.5.5h0l.49.49,1.25,1.24.5.49c2.56,2.53,4.91,5,5.62,7.1-9.15,10.07-17,21.26-22.18,34-5.67,13.85-10.94,32.48-8,48-.62-7.75,2.44-17.74,4-23.69a121.5,121.5,0,0,1,10.42-26.89c7.28-13.6,16.89-25.14,28-35.63,4.07,1.43,8.72,4.8,11,5.81,4.24,1.83,12.4,4.46,15.11-1.32s-4.13-8.86-8.34-10.13a20.3,20.3,0,0,0-11.53-.08c7-6.17,14.11-12.12,21.23-18.1,2.15,1.77,4.62,4.64,7.25,7.38l.53.54.27.27.53.54c4.83,4.78,10.09,8.44,14.9,3.71,9.09-8.94-8.3-18-15.7-17.31a13.84,13.84,0,0,0-2.65.54c7.55-6.42,15-13,22-20,.92.17,2.24,1.21,3.82,2.62l.48.44c5.48,5,13.78,13.68,19.9,7.76,4.07-3.93,2.68-10.05-1.25-13.55s-9.66-3.51-14.51-2.32a18.61,18.61,0,0,0-5.84,2.66h-.23c6.92-7,13.89-14.1,20.6-21.48l.35.12a1.85,1.85,0,0,0,1.71.57c5.44,1.86,12.84,4.62,18.49,3.54,3.9-.75,7.43-3.93,4.13-7.83-2.68-3.18-10-2.72-13.5-2a20.1,20.1,0,0,0-5.21,2.33l-1.08.61c-.53.3-1.07.59-1.6.86a1.59,1.59,0,0,0-1-.81,273.05,273.05,0,0,0,18.68-23.08,29.7,29.7,0,0,1,5.88,1.92l.69.27c4.5,1.76,9.21,3.28,12.66-.82,5.43-6.46-4.79-10.24-9.64-9.62a20,20,0,0,0-4.82,1.29,85.54,85.54,0,0,0,9.6-21l.16.09-.16-.1c.22-.74.44-1.48.64-2.23a7.1,7.1,0,0,1,.91-.43c-1.28.88,1.28,1.5,4,1.89l.55.08c1.82.24,3.61.38,4.28.44,3.85.31,9,.42,11.84-2.74a5.89,5.89,0,0,0-.67-8.8c-3.5-2.68-8.94-1-12.46.61a37.3,37.3,0,0,0-7.41,4.75c.34-1.52.64-3,.91-4.6a171.06,171.06,0,0,0,2.2-19.28c.12-2.25-.14-4.86-.27-7.4a1.15,1.15,0,0,0,.27-.65c.08.58,0,.6.28.19,2.6-3.9,4.79-8.3,5.09-13.13.26-4.09-3.11-11.85-7.88-6.48C760.66,65.77,761.21,82.6,764.42,83.63Zm4.9.63c-.68,1-2.67,7.36-3.29,7.39,6.18.14,17.11,0,20.07-6.92,2.76-6.51-3.86-9.37-8.82-6.9A20.82,20.82,0,0,0,769.32,84.26Z"></path><rect class="cls-10" x="386.5" width="286.71" height="582.36" rx="43.34"></rect><rect class="cls-11" x="386.88" y="0.16" width="285.95" height="581.79" rx="42.89"></rect><rect class="cls-12" x="387.26" y="0.33" width="285.19" height="581.22" rx="42.45"></rect><rect class="cls-13" x="387.64" y="0.49" width="284.43" height="580.65" rx="42"></rect><rect class="cls-14" x="388.02" y="0.65" width="283.67" height="580.08" rx="41.56"></rect><rect class="cls-15" x="388.4" y="0.82" width="282.91" height="579.51" rx="41.11"></rect><rect class="cls-16" x="388.78" y="0.98" width="282.15" height="578.94" rx="40.67"></rect><rect class="cls-17" x="389.16" y="1.14" width="281.39" height="578.37" rx="40.23"></rect><rect class="cls-18" x="389.54" y="1.31" width="280.62" height="577.81" rx="39.78"></rect><rect class="cls-19" x="389.92" y="1.47" width="279.86" height="577.24" rx="39.34"></rect><rect class="cls-20" x="390.3" y="1.63" width="279.1" height="576.67" rx="38.89"></rect><rect class="cls-21" x="390.68" y="1.8" width="278.34" height="576.1" rx="38.45"></rect><rect class="cls-22" x="391.06" y="1.96" width="277.58" height="575.53" rx="38"></rect><rect class="cls-23" x="391.44" y="2.12" width="276.82" height="574.96" rx="37.56"></rect><rect class="cls-24" x="391.82" y="2.29" width="276.06" height="574.39" rx="37.11"></rect><rect class="cls-25" x="392.2" y="2.45" width="275.3" height="573.82" rx="36.67"></rect><rect class="cls-26" x="392.59" y="2.61" width="274.54" height="573.25" rx="36.22"></rect><rect class="cls-26" x="392.97" y="2.78" width="273.78" height="572.68" rx="35.78"></rect><rect class="cls-27" x="393.35" y="2.94" width="273.02" height="572.11" rx="35.33"></rect><rect class="cls-28" x="393.73" y="3.1" width="272.26" height="571.55" rx="34.89"></rect><rect class="cls-29" x="394.11" y="3.27" width="271.5" height="570.98" rx="34.44"></rect><rect class="cls-30" x="394.49" y="3.43" width="270.74" height="570.41" rx="34"></rect><rect class="cls-31" x="394.87" y="3.59" width="269.98" height="569.84" rx="33.56"></rect><rect class="cls-32" x="395.25" y="3.76" width="269.21" height="569.27" rx="33.11"></rect><rect class="cls-33" x="395.63" y="3.92" width="268.45" height="568.7" rx="32.67"></rect><rect class="cls-34" x="396.01" y="4.08" width="267.69" height="568.13" rx="32.22"></rect><rect class="cls-35" x="396.39" y="4.25" width="266.93" height="567.56" rx="31.78"></rect><rect class="cls-36" x="396.77" y="4.41" width="266.17" height="566.99" rx="31.33"></rect><rect class="cls-37" x="397.15" y="4.57" width="265.41" height="566.42" rx="30.89"></rect><rect class="cls-38" x="397.53" y="4.74" width="264.65" height="565.85" rx="30.44"></rect><rect class="cls-39" x="397.91" y="4.9" width="263.89" height="565.29" rx="30"></rect><rect class="cls-40" x="398.29" y="5.06" width="263.13" height="564.72" rx="29.55"></rect><rect class="cls-2" x="398.67" y="5.23" width="262.37" height="564.15" rx="29.11"></rect><rect class="cls-41" x="395.57" y="10.24" width="268.57" height="558.93" rx="29.8"></rect><polygon class="cls-42" points="846.8 363.31 764.13 363.31 764.92 320.38 843.1 320.38 846.8 363.31"></polygon><path class="cls-42" d="M763.93,362.79l-2.52,99.13a15.85,15.85,0,0,0,15.84,16.38h0A15.86,15.86,0,0,0,793,464.11l10-98.62a19.58,19.58,0,0,0-19.48-21.62h0A19.58,19.58,0,0,0,763.93,362.79Z"></path><polygon class="cls-43" points="779.09 607.16 780.46 560.98 762.16 559.99 760.76 606.11 779.09 607.16"></polygon><path class="cls-42" d="M776.26,592.6h-12.9a4.76,4.76,0,0,0-3,1.06l-12.31,8.47a11.09,11.09,0,0,0-4.63,9.12v2l41.61-.22v-5.2a11.35,11.35,0,0,0-1.38-5.46l-3-6.88A4.82,4.82,0,0,0,776.26,592.6Z"></path><polyline class="cls-2" points="742.4 618.58 785.67 618.37 785.64 613.06 742.38 613.28 742.4 618.58"></polyline><line class="cls-44" x1="780.51" y1="613.83" x2="776.36" y2="605.21"></line><line class="cls-44" x1="774.13" y1="616.21" x2="770.13" y2="607.81"></line><path class="cls-42" d="M793,464.66l-9,114.83H756.26l5.21-117.06A15.81,15.81,0,0,1,778,447.09h0A15.81,15.81,0,0,1,793,464.66Z"></path><path class="cls-42" d="M846.65,362.79l4.3,99.13a15.84,15.84,0,0,1-15.84,16.38h0a15.85,15.85,0,0,1-15.76-14.19L807.6,365.49a19.58,19.58,0,0,1,19.48-21.62h0A19.58,19.58,0,0,1,846.65,362.79Z"></path><polygon class="cls-45" points="852.73 606.63 851.41 560.45 833.09 560.52 834.37 606.64 852.73 606.63"></polygon><path class="cls-42" d="M830.94,599.12l-3.48,15.41h61.23v-.45a9.21,9.21,0,0,0-5.24-8.31L855,594.44a2.7,2.7,0,0,0-3.11.35c-3.68,3.88-7.71,10.19-18.92,3.34A1.41,1.41,0,0,0,830.94,599.12Z"></path><rect class="cls-2" x="827.46" y="614.53" width="61.23" height="4.04"></rect><line class="cls-44" x1="851.92" y1="616.48" x2="857.27" y2="605.21"></line><line class="cls-44" x1="860.04" y1="616.21" x2="864.04" y2="607.81"></line><path class="cls-42" d="M819.38,464.66l9,114.83h27.69L850.9,462.43a15.81,15.81,0,0,0-16.57-15.34h0A15.81,15.81,0,0,0,819.38,464.66Z"></path><path class="cls-46" d="M868.76,397.27c1.38-3.42,3.18-4.55,3.18-4.55h0a5.64,5.64,0,0,1,4.54-6.81l2.26-.39a5.63,5.63,0,0,1,6.44,4.3l0,.16a50.23,50.23,0,0,1,5.08,17.84c1.2,13.3-4.44,20.07-8.59,20.13-3.93.05-6.15-15.55-7-21.33l-2.44,5.87a1.85,1.85,0,0,1-3.54-.47l-.86-6.84A15.68,15.68,0,0,1,868.76,397.27Z"></path><path class="cls-46" d="M871.94,392.72l-23.65-76.59a11.65,11.65,0,0,1,9.16-15h0a11.65,11.65,0,0,1,13.41,9.38l14.32,79.28Z"></path><path class="cls-46" d="M851.87,218.3c4.21,21,14.21,69.79,18.62,91.27A11.58,11.58,0,0,1,862.36,323h0a11.59,11.59,0,0,1-14.35-8l-25.87-90.55a15.18,15.18,0,0,1,12.48-18.26h0A15.17,15.17,0,0,1,851.87,218.3Z"></path><path class="cls-1" d="M817.19,225.72a19.62,19.62,0,0,1,38.92-3.57h0l8.36,38.27-38.08,8.83-8.33-37.66A19.56,19.56,0,0,1,817.19,225.72Z"></path><g class="cls-47"><line class="cls-48" x1="893.35" y1="241.18" x2="793.08" y2="262.39"></line><line class="cls-48" x1="890.28" y1="226.69" x2="790.01" y2="247.9"></line><line class="cls-48" x1="887.22" y1="212.2" x2="786.95" y2="233.42"></line></g><polygon class="cls-1" points="818.63 194.56 803.96 194.77 789.68 194.56 757.63 207.87 764.92 320.38 803.96 320.38 843.4 320.38 843.79 207.19 818.63 194.56"></polygon><g class="cls-49"><line class="cls-48" x1="751.47" y1="307.49" x2="853.96" y2="307.49"></line><line class="cls-48" x1="751.47" y1="292.68" x2="853.96" y2="292.68"></line><line class="cls-48" x1="751.47" y1="277.87" x2="853.96" y2="277.87"></line><line class="cls-48" x1="751.47" y1="263.07" x2="853.96" y2="263.07"></line><line class="cls-48" x1="751.47" y1="248.26" x2="853.96" y2="248.26"></line><line class="cls-48" x1="751.47" y1="233.45" x2="853.96" y2="233.45"></line><line class="cls-48" x1="751.47" y1="218.64" x2="853.96" y2="218.64"></line><line class="cls-48" x1="751.47" y1="203.83" x2="853.96" y2="203.83"></line></g><path class="cls-46" d="M829.34,199.88l-9.29-4.75-17.19.54h0l-14.79-.44-11.2,4.65s6.22,12.8,31.32,12.92h.41C833.7,212.68,829.34,199.88,829.34,199.88Z"></path><path class="cls-46" d="M804.06,211.13h0a16,16,0,0,1-16-16v-34h32v34A16,16,0,0,1,804.06,211.13Z"></path><path class="cls-42" d="M788.33,166s8.54,22.23,18.6,21.43c15.54-1.24,13-20.5,13-20.5s-5.88,11.09-15.41,11.1C793.84,178.09,788.33,166,788.33,166Z"></path><path class="cls-42" d="M781.92,153.11l-3.32-20c-2-10.34,9.43-15.81,16.34-15.81h23.95c7.33,0,16.07,5.42,12.35,17.08L829.1,152Z"></path><path class="cls-46" d="M823.63,157.62c4.45,4.07,14.48-11.23,10.19-15.56s-8.14,2.38-8.14,2.38l-.74,5.93-1.27,5.5-.45,1.69Z"></path><path class="cls-46" d="M786.1,158.17c-5.4,3.57-14.75-12.69-9.49-16.54s8.57,3.28,8.57,3.28l1.6,5.52-.52,6,.3,1.72Z"></path><path class="cls-50" d="M779,146.53s3.51-1.17,6,4"></path><path class="cls-50" d="M783.25,148s-3.82,2-1.3,5.11"></path><path class="cls-46" d="M830,137.18a118.57,118.57,0,0,1-2.68,24.93,23.61,23.61,0,0,1-10.19,14.72l-.95.62a17,17,0,0,1-18.21.21h0A23.56,23.56,0,0,1,787.19,162a173.73,173.73,0,0,1-2.45-24.84s-2.1-25.43,22.32-24.93S830,137.18,830,137.18Z"></path><path class="cls-42" d="M830.36,108.37c-7.76-5.49-23.1-1.65-31.45,2.18.17-2.49-1.36-2.22-1.36-2.22-14.7,4-10.85,15.53-10.85,15.53l.15.07c-1.54,3.33-3.53,10.43-1.65,23.29,0,0,3.9-13.91,4-22.21,6.52,2.88,24.39,9.87,36,6a127.52,127.52,0,0,0,4.21,16.25,52.66,52.66,0,0,0-.12-18.29,14.2,14.2,0,0,0,2-1.71S841.36,116.15,830.36,108.37Z"></path><path class="cls-50" d="M813.48,147.69v8.21a2,2,0,0,1-.15.78,2.06,2.06,0,0,1-2.47,1.14l-2.13-.56"></path><path class="cls-42" d="M802.5,144.63a2.12,2.12,0,1,1-2.12-2.12A2.12,2.12,0,0,1,802.5,144.63Z"></path><path class="cls-42" d="M822.14,144.63a2.12,2.12,0,1,1-2.12-2.12A2.12,2.12,0,0,1,822.14,144.63Z"></path><line class="cls-51" x1="804.22" y1="146.95" x2="798.95" y2="150.43"></line><line class="cls-51" x1="816.68" y1="146.93" x2="821.34" y2="150.45"></line><path class="cls-50" d="M805.09,161.1s1.61,1.24,5.84,1.24a14.72,14.72,0,0,0,6.26-1.24"></path><line class="cls-51" x1="811.11" y1="172.53" x2="811.11" y2="174.83"></line><path class="cls-42" d="M805.76,139.76l.08-4.13-7.67.14a4.21,4.21,0,0,0-2.64,1l-3,3.51,5.08-.76Z"></path><path class="cls-42" d="M814.71,139.76l-.05-4.13,6.89.1a3.57,3.57,0,0,1,2.38,1l2.72,3.49-4.56-.73Z"></path><path class="cls-52" d="M831.86,146.8a9.18,9.18,0,1,1-9.17-9.17A9.17,9.17,0,0,1,831.86,146.8Z"></path><path class="cls-52" d="M809.32,146.8a9.18,9.18,0,1,1-9.18-9.17A9.18,9.18,0,0,1,809.32,146.8Z"></path><path class="cls-53" d="M809.32,146.8a9.18,9.18,0,1,1-9.18-9.17A9.18,9.18,0,0,1,809.32,146.8Z"></path><path class="cls-53" d="M831.86,146.8a9.18,9.18,0,1,1-9.17-9.17A9.17,9.17,0,0,1,831.86,146.8Z"></path><path class="cls-53" d="M809.32,146.8s2.17-2,4.19,0"></path><line class="cls-54" x1="790.97" y1="146.8" x2="785.44" y2="146.8"></line><path class="cls-55" d="M781.73,334.45h33.5v-5.36h-33.5a2.69,2.69,0,0,0-2.69,2.68h0A2.69,2.69,0,0,0,781.73,334.45Z"></path><path class="cls-56" d="M809,334.45H876a8.09,8.09,0,0,0,7.79-5.91l12.29-44.15a6.13,6.13,0,0,0-5.9-7.77H828.28a5.35,5.35,0,0,0-5.16,4Z"></path><path class="cls-2" d="M850,308a6,6,0,1,0,6-6A6,6,0,0,0,850,308Z"></path><path class="cls-46" d="M803.48,320.44A8.46,8.46,0,0,0,799,322.3h0a4.93,4.93,0,0,0-6.66,2.61l-.75,1.86a4.93,4.93,0,0,0,2.46,6.3l.14.06a43.69,43.69,0,0,0,14.27,7.65c11.13,3.5,17.95,0,18.78-3.58.78-3.34-12.12-8.14-16.89-10l5.47-1a1.62,1.62,0,0,0,1.31-1.39,1.61,1.61,0,0,0-1.06-1.72l-5.67-2A13.76,13.76,0,0,0,803.48,320.44Z"></path><path class="cls-46" d="M799,322.3l-61-34.43a10.18,10.18,0,0,0-14.48,5h0a10.17,10.17,0,0,0,5.51,13.19l65,27Z"></path><path class="cls-46" d="M748.23,216c-5.67,17.88-19,59.23-24.91,77.46A10.12,10.12,0,0,0,729.1,306h0a10.13,10.13,0,0,0,13.22-5.53l31.12-76.13a13.26,13.26,0,0,0-9.09-17h0A13.25,13.25,0,0,0,748.23,216Z"></path><path class="cls-1" d="M776.27,223.27c1.34-9.38-4.7-18-13.47-19.16-7.79-1.07-15.11,4-17.6,11.74h0L733.71,248l30.83,8.85,10.29-28.61A18.18,18.18,0,0,0,776.27,223.27Z"></path><g class="cls-57"><line class="cls-58" x1="713.13" y1="229.85" x2="794.29" y2="250.58"></line><line class="cls-58" x1="716.23" y1="217.29" x2="797.39" y2="238.03"></line><line class="cls-58" x1="719.33" y1="204.74" x2="800.49" y2="225.48"></line></g><g id="Rows"><g id="Row"><rect id="Container" class="cls-59" x="415.89" y="31.14" width="229.27" height="94.51" rx="7"></rect><g id="Text-Stuff"><rect id="Label" class="cls-60" x="431.64" y="59.49" width="127.76" height="14.18" rx="5.25"></rect><rect id="Label-2" data-name="Label" class="cls-60" x="431.64" y="83.12" width="85.76" height="14.18" rx="5.25"></rect></g><g id="Check"><circle id="Background" class="cls-60" cx="620.66" cy="78.39" r="12.25"></circle><circle id="Indicator" class="cls-28" cx="620.66" cy="78.39" r="5.25"></circle></g></g><g id="Row-2" data-name="Row"><rect id="Background-2" data-name="Background" class="cls-59" x="415.89" y="139.65" width="229.27" height="73.51" rx="7"></rect><g id="Text"><rect id="Name" class="cls-60" x="484.15" y="161.7" width="127.76" height="11.03" rx="5.25"></rect><rect id="Name-2" data-name="Name" class="cls-60" x="484.15" y="180.08" width="85.76" height="11.03" rx="5.25"></rect></g><circle id="Avatar" class="cls-61" cx="452.65" cy="176.4" r="21"></circle></g><g id="Row-3" data-name="Row"><rect id="Container-2" data-name="Container" class="cls-59" x="415.89" y="227.16" width="229.27" height="73.51" rx="7"></rect><g id="Text-Stuff-2" data-name="Text-Stuff"><rect id="Label-3" data-name="Label" class="cls-60" x="431.64" y="249.21" width="127.76" height="11.03" rx="5.25"></rect><rect id="Label-4" data-name="Label" class="cls-62" x="431.64" y="267.59" width="85.76" height="11.03" rx="5.25"></rect></g><g id="Check-2" data-name="Check"><circle id="Background-3" data-name="Background" class="cls-60" cx="620.66" cy="263.91" r="12.25"></circle><circle id="Indicator-2" data-name="Indicator" class="cls-28" cx="620.66" cy="263.91" r="5.25"></circle></g></g><g id="Row-4" data-name="Row"><rect id="Background-4" data-name="Background" class="cls-59" x="415.89" y="314.66" width="229.27" height="73.51" rx="7"></rect><g id="Text-2" data-name="Text"><rect id="Name-3" data-name="Name" class="cls-60" x="484.15" y="336.72" width="127.76" height="11.03" rx="5.25"></rect><rect id="Name-4" data-name="Name" class="cls-60" x="484.15" y="355.09" width="85.76" height="11.03" rx="5.25"></rect></g><circle id="Avatar-2" data-name="Avatar" class="cls-61" cx="452.65" cy="351.42" r="21"></circle></g></g><g id="Row-5" data-name="Row"><path id="Container-3" data-name="Container" class="cls-63" d="M422.89,400.11H638.16c3.87,0,7,4.85,7,10.84V535.64c0,6-3.13,10.84-7,10.84H422.89c-3.86,0-7-4.85-7-10.84V411C415.89,405,419,400.11,422.89,400.11Z"></path><g id="Text-Stuff-3" data-name="Text-Stuff"><rect id="Label-5" data-name="Label" class="cls-60" x="431.64" y="428.46" width="127.76" height="14.18" rx="5.25"></rect><rect id="Label-6" data-name="Label" class="cls-60" x="431.64" y="452.09" width="85.76" height="14.18" rx="5.25"></rect></g><g id="Check-3" data-name="Check"><circle id="Background-5" data-name="Background" class="cls-60" cx="620.66" cy="447.36" r="12.25"></circle><circle id="Indicator-3" data-name="Indicator" class="cls-28" cx="620.66" cy="447.36" r="5.25"></circle></g></g><path class="cls-64" d="M661.44,334.73l12.4-48.34-19.59-2.95-9.08,47.66a8.34,8.34,0,0,0,6.55,9.73h0A8.33,8.33,0,0,0,661.44,334.73Z"></path><path class="cls-64" d="M659.34,326.63,607.41,281.1l-5.93,4.79s27.72,32.84,45.85,52.43c2.87,3.1,9.27,2.75,12.13-.37h0C662.15,335,662.25,329.31,659.34,326.63Z"></path><path class="cls-64" d="M592.54,279.8l9.55-16,6.64,6.82a25.26,25.26,0,0,1,3.49-5.89,1.31,1.31,0,0,1,1.89,0l.34.35a2.2,2.2,0,0,1,.63,1.54c0,2.83,0,5.65.37,9.82a7.61,7.61,0,0,1-2.29,6l-1.35,1.32a11,11,0,0,1-15.55-.21Z"></path><path class="cls-65" d="M595.67,247.43l-4.26,31.71a2.22,2.22,0,0,0,2,2.48l14.39,1.44a2.22,2.22,0,0,0,2.42-1.93l4.25-31.83a2.22,2.22,0,0,0-2-2.49l-14.38-1.32A2.22,2.22,0,0,0,595.67,247.43Z"></path><path class="cls-2" d="M597.35,249.62l-3.66,26.81a1.77,1.77,0,0,0,1.58,2l11.45,1.15a1.76,1.76,0,0,0,1.92-1.54l3.65-26.91a1.76,1.76,0,0,0-1.59-2l-11.44-1.06A1.77,1.77,0,0,0,597.35,249.62Z"></path><g class="cls-66"><path class="cls-28" d="M614.41,246.87c2-3.3,1.8,2-25.34,29.57l5.82-31.61Z"></path></g><path class="cls-64" d="M601.35,270.55h0a2,2,0,0,0-1-2.56l-7.63-3.67a2.37,2.37,0,0,0-3.22,1.27h0a2.39,2.39,0,0,0,1.31,3.08l7.92,3A2,2,0,0,0,601.35,270.55Z"></path><path class="cls-64" d="M599.28,273.62h0a2,2,0,0,0-1-2.47L592,268.3a2.29,2.29,0,0,0-3.1,1.27h0a2.29,2.29,0,0,0,1.31,3l6.58,2.21A2,2,0,0,0,599.28,273.62Z"></path><path class="cls-64" d="M597.91,276.8h0a1.86,1.86,0,0,0-1-2.35l-4.81-2a2.22,2.22,0,0,0-3,1.16h0a2.2,2.2,0,0,0,1.31,2.82l5.06,1.42A1.86,1.86,0,0,0,597.91,276.8Z"></path><path class="cls-64" d="M597.22,279.38h0a1.83,1.83,0,0,0-1-2.32l-3.89-1.15a2.16,2.16,0,0,0-2.92,1.2h0a2.16,2.16,0,0,0,1.23,2.78l4.15.54A1.83,1.83,0,0,0,597.22,279.38Z"></path><line class="cls-67" x1="590.07" y1="268.29" x2="599.02" y2="271.76"></line><line class="cls-67" x1="590.17" y1="272.53" x2="597.25" y2="274.86"></line><line class="cls-67" x1="590.4" y1="276.4" x2="597.06" y2="277.75"></line><path class="cls-64" d="M646.23,324.68l9.47-49.79L675,280.63l-12.23,47.73a8.47,8.47,0,0,1-10.23,6.12h0A8.46,8.46,0,0,1,646.23,324.68Z"></path><path class="cls-68" d="M678.23,300.94l-32.14-6.6,7.37-35.89a16.42,16.42,0,0,1,19.37-12.77h0a16.42,16.42,0,0,1,12.77,19.37Z"></path><path class="cls-64" d="M738.19,327.38l18.92,67.52,7.7-.78s-5.36-43.31-9.92-70c-.72-4.23-6.36-7.48-10.53-6.42h0C740.46,318.67,737.2,323.47,738.19,327.38Z"></path><path class="cls-64" d="M756.49,390.65a20.69,20.69,0,0,0-1,16.25l-1.7,8.94a3,3,0,0,0,1.71,3.31h0a2.54,2.54,0,0,0,3.35-1.57l1.86-5.09.3,1.91a14.36,14.36,0,0,1-1.37,8.75l-3.87,7.53a2.91,2.91,0,0,0,.08,2.76h0a2.42,2.42,0,0,0,4.16.24l6.25-9.13a16.21,16.21,0,0,0,2.38-12.44l-4.93-23.46Z"></path><path class="cls-64" d="M755,324.86l-9.47-49.79-19.29,5.75,12.24,47.73a8.46,8.46,0,0,0,10.22,6.11h0A8.47,8.47,0,0,0,755,324.86Z"></path><path class="cls-69" d="M723,301.12l32.13-6.6-7.37-35.89a16.39,16.39,0,0,0-19.37-12.76h0a16.39,16.39,0,0,0-12.76,19.36Z"></path><path class="cls-70" d="M702.41,232.43l36.25,14.67a5.2,5.2,0,0,1,3,6.28l-19.37,64.88H679.51l-18.34-65.7a5.2,5.2,0,0,1,3.27-6.29Z"></path><path class="cls-64" d="M727.49,242.58l-25.08-10.15-26.87,9.8s1.58,12.17,26.06,12.17S727.49,242.58,727.49,242.58Z"></path><line class="cls-71" x1="727.74" y1="300.15" x2="736.19" y2="271.84"></line><line class="cls-71" x1="674.02" y1="300.15" x2="665.57" y2="271.84"></line><rect x="679.75" y="318.26" width="42.88" height="6.56" transform="translate(1402.39 643.08) rotate(-180)"></rect><path class="cls-72" d="M719.22,344.06c10.41-1.59,19,5.15,21.37,15.41a191.27,191.27,0,0,1,4.6,38c1,37.28-.83,69.53-2.65,86.28a16.72,16.72,0,0,1-16.64,14.9h0a16.72,16.72,0,0,1-16.67-15.32l-7.39-117.67a20.1,20.1,0,0,1,17-21.56Z"></path><polygon class="cls-64" points="720.38 619.23 718.33 571.29 738.13 571.29 735.82 621.17 720.38 619.23"></polygon><path d="M719.32,612.4a16.47,16.47,0,0,0,14.82-.11s2.28-7,8.64-2.94c0,0,7.35,8.22,18.28,10.43,15.14,3.08,15.82,10.13,15.82,10.13H714.72A141.67,141.67,0,0,1,716,614.29,2.44,2.44,0,0,1,719.32,612.4Z"></path><g class="cls-73"><path class="cls-2" d="M763.18,617.69s-6.89,3.17-10.07,15.72l25.8-1S779.61,620.87,763.18,617.69Z"></path></g><rect class="cls-2" x="714.72" y="629.91" width="62.16" height="7.02"></rect><path class="cls-74" d="M755,617.87s-2.43,0-4.34,3.3"></path><path class="cls-74" d="M751.94,616.22s-2.43,0-4.34,3.3"></path><path class="cls-74" d="M748.79,614.27s-2.43,0-4.34,3.29"></path><line class="cls-75" x1="752.98" y1="629.65" x2="776.88" y2="629.65"></line><path class="cls-72" d="M709.46,482.23l5,115.43h27.73l.52-115.92a16.64,16.64,0,0,0-16.64-16.37h0A16.64,16.64,0,0,0,709.46,482.23Z"></path><path class="cls-72" d="M683.29,344.06c-10.41-1.59-19,5.15-21.37,15.41a191.27,191.27,0,0,0-4.6,38c-1,37.28.83,69.53,2.65,86.28a16.72,16.72,0,0,0,16.64,14.9h0a16.72,16.72,0,0,0,16.67-15.32l7.39-117.67a20.1,20.1,0,0,0-17-21.56Z"></path><polygon class="cls-64" points="681.75 619.23 683.79 571.29 664 571.29 666.3 621.17 681.75 619.23"></polygon><path d="M682.81,612.4a16.47,16.47,0,0,1-14.82-.11s-2.28-7-8.65-2.94c0,0-7.35,8.22-18.27,10.43-15.15,3.08-15.83,10.13-15.83,10.13H687.4a140.63,140.63,0,0,0-1.23-15.62A2.44,2.44,0,0,0,682.81,612.4Z"></path><g class="cls-76"><path class="cls-2" d="M639,617.69s6.89,3.17,10.07,15.72l-25.8-1S622.51,620.87,639,617.69Z"></path></g><rect class="cls-2" x="625.24" y="629.91" width="62.16" height="7.02" transform="translate(1312.65 1266.83) rotate(-180)"></rect><path class="cls-74" d="M647.1,617.87s2.43,0,4.33,3.3"></path><path class="cls-74" d="M650.18,616.22s2.44,0,4.34,3.3"></path><path class="cls-74" d="M653.34,614.27s2.43,0,4.34,3.29"></path><line class="cls-75" x1="649.15" y1="629.65" x2="625.24" y2="629.65"></line><path class="cls-72" d="M693.05,482.23l-5,115.43H660.29l-.52-115.92a16.64,16.64,0,0,1,16.64-16.37h0A16.64,16.64,0,0,1,693.05,482.23Z"></path><path class="cls-72" d="M679.75,324.82h42.89s11.09,7.71,17.22,32.21l-32.53,18.63a11.82,11.82,0,0,1-12.22,0l-32.47-18.6C669.23,333.29,679.75,324.82,679.75,324.82Z"></path><line class="cls-77" x1="692.08" y1="377.36" x2="711.66" y2="377.36"></line><path class="cls-77" d="M720.52,332.92s.85,14.52,13.4,18.17"></path><path class="cls-77" d="M682.2,332.92s-.85,14.52-13.4,18.17"></path><path d="M695.69,165.37s-8.74-3.82-16.08,3.09S677.45,180,671,183.4s-1.74,12.89-9.31,17.2-2.57,14.94,5.21,16.45c0,0,3.73,9.85,11.93,8.9,0,0,7.58,8.43,22.36,3.08l5.43-2.23Z"></path><path d="M725.61,168.27s9.83,1.27,11.73,10,1.21,6.67,6.61,11.11-1.43,9.47,2.86,13.91c2.19,2.27,3.21,4.13,3.42,6.27a7.85,7.85,0,0,1-5.87,8.16c-2.49.71-4.52,3.06-6,6.26-2.93,6.34-13.42,3.59-13.42,3.59s-9.9,5.77-16,1.48S712,165.73,712,165.73Z"></path><path d="M687.1,165.85s4-9.16,18.31-9.16,18.76,14.05,18.76,14.05l-20.84,11.35Z"></path><path class="cls-64" d="M718.54,198.38c-1.34,3-2.48,7.44,1.62,8.9,2.85,1,6.23-2.79,7.57-5.78s.52-5.6-2.32-6.67S719.88,195.39,718.54,198.38Z"></path><path class="cls-67" d="M725.5,198.43s-3.48-.92-4.78,3.8"></path><path class="cls-64" d="M685.47,198.38c1.34,3,1.22,7.83-1.62,8.9s-6.23-2.79-7.57-5.78-.52-5.6,2.32-6.67S684.13,195.39,685.47,198.38Z"></path><path d="M675.85,186.85c0,12.69,10.6,23,23.67,23s25.05-10.81,25.05-23.5-12-22.46-25.05-22.46S675.85,174.15,675.85,186.85Z"></path><polygon class="cls-64" points="708.39 214.83 711.4 243.51 693.57 243.51 696.65 214.53 708.39 214.83"></polygon><polygon class="cls-78" points="708.8 218.36 694.94 230.63 696.45 216.21 708.8 218.36"></polygon><path class="cls-64" d="M699.22,166.55h0c11.07,0,20.85,8.56,20.85,19.13l-.64,12.67s-.23,18-17.29,23.44a9.7,9.7,0,0,1-5.84,0C679.24,216.32,679,198.35,679,198.35l-.63-12.67C678.38,175.11,688.15,166.55,699.22,166.55Z"></path><polyline class="cls-67" points="694.9 201.17 694.42 204.11 696.58 204.14"></polyline><path class="cls-2" d="M701.36,196.86s1.44-3.65,4.95-3.81a7.1,7.1,0,0,1,5.61,2.61s-.89,3.1-5.15,3.31S701.36,196.86,701.36,196.86Z"></path><g class="cls-79"><path d="M710.16,195.87a3.5,3.5,0,1,1-3.67-3.33A3.51,3.51,0,0,1,710.16,195.87Z"></path></g><path class="cls-80" d="M701.36,196.86s1.32-3.78,4.95-3.81a7.26,7.26,0,0,1,5.61,2.61"></path><path class="cls-2" d="M692.09,196.86s-1.36-3.65-4.67-3.81a6.6,6.6,0,0,0-5.3,2.61s.84,3.1,4.86,3.31S692.09,196.86,692.09,196.86Z"></path><g class="cls-81"><path d="M683.78,195.87a3.44,3.44,0,0,0,3.14,3.67,3.39,3.39,0,0,0,3.47-3.33,3.43,3.43,0,0,0-3.15-3.67A3.39,3.39,0,0,0,683.78,195.87Z"></path></g><path class="cls-82" d="M692.09,196.86s-1.25-3.78-4.67-3.81a6.76,6.76,0,0,0-5.3,2.61"></path><path d="M707.85,182.16a17.1,17.1,0,0,1,5.26,1.53,1.2,1.2,0,0,1-.25,2.3c-1.17.39-3.69.14-5.19,0-3.68-.42-6.11-1.79-5.87-2.92C702.1,181.58,705.92,181.81,707.85,182.16Z"></path><path d="M686.49,182.16a15.44,15.44,0,0,0-5,1.53,1.22,1.22,0,0,0,.23,2.3c1.11.39,3.49.14,4.91,0,3.46-.42,5.76-1.79,5.54-2.92C691.91,181.58,688.31,181.81,686.49,182.16Z"></path><path class="cls-64" d="M702,207.64s-.56,4.5-5,4.5-5-4.5-5-4.5Z"></path><path class="cls-64" d="M692,207.64a12.71,12.71,0,0,1,10,0S696.54,209.43,692,207.64Z"></path><path class="cls-2" d="M702,207.61H692s.34,3.21,5,3.21C701.14,210.82,702,207.61,702,207.61Z"></path><path d="M686.51,165.85s1,10,12.27,11.61c11.52,1.62,9,8.34,23,6.73,0,0,5.05-7.32-2.44-14.88-5-5-14.66-9.17-21.6-8.47C695.41,161.07,689.87,165.17,686.51,165.85Z"></path><path d="M688,166.55s7.17,7.22-12.7,20.3a13.75,13.75,0,0,1,1.28-8.32C678.71,174.32,688,166.55,688,166.55Z"></path><path id="Fill-386-2" data-name="Fill-386" class="cls-6" d="M352.17,417.5a1.36,1.36,0,0,1-.82,2.35c-22.34,1.92-45.58-.21-67.6-4.58a1,1,0,0,1-.55-.28,1.08,1.08,0,0,1,1-1.79c22.43,3.57,44.39,4.3,67,3.92a1.3,1.3,0,0,1,1,.38"></path><path id="Fill-389-3" data-name="Fill-389" class="cls-6" d="M354.86,459.69l-3.4,3.4a223.81,223.81,0,0,1-72.95-13.37.66.66,0,0,1-.23-.15.78.78,0,0,1,.72-1.25,339.44,339.44,0,0,0,75.86,11.37"></path><g id="Group-13"><path id="Path-21" class="cls-83" d="M437.74,533.83q-11.46,34.92-13.19,46.93c-1.74,12-9.38,47.69-31,49.36q-21.64,1.67-4.16-44.36L412,571.31l12.51-33.26,8.17-7.77,5-2.58Z"></path><path id="Path-20" class="cls-84" d="M417.65,575.86q-6.58,14-14.85,20.18a36.18,36.18,0,0,0-12.2,16.8q-2.85,10.67,2,13.91t-6.66,3.37q-24.45-4.2-35.55-6.66t-27.52-7.32L296.07,603l16-53.29,103.74,19.72Z"></path><path id="Path-17" class="cls-85" d="M437.74,528.23q-2.91,5.94-3.1,6.35c-1.88,4-4,19.31-6.16,23.75-2.34,4.89-4.12,15.4-11.18,17.24q-7.05,1.86-28.19,0l-6.19-1.23q-2.55-6.42-6.75-6.42t-5.8,3.39H361.3l-22.08-4.76L306,554.93l15.47-47Z"></path><path id="Path-18" class="cls-86" d="M385.92,565.48q-8.06,11.91-9.74,20.28-5.43-.64-5.38-1.69-.44-11.33,2.8-16.66c2.16-3.56,3.74-5.33,4.73-5.33l7.59,1.29Z"></path><path id="Path-19" class="cls-87" d="M383.07,574.7q-4.54-9.3-12.32-4,1.13-4.86,7.58-12.12a41.51,41.51,0,0,0,7.59-24.76q0-14.15,1.72-13.91l8,1.77v7.43a104.61,104.61,0,0,1-2.11,18.37l-3.66,11.1-3.94,9.33Z"></path></g><path id="Combined-Shape-2" data-name="Combined-Shape" class="cls-88" d="M281.55,426.72c-5.18,0-9.38,4.58-9.38,10.22a10.06,10.06,0,0,0,7.35,10,16.13,16.13,0,0,0-1.38,6.63,14.4,14.4,0,0,0,4.81,11.2,27.32,27.32,0,0,0-10.78,22,28.07,28.07,0,0,0,3.59,13.82c-3.84,3.17-6.15,7.26-6.15,11.73,0,10.11,11.84,18.31,26.44,18.31s26.45-8.2,26.45-18.31a14.66,14.66,0,0,0-4.5-10.23,27.91,27.91,0,0,0,4.5-15.32c0-14.81-11.27-26.82-25.17-26.82a16.12,16.12,0,0,0,1.28-6.39c0-6.43-3.57-11.79-8.29-13a11,11,0,0,0,.62-3.65C290.94,431.3,286.73,426.72,281.55,426.72Z"></path><path id="Path-8" class="cls-89" d="M310.51,478.77q5.19-8.5,4.08-11.53c-.74-2-1.32-2.44-1.72-1.27q-3.72,5.29-6.25,6.91c-1.5,1-5.84-1.83-9-4.85-.19-.18-1.13-1.5-1.31-1.69-1.86-1.95-2.3-3-2.89-2.83-1.57.39-1.72,1.62-2.69,2.18-.4.32-1.73-.21-1.76-.42q-.58-3.31-1-10.11l-.44-2.2L286,450.65l-2.95-2-4-4.8V433.22q.06-6.56,5.64-12.82t19.61-6.9q10.26,1.83,13.47,5.41c3.21,3.58,9.44,9.7,11.7,16.31q2.26,6.6-.84,14.19a77,77,0,0,0,2.76,8.86c1.28,3.49,2.82,5.61,4.64,6.34a61,61,0,0,1,11,7.68c1.35,1.2-17.64,31.5-29.45,31.88Q314.84,504.26,310.51,478.77Z"></path><path id="Combined-Shape-3" data-name="Combined-Shape" class="cls-90" d="M291.27,556.16c-4.71-1.16-8.83-2-8.89-1.91-1.07,1.37-2.13,7.52-2.53,9.36a54.45,54.45,0,0,1-2.57,8c-3-.68-6.36-1.92-9-1.92-6.59-2-11.75-1.6-15.8,0-1.89-.49-3.2-.86-3.5-1-5.29-2-14-4.76-22.69-7.34l-1.93-.57c-9.63-2.84-18.89-5.36-23-6.28-8.14-1.8-18.13-2.08-22.76,1.8-5.26,8.63-6.58,17.29-4.18,20.79,12.23,14,24,20.27,46.5,24.44l.75.12c-2.27.91-5.8,1.84-4.92,4.84,0,2.73,0,4,1.44,5.89a4.35,4.35,0,0,1,1.22,1l.19.21c.85,1,2,2.17,7,3.72,6.14.91,33.53-2.58,41.74-15.79,3.69,4.13,21.15,11,25.84,12.36,4.43,1.25,14.59,2,17.89.85,23-2,35.31-27.86,32.81-45.14,0-2.86-.53-3.55-2.13-5.72-.72-1-5.23-1.29-10-1.42l-1.19,0c-4.57-.1-9.09,0-10.43-.27-16.51-2.66-22.29-5.7-29-5.85h0Z"></path><path id="Path-25" class="cls-91" d="M175.78,604.29a34.63,34.63,0,0,0-2-4.34c-1.23-2.3-.65-5.59,5.68-8.49q6.33-2.91,15-2.1l9.94,2.1.94,4.58Z"></path><path id="Path-3" class="cls-92" d="M220.75,600.29c-21.79-5.47-34.07-11.13-46.33-25-2.4-3.48-1.08-12.09,4.2-20.67,3.53-2.93,10.63-4.07,17.18-2.45a18,18,0,0,1,6.66,3.32c4.53,3.86,26.46,21.07,34.94,29.53,9.22,2.63,28.57-17.18,30.72-13.21,3.43,6.29,1,10.69-7.75,15.65-5,2.87-12.28-2.29-19.71,0C228.43,591.2,231.27,602.22,220.75,600.29Z"></path><path id="Path-7" class="cls-93" d="M359.33,483.82c-.52-2-8.12-10.71-16.56-11.76-10.2,6.2-8.9,4.76-19.59,6.28C320,481.92,317,501,315.85,501c-1,0-.42-5,0-9.8.32-3.78.19-3.66.7-7.41.23-1.66,1.47-4.15.77-4.89-.91-1-3.88-.26-4.91-.59-2.2-.7-3.15-2.13-4.78,0-7.05,9.21-8.53,9.78-12.59,22.69-7.57,24.07-17.06,52.15-13.21,55.26,10.09,2.88,14.3,6.55,22.83,7.45,2.06,1.4,6.52,1,8.37,3.14,3.36,3.83,12.32,4.76,16.66,6.82,3.22,1.53,16.15,6.16,17.64,3.16,2.05-4.09.05-9.2,2.32-13.12,4.2-7.26,6-6.56,8.07-14.9,1.93-7.66-.27-8.57,0-17.11.53-16.46,2.39-16.7,1.61-32.89C358.87,489.37,361.69,492.84,359.33,483.82Z"></path><path id="Path-5" class="cls-89" d="M288.73,546.45c-1.55,1.5-4.2,1.13-5.88,1.13-1.26,0-3.53-3.33-3.76-6.49-.28-3.85.83-11.19,9.64-41.54.33-2.38,1.06-1.36,1.55-3.51.28-1.26-.16-1.74,0-3.31.71-7,.49-7.81,1.73-13.87.51-2.5.83-2,1.78-3.23s1-.42,1.89-1.7c1.2-1.76,1.06-2.69,2.26-4.38.8-1.13.88-1.27,1.76-1.27s1,.61,2.06,1.27a8.44,8.44,0,0,1,1.95,1.29,59.14,59.14,0,0,1,4.46,4.79c.65.79.8.52,1.14,2a13,13,0,0,1,.82,3.77c0,1.69,1,6.55,1,8.25,0,2-1.46,0-1.86,0-.85,0-1.66-3.92-2.5-3.92-.41,0,.47,3.16,0,3.92-1.08,1.75-1.63-.24-3.1,1.09-2.08,1.89-2,2.62-4,5.34-.89,1.2-1.05.7-1.76,2.5S296.7,541.09,288.73,546.45Z"></path><path id="Path-4" class="cls-89" d="M361.62,506c9.08,12.32,6.15,20.4,7.86,31.2.71,12.33,0,17.79-3.92,24.61-2.32,3.22-3.3,2.12-11.59,3.56-6.85,3.53-35.93,4.79-52.53,4.79-8.39.83-9.33.94-12.82,1.94-1.65,1-12.9-5.94-14.75-4.91-4.86,1.26-3,1.26-5.92,3-4.25.79-15.13,2.18-15.34,0,3-4.43,3.39-5.74,8.42-11.81,4.54-2.35,6.42-2.35,12.39-3.36,8.15,2.64,14.91,5,17.9,6.82,2.82.69,4.57,0,8.57-.93,24.06-5.82,43.89-10.13,47.55-12.64,2.52-2.12-2.41-20.1-2.41-24.64s-3.92-10.46,1.45-16.16C349.4,504.32,359.19,502.69,361.62,506Z"></path><path id="Combined-Shape-4" data-name="Combined-Shape" class="cls-94" d="M309.6,392.72c-13.7,0-24.82,6.93-24.82,15.47a9.8,9.8,0,0,0,.1,1.33,38,38,0,0,0-5.72,6.51q-7.77,11.09,0,15.87,10.18,1.43,12.53,0a70.13,70.13,0,0,1,6.53-3.37q9.15,15.74,13.42,19c-.95-9.17,1.27-11.33,3.26-12.14a4,4,0,0,1,4.11.6q7.31,5.57-1.65,15.75l4.87,7.18q-2.1,3,0,11.79c2.11,8.84,7.16,12.18,9.4,10.51a90.42,90.42,0,0,0,7.9-6.79A32.55,32.55,0,0,0,351,478.86a25.18,25.18,0,0,0-4.57,14.44c0,11.7,8.12,21.65,19.41,25.23a19.67,19.67,0,1,0,30.87-7.73,25.5,25.5,0,0,0,7.05-17.5c0-11.36-7.64-21.05-18.4-24.89-.3-.54-.62-1.05-.95-1.54a13,13,0,0,0,1.38-5.81c0-9.21-10-16.85-23-18.25a28.9,28.9,0,0,0,1.65-9.69c0-13.77-9.39-24.93-21-24.93a18.26,18.26,0,0,0-9.33,2.6,9.82,9.82,0,0,0,.35-2.6C334.42,399.65,323.31,392.72,309.6,392.72Z"></path><path id="Path-6" class="cls-95" d="M371,526.32c-9.62,2.53-23-5.08-26.41-2.54-3.32,1.68-3.77,2.88-5.89.94a16.68,16.68,0,0,1-1-7.25c.23-3.94-.4-17.82,0-27.38.14-3.32.31-3.92,1.89-6.2,2.5-3.63,9.6-10.53,16.05-7.14s7.89,6.56,10.86,14.39C368.13,495.31,373.38,525.7,371,526.32Z"></path><polygon id="Path-11" class="cls-96" points="248.92 566.51 214.82 570.9 247.08 583.51 280.94 578.39 280.94 576.57 248.92 566.51"></polygon><polygon id="Path-11-2" data-name="Path-11" class="cls-97" points="246.09 568.4 216.71 572.16 241.93 581.63 273.39 576.91 246.09 568.4"></polygon><polygon id="Path-10-Copy" class="cls-96" points="245.05 581.04 207.59 539.12 181.76 534.4 178.93 535.1 217.01 569.07 218.1 570.04 244.93 583.51 245.05 581.04"></polygon><polygon id="Path-10" class="cls-98" points="245.05 583.51 206.63 539.82 178.93 534.4 213.8 571.67 245.05 583.51"></polygon><g id="Group-12"><polygon id="Path-12" class="cls-99" points="309.05 441.12 299.05 452.15 296.06 449.23 307.93 439.41 309.64 438.06 311.17 439.41 309.05 441.12"></polygon><polygon id="Path-13" class="cls-99" points="296.06 448.07 300.24 454.44 299.52 456.48 295.21 456.48 289.73 451.64 289.73 448.84 296.06 448.07"></polygon><polygon id="Path-14" class="cls-99" points="289.73 451.23 287.74 451.23 289.1 452.28 290.38 452.28 289.73 451.23"></polygon><polygon id="Path-15" class="cls-99" points="286.41 449.16 288.48 452.28 288.48 454.27 287.44 455.47 284.8 454.93 279.36 449.71 279.36 448.07 284.8 448.07 286.41 449.16"></polygon><polygon id="Path-16" class="cls-99" points="279.36 448.07 280.69 445.61 281.7 446.32 281.28 449.02 279.36 448.07"></polygon></g><path id="Path-9" class="cls-94" d="M298.42,429.25q9.21,15.92,13.52,19.24c-.95-9.27,1.28-11.45,3.29-12.27a4,4,0,0,1,4.15.61q7.37,5.63-1.66,15.91l4.91,7.26q-2.11,3,0,11.92c2.12,8.93,7.21,12.3,9.48,10.61s10-8.08,11-10.61,7.38-2,10.65,2.34c14.28,7.4,15.66,23.43,14.28,29.22a25.47,25.47,0,0,0,0,11.84l2.49,6.41v13.12q9.33,13,15.89,7.19t7.15-15.8c.15-1.88-.41-5.13-1.68-9.77-1.89-7-1.67-11.24,0-16.51s3.36-10.73,1.68-15.9a34.26,34.26,0,0,0-5.1-9.8,26.54,26.54,0,0,0-6.85-10.5c-4.24-3.76-11.09-6.44-11.09-6.44s-15.32-3.86-16.77-7.14.8-5.19-1.45-13.35q-2.25-8.15-10.51-12.56-4.24-6.31-5.94-8.3a19.18,19.18,0,0,0-2.65-2.64l-7.39-5.81c-3.21-2.46-10.18-5.31-14.85-5s-10.48-.94-12.57,0-11.4,2.9-19.23,14.11q-7.83,11.19,0,16,10.28,1.44,12.64,0A69.75,69.75,0,0,1,298.42,429.25Z"></path><path id="Path-23" class="cls-91" d="M267.71,623.19q-5.76-6.12-6.9-10c-1.15-3.93-2.27-7.65,10.84-12.63a56.32,56.32,0,0,1,11.18,1.61l-.57,9.4Z"></path><path id="Path-22" class="cls-100" d="M288.63,610.16q-3.53,6.11-7.68,8.67a40.94,40.94,0,0,1-11,4.34c-2.55.09-4.09-.34-4.65-1.28-.07-.12-.06-.27-.18-.38-2.8-2.33-.18-10.33,4.22-12.89A42.46,42.46,0,0,1,281,604.29l9.44,2.4Z"></path><path id="Path-26" class="cls-89" d="M222.38,610l-13.22-.79q.36-8.65,3-8.65c1.76,0,5.17.19,10.24.59Z"></path><path id="Path-24" class="cls-96" d="M218.6,598.8q-7.53,6.84-2.79,11.93-17,3.91-38.23-5.86a8.8,8.8,0,0,1,0-6.07q1.62-6.36,22.25-5.79Z"></path><path id="Path-2" class="cls-101" d="M313.23,612.91c-3.28,1.12-13.35.4-17.74-.84-4.65-1.32-22-8.22-25.63-12.33-8.14,13.17-35.3,16.66-41.38,15.76-7.3-2.28-6.25-3.79-8.31-4.94-1.43-1.87-1.43-3.15-1.43-5.87-1.08-3.69,4.5-4.25,6.17-5.49,4.77-3.52,4-3.29,8.78-6.8,2.24-1.64,5.78-8.38,7-10.26,2.7-4.21,9.59-20.38,29.18-14.26,3.36,0,37.74,0,55.76,14.26,10.43,4.05,19.55-7.4,19.55-5.36,0,2.65-1.07,9.21-4.3,16C336.5,602,328.19,611.72,313.23,612.91Z"></path></g></g></svg> 