<?xml version="1.0" encoding="UTF-8"?> <svg xmlns="http://www.w3.org/2000/svg" xmlns:xlink="http://www.w3.org/1999/xlink" viewBox="0 0 1107.14 648.27"><defs><style>.cls-1{fill:#deeeec;}.cls-1,.cls-12,.cls-17,.cls-6,.cls-62,.cls-63,.cls-7,.cls-8{fill-rule:evenodd;}.cls-2{opacity:0.34;}.cls-3{fill:#eaeaea;}.cls-4{fill:#fefefe;}.cls-5{opacity:0.58;}.cls-6{fill:#69a1ac;}.cls-7{fill:#c1dee2;}.cls-49,.cls-8{fill:#89c5cc;}.cls-9{opacity:0.37;}.cls-10{fill:#dde3e9;}.cls-11,.cls-12{fill:#fff;}.cls-13{fill:#f2f2f2;}.cls-14,.cls-63{fill:#c5cfd6;}.cls-15{fill:#afb9c5;}.cls-16{fill:#f0f1f2;}.cls-17,.cls-19{fill:#a2b2bc;}.cls-18{fill:#c3cfd7;}.cls-20{fill:#f7f7f7;}.cls-21{opacity:0.45;}.cls-22{fill:#959595;}.cls-23{fill:#666;}.cls-24{fill:#7e7e7e;}.cls-25{fill:#566f85;}.cls-26{opacity:0.6;}.cls-27{fill:#a0a0a0;}.cls-28{fill:#cecece;}.cls-29{fill:#b7b7b7;}.cls-30{fill:#d1d1d1;}.cls-31{fill:#aaa;}.cls-32{fill:#e6e6e6;}.cls-33{opacity:0.56;}.cls-34{fill:#e0e0e0;}.cls-35{fill:url(#linear-gradient);}.cls-36{fill:url(#linear-gradient-2);}.cls-37{fill:#f7ca2c;}.cls-38{fill:#d6af34;}.cls-39,.cls-44,.cls-51,.cls-56,.cls-58{fill:none;}.cls-39,.cls-44{stroke:#d26665;}.cls-39,.cls-44,.cls-58{stroke-linecap:round;stroke-linejoin:round;}.cls-39{stroke-width:0.61px;}.cls-40{fill:#1a1a1a;}.cls-41{fill:url(#linear-gradient-3);}.cls-42{fill:url(#linear-gradient-4);}.cls-43{fill:url(#linear-gradient-5);}.cls-44{stroke-width:0.63px;}.cls-45{fill:url(#linear-gradient-6);}.cls-46{fill:#ddb32a;}.cls-47{fill:#235caf;}.cls-48{fill:#f3a396;}.cls-50{fill:#04162e;}.cls-51{stroke:#adb4db;stroke-width:1.18px;}.cls-51,.cls-56{stroke-miterlimit:10;}.cls-52{fill:#d84326;}.cls-53{fill:#9b3123;}.cls-54{fill:#14609e;}.cls-55{fill:#0e4a72;}.cls-56{stroke:#1d1d1b;}.cls-57{fill:#bf9e36;}.cls-58{stroke:#844e3f;stroke-width:0.74px;}.cls-59{fill:#2f60bf;}.cls-60{fill:#fcf3e9;}.cls-61{fill:#2053a5;}.cls-62{fill:#a1cecb;}</style><linearGradient id="linear-gradient" x1="819.96" y1="176.51" x2="883.5" y2="176.51" gradientTransform="translate(374.28 -550.57) rotate(45)" gradientUnits="userSpaceOnUse"><stop offset="0" stop-color="#f06"></stop><stop offset="0.2" stop-color="#f30c50"></stop><stop offset="0.52" stop-color="#e31b33"></stop><stop offset="0.8" stop-color="#d92521"></stop><stop offset="1" stop-color="#d6281b"></stop></linearGradient><linearGradient id="linear-gradient-2" x1="826.04" y1="197.14" x2="893.28" y2="197.14" gradientTransform="matrix(1, 0, 0, 1, 0, 0)" xlink:href="#linear-gradient"></linearGradient><linearGradient id="linear-gradient-3" x1="815.92" y1="163.01" x2="861.4" y2="163.01" gradientTransform="matrix(1, 0, 0, 1, 0, 0)" xlink:href="#linear-gradient"></linearGradient><linearGradient id="linear-gradient-4" x1="815.91" y1="159.35" x2="849.91" y2="159.35" gradientTransform="matrix(1, 0, 0, 1, 0, 0)" xlink:href="#linear-gradient"></linearGradient><linearGradient id="linear-gradient-5" x1="856.88" y1="199.53" x2="867.38" y2="199.53" gradientTransform="matrix(1, 0, 0, 1, 0, 0)" xlink:href="#linear-gradient"></linearGradient><linearGradient id="linear-gradient-6" x1="850" y1="180.61" x2="860.87" y2="180.61" gradientTransform="matrix(1, 0, 0, 1, 0, 0)" xlink:href="#linear-gradient"></linearGradient></defs><g id="Layer_2" data-name="Layer 2"><g id="Layer_1-2" data-name="Layer 1"><path id="Combined-Shape" class="cls-1" d="M532,543.58c277.23,0,502,16,502,35.81,0,8.24-38.94,15.82-104.41,21.87,64.23,3.65,104.41,8.86,104.41,14.64s-39.65,10.92-103.14,14.56c-36.23,10.32-143.6,17.81-270.42,17.81-156.58,0-283.51-11.41-283.51-25.49,0-1.64,1.74-3.26,5.07-4.82-1.15-.68-1.73-1.37-1.73-2.06s.73-1.55,2.15-2.31C178.2,609.05,30,595.46,30,579.39,30,559.61,254.74,543.58,532,543.58Z"></path><g class="cls-2"><rect id="Rectangle" class="cls-3" x="588.31" y="8.22" width="482.29" height="307.96"></rect><ellipse id="Oval" class="cls-4" cx="637.15" cy="58.68" rx="11.89" ry="12.12"></ellipse><ellipse id="Oval-2" data-name="Oval" class="cls-4" cx="700.93" cy="58.68" rx="11.89" ry="12.12"></ellipse><ellipse id="Oval-3" data-name="Oval" class="cls-4" cx="764.7" cy="58.68" rx="11.89" ry="12.12"></ellipse><rect id="Rectangle-2" data-name="Rectangle" class="cls-4" x="625.26" y="91.14" width="151.34" height="11.27"></rect><path id="Path" class="cls-4" d="M1033.65,84.24c-7.32-14.7-18.31-28.17-33.91-27.66-33.91,1.13-56,91.29-79.61,92.42s-15.48-90.91-45.71-90.16c-38,.94-39.44,179.19-87,183.32s-58.24-95.79-79.62-94.29-30.56,78.35-34.28,95-22.48,19.91-22.48,19.91h382.59Z"></path><path id="Path-2" data-name="Path" class="cls-4" d="M1033.65,83.26h0C981.31,85.51,970.25,229,916.44,225.64c-44.64-2.81-37.23-80-76.29-82.28s-57.5,91.29-104.68,94.3c-22.94,1.46-41.28-13.15-62.29-11.27s-42.76,30.43-47.92,36.44h408.39Z"></path><ellipse id="Oval-4" data-name="Oval" class="cls-4" cx="829.46" cy="288.09" rx="8.75" ry="8.92"></ellipse></g><g id="Mask" class="cls-5"><path id="Leaf" class="cls-6" d="M994.29,129.61c4.71-6.71,13.44-23.75,20.06-26.14,4.27-1.55,3,14.43,3.08,17.47.2,11.79-.94,23.5-2.36,35.18-2.55,21.07-10.9,39.84-22.35,57.78-5.89,9.23-12.8,18.57-22.36,24.33-4.41,2.65-9.71,3.09-14.06,5.38-5.07,2.66-2.31.51-4.59,5.79-3.17,7.32-4.18,16.78-5.65,24.6-6.74,35.9-23,225.69-20.22,262.21.25,3.23-4.26,4-4.48.06-1.2-21,9.16-166,14.39-213.5S946.27,233.4,951.57,217c6.44-19.92,18.06-43.87,27.74-62.44A221.06,221.06,0,0,1,994.29,129.61Z"></path><path id="Leaf-2" data-name="Leaf" class="cls-7" d="M1029.22,362.33c12.24-9,25.5,8,14.42,17-6.13,5-12.53,3.2-16.14-.94-2.34,2.85-4.53,5.84-6.63,8.35-6.42,7.68-12.48,15.54-18.27,23.59-12,16.71-22.34,34.36-33.12,51.69-10.64,17.1-21.2,34.3-30.84,51.84-8.17,14.85-19.06,32.33-21.86,48.62,4.24-34.54,20.35-67.75,39.53-98.21,19-30.2,40.84-63.19,70.3-87C1023.61,372.8,1023.53,366.51,1029.22,362.33Z"></path><path id="Leaf-3" data-name="Leaf" class="cls-6" d="M796.87,278.08c6.85,1.34,18,16.84,23.7,22.74a221.43,221.43,0,0,1,18.54,22.34,377.47,377.47,0,0,1,32.81,53.51,497.57,497.57,0,0,1,36.5,95A393.34,393.34,0,0,1,919.5,534c.39,3.95,4.53,34.37-1.43,35.19-5.36.73-3.71-23.1-4-26.34-2.92-36.58-11.68-72.17-23.86-106.64-2.65-7.51-5.12-16.71-9.36-23.47-3.06-4.87,0-3.17-5.39-5-4.61-1.58-9.87-1.2-14.59-3.14-10.26-4.2-18.47-12.37-25.67-20.58-14-16-25.08-33.24-30.86-53.69-3.2-11.34-6.15-22.75-7.78-34.44C796.16,292.82,792.46,277.21,796.87,278.08Z"></path><path id="Leaf-4" data-name="Leaf" class="cls-8" d="M823.91,20.18c25.81,44.76,47,93.93,60.72,143.73,8.29,30.18,14.1,61.14,19.86,91.88,8.93,47.59,17.37,95.18,19.77,143.63,2.42,48.72,7.2,104.91-8.75,151.84,8-47.65.38-98.36-1-146.3-.64-22.88-2.5-45.54-4.94-68.29-2.37-22.07-6.24-44-9.84-65.94-1.75-10.66-3.6-21.31-5.47-32-.56-3.18-.8-12.6-2.81-14.77s-12.37-3.07-15.62-4.67a83.92,83.92,0,0,1-18.13-12.65c-10.44-9.29-19.52-21.42-26.68-33.38-16.58-27.66-23.21-61.43-22.87-93.47.06-6.22,10.07-73.21,6.05-74.13.24-.29.47-.58.69-.89C818,9.92,820.94,15.05,823.91,20.18Z"></path><path id="Leaf-5" data-name="Leaf" class="cls-8" d="M1102.49,181.62c.39-.58,3-4.57,1.68-4.32,2.66-.52-3.66,4.41,3,1.39-3.15,3-1.33,6.82-1.29,10.82a96.93,96.93,0,0,1-2.24,19.27,132.42,132.42,0,0,1-9,29.13c-9.1,20.34-24.56,39.92-42.9,52.64-9.06,6.28-17.93,8.42-28.26,11.31-6.53,1.82-7,5.2-10.51,11.53-7.21,13.19-14.29,26.32-20.64,40-7.6,16.27-15,32.57-21.92,49.13C947,458.27,927.92,516.07,917.91,575.89c-.25-35.25,7.91-71.55,18.19-105.15,7.49-24.49,17.25-48.08,27.65-71.44,2.52-5.66,6.35-12.94,7.42-19.19.75-4.38-1.55-8.59-2.6-13.2-4.09-18-3.79-38.07-.2-56.13,4-19.91,15.42-29.15,34.79-32,7.09-1,16.1-.65,22.6-3.67,7.08-3.29,10-14.11,14-21a286.13,286.13,0,0,1,38.42-52.25,123.29,123.29,0,0,1,13.14-12.09C1094.27,187.4,1100.48,184.51,1102.49,181.62Z"></path><path id="Base" class="cls-7" d="M885.19,537.82H954a5.6,5.6,0,0,1,5.59,5.6,5.66,5.66,0,0,1-.06.82l-5.31,36A22.4,22.4,0,0,1,932,599.41h-24.9A22.4,22.4,0,0,1,885,580.28l-5.31-36a5.59,5.59,0,0,1,4.72-6.36A5.52,5.52,0,0,1,885.19,537.82Z"></path></g><g id="Mobile3" class="cls-9"><rect id="Container" class="cls-10" x="77.93" width="239.08" height="454.1" rx="12.03"></rect><circle id="Touch" class="cls-11" cx="196.72" cy="402.97" r="22.55"></circle><g id="Camera"><circle id="Lens" class="cls-11" cx="177.17" cy="27.07" r="3.01"></circle><path id="Sensor" class="cls-12" d="M190.7,24.06h25.56a3,3,0,0,1,3,3h0a3,3,0,0,1-3,3H190.7a3,3,0,0,1-3-3h0A3,3,0,0,1,190.7,24.06Z"></path></g><g id="Rows"><g id="Row"><rect id="Container-2" data-name="Container" class="cls-11" x="98.98" y="42.1" width="196.98" height="81.2" rx="6.01"></rect><g id="Text-Stuff"><rect id="Label" class="cls-10" x="112.51" y="66.46" width="109.77" height="12.18" rx="4.51"></rect><rect id="Label-2" data-name="Label" class="cls-10" x="112.51" y="86.76" width="73.68" height="12.18" rx="4.51"></rect></g><g id="Check"><circle id="Background" class="cls-10" cx="274.9" cy="82.7" r="10.53"></circle><circle id="Indicator" class="cls-13" cx="274.9" cy="82.7" r="4.51"></circle></g></g><g id="Row-2" data-name="Row"><rect id="Background-2" data-name="Background" class="cls-11" x="98.98" y="135.33" width="196.98" height="63.15" rx="6.01"></rect><g id="Text"><rect id="Name" class="cls-10" x="157.62" y="154.27" width="109.77" height="9.47" rx="4.51"></rect><rect id="Name-2" data-name="Name" class="cls-10" x="157.62" y="170.06" width="73.68" height="9.47" rx="4.51"></rect></g><circle id="Avatar" class="cls-14" cx="130.56" cy="166.9" r="18.04"></circle></g><g id="Row-3" data-name="Row"><rect id="Container-3" data-name="Container" class="cls-11" x="98.98" y="210.51" width="196.98" height="63.15" rx="6.01"></rect><g id="Text-Stuff-2" data-name="Text-Stuff"><rect id="Label-3" data-name="Label" class="cls-10" x="112.51" y="229.45" width="109.77" height="9.47" rx="4.51"></rect><rect id="Label-4" data-name="Label" class="cls-15" x="112.51" y="245.24" width="73.68" height="9.47" rx="4.51"></rect></g><g id="Check-2" data-name="Check"><circle id="Background-3" data-name="Background" class="cls-10" cx="274.9" cy="242.08" r="10.53"></circle><circle id="Indicator-2" data-name="Indicator" class="cls-13" cx="274.9" cy="242.08" r="4.51"></circle></g></g><g id="Row-4" data-name="Row"><rect id="Background-4" data-name="Background" class="cls-11" x="98.98" y="285.69" width="196.98" height="63.15" rx="6.01"></rect><g id="Text-2" data-name="Text"><rect id="Name-3" data-name="Name" class="cls-10" x="157.62" y="304.64" width="109.77" height="9.47" rx="4.51"></rect><rect id="Name-4" data-name="Name" class="cls-10" x="157.62" y="320.42" width="73.68" height="9.47" rx="4.51"></rect></g><circle id="Avatar-2" data-name="Avatar" class="cls-14" cx="130.56" cy="317.27" r="18.04"></circle></g></g></g><g id="Mobile3-2" data-name="Mobile3"><g id="Group"><path id="Fill-16" class="cls-8" d="M212.39,280.05c-1.36,0-2.71,0-4.07.1-1,.05-2.61-.16-3.48.48s-.85,2-.71,3c.75,5.11,2.58,9.64,6.41,13.27,5.9,5.57,12.66,8.41,20.66,9.67,5.61.89,10.8-.35,14.94-4.34a62.33,62.33,0,0,1,6.46,18.08,43.1,43.1,0,0,1,.64,9.29c-.06,2-.17,4-.39,6-.09.88-.54,2.2-.2,3a1.38,1.38,0,0,0,2.36.24c.51-.69.41-2,.52-2.85.17-1.35.33-2.7.44-4.06.19-2.19.32-4.39.31-6.6a49,49,0,0,0-2.63-14.62c-2.88-9-7.57-17-14.86-23.31-4.48-3.87-9.61-5.43-15.43-6.27a76.27,76.27,0,0,0-11-1.14"></path><path id="Fill-18" class="cls-8" d="M233.31,315.9c-14.64,0-24.51,11.8-29.17,24.07-1.76,4.62-2.17,9.7-2.85,14.56-.21,1.55-.13,3.93-.77,5.32-.23.5-.75.68-.5,1.37a1.11,1.11,0,0,0,.9.75c.92.17,2.22-.83,3-1.23,6.55-3.29,10.86-8.37,14.37-14.58A62.18,62.18,0,0,0,224,334.08a41.74,41.74,0,0,0,1.52-8,30.86,30.86,0,0,0,.2-3.19,6.54,6.54,0,0,0-.85-2.53c4.89-1.85,10.4-2.36,15.35-.44a19.67,19.67,0,0,1,10.51,9.5,17.59,17.59,0,0,1,1.29,3.51,12.86,12.86,0,0,0,.59,2.52c.92,1.73,2.84.57,2.66-1a20.81,20.81,0,0,0-6.37-12.12,22.88,22.88,0,0,0-15.57-6.41"></path></g><rect id="Container-4" data-name="Container" class="cls-16" x="249.11" y="56.77" width="162.85" height="309.31" rx="8.19"></rect><circle id="Touch-2" data-name="Touch" class="cls-11" cx="330.03" cy="331.26" r="15.36"></circle><g id="Camera-2" data-name="Camera"><circle id="Lens-2" data-name="Lens" class="cls-11" cx="316.71" cy="75.21" r="2.05"></circle><path id="Sensor-2" data-name="Sensor" class="cls-12" d="M325.93,73.16h17.41a2.05,2.05,0,0,1,2.05,2h0a2.05,2.05,0,0,1-2.05,2.05H325.93a2.05,2.05,0,0,1-2.05-2.05h0A2.05,2.05,0,0,1,325.93,73.16Z"></path></g><g id="Rows-2" data-name="Rows"><g id="Row-5" data-name="Row"><rect id="Container-5" data-name="Container" class="cls-11" x="263.45" y="85.45" width="134.17" height="55.31" rx="4.1"></rect><g id="Text-Stuff-3" data-name="Text-Stuff"><rect id="Label-5" data-name="Label" class="cls-10" x="272.67" y="102.04" width="74.77" height="8.3" rx="3.07"></rect><rect id="Label-6" data-name="Label" class="cls-10" x="272.67" y="115.87" width="50.19" height="8.3" rx="3.07"></rect></g><g id="Check-3" data-name="Check"><circle id="Background-5" data-name="Background" class="cls-10" cx="383.29" cy="113.1" r="7.17"></circle><circle id="Indicator-3" data-name="Indicator" class="cls-13" cx="383.29" cy="113.1" r="3.07"></circle></g></g><g id="Row-6" data-name="Row"><rect id="Background-6" data-name="Background" class="cls-11" x="263.45" y="148.95" width="134.17" height="43.02" rx="4.1"></rect><g id="Text-3" data-name="Text"><rect id="Name-5" data-name="Name" class="cls-10" x="303.4" y="161.86" width="74.77" height="6.45" rx="3.07"></rect><rect id="Name-6" data-name="Name" class="cls-10" x="303.4" y="172.61" width="50.19" height="6.45" rx="3.07"></rect></g><circle id="Avatar-3" data-name="Avatar" class="cls-14" cx="284.96" cy="170.46" r="12.29"></circle></g><g id="Row-7" data-name="Row"><rect id="Container-6" data-name="Container" class="cls-11" x="263.45" y="200.16" width="134.17" height="43.02" rx="4.1"></rect><g id="Text-Stuff-4" data-name="Text-Stuff"><rect id="Label-7" data-name="Label" class="cls-10" x="272.67" y="213.07" width="74.77" height="6.45" rx="3.07"></rect><rect id="Label-8" data-name="Label" class="cls-15" x="272.67" y="223.82" width="50.19" height="6.45" rx="3.07"></rect></g><g id="Check-4" data-name="Check"><circle id="Background-7" data-name="Background" class="cls-10" cx="383.29" cy="221.67" r="7.17"></circle><circle id="Indicator-4" data-name="Indicator" class="cls-13" cx="383.29" cy="221.67" r="3.07"></circle></g></g><g id="Row-8" data-name="Row"><rect id="Background-8" data-name="Background" class="cls-11" x="263.45" y="251.37" width="134.17" height="43.02" rx="4.1"></rect><g id="Text-4" data-name="Text"><rect id="Name-7" data-name="Name" class="cls-10" x="303.4" y="264.28" width="74.77" height="6.45" rx="3.07"></rect><rect id="Name-8" data-name="Name" class="cls-10" x="303.4" y="275.03" width="50.19" height="6.45" rx="3.07"></rect></g><circle id="Avatar-4" data-name="Avatar" class="cls-14" cx="284.96" cy="272.88" r="12.29"></circle></g></g></g><path id="Combined-Shape-2" data-name="Combined-Shape" class="cls-17" d="M430.92,571.45c-3.17-3.16,36.56-29.28,38.47-110.21h99.72c1.91,80.93,41.65,107,38.48,110.21Z"></path><rect id="Rectangle-3" data-name="Rectangle" class="cls-18" x="221.61" y="113.2" width="595.99" height="380.9" rx="5.97"></rect><circle id="Oval-5" data-name="Oval" class="cls-19" cx="519.61" cy="472.44" r="11.2"></circle><rect id="Rectangle-4" data-name="Rectangle" class="cls-11" x="239.54" y="131.13" width="558.65" height="319.66"></rect><rect class="cls-20" x="252" y="144.74" width="338.58" height="287.79"></rect><rect class="cls-20" x="601.41" y="144.74" width="182.43" height="141.24"></rect><rect class="cls-20" x="601.41" y="295.5" width="182.43" height="137.95"></rect><g class="cls-21"><polygon class="cls-22" points="572.65 399.63 288.27 399.63 288.27 172.34 289.3 172.34 289.3 398.59 572.65 398.59 572.65 399.63"></polygon><rect class="cls-23" x="274.83" y="398.59" width="13.95" height="1.03"></rect><path class="cls-24" d="M270,400.18c0,2.23-.83,3.46-2.28,3.46-1.29,0-2.15-1.2-2.17-3.37s.94-3.41,2.28-3.41S270,398.09,270,400.18Zm-3.57.1c0,1.71.53,2.67,1.34,2.67s1.34-1.06,1.34-2.73-.41-2.68-1.33-2.68S266.43,398.49,266.43,400.28Z"></path><path class="cls-24" d="M263.05,359.09v-.55l.69-.67c1.68-1.6,2.44-2.45,2.45-3.44a1.18,1.18,0,0,0-1.31-1.28,2.25,2.25,0,0,0-1.39.56l-.28-.63a2.89,2.89,0,0,1,1.86-.66,1.85,1.85,0,0,1,2,1.9c0,1.21-.88,2.19-2.27,3.53l-.52.48v0h2.95v.74Z"></path><path class="cls-24" d="M272.59,355.74c0,2.23-.83,3.46-2.28,3.46-1.29,0-2.15-1.2-2.18-3.37s.95-3.41,2.29-3.41S272.59,353.65,272.59,355.74Zm-3.57.1c0,1.7.53,2.67,1.34,2.67s1.34-1.06,1.34-2.73-.42-2.68-1.33-2.68S269,354.05,269,355.84Z"></path><path class="cls-24" d="M263.26,312.58a3,3,0,0,0,1.45.41c1.14,0,1.5-.72,1.49-1.27,0-.92-.84-1.31-1.7-1.31H264v-.67h.49c.65,0,1.46-.33,1.46-1.11,0-.52-.33-1-1.15-1a2.35,2.35,0,0,0-1.31.44l-.23-.65a3.14,3.14,0,0,1,1.72-.5c1.29,0,1.87.76,1.87,1.56a1.61,1.61,0,0,1-1.21,1.54v0a1.7,1.7,0,0,1,1.47,1.68c0,1.05-.82,2-2.4,2a3.24,3.24,0,0,1-1.7-.45Z"></path><path class="cls-24" d="M272.59,310.25c0,2.23-.83,3.46-2.28,3.46-1.29,0-2.15-1.2-2.18-3.37s.95-3.41,2.29-3.41S272.59,308.16,272.59,310.25Zm-3.57.1c0,1.7.53,2.67,1.34,2.67s1.34-1.06,1.34-2.73-.42-2.68-1.33-2.68S269,308.56,269,310.35Z"></path><path class="cls-24" d="M265.79,268.11v-1.79h-3.05v-.58l2.93-4.19h1v4.08h.92v.69h-.92v1.79Zm0-2.48v-2.19c0-.35,0-.69,0-1h0c-.2.38-.36.66-.54,1l-1.61,2.23v0Z"></path><path class="cls-24" d="M272.59,264.76c0,2.23-.83,3.46-2.28,3.46-1.29,0-2.15-1.2-2.18-3.37s.95-3.41,2.29-3.41S272.59,262.67,272.59,264.76Zm-3.57.1c0,1.71.53,2.67,1.34,2.67s1.34-1,1.34-2.73-.42-2.68-1.33-2.68S269,263.07,269,264.86Z"></path><path class="cls-24" d="M267,216.29h-2.5l-.25,1.68a3.48,3.48,0,0,1,.53,0,2.82,2.82,0,0,1,1.42.35,1.89,1.89,0,0,1,.94,1.69,2.28,2.28,0,0,1-2.45,2.24,3.22,3.22,0,0,1-1.63-.4l.22-.68a3,3,0,0,0,1.4.36,1.45,1.45,0,0,0,1.56-1.42c0-.85-.58-1.45-1.89-1.45a6.89,6.89,0,0,0-.91.07l.43-3.15H267Z"></path><path class="cls-24" d="M272.59,218.75c0,2.23-.83,3.46-2.28,3.46-1.29,0-2.15-1.2-2.17-3.37s.94-3.41,2.28-3.41S272.59,216.66,272.59,218.75Zm-3.57.1c0,1.71.53,2.67,1.34,2.67s1.34-1.06,1.34-2.73-.42-2.68-1.33-2.68S269,217.06,269,218.85Z"></path><path class="cls-24" d="M266.79,169.12a3.18,3.18,0,0,0-.66,0,2.65,2.65,0,0,0-2.28,2.33h0a2,2,0,0,1,3.56,1.37,2.19,2.19,0,0,1-2.18,2.31c-1.4,0-2.32-1.09-2.32-2.8a4.13,4.13,0,0,1,1.11-3,3.64,3.64,0,0,1,2.1-1,4.23,4.23,0,0,1,.64-.05Zm-.25,3.79a1.33,1.33,0,0,0-1.35-1.51,1.46,1.46,0,0,0-1.27.81.75.75,0,0,0-.11.39c0,1.08.52,1.88,1.45,1.88C266,174.48,266.54,173.84,266.54,172.91Z"></path><path class="cls-24" d="M272.59,171.7c0,2.24-.83,3.47-2.28,3.47-1.29,0-2.15-1.2-2.18-3.37s.95-3.42,2.29-3.42S272.59,169.62,272.59,171.7Zm-3.57.11c0,1.7.53,2.67,1.34,2.67s1.34-1.06,1.34-2.73-.42-2.68-1.33-2.68S269,170,269,171.81Z"></path><rect class="cls-23" x="281.81" y="353.24" width="13.95" height="1.03"></rect><rect class="cls-23" x="281.81" y="307.89" width="13.95" height="1.03"></rect><rect class="cls-23" x="281.81" y="262.53" width="13.95" height="1.03"></rect><rect class="cls-23" x="281.81" y="217.18" width="13.95" height="1.03"></rect><rect class="cls-23" x="281.81" y="171.82" width="13.95" height="1.03"></rect><path class="cls-24" d="M321.24,416.15h0l-1.14.62-.18-.68,1.44-.76h.75v6.56h-.85Z"></path><path class="cls-24" d="M380.12,421.89v-.55l.69-.67c1.68-1.6,2.43-2.45,2.45-3.44A1.18,1.18,0,0,0,382,416a2.25,2.25,0,0,0-1.39.56l-.28-.63a2.88,2.88,0,0,1,1.85-.66,1.84,1.84,0,0,1,2,1.9c0,1.21-.87,2.19-2.26,3.53l-.52.48v0h2.94v.74Z"></path><path class="cls-24" d="M441.14,420.87a3,3,0,0,0,1.45.41c1.14,0,1.49-.72,1.48-1.27,0-.92-.83-1.31-1.69-1.31h-.5V418h.5c.64,0,1.46-.33,1.46-1.11,0-.52-.33-1-1.15-1a2.35,2.35,0,0,0-1.31.44l-.23-.65a3.13,3.13,0,0,1,1.71-.5c1.29,0,1.88.76,1.88,1.56a1.61,1.61,0,0,1-1.21,1.54v0A1.71,1.71,0,0,1,445,420c0,1.05-.82,2-2.39,2a3.28,3.28,0,0,1-1.71-.45Z"></path><path class="cls-24" d="M504.48,421.89V420.1h-3.05v-.58l2.93-4.19h.95v4.07h.92v.7h-.92v1.79Zm0-2.49v-2.19c0-.34,0-.68,0-1h0c-.21.39-.37.67-.55,1l-1.6,2.23v0Z"></path><path class="cls-24" d="M566.46,416.07H564l-.25,1.69a3.48,3.48,0,0,1,.53,0,2.82,2.82,0,0,1,1.42.35,1.89,1.89,0,0,1,.94,1.69,2.28,2.28,0,0,1-2.45,2.24,3.22,3.22,0,0,1-1.63-.4l.22-.68a3,3,0,0,0,1.4.36,1.45,1.45,0,0,0,1.56-1.42c0-.85-.58-1.45-1.89-1.45a6.89,6.89,0,0,0-.91.07l.43-3.15h3.14Z"></path><rect class="cls-23" x="320.71" y="392.13" width="1.03" height="13.95"></rect><rect class="cls-23" x="381.37" y="392.13" width="1.03" height="13.95"></rect><rect class="cls-23" x="442.03" y="392.13" width="1.03" height="13.95"></rect><rect class="cls-23" x="503.12" y="392.13" width="1.03" height="13.95"></rect><rect class="cls-23" x="563.29" y="392.13" width="1.03" height="13.95"></rect><polygon class="cls-23" points="501.41 352.13 440.09 263.41 382 218.44 319.28 308.7 318.43 308.11 381.77 216.95 440.89 262.75 501.14 349.92 563.32 183.92 564.29 184.28 501.41 352.13"></polygon><path class="cls-25" d="M323.6,309.11a4.8,4.8,0,1,1-4-5.45A4.81,4.81,0,0,1,323.6,309.11Z"></path><path class="cls-25" d="M386.69,218.4a4.8,4.8,0,1,1-4-5.45A4.8,4.8,0,0,1,386.69,218.4Z"></path><path class="cls-25" d="M445.21,263.75a4.79,4.79,0,1,1-4-5.44A4.79,4.79,0,0,1,445.21,263.75Z"></path><path class="cls-25" d="M506,351.72a4.8,4.8,0,1,1-4-5.44A4.81,4.81,0,0,1,506,351.72Z"></path><path class="cls-25" d="M568.55,184.8a4.8,4.8,0,1,1-4-5.44A4.8,4.8,0,0,1,568.55,184.8Z"></path></g><g class="cls-26"><path class="cls-27" d="M755.61,186.14h-14.5v-3.62l-2.88-2.06,2.88-2.06v-3.63h14.5Zm-14.06-.45h13.61V175.22H741.55v3.4L739,180.46l2.56,1.83Z"></path><path class="cls-27" d="M744.83,179h0l-.58.32-.08-.35.72-.39h.39v3.33h-.44Z"></path><path class="cls-27" d="M748.47,179H747.2l-.13.86.27,0a1.35,1.35,0,0,1,.72.18.94.94,0,0,1,.47.85,1.15,1.15,0,0,1-1.24,1.14,1.57,1.57,0,0,1-.83-.21l.12-.34a1.48,1.48,0,0,0,.71.19.74.74,0,0,0,.79-.73c0-.43-.3-.73-1-.73-.19,0-.34,0-.46,0l.21-1.6h1.6Z"></path><path class="cls-27" d="M750.61,179.55c0,.7-.37,1-.8,1s-.78-.33-.78-1,.36-1,.8-1S750.61,178.92,750.61,179.55Zm-1.22,0c0,.43.14.75.43.75s.43-.32.43-.76-.12-.74-.43-.74S749.39,179.16,749.39,179.58Zm.39,2.42,2-3.44H752l-2,3.44Zm3-1.07c0,.7-.37,1-.79,1s-.78-.33-.78-1,.36-1,.8-1S752.77,180.29,752.77,180.93Zm-1.22,0c0,.42.16.75.44.75s.43-.32.43-.76-.12-.74-.43-.74S751.55,180.54,751.55,181Z"></path><path class="cls-28" d="M755.61,259.62h-14.5V256l-2.88-2.06,2.88-2.06v-3.62h14.5Zm-14.06-.44h13.61V248.7H741.55v3.41L739,253.94l2.56,1.83Z"></path><path class="cls-28" d="M743.85,255.43v-.28l.36-.34c.85-.81,1.23-1.24,1.24-1.74a.6.6,0,0,0-.67-.65,1.1,1.1,0,0,0-.7.28l-.15-.32a1.52,1.52,0,0,1,1-.34.94.94,0,0,1,1,1c0,.62-.45,1.11-1.15,1.79l-.27.24H746v.38Z"></path><path class="cls-28" d="M748.47,252.48H747.2l-.13.85.27,0a1.48,1.48,0,0,1,.72.18,1,1,0,0,1,.47.86,1.15,1.15,0,0,1-1.24,1.13,1.68,1.68,0,0,1-.83-.2l.12-.34a1.49,1.49,0,0,0,.71.18.74.74,0,0,0,.79-.72c0-.43-.3-.74-1-.74a2.71,2.71,0,0,0-.46,0l.21-1.6h1.6Z"></path><path class="cls-28" d="M750.6,253c0,.7-.36,1.05-.79,1.05s-.78-.34-.78-1,.36-1,.8-1S750.6,252.4,750.6,253Zm-1.21,0c0,.42.14.74.43.74s.43-.31.43-.75-.12-.75-.43-.75S749.39,252.65,749.39,253.07Zm.39,2.41,2-3.44H752l-2,3.44Zm3-1.07c0,.71-.37,1.05-.79,1.05s-.78-.33-.78-1,.36-1,.8-1S752.77,253.78,752.77,254.41Zm-1.22,0c0,.43.16.75.44.75s.43-.32.43-.76-.12-.74-.43-.74S751.55,254,751.55,254.44Z"></path><path class="cls-29" d="M729.79,209.38l11.39-2.8a47.89,47.89,0,0,0-31.49-34L706,183.73A36.14,36.14,0,0,1,729.79,209.38Z"></path><path class="cls-30" d="M742.55,218a48.32,48.32,0,0,0-1.37-11.42l-11.39,2.8a36.11,36.11,0,0,1-23.92,43l3.62,11.16A47.83,47.83,0,0,0,742.55,218Z"></path><path class="cls-31" d="M658.66,218A36.08,36.08,0,0,1,706,183.73l3.66-11.14a47.82,47.82,0,0,0-58.08,66l10.57-5.08A35.8,35.8,0,0,1,658.66,218Z"></path><path class="cls-32" d="M694.75,265.81a47.92,47.92,0,0,0,14.74-2.32l-3.62-11.16a36.08,36.08,0,0,1-43.69-18.78l-10.57,5.08A47.8,47.8,0,0,0,694.75,265.81Z"></path><path class="cls-25" d="M644.65,190.26h-14.5V178.9h14.5v3.62l2.88,2.06-2.88,2.06Zm-14.06-.44h13.62v-3.41l2.56-1.83-2.56-1.83v-3.41H630.59Z"></path><path class="cls-25" d="M633.5,185.55a1.52,1.52,0,0,0,.74.21.66.66,0,0,0,.75-.64c0-.47-.43-.67-.86-.67h-.25v-.34h.25c.33,0,.74-.17.74-.56s-.17-.5-.58-.5a1.16,1.16,0,0,0-.67.22l-.12-.33a1.58,1.58,0,0,1,.87-.26c.66,0,1,.39,1,.8a.83.83,0,0,1-.62.78h0a.86.86,0,0,1,.74.86c0,.53-.41,1-1.21,1a1.72,1.72,0,0,1-.87-.22Z"></path><path class="cls-25" d="M638,183.12h-1.27l-.13.85.28,0a1.41,1.41,0,0,1,.71.18,1,1,0,0,1,.48.86,1.15,1.15,0,0,1-1.24,1.13,1.68,1.68,0,0,1-.83-.2l.11-.34a1.52,1.52,0,0,0,.71.18.73.73,0,0,0,.79-.72c0-.43-.29-.74-1-.74a2.71,2.71,0,0,0-.46,0l.21-1.6H638Z"></path><path class="cls-25" d="M640.14,183.68c0,.7-.37,1-.8,1s-.77-.34-.77-1,.36-1,.8-1S640.14,183,640.14,183.68Zm-1.22,0c0,.42.15.75.43.75s.43-.32.43-.76-.11-.74-.43-.74S638.92,183.29,638.92,183.71Zm.39,2.41,2-3.44h.29l-2,3.44Zm3-1.07c0,.71-.37,1-.8,1s-.77-.33-.77-1,.36-1.05.8-1.05S642.31,184.42,642.31,185.05Zm-1.22,0c0,.43.16.75.43.75s.43-.32.43-.76-.11-.74-.43-.74S641.09,184.67,641.09,185.08Z"></path><path class="cls-32" d="M649.11,263.71h-14.5V252.35h14.5V256L652,258l-2.88,2.06Zm-14.06-.44h13.62v-3.41l2.56-1.83-2.56-1.83v-3.41H635.05Z"></path><path class="cls-32" d="M637.86,259.52v-.28l.36-.34c.85-.81,1.23-1.24,1.24-1.74a.6.6,0,0,0-.66-.65,1.1,1.1,0,0,0-.71.28l-.14-.32a1.47,1.47,0,0,1,.94-.34.94.94,0,0,1,1,1c0,.61-.45,1.11-1.15,1.79l-.27.24H640v.38Z"></path><path class="cls-32" d="M642.48,256.57h-1.27l-.13.85.27,0a1.45,1.45,0,0,1,.72.18,1,1,0,0,1,.47.86,1.15,1.15,0,0,1-1.24,1.13,1.68,1.68,0,0,1-.83-.2l.12-.35a1.4,1.4,0,0,0,.71.19.74.74,0,0,0,.79-.72c0-.43-.29-.74-1-.74a2.71,2.71,0,0,0-.46,0l.21-1.6h1.6Z"></path><path class="cls-32" d="M644.62,257.13c0,.7-.37,1-.8,1s-.78-.33-.78-1,.36-1,.8-1S644.62,256.49,644.62,257.13Zm-1.22,0c0,.42.15.74.43.74s.43-.31.43-.75-.12-.75-.43-.75S643.4,256.74,643.4,257.16Zm.39,2.41,2-3.44H646l-2,3.44Zm3-1.07c0,.7-.37,1.05-.79,1.05s-.78-.33-.78-1,.36-1,.8-1S646.78,257.87,646.78,258.5Zm-1.22,0c0,.43.16.75.44.75s.43-.32.43-.76-.12-.74-.43-.74S645.56,258.11,645.56,258.53Z"></path></g><g class="cls-33"><rect class="cls-34" x="641.96" y="381.28" width="4.71" height="27.4"></rect><rect class="cls-31" x="646.67" y="364.94" width="4.71" height="44.02"></rect><rect class="cls-34" x="668" y="368.28" width="4.71" height="40.68"></rect><rect class="cls-31" x="672.71" y="351.66" width="4.71" height="57.3"></rect><rect class="cls-34" x="694.04" y="353.59" width="4.71" height="55.37"></rect><rect class="cls-31" x="698.75" y="336.97" width="4.71" height="71.99"></rect><rect class="cls-34" x="720.27" y="340.5" width="4.71" height="68.46"></rect><rect class="cls-31" x="724.97" y="323.88" width="4.71" height="85.08"></rect><rect class="cls-34" x="746.1" y="328.25" width="4.71" height="80.71"></rect><rect class="cls-31" x="750.8" y="311.62" width="4.71" height="97.33"></rect><polygon class="cls-22" points="760.2 411.77 632.52 411.77 632.52 314.19 632.96 314.19 632.96 411.32 760.2 411.32 760.2 411.77"></polygon><rect class="cls-23" x="626.75" y="411.32" width="5.99" height="0.44"></rect><path class="cls-24" d="M624.67,412c0,1-.35,1.49-1,1.49s-.92-.52-.93-1.45.41-1.46,1-1.46S624.67,411.11,624.67,412Zm-1.53.05c0,.73.23,1.15.58,1.15s.57-.46.57-1.18-.18-1.15-.57-1.15S623.14,411.28,623.14,412.05Z"></path><path class="cls-24" d="M621.69,394.36v-.23l.3-.29c.72-.69,1-1,1-1.47a.5.5,0,0,0-.56-.55,1,1,0,0,0-.6.23l-.12-.26a1.2,1.2,0,0,1,.8-.29.8.8,0,0,1,.86.82c0,.52-.38.94-1,1.51l-.23.21h1.27v.31Z"></path><path class="cls-24" d="M625.78,392.92c0,1-.35,1.49-1,1.49s-.92-.51-.93-1.45.41-1.46,1-1.46S625.78,392,625.78,392.92Zm-1.53.05c0,.73.23,1.15.58,1.15s.57-.46.57-1.18-.17-1.15-.57-1.15S624.25,392.2,624.25,393Z"></path><path class="cls-24" d="M621.78,374.4a1.27,1.27,0,0,0,.62.18c.49,0,.65-.32.64-.55,0-.4-.36-.56-.73-.56h-.21v-.29h.21c.28,0,.63-.14.63-.48s-.14-.42-.49-.42a1.13,1.13,0,0,0-.57.18l-.1-.27a1.35,1.35,0,0,1,.74-.22c.56,0,.81.33.81.67a.72.72,0,0,1-.52.67h0a.74.74,0,0,1,.63.73c0,.45-.36.84-1,.84a1.43,1.43,0,0,1-.73-.19Z"></path><path class="cls-24" d="M625.78,373.4c0,1-.35,1.48-1,1.48s-.92-.51-.93-1.44.41-1.47,1-1.47S625.78,372.5,625.78,373.4Zm-1.53,0c0,.73.23,1.15.58,1.15s.57-.46.57-1.18-.17-1.14-.57-1.14S624.25,372.67,624.25,373.44Z"></path><path class="cls-24" d="M622.87,355.31v-.77h-1.31v-.25l1.26-1.8h.41v1.75h.39v.3h-.39v.77Zm0-1.07v-.94c0-.15,0-.29,0-.44h0c-.09.16-.16.29-.24.42l-.68,1h.92Z"></path><path class="cls-24" d="M625.78,353.87c0,1-.35,1.49-1,1.49s-.92-.52-.93-1.45.41-1.47,1-1.47S625.78,353,625.78,353.87Zm-1.53,0c0,.73.23,1.15.58,1.15s.57-.45.57-1.17-.17-1.15-.57-1.15S624.25,353.15,624.25,353.91Z"></path><path class="cls-24" d="M623.37,333.06H622.3l-.11.72h.23a1.12,1.12,0,0,1,.6.15.78.78,0,0,1,.41.72,1,1,0,0,1-1,1,1.32,1.32,0,0,1-.7-.17l.09-.29a1.27,1.27,0,0,0,.6.16.63.63,0,0,0,.67-.62c0-.36-.25-.62-.81-.62a3.66,3.66,0,0,0-.39,0l.18-1.35h1.35Z"></path><path class="cls-24" d="M625.78,334.12c0,.95-.35,1.48-1,1.48s-.92-.51-.93-1.44.41-1.47,1-1.47S625.78,333.22,625.78,334.12Zm-1.53,0c0,.73.23,1.15.58,1.15s.57-.46.57-1.18-.17-1.14-.57-1.14S624.25,333.39,624.25,334.16Z"></path><path class="cls-24" d="M623.3,312.81a1.57,1.57,0,0,0-.29,0,1.15,1.15,0,0,0-1,1h0a.85.85,0,0,1,.68-.33.84.84,0,0,1,.85.91.94.94,0,0,1-.93,1c-.6,0-1-.47-1-1.2a1.74,1.74,0,0,1,.48-1.27,1.49,1.49,0,0,1,.9-.42,1.52,1.52,0,0,1,.28,0Zm-.11,1.63a.57.57,0,0,0-.58-.65.63.63,0,0,0-.55.35.39.39,0,0,0,0,.17c0,.46.22.8.62.8S623.19,314.84,623.19,314.44Z"></path><path class="cls-24" d="M625.78,313.92c0,1-.35,1.49-1,1.49s-.92-.52-.93-1.45.41-1.46,1-1.46S625.78,313,625.78,313.92Zm-1.53,0c0,.74.23,1.15.58,1.15s.57-.45.57-1.17-.17-1.15-.57-1.15S624.25,313.2,624.25,314Z"></path><rect class="cls-23" x="629.74" y="391.85" width="5.99" height="0.44"></rect><rect class="cls-23" x="629.74" y="372.38" width="5.99" height="0.44"></rect><rect class="cls-23" x="629.74" y="352.91" width="5.99" height="0.44"></rect><rect class="cls-23" x="629.74" y="333.44" width="5.99" height="0.44"></rect><rect class="cls-23" x="629.74" y="313.97" width="5.99" height="0.44"></rect><path class="cls-24" d="M646.67,418.86h0l-.49.27-.07-.29.61-.33H647v2.81h-.37Z"></path><path class="cls-24" d="M672,421.32v-.23l.3-.29c.71-.69,1-1.05,1-1.47a.5.5,0,0,0-.56-.55,1,1,0,0,0-.59.23l-.12-.26a1.19,1.19,0,0,1,.79-.29.8.8,0,0,1,.87.82c0,.52-.38.94-1,1.51l-.22.21h1.26v.31Z"></path><path class="cls-24" d="M698.14,420.89a1.29,1.29,0,0,0,.63.17c.49,0,.64-.31.63-.54,0-.4-.36-.57-.73-.57h-.21v-.28h.21c.28,0,.63-.14.63-.48s-.14-.42-.49-.42a1.06,1.06,0,0,0-.56.18l-.1-.27a1.29,1.29,0,0,1,.73-.22c.56,0,.81.33.81.67a.69.69,0,0,1-.52.66h0a.73.73,0,0,1,.63.73c0,.45-.35.84-1,.84a1.43,1.43,0,0,1-.73-.19Z"></path><path class="cls-24" d="M725.33,421.32v-.76H724v-.25l1.25-1.8h.41v1.75h.4v.3h-.4v.76Zm0-1.06v-.94c0-.15,0-.3,0-.44h0c-.08.16-.15.28-.23.41l-.69,1h.92Z"></path><path class="cls-24" d="M751.94,418.83h-1.07l-.11.72.23,0a1.16,1.16,0,0,1,.61.16.78.78,0,0,1,.4.72,1,1,0,0,1-1,1,1.42,1.42,0,0,1-.7-.17l.09-.29a1.29,1.29,0,0,0,.61.15.62.62,0,0,0,.66-.61c0-.36-.24-.62-.81-.62a3.66,3.66,0,0,0-.39,0l.18-1.35h1.35Z"></path><rect class="cls-23" x="646.44" y="408.55" width="0.44" height="5.99"></rect><rect class="cls-23" x="672.49" y="408.55" width="0.44" height="5.99"></rect><rect class="cls-23" x="698.53" y="408.55" width="0.44" height="5.99"></rect><rect class="cls-23" x="724.75" y="408.55" width="0.44" height="5.99"></rect><rect class="cls-23" x="750.58" y="408.55" width="0.44" height="5.99"></rect></g><circle class="cls-35" cx="851.73" cy="176.51" r="31.77" transform="translate(124.66 653.96) rotate(-45)"></circle><path class="cls-36" d="M837.37,194.05l-3.94-31,24.48,2.38,22.66-2.21,10.91,30.87s5.7,16.92-3.18,26.24c-2.47,2.59-6.47,4.72-10.79,6.36-12.77,4.84-26,6.6-38.72,1.75-4.32-1.64-8.62-3.85-11.27-8.11C821.16,210.07,837.37,194.05,837.37,194.05Z"></path><path class="cls-37" d="M851.74,249.55h0a11.79,11.79,0,0,0,11.15-12.41l-2.37-44.09L837,194.32l2.37,44.09A11.8,11.8,0,0,0,851.74,249.55Z"></path><path class="cls-38" d="M855.54,200.17s.23,19.27-17.11,24.38l-.62-11.35,19.07-14"></path><path class="cls-37" d="M835.44,216.94h0c12.24,0,22.17-8.86,22.17-19.79V161.37l-20.47-1.88c-7.61,0-17.81,11.69-17.81,18.48l.37,19.69C819.7,205.6,825.14,216.94,835.44,216.94Z"></path><path class="cls-37" d="M822.33,182.51l-6.06,10.39a1.74,1.74,0,0,0,1.54,2.74h8.07Z"></path><path class="cls-39" d="M827.9,198.85a23.32,23.32,0,0,1-7.87,1.32"></path><path class="cls-40" d="M824,186.16a1.78,1.78,0,1,0,1.78-1.78A1.78,1.78,0,0,0,824,186.16Z"></path><path class="cls-40" d="M821.55,180a48.7,48.7,0,0,1,12.1,2.44,9.51,9.51,0,0,0-6.72-5.2C822,176.28,821.55,180,821.55,180Z"></path><path class="cls-41" d="M861.13,174H815.92s5.85-25,27.48-21.61S861.13,174,861.13,174Z"></path><path class="cls-42" d="M815.92,174s-1.77-29.13,34-29.23l-3.33,12.79Z"></path><path class="cls-43" d="M856.88,191.77s0,15.53,10.5,15.52l-1.9-11.64Z"></path><path class="cls-37" d="M856.88,188.56s4.21-4.62,8.31-3.06,2.24,11.5-3.9,12.76a5.36,5.36,0,0,1-4.67-1.36S856.64,191.35,856.88,188.56Z"></path><path class="cls-44" d="M864,189s-3.43-1.15-5.87,3.9"></path><path class="cls-44" d="M859.82,190.44s3.73,2,1.26,5"></path><path class="cls-45" d="M850,170.31a100.53,100.53,0,0,1,4.56,20.59l6.31-6.05-.35-13.06Z"></path><path class="cls-46" d="M751.69,286.19a4.53,4.53,0,0,0,5.57-2.21c1.82-3.35.56-5.09-1.35-6.71Z"></path><path class="cls-46" d="M755.91,277.27s-3.81-6.7-2.91-12.74a71.3,71.3,0,0,1,2.47-10.4,1.55,1.55,0,0,0-.83-1.88h0a4.5,4.5,0,0,0-5.71,1.63,25.1,25.1,0,0,0-3.51,9.79l-11.3-5.05a3.18,3.18,0,0,0-4.43,2.33l-3.08,16.79s-.69,2.85,5,6.23,13.77,6.47,20.12,2.22Z"></path><path class="cls-37" d="M729.89,263.61l9,3.33a2.73,2.73,0,0,0,3.63-2.1h0a2.73,2.73,0,0,0-1.34-2.83L735,258.48a5.92,5.92,0,0,0-3.92-.75,3.38,3.38,0,0,0-2.93,2.78A2.72,2.72,0,0,0,729.89,263.61Z"></path><path class="cls-37" d="M729.11,269.18l9,3.33a2.73,2.73,0,0,0,3.63-2.1h0a2.73,2.73,0,0,0-1.34-2.83l-6.22-3.52a5.82,5.82,0,0,0-3.92-.75,3.36,3.36,0,0,0-2.93,2.78A2.71,2.71,0,0,0,729.11,269.18Z"></path><path class="cls-37" d="M728.06,274.69l9.05,3.32a2.71,2.71,0,0,0,3.62-2.09h0a2.7,2.7,0,0,0-1.34-2.83l-6.22-3.53a5.92,5.92,0,0,0-3.92-.75,3.38,3.38,0,0,0-2.93,2.78A2.73,2.73,0,0,0,728.06,274.69Z"></path><path class="cls-37" d="M727.38,279.7l7.93,2.91a2.38,2.38,0,0,0,3.18-1.84h0a2.39,2.39,0,0,0-1.18-2.48l-5.45-3.09a5.19,5.19,0,0,0-3.44-.66,3,3,0,0,0-2.57,2.44A2.4,2.4,0,0,0,727.38,279.7Z"></path><path class="cls-47" d="M804.85,245.76a16.6,16.6,0,0,1,18.62-5.91,16.41,16.41,0,0,1,11.11,15.3h0s4.27,9.66-12.76,66.58a13.09,13.09,0,0,1-16.7,8.64h0a13.07,13.07,0,0,1-8.86-13.54l5.56-63A16.12,16.12,0,0,1,804.85,245.76Z"></path><path class="cls-48" d="M760.59,278.58a5.18,5.18,0,0,1,1.71,6.65c-1.89,3.94-4.35,3.95-7.12,3.27Z"></path><path class="cls-47" d="M801.58,328.58,751,292.8l10.84-17.93,54,31.49a13.22,13.22,0,0,1,4,19.25h0A13.22,13.22,0,0,1,801.58,328.58Z"></path><path class="cls-48" d="M892.32,445.4l-4.73-76.48H849l8.24,79.54a17.64,17.64,0,0,0,17.52,15.63h0A17.64,17.64,0,0,0,892.32,445.4Z"></path><path class="cls-37" d="M892.36,445.28l3.85,120.24H871.48L856.79,447.69a17.85,17.85,0,0,1,17.72-20h0A17.84,17.84,0,0,1,892.36,445.28Z"></path><polygon class="cls-49" points="896.21 565.52 896.77 585.89 874.01 585.89 871.48 565.52 896.21 565.52"></polygon><path class="cls-50" d="M873.7,585.89v22.89H882v-6.85l6.38,6.85h29.78s.67-6.58-7.94-10.74c0,0-11.51-6-13.41-12.15Z"></path><path class="cls-48" d="M813.39,445.4l4.73-76.48h38.63l-8.24,79.54A17.64,17.64,0,0,1,831,464.09h0A17.64,17.64,0,0,1,813.39,445.4Z"></path><path class="cls-37" d="M813.35,445.28,809.5,565.52h24.73l14.69-117.83a17.85,17.85,0,0,0-17.72-20h0A17.84,17.84,0,0,0,813.35,445.28Z"></path><polygon class="cls-49" points="809.5 565.52 808.94 585.89 831.7 585.89 834.23 565.52 809.5 565.52"></polygon><path class="cls-50" d="M832,585.89v22.89h-8.26v-6.85l-6.38,6.85H787.59s-.67-6.58,7.94-10.74c0,0,11.51-6,13.41-12.15Z"></path><path class="cls-50" d="M886,312s22.45,78.57,22.35,151.81H800.56s2-96.95,21.57-151.81Z"></path><polygon class="cls-47" points="864.45 230.49 896.42 240.88 885.98 312.02 822.13 312.02 815.91 239.58 845.26 230.49 864.45 230.49"></polygon><path class="cls-37" d="M864.45,230.49l11.36,3.69s-5.81,12.76-25,12.76-17.41-12.79-17.41-12.79l11.82-3.66Z"></path><line class="cls-51" x1="820.77" y1="303.67" x2="814.5" y2="260.93"></line><path class="cls-47" d="M875.09,253.58a16.82,16.82,0,0,1,14.58-13.37,16.62,16.62,0,0,1,16.72,9.32h0s8,7,16.65,66.57a13.24,13.24,0,0,1-11.64,15h0a13.22,13.22,0,0,1-13.91-8.66l-21.76-60.23A16.48,16.48,0,0,1,875.09,253.58Z"></path><line class="cls-51" x1="888.21" y1="296.82" x2="875.73" y2="262.26"></line><path class="cls-37" d="M918.2,380.94l4.6,21.32a2.83,2.83,0,0,0,2.18,2.5h0c1.59.29,2.95-1.13,2.93-3l0-4.93s.78-1.84,3.92,2.61,6.7,9.38,6.41,12.93-.15,8.35,2.39,8.34,3.62-11.09,1.28-16.89c-2.22-5.51-4-13-12.75-26.36a2.71,2.71,0,0,0-3.65-.83Z"></path><path class="cls-48" d="M918.2,380.94a5.24,5.24,0,0,1,3.41-6.05c4.14-1.57,5.95.15,7.5,2.59Z"></path><path class="cls-47" d="M923.31,315.69l11.86,61.59-20.49,5.49-17.37-60.88A13.38,13.38,0,0,1,907.88,305h0A13.38,13.38,0,0,1,923.31,315.69Z"></path><rect class="cls-52" x="180.02" y="322.47" width="80.76" height="35.37"></rect><path class="cls-52" d="M243.19,457.54h0a17.59,17.59,0,0,0,17.59-17.6V352.51a17.58,17.58,0,0,0-17.59-17.59h0a17.59,17.59,0,0,0-17.59,17.59v87.43A17.6,17.6,0,0,0,243.19,457.54Z"></path><rect class="cls-49" x="232.81" y="544.64" width="21.99" height="27.17" transform="translate(487.6 1116.45) rotate(180)"></rect><path class="cls-40" d="M230.62,566.19l-.28,17.8h67v-.52a10.65,10.65,0,0,0-6.06-9.6l-32.82-13.09a3.14,3.14,0,0,0-3.6.41C250.6,565.67,246,573,233,565.05A1.62,1.62,0,0,0,230.62,566.19Z"></path><rect class="cls-11" x="230.34" y="583.99" width="66.98" height="4.67"></rect><path class="cls-52" d="M225.6,549.84h35.18V442.32a17.59,17.59,0,0,0-17.59-17.59h0a17.6,17.6,0,0,0-17.59,17.59Z"></path><rect class="cls-53" x="222.37" y="536.84" width="41.46" height="13.96"></rect><rect class="cls-52" x="180.18" y="334.92" width="37.01" height="122.62" rx="10.2"></rect><rect class="cls-49" x="187.53" y="544.64" width="21.99" height="27.17"></rect><path class="cls-40" d="M207.36,560.81H188.72a5.61,5.61,0,0,0-3.46,1.2l-8.47,9.6a12.48,12.48,0,0,0-5.35,10.32v2.32l45.48-.26v-5.88a12.71,12.71,0,0,0-1.6-6.19l-2.86-7.79A5.57,5.57,0,0,0,207.36,560.81Z"></path><rect class="cls-11" x="171.44" y="583.92" width="45.47" height="4.73"></rect><path class="cls-52" d="M190.39,424.73H207a10.2,10.2,0,0,1,10.2,10.2v114.9a0,0,0,0,1,0,0h-37a0,0,0,0,1,0,0V434.94a10.2,10.2,0,0,1,10.2-10.2Z"></path><rect class="cls-53" x="176.79" y="536.84" width="43.62" height="13.96"></rect><path class="cls-37" d="M269.58,372.27c1.81-3.06,3.68-3.87,3.68-3.87h0a5.42,5.42,0,0,1,5.3-5.83l2.21-.05a5.44,5.44,0,0,1,5.52,5v.16a48,48,0,0,1,2.27,17.71c-.76,12.85-7.1,18.48-11.07,17.94-3.74-.51-3.61-15.69-3.64-21.32l-3.17,5.24a1.78,1.78,0,0,1-3.3-1l.17-6.63A15.25,15.25,0,0,1,269.58,372.27Z"></path><path class="cls-37" d="M283.91,285.6l5,82.1-14.22,1.76L255.94,287.2a14,14,0,0,1,13.89-14.93h0A14,14,0,0,1,283.91,285.6Z"></path><path class="cls-37" d="M251.58,268.06l27.61-4.2,2.05,21.82a14,14,0,0,1-12.08,15h0a14,14,0,0,1-15.72-12.55L251.31,268Z"></path><path class="cls-54" d="M274.42,198.05c1.3,27.21,4.23,60.37,4.64,65.19h0l-27.95,4.25-6.25-67.75A14.81,14.81,0,0,1,259.54,184h0A14.81,14.81,0,0,1,274.42,198.05Z"></path><polygon class="cls-55" points="249.25 268.43 281.71 264.23 280.35 253.42 248.27 257.9 249.25 268.43"></polygon><polygon class="cls-54" points="220.01 177.11 174.37 183.95 179.15 322.46 220.01 322.46 260.87 322.46 259.54 183.95 220.01 177.11"></polygon><line class="cls-56" x1="259.91" y1="266.95" x2="259.77" y2="207.18"></line><path class="cls-37" d="M185.53,268.06l-27.62-4.2-2,21.82a14,14,0,0,0,12.08,15h0a14,14,0,0,0,15.73-12.55L185.79,268Z"></path><path class="cls-54" d="M160.05,198.05c-1.3,27.21-4.23,60.37-4.64,65.19h0l28,4.25,6.25-67.75A14.81,14.81,0,0,0,174.93,184h0A14.81,14.81,0,0,0,160.05,198.05Z"></path><polygon class="cls-55" points="185.22 268.43 152.76 264.23 154.12 253.42 186.2 257.9 185.22 268.43"></polygon><line class="cls-56" x1="188.76" y1="208.87" x2="184.18" y2="257.62"></line><path class="cls-37" d="M220.05,194.53h0a15,15,0,0,1-15-15v-23h30.07v23A15,15,0,0,1,220.05,194.53Z"></path><path class="cls-57" d="M204.48,155.84s4.18,13.42,11.77,17.75a12.58,12.58,0,0,0,16.38-3.2c1.87-2.56,2.45-5.78,2.45-11.31,0,0-5,4.9-14.08,5.28S204.48,155.84,204.48,155.84Z"></path><polygon class="cls-40" points="194.89 110.36 197.5 133.73 204.49 133.73 204.31 107.38 194.89 110.36"></polygon><path class="cls-37" d="M240.37,146.75c4.87,3.59,13.28-12.75,8.54-16.62s-8.95,3.6-8.95,3.6l-1.18,5.37L236.67,144l1.71,1.4Z"></path><path class="cls-37" d="M199.58,146.75c-4.86,3.59-13.28-12.75-8.54-16.62s8.62,4.06,8.62,4.06l1.18,5.22.77,5.14-.54,1.39Z"></path><path class="cls-58" d="M196.67,136.53s-3.83,2.05-1.3,5.14"></path><path class="cls-58" d="M192.36,135.06s3.52-1.18,6,4"></path><path class="cls-37" d="M244.52,125.66a119.59,119.59,0,0,1-2.69,25.05c-1.32,6.07-3.31,9.35-8.54,12.76l-.95.62a17.08,17.08,0,0,1-18.3.22h0c-5.67-3.51-11.34-7.18-12.56-13.69a174.57,174.57,0,0,1-2.46-25s-2.11-25.54,22.42-25S244.52,125.66,244.52,125.66Z"></path><path class="cls-58" d="M228,136.53v5a2.31,2.31,0,0,1-.16.83,2.2,2.2,0,0,1-2.63,1.22l-3.12-.9"></path><circle class="cls-40" cx="214.3" cy="132.39" r="2.26"></circle><circle class="cls-40" cx="235.86" cy="132.39" r="2.26"></circle><path class="cls-58" d="M215.12,147.58s3.92,2,10.87,2c6.33,0,9-2,9-2"></path><path class="cls-40" d="M219.39,125.39l.68-1.44c.21-.44-.08-.91-.67-1.09-1.63-.49-4.85-1.26-7.39-.63a11.61,11.61,0,0,0-5.69,4.08.54.54,0,0,0,0,.63h0a1.22,1.22,0,0,0,1.48.36l3.27-1.39a7.38,7.38,0,0,1,3.72-.5c.94.12,2.07.29,3.09.52A1.39,1.39,0,0,0,219.39,125.39Z"></path><path class="cls-40" d="M229.33,125.39l-.65-1.44c-.2-.44.08-.91.64-1.09,1.54-.49,4.6-1.27,7-.63a11,11,0,0,1,5.39,4.08.56.56,0,0,1,0,.63h0a1.12,1.12,0,0,1-1.4.36l-3.1-1.39a6.65,6.65,0,0,0-3.52-.5c-.9.12-2,.29-2.94.52A1.28,1.28,0,0,1,229.33,125.39Z"></path><path class="cls-40" d="M199.32,132.27s-.61-13.63,5.74-15.56l1.66-6.35h-9.2S197.2,115.42,199.32,132.27Z"></path><path class="cls-40" d="M244.26,132.27s-.14-13.63-6.49-15.56L236,109.87l10.29-.73S246.38,115.42,244.26,132.27Z"></path><path class="cls-40" d="M240,111.39a60.19,60.19,0,0,1-14.17,2.2c-8.16.32-4.76,7.71-4.76,7.71s-8.85,1-8.68-11.57c0,0-2.55,7.81-10.38,8.76a13.6,13.6,0,0,0,1.55-7.11s-8.15,1.74-9.69,5.37c0,0-4.11-7.41,3.72-16,0,0-2.38-2.22-5.45,1.26,0,0,3.41-9.64,21.1-8.06a11.18,11.18,0,0,0,9-1.26c4.42-2.85,10.15-2.06,12.42,1.58a18.89,18.89,0,0,1,2,4.2s2.72.32,2.89-4.42c0,0,3.85,4,0,8.37,0,0,11.48,2.46,6.16,15.18Z"></path><polygon class="cls-59" points="200.74 325.4 205.5 388.66 137.76 412.15 133.34 354.52 200.74 325.4"></polygon><polygon class="cls-59" points="209.09 324.86 213.97 389.76 146.11 411.62 141.69 353.99 209.09 324.86"></polygon><polygon class="cls-60" points="205.5 388.66 211.76 388.75 206.92 329.1 200.98 328.52 205.5 388.66"></polygon><polygon class="cls-61" points="137.76 412.15 147.37 414.06 213.97 389.76 205.5 388.66 137.76 412.15"></polygon><path class="cls-37" d="M183.78,402.08l-3.16-9.79,1.41-5a5.18,5.18,0,0,0-1.12-6.94l-10.39-8.87a9,9,0,0,0-10.87-4.77c-7.22,2-8.1,6.13-7.82,11l-.66,17.17a12.9,12.9,0,0,0,3.25,10.48l4.91,5.39a4.38,4.38,0,0,0,4.34,1.24l16.94-4.5A4.31,4.31,0,0,0,183.78,402.08Z"></path><path class="cls-37" d="M173.55,386.23l10,8.57a3.73,3.73,0,0,0,5.65-1h0a3.75,3.75,0,0,0-.37-4.27l-6.29-7.47a8.08,8.08,0,0,0-4.67-2.83,4.6,4.6,0,0,0-5.08,2.17A3.72,3.72,0,0,0,173.55,386.23Z"></path><path class="cls-37" d="M155.41,288l.31,82.26,14.3.83,13.41-83.3a14,14,0,0,0-14.84-14h0A14,14,0,0,0,155.41,288Z"></path><path id="Fill-19" class="cls-62" d="M12.84,263.12C37,303.59,65.06,342.78,81.94,387c-.68-5.22-1.4-10.43-2.21-15.63-4.28-27.58-9.6-55-15.19-82.3q-4.28-20.89-9-41.67c-1.66-7.45-3.3-14.9-5-22.35-.41-1.8-.76-5-1.28-8.14C65.71,270.75,81.52,324.6,93.09,379.7q2.28,10.85,3.87,21.66c.36-1.64.72-3.29,1.11-4.93a318.58,318.58,0,0,1,20.06-57.53,173.72,173.72,0,0,1,14-25.39c3.37-5,11.31-10.93,14.39-16-16.81,30.84-22.89,69.42-32.59,103-2.37,8.18-4.76,16.35-7.09,24.53,14.64-29.36,37.35-53.48,68.93-63.94-38.23,25.26-61.16,69.5-76.61,114.74-.05.53-.11,1.07-.16,1.61,4.55-8.63,10.27-16.44,18-21.9,16.61-11.71,35-8.3,51.16,1.74-12.65-8-35.51-.72-46.15,7.46-7.62,5.84-14.13,13.69-19.79,21.35-1.35,1.83-3.2,4-5.15,6.26A282.21,282.21,0,0,1,83.58,545.2c1-5,.29-13.06.58-16.81l.09-1.22q-1.44,5.76-2.78,11.36a155.91,155.91,0,0,0,3.49-22c.19-3.23.38-6.45.58-9.68q-.09-9.18-.74-18.42c-1.51-6-3.2-11.62-4.6-16.31a211.21,211.21,0,0,0-21.51-48.29A191.06,191.06,0,0,0,29,386.15c-6.18-6.09-12.65-11.9-19-17.79C7.68,366.24,3.56,361,0,358.28c26,14.3,52.66,29.78,71.59,52.83Q68.26,398.33,64.41,386C51.48,344.18,35.14,300.88,12.84,263.12Z"></path><path id="Base-2" data-name="Base" class="cls-63" d="M38.77,492.21c0,46.4,3.68,84,53,84s53-37.61,53-84"></path></g></g></svg> 