<?xml version="1.0" encoding="UTF-8"?> <svg xmlns="http://www.w3.org/2000/svg" viewBox="0 0 71.25 65.24"><defs><style>.cls-1{fill:none;stroke:#1978c5;stroke-linecap:round;stroke-linejoin:round;stroke-width:3px;}</style></defs><g id="Layer_2" data-name="Layer 2"><g id="Layer_1-2" data-name="Layer 1"><path class="cls-1" d="M9.88,45.72,23.66,62.63a3,3,0,0,0,3.46.88l8.13-3.32a2,2,0,0,0,1.09-2.61L35.69,56a5.07,5.07,0,0,0-1.48-2l-7-5.74A11.67,11.67,0,0,1,24.39,45l-2.48-4.23"></path><line class="cls-1" x1="24.01" y1="48.58" x2="25.86" y2="47.82"></line><line class="cls-1" x1="28.68" y1="52.07" x2="30.53" y2="51.31"></line><line class="cls-1" x1="32.43" y1="55.94" x2="34.28" y2="55.18"></line><path class="cls-1" d="M21.91,40.79s20-3.87,30.84,1.43L36.09,1.5c-3.62,12.28-21,22.63-21,22.63"></path><path class="cls-1" d="M41.48,14.69A8,8,0,0,1,47.35,29"></path><path class="cls-1" d="M18.88,33.39l3,7.4L10.8,45.34a4,4,0,0,1-5.21-2.19L1.8,33.9A4,4,0,0,1,4,28.68l11.1-4.55L15.85,26"></path><path class="cls-1" d="M50.11,9.32a6.47,6.47,0,0,1,1.24-2.87C52.5,5,54.36,3.82,54.69,2"></path><path class="cls-1" d="M53.73,14.68q7.34-3.81,15-6.94"></path><path class="cls-1" d="M56.14,22.89c4.51-1.25,9-2.38,13.61-3.42"></path><path class="cls-1" d="M58,29.13a10.53,10.53,0,0,0,6.43,2.55,5.35,5.35,0,0,0,1.33,1.54,1.79,1.79,0,0,0,1.93.16l-.44-.07"></path></g></g></svg> 