<svg width="380" height="257" viewBox="0 0 380 257" fill="none" xmlns="http://www.w3.org/2000/svg">
<g clip-path="url(#clip0)">
<path d="M285.922 218.584C285.922 218.584 275.495 236.185 264.065 243.557C223.558 269.701 177.15 254.414 153.889 222.098C145.868 234.813 130.485 242.499 115.474 241.299C100.463 240.099 86.4833 230.042 80.6107 216.212C50.0445 230.099 9.13691 210.183 1.34498 177.582C-6.44695 144.98 21.0253 108.778 54.5707 107.407C49.4143 82.4339 63.4513 54.8325 86.6838 44.2319C109.916 33.6314 140.053 41.1175 155.579 61.3757C164.374 22.0308 207.43 -6.28494 247.163 1.20116C286.896 8.68726 316.632 50.718 310.415 90.5486C343.932 92.6059 370.201 112.578 378.079 142.523C385.957 172.467 369.199 205.126 335.882 216.669C312.134 224.927 285.922 218.584 285.922 218.584Z" fill="white"/>
</g>
<defs>
<clipPath id="clip0">
<rect width="380" height="256.813" fill="white" transform="matrix(-1 0 0 1 380 0)"/>
</clipPath>
</defs>
</svg>
