<svg width="133" height="90" viewBox="0 0 133 90" fill="none" xmlns="http://www.w3.org/2000/svg">
<g clip-path="url(#clip0)">
<path d="M32.8401 76.5C32.8401 76.5 36.4801 82.66 40.4701 85.24C54.6101 94.39 70.8101 89.04 78.9301 77.73C81.7301 82.18 87.1001 84.87 92.3401 84.45C97.5801 84.03 102.46 80.51 104.51 75.67C115.18 80.53 129.46 73.56 132.18 62.15C134.9 50.74 125.31 38.07 113.6 37.59C115.4 28.85 110.5 19.19 102.39 15.48C94.2801 11.77 83.7601 14.39 78.3401 21.48C75.2701 7.71002 60.2401 -2.19998 46.3701 0.420023C32.5001 3.04002 22.1201 17.75 24.2901 31.69C12.5901 32.41 3.42006 39.4 0.67006 49.88C-2.07994 60.36 3.77006 71.79 15.4001 75.83C23.6901 78.72 32.8401 76.5 32.8401 76.5Z" fill="url(#paint0_linear)"/>
</g>
<defs>
<linearGradient id="paint0_linear" x1="66" y1="17.5" x2="66.3221" y2="89.8851" gradientUnits="userSpaceOnUse">
<stop stop-color="#7DEBDF"/>
<stop offset="1" stop-color="#4B89E6"/>
</linearGradient>
<clipPath id="clip0">
<rect width="132.65" height="89.88" fill="white"/>
</clipPath>
</defs>
</svg>
