<svg width="1243" height="1269" viewBox="0 0 1243 1269" fill="none" xmlns="http://www.w3.org/2000/svg">
<g opacity="0.33">
<path d="M1018.09 324.912C1066.3 397.881 1047.02 494.26 975.043 540.182C963.407 547.607 951.1 553.246 938.448 557.195C922.774 562.356 907.97 568.88 894.108 576.592C874.014 594.038 864.284 621.866 871.087 649.961C882.613 694.249 865.762 742.061 825.674 767.636C820.172 771.148 814.453 774.093 808.596 776.493C784.648 786.667 769.726 808.822 767.651 833.172C769.947 849.589 773.86 866.067 779.46 882.415C813.997 977.802 780.938 1086 693.263 1141.93C590.174 1207.7 450.643 1176.3 381.608 1071.8C339.394 1007.9 333.322 931.475 358.541 866.692C375.174 823.203 353.068 773.488 309.005 755.328C286.084 746.061 265.547 729.934 250.872 707.724C213.378 650.972 228.37 576.008 284.358 540.291C297.07 532.18 310.807 526.801 324.884 523.978C335.5 521.343 342.142 511.083 340.338 500.289C318.61 411.125 353.073 315.607 433.63 264.216C523.263 207.035 640.44 223.32 714.882 297.229C731.741 312.98 757.729 313.121 773.865 297.52C781.723 289.507 790.603 282.248 800.485 275.943C872.456 230.021 969.886 251.946 1018.09 324.912Z" fill="url(#paint0_linear)"/>
</g>
<defs>
<linearGradient id="paint0_linear" x1="622" y1="1210" x2="660" y2="312.5" gradientUnits="userSpaceOnUse">
<stop stop-color="#0072FF"/>
<stop offset="1" stop-color="#00FFF0"/>
</linearGradient>
</defs>
</svg>
