<svg width="380" height="257" viewBox="0 0 380 257" fill="none" xmlns="http://www.w3.org/2000/svg">
<g clip-path="url(#clip0)">
<path d="M94.0776 218.584C94.0776 218.584 104.505 236.185 115.935 243.557C156.442 269.701 202.85 254.414 226.111 222.098C234.132 234.813 249.515 242.499 264.526 241.299C279.537 240.099 293.517 230.042 299.389 216.212C329.955 230.099 370.863 210.183 378.655 177.582C386.447 144.98 358.975 108.778 325.429 107.407C330.586 82.4339 316.549 54.8325 293.316 44.2319C270.084 33.6314 239.947 41.1175 224.421 61.3757C215.626 22.0308 172.57 -6.28494 132.837 1.20116C93.1036 8.68726 63.3682 50.718 69.5846 90.5486C36.0678 92.6059 9.79865 112.578 1.92077 142.523C-5.9571 172.467 10.8013 205.126 44.1175 216.669C67.8657 224.927 94.0776 218.584 94.0776 218.584Z" fill="url(#paint0_linear)"/>
</g>
<defs>
<linearGradient id="paint0_linear" x1="0.00126938" y1="142.866" x2="358.083" y2="128.505" gradientUnits="userSpaceOnUse">
<stop stop-color="#A0F0E5"/>
<stop offset="1" stop-color="#AEDBFB"/>
</linearGradient>
<clipPath id="clip0">
<rect width="380" height="256.813" fill="white"/>
</clipPath>
</defs>
</svg>
