<?xml version="1.0" encoding="UTF-8"?> <svg xmlns="http://www.w3.org/2000/svg" width="52" height="52" viewBox="0 0 52 52" fill="none"><path d="M38.572 50.2152L38.0748 49.4698L32.8428 47.9082C32.614 47.8376 32.3851 47.7513 32.172 47.6415C30.0808 46.5586 28.2737 44.8244 26.9874 42.8863L23.0338 36.9462C22.3551 35.9261 21.8974 35.0237 22.9628 34.3254C24.0281 33.6192 26.8295 34.2705 27.5161 35.2905L30.6016 39.9202L19.4984 23.2692C18.8198 22.2491 19.1354 20.8367 20.2008 20.1383C21.2661 19.4321 22.6945 19.6989 23.3731 20.719L30.3649 31.2023L29.3075 29.6173C28.6288 28.5972 28.9444 27.1848 30.0098 26.4864C31.0751 25.7802 32.5035 26.047 33.1821 27.0671L34.7525 29.4211L34.1765 28.5501C33.4978 27.53 33.8135 26.1176 34.8788 25.4192C35.9441 24.713 37.3725 24.9798 38.0511 25.9999L39.6689 28.401L39.0534 27.4751C38.3747 26.455 38.6903 25.0426 39.7557 24.3442C40.821 23.638 42.2494 23.9048 42.928 24.9249L46.3924 30.1195C48.16 32.7717 49.2096 35.6672 49.8251 38.7902C49.8883 39.1198 49.904 39.4572 49.8804 39.7946L49.7147 41.8034L50.2118 42.5489" stroke="#2649A8" stroke-width="2" stroke-miterlimit="10" stroke-linecap="round" stroke-linejoin="round"></path><path d="M28.5646 22.1472L36.5981 14.3553L24.5716 12.6211L19.1975 1.78467L13.8156 12.6211L1.78906 14.3553L10.4933 22.7906L8.43363 34.7021L19.1975 29.0838" stroke="#2649A8" stroke-width="2" stroke-miterlimit="10" stroke-linecap="round" stroke-linejoin="round"></path></svg> 