<?xml version="1.0" encoding="UTF-8"?> <svg xmlns="http://www.w3.org/2000/svg" width="53" height="53" viewBox="0 0 53 53" fill="none"><path d="M7.375 42.4375H4.1875C2.86469 42.4375 1.79688 41.3697 1.79688 40.0469V4.1875C1.79688 2.86469 2.86469 1.79688 4.1875 1.79688H48.8125C50.1353 1.79688 51.2031 2.86469 51.2031 4.1875V40.0469C51.2031 41.3697 50.1353 42.4375 48.8125 42.4375H45.625" stroke="#2649A8" stroke-width="2" stroke-miterlimit="10" stroke-linecap="square" stroke-linejoin="round"></path><path d="M6.17969 7.375C6.83984 7.375 7.375 6.83984 7.375 6.17969C7.375 5.51953 6.83984 4.98438 6.17969 4.98438C5.51953 4.98438 4.98438 5.51953 4.98438 6.17969C4.98438 6.83984 5.51953 7.375 6.17969 7.375Z" fill="#2649A8"></path><path d="M10.1641 7.375C10.8242 7.375 11.3594 6.83984 11.3594 6.17969C11.3594 5.51953 10.8242 4.98438 10.1641 4.98438C9.50391 4.98438 8.96875 5.51953 8.96875 6.17969C8.96875 6.83984 9.50391 7.375 10.1641 7.375Z" fill="#2649A8"></path><path d="M14.1484 7.375C14.8086 7.375 15.3438 6.83984 15.3438 6.17969C15.3438 5.51953 14.8086 4.98438 14.1484 4.98438C13.4883 4.98438 12.9531 5.51953 12.9531 6.17969C12.9531 6.83984 13.4883 7.375 14.1484 7.375Z" fill="#2649A8"></path><path d="M1.79688 10.5625H51.2031" stroke="#2649A8" stroke-width="2" stroke-miterlimit="10" stroke-linecap="round" stroke-linejoin="round"></path><path d="M41.3617 29.9903L39.6086 25.7589C39.4891 25.4641 39.5528 25.1214 39.7839 24.8903L40.5888 24.0855C40.8995 23.7747 40.8995 23.2727 40.5888 22.9619L37.21 19.5831C36.8992 19.2723 36.3972 19.2723 36.0864 19.5831L35.2816 20.388C35.0505 20.6191 34.7078 20.6828 34.413 20.5633L30.1816 18.8102C29.8787 18.6827 29.6875 18.3958 29.6875 18.0691V16.9375C29.6875 16.4992 29.3289 16.1406 28.8906 16.1406H24.1094C23.6711 16.1406 23.3125 16.4992 23.3125 16.9375V18.0691C23.3125 18.3878 23.1212 18.6827 22.8184 18.8022L18.587 20.5553C18.2922 20.6748 17.9495 20.6111 17.7184 20.38L16.9136 19.5752C16.6028 19.2644 16.1008 19.2644 15.79 19.5752L12.4112 22.9539C12.1005 23.2647 12.1005 23.7667 12.4112 24.0775L13.2161 24.8823C13.4472 25.1134 13.5109 25.4561 13.3914 25.7509L11.6383 29.9823C11.5108 30.2931 11.2239 30.4844 10.8972 30.4844H9.76562C9.32734 30.4844 8.96875 30.843 8.96875 31.2812V36.0625C8.96875 36.5008 9.32734 36.8594 9.76562 36.8594H10.8972C11.2159 36.8594 11.5108 37.0506 11.6303 37.3534L13.3834 41.5848C13.503 41.8797 13.4392 42.2223 13.2081 42.4534L12.4033 43.2583C12.0925 43.5691 12.0925 44.0711 12.4033 44.3819L15.782 47.7606C16.0928 48.0714 16.5948 48.0714 16.9056 47.7606L17.7105 46.9558C17.9416 46.7247 18.2842 46.6609 18.5791 46.7805L22.8105 48.5336C23.1053 48.6531 23.3045 48.948 23.3045 49.2667V50.4062C23.3045 50.8445 23.6631 51.2031 24.1014 51.2031H28.8827C29.3209 51.2031 29.6795 50.8445 29.6795 50.4062V49.2747C29.6795 48.9559 29.8708 48.6611 30.1736 48.5416L34.405 46.7884C34.6998 46.6689 35.0425 46.7327 35.2736 46.9638L36.0784 47.7686C36.3892 48.0794 36.8913 48.0794 37.202 47.7686L40.5808 44.3898C40.8916 44.0791 40.8916 43.577 40.5808 43.2663L39.7759 42.4614C39.5448 42.2303 39.4811 41.8877 39.6006 41.5928L41.3537 37.3614C41.4733 37.0666 41.7681 36.8673 42.0869 36.8673H43.2344C43.6727 36.8673 44.0312 36.5087 44.0312 36.0705V31.2892C44.0312 30.8509 43.6727 30.4923 43.2344 30.4923H42.1028C41.7761 30.4844 41.4892 30.2931 41.3617 29.9903Z" stroke="#2649A8" stroke-width="2" stroke-miterlimit="10" stroke-linecap="round" stroke-linejoin="round"></path><path d="M26.5 43.2344C31.7812 43.2344 36.0625 38.9531 36.0625 33.6719C36.0625 28.3907 31.7812 24.1094 26.5 24.1094C21.2188 24.1094 16.9375 28.3907 16.9375 33.6719C16.9375 38.9531 21.2188 43.2344 26.5 43.2344Z" stroke="#2649A8" stroke-width="2" stroke-miterlimit="10" stroke-linecap="round" stroke-linejoin="round"></path></svg> 