<?xml version="1.0" encoding="UTF-8"?> <!-- Generator: Adobe Illustrator 24.0.3, SVG Export Plug-In . SVG Version: 6.00 Build 0) --> <svg xmlns="http://www.w3.org/2000/svg" xmlns:xlink="http://www.w3.org/1999/xlink" version="1.1" id="Слой_1" x="0px" y="0px" viewBox="0 0 813 558" style="enable-background:new 0 0 813 558;" xml:space="preserve"> <style type="text/css"> .st0{fill-rule:evenodd;clip-rule:evenodd;fill:#DEEEEC;} .st1{opacity:0.5045;} .st2{fill-rule:evenodd;clip-rule:evenodd;fill:#F2F2F2;} .st3{opacity:0.2;fill-rule:evenodd;clip-rule:evenodd;fill:#C1DEE2;enable-background:new ;} .st4{opacity:0.7;} .st5{fill-rule:evenodd;clip-rule:evenodd;fill:#69A1AC;} .st6{fill-rule:evenodd;clip-rule:evenodd;fill:#89C5CC;} .st7{opacity:0.5;} .st8{fill-rule:evenodd;clip-rule:evenodd;fill:#C1DEE2;} .st9{fill-rule:evenodd;clip-rule:evenodd;} .st10{fill-rule:evenodd;clip-rule:evenodd;fill:#FFFFFF;} .st11{fill-rule:evenodd;clip-rule:evenodd;fill:#FFFFFF;stroke:#000000;stroke-width:5.3343;} .st12{fill:#00214E;} .st13{fill:#F7CA2C;} .st14{fill:#DFB726;} .st15{fill:#94791A;} .st16{fill:#845161;} .st17{fill:none;stroke:#00214E;stroke-width:0.5;} .st18{fill:none;stroke:#F2A196;stroke-width:0.5;} .st19{fill-rule:evenodd;clip-rule:evenodd;fill:#006285;} .st20{fill-rule:evenodd;clip-rule:evenodd;fill:#D84326;} .st21{fill-rule:evenodd;clip-rule:evenodd;fill:#003C66;} .st22{fill-rule:evenodd;clip-rule:evenodd;fill:#F7CA2C;} .st23{fill-rule:evenodd;clip-rule:evenodd;fill:#8C1818;} .st24{fill-rule:evenodd;clip-rule:evenodd;fill:#E8E8E8;} .st25{fill-rule:evenodd;clip-rule:evenodd;fill:#8CC6C0;} .st26{fill-rule:evenodd;clip-rule:evenodd;fill:#0F9283;} .st27{fill:none;stroke:#13847F;stroke-width:0.8316;stroke-linecap:square;} .st28{fill:none;stroke:#0A5D5A;stroke-width:0.8316;stroke-linecap:square;} .st29{fill-rule:evenodd;clip-rule:evenodd;fill:#A1CECB;} .st30{fill-rule:evenodd;clip-rule:evenodd;fill:#DFB726;} .st31{fill:none;stroke:#94791A;stroke-width:0.8316;stroke-linecap:square;} .st32{fill:none;stroke:#DFB726;stroke-width:0.8316;stroke-linecap:square;} .st33{fill-rule:evenodd;clip-rule:evenodd;fill:#FADF80;} .st34{fill-rule:evenodd;clip-rule:evenodd;fill:#AE8B0C;} .st35{fill:none;stroke:#D2AC85;stroke-width:0.8316;stroke-linecap:square;} .st36{fill:none;stroke:#975218;stroke-width:0.8316;stroke-linecap:square;} .st37{fill-rule:evenodd;clip-rule:evenodd;fill:#FF9D8A;} .st38{fill:none;stroke:#1978C5;stroke-width:0.8316;stroke-linecap:square;} .st39{fill:none;stroke:#14609E;stroke-width:0.8316;stroke-linecap:square;} .st40{fill-rule:evenodd;clip-rule:evenodd;fill:#A4C4CF;} .st41{fill-rule:evenodd;clip-rule:evenodd;fill:#00214E;} .st42{fill-rule:evenodd;clip-rule:evenodd;fill:#666666;} .st43{fill-rule:evenodd;clip-rule:evenodd;fill:#444444;} .st44{fill-rule:evenodd;clip-rule:evenodd;fill:#A3C9E8;} .st45{fill-rule:evenodd;clip-rule:evenodd;fill:#F299A6;} .st46{fill:#D84326;} .st47{fill:none;stroke:#F2D4CF;stroke-width:0.5;} .st48{fill:#FFFFFF;} </style> <title>Group 39</title> <g id="Page-1"> <g id="Artboard-Copy" transform="translate(-710.000000, -3596.000000)"> <g id="Group-39" transform="translate(710.000000, 3596.000000)"> <path id="Combined-Shape" class="st0" d="M366,437c202.14,0,366,18.58,366,41.5c0,9.63-28.9,18.49-77.4,25.53 c47.57,4.21,77.4,10.25,77.4,16.97c0,6.75-30.09,12.82-78.01,17.03C626.25,549.65,549.21,558,458.5,558 C344.45,558,252,544.79,252,528.5c0-2.09,1.53-4.14,4.43-6.11c-0.29-0.46-0.43-0.92-0.43-1.39c0-0.96,0.61-1.91,1.8-2.84 C108.49,512.93,0,497.15,0,478.5C0,455.58,163.86,437,366,437z"></path> <g id="Scene_x2F_Home" transform="translate(119.000000, 37.000000)"> <g id="Background-Shape-2" transform="translate(37.599324, 255.754118)" class="st1"> <path id="Background-Shape" class="st2" d="M602.65,125.39c8.79,56.04-204.35,92.6-387.8,67.09S-52.76,67.34,34.78,14.26 S593.87,69.35,602.65,125.39z"></path> </g> <path id="Leaf-Bottom" class="st2" d="M584.23,357.42c-0.22,1.43-0.53,2.82-0.92,4.16C583.84,360.4,584.12,358.98,584.23,357.42 z M474.68,170.58c-3.3-3.72-5.64,1.65-5.46,4.49c0.21,3.35,1.72,6.39,3.53,9.09c0.19,0.29,0.14,0.27,0.19-0.13 c0.03,0.2,0.09,0.34,0.19,0.45c-0.09,1.76-0.27,3.57-0.19,5.12c0.25,4.46,0.77,8.95,1.53,13.36c0.18,1.07,0.39,2.13,0.63,3.19 c-1.78-1.52-4.19-2.87-5.13-3.29c-2.44-1.1-6.21-2.28-8.64-0.42c-2.01,1.54-2.11,4.26-0.46,6.1c1.96,2.19,5.54,2.11,8.2,1.9 c0.46-0.04,1.7-0.14,2.97-0.3l0.38-0.05c1.89-0.27,3.66-0.7,2.78-1.31c0.12,0.04,0.36,0.15,0.63,0.3 c0.14,0.52,0.29,1.03,0.44,1.54c-0.04,0.02-0.07,0.05-0.11,0.07c0.04-0.02,0.07-0.04,0.11-0.06c1.55,5.12,3.76,10,6.65,14.57 c-1.08-0.43-2.2-0.75-3.34-0.89c-3.36-0.43-10.44,2.19-6.68,6.67c2.39,2.84,5.65,1.79,8.77,0.57l0.48-0.19 c1.43-0.57,2.82-1.13,4.07-1.32c3.97,5.54,8.35,10.86,12.94,15.99c-0.28,0.09-0.53,0.27-0.67,0.56 c-0.37-0.19-0.74-0.39-1.11-0.6l-0.74-0.42c-1.24-0.7-2.47-1.37-3.61-1.61c-2.46-0.52-7.5-0.84-9.36,1.36 c-2.29,2.71,0.16,4.9,2.86,5.42c3.92,0.75,9.04-1.16,12.81-2.45c0.43,0.08,0.9-0.05,1.18-0.39c0.08-0.03,0.17-0.05,0.25-0.08 c4.65,5.11,9.47,10.05,14.27,14.88l0,0l-0.16-0.01c-1.25-0.82-2.59-1.49-4.05-1.85c-3.36-0.82-7.32-0.82-10.05,1.61 c-2.72,2.42-3.68,6.66-0.87,9.39c4.24,4.1,9.99-1.92,13.79-5.38l0.33-0.3c1.1-0.98,2.01-1.7,2.65-1.82 c4.87,4.86,10.03,9.4,15.26,13.85c-0.59-0.18-1.2-0.31-1.83-0.37c-5.13-0.49-17.18,5.8-10.88,11.99 c3.33,3.27,6.98,0.74,10.32-2.57l0.37-0.37c0.06-0.06,0.12-0.12,0.18-0.19l0.37-0.38c1.82-1.9,3.53-3.89,5.02-5.11 c4.93,4.15,9.89,8.26,14.71,12.54c-2.63-0.7-5.17-0.8-7.99,0.05c-2.92,0.88-7.62,3.08-5.78,7.02c1.88,4,7.53,2.18,10.47,0.91 c1.61-0.69,4.82-3.03,7.65-4.02c7.69,7.26,14.35,15.26,19.4,24.68c3.15,5.88,5.54,12.17,7.22,18.63 c1.07,4.12,3.19,11.05,2.77,16.42c2.02-10.74-1.63-23.64-5.56-33.25c-3.61-8.83-9.03-16.58-15.36-23.56 c0.49-1.48,2.12-3.17,3.89-4.92l0.34-0.34c0.29-0.28,0.58-0.57,0.87-0.86l0.34-0.34l0,0l0.34-0.34 c0.06-0.06,0.11-0.12,0.17-0.17l0.33-0.35c3.02-3.17,5.09-6.36,0.69-8.8c-4.25-2.35-8.6,1.55-9.53,5.68 c-0.64,2.84,0.33,6.4,1.37,9.16c-1.99-2.13-4.07-4.19-6.2-6.18c-2.95-2.75-5.97-5.42-9.02-8.06c5.03-4.72,9.79-18.22,3.04-20.43 c-9.95-3.25-5.16,15.17-4.47,18.62c0.2,0.01,0.35-0.05,0.46-0.18c-0.06,0.32-0.12,0.65-0.2,0.99 c-5.84-5.02-11.76-9.94-17.5-15.08c0.52-0.38,1.34-1.84,1.98-2.62c1.46-1.75,2.85-3.58,3.87-5.62c1.61-3.23,3.16-8.39-1.1-10.3 c-4.64-2.07-6.84,3.76-6.87,7.24c-0.02,2.41,0.63,4.69,0.98,7.05c0.11,0.74-0.3,4.05,0.7,2.63c-0.05,0.53-0.05,0.91-0.03,1.18 c-1.03-0.93-2.05-1.87-3.06-2.81c0.05-0.12,0.08-0.25,0.09-0.4c0.05-1.04-0.99-1.44-1.72-1.13c-1.34-1.27-2.66-2.56-3.97-3.87 c-2.76-2.78-5.56-5.65-8.34-8.57c0.6-0.52,0.36-1.24,0.93-1.79c0.56-0.55,1.67-0.85,2.33-1.36c1.67-1.28,3.05-3.15,4.05-4.99 c1.65-3.04,3.78-9.42-1.04-10.86c-4.97-1.5-7.49,4.64-7.8,8.48c-0.06,0.74,0.49,7.44,0.92,9.87 c-5.14-5.43-10.2-11.07-14.79-16.8c1.39-0.01,5.33-2.86,6.13-3.64c1.94-1.89,5.03-6.08,1.63-8.3c-3.03-1.97-6.76,0.88-8.06,3.65 c-0.21,0.46-0.96,4.7-1.02,6.6c-1.9-2.43-3.71-4.88-5.39-7.33c-1.12-1.63-2.17-3.31-3.15-5.02c0.24-0.13,0.46-0.37,0.67-0.66 c5.05-0.86,11.49-8.74,5.56-11.48c-2.83-1.3-5.89,1.39-7.27,3.59c-0.28,0.45-0.74,2.72-1.12,4.51 c-2.82-5.67-4.98-11.66-6.62-17.81c0.44-0.11,0.81-0.45,0.86-1.02c2.45-1.4,4.39-2.56,6.1-5.25c1.06-1.67,2.98-5.49-0.15-6.41 c-4.07-1.21-6.62,5.01-6.96,8.07c-0.04,0.36-0.04,1.39-0.02,2.34c-0.14-0.02-0.28-0.02-0.42,0.01 c-0.93-3.81-1.68-7.67-2.27-11.53C475.77,183.9,476.15,172.24,474.68,170.58z M464.64,180.6c-3.44-1.71-8.03,0.27-6.11,4.78 c2.05,4.83,9.63,4.89,13.91,4.79c-0.43-0.02-1.81-4.45-2.28-5.12C468.76,183.08,466.76,181.65,464.64,180.6z"></path> <path id="Leaf-Top" class="st3" d="M60.53,136.42c0.2,0.95,0.48,1.87,0.85,2.76C60.87,138.4,60.61,137.46,60.53,136.42z M140.67,1.6c2.41-2.69,4.11,1.19,3.98,3.25c-0.15,2.42-1.26,4.62-2.58,6.58c-0.14,0.21-0.1,0.2-0.14-0.09 c-0.02,0.14-0.07,0.25-0.14,0.32c0.07,1.27,0.2,2.58,0.14,3.71c-0.18,3.23-0.57,6.48-1.12,9.66c-0.13,0.78-0.29,1.54-0.46,2.31 c1.3-1.1,3.06-2.08,3.75-2.38c1.78-0.79,4.53-1.65,6.31-0.31c1.47,1.11,1.54,3.08,0.34,4.41c-1.43,1.58-4.04,1.53-5.99,1.37 c-0.88-0.07-5.59-0.44-4.47-1.2c-0.09,0.03-0.27,0.11-0.46,0.22c-0.1,0.37-0.21,0.75-0.33,1.12c0.03,0.02,0.05,0.03,0.08,0.05 c-0.03-0.01-0.05-0.03-0.08-0.04c-1.13,3.71-2.75,7.23-4.86,10.53c0.79-0.31,1.61-0.54,2.44-0.65c2.46-0.31,7.62,1.58,4.87,4.82 c-2.64,3.11-6.74-0.22-9.73-0.68c-2.9,4.01-6.1,7.85-9.45,11.57c0.21,0.06,0.39,0.2,0.49,0.4c1.34-0.68,2.75-1.64,3.99-1.91 c1.8-0.38,5.48-0.61,6.83,0.98c1.67,1.96-0.12,3.55-2.09,3.92c-2.86,0.55-6.6-0.84-9.35-1.77c-0.31,0.06-0.66-0.04-0.86-0.28 c-0.06-0.02-0.12-0.04-0.18-0.06c-3.4,3.7-6.92,7.27-10.42,10.77l0,0l0.11-0.01c0.91-0.59,1.89-1.08,2.96-1.34 c2.46-0.59,5.35-0.6,7.34,1.16c1.99,1.75,2.69,4.82,0.63,6.79c-4.11,3.94-10.17-5.04-12.24-5.41 c-3.56,3.52-7.32,6.8-11.15,10.02c0.43-0.13,0.88-0.23,1.34-0.27c3.75-0.36,12.54,4.19,7.94,8.67c-2.67,2.6-5.62,0.13-8.25-2.58 l-0.34-0.35l0,0l-0.34-0.36c-1.06-1.12-2.06-2.22-2.94-2.94l0,0l-3.61,3c-2.4,2-4.79,4.01-7.14,6.08 c1.92-0.51,3.77-0.58,5.83,0.03c2.13,0.64,5.56,2.23,4.22,5.08c-1.37,2.9-5.5,1.58-7.64,0.66c-1.17-0.5-3.52-2.19-5.58-2.9 c-5.62,5.25-10.49,11.04-14.17,17.86c-2.3,4.26-4.05,8.8-5.28,13.47c-0.79,2.98-2.33,7.99-2.03,11.87 c-1.47-7.77,1.2-17.1,4.07-24.04c2.64-6.39,6.6-11.99,11.23-17.04c-0.4-1.19-1.83-2.57-3.28-3.99l-0.3-0.29 c-2.66-2.61-5.19-5.34-1.5-7.37c3.1-1.7,6.28,1.12,6.96,4.1c0.46,2.05-0.25,4.63-1,6.62c1.46-1.54,2.97-3.03,4.53-4.47 c2.16-1.99,4.36-3.92,6.59-5.83c-3.67-3.41-7.14-13.17-2.22-14.77c7.27-2.35,3.76,10.96,3.25,13.46 c-0.14,0.01-0.26-0.03-0.34-0.13c0.04,0.23,0.09,0.47,0.15,0.72c4.27-3.63,8.59-7.19,12.78-10.91 c-0.38-0.28-0.98-1.33-1.45-1.89c-1.06-1.26-2.08-2.59-2.82-4.07c-1.17-2.34-2.3-6.07,0.81-7.45c3.39-1.5,4.99,2.72,5.01,5.23 c0.02,1.74-0.46,3.39-0.71,5.1c-0.08,0.53,0.22,2.93-0.51,1.9c0.03,0.38,0.04,0.66,0.02,0.85c0.75-0.67,1.5-1.35,2.24-2.03 c-0.03-0.09-0.06-0.18-0.07-0.29c-0.04-0.75,0.72-1.04,1.26-0.82c0.98-0.92,1.95-1.85,2.9-2.8c2.02-2.01,4.06-4.08,6.09-6.2 c-0.44-0.37-0.26-0.89-0.68-1.29c-0.41-0.4-1.22-0.62-1.7-0.98c-1.22-0.93-2.22-2.28-2.95-3.61c-1.2-2.2-2.76-6.81,0.76-7.86 c3.63-1.08,5.46,3.35,5.7,6.13c0.05,0.54-0.36,5.38-0.68,7.14c3.76-3.93,7.45-8.01,10.8-12.16c-1.01-0.01-3.89-2.07-4.47-2.63 c-1.42-1.37-3.67-4.4-1.18-6c2.21-1.42,4.94,0.63,5.88,2.63c0.06,0.12,0.17,0.62,0.29,1.27l0.07,0.4 c0.18,1.05,0.36,2.33,0.38,3.1c1.39-1.76,2.71-3.53,3.94-5.3c0.82-1.18,1.59-2.39,2.3-3.63c-0.17-0.1-0.33-0.27-0.49-0.48 c-3.69-0.62-8.39-6.32-4.06-8.3c2.06-0.94,4.3,1,5.31,2.59c0.21,0.33,0.54,1.97,0.81,3.26c2.06-4.1,3.64-8.44,4.84-12.88 c-0.32-0.08-0.59-0.32-0.63-0.74c-1.79-1.01-3.2-1.85-4.45-3.8c-0.78-1.21-2.17-3.97,0.11-4.64c2.97-0.87,4.83,3.62,5.08,5.83 c0.03,0.26,0.03,1,0.02,1.69c0.1-0.01,0.21-0.01,0.31,0.01c0.68-2.75,1.23-5.54,1.66-8.34C139.87,11.23,139.59,2.8,140.67,1.6z M147.55,8.61c2.46-1.22,5.73,0.19,4.37,3.42c-1.46,3.45-6.88,3.49-9.93,3.42c0.31-0.02,1.29-3.18,1.63-3.66 C144.61,10.38,146.04,9.36,147.55,8.61z"></path> <g id="Plant-Right" transform="translate(512.100000, 205.000000)" class="st4"> <path id="Leaf-Me-Alone_x21_" class="st5" d="M19.48,81.04c9.56-0.5,21.38,5.08,22.4,15.47c0.74,7.55,0.51,15.07,1.66,22.61 c0.92,6.02,2.85,11.81,5.5,17.29c2.54,5.28,7.82,9.77,9.19,15.4c0.87,3.59,0.38,8.64-0.82,12.16 c-1.47,4.27-0.69,3.93,2.23,7.52c5.72,7.02,10.88,14.23,14.52,22.61c5.25,12.08,8.69,26.2,6.74,39.43 c-0.25,1.68-0.54,7.71-2.85,8.13c-2.58,0.47-1.38-2.98-1.24-4.09c0.88-7.1,1.66-13.31,0.6-20.53 c-4.09-27.84-24.06-46.18-37.07-69.81c-0.71-1.22-2.22-4.12-3.27-6.03c-1.66-3.02-3.32-8.77-5.56-11.01 c-4.22-4.22-0.34,4.27,0.48,5.89c1.04,2.05,2.19,4.23,3.25,6.02c4.88,8.32,10.32,17.41,15.36,25.99 c-21.79,4.97-37.14-21.23-42.99-38.46C2.79,115.43-2.98,82.25,19.48,81.04"></path> <path id="Leaf-Me-Alone_x21__1_" class="st6" d="M147.56,54.68c-15.98,1.27-26.23,11.81-31.01,26.55 c-2.57,7.95-2.87,16.11-4.3,24.27c-2.15,12.29-6.78,21.6-15.82,30.35c-2.8,2.71-4.87,5.49-6.33,8.47 c-2.91,2.97-5.45,6.34-7.31,10.45c-2.38,5.25-3.05,11.56-0.31,16.79c0.74,1.41,2.58,4.23,4.49,5.52 c-7.15,15.23-11.08,31.91-10.64,48.58c0.27,10.06,0.76,20.12,1.33,30.16c0.15,2.7,1.03,7.15,2.35,2.63 c1.21-4.14-0.31-10.63-0.45-14.96c-0.68-21.06-1.26-40.2,7.4-59.87c0.91-2.06,1.87-4.11,2.88-6.14 c0.06-0.03,0.11-0.08,0.17-0.12c0.04,0.03,0.07,0.06,0.11,0.09c0.06-0.11,0.15-0.25,0.25-0.4c0.29-0.3,0.54-0.67,0.78-1.09 c0.77-1.07,1.64-2.32,1.64-3c0-0.01,0-0.01,0-0.02c5.37-8.76,11.51-17.04,17.79-25.15c-0.05,0.06,6.81-9.28,5.75-4.11 c-0.51,2.49-5.55,7.23-7.59,9.86c-4.51,5.86-9.8,13.29-14.19,20.47c-0.59,0.34-1.43,2.01-2.03,3.25 c-0.33,0.63-0.65,1.27-0.95,1.82c15.58,5.15,27.7-5.22,35.96-17.28c0.01-0.01,0.02-0.03,0.03-0.04 c2.51-3.33,5.09-6.64,8.31-9.28c5.37-4.4,11.12-5.17,17.45-7.33c17.26-5.9,24.6-28.27,26.94-44.88 C182.89,81.56,170.03,52.84,147.56,54.68"></path> <path id="Leaf-Me-Alone_x21__2_" class="st6" d="M116.01,2.23C99.61,19.3,91.69,42.97,85.42,65.22 c-7.01,24.85-11.63,50.09-11.81,75.93c-0.12,16.98-0.58,34.06,0.41,51.02c0.35,6.02,0.95,12.06,1.91,18.01 c0.08,0.49,2.21,13.79,4.26,10.69c1.16-1.76-2.19-13.8-2.44-15.8c-1.42-11.29-1.76-22.67-1.69-34.04 c0.11-18.73-0.44-37.35,1.46-56.01c0.28-2.79,0.51-5.71,1.17-8.44c0.7-2.9-0.19-1.63,2.1-2.78c2.22-1.12,4.97-0.96,7.28-2.35 c9.15-5.55,13.83-19.8,17.48-29.15c4.17-10.69,6.7-22.1,8.72-33.35c1.49-8.27,2.55-16.49,3.15-24.86c0.19-2.64,0.2-5.4,0.72-8 c0.14-0.7,0.84-1.94,0.82-2.56c-0.05-1.31-0.85-2.08-0.91-3.19C117.34,0.95,116.67,1.59,116.01,2.23"></path> <path id="Base" class="st6" d="M26.6,229.6c0,28.22,22.88,51.1,51.1,51.1s51.1-22.88,51.1-51.1"></path> <path id="Leaf-Me-Alone_x21__3_" class="st5" d="M112.72,184.86c12.65-0.93,26.77,9.27,32.87,19.89 c4.92,8.56,4.09,19.8,1.05,28.9c-2.03,6.09-6.47,14.77-13.88,14.85c-7.1,0.08-9.02-6.63-9.61-12.78l-0.05-0.53 c-0.14-1.68-0.19-3.31-0.23-4.72c-0.24-8.9-1.36-16.65-8.37-22.71c-1.63-1.41-3.42-2.66-5.07-4.05 c-2.58-2.18-5.44-4.41-5.77-8.02c-0.46-4.98,2.35-5.87,6.64-4.95c0.73,0.16,8.1,3.46,7.01,0.85c-0.33-0.8-1.55-1.43-3.08-1.9 c-0.58-0.06-1.18-0.13-1.79-0.19l-0.73-0.08c-3.27-0.34-6.48-0.6-7.56-0.37c-14.7,3.22-20.42,23.58-21.94,36.52 c-0.16,1.4-0.3,2.8-0.41,4.2l-2.7,0c0.19-3.39,0.43-6.77,1-10.12c2.17-12.81,8.94-31.63,23.79-33.71 c0.23-0.03,0.71-0.05,1.37-0.06l0.42,0c0.88,0,1.99,0.04,3.21,0.11C110.06,185.34,111.35,184.95,112.72,184.86z"></path> </g> <g id="Plant-Left" transform="translate(0.400000, 114.700000)" class="st7"> <path id="Leaf" class="st5" d="M124.76,78.01c2.94-4.19,8.4-14.85,12.54-16.35c2.67-0.97,1.89,9.02,1.92,10.92 c0.13,7.37-0.59,14.69-1.47,21.99c-1.6,13.17-6.81,24.91-13.97,36.12c-3.68,5.77-8,11.61-13.98,15.21 c-2.75,1.66-6.07,1.94-8.79,3.36c-3.17,1.66-1.44,0.32-2.87,3.62c-1.98,4.58-2.62,10.49-3.53,15.38 c-4.21,22.44-14.41,141.09-12.64,163.92c0.16,2.02-2.66,2.51-2.81,0.04c-0.75-13.1,5.73-103.8,9-133.47 c3.27-29.66,6.58-55.87,9.89-66.13c4.02-12.45,11.29-27.42,17.34-39.03C118.2,88.2,121.26,83,124.76,78.01z"></path> <path id="Leaf_1_" class="st8" d="M146.59,223.49c7.65-5.62,15.94,4.99,9.01,10.61c-3.83,3.11-7.83,2-10.09-0.59 c-1.46,1.78-2.83,3.65-4.15,5.22c-4.01,4.8-7.8,9.71-11.42,14.74c-7.52,10.45-13.97,21.48-20.71,32.32 c-6.65,10.69-13.25,21.44-19.28,32.4c-5.11,9.29-11.91,20.22-13.66,30.4c2.65-21.6,12.72-42.36,24.71-61.4 c11.89-18.88,25.54-39.51,43.95-54.41C143.08,230.04,143.03,226.11,146.59,223.49z"></path> <path id="Leaf_2_" class="st5" d="M1.34,170.82c4.28,0.84,11.28,10.53,14.81,14.22c4.2,4.39,8,9.06,11.59,13.96 c7.73,10.55,14.63,21.76,20.51,33.45c9.58,19.06,17.25,38.63,22.82,59.39c3.41,12.71,5.62,25.88,6.92,38.95 c0.25,2.47,2.83,21.48-0.89,21.99c-3.35,0.46-2.32-14.44-2.48-16.47c-1.83-22.87-7.3-45.11-14.92-66.67 c-1.66-4.69-3.2-10.45-5.85-14.67c-1.91-3.04-0.01-1.98-3.37-3.13c-2.88-0.99-6.17-0.75-9.12-1.96 c-6.41-2.63-11.55-7.73-16.05-12.87c-8.75-9.98-15.68-20.78-19.29-33.56c-2-7.09-3.85-14.22-4.87-21.53 C0.9,180.04-1.42,170.28,1.34,170.82z"></path> <path id="Leaf_3_" class="st6" d="M18.24,9.6C34.38,37.58,47.64,68.32,56.2,99.45c5.19,18.86,8.81,38.22,12.42,57.44 c5.58,29.75,10.86,59.51,12.36,89.79c1.51,30.46,4.5,65.59-5.48,94.92c4.98-29.78,0.24-61.49-0.6-91.46 c-0.4-14.31-1.56-28.47-3.09-42.7c-1.48-13.8-3.9-27.53-6.15-41.22c-1.1-6.67-2.25-13.32-3.42-19.98 c-0.35-1.98-0.5-7.87-1.76-9.23c-1.27-1.36-7.73-1.92-9.76-2.92c-4.09-2.02-7.93-4.88-11.34-7.91 c-6.52-5.8-12.2-13.39-16.68-20.86C12.34,88.03,8.2,66.93,8.41,46.9c0.04-3.89,6.29-45.77,3.78-46.35 c0.15-0.18,0.29-0.36,0.43-0.55C14.52,3.18,16.39,6.39,18.24,9.6z"></path> <path id="Leaf_4_" class="st6" d="M192.39,110.52c0.25-0.36,1.87-2.86,1.05-2.7c1.66-0.32-2.28,2.75,1.85,0.86 c-1.97,1.86-0.83,4.27-0.8,6.77c0.04,4.06-0.64,8.08-1.4,12.05c-1.21,6.27-3.01,12.37-5.62,18.21 c-5.69,12.72-15.35,24.96-26.82,32.91c-5.66,3.93-11.21,5.26-17.67,7.07c-4.08,1.14-4.4,3.25-6.57,7.21 c-4.51,8.24-8.93,16.46-12.91,24.98c-4.75,10.18-9.35,20.36-13.7,30.72C95.18,283.47,83.26,319.6,77,357 c-0.15-22.04,4.94-44.73,11.38-65.74c4.68-15.3,10.78-30.06,17.29-44.66c1.58-3.54,3.96-8.09,4.63-11.99 c0.47-2.74-0.96-5.37-1.62-8.25c-2.56-11.23-2.37-23.8-0.13-35.09c2.48-12.45,9.64-18.22,21.75-19.98 c4.43-0.64,10.06-0.41,14.12-2.3c4.43-2.06,6.25-8.82,8.77-13.16c6.76-11.66,14.79-22.84,24.01-32.67 c2.55-2.72,5.3-5.23,8.21-7.56C187.26,114.14,191.14,112.33,192.39,110.52z"></path> <path id="Base_1_" class="st8" d="M56.55,333.2h42.99c1.93,0,3.5,1.57,3.5,3.5c0,0.17-0.01,0.34-0.04,0.51l-3.32,22.53 c-1.01,6.87-6.91,11.96-13.85,11.96H70.26c-6.94,0-12.84-5.09-13.85-11.96l-3.32-22.53c-0.28-1.91,1.04-3.69,2.95-3.97 C56.21,333.21,56.38,333.2,56.55,333.2z"></path> </g> <g id="Maceta" transform="translate(7.400000, 425.500000)"> <path id="Base_2_" class="st2" d="M10.79,33.92c0,14.9,1.18,26.98,16.96,26.98s16.96-12.08,16.96-26.98"></path> <path id="Fill-27" class="st2" d="M32.45,24.62c-0.58,1-1.09,2.02-1.55,3.06c-0.02-2.13,0.1-4.28,0.42-6.46 c0.55-3.73,1.39-7.44,2.18-11.15c0.57-2.66,0.53-7.45,2.69-9.57c0.59-0.46,0.73,0.44,0.73,0.83c0.01,0.08,0-1.59-0.58-1.3 c-3.41,1.76-4.51,7.3-5.61,10.07c-1.59,4.05-2.95,8.18-3.51,12.39c-0.14,1.06-0.22,2.13-0.24,3.19 c-0.12-0.28-0.22-0.57-0.35-0.85c-1.97-4.62-4.62-9.12-7.94-13.27C17.9,10.54,7.65,0.45,6.85,2c0.08,0.22,0.24,0.41,0.5,0.56 c0.01,0.02,0.02,0.01,0.01-0.02c0.6,0.97,2.31,2.47,2.85,3.33c1.34,2.14,2.38,4.42,3.44,6.65c2.24,4.72,4.32,9.48,6.33,14.26 c0.47,1.11,0.96,2.22,1.46,3.32C16.29,22.68,9.44,15.95,0,12.1c3.22,1.64,5.34,4.73,7.51,7.09c2.63,2.85,5.39,5.62,8.02,8.47 c3.1,3.36,6.75,6.89,9.74,10.61c2.89,6.07,5.7,12.14,7.43,18.52c-0.71-2.2-0.06-5.25-0.18-7.56c-0.1-1.84-0.31-3.67-0.61-5.49 c0.36,0.82,0.68,1.64,0.82,2.41c-0.13-1.28-0.28-2.56-0.44-3.83c0.41-1.19,0.82-2.3,1.09-3.21c1.4-4.68,3.07-9.29,5.35-13.77 c2.11-4.15,4.52-8.25,7.15-12.22c1.23-1.85,2.47-3.7,3.71-5.55c0.81-1.21,1.58-3.15,2.71-4.31 C45.03,9.92,37.07,16.63,32.45,24.62"></path> </g> </g> <g id="Group-35" transform="translate(117.000000, 0.000000)"> <g id="Group-3"> <g id="Group-2" transform="translate(101.545859, 0.536000)"> <path id="Rectangle" class="st9" d="M24.85,0.3h179.84c13.47,0,24.39,10.92,24.39,24.39v2.44l0,0H0.46v-2.44 C0.46,11.22,11.38,0.3,24.85,0.3z"></path> <g id="Group" transform="translate(50.452349, 0.000000)"> <path id="Rectangle_1_" class="st10" d="M0,0h128.77v2.56c0,9.09-7.37,16.46-16.46,16.46H16.46C7.37,19.02,0,11.65,0,2.56V0 L0,0z"></path> <g id="Group-8" transform="translate(46.332518, 7.620480)"> <path id="Rectangle_2_" class="st9" d="M1.83,0H25.3c1.01,0,1.83,0.82,1.83,1.83l0,0c0,1.01-0.82,1.83-1.83,1.83H1.83 C0.82,3.66,0,2.84,0,1.83l0,0C0,0.82,0.82,0,1.83,0z"></path> <circle id="Oval" class="st9" cx="34.67" cy="1.83" r="1.83"></circle> </g> </g> <g id="Background" transform="translate(0.462000, 26.519270)"> <g> <polygon id="path-1" class="st9" points="0,0 228.61,0 228.61,26.82 0,26.82 "></polygon> </g> <g> <polygon id="path-1_1_" class="st9" points="0,0 228.61,0 228.61,26.82 0,26.82 "></polygon> </g> </g> <path id="Rectangle_3_" class="st9" d="M204.69,463.63H24.85c-13.47,0-24.39-10.92-24.39-24.39v-2.44l0,0h228.61v2.44 C229.08,452.71,218.16,463.63,204.69,463.63z"></path> <g id="Background_1_" transform="translate(114.576400, 423.915526) rotate(-180.000000) translate(-114.576400, -423.915526) translate(0.076400, 410.415526)"> <polygon class="st9" points="0,0 228.61,0 228.61,26.82 0,26.82 "></polygon> </g> <rect id="Rectangle_4_" x="3.13" y="56.01" class="st11" width="223.28" height="351.91"></rect> </g> <g id="Artboard-20" transform="translate(17.000000, 7.000000)"> <path id="Path" class="st12" d="M60.14,30.04c-0.77,2.3-0.9,5.44-2.26,7.48c-2.99,4.48-8.8,5.25-13.52,6.86 c-0.31,0.06-0.62,0.16-0.9,0.29l-1.67,0.53c-1.61,0.51-3.21,1.02-4.8,1.54c-2.21,0.72-5.26,1.16-6.85,2.98 c-0.92,1.05-1.77,2.15-2.56,3.31c-0.15,0.23-0.34,0.48-0.61,0.5c-0.17,0-0.32-0.23-0.46-0.32c-2.84-1.53-4.93-3.63-6.68-6.29 c-5.28-8.16-7.44-17.95-6.08-27.57c0.02-0.14,0.04-0.28,0.06-0.42c0.54-3.11,1.96-6.01,4.09-8.34c2.16-2.34,4.7-4.3,7.52-5.78 c1.68-0.89,3.41-1.67,5.18-2.35C34.43,0.93,38.51,0.1,42.64,0c3.92,0,7.81,0.77,11.44,2.26c5,2,8.87,5.73,9.2,11.39 C63.6,19.22,61.91,24.77,60.14,30.04z"></path> <circle id="Oval_1_" class="st13" cx="21.07" cy="38.68" r="5.44"></circle> <circle id="Oval_2_" class="st14" cx="22.94" cy="38.36" r="5.12"></circle> <path id="Path_1_" class="st13" d="M72.77,78.08C51.38,94.55,21.54,94.42,0.3,77.76l15.57-7.3c0.74-0.35,1.45-0.76,2.13-1.22 l0.36-0.25l0.25-0.19c1.69-1.3,3.09-2.94,4.09-4.83c1.28-2.42,1.7-5.08,1.72-7.8c0-0.92-0.02-1.84-0.05-2.76 c-0.03-0.92-0.06-1.82-0.07-2.74c-0.01-1.02-0.02-2.03-0.03-3.04l0.59,0.3l0.04,0.02l1.66,0.86l0.77,0.13l8.92,1.52l3.54,0.6 l6.42,1.1l0.3,10.24l0.12,4.26l0.02,0.72v0.11l3.87,1.57l0.24,0.1L72.77,78.08z"></path> <path id="Path_2_" class="st15" d="M24.36,51.42l10.52,9.86c3.24,2.85,7.46,4.32,11.77,4.09l-0.12-4.26l-0.3-10.24l-6.42-1.09 c-0.88,0.4-1.75,0.79-2.63,1.14c-2.62,1.03-5.59,0.64-8.13-0.44c-1.9-0.84-3.54-2.16-4.76-3.84L24.36,51.42z"></path> <path id="Path_3_" class="st16" d="M72.77,78.08C51.38,94.55,21.54,94.42,0.3,77.76l15.57-7.3c0.74-0.35,1.45-0.76,2.13-1.22 l0.36-0.25c7.8,5.32,18.18,8.53,27.2,4.48c2.12-0.91,3.93-2.41,5.22-4.32L72.77,78.08z"></path> <path id="Path_4_" class="st13" d="M59.35,41.38c-0.13,2.34-0.51,4.65-1.12,6.91c-1.38,5.41-3.66,10.77-4.8,12.77 c-0.85,1.49-2.04,1.78-3.92,2.24c-4.71,1.08-9.66,0.03-13.53-2.86l-11.65-8.6c-0.16-1.6-0.44-3.28-0.75-4.99 c-0.89-4.97-2.04-10.24-1.54-14.89c0.16-1.32,0.8-2.54,1.8-3.42c2.68-2.54,7.68-3.69,10.8-4.48c4.68-1.2,9.48-1.92,14.1-3.34 c3.4-1.06,7.06-2.66,9.09-5.72c0,0,0.35,3.46,0.43,4.25c0.17,1.63,0.17,3.04,0.34,4.65c0.17,1.76,0.07,3.54-0.32,5.26 c-0.27,1.19-0.58,2.38-0.8,3.59c-0.21,1.15,0.09,1.17,0.68,1.99C59.37,36.4,59.42,39.4,59.35,41.38z"></path> <path id="Path_5_" class="st12" d="M37.94,32.32c1.95,0,1.95,3,0,3.02h-0.09c-1.95,0-1.95-3,0-3.02H37.94z"></path> <path id="Path_6_" class="st12" d="M53.98,31.87c1.81,0.02,1.81,2.78,0,2.8H53.9c-1.81,0-1.81-2.78,0-2.8H53.98z"></path> <path id="Path_7_" class="st17" d="M48.13,33.6c-0.02,0.06,1.53,2.74,2.34,5.63c0.37,1.54,0.55,3.13,0.52,4.72h-4.32"></path> <path id="Path_8_" class="st12" d="M58.24,48.29c-1.38,5.41-3.66,10.77-4.8,12.77c-0.85,1.49-2.04,1.78-3.92,2.24 c-4.71,1.08-9.66,0.03-13.53-2.86l-11.67-8.6c-0.19-1.88-0.88-3.69-1.28-5.55c-0.17-0.84-0.32-1.72-0.12-2.56 c0.06,0.44,0.25,0.86,0.55,1.19c1.51,2.05,3.28,4.37,5.79,5.22c2.62,0.88,5.61,1.02,8.14-0.22c2.2-1.08,4.36-2.49,6.67-3.38 c1.53-0.63,3.18-0.92,4.84-0.84c2.35,0.16,3.35,1.22,5.07,2.62c0.56,0.46,1.19,0.94,1.92,0.94 C56.73,49.28,57.53,48.82,58.24,48.29z"></path> <path id="Path_9_" class="st18" d="M43.32,50.02c2.2,0.68,4.58,0.55,6.68-0.39"></path> <path id="Path_10_" class="st17" d="M33.12,29.76c2.96-0.61,6.01-0.7,9-0.26"></path> <path id="Path_11_" class="st17" d="M52.01,29.8c1.83-0.42,3.72-0.55,5.59-0.39"></path> <path id="Path_12_" class="st17" d="M43.04,42.35c-0.48,0.24-0.71,0.8-0.54,1.31s0.68,0.82,1.21,0.73"></path> <polygon id="Path_13_" class="st12" points="23.25,46.86 23.57,46.84 23.79,47.09 24.47,51.51 24.32,51.57 24.09,51.25 "></polygon> </g> <g id="Group-13" transform="translate(0.379869, 78.000000)"> <g id="Group-10"> <path id="Path-70" class="st19" d="M56.81,160.77h44.54c1.83,20.43,1.83,38.71,0,54.83c-1.83,16.13-3.76,29.25-5.82,39.37 c7.02,20.12,8.96,36.48,5.82,49.09c-3.14,12.6-7.05,39.92-11.72,81.95H74.46L61.78,267.08l-0.3-16.74L46.1,179.16 L56.81,160.77z"></path> <path id="Path-69" class="st19" d="M12.64,155.76C2.86,219.85-1.24,256.01,0.32,264.26c2.94,15.49,35.01,40.69,96.2,75.58 l12.99,9.07c5.89-5.69,8.77-8.71,8.65-9.07c-11.23-33.39-60.88-67.89-70.92-79.85c8.16-30.02,11.08-40.23,14.52-56.83 c2.02-9.79,20.12-46.21,6.11-55.07C53.44,142.16,35.03,144.71,12.64,155.76z"></path> <g id="Group-38" transform="translate(0.323990, 0.000000)"> <path id="Path-71" class="st20" d="M28.19,2.32c2.76,0.9,5.24,1.4,7.36,2.27c19.04,7.81,24.49,4.05,31.91,0 c2.14-1.17,1.51-1.75,4.76-2.27c14.44-2.33,23.17,0.63,26.2,8.9c8.28,20.21,13.77,41.03,16.48,62.47 c2.31,18.29-12.95,79.22-15.35,96.76c-1.42,10.37-4,17.73-9.08,1.36c-0.76-2.46-2.22-10.3-4.38-23.5l2.69-36.19L86.1,87.87 V71.05v29.28l2.69,60.38c-46.36,0.17-72.69-0.82-78.98-2.97c1.67-13.23,2.5-32.37,2.5-57.41C4.1,101.09,0,98.54,0,92.68 C0,90,2.1,49.33,7.47,29.06C13.6,5.93,23.35,3,28.19,2.32z"></path> <polygon id="Path-73" class="st10" points="34.51,75.01 37.91,91.19 76.51,91.19 73.44,66.93 71.28,36.72 30.08,40.27 "></polygon> <polygon id="Path-73-Copy" class="st21" points="29.07,78.63 32.46,94.82 71.07,94.82 67.99,70.56 65.84,40.35 24.64,43.9 "></polygon> <path id="Path-72" class="st22" d="M27.89,65.47c-8.6,9.07-9.68,15.84-3.25,20.33c0.49,0.34,2.74,1.91,3.25,2.14 c4.15,1.87,13.39-4.26,27.7-18.42c6.83,1.32,10.25,1.32,10.25,0c0-1.32,2.19-1.32,6.56,0c2.94-10.43,2.94-15.65,0-15.65 s-5.12,0-6.56,0v-4.66v-3.51l-10.25,8.17l-9.16,6.54L27.89,65.47z"></path> <path id="Path-75" class="st23" d="M27.09,63.96h-2.45l-5.22,6.68l-2.35,7.03v2.91c0.29,3.24,1.08,5.14,2.35,5.69 c1.27,0.55,3.01,1.76,5.22,3.65l5.44,1.27l1.56-2.92l-4.55-0.97l-3.07-2.95l-2.64-3.22l-0.86-3.46l0.86-4.44l2.64-3.07 l2.31-3.18l1.57-1.52L27.09,63.96z"></path> <path id="Path-76" class="st22" d="M90.6,170.44l-8.22,14.15c1.35,1.65,2.56,2.48,3.63,2.48c1.08,0,2.61-0.83,4.59-2.48 v16.77l3.98,4.79l8.62-4.79l-3.64-30.93H90.6z"></path> <g id="Path-80"> <polyline id="path-3_1_" class="st23" points="28.29,2.32 26.42,2.32 28.29,5.68 35.94,6.93 43.83,10.33 50.14,10.33 56.19,11.7 61.37,10.33 64.59,10.33 67.36,8.05 69.72,7.01 72.44,5.68 75.24,2.32 71.07,2.32 66.47,4.96 61.37,7.01 54.56,8.05 48.75,8.05 41.07,5.68 34,4.3 31.94,2.32 30.29,0.98 "></polyline> </g> </g> </g> <path id="Path-74" class="st9" d="M116.64,352.5l-1.59,35.95c5.51,6.51,9.65,8.9,12.42,7.17c4.27-2.65,7.17-9.42,8.69-20.31 l1.1-35.4l-16.68-6.06l-7.89-8.71l-14.49,16.66L116.64,352.5z"></path> <path id="Path-74_1_" class="st9" d="M74.24,369.53C59.8,392.54,53.82,405.1,56.32,407.2c3.84,3.24,11.1,3.24,21.77,0 l14.49-21.94l0.61-17.74l0-20H71.48L74.24,369.53z"></path> </g> <circle id="Oval_3_" class="st24" cx="216.92" cy="132.08" r="33.26"></circle> <path id="Rectangle_5_" class="st24" d="M132.25,189.54h166.32c4.18,0,7.56,3.38,7.56,7.56v1.51c0,4.18-3.38,7.56-7.56,7.56 H132.25c-4.18,0-7.56-3.38-7.56-7.56v-1.51C124.69,192.92,128.07,189.54,132.25,189.54z"></path> <path id="Rectangle-Copy" class="st24" d="M132.25,216.75h166.32c4.18,0,7.56,3.38,7.56,7.56v1.51c0,4.18-3.38,7.56-7.56,7.56 H132.25c-4.18,0-7.56-3.38-7.56-7.56v-1.51C124.69,220.14,128.07,216.75,132.25,216.75z"></path> <path id="Rectangle-Copy-2" class="st24" d="M132.25,243.97h166.32c4.18,0,7.56,3.38,7.56,7.56v1.51 c0,4.18-3.38,7.56-7.56,7.56H132.25c-4.18,0-7.56-3.38-7.56-7.56v-1.51C124.69,247.35,128.07,243.97,132.25,243.97z"></path> <path id="Rectangle-Copy-3" class="st24" d="M132.25,271.18h166.32c4.18,0,7.56,3.38,7.56,7.56v1.51 c0,4.18-3.38,7.56-7.56,7.56H132.25c-4.18,0-7.56-3.38-7.56-7.56v-1.51C124.69,274.57,128.07,271.18,132.25,271.18z"></path> <path id="Rectangle-Copy-4" class="st24" d="M132.25,307.47h166.32c4.18,0,7.56,3.38,7.56,7.56v39.31 c0,4.18-3.38,7.56-7.56,7.56H132.25c-4.18,0-7.56-3.38-7.56-7.56v-39.31C124.69,310.86,128.07,307.47,132.25,307.47z"></path> <g id="Group-9" transform="translate(254.719859, 331.664000)"> <path id="Rectangle_6_" class="st25" d="M91.82,146.23l181.62,3.19c2.66,10.22,4,18.26,4,24.14s-1.33,13.84-4,23.89H91.82 c2.85-11.38,4.27-19.91,4.27-25.61S94.67,157.61,91.82,146.23z"></path> <path id="Rectangle-Copy-15" class="st26" d="M121.32,146.73l12.55,0.26c2.66,6.35,4,14.78,4,25.31s-1.33,18.9-4,25.1 l-12.24,0.04c2.85-11.17,4.27-19.55,4.27-25.15C125.9,166.71,124.37,158.19,121.32,146.73z"></path> <path id="Rectangle-Copy-16" class="st26" d="M181.64,148.31l12.24,0.22c2,3.87,3.33,11.95,4,24.24 c-0.6,12.4-1.93,20.63-4,24.68h-12.24c2.85-10.96,4.27-19.19,4.27-24.68C185.91,167.28,184.48,159.13,181.64,148.31z"></path> <path id="Rectangle-Copy-17" class="st26" d="M197.7,148.49l12.29,0.3c2.48,5.66,3.72,13.66,3.72,23.99 c0,10.33-1.33,18.55-4,24.64l-12.24,0.04c3.17-9.6,4.66-17.62,4.47-24.06S200.33,158.65,197.7,148.49z"></path> <line id="Line-4" class="st27" x1="96.25" y1="183.23" x2="44.79" y2="181.16"></line> <line id="Line-4-Copy" class="st27" x1="96.25" y1="179.5" x2="44.79" y2="177.43"></line> <line id="Line-4-Copy-7" class="st28" x1="96.25" y1="175.78" x2="44.79" y2="173.7"></line> <line id="Line-4-Copy-2" class="st27" x1="96.25" y1="173.92" x2="44.79" y2="171.84"></line> <line id="Line-4-Copy-8" class="st28" x1="96.25" y1="170.19" x2="44.79" y2="168.12"></line> <line id="Line-4-Copy-3" class="st27" x1="96.25" y1="168.33" x2="44.79" y2="166.25"></line> <line id="Line-4-Copy-9" class="st28" x1="96.25" y1="164.6" x2="44.79" y2="162.53"></line> <line id="Line-4-Copy-4" class="st27" x1="96.26" y1="160.43" x2="44.77" y2="159.25"></line> <line id="Line-4-Copy-10" class="st28" x1="96.26" y1="156.7" x2="44.77" y2="155.53"></line> <line id="Line-4-Copy-5" class="st27" x1="96.25" y1="190.68" x2="44.79" y2="188.61"></line> <line id="Line-4-Copy-11" class="st28" x1="96.25" y1="186.96" x2="44.79" y2="184.88"></line> <path id="Rectangle_7_" class="st29" d="M44.39,147.57l49.24-2.57c0.55-0.02,0.99,1.25,0.99,2.83s-0.45,2.87-0.99,2.87 l-49.24,0.18c-0.55,0-0.99-0.72-0.99-1.63S43.84,147.6,44.39,147.57z"></path> <path id="Rectangle-Copy-14" class="st26" d="M44.39,191.11l49.24,2.58c0.55,0.02,0.99,0.87,0.99,1.9 c0,1.03-0.45,1.84-0.99,1.82l-49.24-3.02c-0.55-0.04-0.99-0.81-0.99-1.71S43.84,191.08,44.39,191.11z"></path> <path id="Rectangle_8_" class="st26" d="M91.82,146.23l4.79,0.04c2.66,6.32,4,14.84,4,25.57c0,10.72-1.33,19.25-4,25.57 l-4.79,0.04c2.85-11.38,4.27-19.91,4.27-25.61S94.67,157.61,91.82,146.23z"></path> <g id="Group-22" transform="translate(0.000000, 0.737853)"> <g id="Group-20"> <rect id="Rectangle_9_" x="165.4" y="2.99" class="st10" width="89.41" height="34.46"></rect> <path id="Rectangle-Copy-13" class="st30" d="M175.18,37.45h84.76c0.77,0,1.4,0.63,1.4,1.4l0,0c0,0.77-0.63,1.4-1.4,1.4 h-84.76c-0.77,0-1.4-0.63-1.4-1.4l0,0C173.79,38.07,174.41,37.45,175.18,37.45z"></path> <line id="Line-3" class="st31" x1="166.8" y1="25.81" x2="255.28" y2="25.81"></line> <line id="Line-3-Copy-2" class="st31" x1="166.8" y1="13.7" x2="255.28" y2="13.7"></line> <line id="Line-3-Copy-6" class="st32" x1="166.8" y1="23.94" x2="255.28" y2="23.94"></line> <line id="Line-3-Copy-3" class="st31" x1="166.8" y1="18.36" x2="255.28" y2="18.36"></line> <line id="Line-3-Copy-7" class="st32" x1="166.8" y1="28.6" x2="255.28" y2="28.6"></line> <line id="Line-3-Copy-4" class="st31" x1="166.8" y1="33.26" x2="255.28" y2="33.26"></line> <line id="Line-3-Copy-5" class="st31" x1="166.8" y1="9.97" x2="255.28" y2="9.97"></line> <line id="Line-3-Copy-8" class="st32" x1="166.8" y1="20.22" x2="255.28" y2="20.22"></line> <path id="Path-2" class="st33" d="M176.4,0c-7.32,12.33-9.1,24.42,0,40.05c-16.94,0-72.94,0-167.99,0 C-2.8,26.7-2.8,13.35,8.41,0C37.99,0,123.04,0,176.4,0z"></path> <path id="Path-2_1_" class="st34" d="M104.14,0c-10.59,15.63-6.85,29.23,0,40.05c-4.75,0-21.86,0-51.31,0 c-7.38-13.35-7.38-26.7,0-40.05C61.13,0,89.17,0,104.14,0z"></path> <path id="Path-2-Copy-4" class="st34" d="M176.79,0c-10.59,15.63-6.85,29.23,0,40.05c-4.75,0-6.33,0-4.75,0 c-7.38-13.35-7.38-26.7,0-40.05C180.35,0,161.82,0,176.79,0z"></path> </g> <path id="Rectangle_10_" class="st30" d="M175.18,0.19h84.76c0.77,0,1.4,0.63,1.4,1.4v0c0,0.77-0.63,1.4-1.4,1.4h-84.76 c-0.77,0-1.4-0.63-1.4-1.4v0C173.79,0.82,174.41,0.19,175.18,0.19z"></path> </g> <g id="Group-22-Copy" transform="translate(13.039488, 102.259581)"> <g id="Group-20_1_" transform="translate(0.547091, 0.193539)"> <rect id="Rectangle_11_" x="173.35" y="3.4" class="st10" width="78.58" height="39.16"></rect> <path id="Rectangle-Copy-13_1_" class="st20" d="M182.12,42.56h74.14c0.77,0,1.4,0.63,1.4,1.4v0.38c0,0.77-0.63,1.4-1.4,1.4 h-74.14c-0.77,0-1.4-0.63-1.4-1.4v-0.38C180.72,43.18,181.34,42.56,182.12,42.56z"></path> <line id="Line-3_1_" class="st35" x1="174.58" y1="29.33" x2="252.34" y2="29.33"></line> <line id="Line-3-Copy-2_1_" class="st36" x1="174.58" y1="15.57" x2="252.34" y2="15.57"></line> <line id="Line-3-Copy-6_1_" class="st36" x1="174.58" y1="27.21" x2="252.34" y2="27.21"></line> <line id="Line-3-Copy-3_1_" class="st35" x1="174.58" y1="20.86" x2="252.34" y2="20.86"></line> <line id="Line-3-Copy-7_1_" class="st36" x1="174.58" y1="32.5" x2="252.34" y2="32.5"></line> <line id="Line-3-Copy-4_1_" class="st35" x1="174.58" y1="37.79" x2="252.34" y2="37.79"></line> <line id="Line-3-Copy-5_1_" class="st36" x1="174.58" y1="11.33" x2="252.34" y2="11.33"></line> <line id="Line-3-Copy-8_1_" class="st36" x1="174.58" y1="22.98" x2="252.34" y2="22.98"></line> <path id="Path-2_2_" class="st37" d="M183.01,0c-6.43,14.01-7.99,27.75,0,45.51c-14.89,0-73.43,0-175.62,0 C-2.46,30.34-2.46,15.17,7.39,0C33.39,0,136.13,0,183.01,0z"></path> <path id="Path-2_3_" class="st20" d="M71.42,0c-6.42,17.77-4.15,33.22,0,45.51c-2.88,0-13.25,0-31.11,0 c-4.47-15.17-4.47-30.34,0-45.51C45.35,0,62.35,0,71.42,0z"></path> <path id="Path-2-Copy-8" class="st20" d="M116.13,0c-6.42,17.77-4.15,33.22,0,45.51c-2.88,0-13.25,0-31.11,0 c-4.47-15.17-4.47-30.34,0-45.51C90.05,0,107.05,0,116.13,0z"></path> <path id="Path-2-Copy-9" class="st20" d="M160.83,0c-6.42,17.77-4.15,33.22,0,45.51c-2.88,0-13.25,0-31.11,0 c-4.47-15.17-4.47-30.34,0-45.51C134.76,0,151.76,0,160.83,0z"></path> <path id="Path-2-Copy-4_1_" class="st20" d="M183.36,0c-9.31,17.77-6.02,33.22,0,45.51c-4.18,0-5.57,0-4.17,0 c-6.49-15.17-6.49-30.34,0-45.51C186.48,0,170.2,0,183.36,0z"></path> </g> <path id="Rectangle_12_" class="st20" d="M183.57,0.19h73.58c0.77,0,1.4,0.63,1.4,1.4v0c0,0.77-0.63,1.4-1.4,1.4h-73.58 c-0.77,0-1.4-0.63-1.4-1.4v0C182.17,0.82,182.79,0.19,183.57,0.19z"></path> </g> <g id="Group-22_1_" transform="translate(37.255680, 41.719101)"> <g id="Group-20_2_" transform="translate(0.547091, 0.193539)"> <rect id="Rectangle_13_" x="173.03" y="4.41" class="st10" width="78.88" height="50.91"></rect> <path id="Rectangle-Copy-13_2_" class="st19" d="M181.82,55.32h74.44c0.77,0,1.4,0.63,1.4,1.4v1.33c0,0.77-0.63,1.4-1.4,1.4 h-74.44c-0.77,0-1.4-0.63-1.4-1.4v-1.33C180.42,55.95,181.05,55.32,181.82,55.32z"></path> <line id="Line-3_2_" class="st38" x1="174.26" y1="38.12" x2="252.32" y2="38.12"></line> <line id="Line-3-Copy-2_2_" class="st38" x1="174.26" y1="20.24" x2="252.32" y2="20.24"></line> <line id="Line-3-Copy-6_2_" class="st38" x1="174.26" y1="35.37" x2="252.32" y2="35.37"></line> <line id="Line-3-Copy-3_2_" class="st39" x1="174.26" y1="27.12" x2="252.32" y2="27.12"></line> <line id="Line-3-Copy-7_2_" class="st39" x1="174.26" y1="42.25" x2="252.32" y2="42.25"></line> <line id="Line-3-Copy-4_2_" class="st38" x1="174.26" y1="49.13" x2="252.32" y2="49.13"></line> <line id="Line-3-Copy-5_2_" class="st39" x1="174.26" y1="14.73" x2="252.32" y2="14.73"></line> <line id="Line-3-Copy-8_2_" class="st39" x1="174.26" y1="29.87" x2="252.32" y2="29.87"></line> <path id="Path-2_4_" class="st40" d="M182.73,0c-6.45,18.22-8.02,36.07,0,59.16c-14.94,0-73.69,0-176.24,0 C-1.45,41.3-1.45,21.58,6.49,0C32.59,0,135.66,0,182.73,0z"></path> <path id="Path-2_5_" class="st19" d="M43.54,0c-9.35,23.1-6.04,43.18,0,59.16c-4.19,0-6.86,0-8.01,0 c-6.51-19.72-6.51-39.44,0-59.16C42.85,0,30.34,0,43.54,0z"></path> <path id="Path-2-Copy-5" class="st19" d="M59.38,0c-9.35,23.1-6.04,43.18,0,59.16c-4.19,0-6.86,0-8.01,0 c-6.51-19.72-6.51-39.44,0-59.16C58.69,0,46.17,0,59.38,0z"></path> <path id="Path-2-Copy-6" class="st19" d="M146,0c-9.35,23.1-6.04,43.18,0,59.16c-4.19,0-6.86,0-8.01,0 c-6.51-19.72-6.51-39.44,0-59.16C145.31,0,132.79,0,146,0z"></path> <path id="Path-2-Copy-7" class="st19" d="M161.83,0c-9.35,23.1-6.04,43.18,0,59.16c-4.19,0-6.86,0-8.01,0 c-6.51-19.72-6.51-39.44,0-59.16C161.14,0,148.62,0,161.83,0z"></path> <path id="Path-2-Copy-4_2_" class="st19" d="M183.07,0c-9.35,23.1-6.04,43.18,0,59.16c-4.19,0-5.59,0-4.19,0 c-6.51-19.72-6.51-39.44,0-59.16C186.21,0,169.87,0,183.07,0z"></path> </g> <path id="Rectangle_14_" class="st19" d="M182.63,0.19h74.51c0.77,0,1.4,0.63,1.4,1.4v0.93c0,0.77-0.63,1.4-1.4,1.4h-74.51 c-0.77,0-1.4-0.63-1.4-1.4V1.59C181.24,0.82,181.86,0.19,182.63,0.19z"></path> </g> </g> <g id="Group-12" transform="translate(253.207859, 151.280000)"> <path id="Path-64" class="st30" d="M108.37,6.85c0.09,4.5-0.35,8.12-1.33,10.85c-0.98,2.73-4.68,4.63-11.1,5.7 c-15.21,3.12-24.74,10.85-28.59,23.18c-0.98,20.14-2.3,43.89-3.95,71.24l44.98-2.63l27.71-27.41V57.52l7.69,7.28 c5.1,1.35,8.89,4.35,11.37,8.99c2.48,4.64,4.55,12.58,6.2,23.82l20.86,17.58l-4.27-50.39c-2.55-13.34-5.75-22.19-9.59-26.54 s-12.03-8.4-24.56-12.15l-17.5-8.42V0.51h-14.13L108.37,6.85z"></path> <path id="Path-61-Copy" class="st41" d="M135.52,23.4c13.58,2.69,21.75,6.1,24.5,10.22c2.75,4.13,2.12,7.94-1.9,11.44 c3.59,9.94,5.48,16.74,5.66,20.41c0.13,2.55-3.77,17.23-3.77,19.22c0,1.52-1.19,8.08,0,11.7 c4.01,12.21-0.25,35.03-12.78,68.44l-38.46-22.74l-3.2,16.52l-39.73-7.25c10.86-14.42,17.04-26.47,18.54-36.16 c0.86-5.58,0.13-12.94,0-24.19c-0.03-2.96-5.65-18.34-4.31-23.77c0.78-3.16,2.87-8.2,6.27-15.13c0.43-0.22,0.25-0.22-0.54,0 c-3.05,0.87-5.69,0.87-8.38,0c-2.69-0.87-5.41-6.49-4.62-8.57c-2.42-1.82-3.77-2.44-3.75-2.48 c6.74-12,18.51-14.99,26.48-16.07c5.65,1.88,0.28,18.81,19.31,18.55C117.51,43.5,124.41,36.79,135.52,23.4z"></path> <path id="Path-60" class="st21" d="M9.95,150.38c3.45-7.38,5.48-11.01,6.06-10.91c59.11,10.56,96.73,2.78,113.78,10.91 c17.3,8.25,15.17,17.21-6.39,26.91l-90.44-24.13"></path> <path id="Path-58" class="st19" d="M7.8,140.89c-10.4,9.01-10.4,19.02,0,30.02c10.4,11,46.08,15.29,107.02,12.87v-17.77 c-13.85-4.28-26.82-7.85-38.93-10.69c-1.74-0.41-31.89-10.46-33.3-11.12C30.89,138.75,19.3,137.65,7.8,140.89z"></path> <path id="Path-59" class="st23" d="M133.58,167.71l-6.65-4.96c-4.68-5.01-10.14-8.63-16.37-10.86 c-5.83-2.09-8.59-1.94-13.99,0c-4.41,1.58-4.16,3.22-5.63,7.05c-2.37,6.15-3.61,6.85-2.06,12.91c1.27,4.95,2.17,6.13,7.69,9.1 c5.32,2.87,7.11,2.59,13.99,2.59c4.7,0,5.45-0.8,10.18-1.55c3.46-0.55,8.32,0.88,11.51,0c3.74-1.03,1.82,1.58,3.14-1.04 C136.72,178.28,136.12,173.87,133.58,167.71z"></path> <g id="Group-24" transform="translate(37.579853, 97.611072)"> <polygon id="Path-66" class="st42" points="8.34,51.65 8.34,54.68 85.33,54.68 111.57,54.68 111.57,51.65 87.75,51.65 78.77,0 71.93,0 8.34,34.72 "></polygon> <polygon id="Path-65" class="st43" points="0,0 76.49,0 83.03,51.65 8.34,51.65 "></polygon> </g> <path id="Path-57" class="st21" d="M172.17,99.79c16.06,17.92,19.39,43.75,10,77.5c-18.03,1.52-27.05,2.54-27.05,3.06 L172.17,99.79z"></path> <path id="Path-56" class="st19" d="M138.17,139.47c-1.86,34.04-2.79,65.24-2.79,93.59c7.69,3.87,2.03,13.84,10.2,12.77 c7.18-14.08,7.55-7.94,21.33-61.4c1.11-4.31,6.2-24.37,15.26-60.17c0.12-9.03-3.21-17.92-10-26.66 C149.62,91.97,138.29,105.92,138.17,139.47z"></path> <path id="Path-67" class="st20" d="M138.35,229.34c-11.77,6.97-16.56,11.89-26.78,15.75s-9.3,11.49-5.22,14.6 c2.72,2.08,6.66,3.13,11.81,3.18l14.46-5.44c5.15-5.02,8.18-7.84,9.08-8.48c0.91-0.63,1.66-0.84,2.27-0.63l4.26-2.98v1.2 c1.21-3.84,1.81-6.51,1.81-8.01s0-2.25,0-2.22l-1.81-5.53c-1.55,3.98-2.68,5.95-3.39,5.91c-0.34-0.02,0.72-2.65,0.72-2.88 C145.57,231.54,142.94,229.34,138.35,229.34z"></path> </g> <g id="Group-11-Copy-5" transform="translate(188.191859, 98.816000)"> <circle id="Mask-Copy" class="st24" cx="28.35" cy="28.35" r="28.35"></circle> <g id="Combined-Shape_1_"> <path id="path-5_1_" class="st44" d="M28.4,29.86c2.88,0,5.46-1.24,7.26-3.2c7.85,2.09,14.35,7.45,17.97,14.54 c-4.69,9.2-14.25,15.5-25.28,15.5S7.76,50.4,3.07,41.2c3.62-7.12,10.16-12.5,18.04-14.57C22.92,28.62,25.51,29.86,28.4,29.86 z"></path> </g> <circle id="Oval_4_" class="st45" cx="28.4" cy="20.03" r="10.21"></circle> </g> </g> <g id="Artboard-15" transform="translate(326.000000, 73.000000)"> <path id="Path_14_" class="st46" d="M49.43,23.28c-0.55,2.35-3.68,3.51-5.01,5.36c-1.37,1.92-1.49,5.24-3.46,6.46 s-5-0.14-7.33,0.25c-2.24,0.37-4.67,2.67-7.02,2.12s-3.51-3.68-5.36-5.01c-1.91-1.37-5.24-1.5-6.46-3.46s0.14-5-0.25-7.33 c-0.37-2.24-2.67-4.67-2.12-7.02c0.55-2.35,3.68-3.51,5.01-5.36c1.37-1.92,1.49-5.24,3.46-6.46s5,0.14,7.33-0.25 c2.24-0.37,4.67-2.67,7.02-2.12s3.51,3.68,5.36,5c1.91,1.37,5.24,1.5,6.46,3.46s-0.14,5.01,0.25,7.33 C47.68,18.5,50,20.93,49.43,23.28z"></path> <path id="Path_15_" class="st46" d="M56.56,77.2c-1.01,1.2-1.88,2.51-2.91,3.69c-5.45,6.26-17.32,2.15-23.2-1.6 c-4.33-2.74-7.6-6.87-10.4-11.18c-3.44-5.31-6.32-11.08-7.56-17.28C6.77,22.44,43.2,10.09,63.63,24.03 c7.6,5.2,14.47,16.86,12.8,26.21c-0.85,4.74-4.22,9.01-3.86,13.82c0.4,5.18,5.08,10.11,3.12,14.92 c-0.77,1.88-2.42,3.22-3.76,4.75c-1.81,2.06-3.14,4.64-3.29,7.37s0.98,5.6,3.24,7.17c-5.57-0.74-9-7.42-7.56-12.85 c0.47-1.78,1.34-3.45,1.72-5.26c0.38-1.81,0.16-3.91-1.22-5.13c-1.77-1.57-4.66-0.98-6.52,0.49 C57.65,76.02,57.08,76.58,56.56,77.2z"></path> <path id="Path_16_" class="st14" d="M90.96,112.44c-26.74,20.59-64.03,20.42-90.59-0.4l19.46-9.12 c0.6-0.28,1.18-0.59,1.74-0.93c0.15-0.09,0.3-0.18,0.45-0.28s0.32-0.2,0.47-0.31c2.46-1.69,4.47-3.95,5.87-6.59 c1.6-3.02,2.13-6.35,2.15-9.75c0-2.29-0.12-4.58-0.15-6.87c-0.02-1.27-0.03-2.53-0.04-3.8l0.08,0.04l0.72,0.37l2.08,1.07 l12.12,2.06l12.45,2.12l0.29,9.78l0.09,3l0.19,6.35l4.59,1.87l3.6,1.46L90.96,112.44z"></path> <path id="Path_17_" class="st15" d="M58.05,89.81c-0.85,0.57-1.87,0.85-2.89,0.8c-5.92-0.64-17.46-5.27-24.72-13.85 c0-0.42-0.01-0.84-0.02-1.26v-1.12l0.72,0.37l2.08,1.07l12.12,2.06l12.45,2.12L58.05,89.81z"></path> <path id="Path_18_" class="st12" d="M90.96,112.44c-26.74,20.59-64.04,20.42-90.59-0.4l19.46-9.12 c0.6-0.28,1.18-0.59,1.74-0.94c9.47,6.96,22.66,11.5,34.02,6.4c3.22-1.45,6.13-4.02,7.32-7.32l3.6,1.46L90.96,112.44z"></path> <circle id="Oval_5_" class="st15" cx="20.33" cy="61.56" r="6.8"></circle> <circle id="Oval_6_" class="st13" cx="22.73" cy="60.76" r="6.8"></circle> <path id="Path_19_" class="st14" d="M66.54,51.26c4.7,16.28-5.28,35.94-11.42,35.94c-8.4,0-28.8-6.71-33.49-22.98 S23.2,31.86,35.6,28.28S61.84,34.99,66.54,51.26z"></path> <path id="Path_20_" class="st46" d="M52.62,31.29c-0.96,1.9-2.96,3.54-4.15,5.48c-1.56,2.54-2.73,5.3-4.05,7.97 c-0.98,2-2.08,3.98-3.73,5.44c-1.66,1.47-4,2.34-6.12,1.72c-1.46-0.42-2.64-1.46-3.94-2.23c-1.3-0.77-2.97-1.29-4.31-0.57 c-1.97,1.06-1.94,3.92-3.35,5.66c-3.23,3.97-9.16-1.38-9.87-4.85c-1.04-5.07,3.12-9.3,6.14-12.8c2.52-2.92,5.93-7.38,9.89-8.35 c0.07,0,23.2-9.2,23.2-9.2c0.21,3.09,1.46,7.66,0.71,10.62C52.94,30.57,52.8,30.94,52.62,31.29L52.62,31.29z"></path> <path id="Path_21_" class="st17" d="M51.76,52.02c-0.02,0.1,2.22,6.35,3.57,10.13c0.23,0.64,0.13,1.35-0.27,1.91 c-0.39,0.56-1.03,0.89-1.71,0.89H51.9"></path> <path id="Path_22_" class="st47" d="M56.34,47.94c2.83-1.44,6.09-1.75,9.14-0.86"></path> <path id="Path_23_" class="st47" d="M34.3,49.42c3.9-1.99,8.47-2.13,12.49-0.4"></path> <path id="Path_24_" class="st12" d="M41.57,53.85c2.44,0,2.44,3.75,0,3.77h-0.11c-2.44-0.02-2.44-3.75,0-3.77H41.57z"></path> <path id="Path_25_" class="st12" d="M61.67,52.62c2.26,0.02,2.26,3.48,0,3.5h-0.1c-2.26,0-2.26-3.48,0-3.5H61.67z"></path> <path id="Path_26_" class="st17" d="M48.92,62.66c-0.65,0.07-1.16,0.6-1.2,1.26c0.01,0.32,0.16,0.61,0.41,0.81 c0.25,0.19,0.58,0.26,0.88,0.19"></path> <path id="Path_27_" class="st48" d="M41.86,68.71c0.11-0.17,0.29-0.3,0.49-0.33s0.41,0.01,0.58,0.13 c0.83,0.58,2.35,1.82,4.51,2.25c2.94,0.59,5.5-0.59,6.11,0.17c0.34,0.43-0.08,0.95-0.88,1.62c-1.7,1.27-3.84,1.8-5.94,1.48 c-2.83-0.53-4.96-3.81-4.96-4.98C41.77,68.93,41.8,68.81,41.86,68.71L41.86,68.71z"></path> </g> </g> </g> </g> </g> </svg> 