<?xml version="1.0" encoding="UTF-8"?> <svg xmlns="http://www.w3.org/2000/svg" width="727" height="461" viewBox="0 0 727 461" fill="none"><path fill-rule="evenodd" clip-rule="evenodd" d="M372.54 323.18C319.04 323.18 275.68 332 275.68 342.87C275.68 344.53 276.68 346.13 278.58 347.67L277.29 347.66H275.69C222.19 347.66 178.83 356.48 178.83 367.35C178.83 378.23 222.2 387.04 275.69 387.04C298.17 387.04 318.86 385.48 335.3 382.87C351.74 385.48 372.43 387.04 394.91 387.04C406.92 387.04 418.41 386.6 429.02 385.78C429.77 393.52 440.52 400.65 458.26 406.46C440.19 410.04 428.97 415.04 428.97 420.57C428.97 426.14 440.36 431.18 458.67 434.76C468.56 445.3 501.08 453.04 539.68 453.04C586.12 453.04 623.77 441.84 623.77 428.03C623.77 426.28 623.17 424.58 622.02 422.93C622.47 422.16 622.7 421.37 622.7 420.58C622.7 420.21 622.65 419.84 622.55 419.47C683.07 414.86 727 401.13 727 384.92C727 364.93 660.28 348.73 577.98 348.73C540.23 348.73 505.75 352.14 479.49 357.76C473.81 355.69 466.34 353.86 457.52 352.33C465.1 349.52 469.41 346.3 469.41 342.87C469.4 331.99 426.04 323.18 372.54 323.18Z" fill="#DEEEEC"></path><path opacity="0.7413" fill-rule="evenodd" clip-rule="evenodd" d="M127.3 341.04C92.1302 341.04 63.6202 349.12 63.6202 359.1C63.6202 361.46 65.2202 363.71 68.1202 365.78C66.9502 365.76 65.7603 365.75 64.5703 365.75C29.4003 365.75 0.890259 373.83 0.890259 383.81C0.890259 393.79 29.4003 401.87 64.5703 401.87C78.8203 401.87 91.9803 400.54 102.59 398.3C113.2 400.54 126.35 401.87 140.6 401.87C149.19 401.87 157.38 401.39 164.86 400.51C166.79 407.04 174.23 413.02 185.56 417.88C172.55 421.19 164.36 425.99 164.36 431.33C164.36 436.4 171.72 440.98 183.58 444.26C190.17 453.81 211.41 460.79 236.59 460.79C267.03 460.79 291.71 450.58 291.71 437.98C291.71 436.67 291.45 435.4 290.94 434.15C291.45 433.23 291.71 432.29 291.71 431.33C291.71 430.46 291.5 429.61 291.08 428.78C330.05 424.47 358.24 411.92 358.24 397.12C358.24 378.75 314.84 363.86 261.3 363.86C234.63 363.86 210.48 367.56 192.95 373.54C189.19 372 184.61 370.64 179.39 369.5C186.69 366.56 190.98 362.98 190.98 359.11C190.97 349.13 162.47 341.04 127.3 341.04Z" fill="#DEEEEC"></path><path d="M406.87 358.01L465.68 355.64" stroke="#0A5D5A" stroke-width="0.9504" stroke-linecap="square"></path><path fill-rule="evenodd" clip-rule="evenodd" d="M192.344 331.37C188.044 344.49 185.564 353.31 184.914 357.82C183.934 364.58 179.634 384.69 167.434 385.63C159.304 386.26 158.524 377.92 165.094 360.63L177.864 352.49L184.914 333.75L189.514 329.37L192.344 327.92V331.37Z" fill="#9E0216"></path><path fill-rule="evenodd" clip-rule="evenodd" d="M181.023 355.05C178.553 360.3 175.763 364.09 172.653 366.42C169.543 368.75 167.253 371.91 165.773 375.88C164.703 379.89 165.083 382.5 166.893 383.72C168.703 384.94 167.453 385.57 163.133 385.62C153.953 384.04 147.273 382.79 143.103 381.87C138.933 380.95 133.763 379.57 127.603 377.75L112.513 370.34L121.533 340.31L179.983 351.42L181.023 355.05Z" fill="#710110"></path><path fill-rule="evenodd" clip-rule="evenodd" d="M192.344 328.21C191.254 330.44 190.674 331.64 190.604 331.79C189.544 334.04 188.334 342.67 187.134 345.17C185.814 347.93 184.814 353.85 180.834 354.89C178.184 355.58 172.884 355.58 164.944 354.89L161.454 354.19C160.494 351.78 159.224 350.57 157.654 350.57C156.084 350.57 154.984 351.21 154.384 352.48H149.274L136.834 349.8L118.124 343.25L126.844 316.79L192.344 328.21Z" fill="#46000A"></path><path fill-rule="evenodd" clip-rule="evenodd" d="M163.145 349.21C160.125 353.68 158.295 357.49 157.655 360.63C155.615 360.39 154.605 360.08 154.625 359.68C154.455 355.43 154.985 352.3 156.205 350.29C157.425 348.28 158.315 347.28 158.875 347.29L163.145 348.02V349.21Z" fill="#20151D"></path><path fill-rule="evenodd" clip-rule="evenodd" d="M161.534 354.4C159.834 350.91 157.514 350.16 154.594 352.15C155.014 350.32 156.444 348.05 158.864 345.32C161.714 341.33 163.134 336.67 163.134 331.36C163.134 326.05 163.454 323.44 164.104 323.52L168.604 324.52C168.604 324.66 168.604 326.05 168.604 328.7C168.604 331.35 168.204 334.8 167.414 339.05L165.344 345.31L163.124 350.56L161.534 354.4Z" fill="black"></path><path fill-rule="evenodd" clip-rule="evenodd" d="M104.34 271.021C101.42 271.021 99.0504 273.601 99.0504 276.781C99.0504 279.531 100.82 281.831 103.19 282.401C102.69 283.501 102.41 284.771 102.41 286.131C102.41 288.791 103.49 291.131 105.12 292.441C101.45 295.171 99.0404 299.711 99.0404 304.841C99.0404 307.691 99.7804 310.351 101.06 312.621C98.9004 314.411 97.6004 316.721 97.6004 319.231C97.6004 324.931 104.27 329.551 112.5 329.551C120.73 329.551 127.4 324.931 127.4 319.231C127.4 317.101 126.46 315.111 124.86 313.471C126.46 311.021 127.4 308.051 127.4 304.841C127.4 296.491 121.05 289.721 113.22 289.721C113.68 288.651 113.94 287.431 113.94 286.121C113.94 282.501 111.93 279.481 109.27 278.821C109.49 278.181 109.62 277.491 109.62 276.771C109.63 273.601 107.26 271.021 104.34 271.021Z" fill="#B64E14"></path><path fill-rule="evenodd" clip-rule="evenodd" d="M120.659 300.351C122.609 297.151 123.379 294.991 122.959 293.851C122.539 292.711 122.219 292.481 121.989 293.131C120.599 295.121 119.419 296.421 118.469 297.021C117.619 297.561 115.179 295.991 113.379 294.291C113.269 294.191 112.739 293.441 112.639 293.341C111.589 292.241 111.349 291.671 111.019 291.751C110.129 291.971 110.049 292.661 109.499 292.981C109.269 293.161 108.529 292.861 108.509 292.751C108.289 291.501 108.099 289.601 107.929 287.051L107.679 285.811L106.849 284.511L105.189 283.391L102.939 280.691V277.121V274.681C102.959 272.221 104.019 269.811 106.119 267.461C108.219 265.101 111.899 263.811 117.169 263.571C121.019 264.261 123.549 265.271 124.759 266.621C126.569 268.641 130.079 272.091 131.359 275.811C132.209 278.291 132.049 280.961 130.889 283.811C131.199 285.171 131.719 286.841 132.439 288.811C133.159 290.781 134.029 291.971 135.049 292.381C137.369 293.661 139.429 295.111 141.229 296.711C141.989 297.381 131.289 314.461 124.629 314.681C123.599 314.691 122.279 309.921 120.659 300.351Z" fill="#DFB726"></path><path fill-rule="evenodd" clip-rule="evenodd" d="M109.811 343.951C107.151 343.291 104.841 342.831 104.801 342.881C104.201 343.651 103.601 347.111 103.371 348.161C102.971 349.991 102.491 351.101 101.921 352.651C100.221 352.271 98.341 351.571 96.871 351.571C93.161 350.421 90.251 350.671 87.971 351.591C86.911 351.311 86.171 351.101 86.001 351.051C83.021 349.921 78.111 348.371 73.211 346.911L72.121 346.591C66.701 344.991 61.481 343.571 59.141 343.051C54.551 342.031 48.931 341.881 46.321 344.071C43.351 348.931 42.611 353.811 43.961 355.791C50.851 363.661 57.461 367.211 70.161 369.561C70.311 369.591 70.451 369.611 70.591 369.631C69.311 370.141 67.321 370.671 67.821 372.361C67.821 373.901 67.821 374.621 68.631 375.681C68.941 375.851 69.131 376.041 69.321 376.251L69.421 376.371C69.901 376.921 70.521 377.591 73.351 378.471C76.811 378.981 92.241 377.011 96.871 369.571C98.951 371.901 108.791 375.791 111.431 376.531C113.921 377.231 119.651 377.641 121.511 377.011C134.501 375.901 141.411 361.311 140.001 351.581C140.001 349.971 139.701 349.581 138.801 348.351C138.401 347.801 135.851 347.621 133.171 347.551L132.501 347.531C129.921 347.481 127.381 347.501 126.621 347.381C117.321 345.881 114.061 344.171 110.281 344.081L109.811 343.951Z" fill="#A3C9E8"></path><path fill-rule="evenodd" clip-rule="evenodd" d="M44.7399 371.081C44.4599 370.311 44.0799 369.491 43.6199 368.631C42.9299 367.341 43.2499 365.481 46.8199 363.851C49.1999 362.761 52.0199 362.361 55.2899 362.671L60.8899 363.851L61.4199 366.431L44.7399 371.081Z" fill="#F3F8FC"></path><path opacity="0.8701" fill-rule="evenodd" clip-rule="evenodd" d="M70.0808 368.821C57.8008 365.741 50.8808 362.551 43.9808 354.721C42.6208 352.761 43.3708 347.911 46.3408 343.071C48.3308 341.421 52.3308 340.781 56.0208 341.691C57.1808 341.981 58.7608 342.701 59.7708 343.561C62.3208 345.731 74.6808 355.431 79.4608 360.201C84.6508 361.681 95.5608 350.521 96.7708 352.751C98.7008 356.301 97.3108 358.771 92.4008 361.571C89.5708 363.181 85.4808 360.281 81.2908 361.571C74.4008 363.701 76.0108 369.911 70.0808 368.821Z" fill="#B6D2E9"></path><path fill-rule="evenodd" clip-rule="evenodd" d="M148.16 303.191C147.87 302.081 143.59 297.161 138.83 296.561C133.08 300.051 133.82 299.241 127.79 300.101C126.01 302.121 124.33 312.891 123.66 312.891C123.09 312.891 123.43 310.091 123.66 307.371C123.84 305.241 123.77 305.311 124.06 303.191C124.19 302.251 124.89 300.851 124.5 300.431C123.99 299.881 122.31 300.281 121.73 300.101C120.49 299.711 119.96 298.901 119.04 300.101C115.07 305.291 114.24 305.611 111.95 312.891C107.68 326.451 102.33 342.271 104.5 344.031C110.18 345.651 112.56 347.721 117.36 348.221C118.52 349.011 121.03 348.801 122.08 349.991C123.97 352.151 129.02 352.671 131.47 353.831C133.28 354.691 140.57 357.301 141.41 355.611C142.56 353.311 141.43 350.431 142.71 348.221C145.08 344.131 146.07 344.531 147.26 339.831C148.35 335.511 147.11 335.001 147.26 330.191C147.56 320.921 148.61 320.781 148.16 311.661C147.9 306.321 149.49 308.271 148.16 303.191Z" fill="#13847F"></path><path fill-rule="evenodd" clip-rule="evenodd" d="M108.38 338.481C107.51 339.331 106.01 339.121 105.07 339.121C104.36 339.121 103.08 337.241 102.95 335.461C102.79 333.291 103.42 329.161 108.38 312.051C108.57 310.711 108.98 311.291 109.25 310.071C109.41 309.361 109.16 309.091 109.25 308.201C109.65 304.251 109.53 303.801 110.23 300.381C110.52 298.971 110.7 299.271 111.23 298.561C111.73 297.891 111.8 298.321 112.3 297.601C112.98 296.611 112.89 296.091 113.57 295.131C114.02 294.491 114.06 294.421 114.56 294.421C115.14 294.421 115.14 294.771 115.72 295.131C116.27 295.481 116.28 295.381 116.82 295.861C117.28 296.271 118.56 297.621 119.33 298.561C119.7 299.011 119.78 298.851 119.97 299.671C120.13 300.351 120.43 300.831 120.43 301.791C120.43 302.751 121.01 305.491 121.01 306.441C121.01 307.551 120.19 306.441 119.96 306.441C119.48 306.441 119.03 304.231 118.55 304.231C118.32 304.231 118.81 306.011 118.55 306.441C117.94 307.421 117.64 306.311 116.81 307.051C115.63 308.111 115.67 308.531 114.55 310.061C114.05 310.741 113.96 310.461 113.56 311.471C113.2 312.431 112.88 335.461 108.38 338.481Z" fill="#DFB726"></path><path fill-rule="evenodd" clip-rule="evenodd" d="M149.45 315.681C154.57 322.621 152.92 327.181 153.88 333.261C154.28 340.211 153.9 343.291 151.67 347.131C150.36 348.941 149.81 348.331 145.14 349.131C141.28 351.121 124.9 351.831 115.54 351.831C110.82 352.301 110.28 352.361 108.32 352.931C107.39 353.501 101.05 349.581 100 350.161C97.2602 350.871 98.3302 350.871 96.6702 351.831C94.2702 352.281 88.1502 353.061 88.0202 351.831C89.7102 349.341 89.9302 348.601 92.7702 345.181C95.3302 343.861 96.3902 343.861 99.7502 343.291C104.34 344.781 108.15 346.131 109.83 347.131C111.42 347.521 112.4 347.151 114.66 346.611C128.23 343.321 139.4 340.891 141.47 339.481C142.89 338.281 140.11 328.161 140.11 325.601C140.11 323.041 137.9 319.711 140.93 316.501C142.57 314.741 148.09 313.831 149.45 315.681Z" fill="#DFB726"></path><path fill-rule="evenodd" clip-rule="evenodd" d="M120.139 251.861C112.419 251.861 106.159 255.761 106.159 260.581C106.159 260.831 106.179 261.081 106.209 261.331C105.129 262.301 104.039 263.501 102.989 265.001C100.069 269.161 100.069 272.141 102.989 273.941C106.819 274.481 109.169 274.481 110.049 273.941C110.929 273.401 112.159 272.771 113.729 272.041C117.159 277.951 119.679 281.531 121.289 282.771C120.759 277.601 121.999 276.391 123.129 275.931C123.659 275.721 124.519 275.561 125.449 276.271C128.189 278.361 127.879 281.321 124.519 285.141L127.269 289.191C126.479 290.301 126.479 292.521 127.269 295.841C128.449 300.821 131.299 302.701 132.569 301.761C133.389 301.151 135.479 299.441 137.019 297.931C138.809 299.081 141.019 299.941 143.469 300.401C141.839 302.741 140.889 305.541 140.889 308.541C140.889 315.141 145.469 320.741 151.829 322.761C151.309 324.051 151.019 325.471 151.019 326.951C151.019 333.101 155.989 338.091 162.109 338.091C168.229 338.091 173.199 333.101 173.199 326.951C173.199 323.521 171.659 320.451 169.229 318.411C171.709 315.771 173.199 312.321 173.199 308.551C173.199 302.151 168.899 296.691 162.829 294.531C162.659 294.231 162.479 293.941 162.289 293.671C162.799 292.641 163.069 291.541 163.069 290.391C163.069 285.201 157.449 280.901 150.089 280.111C150.689 278.431 151.019 276.591 151.019 274.651C151.019 266.891 145.729 260.601 139.209 260.601C137.319 260.601 135.529 261.131 133.949 262.071C134.079 261.591 134.149 261.101 134.149 260.601C134.129 255.761 127.869 251.861 120.139 251.861Z" fill="#D84326"></path><path fill-rule="evenodd" clip-rule="evenodd" d="M154.751 327.141C149.331 328.571 141.791 324.271 139.871 325.711C137.991 326.661 137.741 327.341 136.551 326.241C136.181 325.391 135.901 323.921 136.001 322.161C136.131 319.941 135.781 312.121 136.001 306.731C136.081 304.861 136.181 304.521 137.071 303.231C138.481 301.191 142.481 297.301 146.111 299.211C149.751 301.121 150.551 302.911 152.231 307.321C153.131 309.671 156.081 326.791 154.751 327.141Z" fill="#0A5D5A"></path><path fill-rule="evenodd" clip-rule="evenodd" d="M85.9502 349.791L66.7402 352.261L84.9202 359.371L103.99 356.481V355.451L85.9502 349.791Z" fill="#14609E"></path><path fill-rule="evenodd" clip-rule="evenodd" d="M84.3502 350.851L67.8002 352.971L82.0102 358.301L99.7402 355.641L84.3502 350.851Z" fill="#003C66"></path><path fill-rule="evenodd" clip-rule="evenodd" d="M83.7695 357.971L62.6595 334.351L48.1095 331.691L46.5095 332.091L67.9695 351.231L68.5795 351.771L83.6995 359.371L83.7695 357.971Z" fill="#14609E"></path><path fill-rule="evenodd" clip-rule="evenodd" d="M83.7695 359.371L62.1195 334.751L46.5095 331.691L66.1595 352.691L83.7695 359.371Z" fill="#051C2F"></path><path fill-rule="evenodd" clip-rule="evenodd" d="M119.835 279.126L114.195 285.346L112.515 283.706L119.205 278.166L120.165 277.406L121.025 278.166L119.835 279.126Z" fill="#222222"></path><path fill-rule="evenodd" clip-rule="evenodd" d="M112.515 283.056L114.865 286.636L114.465 287.786H112.035L108.945 285.066V283.486L112.515 283.056Z" fill="#222222"></path><path fill-rule="evenodd" clip-rule="evenodd" d="M108.945 284.836H107.825L108.585 285.416H109.305L108.945 284.836Z" fill="#222222"></path><path fill-rule="evenodd" clip-rule="evenodd" d="M107.076 283.666L108.246 285.416V286.546L107.656 287.216L106.166 286.916L103.106 283.976V283.056H106.166L107.076 283.666Z" fill="#222222"></path><path fill-rule="evenodd" clip-rule="evenodd" d="M103.106 283.056L103.856 281.656L104.426 282.066L104.186 283.586L103.106 283.056Z" fill="#222222"></path><path fill-rule="evenodd" clip-rule="evenodd" d="M113.841 272.441C117.301 278.411 119.84 282.031 121.46 283.281C120.92 278.061 122.181 276.831 123.311 276.371C123.851 276.151 124.711 275.991 125.651 276.711C128.421 278.821 128.1 281.811 124.71 285.671L127.481 289.761C126.681 290.881 126.681 293.121 127.481 296.481C128.671 301.511 131.55 303.411 132.82 302.461C134.09 301.511 138.451 297.911 139.031 296.481C139.621 295.051 143.191 295.341 145.031 297.801C153.071 301.971 153.85 311.001 153.07 314.261C152.55 316.431 152.55 318.661 153.07 320.931L154.481 324.551V331.941C157.991 336.831 160.971 338.181 163.431 335.991C165.891 333.801 167.24 330.831 167.46 327.081C167.54 326.021 167.231 324.191 166.511 321.581C165.441 317.661 165.561 315.241 166.511 312.281C167.461 309.311 168.4 306.241 167.46 303.321C166.83 301.381 165.871 299.541 164.581 297.801C163.601 295.271 162.32 293.301 160.72 291.881C158.33 289.761 154.47 288.251 154.47 288.251C154.47 288.251 145.84 286.081 145.02 284.231C144.2 282.381 145.47 281.311 144.2 276.711C143.35 273.651 141.38 271.291 138.27 269.631C136.68 267.261 135.561 265.701 134.921 264.951C134.371 264.311 133.871 263.811 133.431 263.461C132.891 263.041 129.531 260.401 129.261 260.191C127.451 258.801 123.52 257.201 120.89 257.371C118.26 257.541 114.981 256.841 113.801 257.371C112.621 257.901 107.38 259.011 102.97 265.321C100.03 269.531 100.03 272.541 102.97 274.351C106.83 274.891 109.211 274.891 110.091 274.351C111.021 273.821 112.261 273.181 113.841 272.441Z" fill="#D84326"></path><path fill-rule="evenodd" clip-rule="evenodd" d="M96.5405 381.721C94.3805 379.421 93.0805 377.541 92.6505 376.061C92.0005 373.851 91.3705 371.751 98.7605 368.941C100.201 368.941 102.301 369.241 105.061 369.851L104.741 375.151L96.5405 381.721Z" fill="#F3F8FC"></path><path fill-rule="evenodd" clip-rule="evenodd" d="M108.33 374.381C107 376.671 105.56 378.301 104 379.261C102.44 380.221 100.37 381.041 97.7903 381.711C96.3603 381.761 95.4903 381.521 95.1703 380.981C95.1303 380.921 95.1403 380.831 95.0703 380.771C93.4903 379.461 94.9703 374.951 97.4503 373.501C99.1803 372.491 101.36 371.681 104 371.061L109.32 372.411L108.33 374.381Z" fill="#0A304F"></path><path fill-rule="evenodd" clip-rule="evenodd" d="M71 374.271L63.55 373.821C63.69 370.571 64.25 368.941 65.23 368.941C66.22 368.941 68.14 369.051 71 369.271V374.271V374.271Z" fill="#DFB726"></path><path fill-rule="evenodd" clip-rule="evenodd" d="M68.8711 367.981C66.0411 370.551 65.5111 372.791 67.3011 374.701C60.9011 376.171 53.7211 375.071 45.7611 371.401C45.3611 370.241 45.3611 369.101 45.7611 367.981C46.3711 365.591 50.5511 364.501 58.3011 364.721L68.8711 367.981Z" fill="#14609E"></path><path fill-rule="evenodd" clip-rule="evenodd" d="M122.189 375.931C120.349 376.561 114.669 376.161 112.189 375.451C109.569 374.711 99.8092 370.821 97.7492 368.501C93.1592 375.921 77.8592 377.891 74.4292 377.381C70.3192 376.101 70.9092 375.251 69.7492 374.601C68.9492 373.551 68.9492 372.831 68.9492 371.291C68.3392 369.211 71.4792 368.901 72.4292 368.201C75.1192 366.221 74.6792 366.341 77.3792 364.371C78.6392 363.451 80.6392 359.651 81.3192 358.591C82.8392 356.221 86.7192 347.111 97.7692 350.561C99.6592 350.561 119.029 350.561 129.189 358.591C135.069 360.881 140.199 354.421 140.199 355.571C140.199 357.071 139.599 360.761 137.779 364.611C135.299 369.801 130.619 375.261 122.189 375.931Z" fill="#C9E1F6"></path><path fill-rule="evenodd" clip-rule="evenodd" d="M421.811 305.47L203.861 309.3C200.661 321.56 199.071 331.22 199.071 338.27C199.071 345.32 200.671 354.88 203.861 366.94H421.811C418.391 353.29 416.681 343.04 416.681 336.2C416.681 329.36 418.391 319.13 421.811 305.47Z" fill="#8CC6C0"></path><path fill-rule="evenodd" clip-rule="evenodd" d="M386.41 306.08L371.35 306.4C368.15 314.02 366.56 324.14 366.56 336.78C366.56 349.42 368.16 359.46 371.35 366.91L386.04 366.96C382.62 353.56 380.91 343.5 380.91 336.78C380.91 330.06 382.75 319.82 386.41 306.08Z" fill="#0F9283"></path><path fill-rule="evenodd" clip-rule="evenodd" d="M314.041 307.97L299.351 308.24C296.951 312.89 295.351 322.58 294.561 337.33C295.281 352.21 296.881 362.08 299.351 366.95H314.041C310.621 353.79 308.911 343.92 308.911 337.33C308.911 330.74 310.621 320.95 314.041 307.97Z" fill="#0F9283"></path><path fill-rule="evenodd" clip-rule="evenodd" d="M294.761 308.18L280.021 308.54C277.041 315.33 275.551 324.93 275.551 337.33C275.551 349.73 277.151 359.59 280.341 366.9L295.031 366.95C291.231 355.43 289.441 345.8 289.671 338.08C289.911 330.35 291.601 320.38 294.761 308.18Z" fill="#0F9283"></path><path d="M416.5 349.88L478.25 347.39" stroke="#13847F" stroke-width="0.9979" stroke-linecap="square"></path><path d="M416.5 345.41L478.25 342.92" stroke="#13847F" stroke-width="0.9979" stroke-linecap="square"></path><path d="M416.5 340.93L478.25 338.45" stroke="#0A5D5A" stroke-width="0.9979" stroke-linecap="square"></path><path d="M416.5 338.7L478.25 336.21" stroke="#13847F" stroke-width="0.9979" stroke-linecap="square"></path><path d="M416.5 334.23L478.25 331.74" stroke="#0A5D5A" stroke-width="0.9979" stroke-linecap="square"></path><path d="M416.5 331.99L478.25 329.5" stroke="#13847F" stroke-width="0.9979" stroke-linecap="square"></path><path d="M416.5 327.52L478.25 325.03" stroke="#0A5D5A" stroke-width="0.9979" stroke-linecap="square"></path><path d="M416.481 322.51L478.271 321.1" stroke="#13847F" stroke-width="0.9979" stroke-linecap="square"></path><path d="M416.481 318.04L478.271 316.63" stroke="#0A5D5A" stroke-width="0.9979" stroke-linecap="square"></path><path d="M416.5 358.82L478.25 356.33" stroke="#13847F" stroke-width="0.9979" stroke-linecap="square"></path><path fill-rule="evenodd" clip-rule="evenodd" d="M478.74 307.09L419.66 304.01C419 303.98 418.47 305.5 418.47 307.41C418.47 309.31 419 310.85 419.66 310.85L478.74 311.07C479.4 311.08 479.93 310.2 479.93 309.12C479.93 308.04 479.4 307.13 478.74 307.09Z" fill="#0F9283"></path><path fill-rule="evenodd" clip-rule="evenodd" d="M421.811 305.47L416.061 305.52C412.861 313.11 411.271 323.33 411.271 336.2C411.271 349.07 412.871 359.3 416.061 366.88L421.811 366.93C418.391 353.28 416.681 343.03 416.681 336.19C416.681 329.35 418.391 319.13 421.811 305.47Z" fill="#0F9283"></path><path d="M226.221 134.475H333.521V175.825H226.221V134.475Z" fill="white"></path><path fill-rule="evenodd" clip-rule="evenodd" d="M321.781 175.825H220.071C219.141 175.825 218.391 176.575 218.391 177.505C218.391 178.435 219.141 179.185 220.071 179.185H321.781C322.711 179.185 323.461 178.435 323.461 177.505C323.461 176.575 322.711 175.825 321.781 175.825Z" fill="#DFB726"></path><path d="M331.84 161.855H225.66" stroke="#94791A" stroke-width="0.9979" stroke-linecap="square"></path><path d="M331.84 147.325H225.66" stroke="#94791A" stroke-width="0.9979" stroke-linecap="square"></path><path d="M331.84 159.615H225.66" stroke="#DFB726" stroke-width="0.9979" stroke-linecap="square"></path><path d="M331.84 152.915H225.66" stroke="#94791A" stroke-width="0.9979" stroke-linecap="square"></path><path d="M331.84 165.205H225.66" stroke="#DFB726" stroke-width="0.9979" stroke-linecap="square"></path><path d="M331.84 170.795H225.66" stroke="#94791A" stroke-width="0.9979" stroke-linecap="square"></path><path d="M331.84 142.855H225.66" stroke="#94791A" stroke-width="0.9979" stroke-linecap="square"></path><path d="M331.84 155.145H225.66" stroke="#DFB726" stroke-width="0.9979" stroke-linecap="square"></path><path fill-rule="evenodd" clip-rule="evenodd" d="M320.331 130.885C329.111 145.685 331.251 160.185 320.331 178.945C340.661 178.945 407.851 178.945 521.911 178.945C535.361 162.925 535.361 146.905 521.911 130.885C486.411 130.885 384.351 130.885 320.331 130.885Z" fill="#FADF80"></path><path fill-rule="evenodd" clip-rule="evenodd" d="M407.031 130.885C419.741 149.645 415.251 165.965 407.031 178.945C412.731 178.945 433.261 178.945 468.611 178.945C477.471 162.925 477.471 146.905 468.611 130.885C458.651 130.885 424.991 130.885 407.031 130.885Z" fill="#AE8B0C"></path><path fill-rule="evenodd" clip-rule="evenodd" d="M319.851 130.885C332.561 149.645 328.071 165.965 319.851 178.945C325.551 178.945 327.451 178.945 325.541 178.945C334.401 162.925 334.401 146.905 325.541 130.885C315.581 130.885 337.821 130.885 319.851 130.885Z" fill="#AE8B0C"></path><path fill-rule="evenodd" clip-rule="evenodd" d="M321.781 131.115H220.071C219.141 131.115 218.391 131.865 218.391 132.795C218.391 133.725 219.141 134.475 220.071 134.475H321.781C322.711 134.475 323.461 133.725 323.461 132.795C323.461 131.865 322.711 131.115 321.781 131.115Z" fill="#DFB726"></path><path d="M213.386 257.014H307.676V304.004H213.386V257.014Z" fill="white"></path><path fill-rule="evenodd" clip-rule="evenodd" d="M297.156 304.014H208.186C207.256 304.014 206.506 304.764 206.506 305.694V306.154C206.506 307.084 207.256 307.834 208.186 307.834H297.156C298.086 307.834 298.836 307.084 298.836 306.154V305.694C298.836 304.764 298.086 304.014 297.156 304.014Z" fill="#D84326"></path><path d="M306.197 288.134H212.887" stroke="#D2AC85" stroke-width="0.9979" stroke-linecap="square"></path><path d="M306.197 271.624H212.887" stroke="#975218" stroke-width="0.9979" stroke-linecap="square"></path><path d="M306.197 285.594H212.887" stroke="#975218" stroke-width="0.9979" stroke-linecap="square"></path><path d="M306.197 277.974H212.887" stroke="#D2AC85" stroke-width="0.9979" stroke-linecap="square"></path><path d="M306.197 291.944H212.887" stroke="#975218" stroke-width="0.9979" stroke-linecap="square"></path><path d="M306.197 298.294H212.887" stroke="#D2AC85" stroke-width="0.9979" stroke-linecap="square"></path><path d="M306.197 266.544H212.887" stroke="#975218" stroke-width="0.9979" stroke-linecap="square"></path><path d="M306.197 280.514H212.887" stroke="#975218" stroke-width="0.9979" stroke-linecap="square"></path><path fill-rule="evenodd" clip-rule="evenodd" d="M296.077 252.944C303.787 269.764 305.667 286.244 296.077 307.554C313.937 307.554 384.187 307.554 506.827 307.554C518.657 289.354 518.657 271.144 506.827 252.944C475.627 252.944 352.347 252.944 296.077 252.944Z" fill="#FF9D8A"></path><path fill-rule="evenodd" clip-rule="evenodd" d="M429.986 252.944C437.696 274.264 434.966 292.804 429.986 307.554C433.446 307.554 445.886 307.554 467.316 307.554C472.686 289.354 472.686 271.144 467.316 252.944C461.276 252.944 440.876 252.944 429.986 252.944Z" fill="#D84326"></path><path fill-rule="evenodd" clip-rule="evenodd" d="M376.348 252.944C384.058 274.264 381.328 292.804 376.348 307.554C379.808 307.554 392.248 307.554 413.678 307.554C419.048 289.354 419.048 271.144 413.678 252.944C407.638 252.944 387.238 252.944 376.348 252.944Z" fill="#D84326"></path><path fill-rule="evenodd" clip-rule="evenodd" d="M322.697 252.944C330.407 274.264 327.677 292.804 322.697 307.554C326.157 307.554 338.597 307.554 360.027 307.554C365.397 289.354 365.397 271.144 360.027 252.944C353.987 252.944 333.587 252.944 322.697 252.944Z" fill="#D84326"></path><path fill-rule="evenodd" clip-rule="evenodd" d="M295.667 252.944C306.837 274.264 302.887 292.804 295.667 307.554C300.677 307.554 302.347 307.554 300.667 307.554C308.447 289.354 308.447 271.144 300.667 252.944C291.917 252.944 311.447 252.944 295.667 252.944Z" fill="#D84326"></path><path fill-rule="evenodd" clip-rule="evenodd" d="M296.074 252.941H207.774C206.844 252.941 206.094 253.691 206.094 254.621C206.094 255.551 206.844 256.301 207.774 256.301H296.074C297.004 256.301 297.754 255.551 297.754 254.621C297.754 253.691 297.004 252.941 296.074 252.941Z" fill="#D84326"></path><path d="M183.996 185.995H278.996V248.995H183.996V185.995Z" fill="white"></path><path fill-rule="evenodd" clip-rule="evenodd" d="M268.328 248.995H178.678C177.748 248.995 176.998 249.745 176.998 250.675V252.325C176.998 253.255 177.748 254.005 178.678 254.005H268.328C269.258 254.005 270.008 253.255 270.008 252.325V250.675C269.998 249.755 269.248 248.995 268.328 248.995Z" fill="#006285"></path><path d="M277.508 226.995H183.498" stroke="#1978C5" stroke-width="0.9979" stroke-linecap="square"></path><path d="M277.508 204.995H183.498" stroke="#1978C5" stroke-width="0.9979" stroke-linecap="square"></path><path d="M277.508 223.995H183.498" stroke="#1978C5" stroke-width="0.9979" stroke-linecap="square"></path><path d="M277.508 213.995H183.498" stroke="#14609E" stroke-width="0.9979" stroke-linecap="square"></path><path d="M277.508 231.995H183.498" stroke="#14609E" stroke-width="0.9979" stroke-linecap="square"></path><path d="M277.508 240.995H183.498" stroke="#1978C5" stroke-width="0.9979" stroke-linecap="square"></path><path d="M277.508 197.995H183.498" stroke="#14609E" stroke-width="0.9979" stroke-linecap="square"></path><path d="M277.508 216.995H183.498" stroke="#14609E" stroke-width="0.9979" stroke-linecap="square"></path><path fill-rule="evenodd" clip-rule="evenodd" d="M266.997 179.995C274.757 202.475 276.647 224.505 266.997 252.995C284.957 252.995 355.577 252.995 478.847 252.995C488.387 230.955 488.387 206.625 478.847 179.995C447.477 179.995 323.577 179.995 266.997 179.995Z" fill="#A4C4CF"></path><path fill-rule="evenodd" clip-rule="evenodd" d="M434.997 179.995C445.867 208.495 442.027 233.275 434.997 252.995C439.877 252.995 442.977 252.995 444.317 252.995C451.887 228.665 451.887 204.325 444.317 179.995C435.797 179.995 450.367 179.995 434.997 179.995Z" fill="#006285"></path><path fill-rule="evenodd" clip-rule="evenodd" d="M415.997 179.995C426.867 208.495 423.027 233.275 415.997 252.995C420.877 252.995 423.977 252.995 425.317 252.995C432.887 228.665 432.887 204.325 425.317 179.995C416.797 179.995 431.367 179.995 415.997 179.995Z" fill="#006285"></path><path fill-rule="evenodd" clip-rule="evenodd" d="M311.997 179.995C322.867 208.495 319.027 233.275 311.997 252.995C316.877 252.995 319.977 252.995 321.317 252.995C328.887 228.665 328.887 204.325 321.317 179.995C312.797 179.995 327.367 179.995 311.997 179.995Z" fill="#006285"></path><path fill-rule="evenodd" clip-rule="evenodd" d="M292.997 179.995C303.867 208.495 300.027 233.275 292.997 252.995C297.877 252.995 300.977 252.995 302.317 252.995C309.887 228.665 309.887 204.325 302.317 179.995C293.797 179.995 308.367 179.995 292.997 179.995Z" fill="#006285"></path><path fill-rule="evenodd" clip-rule="evenodd" d="M266.997 179.995C278.337 208.495 274.327 233.275 266.997 252.995C272.087 252.995 273.777 252.995 272.077 252.995C279.977 228.665 279.977 204.325 272.077 179.995C263.197 179.995 283.017 179.995 266.997 179.995Z" fill="#006285"></path><path fill-rule="evenodd" clip-rule="evenodd" d="M268.132 180.293H178.722C177.792 180.293 177.042 181.043 177.042 181.973V183.093C177.042 184.023 177.792 184.773 178.722 184.773H268.132C269.062 184.773 269.812 184.023 269.812 183.093V181.973C269.812 181.043 269.052 180.293 268.132 180.293Z" fill="#006285"></path><path fill-rule="evenodd" clip-rule="evenodd" d="M451.137 336.313C448.917 344.363 447.557 354.203 447.047 365.823V380.533L452.437 382.003C454.997 374.193 456.277 367.383 456.277 361.563C456.277 355.743 455.417 347.813 453.707 337.763C453.707 336.133 452.847 335.653 451.137 336.313Z" fill="#F7CA2C"></path><path fill-rule="evenodd" clip-rule="evenodd" d="M579.258 318.103L570.348 319.543C571.328 339.993 576.788 356.713 586.748 369.683C596.708 382.653 602.728 386.333 604.828 380.733L579.258 318.103Z" fill="#0A304F"></path><path fill-rule="evenodd" clip-rule="evenodd" d="M448.818 386.713H454.928L447.048 350.733C442.158 350.273 435.398 351.503 426.738 354.433C418.088 357.363 417.278 357.363 424.328 354.433L413.768 348.383L409.678 351.783L417.878 383.723L448.818 386.713Z" fill="white"></path><path fill-rule="evenodd" clip-rule="evenodd" d="M421.868 355.573L407.948 350.413L418.568 387.463L430.758 388.733L421.868 355.573Z" fill="#D84326"></path><path fill-rule="evenodd" clip-rule="evenodd" d="M426.739 355.573L443.109 351.333L450.379 385.273L433.799 388.733L426.739 355.573Z" fill="#D84326"></path><path fill-rule="evenodd" clip-rule="evenodd" d="M426.739 355.573C429.419 366.223 432.079 377.273 434.729 388.733H430.759L421.869 355.573C424.409 355.573 426.029 355.573 426.739 355.573Z" fill="#9E0216"></path><path fill-rule="evenodd" clip-rule="evenodd" d="M416.048 379.233C416.918 378.873 417.688 378.873 418.328 379.233C418.998 379.613 419.418 381.053 420.268 382.623C420.648 383.333 421.558 383.743 421.868 384.653C422.168 385.553 421.948 386.593 421.198 387.783L418.328 389.143L415.238 386.193C414.258 384.183 413.758 382.673 413.758 381.653C413.758 380.633 414.528 379.833 416.048 379.233Z" fill="#F7CA2C"></path><path fill-rule="evenodd" clip-rule="evenodd" d="M471.758 280.603C465.878 280.603 461.118 285.373 461.118 291.243V291.293C459.998 291.403 458.918 291.693 457.928 292.123C456.628 291.553 455.188 291.233 453.668 291.233C447.788 291.233 443.028 296.003 443.028 301.873C443.028 305.053 444.418 307.903 446.628 309.853C444.418 312.583 443.028 316.573 443.028 321.033C443.028 323.743 443.548 326.293 444.448 328.483C443.538 330.043 443.028 331.863 443.028 333.803C443.028 339.683 447.798 344.443 453.668 344.443C459.538 344.443 464.308 339.673 464.308 333.803C464.308 331.863 463.788 330.043 462.888 328.483C463.798 326.293 464.308 323.743 464.308 321.033C464.308 317.863 463.598 314.933 462.398 312.513C464.958 312.463 467.288 311.513 469.098 309.963C470.198 310.913 471.498 311.633 472.928 312.063C472.858 312.563 472.818 313.063 472.818 313.583C472.818 314.103 472.858 314.603 472.928 315.103C468.558 316.423 465.368 320.483 465.368 325.293C465.368 330.153 468.618 334.243 473.058 335.523C472.898 336.343 472.818 337.193 472.818 338.063C472.818 340.373 473.408 342.553 474.448 344.453C473.408 346.343 472.818 348.523 472.818 350.843C472.818 358.193 478.778 364.153 486.128 364.153C488.018 364.153 489.818 363.763 491.448 363.043C493.078 363.753 494.878 364.153 496.768 364.153C504.118 364.153 510.078 358.193 510.078 350.843C510.078 344.403 505.508 339.033 499.428 337.803C499.348 333.473 497.198 329.653 493.928 327.283C494.048 326.633 494.118 325.973 494.118 325.293C494.118 323.133 493.468 321.113 492.368 319.443C493.478 317.763 494.118 315.753 494.118 313.593C494.118 311.433 493.468 309.413 492.368 307.743C493.478 306.063 494.118 304.053 494.118 301.893C494.118 296.013 489.348 291.253 483.478 291.253C483.118 291.253 482.768 291.273 482.408 291.303V291.253C482.408 285.363 477.638 280.603 471.758 280.603Z" fill="#9E0216"></path><path fill-rule="evenodd" clip-rule="evenodd" d="M476.088 333.463C475.088 332.613 473.448 331.673 471.168 330.633C468.898 329.603 468.608 325.423 470.308 318.103L459.738 320.143L460.588 330.643L454.918 334.583L457.658 355.573L460.578 353.623H470.298L476.088 333.463Z" fill="#DFB726"></path><path fill-rule="evenodd" clip-rule="evenodd" d="M473.598 316.053C471.938 321.053 469.308 324.623 465.738 326.733C462.158 328.853 459.008 327.063 456.278 321.363C454.568 315.823 453.708 312.603 453.708 311.723C453.708 310.403 451.968 302.573 456.758 299.793C461.548 297.013 465.268 298.693 470.128 302.463C472.698 304.453 469.658 311.303 471.598 311.303C471.708 309.833 471.998 308.723 472.458 307.963C473.438 306.223 474.418 305.793 475.378 306.663C476.818 307.963 475.988 310.493 475.378 313.713C475.178 314.693 474.588 315.473 473.598 316.053Z" fill="#F7CA2C"></path><path fill-rule="evenodd" clip-rule="evenodd" d="M466.488 337.783C471.168 336.313 472.308 336.313 475.168 332.183C477.618 332.653 480.448 334.023 483.678 336.303L482.828 349.883L464.528 357.423L451.118 352.163C451.118 348.613 451.118 343.683 451.118 337.363C451.488 335.903 452.198 335.463 453.178 335.023C454.008 334.643 455.038 334.473 456.208 333.443C457.868 335.723 457.408 336.403 461.938 337.763C461.938 340.823 462.238 344.433 462.828 348.583H464.528C464.548 346.063 465.198 342.453 466.488 337.783Z" fill="#D0E6E5"></path><path fill-rule="evenodd" clip-rule="evenodd" d="M475.908 351.173C474.278 347.693 477.108 338.913 479.648 333.823C478.578 333.043 477.328 332.493 475.908 332.193C471.778 338.653 470.348 345.163 471.608 351.723C471.618 352.603 474.638 353.963 475.908 351.173Z" fill="#0A304F"></path><path fill-rule="evenodd" clip-rule="evenodd" d="M451.138 350.893C448.988 358.893 451.418 364.543 458.428 367.833C468.938 372.773 485.828 388.723 500.838 388.723C510.848 388.723 542.838 388.863 596.808 389.133C602.158 388.933 604.828 385.133 604.828 377.733C604.828 370.343 602.158 350.463 596.808 318.093H588.048C580.938 349.683 580.938 366.973 588.048 369.963C598.708 374.443 576.858 366.573 564.408 364.843C536.338 360.943 531.468 344.463 506.998 358.693C496.818 360.193 496.818 353.653 490.828 347.993C486.598 346.693 488.918 347.843 479.348 350.173C472.978 351.733 463.568 351.973 451.138 350.893Z" fill="#006285"></path><path fill-rule="evenodd" clip-rule="evenodd" d="M475.089 360.083H456.749L466.909 367.533H478.039L475.089 360.083Z" fill="#0A304F"></path><path fill-rule="evenodd" clip-rule="evenodd" d="M483.198 335.953C485.778 338.053 503.148 361.713 498.408 386.403C495.248 402.863 481.398 403.773 456.858 389.143H446.998C444.968 387.783 443.958 385.823 443.958 383.273C443.958 380.723 448.258 380.723 456.858 383.273C467.708 381.963 475.228 381.303 479.438 381.303C485.748 381.303 481.578 344.483 479.438 342.613C478.008 335.053 480.678 334.513 483.198 335.953Z" fill="#F7CA2C"></path><path fill-rule="evenodd" clip-rule="evenodd" d="M455.268 334.143C455.588 337.593 455.918 343.303 456.268 351.293C455.718 352.423 455.228 352.993 454.788 352.993C453.948 352.993 453.158 352.423 452.428 351.293L451.138 336.303C452.198 334.873 453.578 334.143 455.268 334.143Z" fill="#0A304F"></path><path fill-rule="evenodd" clip-rule="evenodd" d="M570.349 319.543L568.989 303.573C567.399 303.853 566.399 302.813 565.979 300.483C566.559 299.803 569.829 301.853 571.759 299.483C573.219 297.693 572.799 291.753 576.119 289.373C582.029 287.403 585.269 287.243 586.209 288.533C579.799 295.393 576.759 296.203 574.799 300.833C575.139 305.123 576.559 310.983 579.049 318.393L570.349 319.543Z" fill="#F7CA2C"></path><path fill-rule="evenodd" clip-rule="evenodd" d="M569.957 313.243L567.308 304.033C566.678 303.623 566.148 302.283 565.718 300.033C565.898 299.823 564.868 296.333 564.898 295.693C564.948 294.823 565.837 295.363 566.427 294.533C566.777 294.043 567.778 298.413 568.358 297.953C570.118 296.553 572.587 291.623 575.977 289.313C581.957 287.413 585.238 287.263 586.188 288.503C579.698 295.123 577.297 296.313 575.317 300.783C575.667 304.923 576.507 308.373 577.837 311.123L574.257 312.083L572.207 306.023L572.087 312.663L569.957 313.243Z" fill="#710110"></path><path fill-rule="evenodd" clip-rule="evenodd" d="M587.588 318.103V297.123C585.548 297.123 584.518 295.593 584.518 292.543C585.388 291.803 589.018 295.123 591.938 292.543C594.158 290.593 594.958 282.983 599.638 280.703C607.458 279.503 611.528 280.013 612.408 281.853C602.888 289.133 599.648 290.173 596.168 295.613C595.638 301.123 595.848 308.623 596.808 318.103H587.588Z" fill="#F7CA2C"></path><path fill-rule="evenodd" clip-rule="evenodd" d="M586.678 310.803L585.548 298.143C584.858 297.463 584.518 295.593 584.518 292.543C584.788 292.313 584.328 287.493 584.518 286.663C584.778 285.533 585.748 286.433 586.678 285.473C587.218 284.913 587.438 290.863 588.258 290.383C590.748 288.923 594.938 283.003 599.638 280.703C607.458 279.503 611.528 280.013 612.408 281.853C602.888 289.133 599.648 290.173 596.168 295.613C595.638 301.123 595.878 305.833 596.888 309.733L592.258 310.223L591.138 301.823L589.458 310.513L586.678 310.803Z" fill="#9E0216"></path><path d="M461.271 309.72C461.291 309.79 459.311 317.49 459.311 317.49H461.811" stroke="#00214E" stroke-width="0.5"></path><path d="M458.98 307.68C457.57 306.96 455.93 306.81 454.41 307.25" stroke="#00214E" stroke-width="0.5"></path><path d="M470 308.42C468.05 307.43 465.76 307.35 463.75 308.22" stroke="#00214E" stroke-width="0.5"></path><path d="M466.469 319.49C466.409 319.4 466.329 319.34 466.219 319.32C466.119 319.3 466.009 319.33 465.929 319.39C465.509 319.68 464.749 320.3 463.669 320.52C462.199 320.81 460.919 320.22 460.619 320.6C460.449 320.81 460.659 321.07 461.059 321.4C461.909 322.04 462.979 322.3 464.029 322.14C465.449 321.88 466.509 320.23 466.509 319.65C466.519 319.6 466.499 319.54 466.469 319.49Z" fill="white"></path><path d="M466.65 311.08C465.43 311.07 465.4 312.93 466.62 312.97H466.67C467.89 312.98 467.93 311.11 466.71 311.08H466.65Z" fill="#00214E"></path><path d="M456.6 310.75C455.47 310.74 455.43 312.47 456.57 312.5H456.62C457.75 312.51 457.79 310.78 456.65 310.75H456.6Z" fill="#00214E"></path><path fill-rule="evenodd" clip-rule="evenodd" d="M408.244 62.4397L411.734 88.5497L390.394 95.3897L374.554 79.7297V62.4397L370.164 66.5997L367.514 84.9797H352.084L360.124 62.4397L370.164 44.4897L408.244 62.4397Z" fill="#DFB726"></path><path fill-rule="evenodd" clip-rule="evenodd" d="M383.003 50.1896L386.703 67.9996V110.77L384.853 120.21L364.953 117.32L369.403 67.9996L356.723 66.3596L361.153 46.7596C367.173 43.1296 371.773 41.3096 374.953 41.3096C378.133 41.3096 380.813 44.2696 383.003 50.1896Z" fill="#0C6F63"></path><path fill-rule="evenodd" clip-rule="evenodd" d="M386.704 47.5798L386.534 67.9998V110.77L388.154 120.21L408.244 116.07C406.344 106.86 405.014 99.4898 404.264 93.9498C403.514 88.4098 402.704 80.8998 401.834 71.4098L411.734 68.0098C408.364 58.1098 406.664 53.1298 406.624 53.0498C404.264 46.1898 407.114 46.1898 398.284 42.5098C394.824 43.7998 390.964 45.4898 386.704 47.5798Z" fill="#0C6F63"></path><path fill-rule="evenodd" clip-rule="evenodd" d="M383.463 49.4497L378.953 55.9097L372.243 42.4997L377.853 39.6797L383.463 49.4497Z" fill="#0A5D5A"></path><path fill-rule="evenodd" clip-rule="evenodd" d="M389.523 53.6596C394.223 50.8396 397.863 48.6496 400.463 47.0896C400.413 47.0296 398.713 43.8896 398.253 42.3696C394.833 43.4996 390.983 45.0796 386.703 47.0896L389.523 53.6596Z" fill="#0A5D5A"></path><path fill-rule="evenodd" clip-rule="evenodd" d="M446.633 115.5C444.663 111.28 443.503 109.21 443.163 109.27C409.383 115.3 387.883 110.86 378.143 115.5C368.263 120.21 369.473 125.34 381.793 130.88L433.483 117.09" fill="#003C66"></path><path fill-rule="evenodd" clip-rule="evenodd" d="M447.854 102.26C453.794 109.03 453.794 116.54 447.854 124.8C441.914 133.06 421.524 136.28 386.694 134.46V121.12C394.604 117.9 402.024 115.23 408.934 113.09C409.924 112.78 427.154 105.23 427.964 104.74C434.664 100.66 441.284 99.8299 447.854 102.26Z" fill="#1978C5"></path><path fill-rule="evenodd" clip-rule="evenodd" d="M375.983 125.41L379.783 122.58C382.453 119.72 385.573 117.65 389.143 116.38C392.473 115.19 394.053 115.27 397.133 116.38C399.653 117.29 399.513 118.22 400.353 120.41C401.703 123.92 402.413 124.32 401.523 127.78C400.803 130.61 400.283 131.28 397.133 132.98C394.093 134.62 393.073 134.46 389.143 134.46C386.463 134.46 386.033 134 383.323 133.57C381.353 133.26 378.563 134.07 376.743 133.57C374.603 132.98 375.703 134.48 374.953 132.98C374.193 131.44 374.533 128.92 375.983 125.41Z" fill="#B3B3B3"></path><path fill-rule="evenodd" clip-rule="evenodd" d="M426.07 114.859V116.599H382.08H367.09V114.859H380.7L385.83 85.3486H389.74L426.07 105.189V114.859Z" fill="#666666"></path><path fill-rule="evenodd" clip-rule="evenodd" d="M430.84 85.3486H387.13L383.39 114.859H426.07L430.84 85.3486Z" fill="#444444"></path><path fill-rule="evenodd" clip-rule="evenodd" d="M348.214 83.4497C342.854 95.7897 342.854 111.6 348.214 130.88C358.514 131.75 363.674 132.33 363.674 132.63L348.214 83.4497Z" fill="#003C66"></path><path fill-rule="evenodd" clip-rule="evenodd" d="M374.953 93.1799C374.953 123.36 374.953 146.55 374.953 162.75C370.553 164.96 373.793 170.66 369.123 170.05C364.523 161.03 357.553 137.87 348.213 100.58C344.333 94.1499 344.333 88.4399 348.213 83.4499C361.243 76.2599 370.163 79.4999 374.953 93.1799Z" fill="#14609E"></path><path fill-rule="evenodd" clip-rule="evenodd" d="M373.253 160.62C379.983 164.6 382.723 167.41 388.553 169.62C394.393 171.83 393.873 176.18 391.533 177.96C389.973 179.15 387.723 179.75 384.783 179.78L376.523 176.67C373.583 173.8 371.853 172.19 371.333 171.83C370.813 171.47 370.383 171.35 370.033 171.47L367.593 169.77V170.46C366.903 168.27 366.563 166.74 366.563 165.88C366.563 165.02 366.563 164.6 366.563 164.61L367.593 161.45C368.483 163.73 369.123 164.85 369.533 164.82C369.723 164.81 369.123 163.3 369.123 163.17C369.133 161.88 370.633 160.62 373.253 160.62Z" fill="#888888"></path><path fill-rule="evenodd" clip-rule="evenodd" d="M387.863 169.96C384.813 172.32 382.933 174.16 382.233 175.49C381.763 175.63 381.163 175.3 380.413 174.5C382.933 171.18 384.803 169.39 386.003 169.13C386.593 169.37 387.213 169.64 387.863 169.96Z" fill="#666666"></path><path fill-rule="evenodd" clip-rule="evenodd" d="M384.674 168.14C382.114 170.79 380.524 172.88 379.904 174.43C379.494 174.59 378.954 174.21 378.284 173.28C380.524 169.41 382.184 167.32 383.254 167.02C383.774 167.28 384.244 167.65 384.674 168.14Z" fill="#666666"></path><path fill-rule="evenodd" clip-rule="evenodd" d="M382.543 166.949C379.583 169.189 377.733 170.969 377.003 172.299C376.513 172.439 375.873 172.109 375.093 171.309C377.743 167.989 379.693 166.199 380.963 165.939C381.573 166.169 382.103 166.509 382.543 166.949Z" fill="#666666"></path><path d="M624.149 121.9C624.429 121.34 624.709 120.77 624.969 120.2C625.479 119.08 625.969 117.94 626.179 116.73C626.879 112.83 624.859 108.57 621.969 106.07C617.849 102.51 612.009 101.17 607.469 98.0098C607.719 99.5598 608.549 100.96 609.789 101.93C607.659 100.29 601.329 102.99 599.349 104C596.069 105.65 593.279 108.14 591.259 111.21C593.399 110.34 595.719 110.04 598.009 110.35C596.229 112.07 594.379 113.91 593.709 116.29C596.899 113.99 601.999 115.1 603.939 118.53C605.189 120.73 605.169 123.4 605.919 125.81C606.709 128.37 608.849 129.99 611.359 130.67C613.249 131.19 616.979 131.42 618.689 130.31C619.209 129.97 619.589 129.46 619.939 128.95C621.509 126.71 622.919 124.35 624.149 121.9Z" fill="#003C66"></path><path d="M622.159 125.68C620.469 125.68 619.099 124.31 619.099 122.62C619.099 120.93 620.469 119.56 622.159 119.56C623.849 119.56 625.219 120.93 625.219 122.62C625.219 124.31 623.849 125.68 622.159 125.68Z" fill="#94791A"></path><path d="M621.11 125.32C619.52 125.32 618.23 124.03 618.23 122.44C618.23 120.849 619.52 119.56 621.11 119.56C622.701 119.56 623.99 120.849 623.99 122.44C623.99 124.03 622.701 125.32 621.11 125.32Z" fill="#DFB726"></path><path d="M593.08 144.8C605.11 154.06 621.9 153.99 633.85 144.62L625.09 140.51C624.67 140.31 624.27 140.08 623.89 139.82C623.77 139.74 623.66 139.66 623.55 139.57C622.6 138.84 621.81 137.91 621.25 136.85C620.53 135.49 620.29 133.99 620.28 132.46C620.28 131.95 620.29 131.45 620.31 130.94C620.32 130.43 620.35 129.89 620.35 129.37C620.36 128.8 620.36 128.23 620.37 127.66L620.01 127.84L619.07 128.32L618.64 128.39L613.62 129.24L608.02 130.19L607.85 135.95L607.78 138.34L607.77 138.75V138.81L605.59 139.7L593.08 144.8Z" fill="#F7CA2C"></path><path d="M607.779 138.35L608.059 138.38C610.769 138.62 613.449 137.65 615.379 135.74L620.339 129.89C620.359 129.37 620.339 129.89 620.339 129.37C620.349 128.8 620.349 128.23 620.359 127.66L619.999 127.84L619.059 128.32L618.629 128.39L613.609 129.24L608.009 130.19L607.839 135.95L607.779 138.35Z" fill="#94791A"></path><path d="M620.61 116.91C621.17 117.41 621.53 118.09 621.63 118.83C622 122.35 620.7 126.5 620.33 130.02L613.77 134.85C611.59 136.48 608.81 137.07 606.16 136.46C605.1 136.21 604.43 136.05 603.96 135.2C603.04 133.58 600.78 128.04 600.63 124.13C600.59 123.02 600.62 121.33 601.3 120.38C601.63 119.92 601.8 119.91 601.68 119.26C601.56 118.58 601.38 117.91 601.23 117.24C601.01 116.27 600.95 115.27 601.05 114.28C601.15 113.38 601.15 112.58 601.24 111.66C601.29 111.22 601.48 109.27 601.48 109.27C602.62 110.99 604.69 111.89 606.59 112.49C609.19 113.3 611.89 113.69 614.52 114.37C616.28 114.83 619.1 115.48 620.61 116.91Z" fill="#F7CA2C"></path><path d="M612.83 119.62C611.73 119.63 611.73 121.31 612.83 121.32H612.88C613.98 121.31 613.98 119.63 612.88 119.62H612.83Z" fill="#00214E"></path><path d="M603.339 119.11C602.319 119.11 602.319 120.68 603.339 120.69H603.389C604.409 120.68 604.409 119.12 603.389 119.11H603.339Z" fill="#00214E"></path><path d="M612.02 127.71C611.16 128.68 609.97 129.3 608.68 129.45" stroke="#00214E" stroke-width="0.5"></path><path d="M615.379 117.61C613.709 117.26 611.999 117.22 610.319 117.47" stroke="#DAAEA8" stroke-width="0.5"></path><path d="M604.76 117.62C603.73 117.38 602.67 117.31 601.62 117.4" stroke="#DAAEA8" stroke-width="0.5"></path><path d="M593.08 144.8C605.11 154.06 621.9 153.99 633.85 144.62L625.09 140.51C624.67 140.31 624.27 140.08 623.89 139.82C623.77 139.74 623.66 139.66 623.55 139.57C619.31 142.59 613.53 144.49 608.52 142.24C607.33 141.7 606.23 140.83 605.59 139.71L593.08 144.8Z" fill="#DE8276"></path><path d="M609.799 124.68C610.069 124.82 610.199 125.13 610.099 125.42C609.999 125.71 609.719 125.88 609.419 125.83" stroke="#00214E" stroke-width="0.5"></path><path d="M607.029 119.46C606.579 121.18 606.209 122.88 605.779 124.6C605.729 124.76 605.709 124.92 605.729 125.09C605.809 125.58 606.399 125.79 606.889 125.89" stroke="#00214E" stroke-width="0.5"></path><path fill-rule="evenodd" clip-rule="evenodd" d="M599.655 338.172L591.155 353.342L583.345 361.832L591.155 365.332L599.655 361.832L602.505 353.342L608.895 347.912V340.572C610.445 338.432 610.415 337.142 608.805 336.722C607.185 336.312 604.145 336.792 599.655 338.172Z" fill="#710110"></path><path fill-rule="evenodd" clip-rule="evenodd" d="M620.334 233.222H594.204C593.134 245.212 593.134 255.932 594.204 265.392C595.274 274.852 596.414 282.552 597.614 288.492C593.494 300.292 592.354 309.892 594.204 317.292C596.044 324.682 596.874 333.562 596.684 343.932H612.084L614.224 296.192L616.354 284.322L618.464 246.442L620.334 233.222Z" fill="#0A304F"></path><path fill-rule="evenodd" clip-rule="evenodd" d="M619.544 350.072L638.274 359.812C639.964 364.522 639.964 367.322 638.274 368.232C635.674 369.622 631.384 369.112 625.404 366.692L607.094 356.862L608.904 346.612V337.042H615.184L619.544 339.282V350.072V350.072Z" fill="#710110"></path><path fill-rule="evenodd" clip-rule="evenodd" d="M638.273 232.062C638.273 253.782 638.273 267.872 638.273 274.352C638.273 277.732 639.653 288.462 638.273 295.722C635.683 309.352 629.233 321.482 626.813 325.132C624.343 328.862 621.563 334.292 618.473 341.422H608.803C608.843 318.082 611.863 302.852 617.843 295.722C618.483 277.692 617.743 272.502 615.733 262.762C614.543 257.022 611.463 246.742 612.893 229.782C621.343 226.282 629.813 227.042 638.273 232.062Z" fill="#003C66"></path><path fill-rule="evenodd" clip-rule="evenodd" d="M628.954 142.042C627.334 142.572 625.884 142.862 624.634 143.372C613.464 147.952 610.264 145.752 605.914 143.372C604.664 142.692 605.024 142.352 603.124 142.042C594.654 140.672 589.534 142.412 587.754 147.262C585.424 159.662 583.464 172.152 581.874 184.732C580.514 195.462 582.664 213.732 584.074 224.032C585.094 231.492 588.734 232.712 594.984 227.692L593.404 206.462L594.984 192.242V182.372V199.552L593.404 234.972C620.604 235.072 636.044 234.492 639.734 233.232C638.754 225.472 638.264 214.242 638.264 199.552C643.084 199.982 645.494 198.492 645.494 195.052C645.494 193.482 644.264 169.622 641.114 157.732C637.514 144.162 631.794 142.432 628.954 142.042Z" fill="#D84326"></path><path fill-rule="evenodd" clip-rule="evenodd" d="M625.244 184.682L623.254 194.182H600.614L602.414 179.942L603.674 162.222L627.844 164.302L625.244 184.682Z" fill="white"></path><path fill-rule="evenodd" clip-rule="evenodd" d="M628.435 186.812L626.445 196.312H603.805L605.605 182.072L606.875 164.352L631.045 166.432L628.435 186.812Z" fill="#0A5D5A"></path><path fill-rule="evenodd" clip-rule="evenodd" d="M629.135 179.092C634.175 184.412 634.815 188.392 631.045 191.022C630.755 191.222 629.435 192.142 629.135 192.282C626.695 193.382 621.285 189.782 612.885 181.472C608.875 182.242 606.875 182.242 606.875 181.472C606.875 180.702 605.595 180.702 603.025 181.472C601.305 175.352 601.305 172.292 603.025 172.292C604.745 172.292 606.035 172.292 606.875 172.292V169.552V167.492L612.885 172.292L618.255 176.132L629.135 179.092Z" fill="#F7CA2C"></path><path fill-rule="evenodd" clip-rule="evenodd" d="M629.604 178.202H631.044L634.104 182.122L635.484 186.252V187.962C635.314 189.862 634.854 190.982 634.104 191.302C633.354 191.622 632.334 192.332 631.044 193.442L627.854 194.192L626.934 192.482L629.604 191.912L631.404 190.182L632.954 188.292L633.464 186.262L632.954 183.662L631.404 181.862L630.054 180.002L629.134 179.112L629.604 178.202Z" fill="#B5001B"></path><path fill-rule="evenodd" clip-rule="evenodd" d="M592.344 229.142L597.164 237.442H594.754L592.344 247.282L590.004 250.092L584.954 247.282L587.084 229.142H592.344Z" fill="#F7CA2C"></path><path fill-rule="evenodd" clip-rule="evenodd" d="M628.894 142.042H629.994L628.894 144.012L624.414 144.752L619.774 146.742H616.074L612.524 147.542L609.484 146.742H607.604L605.974 145.402L604.594 144.792L602.994 144.012L601.354 142.042H603.804L606.494 143.582L609.484 144.792L613.484 145.402H616.894L621.394 144.012L625.554 143.202L626.754 142.042L627.724 141.252" fill="#B5001B"></path><path d="M363.23 45.7899C375.26 55.0499 392.05 54.9799 404 45.6099L395.24 41.4999C394.82 41.2999 394.42 41.0699 394.04 40.8099C393.92 40.7299 393.81 40.6499 393.7 40.5599C392.75 39.8299 391.96 38.8999 391.4 37.8399C390.97 37.0299 390.69 36.1399 390.56 35.2299C390.47 34.6399 390.43 34.0399 390.43 33.4499C390.43 32.8299 390.45 32.1999 390.47 31.5799C390.48 31.1699 390.49 30.7599 390.5 30.3599C390.51 29.7899 390.51 29.2199 390.52 28.6499L390.16 28.8299L389.22 29.3099L388.79 29.3799L383.77 30.2299L378.17 31.1799L378 36.9399L377.94 38.8199L377.91 39.7299V39.7899L377.73 39.8699L375.74 40.6799L363.23 45.7899Z" fill="#F7CA2C"></path><path d="M377.92 39.8197C378.54 39.9297 379.18 39.8297 379.73 39.5397L390.47 30.7597C390.48 30.3497 390.49 30.7797 390.5 30.3697C390.51 29.7997 390.51 29.2297 390.52 28.6597L390.16 28.8397L389.22 29.3197L388.79 29.3897L383.77 30.2397L378.17 31.1897L378 36.9497L377.94 38.8297L377.91 39.7397L377.92 39.8197Z" fill="#DFB726"></path><path d="M366.459 9.73988C366.479 9.84988 366.499 9.94988 366.519 10.0599C366.639 10.5999 366.849 11.1099 367.119 11.5899L367.129 11.6199C367.229 11.7999 367.339 11.9799 367.459 12.1599C367.779 12.6199 368.119 13.0599 368.489 13.4799L368.709 13.7299C368.859 13.8999 369.009 14.0599 369.159 14.2199C368.359 14.0399 367.579 14.7899 367.439 15.5899C367.299 16.3999 367.619 17.2099 368.019 17.9299C368.719 19.1999 369.719 20.0499 370.599 21.1599C371.259 21.9799 371.629 22.9599 372.349 23.7499L372.399 23.8099C374.309 25.8099 377.319 26.2799 379.819 27.1299C380.719 27.4399 390.479 30.2099 390.479 30.8199C390.479 30.6899 391.439 29.7399 392.639 28.5899C396.959 24.4899 398.379 18.1499 395.809 12.7099C393.049 6.85988 386.769 2.68988 380.799 0.679882C378.929 0.0498816 376.809 -0.370118 375.039 0.499882C373.269 1.36988 372.389 4.05988 373.859 5.36988C372.939 4.66988 371.789 4.33988 370.629 4.42988C369.559 4.49988 368.559 4.94988 367.799 5.69988C367.199 6.29988 366.769 7.04988 366.549 7.86988C366.389 8.47988 366.359 9.11988 366.459 9.73988Z" fill="#222222"></path><path d="M366.459 9.73997C366.479 9.84997 366.499 9.94997 366.519 10.06C366.539 10.09 366.549 10.12 366.569 10.16C366.769 10.62 366.869 11.12 367.109 11.59L367.119 11.62C367.219 11.8 367.329 11.98 367.449 12.16C367.759 12.62 368.109 13.07 368.479 13.48L368.709 13.73C368.859 13.9 369.009 14.06 369.159 14.22C368.359 14.04 367.579 14.79 367.439 15.59C367.299 16.4 367.619 17.21 368.019 17.93C368.719 19.2 369.719 20.05 370.599 21.16C371.259 21.98 371.629 22.96 372.349 23.75C373.189 22.75 373.719 21.54 373.889 20.25C374.189 17.86 374.009 15.26 374.089 12.85C374.139 11.33 374.629 11.05 373.719 9.81997C372.989 8.91997 372.139 8.10997 371.199 7.42997C370.469 6.94997 369.519 6.86997 368.639 6.98997C367.879 7.08997 367.159 7.40997 366.559 7.88997C366.389 8.47997 366.359 9.11997 366.459 9.73997Z" fill="black"></path><path d="M392.29 26.6801C390.6 26.6801 389.23 25.3101 389.23 23.6201C389.23 21.9301 390.6 20.5601 392.29 20.5601C393.98 20.5601 395.35 21.9301 395.35 23.6201C395.35 25.3101 393.98 26.6801 392.29 26.6801Z" fill="#F7CA2C"></path><path d="M391.321 26.3599C389.807 26.3599 388.581 25.1331 388.581 23.6199C388.581 22.1066 389.807 20.8799 391.321 20.8799C392.834 20.8799 394.061 22.1066 394.061 23.6199C394.061 25.1331 392.834 26.3599 391.321 26.3599Z" fill="#DFB726"></path><path d="M391.279 20.7398L390.489 30.9998L378.529 37.9898C376.819 38.6298 374.899 37.8598 374.089 36.2198C372.369 32.6998 369.609 27.1298 369.969 25.0598C370.509 21.9998 371.949 20.9198 371.949 20.9198C371.749 19.7198 371.549 18.5198 371.349 17.3298C371.119 15.9798 370.829 14.5698 371.169 13.2098C371.549 11.6498 372.729 10.9898 373.699 9.81982C376.249 13.0998 380.439 14.9598 384.099 16.8398C385.989 17.8198 391.279 20.7398 391.279 20.7398Z" fill="#F7CA2C"></path><path d="M382.439 20.3398C381.339 20.3398 381.339 22.0298 382.439 22.0398H382.489C383.589 22.0398 383.589 20.3498 382.489 20.3398H382.439Z" fill="#00214E"></path><path d="M373.419 20.0898C372.399 20.0998 372.399 21.6598 373.419 21.6598H373.469C374.489 21.6598 374.489 20.0898 373.469 20.0898H373.419Z" fill="#00214E"></path><path d="M377.859 19.8501C377.869 19.9101 375.459 26.3501 375.459 26.3501L378.689 26.5101" stroke="#00214E" stroke-width="0.9"></path><path d="M385.51 18.61C383.84 18.27 382.13 18.22 380.45 18.47" stroke="#00214E" stroke-width="0.9"></path><path d="M374.881 18.6298C373.851 18.3898 372.791 18.3198 371.741 18.4098" stroke="#00214E" stroke-width="0.9"></path><path d="M381.999 28.3101C381.949 28.2301 381.869 28.1801 381.779 28.1601C381.689 28.1401 381.589 28.1701 381.519 28.2201C381.149 28.4801 380.459 29.0401 379.489 29.2301C378.169 29.4901 377.019 28.9601 376.739 29.3101C376.589 29.5001 376.769 29.7401 377.139 30.0301C377.909 30.6001 378.869 30.8401 379.809 30.6901C381.079 30.4501 382.039 28.9701 382.039 28.4501C382.039 28.4101 382.019 28.3601 381.999 28.3101Z" fill="white"></path></svg> 