<?xml version="1.0" encoding="UTF-8"?> <svg xmlns="http://www.w3.org/2000/svg" width="748" height="634" viewBox="0 0 748 634" fill="none"><path opacity="0.7413" fill-rule="evenodd" clip-rule="evenodd" d="M462 514C525.51 514 577 522.06 577 532C577 534.5 573.75 536.87 567.89 539.03C570.24 539.01 572.61 539 575 539C638.51 539 690 547.06 690 557C690 566.94 638.51 575 575 575C549.33 575 525.63 573.68 506.5 571.46C487.37 573.68 463.67 575 438 575C422.13 575 407.01 574.5 393.26 573.59C390.17 580.07 377.44 586.02 357.84 590.9C380.1 594.18 394 598.83 394 604C394 608.92 381.41 613.37 361.01 616.62C350.17 626.6 311.07 634 264.5 634C209.55 634 165 623.7 165 611C165 609.86 165.36 608.73 166.06 607.63L166.16 607.48C164.75 606.35 164 605.19 164 603.99C164 603.43 164.16 602.88 164.48 602.33C94.53 597.96 44 585.36 44 570.5C44 552 122.35 537 219 537C267.45 537 311.3 540.77 342.98 546.86C350.11 545.23 358.92 543.78 369.02 542.6C355.17 539.62 347 535.96 347 532C347 522.06 398.49 514 462 514Z" fill="#DEEEEC"></path><path fill-rule="evenodd" clip-rule="evenodd" d="M724.081 142.39C723.611 142.05 722.501 141.93 721.981 141.83C719.831 141.41 717.611 141.22 715.411 141.22C708.641 141.23 701.761 141.89 695.101 143.04C690.871 143.77 685.761 146.23 681.561 144.89C674.231 142.56 666.831 142.68 659.881 146C653.531 149.04 648.701 154.8 645.891 161.03C645.471 161.97 643.741 165.43 643.251 167.76C643.041 168.24 642.841 168.72 642.661 169.2C642.151 170.58 641.691 171.99 641.261 173.4C641.081 174 640.621 175.33 641.161 175.59C640.291 177.2 639.521 178.85 638.871 180.56C637.001 185.53 634.961 190.99 634.301 196.26C634.061 198.21 634.051 200.18 634.271 202.13C634.381 203.1 634.341 205.04 634.991 205.78C636.381 207.34 637.091 205.16 636.941 204.12C635.741 196.19 638.051 188.75 640.791 181.3C642.561 176.48 645.471 172.08 648.731 168.08C651.371 164.85 654.201 162.3 657.821 160.16C662.241 157.54 666.971 155.42 671.661 153.3C674.741 151.9 677.831 150.54 681.001 149.34C681.701 149.07 682.811 148.39 683.591 148.38C685.241 148.37 687.581 149.59 689.181 150.05C694.431 151.54 699.741 153.45 705.171 154.21C708.651 154.7 711.911 154.15 715.161 152.99C715.491 152.87 716.051 152.57 716.731 152.13C719.151 151.2 721.431 150.03 723.421 148.34C724.571 147.37 725.611 146.11 726.561 144.96C726.841 144.62 726.971 144.22 726.971 143.85C727.181 143.74 727.331 143.61 727.361 143.45C727.621 142.34 725.461 142.32 724.081 142.39Z" fill="#A1CECB"></path><path fill-rule="evenodd" clip-rule="evenodd" d="M50.4513 248.06C49.1213 249.14 47.8213 250.23 46.5513 251.38C45.5813 252.25 43.8713 253.29 43.5213 254.61C43.1613 255.98 44.3013 257.27 45.2013 258.09C49.9713 262.48 55.3313 265.44 61.9413 265.93C72.1113 266.69 80.9613 264.09 89.7913 258.98C95.9913 255.39 100.091 250.08 100.991 242.91C108.371 245.98 115.511 250.21 121.581 255.4C124.571 257.96 127.151 260.8 129.541 263.94C131.071 265.95 132.541 268 133.921 270.13C134.521 271.05 135.121 272.69 136.111 273.22C137.271 273.84 138.661 272.87 138.601 271.58C138.551 270.51 137.401 269.27 136.861 268.4C135.961 266.95 135.051 265.51 134.101 264.1C132.551 261.82 130.951 259.56 129.201 257.42C125.271 252.62 120.271 248.65 115.091 245.26C105.151 238.77 94.2413 234.68 82.1513 234.33C74.7113 234.12 68.4613 236.66 62.1013 240.45C58.1313 242.83 54.0413 245.15 50.4513 248.06Z" fill="#DDE3E9"></path><path fill-rule="evenodd" clip-rule="evenodd" d="M143.26 202.76C135.51 194.78 127.74 186.9 119.08 179.87C113.98 175.73 108.6 171.96 103.33 168.04C103.94 168.57 104.53 169.12 105.12 169.68C103.48 168.56 101.32 167.93 99.5805 166.9C97.6405 165.75 95.7805 164.43 93.9605 163.1C90.4005 160.51 86.9005 157.87 83.2405 155.41C79.1705 152.67 74.9405 150.14 70.8005 147.51C67.2805 145.27 63.7205 142.83 59.9605 141C57.9105 140 55.8505 138.82 53.8005 137.78C53.1105 137.43 46.1205 133.02 46.1405 133C46.5305 132.71 50.0505 134.36 50.5905 134.58C52.1805 135.23 53.7005 136.01 55.2305 136.78C54.3905 135.13 53.7305 133.39 53.3705 131.56C53.2605 131 52.3605 126.88 52.8205 126.54C53.0505 126.37 55.2805 133.72 55.3905 134.43C55.4805 135 55.4705 135.83 55.6605 136.38C55.9605 137.26 55.9505 136.99 56.6205 137.49C57.8505 138.4 59.4705 138.96 60.8005 139.72C61.5205 140.12 63.7305 141.7 65.0605 142.15C69.1005 144.11 73.1905 147.13 77.0205 149.63C76.0105 147.74 75.2505 145.76 74.6905 143.69C74.5605 143.2 73.1205 138.78 73.4705 138.52C73.8605 138.23 76.5905 144.97 76.7505 145.61C77.0505 146.8 77.1105 148.12 77.4905 149.27C77.9005 150.54 79.1905 150.99 80.3505 151.72C84.6205 154.44 88.7505 157.32 92.8105 160.34C97.2405 152.46 92.1305 142.95 87.8305 136.34C84.7305 131.58 80.5505 127.49 76.1405 123.93C70.2605 119.17 63.5205 115.37 56.8005 111.89C48.9605 107.84 40.5005 105.33 31.6905 104.17C27.0805 103.56 22.3705 103.58 17.7205 103.77C15.4505 103.86 13.2705 104.17 11.0905 104.91C10.1105 105.24 9.1605 105.67 8.2405 106.14C7.5405 106.5 5.8405 106.88 5.4305 107.41C2.1105 111.74 0.410499 116.05 0.670499 121.48C0.920499 126.63 2.5405 131.78 4.7505 136.37C7.2105 141.48 10.3705 146.12 14.5005 150.01C17.6505 152.98 21.1805 155.57 24.6805 158.12C37.1305 167.2 52.9205 175.09 69.0505 173.06C74.2705 172.4 79.2405 170.58 83.8805 168.1C84.9705 167.52 86.0605 166.92 87.0905 166.23C87.7905 165.76 89.6505 163.67 90.3505 163.59C91.3105 163.49 93.3805 165.44 94.2805 166.03C101.12 170.55 107.78 175.31 114.3 180.26C121.24 185.53 127.841 191.16 134.241 197.05C136.961 199.56 139.671 202.07 142.321 204.66C142.941 205.26 144.441 207.48 145.561 207.58C146.271 207.64 146.741 207.04 146.641 206.39C146.441 205.28 144.05 203.58 143.26 202.76Z" fill="#A1CECB"></path><path fill-rule="evenodd" clip-rule="evenodd" d="M715.481 183.13C712.481 182.47 709.161 182.52 706.111 182.58C689.711 182.8 673.611 190.57 663.131 202.97C654.211 213.53 651.761 226.66 649.991 239.93C649.821 241.25 649.741 242.56 649.641 243.88C649.621 244.16 649.591 244.42 649.551 244.65C648.861 245.27 648.491 245.99 648.901 246.79C647.371 250.13 646.081 253.56 644.971 257.09C641.711 267.49 638.391 278.09 640.431 289.03C640.911 283.01 641.911 276.86 643.111 270.94C643.181 270.6 643.251 270.26 643.331 269.93C643.341 269.89 643.351 269.86 643.351 269.82C643.781 268.01 644.331 266.25 645.001 264.52C645.011 264.5 645.011 264.48 645.021 264.46C645.111 264.23 645.201 264.01 645.301 263.78C645.491 263.31 645.691 262.84 645.901 262.38C645.971 262.22 646.041 262.06 646.101 261.9C647.081 259.5 647.491 256.8 648.371 254.32C648.581 253.76 648.801 253.19 649.031 252.63C649.041 252.6 649.061 252.56 649.071 252.53C649.691 251.02 650.381 249.54 651.101 248.07C651.491 247.77 651.711 247.04 652.051 246.37C652.121 246.24 652.671 245.36 652.831 244.85C653.261 244.02 653.681 243.2 654.111 242.37C654.101 242.37 654.081 242.38 654.071 242.38C654.501 241.59 654.931 240.8 655.361 240.01C655.451 239.84 655.551 239.66 655.641 239.49C655.791 239.21 655.951 238.94 656.101 238.66C657.541 236.09 659.061 233.57 660.641 231.08C661.201 230.19 662.551 228.92 662.811 227.92C662.821 227.88 662.821 227.85 662.831 227.81C666.261 222.99 670.211 218.54 674.951 215.02C674.381 215.64 673.161 217.74 672.841 218.16C671.861 219.43 670.791 220.62 669.711 221.82C667.791 223.97 665.911 226.19 664.241 228.53C661.191 232.82 658.561 237.33 656.071 241.94C656.051 241.97 656.021 241.99 656.001 242.02C654.751 243.56 653.961 245.89 653.061 247.65C656.621 246 660.561 244.93 664.211 243.46C667.851 242 671.401 240.37 674.821 238.47C679.371 235.93 684.091 233.07 688.391 229.83C693.321 226.77 697.451 222.57 701.111 218.16C705.431 212.94 709.391 207.67 711.841 201.33C713.041 198.21 713.991 194.97 714.551 191.68C714.571 191.54 714.611 191.38 714.641 191.22C715.211 190.08 715.731 188.92 716.161 187.74C716.891 185.86 718.511 183.79 715.481 183.13Z" fill="#127771"></path><path fill-rule="evenodd" clip-rule="evenodd" d="M80.1414 201.21C79.2014 200.19 78.1414 199.27 76.9014 198.62C76.5914 198.45 74.2514 197.35 74.1014 197.59C73.7514 198.15 79.8614 200.88 80.1414 201.21ZM91.2214 194.41C91.2114 194.45 92.0214 195.83 92.2414 196.25C92.7114 197.15 93.1414 198.06 93.5514 198.98C92.9514 197.36 92.3314 195.85 91.2214 194.41ZM34.5914 205.59C33.8114 205.84 32.8714 204.85 33.8814 204.61C34.7014 204.41 34.6614 204.37 35.0314 203.71C35.3314 203.17 35.5114 202.52 35.7714 201.96C36.3314 200.77 36.9614 199.63 37.7314 198.57C39.3914 196.29 41.4114 194.32 43.6714 192.66C47.6214 189.77 52.0614 187.12 56.7614 185.8C64.2414 183.69 72.7414 183.56 80.2314 185.02C84.8714 185.93 89.1114 187.5 92.1814 191.24C93.7214 193.11 94.9314 195.29 95.4614 197.7C95.6014 198.33 95.5714 199.03 95.7414 199.64C96.0114 200.59 95.8914 200.33 97.0014 200.52C98.2114 200.72 99.4214 200.93 100.631 201.14C103.791 201.69 106.981 202.27 110.061 203.16C111.071 203.45 112.071 203.81 113.041 204.22C113.771 204.53 116.691 205.52 117.051 206.47C117.641 208.05 115.661 207.34 115.051 206.99C114.511 206.69 113.961 206.41 113.401 206.15C111.991 205.5 110.521 204.99 109.011 204.59C107.381 204.16 105.721 203.83 104.071 203.51C102.531 203.21 100.981 202.93 99.4314 202.67C98.5714 202.52 97.7114 202.38 96.8514 202.24C96.5614 202.19 96.0414 201.94 96.0814 202.32C94.2714 201.97 92.3114 202.02 90.4714 201.92C88.2114 201.8 85.9414 201.71 83.6814 201.78C82.0514 201.83 80.4114 201.94 78.7814 202.16C77.8314 202.29 76.8914 202.48 75.9614 202.71C75.4514 202.84 73.4314 203.12 73.1514 203.56C73.2714 203.37 75.5014 203.55 75.7814 203.54C76.9114 203.5 78.0414 203.39 79.1714 203.26C81.2714 203.03 83.3714 202.9 85.4714 202.92C85.4614 203.29 84.0214 203.95 83.6714 204.19C82.8814 204.74 82.1314 205.34 81.4314 206C80.1914 207.16 78.7114 208.59 77.8514 209.96C78.1014 209.56 79.3514 209.03 79.7914 208.72C80.5014 208.23 81.1914 207.7 81.8514 207.13C82.4614 206.61 83.0214 206.05 83.5814 205.47C84.1414 204.89 84.8914 203.7 85.6214 203.32C85.6614 203.3 85.9814 203.55 86.1614 203.46C86.3414 203.37 86.5714 202.94 86.6214 202.93C87.3014 202.67 88.5914 202.99 89.3114 203.03C91.1614 203.12 93.0214 203.23 94.8714 203.33C95.4414 203.36 95.9314 203.23 96.1514 203.65C96.3814 204.1 95.9614 205.29 95.8414 205.78C95.3914 207.61 94.6014 209.25 93.3514 210.66C91.0114 213.31 88.1314 215.08 84.8714 216.26C72.3914 220.79 59.1114 222.6 46.6314 217.89C41.4414 215.93 33.6614 212.45 34.5914 205.59Z" fill="#89C5CC"></path><g opacity="0.6"><path opacity="0.6" fill-rule="evenodd" clip-rule="evenodd" d="M747.678 478.26C758.418 556.15 497.888 606.95 273.638 571.49C49.3875 536.03 -53.4924 397.59 53.5176 323.82C160.528 250.05 736.938 400.37 747.678 478.26Z" fill="#E7F2F1"></path></g><path fill-rule="evenodd" clip-rule="evenodd" d="M146.28 36.8149H272.12C276.01 36.8149 279.16 39.9649 279.16 43.8549V295.535C279.16 299.425 276.01 302.575 272.12 302.575H146.28C142.39 302.575 139.24 299.425 139.24 295.535V43.8549C139.24 39.9649 142.39 36.8149 146.28 36.8149Z" fill="#F2F2F2"></path><path d="M208.761 285.855C216.051 285.855 221.961 279.945 221.961 272.655C221.961 265.365 216.051 259.455 208.761 259.455C201.47 259.455 195.561 265.365 195.561 272.655C195.561 279.945 201.47 285.855 208.761 285.855Z" fill="white"></path><path d="M197.321 54.415C198.293 54.415 199.081 53.627 199.081 52.655C199.081 51.683 198.293 50.895 197.321 50.895C196.349 50.895 195.561 51.683 195.561 52.655C195.561 53.627 196.349 54.415 197.321 54.415Z" fill="white"></path><path fill-rule="evenodd" clip-rule="evenodd" d="M205.24 50.895H220.2C221.17 50.895 221.96 51.685 221.96 52.655C221.96 53.625 221.17 54.415 220.2 54.415H205.24C204.27 54.415 203.48 53.625 203.48 52.655C203.48 51.685 204.27 50.895 205.24 50.895Z" fill="white"></path><path fill-rule="evenodd" clip-rule="evenodd" d="M155.081 61.4551H263.321C265.261 61.4551 266.841 63.0351 266.841 64.9751V105.455C266.841 107.395 265.261 108.975 263.321 108.975H155.081C153.141 108.975 151.561 107.395 151.561 105.455V64.9751C151.561 63.0351 153.141 61.4551 155.081 61.4551Z" fill="white"></path><path fill-rule="evenodd" clip-rule="evenodd" d="M188.521 75.7109H247.481C248.941 75.7109 250.121 76.8909 250.121 78.3509V80.2009C250.121 81.6609 248.941 82.8409 247.481 82.8409H188.521C187.061 82.8409 185.881 81.6609 185.881 80.2009V78.3509C185.881 76.8909 187.061 75.7109 188.521 75.7109Z" fill="#DDE3E9"></path><path fill-rule="evenodd" clip-rule="evenodd" d="M188.521 87.5908H226.361C227.821 87.5908 229.001 88.7708 229.001 90.2308V92.0808C229.001 93.5408 227.821 94.7208 226.361 94.7208H188.521C187.061 94.7208 185.881 93.5408 185.881 92.0808V90.2308C185.881 88.7708 187.061 87.5908 188.521 87.5908Z" fill="#DDE3E9"></path><path d="M170.04 95.7753C175.873 95.7753 180.6 91.0474 180.6 85.2153C180.6 79.3831 175.873 74.6553 170.04 74.6553C164.208 74.6553 159.48 79.3831 159.48 85.2153C159.48 91.0474 164.208 95.7753 170.04 95.7753Z" fill="#C5CFD6"></path><path fill-rule="evenodd" clip-rule="evenodd" d="M155.081 116.015H263.321C265.261 116.015 266.841 117.595 266.841 119.535V149.455C266.841 151.395 265.261 152.975 263.321 152.975H155.081C153.141 152.975 151.561 151.395 151.561 149.455V119.535C151.561 117.595 153.141 116.015 155.081 116.015Z" fill="white"></path><path fill-rule="evenodd" clip-rule="evenodd" d="M188.521 127.103H247.481C248.941 127.103 250.121 128.283 250.121 129.743V130.003C250.121 131.463 248.941 132.643 247.481 132.643H188.521C187.061 132.643 185.881 131.463 185.881 130.003V129.743C185.881 128.283 187.061 127.103 188.521 127.103Z" fill="#DDE3E9"></path><path fill-rule="evenodd" clip-rule="evenodd" d="M188.521 136.343H226.361C227.821 136.343 229.001 137.523 229.001 138.983V139.243C229.001 140.703 227.821 141.883 226.361 141.883H188.521C187.061 141.883 185.881 140.703 185.881 139.243V138.983C185.881 137.523 187.061 136.343 188.521 136.343Z" fill="#DDE3E9"></path><path d="M170.04 145.055C175.873 145.055 180.6 140.327 180.6 134.495C180.6 128.663 175.873 123.935 170.04 123.935C164.208 123.935 159.48 128.663 159.48 134.495C159.48 140.327 164.208 145.055 170.04 145.055Z" fill="#C5CFD6"></path><path fill-rule="evenodd" clip-rule="evenodd" d="M155.081 160.015H263.321C265.261 160.015 266.841 161.595 266.841 163.535V193.455C266.841 195.395 265.261 196.975 263.321 196.975H155.081C153.141 196.975 151.561 195.395 151.561 193.455V163.535C151.561 161.595 153.141 160.015 155.081 160.015Z" fill="white"></path><path fill-rule="evenodd" clip-rule="evenodd" d="M188.521 171.103H247.481C248.941 171.103 250.121 172.283 250.121 173.743V174.003C250.121 175.463 248.941 176.643 247.481 176.643H188.521C187.061 176.643 185.881 175.463 185.881 174.003V173.743C185.881 172.283 187.061 171.103 188.521 171.103Z" fill="#DDE3E9"></path><path fill-rule="evenodd" clip-rule="evenodd" d="M188.521 180.343H226.361C227.821 180.343 229.001 181.523 229.001 182.983V183.243C229.001 184.703 227.821 185.883 226.361 185.883H188.521C187.061 185.883 185.881 184.703 185.881 183.243V182.983C185.881 181.523 187.061 180.343 188.521 180.343Z" fill="#DDE3E9"></path><path d="M170.04 189.055C175.873 189.055 180.6 184.327 180.6 178.495C180.6 172.663 175.873 167.935 170.04 167.935C164.208 167.935 159.48 172.663 159.48 178.495C159.48 184.327 164.208 189.055 170.04 189.055Z" fill="#AFB9C5"></path><path fill-rule="evenodd" clip-rule="evenodd" d="M155.081 204.015H263.321C265.261 204.015 266.841 205.595 266.841 207.535V237.455C266.841 239.395 265.261 240.975 263.321 240.975H155.081C153.141 240.975 151.561 239.395 151.561 237.455V207.535C151.561 205.595 153.141 204.015 155.081 204.015Z" fill="white"></path><path fill-rule="evenodd" clip-rule="evenodd" d="M188.521 215.103H247.481C248.941 215.103 250.121 216.283 250.121 217.743V218.003C250.121 219.463 248.941 220.643 247.481 220.643H188.521C187.061 220.643 185.881 219.463 185.881 218.003V217.743C185.881 216.283 187.061 215.103 188.521 215.103Z" fill="#DDE3E9"></path><path fill-rule="evenodd" clip-rule="evenodd" d="M188.521 224.343H226.361C227.821 224.343 229.001 225.523 229.001 226.983V227.243C229.001 228.703 227.821 229.883 226.361 229.883H188.521C187.061 229.883 185.881 228.703 185.881 227.243V226.983C185.881 225.523 187.061 224.343 188.521 224.343Z" fill="#DDE3E9"></path><path d="M170.04 233.055C175.873 233.055 180.6 228.327 180.6 222.495C180.6 216.663 175.873 211.935 170.04 211.935C164.208 211.935 159.48 216.663 159.48 222.495C159.48 228.327 164.208 233.055 170.04 233.055Z" fill="#C5CFD6"></path><path fill-rule="evenodd" clip-rule="evenodd" d="M175.669 255.305C174.509 255.305 173.339 255.325 172.179 255.385C171.289 255.435 169.939 255.255 169.189 255.805C168.409 256.375 168.459 257.555 168.589 258.385C169.229 262.775 170.809 266.675 174.099 269.785C179.169 274.575 184.969 277.015 191.849 278.095C196.679 278.855 201.129 277.795 204.689 274.365C207.289 279.185 209.259 284.515 210.239 289.895C210.729 292.555 210.879 295.175 210.789 297.875C210.729 299.605 210.639 301.335 210.449 303.055C210.369 303.805 209.989 304.935 210.279 305.645C210.619 306.475 211.779 306.555 212.309 305.845C212.739 305.255 212.659 304.095 212.749 303.395C212.899 302.235 213.029 301.075 213.129 299.905C213.289 298.015 213.409 296.125 213.399 294.235C213.379 289.985 212.429 285.715 211.139 281.675C208.659 273.925 204.629 267.045 198.369 261.645C194.519 258.325 190.109 256.975 185.109 256.255C181.989 255.835 178.829 255.305 175.669 255.305Z" fill="#89C5CC"></path><path fill-rule="evenodd" clip-rule="evenodd" d="M193.649 286.104C181.069 286.104 172.599 296.244 168.589 306.784C167.079 310.754 166.729 315.124 166.139 319.294C165.949 320.634 166.019 322.674 165.479 323.864C165.279 324.294 164.829 324.454 165.049 325.044C165.179 325.404 165.439 325.624 165.819 325.694C166.609 325.844 167.729 324.974 168.409 324.634C174.039 321.814 177.739 317.444 180.749 312.104C182.619 308.794 184.519 305.354 185.629 301.724C186.309 299.504 186.699 297.164 186.939 294.864C187.029 293.954 187.119 293.024 187.109 292.114C187.099 291.204 186.679 290.734 186.379 289.944C190.579 288.354 195.319 287.924 199.569 289.564C203.499 291.084 206.769 294.034 208.599 297.734C209.079 298.694 209.439 299.714 209.709 300.744C209.879 301.424 209.889 302.304 210.219 302.914C211.009 304.394 212.659 303.404 212.499 302.024C212.059 298.164 209.849 294.294 207.029 291.614C203.479 288.234 198.659 286.104 193.649 286.104Z" fill="#89C5CC"></path><path fill-rule="evenodd" clip-rule="evenodd" d="M214.269 63.4648H340.109C343.999 63.4648 347.149 66.6148 347.149 70.5048V322.185C347.149 326.075 343.999 329.225 340.109 329.225H214.269C210.379 329.225 207.229 326.075 207.229 322.185V70.5048C207.229 66.6148 210.379 63.4648 214.269 63.4648Z" fill="#DDE3E9"></path><path d="M276.749 312.505C284.039 312.505 289.949 306.595 289.949 299.305C289.949 292.015 284.039 286.105 276.749 286.105C269.459 286.105 263.549 292.015 263.549 299.305C263.549 306.595 269.459 312.505 276.749 312.505Z" fill="white"></path><path d="M265.309 81.0649C266.281 81.0649 267.069 80.2769 267.069 79.3049C267.069 78.3329 266.281 77.5449 265.309 77.5449C264.337 77.5449 263.549 78.3329 263.549 79.3049C263.549 80.2769 264.337 81.0649 265.309 81.0649Z" fill="white"></path><path fill-rule="evenodd" clip-rule="evenodd" d="M273.229 77.5449H288.189C289.159 77.5449 289.949 78.3349 289.949 79.3049C289.949 80.2749 289.159 81.0649 288.189 81.0649H273.229C272.259 81.0649 271.469 80.2749 271.469 79.3049C271.469 78.3349 272.259 77.5449 273.229 77.5449Z" fill="white"></path><path fill-rule="evenodd" clip-rule="evenodd" d="M223.069 88.105H331.309C333.249 88.105 334.829 89.685 334.829 91.625V132.105C334.829 134.045 333.249 135.625 331.309 135.625H223.069C221.129 135.625 219.549 134.045 219.549 132.105V91.625C219.549 89.685 221.129 88.105 223.069 88.105Z" fill="white"></path><path fill-rule="evenodd" clip-rule="evenodd" d="M230.109 102.361H289.069C290.529 102.361 291.709 103.541 291.709 105.001V106.851C291.709 108.311 290.529 109.491 289.069 109.491H230.109C228.649 109.491 227.469 108.311 227.469 106.851V105.001C227.469 103.541 228.649 102.361 230.109 102.361Z" fill="#DDE3E9"></path><path fill-rule="evenodd" clip-rule="evenodd" d="M230.109 114.241H267.949C269.409 114.241 270.589 115.421 270.589 116.881V118.731C270.589 120.191 269.409 121.371 267.949 121.371H230.109C228.649 121.371 227.469 120.191 227.469 118.731V116.881C227.469 115.421 228.649 114.241 230.109 114.241Z" fill="#DDE3E9"></path><path d="M322.51 118.025C325.912 118.025 328.67 115.267 328.67 111.865C328.67 108.463 325.912 105.705 322.51 105.705C319.108 105.705 316.35 108.463 316.35 111.865C316.35 115.267 319.108 118.025 322.51 118.025Z" fill="#DDE3E9"></path><path d="M322.509 114.505C323.967 114.505 325.149 113.323 325.149 111.865C325.149 110.407 323.967 109.225 322.509 109.225C321.051 109.225 319.869 110.407 319.869 111.865C319.869 113.323 321.051 114.505 322.509 114.505Z" fill="#F2F2F2"></path><path fill-rule="evenodd" clip-rule="evenodd" d="M223.069 142.665H331.309C333.249 142.665 334.829 144.245 334.829 146.185V176.105C334.829 178.045 333.249 179.625 331.309 179.625H223.069C221.129 179.625 219.549 178.045 219.549 176.105V146.185C219.549 144.245 221.129 142.665 223.069 142.665Z" fill="white"></path><path fill-rule="evenodd" clip-rule="evenodd" d="M256.509 153.753H315.469C316.929 153.753 318.109 154.933 318.109 156.393V156.653C318.109 158.113 316.929 159.293 315.469 159.293H256.509C255.049 159.293 253.869 158.113 253.869 156.653V156.393C253.869 154.933 255.049 153.753 256.509 153.753Z" fill="#DDE3E9"></path><path fill-rule="evenodd" clip-rule="evenodd" d="M256.509 162.993H294.349C295.809 162.993 296.989 164.173 296.989 165.633V165.893C296.989 167.353 295.809 168.533 294.349 168.533H256.509C255.049 168.533 253.869 167.353 253.869 165.893V165.633C253.869 164.173 255.049 162.993 256.509 162.993Z" fill="#DDE3E9"></path><path d="M238.029 171.705C243.861 171.705 248.589 166.977 248.589 161.145C248.589 155.313 243.861 150.585 238.029 150.585C232.197 150.585 227.469 155.313 227.469 161.145C227.469 166.977 232.197 171.705 238.029 171.705Z" fill="#C5CFD6"></path><path fill-rule="evenodd" clip-rule="evenodd" d="M223.069 186.665H331.309C333.249 186.665 334.829 188.245 334.829 190.185V220.105C334.829 222.045 333.249 223.625 331.309 223.625H223.069C221.129 223.625 219.549 222.045 219.549 220.105V190.185C219.549 188.245 221.129 186.665 223.069 186.665Z" fill="white"></path><path fill-rule="evenodd" clip-rule="evenodd" d="M230.109 197.753H289.069C290.529 197.753 291.709 198.933 291.709 200.393V200.653C291.709 202.113 290.529 203.293 289.069 203.293H230.109C228.649 203.293 227.469 202.113 227.469 200.653V200.393C227.469 198.933 228.649 197.753 230.109 197.753Z" fill="#DDE3E9"></path><path fill-rule="evenodd" clip-rule="evenodd" d="M230.109 206.993H267.949C269.409 206.993 270.589 208.173 270.589 209.633V209.893C270.589 211.353 269.409 212.533 267.949 212.533H230.109C228.649 212.533 227.469 211.353 227.469 209.893V209.633C227.469 208.173 228.649 206.993 230.109 206.993Z" fill="#AFB9C5"></path><path d="M322.51 211.305C325.912 211.305 328.67 208.547 328.67 205.145C328.67 201.743 325.912 198.985 322.51 198.985C319.108 198.985 316.35 201.743 316.35 205.145C316.35 208.547 319.108 211.305 322.51 211.305Z" fill="#DDE3E9"></path><path d="M322.509 207.785C323.967 207.785 325.149 206.603 325.149 205.145C325.149 203.687 323.967 202.505 322.509 202.505C321.051 202.505 319.869 203.687 319.869 205.145C319.869 206.603 321.051 207.785 322.509 207.785Z" fill="#F2F2F2"></path><path fill-rule="evenodd" clip-rule="evenodd" d="M223.069 230.665H331.309C333.249 230.665 334.829 232.245 334.829 234.185V264.105C334.829 266.045 333.249 267.625 331.309 267.625H223.069C221.129 267.625 219.549 266.045 219.549 264.105V234.185C219.549 232.245 221.129 230.665 223.069 230.665Z" fill="white"></path><path fill-rule="evenodd" clip-rule="evenodd" d="M256.509 241.753H315.469C316.929 241.753 318.109 242.933 318.109 244.393V244.653C318.109 246.113 316.929 247.293 315.469 247.293H256.509C255.049 247.293 253.869 246.113 253.869 244.653V244.393C253.869 242.933 255.049 241.753 256.509 241.753Z" fill="#DDE3E9"></path><path fill-rule="evenodd" clip-rule="evenodd" d="M256.509 250.993H294.349C295.809 250.993 296.989 252.173 296.989 253.633V253.893C296.989 255.353 295.809 256.533 294.349 256.533H256.509C255.049 256.533 253.869 255.353 253.869 253.893V253.633C253.869 252.173 255.049 250.993 256.509 250.993Z" fill="#DDE3E9"></path><path d="M238.029 259.705C243.861 259.705 248.589 254.977 248.589 249.145C248.589 243.313 243.861 238.585 238.029 238.585C232.197 238.585 227.469 243.313 227.469 249.145C227.469 254.977 232.197 259.705 238.029 259.705Z" fill="#C5CFD6"></path><path fill-rule="evenodd" clip-rule="evenodd" d="M313.829 92.3027H594.549C598.439 92.3027 601.589 95.4527 601.589 99.3427V389.743C601.589 393.633 598.439 396.783 594.549 396.783H313.829C309.939 396.783 306.789 393.633 306.789 389.743V99.3427C306.789 95.4527 309.939 92.3027 313.829 92.3027Z" fill="#F2F2F2"></path><path fill-rule="evenodd" clip-rule="evenodd" d="M532.948 130.143H580.468C584.358 130.143 587.508 133.293 587.508 137.183V194.383C587.508 198.273 584.358 201.423 580.468 201.423H532.948C529.058 201.423 525.908 198.273 525.908 194.383V137.183C525.908 133.293 529.058 130.143 532.948 130.143Z" fill="white"></path><path d="M556.709 171.503C564.485 171.503 570.789 165.199 570.789 157.423C570.789 149.647 564.485 143.343 556.709 143.343C548.933 143.343 542.629 149.647 542.629 157.423C542.629 165.199 548.933 171.503 556.709 171.503Z" fill="#DDE3E9"></path><path fill-rule="evenodd" clip-rule="evenodd" d="M537.349 175.023H576.069C577.529 175.023 578.709 176.203 578.709 177.663C578.709 179.123 577.529 180.303 576.069 180.303H537.349C535.889 180.303 534.709 179.123 534.709 177.663C534.709 176.203 535.889 175.023 537.349 175.023Z" fill="#DDE3E9"></path><path fill-rule="evenodd" clip-rule="evenodd" d="M544.388 183.823H569.028C570.488 183.823 571.668 185.003 571.668 186.463C571.668 187.923 570.488 189.103 569.028 189.103H544.388C542.928 189.103 541.748 187.923 541.748 186.463C541.748 185.003 542.928 183.823 544.388 183.823Z" fill="#DDE3E9"></path><path fill-rule="evenodd" clip-rule="evenodd" d="M313.829 92.3027H594.549C598.439 92.3027 601.589 95.4527 601.589 99.3427V116.063H306.789V99.3427C306.789 95.4527 309.939 92.3027 313.829 92.3027Z" fill="#C5CFD6"></path><path d="M318.229 108.143C320.173 108.143 321.749 106.567 321.749 104.623C321.749 102.678 320.173 101.103 318.229 101.103C316.285 101.103 314.709 102.678 314.709 104.623C314.709 106.567 316.285 108.143 318.229 108.143Z" fill="#F2F2F2"></path><path d="M328.79 108.143C330.734 108.143 332.31 106.567 332.31 104.623C332.31 102.678 330.734 101.103 328.79 101.103C326.845 101.103 325.27 102.678 325.27 104.623C325.27 106.567 326.845 108.143 328.79 108.143Z" fill="#F2F2F2"></path><path d="M339.348 108.143C341.292 108.143 342.868 106.567 342.868 104.623C342.868 102.678 341.292 101.103 339.348 101.103C337.404 101.103 335.828 102.678 335.828 104.623C335.828 106.567 337.404 108.143 339.348 108.143Z" fill="#F2F2F2"></path><path fill-rule="evenodd" clip-rule="evenodd" d="M532.948 208.463H580.468C584.358 208.463 587.508 211.613 587.508 215.503V372.143C587.508 376.033 584.358 379.183 580.468 379.183H532.948C529.058 379.183 525.908 376.033 525.908 372.143V215.503C525.908 211.613 529.058 208.463 532.948 208.463Z" fill="white"></path><path fill-rule="evenodd" clip-rule="evenodd" d="M545.268 224.303H568.148C570.088 224.303 571.668 225.883 571.668 227.823V243.663C571.668 245.603 570.088 247.183 568.148 247.183H545.268C543.328 247.183 541.748 245.603 541.748 243.663V227.823C541.748 225.883 543.328 224.303 545.268 224.303Z" fill="#DDE3E9"></path><path fill-rule="evenodd" clip-rule="evenodd" d="M545.268 254.223H568.148C570.088 254.223 571.668 255.803 571.668 257.743V272.703C571.668 274.643 570.088 276.223 568.148 276.223H545.268C543.328 276.223 541.748 274.643 541.748 272.703V257.743C541.748 255.803 543.328 254.223 545.268 254.223Z" fill="#AFB9C5"></path><path fill-rule="evenodd" clip-rule="evenodd" d="M545.268 283.263H568.148C570.088 283.263 571.668 284.843 571.668 286.783V301.743C571.668 303.683 570.088 305.263 568.148 305.263H545.268C543.328 305.263 541.748 303.683 541.748 301.743V286.783C541.748 284.843 543.328 283.263 545.268 283.263Z" fill="#DDE3E9"></path><path fill-rule="evenodd" clip-rule="evenodd" d="M545.268 341.343H568.148C570.088 341.343 571.668 342.923 571.668 344.863V359.823C571.668 361.763 570.088 363.343 568.148 363.343H545.268C543.328 363.343 541.748 361.763 541.748 359.823V344.863C541.748 342.923 543.328 341.343 545.268 341.343Z" fill="#DDE3E9"></path><path fill-rule="evenodd" clip-rule="evenodd" d="M545.268 312.303H568.148C570.088 312.303 571.668 313.883 571.668 315.823V330.783C571.668 332.723 570.088 334.303 568.148 334.303H545.268C543.328 334.303 541.748 332.723 541.748 330.783V315.823C541.748 313.883 543.328 312.303 545.268 312.303Z" fill="#C5CFD6"></path><path fill-rule="evenodd" clip-rule="evenodd" d="M324.389 131.023H515.349C517.289 131.023 518.869 132.603 518.869 134.543V168.863C518.869 170.803 517.289 172.383 515.349 172.383H324.389C322.449 172.383 320.869 170.803 320.869 168.863V134.543C320.869 132.603 322.449 131.023 324.389 131.023Z" fill="white"></path><path fill-rule="evenodd" clip-rule="evenodd" d="M331.429 143.431H473.109C474.569 143.431 475.749 144.611 475.749 146.071V146.991C475.749 148.451 474.569 149.631 473.109 149.631H331.429C329.969 149.631 328.789 148.451 328.789 146.991V146.071C328.789 144.611 329.969 143.431 331.429 143.431Z" fill="#DDE3E9"></path><path fill-rule="evenodd" clip-rule="evenodd" d="M331.429 153.771H424.789C426.249 153.771 427.429 154.951 427.429 156.411V157.331C427.429 158.791 426.249 159.971 424.789 159.971H331.429C329.969 159.971 328.789 158.791 328.789 157.331V156.411C328.789 154.951 329.969 153.771 331.429 153.771Z" fill="#DDE3E9"></path><path d="M497.709 157.863C501.111 157.863 503.869 155.105 503.869 151.703C503.869 148.301 501.111 145.543 497.709 145.543C494.307 145.543 491.549 148.301 491.549 151.703C491.549 155.105 494.307 157.863 497.709 157.863Z" fill="#DDE3E9"></path><path d="M497.708 154.343C499.166 154.343 500.348 153.161 500.348 151.703C500.348 150.245 499.166 149.063 497.708 149.063C496.25 149.063 495.068 150.245 495.068 151.703C495.068 153.161 496.25 154.343 497.708 154.343Z" fill="#F2F2F2"></path><path fill-rule="evenodd" clip-rule="evenodd" d="M324.389 179.423H515.349C517.289 179.423 518.869 181.003 518.869 182.943V210.223C518.869 212.163 517.289 213.743 515.349 213.743H324.389C322.449 213.743 320.869 212.163 320.869 210.223V182.943C320.869 181.003 322.449 179.423 324.389 179.423Z" fill="white"></path><path fill-rule="evenodd" clip-rule="evenodd" d="M331.359 189.719H473.169C474.589 189.719 475.739 190.869 475.739 192.289C475.739 193.709 474.589 194.859 473.169 194.859H331.359C329.939 194.869 328.789 193.719 328.789 192.289C328.789 190.869 329.939 189.719 331.359 189.719Z" fill="#DDE3E9"></path><path fill-rule="evenodd" clip-rule="evenodd" d="M331.359 198.299H424.859C426.279 198.299 427.429 199.449 427.429 200.869C427.429 202.289 426.279 203.439 424.859 203.439H331.359C329.939 203.449 328.789 202.299 328.789 200.869C328.789 199.449 329.939 198.299 331.359 198.299Z" fill="#DDE3E9"></path><path d="M497.709 202.743C501.111 202.743 503.869 199.985 503.869 196.583C503.869 193.181 501.111 190.423 497.709 190.423C494.307 190.423 491.549 193.181 491.549 196.583C491.549 199.985 494.307 202.743 497.709 202.743Z" fill="#DDE3E9"></path><path d="M497.708 199.223C499.166 199.223 500.348 198.041 500.348 196.583C500.348 195.125 499.166 193.943 497.708 193.943C496.25 193.943 495.068 195.125 495.068 196.583C495.068 198.041 496.25 199.223 497.708 199.223Z" fill="#F2F2F2"></path><path fill-rule="evenodd" clip-rule="evenodd" d="M324.389 220.783H515.349C517.289 220.783 518.869 222.363 518.869 224.303V251.583C518.869 253.523 517.289 255.103 515.349 255.103H324.389C322.449 255.103 320.869 253.523 320.869 251.583V224.303C320.869 222.363 322.449 220.783 324.389 220.783Z" fill="white"></path><path fill-rule="evenodd" clip-rule="evenodd" d="M331.359 231.079H473.169C474.589 231.079 475.739 232.229 475.739 233.649C475.739 235.069 474.589 236.219 473.169 236.219H331.359C329.939 236.229 328.789 235.079 328.789 233.649C328.789 232.229 329.939 231.079 331.359 231.079Z" fill="#DDE3E9"></path><path fill-rule="evenodd" clip-rule="evenodd" d="M331.359 239.659H424.859C426.279 239.659 427.429 240.809 427.429 242.229C427.429 243.649 426.279 244.799 424.859 244.799H331.359C329.939 244.809 328.789 243.659 328.789 242.229C328.789 240.809 329.939 239.659 331.359 239.659Z" fill="#DDE3E9"></path><path d="M497.709 244.103C501.111 244.103 503.869 241.345 503.869 237.943C503.869 234.541 501.111 231.783 497.709 231.783C494.307 231.783 491.549 234.541 491.549 237.943C491.549 241.345 494.307 244.103 497.709 244.103Z" fill="#DDE3E9"></path><path d="M497.708 240.583C499.166 240.583 500.348 239.401 500.348 237.943C500.348 236.485 499.166 235.303 497.708 235.303C496.25 235.303 495.068 236.485 495.068 237.943C495.068 239.401 496.25 240.583 497.708 240.583Z" fill="#AFB9C5"></path><path fill-rule="evenodd" clip-rule="evenodd" d="M324.389 344.863H515.349C517.289 344.863 518.869 346.443 518.869 348.383V375.663C518.869 377.603 517.289 379.183 515.349 379.183H324.389C322.449 379.183 320.869 377.603 320.869 375.663V348.383C320.869 346.443 322.449 344.863 324.389 344.863Z" fill="white"></path><path fill-rule="evenodd" clip-rule="evenodd" d="M331.359 355.159H473.169C474.589 355.159 475.739 356.309 475.739 357.729C475.739 359.149 474.589 360.299 473.169 360.299H331.359C329.939 360.309 328.789 359.159 328.789 357.729C328.789 356.309 329.939 355.159 331.359 355.159Z" fill="#DDE3E9"></path><path fill-rule="evenodd" clip-rule="evenodd" d="M331.359 363.739H424.859C426.279 363.739 427.429 364.889 427.429 366.309C427.429 367.729 426.279 368.879 424.859 368.879H331.359C329.939 368.889 328.789 367.739 328.789 366.309C328.789 364.889 329.939 363.739 331.359 363.739Z" fill="#DDE3E9"></path><path d="M497.709 368.183C501.111 368.183 503.869 365.425 503.869 362.023C503.869 358.621 501.111 355.863 497.709 355.863C494.307 355.863 491.549 358.621 491.549 362.023C491.549 365.425 494.307 368.183 497.709 368.183Z" fill="#DDE3E9"></path><path d="M497.708 364.663C499.166 364.663 500.348 363.481 500.348 362.023C500.348 360.565 499.166 359.383 497.708 359.383C496.25 359.383 495.068 360.565 495.068 362.023C495.068 363.481 496.25 364.663 497.708 364.663Z" fill="#F2F2F2"></path><path fill-rule="evenodd" clip-rule="evenodd" d="M324.389 303.503H515.349C517.289 303.503 518.869 305.083 518.869 307.023V334.303C518.869 336.243 517.289 337.823 515.349 337.823H324.389C322.449 337.823 320.869 336.243 320.869 334.303V307.023C320.869 305.083 322.449 303.503 324.389 303.503Z" fill="white"></path><path fill-rule="evenodd" clip-rule="evenodd" d="M331.359 313.799H473.169C474.589 313.799 475.739 314.949 475.739 316.369C475.739 317.789 474.589 318.939 473.169 318.939H331.359C329.939 318.949 328.789 317.799 328.789 316.369C328.789 314.949 329.939 313.799 331.359 313.799Z" fill="#DDE3E9"></path><path fill-rule="evenodd" clip-rule="evenodd" d="M331.359 322.379H424.859C426.279 322.379 427.429 323.529 427.429 324.949C427.429 326.369 426.279 327.519 424.859 327.519H331.359C329.939 327.529 328.789 326.379 328.789 324.949C328.789 323.529 329.939 322.379 331.359 322.379Z" fill="#DDE3E9"></path><path d="M497.709 326.823C501.111 326.823 503.869 324.065 503.869 320.663C503.869 317.261 501.111 314.503 497.709 314.503C494.307 314.503 491.549 317.261 491.549 320.663C491.549 324.065 494.307 326.823 497.709 326.823Z" fill="#DDE3E9"></path><path d="M497.708 323.303C499.166 323.303 500.348 322.121 500.348 320.663C500.348 319.205 499.166 318.023 497.708 318.023C496.25 318.023 495.068 319.205 495.068 320.663C495.068 322.121 496.25 323.303 497.708 323.303Z" fill="#F2F2F2"></path><path fill-rule="evenodd" clip-rule="evenodd" d="M324.389 262.143H515.349C517.289 262.143 518.869 263.723 518.869 265.663V292.943C518.869 294.883 517.289 296.463 515.349 296.463H324.389C322.449 296.463 320.869 294.883 320.869 292.943V265.663C320.869 263.723 322.449 262.143 324.389 262.143Z" fill="white"></path><path fill-rule="evenodd" clip-rule="evenodd" d="M331.359 272.439H473.169C474.589 272.439 475.739 273.589 475.739 275.009C475.739 276.429 474.589 277.579 473.169 277.579H331.359C329.939 277.589 328.789 276.439 328.789 275.009C328.789 273.589 329.939 272.439 331.359 272.439Z" fill="#DDE3E9"></path><path fill-rule="evenodd" clip-rule="evenodd" d="M331.359 281.019H424.859C426.279 281.019 427.429 282.169 427.429 283.589C427.429 285.009 426.279 286.159 424.859 286.159H331.359C329.939 286.169 328.789 285.019 328.789 283.589C328.789 282.169 329.939 281.019 331.359 281.019Z" fill="#DDE3E9"></path><path d="M497.709 285.463C501.111 285.463 503.869 282.705 503.869 279.303C503.869 275.901 501.111 273.143 497.709 273.143C494.307 273.143 491.549 275.901 491.549 279.303C491.549 282.705 494.307 285.463 497.709 285.463Z" fill="#DDE3E9"></path><path d="M497.708 281.943C499.166 281.943 500.348 280.761 500.348 279.303C500.348 277.845 499.166 276.663 497.708 276.663C496.25 276.663 495.068 277.845 495.068 279.303C495.068 280.761 496.25 281.943 497.708 281.943Z" fill="#F2F2F2"></path><path fill-rule="evenodd" clip-rule="evenodd" d="M718.37 257.27C714.9 254.92 710.28 254.3 706.13 254.3C689.91 254.3 674.66 260.32 661.48 269.29C654.26 274.2 647.8 280.46 642.1 286.98C638.81 290.74 635.88 294.81 633.8 299.34C632.4 302.39 631.44 305.58 630.78 308.86C629.99 312.86 629.35 316.94 629.07 321.01C628.96 322.61 628.03 331.11 630.69 331.25C630.67 331.46 630.67 331.66 630.69 331.84C624.91 340.88 621.34 351.48 618.02 361.52C615.14 370.26 612.57 379.08 610.9 388.12C608.71 400.03 607.26 412.11 606.58 424.19C606.43 426.79 606.33 429.38 606.24 431.98C606.17 434.2 606.09 436.41 606.02 438.63C605.94 441.11 605.5 443.97 605.9 446.44C606.24 448.59 608.11 448.27 608.19 446.12C608.29 443.54 608.27 440.95 608.39 438.36C608.54 434.93 608.7 431.49 608.86 428.06C610.03 404.22 614.42 380.73 622.51 358.21C625.79 349.1 629.54 340.47 634.37 332.04C638.61 324.63 643.72 317.45 648.93 310.77C654 304.28 659.27 297.93 665.48 292.43C670.52 287.96 676.07 284.07 681.77 280.46C689.01 275.86 696.24 271.38 704.08 267.85C708.16 266.02 712.31 264.37 716.42 262.61C717.16 262.29 717.95 261.99 718.66 261.62C721.04 260.39 720.26 258.55 718.37 257.27Z" fill="#A1CECB"></path><path fill-rule="evenodd" clip-rule="evenodd" d="M652.171 343.15C658.751 343.15 664.611 344.01 670.671 346.62C675.901 348.88 680.671 351.86 685.301 355.12C691.811 359.69 696.941 365.02 700.531 372.07C702.681 376.28 704.251 382.25 702.811 386.85C701.111 392.26 696.451 396.78 690.311 395.83C686.511 395.24 683.041 392.73 680.151 390.36C676.701 387.53 673.941 384.13 671.661 380.35C667.941 374.19 665.751 367.22 662.591 360.78C661.091 357.72 659.641 354.65 657.841 351.74C656.951 350.3 656.001 348.88 654.651 347.81C653.931 347.24 650.881 346.25 652.051 344.96C634.991 345.18 619.871 358.29 616.591 374.51C616.281 376.02 616.051 377.55 615.791 379.07C615.631 380.03 615.701 383.57 614.841 384.19C612.951 385.54 613.741 381.43 613.821 380.84C614.031 379.31 614.251 377.78 614.491 376.25C615.771 367.95 619.471 360.23 625.631 354.31C632.701 347.54 642.211 343.15 652.171 343.15Z" fill="#127771"></path><path fill-rule="evenodd" clip-rule="evenodd" d="M32.9505 360.09C49.3805 387.65 68.5105 414.33 80.0005 444.46C79.5405 440.91 79.0505 437.36 78.5005 433.82C75.5805 415.04 71.9605 396.4 68.1505 377.78C66.2105 368.3 64.1605 358.85 62.0605 349.41C60.9305 344.34 59.8105 339.26 58.6605 334.19C58.3805 332.96 58.1405 330.82 57.7905 328.64C68.9605 365.28 79.7205 401.95 87.6005 439.47C88.6305 444.39 89.5105 449.31 90.2305 454.22C90.4805 453.1 90.7205 451.98 90.9805 450.86C94.1705 437.48 98.9505 424.2 104.64 411.69C107.36 405.71 110.49 399.85 114.17 394.4C116.46 391 121.88 386.96 123.97 383.48C112.52 404.48 108.39 430.75 101.78 453.58C100.17 459.15 98.5405 464.71 96.9505 470.28C106.92 450.29 122.39 433.86 143.89 426.74C117.86 443.94 102.25 474.06 91.7305 504.86C91.7005 505.23 91.6505 505.59 91.6205 505.96C94.7205 500.08 98.6205 494.77 103.9 491.05C115.21 483.08 127.76 485.4 138.74 492.24C130.13 486.77 114.56 491.75 107.32 497.31C102.13 501.29 97.7005 506.64 93.8505 511.85C92.9305 513.1 91.6705 514.56 90.3405 516.11C88.4805 528.21 85.4405 540.23 81.1405 552.15C81.8505 548.73 81.3405 543.25 81.5305 540.7C81.5505 540.42 81.5705 540.15 81.5905 539.87C80.9405 542.48 80.3005 545.06 79.7005 547.6C80.9105 542.75 81.5705 537.7 82.0805 532.59C82.2105 530.39 82.3405 528.2 82.4805 526C82.4405 521.83 82.2705 517.65 81.9705 513.46C80.9405 509.39 79.7905 505.54 78.8405 502.35C75.4105 490.82 70.3805 479.78 64.1905 469.47C58.5405 460.07 51.7805 451.55 43.9805 443.85C39.7705 439.7 35.3705 435.75 31.0305 431.74C29.4605 430.29 26.6505 426.73 24.2305 424.87C41.9005 434.61 60.0905 445.15 72.9805 460.85C71.4705 455.05 69.8305 449.33 68.0905 443.72C59.2505 415.28 48.1305 385.8 32.9505 360.09Z" fill="#DDE3E9"></path><path fill-rule="evenodd" clip-rule="evenodd" d="M50.5996 516.08C50.5996 547.67 53.0996 573.28 86.6796 573.28C120.26 573.28 122.76 547.67 122.76 516.08" fill="#C5CFD6"></path><path fill-rule="evenodd" clip-rule="evenodd" d="M2.74375 304.246C2.74375 294.436 10.6637 286.416 20.3438 286.416V304.246L8.31375 317.216C4.89375 314.046 2.74375 309.386 2.74375 304.246Z" fill="#F2F2F2"></path><path fill-rule="evenodd" clip-rule="evenodd" d="M19.8743 304.016H37.6543C37.6543 308.606 35.7843 312.916 32.8143 316.046C29.5543 319.466 24.9143 321.616 19.8743 321.616C15.2343 321.616 10.9843 319.756 7.7243 316.826L19.8743 304.016Z" fill="#AFB9C5"></path><path fill-rule="evenodd" clip-rule="evenodd" d="M37.9434 304.016C37.9434 294.336 30.0234 286.416 20.3434 286.416V304.016H37.9434ZM11.5434 286.416L18.5834 302.256L2.74336 295.216C4.31336 291.106 7.82336 287.986 11.5434 286.416Z" fill="#C5CFD6"></path><path fill-rule="evenodd" clip-rule="evenodd" d="M721.025 312.336C719.335 314.136 716.935 315.256 714.275 315.256C709.155 315.256 705.005 311.116 705.005 306.016C705.005 300.916 709.155 296.776 714.275 296.776V279.616C699.715 279.616 687.795 291.496 687.795 306.016C687.795 320.536 699.715 332.416 714.275 332.416C721.925 332.416 728.835 329.186 733.555 324.056L721.025 312.336Z" fill="#F2F2F2"></path><path fill-rule="evenodd" clip-rule="evenodd" d="M714.195 279.616V296.776C719.295 296.776 723.435 300.916 723.435 306.016H740.595C740.595 291.496 728.715 279.616 714.195 279.616Z" fill="#AFB9C5"></path><path fill-rule="evenodd" clip-rule="evenodd" d="M723.085 306.016C723.085 309.016 721.675 311.676 719.475 313.396L730.265 327.136C736.545 322.216 740.595 314.596 740.595 306.016H723.085Z" fill="#C5CFD6"></path><path fill-rule="evenodd" clip-rule="evenodd" d="M105.024 45.7887C105.024 45.7987 105.014 45.8087 105.014 45.8187C105.014 45.8087 105.024 45.7687 105.024 45.7887Z" fill="#C5CFD6"></path><path fill-rule="evenodd" clip-rule="evenodd" d="M105.014 45.7985C105.014 45.7985 105.014 45.8085 105.014 45.7985C105.014 45.7985 105.024 45.7685 105.014 45.7985Z" fill="#C5CFD6"></path><path fill-rule="evenodd" clip-rule="evenodd" d="M105.074 45.6484C105.064 45.6884 105.044 45.7184 105.034 45.7484C105.044 45.7284 105.044 45.7184 105.054 45.6984C104.864 46.1584 104.984 45.8684 105.074 45.6484Z" fill="#C5CFD6"></path><path fill-rule="evenodd" clip-rule="evenodd" d="M105.034 45.7588C105.024 45.7788 105.024 45.7888 105.014 45.8088C104.964 45.9088 105.034 45.7588 105.034 45.7588Z" fill="#C5CFD6"></path><path fill-rule="evenodd" clip-rule="evenodd" d="M105.003 45.8086C104.993 45.8386 105.053 45.7286 105.003 45.8086Z" fill="#C5CFD6"></path><path fill-rule="evenodd" clip-rule="evenodd" d="M66.2934 0.0385742H142.853C144.793 0.0385742 146.373 1.61857 146.373 3.55857V51.9586C146.373 53.8986 144.793 55.4786 142.853 55.4786H66.2934C64.3534 55.4786 62.7734 53.8986 62.7734 51.9586V3.55857C62.7734 1.61857 64.3534 0.0385742 66.2934 0.0385742Z" fill="#DDE3E9"></path><path fill-rule="evenodd" clip-rule="evenodd" d="M94.4525 15.8784L69.8125 55.4784H119.092L94.4525 15.8784Z" fill="#AFB9C5"></path><path fill-rule="evenodd" clip-rule="evenodd" d="M118.652 26.4385L97.0918 55.4785H140.212L118.652 26.4385Z" fill="#C5CFD6"></path><path d="M127.893 26.4386C132.267 26.4386 135.813 22.8927 135.813 18.5186C135.813 14.1445 132.267 10.5986 127.893 10.5986C123.519 10.5986 119.973 14.1445 119.973 18.5186C119.973 22.8927 123.519 26.4386 127.893 26.4386Z" fill="white"></path><path fill-rule="evenodd" clip-rule="evenodd" d="M636.207 482.063C636.207 482.073 636.217 482.083 636.217 482.093C636.217 482.083 636.207 482.043 636.207 482.063Z" fill="#C5CFD6"></path><path fill-rule="evenodd" clip-rule="evenodd" d="M636.217 482.073C636.217 482.073 636.217 482.083 636.217 482.073C636.217 482.073 636.207 482.043 636.217 482.073Z" fill="#C5CFD6"></path><path fill-rule="evenodd" clip-rule="evenodd" d="M636.156 481.923C636.166 481.963 636.186 481.993 636.196 482.023C636.186 482.003 636.186 481.993 636.176 481.973C636.366 482.433 636.246 482.143 636.156 481.923Z" fill="#C5CFD6"></path><path fill-rule="evenodd" clip-rule="evenodd" d="M636.196 482.033C636.206 482.053 636.206 482.063 636.216 482.083C636.266 482.183 636.196 482.033 636.196 482.033Z" fill="#C5CFD6"></path><path fill-rule="evenodd" clip-rule="evenodd" d="M636.227 482.083C636.237 482.113 636.177 482.003 636.227 482.083Z" fill="#C5CFD6"></path><path fill-rule="evenodd" clip-rule="evenodd" d="M695.177 414.313H577.257C575.317 414.313 573.737 415.893 573.737 417.833V493.513C573.737 495.453 575.317 497.033 577.257 497.033H695.177C697.117 497.033 698.697 495.453 698.697 493.513V417.833C698.697 415.893 697.117 414.313 695.177 414.313Z" fill="#DDE3E9"></path><path fill-rule="evenodd" clip-rule="evenodd" d="M652.298 438.073L688.428 497.033H616.168L652.298 438.073Z" fill="#AFB9C5"></path><path fill-rule="evenodd" clip-rule="evenodd" d="M615.048 453.863L646.988 497.033H583.108L615.048 453.863Z" fill="#C5CFD6"></path><path d="M601.458 453.913C594.897 453.913 589.578 448.594 589.578 442.033C589.578 435.472 594.897 430.153 601.458 430.153C608.019 430.153 613.338 435.472 613.338 442.033C613.338 448.594 608.019 453.913 601.458 453.913Z" fill="white"></path><path fill-rule="evenodd" clip-rule="evenodd" d="M229.243 293.186C234.973 303.866 234.293 330.976 226.883 332.886C223.933 333.646 217.643 331.786 211.243 327.916L215.263 356.366H191.533L199.703 318.266C195.153 312.916 192.063 306.356 192.583 299.016C194.063 277.836 223.513 282.496 229.243 293.186Z" fill="#B28B67"></path><path fill-rule="evenodd" clip-rule="evenodd" d="M182.233 291.96C181.463 291.2 181.053 290.12 180.683 289.09C180.303 288.02 179.943 286.94 179.693 285.83C179.193 283.61 179.193 281.05 180.773 279.32C182.043 277.93 183.953 277.31 185.713 277.18C186.883 277.09 188.093 277.25 189.213 277.62C190.333 277.99 191.293 278.72 192.373 279.17C192.413 276.77 192.823 274.26 194.043 272.22C195.213 270.25 197.073 269.14 199.203 268.85C201.383 268.55 203.533 269.06 205.483 270.12C205.973 270.38 206.453 270.66 206.923 270.98C207.313 271.24 207.713 271.56 208.173 271.67C208.683 271.79 208.933 271.5 209.263 271.13C209.653 270.7 210.083 270.31 210.543 269.97C212.583 268.47 215.253 267.85 217.613 268.75C218.703 269.16 219.763 269.87 220.493 270.84C221.153 271.7 221.623 273.07 222.533 273.68C222.923 273.94 223.193 273.6 223.543 273.35C224.073 272.97 224.573 272.56 225.103 272.19C225.853 271.68 226.663 271.29 227.533 271.09C228.803 270.8 230.563 270.86 230.923 272.53C231.063 273.16 230.953 273.83 230.913 274.46C230.853 275.33 230.793 276.19 230.713 277.06C230.653 277.72 230.583 278.35 230.463 279C230.393 279.34 230.193 279.98 230.333 280.33C230.513 280.76 231.363 280.52 231.733 280.53C232.453 280.56 233.173 280.69 233.833 280.99C234.343 281.23 234.883 281.58 235.103 282.17C235.233 282.53 235.203 282.9 235.143 283.28C235.063 283.73 235.153 283.96 235.213 284.41C236.173 283.94 239.513 282.88 239.933 284.61C240.073 285.18 239.753 285.83 239.513 286.32C239.083 287.17 238.533 287.95 237.953 288.69C236.763 290.24 235.343 291.57 233.813 292.71C235.603 293.51 236.073 295.86 234.523 297.26C233.833 297.88 232.913 298.02 232.053 297.98C231.733 297.97 231.283 297.84 231.033 297.9C230.903 297.93 230.753 298.04 230.573 298.06C229.353 298.14 227.973 297.85 226.783 297.58C224.663 297.1 222.643 296.09 221.003 294.56C220.583 294.17 220.233 293.94 219.663 293.95C219.163 293.96 218.683 294.09 218.183 294.1C216.873 294.13 215.683 293.49 214.463 293.06C214.393 294.71 213.923 296.52 213.243 298.01C212.693 299.22 211.543 299.4 210.413 299.5C206.803 299.84 203.183 299.46 199.573 299.47C203.073 300.26 206.683 300.59 210.143 301.52C211.713 301.94 210.513 303 209.843 303.73C208.743 304.94 207.923 306.43 207.353 308C205.643 305.77 202.623 304.3 199.943 304.98C196.983 305.74 194.903 309.74 196.793 312.62C197.893 314.29 199.873 314.94 201.523 315.65C200.233 316.99 199.923 318.97 199.153 320.63C198.773 321.45 198.233 322.38 197.383 322.67C197.063 322.78 196.693 322.79 196.443 323.04C196.133 323.36 196.063 323.72 195.663 323.99C194.093 325.09 191.623 325 190.233 323.57C188.973 322.28 189.303 320.23 190.353 318.92C188.673 318.22 185.613 317.32 186.283 314.7C182.643 314.46 173.813 308.56 178.693 304.24C176.013 302.73 173.553 299.02 175.273 295.76C176.623 293.22 179.703 292.1 182.233 291.96Z" fill="#222222"></path><path fill-rule="evenodd" clip-rule="evenodd" d="M156.566 481.002H232.926L242.936 603.662H129.256L156.566 481.002Z" fill="#C5CFD6"></path><path fill-rule="evenodd" clip-rule="evenodd" d="M156.566 481.002H180.046L194.106 603.662H129.256L156.566 481.002Z" fill="black" fill-opacity="0.1"></path><path fill-rule="evenodd" clip-rule="evenodd" d="M320 459.985L320.28 459.815C328.45 455.235 341.8 461.455 341.79 468.375C341.76 489.315 322.67 587.985 321.67 594.225C320.67 600.465 309.99 602.115 309.37 594.245C308.38 581.735 306.54 538.405 308.38 518.355C309.14 510.075 309.96 502.195 310.76 495.165C300.74 513.275 285.25 539.195 264.28 572.935L252.9 567.735C261.84 538.255 269.17 517.455 274.89 505.305C278.46 497.725 281.95 490.545 285.13 484.175L285.67 483.095C290.97 472.515 295.36 464.305 297.73 460.445C303.82 450.575 314.4 454.015 320 459.985Z" fill="#46000A"></path><path fill-rule="evenodd" clip-rule="evenodd" d="M253.711 551.365L292.781 458.735C302.141 443.665 328.391 461.805 325.191 470.545C317.941 490.385 281.081 554.625 278.931 560.535L253.711 551.365Z" fill="#46000A"></path><path fill-rule="evenodd" clip-rule="evenodd" d="M251.727 561.742C249.187 563.821 247.545 565.505 246.79 566.813C245.9 568.355 244.855 570.765 243.656 574.022C245.449 575.057 261.539 584.347 291.945 601.902C295.596 598.478 296.164 595.815 293.652 593.926C291.14 592.037 289.072 590.439 287.434 589.136L270.705 566.071C270.424 565.678 269.874 565.591 269.476 565.881C269.471 565.889 269.457 565.893 269.457 565.893L265.901 568.632C262.723 568.356 260.353 567.762 258.794 566.862C257.486 566.107 255.986 564.525 254.29 562.102C253.733 561.307 252.634 561.111 251.839 561.668C251.793 561.688 251.764 561.717 251.727 561.742Z" fill="#007A9E"></path><path fill-rule="evenodd" clip-rule="evenodd" d="M306.957 588.998C305.797 592.068 305.217 594.348 305.217 595.858C305.217 597.638 305.517 600.248 306.107 603.668C308.177 603.668 326.757 603.668 361.867 603.668C363.317 598.878 362.477 596.288 359.357 595.908C356.237 595.528 353.647 595.178 351.577 594.868L325.557 583.258C325.117 583.058 324.597 583.258 324.397 583.708C324.397 583.718 324.387 583.728 324.387 583.728L322.677 587.878C319.787 589.228 317.437 589.898 315.637 589.898C314.127 589.898 312.037 589.278 309.357 588.028C308.477 587.618 307.427 587.998 307.017 588.878C306.987 588.918 306.977 588.958 306.957 588.998Z" fill="#007A9E"></path><path fill-rule="evenodd" clip-rule="evenodd" d="M344.531 475.495C344.531 501.775 332.061 563.075 332.051 568.865L305.221 568.885C309.151 514.185 310.541 486.545 309.401 485.955C307.691 485.075 239.161 492.805 218.611 492.805C188.981 492.805 176.721 474.105 175.721 439.465H234.431C246.381 440.745 308.731 453.325 331.891 457.655C341.791 459.495 344.531 468.255 344.531 475.495Z" fill="#9E0216"></path><path fill-rule="evenodd" clip-rule="evenodd" d="M196.581 334.597L224.251 338.877C224.251 354.447 236.631 369.017 244.461 381.557C256.641 401.047 278.301 422.637 264.411 451.587C251.891 477.667 219.291 481.907 166.611 464.297C166.611 450.247 178.151 436.127 178.521 419.037C178.871 402.777 181.911 353.497 194.591 336.857C194.821 336.107 195.051 335.357 195.291 334.597L196.171 335.007L196.581 334.597Z" fill="#0F9283"></path><path fill-rule="evenodd" clip-rule="evenodd" d="M228.961 444.187C230.811 434.627 232.011 428.247 232.561 425.047C247.301 441.717 255.821 450.147 258.111 450.337C262.421 450.697 265.601 446.877 266.511 447.957C268.011 452.407 263.781 463.547 255.691 465.167C251.831 465.937 245.851 457.967 243.391 455.147C242.411 454.047 237.611 450.387 228.961 444.187ZM254.421 393.237C258.241 393.237 260.291 394.817 262.551 398.007C264.811 401.197 266.951 416.237 263.321 416.237C259.691 416.237 244.491 410.427 244.491 406.517C244.491 402.607 254.861 400.957 254.861 398.007C254.871 395.067 250.601 393.237 254.421 393.237Z" fill="#F7CA2C"></path><path fill-rule="evenodd" clip-rule="evenodd" d="M221.241 458.727L221.121 459.167C220.931 459.837 220.741 460.527 220.551 461.217C177.251 430.937 177.241 394.237 190.121 353.097C180.411 393.597 184.361 427.747 221.241 458.727Z" fill="black" fill-opacity="0.2"></path><path fill-rule="evenodd" clip-rule="evenodd" d="M471.863 230.73C466.123 241.42 466.803 268.55 474.223 270.46C477.183 271.22 483.483 269.35 489.893 265.49L485.873 293.96H509.623L501.443 255.83C506.003 250.48 509.093 243.91 508.573 236.56C507.093 215.38 477.593 220.04 471.863 230.73Z" fill="#B28B67"></path><path fill-rule="evenodd" clip-rule="evenodd" d="M485.403 218.41C488.533 217.9 496.963 217.54 498.523 217.54C499.513 217.54 500.593 217.77 501.183 216.85C501.663 216.1 501.493 214.84 501.633 213.97C501.803 212.96 502.033 211.97 502.273 210.98C502.953 208.16 503.993 205.47 505.433 202.95C508.143 198.22 512.113 194.52 517.133 192.36C522.673 189.98 528.933 189.43 534.893 189.92C541.263 190.44 547.033 192.54 553.053 194.52C558.783 196.41 564.783 197.16 570.783 196.23C576.823 195.3 581.393 192.03 586.483 188.92C591.703 185.74 597.663 183.66 603.833 184.14C609.593 184.59 614.893 186.96 619.663 190.14C624.113 193.11 627.793 196.69 629.873 201.72C632.103 207.13 632.103 213.07 628.433 217.86C623.113 224.79 613.233 226.59 605.013 226.41C600.263 226.31 595.593 225.44 591.103 223.86C585.113 221.75 579.943 218.19 574.343 215.29C571.713 213.93 569.003 212.82 566.153 212.01C563.393 211.23 560.673 210.87 558.163 212.54C555.513 214.31 553.143 216.04 550.123 217.15C547.223 218.21 544.143 218.8 541.053 218.78C535.033 218.73 529.103 216.86 523.253 215.6C518.483 214.58 513.383 213.55 508.523 214.54C506.493 214.95 503.533 215.8 502.803 217.91C515.133 220.14 519.973 235.39 516.503 246.59C514.623 252.63 503.353 259.69 498.963 256.52C496.183 254.51 497.873 251.87 498.963 250.12C501.053 246.78 501.773 242.49 497.903 240.17C494.563 238.16 491.063 242.93 490.993 242.92C490.073 242.85 482.153 238.37 476.693 231.83C471.313 232.15 470.493 228.6 471.773 225.69C473.053 222.78 481.073 219.12 485.403 218.41Z" fill="#191847"></path><path fill-rule="evenodd" clip-rule="evenodd" d="M525.432 377.56L488.232 499.41L470.212 603.04H456.082L475.122 377.56H525.432Z" fill="#0A304F"></path><path fill-rule="evenodd" clip-rule="evenodd" d="M538.742 377.56C536.212 444.46 539.192 478.97 539.752 485.05C540.322 491.13 548.062 530.54 566.392 605.08L551.332 599.9C522.362 531.54 512.492 496.01 509.162 487.04C505.842 478.06 497.012 441.57 482.682 377.57H538.742V377.56Z" fill="#051C2F"></path><path fill-rule="evenodd" clip-rule="evenodd" d="M566.196 599.592C567.356 602.662 567.936 604.952 567.936 606.462C567.936 608.252 567.636 610.852 567.046 614.282C564.976 614.282 546.396 614.282 511.286 614.282C509.836 609.482 510.676 606.892 513.796 606.512C516.916 606.132 519.506 605.782 521.576 605.472L547.596 593.852C548.036 593.652 548.556 593.852 548.756 594.292C548.756 594.302 548.766 594.312 548.766 594.312L550.476 598.462C553.366 599.812 555.716 600.492 557.516 600.492C559.026 600.492 561.116 599.872 563.796 598.622C564.676 598.212 565.726 598.592 566.136 599.472C566.166 599.512 566.176 599.552 566.196 599.592Z" fill="#F2D66C"></path><path fill-rule="evenodd" clip-rule="evenodd" d="M473.274 599.592C474.434 602.662 475.014 604.952 475.014 606.462C475.014 608.252 474.714 610.852 474.124 614.282C472.054 614.282 453.474 614.282 418.364 614.282C416.914 609.482 417.754 606.892 420.874 606.512C423.994 606.132 426.584 605.782 428.654 605.472L454.674 593.852C455.114 593.652 455.634 593.852 455.834 594.292C455.834 594.302 455.844 594.312 455.844 594.312L457.554 598.462C460.444 599.812 462.794 600.492 464.594 600.492C466.104 600.492 468.194 599.872 470.874 598.622C471.764 598.212 472.814 598.592 473.224 599.472C473.244 599.512 473.254 599.552 473.274 599.592Z" fill="#F2D66C"></path><path fill-rule="evenodd" clip-rule="evenodd" d="M530.37 377.56L514.55 439.64H466.24L473.45 377.56H530.37Z" fill="#0F9283"></path><path fill-rule="evenodd" clip-rule="evenodd" d="M539.271 377.56C544.471 393.19 545.461 413.88 542.241 439.64H492.941L479.381 377.56H539.271Z" fill="#89C5CC"></path><path fill-rule="evenodd" clip-rule="evenodd" d="M564.492 330.515L543.035 333.611C566.816 384.194 579.392 410.661 580.743 413.016C583.799 418.312 580.198 427.533 578.794 432.416C582.098 433.365 583.381 431.499 584.706 429.505L584.939 429.149C586.4 426.974 588.06 424.843 592.616 426.222C594.156 426.692 595.641 427.271 597.097 427.854L597.675 428.086C597.867 428.16 598.06 428.244 598.253 428.318L598.832 428.56C604.464 430.838 609.721 432.604 615.708 427.642C616.703 426.816 617.545 424.112 614.375 422.538C606.471 418.61 594.86 411.436 593.054 408.791C590.598 405.178 581.074 379.09 564.492 330.515ZM432.126 374.07L408.16 405.017C400.562 409.589 394.472 414.323 389.897 419.207C389.83 419.307 389.775 419.416 389.709 419.526L389.623 419.7C388.816 421.288 388.572 423.432 393.342 421.661C398.63 419.696 404.29 417.861 405.569 419.488C406.848 421.116 404.199 424.256 406.427 426.315C407.912 427.682 411.468 422.163 417.108 409.768L443.596 388.717L432.126 374.07Z" fill="#B28B67"></path><path fill-rule="evenodd" clip-rule="evenodd" d="M490.533 278.916L481.851 278.652C475.116 327.656 411.024 369.412 409.281 387.622C408.644 394.296 413.757 396.91 411.628 399.218L423.781 405.72C425.338 403.29 429.887 406.7 437.804 402.75C445.732 398.808 498.374 334.708 490.533 278.916Z" fill="#9E0216"></path><path fill-rule="evenodd" clip-rule="evenodd" d="M504.663 266.862L477.658 272.597C475.824 272.986 474.628 274.749 474.915 276.577L474.952 276.764L477.154 287.118C486.928 349.404 453.009 370.399 464.579 394.301C474.128 414.034 540.854 427.307 549.02 405.508C552.324 396.683 552.95 386.476 551.662 375.66C555.639 383.554 558.869 390.37 561.344 396.122C565.616 406.044 576.788 406.14 577.346 410.111L591.207 404.114C589.468 398.854 595.901 395.264 592.385 383.469C576.623 330.598 549.173 294.507 510.039 275.226L508.831 269.579C508.433 267.676 506.566 266.464 504.663 266.862Z" fill="#D84326"></path><path d="M221.49 305C223.99 303.76 226.92 303.67 229.49 304.75" stroke="#00214E" stroke-width="0.5"></path><path d="M222.64 320.72C222.71 320.6 222.83 320.51 222.97 320.49C223.11 320.46 223.25 320.5 223.36 320.58C223.92 320.99 224.94 321.85 226.39 322.15C228.37 322.56 230.09 321.74 230.49 322.26C230.72 322.56 230.44 322.92 229.9 323.39C228.76 324.27 227.32 324.64 225.91 324.42C224.01 324.05 222.58 321.77 222.58 320.97C222.58 320.87 222.6 320.79 222.64 320.72Z" fill="white"></path><path d="M225.53 307.16C227.97 307.18 227.97 310.91 225.53 310.93H225.42C222.98 310.91 222.98 307.18 225.42 307.16H225.53V307.16Z" fill="#00214E"></path><path d="M480.131 246.28C478.171 244.3 475.431 243.25 472.651 243.44" stroke="#00214E" stroke-width="0.5"></path><path d="M478.991 259.06C478.901 258.95 478.761 258.89 478.621 258.89C478.481 258.89 478.351 258.95 478.251 259.05C477.771 259.55 476.911 260.57 475.541 261.12C473.661 261.86 471.831 261.36 471.521 261.94C471.341 262.27 471.691 262.58 472.301 262.95C473.581 263.62 475.061 263.74 476.411 263.27C478.221 262.58 479.231 260.08 479.091 259.29C479.081 259.2 479.041 259.12 478.991 259.06Z" fill="white"></path><path d="M475.47 247.16C473.03 247.18 473.03 250.91 475.47 250.93H475.58C478.02 250.91 478.02 247.18 475.58 247.16H475.47Z" fill="#00214E"></path></svg> 