<?xml version="1.0" encoding="UTF-8"?> <svg xmlns="http://www.w3.org/2000/svg" xmlns:xlink="http://www.w3.org/1999/xlink" id="Layer_1" data-name="Layer 1" viewBox="0 0 552.16 291.8"><defs><style>.cls-1{fill-rule:evenodd;fill:url(#New_Gradient_Swatch_1);}.cls-2{fill:#54565a;}.cls-3{fill:#d73716;}</style><linearGradient id="New_Gradient_Swatch_1" x1="280.86" y1="221.95" x2="497.2" y2="221.95" gradientUnits="userSpaceOnUse"><stop offset="0" stop-color="#e30613"></stop><stop offset="0.03" stop-color="#e30913"></stop><stop offset="0.06" stop-color="#e51411"></stop><stop offset="0.09" stop-color="#e7260f"></stop><stop offset="0.11" stop-color="#ea3f0b"></stop><stop offset="0.14" stop-color="#ed5f07"></stop><stop offset="0.16" stop-color="#f28702"></stop><stop offset="0.16" stop-color="#f39200"></stop><stop offset="0.31" stop-color="#fdc300"></stop><stop offset="0.34" stop-color="#eec304"></stop><stop offset="0.4" stop-color="#c7c210"></stop><stop offset="0.48" stop-color="#95c11f"></stop><stop offset="0.63" stop-color="#009fe3"></stop><stop offset="0.73" stop-color="#007bc4"></stop><stop offset="0.81" stop-color="#0069b4"></stop><stop offset="0.86" stop-color="#2351a3"></stop><stop offset="0.92" stop-color="#483992"></stop><stop offset="0.97" stop-color="#5e2a87"></stop><stop offset="1" stop-color="#662483"></stop></linearGradient></defs><title>logo</title><path class="cls-1" d="M494.08,238.09c-21.38-37.5-65.08-53.43-105.52-53.43-40.07,0-83.59,16.06-104.68,53.25-1.38,2.32-2.93,5.16-3,8.17.07,3.26.88,6.14,2.84,8.26a14.15,14.15,0,0,0,9.64,4.91c8.7-.34,11.54-6.46,11.54-6.46,20.44-37.2,44-62.67,83.68-62.67,39,0,64.55,27.18,85,63.41.49,1.16,4.79,6,12.64,5.42,7.49-.28,11.1-8.49,11-12.63C497.11,243.18,495.55,240.38,494.08,238.09Z" transform="translate(-21.56 -184.66)"></path><path class="cls-2" d="M42.91,280.06c0-8.18,5-15.48,14.66-15.48H89.22V250.29H47.88c-15,0-26.32,14.27-26.32,31.79V334.5c0,17.51,11.28,31.78,26.32,31.78H89.22V352H57.57c-9.67,0-14.66-7.3-14.66-15.48V313.65H85.35v-14.1H42.91V280.06Z" transform="translate(-21.56 -184.66)"></path><polygon class="cls-2" points="141.46 181.27 122.22 148.33 121.84 148.33 102.21 181.27 78.59 181.27 110.41 134.37 81.83 90.68 106.21 90.68 123.54 120.26 123.94 120.26 142.03 90.68 163.94 90.68 134.79 133.03 166.99 181.27 141.46 181.27"></polygon><path class="cls-2" d="M223.23,250.31v86.21c0,8.18,5,15.48,14.66,15.48h31.65v14.28H228.2c-15,0-26.32-14.27-26.32-31.78V250.31Z" transform="translate(-21.56 -184.66)"></path><rect class="cls-2" x="261.53" y="90.68" width="20.51" height="90.59"></rect><path class="cls-2" d="M357.31,286.1c-5.55,0-10.37.83-13.73,2.68v64.38c2.68,1.18,8,1.85,11.87,1.85,16.14,0,22.7-13.78,22.7-35.3,0-18.83-5.39-33.61-20.84-33.61m-2.7,81.5c-13.95,0-25.65-2.85-31.37-6.55V253l20.34-3.8v28.64c4.37-2,10.7-3.69,19.27-3.69,21,0,35.63,17.31,35.63,44.37,0,30.41-15.63,49.07-43.87,49.07" transform="translate(-21.56 -184.66)"></path><path class="cls-2" d="M457.53,288.78c-6.89-2.35-17.79-2-22.5.68v76.47h-20.5V280.21c12.05-4.91,25.87-7.92,47-6.39Z" transform="translate(-21.56 -184.66)"></path><rect class="cls-2" x="452.68" y="90.68" width="20.49" height="90.59"></rect><path class="cls-2" d="M538.25,367.44c-11.63,0-21.61-2.86-27.51-6.55l5.9-13.11c3.7,2.69,10.53,5.2,18.66,5.2,9.24,0,16.82-5.38,16.82-12.77,0-7.73-5.93-11.42-16.08-15-18.85-6.55-22.72-16-22.72-25.37,0-14.46,12.56-26.22,31.59-26.22,11.08,0,19.39,2.52,25.85,6.38L565.22,292a28,28,0,0,0-15.88-5.05c-9.24,0-15.55,5.55-15.55,11.94,0,7.39,7.42,11.09,16.11,14.28,19.39,7.06,23.82,16.13,23.82,26.73,0,14.79-13.67,27.56-35.47,27.56" transform="translate(-21.56 -184.66)"></path><path class="cls-3" d="M137.89,455.89q-3.48,3.14-10.8,3.14a15.93,15.93,0,0,1-13-6.37Q109,446.29,109,435.14t5.27-17.51a15.94,15.94,0,0,1,12.92-6.12q6.88,0,10.63,3.15l-2.21,5.86a9.59,9.59,0,0,0-6.13-1.95q-10,0-10,16.4,0,7.74,2.6,12.16a8,8,0,0,0,7.26,4.42,9.4,9.4,0,0,0,6.21-2Z" transform="translate(-21.56 -184.66)"></path><path class="cls-3" d="M183.37,455.72Q177.16,459,166.79,459q-18.71,0-18.7-13.94,0-8.32,7.57-12.5,5.94-3.22,18-4.42v-2.46q0-7.56-9.1-7.57A26.08,26.08,0,0,0,153.11,421L150.73,415a35.27,35.27,0,0,1,15.72-3.49q16.92,0,16.92,15.81ZM173.68,452V433.1c-5.47.69-9.35,1.73-11.63,3.15q-4.26,2.64-4.27,8.5,0,8.5,9.66,8.5A13.91,13.91,0,0,0,173.68,452Z" transform="translate(-21.56 -184.66)"></path><path class="cls-3" d="M260.39,458.18H250V425.62q0-7.47-7.74-7.48a10.42,10.42,0,0,0-7.65,3.15v36.89H224.26V425.44q0-7.29-8.59-7.3a17.53,17.53,0,0,0-6.8,1.28v38.76H198.5V414.83q6.88-3.31,17.17-3.32,9.69,0,14.28,5,5.45-5,14.71-5,7.65,0,12,4.34a13.3,13.3,0,0,1,3.74,9.69Z" transform="translate(-21.56 -184.66)"></path><path class="cls-3" d="M312.92,434.68q0,11.11-5.52,17.56a18.31,18.31,0,0,1-14.62,6.45,21.41,21.41,0,0,1-6.89-.85v18.62H275.6V414.83q6.21-3.31,15.9-3.32,10,0,15.73,6.11T312.92,434.68Zm-10.28.34q0-17.29-11.39-17.3a14.22,14.22,0,0,0-5.36.93v33.07a11.74,11.74,0,0,0,4.59.77Q302.63,452.49,302.64,435Z" transform="translate(-21.56 -184.66)"></path><path class="cls-3" d="M361.8,455.46q-6.89,3.66-17.59,3.66-17.77,0-17.77-15.47V412.36h10.37v31.95q0,7.76,7.74,7.75a13.61,13.61,0,0,0,6.88-1.53V412.36H361.8Z" transform="translate(-21.56 -184.66)"></path><path class="cls-3" d="M403.29,445a12.85,12.85,0,0,1-4.51,9.86q-4.5,4.08-11.82,4.08-7.81,0-12.66-3.32L377,449a13.35,13.35,0,0,0,8.58,2.64,7.19,7.19,0,0,0,5.11-1.83,6.07,6.07,0,0,0,2-4.63,6.44,6.44,0,0,0-1.53-4.55,13.48,13.48,0,0,0-5.18-3q-10.47-4-10.46-12.84a12.44,12.44,0,0,1,4-9.43,14.64,14.64,0,0,1,10.5-3.83,21.28,21.28,0,0,1,11.9,3.23l-2.55,6a11.28,11.28,0,0,0-7.31-2.55,6.51,6.51,0,0,0-4.81,1.74,5.83,5.83,0,0,0-1.74,4.29q0,4.51,6.8,7.23Q403.29,435.92,403.29,445Z" transform="translate(-21.56 -184.66)"></path><path class="cls-3" d="M455.61,412.19l-.14.14Q449.71,400,439.68,394.4c-5.84-3.27-13.67-5.26-23.48-5.69V456h11.1V401.37a38.45,38.45,0,0,1,9.1,3.7,21.6,21.6,0,0,1,6.69,7.12c3.27,5,5.26,12.09,6.12,21.34.42,4,.57,11.52.57,22.47h11.38c0-11.52.14-18.35.28-20.77.57-8.39,2.14-15.08,4.55-20.2a23.94,23.94,0,0,1,7.12-9,43.49,43.49,0,0,1,10.52-4.84V456h11.1V388.71c-9.82,0-17.64,1.71-23.61,5.12C464.71,397.39,459.45,403.51,455.61,412.19Z" transform="translate(-21.56 -184.66)"></path></svg> 