<?xml version="1.0" encoding="UTF-8"?> <svg xmlns="http://www.w3.org/2000/svg" width="856" height="565" viewBox="0 0 856 565" fill="none"><g clip-path="url(#clip0)"><path d="M273.551 453.07C273.551 451.94 274.451 451.03 275.551 451.03H298.041C299.141 451.03 300.041 451.94 300.041 453.07V476C300.041 477.13 299.141 478.04 298.041 478.04H275.551C274.451 478.04 273.551 477.13 273.551 476V453.07Z" fill="#EAEAEA"></path><path d="M285.871 472.43C285.541 472.43 285.231 472.27 285.031 472.01L278.541 463.37C278.181 462.9 278.271 462.22 278.741 461.86C279.201 461.5 279.871 461.59 280.231 462.06L285.791 469.46L293.321 457.15C293.631 456.64 294.281 456.49 294.781 456.81C295.281 457.13 295.431 457.79 295.121 458.3L286.781 471.94C286.601 472.24 286.281 472.43 285.931 472.45C285.901 472.43 285.891 472.43 285.871 472.43Z" fill="#FEFEFE"></path><path d="M273.551 492.87C273.551 491.74 274.451 490.83 275.551 490.83H298.041C299.141 490.83 300.041 491.74 300.041 492.87V515.8C300.041 516.93 299.141 517.84 298.041 517.84H275.551C274.451 517.84 273.551 516.93 273.551 515.8V492.87Z" fill="#EAEAEA"></path><path d="M285.871 512.23C285.541 512.23 285.231 512.07 285.031 511.81L278.541 503.17C278.181 502.7 278.271 502.02 278.741 501.66C279.201 501.3 279.871 501.39 280.231 501.86L285.791 509.26L293.321 496.95C293.631 496.44 294.281 496.29 294.781 496.61C295.281 496.93 295.431 497.59 295.121 498.1L286.781 511.74C286.601 512.04 286.281 512.23 285.931 512.25C285.901 512.23 285.891 512.23 285.871 512.23Z" fill="#FEFEFE"></path><path d="M273.551 532.68C273.551 531.55 274.451 530.64 275.551 530.64H298.041C299.141 530.64 300.041 531.55 300.041 532.68V555.61C300.041 556.74 299.141 557.65 298.041 557.65H275.551C274.451 557.65 273.551 556.74 273.551 555.61V532.68Z" fill="#EAEAEA"></path><path d="M285.871 552.04C285.541 552.04 285.231 551.88 285.031 551.62L278.541 542.98C278.181 542.51 278.271 541.83 278.741 541.47C279.201 541.11 279.871 541.2 280.231 541.67L285.791 549.07L293.321 536.76C293.631 536.25 294.281 536.1 294.781 536.42C295.281 536.74 295.431 537.4 295.121 537.91L286.781 551.55C286.601 551.85 286.281 552.04 285.931 552.06C285.901 552.04 285.891 552.04 285.871 552.04Z" fill="#FEFEFE"></path><path d="M380.857 301.41H231.188V437.36H380.857V301.41Z" fill="#EAEAEA"></path><path d="M302.488 312.98H246.418V318.38H302.488V312.98Z" fill="#FEFEFE"></path><path d="M365.628 319.91C365.628 318.72 364.678 317.75 363.508 317.75H350.788C349.618 317.75 348.668 318.72 348.668 319.91V422.51H365.618V319.91H365.628Z" fill="#FEFEFE"></path><path d="M365.628 358.97V319.91C365.628 318.72 364.678 317.75 363.508 317.75H350.788C349.618 317.75 348.668 318.72 348.668 319.91V358.97H365.628Z" fill="#FEFEFE"></path><path d="M314.499 342.86C314.499 341.67 313.549 340.7 312.379 340.7H299.659C298.489 340.7 297.539 341.67 297.539 342.86V422.51H314.489V342.86H314.499Z" fill="#FEFEFE"></path><path d="M314.499 388.85V342.86C314.499 341.67 313.549 340.7 312.379 340.7H299.659C298.489 340.7 297.539 341.67 297.539 342.86V388.85H314.499Z" fill="#FEFEFE"></path><path d="M340.069 357.98C340.069 356.79 339.119 355.82 337.949 355.82H325.229C324.059 355.82 323.109 356.79 323.109 357.98V422.51H340.059V357.98H340.069Z" fill="#FEFEFE"></path><path d="M340.069 388.85V357.98C340.069 356.79 339.119 355.82 337.949 355.82H325.229C324.059 355.82 323.109 356.79 323.109 357.98V388.85H340.069Z" fill="#FEFEFE"></path><path d="M288.94 328.28C288.94 327.09 287.99 326.12 286.82 326.12H274.1C272.93 326.12 271.98 327.09 271.98 328.28V422.51H288.93V328.28H288.94Z" fill="#FEFEFE"></path><path d="M288.94 361.67V328.28C288.94 327.09 287.99 326.12 286.82 326.12H274.1C272.93 326.12 271.98 327.09 271.98 328.28V361.67H288.94Z" fill="#FEFEFE"></path><path d="M263.378 375.8C263.378 374.61 262.428 373.64 261.258 373.64H248.538C247.368 373.64 246.418 374.61 246.418 375.8V422.51H263.368V375.8H263.378Z" fill="#FEFEFE"></path><path d="M263.378 403.07V375.8C263.378 374.61 262.428 373.64 261.258 373.64H248.538C247.368 373.64 246.418 374.61 246.418 375.8V403.07H263.378Z" fill="#FEFEFE"></path><path d="M365.629 423.59H246.689C246.109 423.59 245.629 423.11 245.629 422.51C245.629 421.91 246.099 421.43 246.689 421.43H365.629C366.219 421.43 366.689 421.91 366.689 422.51C366.689 423.11 366.209 423.59 365.629 423.59Z" fill="#FEFEFE"></path><path d="M180.79 97.4302H30.5898V188.42H180.79V97.4302Z" fill="#EAEAEA"></path><path d="M51.0508 174.92H94.8708V118.13L51.0508 174.92Z" fill="#FEFEFE"></path><path d="M135.488 161.15V174.92H162.508V128.39L135.488 161.15Z" fill="#FEFEFE"></path><path d="M94.8711 118.13V174.92H135.491V161.15L94.8711 118.13Z" fill="#FEFEFE"></path><path d="M175.578 146.16L162.508 128.39V174.92H175.578V146.16Z" fill="#FEFEFE"></path><path d="M169.929 109.31H112.449V114.71H169.929V109.31Z" fill="#FEFEFE"></path><path d="M79.2093 160.44C78.8593 160.44 78.5093 160.26 78.3093 159.93L53.2393 118.84C52.9293 118.33 53.0793 117.67 53.5793 117.35C54.0793 117.03 54.7293 117.19 55.0393 117.7L80.1093 158.79C80.4193 159.3 80.2693 159.96 79.7693 160.28C79.5993 160.39 79.3993 160.44 79.2093 160.44Z" fill="#FEFEFE"></path><path d="M54.1375 124.08C57.2855 124.08 59.8375 121.479 59.8375 118.27C59.8375 115.061 57.2855 112.46 54.1375 112.46C50.9895 112.46 48.4375 115.061 48.4375 118.27C48.4375 121.479 50.9895 124.08 54.1375 124.08Z" fill="#FEFEFE"></path><path d="M79.2081 163.06C81.2129 163.06 82.8381 161.404 82.8381 159.36C82.8381 157.317 81.2129 155.66 79.2081 155.66C77.2033 155.66 75.5781 157.317 75.5781 159.36C75.5781 161.404 77.2033 163.06 79.2081 163.06Z" fill="#FEFEFE"></path><path d="M414.07 108.01L383.78 122.88C388.61 135.16 390.15 148.96 387.45 162.91C380.02 201.34 343.44 226.36 305.73 218.79C285.07 214.64 268.38 201.56 258.71 184.27L228.41 199.14C242.54 225.79 267.81 246.03 299.24 252.34C355.13 263.56 409.36 226.47 420.36 169.51C424.53 148.02 421.93 126.75 414.07 108.01Z" fill="#FEFEFE"></path><path d="M675.418 106.85H444.328V254.4H675.418V106.85Z" fill="#EAEAEA"></path><path d="M467.727 136.84C470.875 136.84 473.427 134.239 473.427 131.03C473.427 127.821 470.875 125.22 467.727 125.22C464.579 125.22 462.027 127.821 462.027 131.03C462.027 134.239 464.579 136.84 467.727 136.84Z" fill="#FEFEFE"></path><path d="M498.29 136.84C501.438 136.84 503.99 134.239 503.99 131.03C503.99 127.821 501.438 125.22 498.29 125.22C495.142 125.22 492.59 127.821 492.59 131.03C492.59 134.239 495.142 136.84 498.29 136.84Z" fill="#FEFEFE"></path><path d="M528.848 136.84C531.996 136.84 534.548 134.239 534.548 131.03C534.548 127.821 531.996 125.22 528.848 125.22C525.7 125.22 523.148 127.821 523.148 131.03C523.148 134.239 525.7 136.84 528.848 136.84Z" fill="#FEFEFE"></path><path d="M534.549 146.59H462.039V151.99H534.549V146.59Z" fill="#FEFEFE"></path><path d="M657.711 143.28C654.201 136.24 648.941 129.78 641.461 130.03C625.211 130.57 614.621 173.77 603.311 174.31C592.001 174.85 595.891 130.75 581.411 131.11C563.221 131.56 562.511 216.97 539.731 218.95C516.951 220.93 511.831 173.05 501.581 173.77C491.341 174.49 486.931 211.31 485.161 219.31C483.381 227.31 474.391 228.85 474.391 228.85H657.701V143.28H657.711Z" fill="#FEFEFE"></path><path d="M657.71 142.81C632.63 143.89 627.33 212.65 601.55 211.03C580.16 209.69 583.71 172.69 564.99 171.61C546.27 170.53 537.44 215.35 514.83 216.79C503.84 217.49 495.05 210.49 484.98 211.39C474.91 212.29 464.49 225.97 462.02 228.85H657.7V142.81H657.71Z" fill="#FEFEFE"></path><path d="M276.678 95.6101C276.398 95.6101 276.128 95.5001 275.918 95.2801C275.508 94.8501 275.528 94.1701 275.948 93.7501L308.798 61.4601C309.218 61.0501 309.888 61.0601 310.298 61.4901C310.708 61.9201 310.688 62.6001 310.268 63.0201L277.408 95.3101C277.208 95.5101 276.938 95.6101 276.678 95.6101Z" fill="#FEFEFE"></path><path d="M276.678 98.8C278.992 98.8 280.868 96.8883 280.868 94.53C280.868 92.1718 278.992 90.26 276.678 90.26C274.364 90.26 272.488 92.1718 272.488 94.53C272.488 96.8883 274.364 98.8 276.678 98.8Z" fill="#FEFEFE"></path><path d="M447.008 370.66C447.838 372.11 449.668 372.6 451.088 371.75L499.738 349.36C501.158 348.51 501.638 346.65 500.808 345.2L478.708 307.7C477.878 306.25 476.048 305.76 474.628 306.61L420.508 321.9C419.088 322.75 418.608 324.61 419.438 326.06L447.008 370.66Z" fill="#FEFEFE"></path><path d="M503.459 345.82L479.919 305.88C479.029 304.33 477.079 303.82 475.569 304.72L417.929 321C416.409 321.9 415.899 323.89 416.789 325.43L446.159 372.93C447.049 374.47 448.999 374.99 450.509 374.09L502.329 350.25C503.839 349.35 504.349 347.36 503.459 345.82Z" fill="#FEFEFE"></path><path d="M450.191 366.18L425.301 325.17L475.901 309.65L497.491 345.69L450.191 366.18Z" fill="#F9F9F9"></path><path d="M484.57 333.27L446.13 348.74L443.02 344.19L482.04 329.3L484.57 333.27Z" fill="#EAEAEA"></path><path d="M458.321 333.78C460.679 333.78 462.591 331.833 462.591 329.43C462.591 327.028 460.679 325.08 458.321 325.08C455.963 325.08 454.051 327.028 454.051 329.43C454.051 331.833 455.963 333.78 458.321 333.78Z" fill="#FEFEFE"></path><path d="M443.77 339.48C446.128 339.48 448.04 337.532 448.04 335.13C448.04 332.728 446.128 330.78 443.77 330.78C441.412 330.78 439.5 332.728 439.5 335.13C439.5 337.532 441.412 339.48 443.77 339.48Z" fill="#EAEAEA"></path><path d="M471.988 328.26C474.109 328.26 475.828 326.505 475.828 324.34C475.828 322.175 474.109 320.42 471.988 320.42C469.868 320.42 468.148 322.175 468.148 324.34C468.148 326.505 469.868 328.26 471.988 328.26Z" fill="#FEFEFE"></path><path d="M532.838 306.19C532.948 306.01 533.128 305.88 533.328 305.84C533.528 305.8 533.738 305.85 533.898 305.98C534.718 306.59 536.228 307.89 538.358 308.34C541.268 308.95 543.798 307.72 544.398 308.52C544.738 308.96 544.318 309.51 543.528 310.19C541.848 311.52 539.728 312.08 537.648 311.73C534.848 311.18 532.738 307.75 532.738 306.53C532.758 306.41 532.788 306.29 532.838 306.19Z" fill="#EAEAEA"></path><path d="M490.849 268.05L479.699 267.06L490.029 256.67L490.849 268.05Z" fill="#EAEAEA"></path><path d="M451.44 302.81C450.99 302.81 450.58 302.52 450.43 302.07C444.99 285.14 455.73 274.64 473.51 257.25C477.18 253.66 481.35 249.59 485.65 245.17C510.97 219.15 506.03 192.73 503.91 185.25C503.75 184.68 504.07 184.08 504.63 183.91C505.19 183.75 505.78 184.08 505.94 184.65C508.14 192.41 513.29 219.83 487.15 246.68C482.83 251.12 478.66 255.2 474.97 258.8C457.78 275.6 447.41 285.74 452.43 301.39C452.61 301.96 452.31 302.57 451.75 302.75C451.66 302.79 451.55 302.81 451.44 302.81Z" fill="#A1CECB"></path><path d="M501.729 252.28L497.969 248.48C507.589 238.59 513.769 227.58 516.329 215.75L521.499 216.91C518.719 229.75 512.069 241.65 501.729 252.28Z" fill="#A1CECB"></path><path d="M559.878 245.23C562.192 245.23 564.068 243.318 564.068 240.96C564.068 238.602 562.192 236.69 559.878 236.69C557.563 236.69 555.688 238.602 555.688 240.96C555.688 243.318 557.563 245.23 559.878 245.23Z" fill="#FEFEFE"></path><path d="M441.901 307.13C441.741 307.13 441.571 307.09 441.411 307.01C441.101 306.84 433.821 302.79 435.561 290.42C436.541 283.41 441.031 277.51 445.771 271.27C451.941 263.15 458.331 254.75 457.451 243.14C457.111 238.64 454.841 234.68 450.711 231.38C428.591 213.7 360.291 218.46 342.931 221.38C342.341 221.47 341.811 221.08 341.711 220.49C341.611 219.9 342.001 219.35 342.581 219.25C360.141 216.29 429.331 211.55 452.011 229.68C456.631 233.37 459.161 237.84 459.551 242.97C460.491 255.42 453.551 264.54 447.431 272.59C442.861 278.6 438.541 284.28 437.641 290.73C436.131 301.52 442.131 304.96 442.391 305.1C442.901 305.38 443.101 306.04 442.821 306.56C442.641 306.92 442.281 307.13 441.901 307.13Z" fill="#A1CECB"></path><path d="M423.43 233.99C413.3 232.29 401.21 231.42 387.5 231.4L387.51 226C401.5 226.02 413.88 226.91 424.29 228.66L423.43 233.99Z" fill="#C2E1DD"></path><path d="M342.76 224.58C345.074 224.58 346.95 222.668 346.95 220.31C346.95 217.952 345.074 216.04 342.76 216.04C340.446 216.04 338.57 217.952 338.57 220.31C338.57 222.668 340.446 224.58 342.76 224.58Z" fill="#FEFEFE"></path><path d="M39.2773 319.88L35.4373 330.6L28.2773 317.73L39.2773 319.88Z" fill="#EAEAEA"></path><path d="M149.049 409.48C148.209 409.48 147.379 409.47 146.539 409.46C104.199 408.81 66.5092 392.02 40.4092 362.19C9.71916 327.1 -4.85084 282.63 1.43916 243.23C6.15916 213.65 22.1792 189.52 46.5392 175.3C47.0492 175 47.6892 175.18 47.9892 175.7C48.2792 176.22 48.0992 176.88 47.5992 177.17C23.8092 191.06 8.15916 214.64 3.53916 243.57C-2.65084 282.34 11.7292 326.14 41.9992 360.75C96.5292 423.08 195.709 423.21 267.799 361.02C280.269 350.26 290.899 339.17 301.189 328.44C325.649 302.92 346.769 280.88 378.819 280.06C408.759 279.3 423.629 295.05 430.829 308.4C431.109 308.92 430.929 309.58 430.409 309.87C429.899 310.16 429.249 309.97 428.969 309.44C422.049 296.61 407.749 281.48 378.869 282.22C347.679 283.02 326.839 304.77 302.699 329.95C292.379 340.71 281.709 351.84 269.169 362.67C234.099 392.92 191.539 409.48 149.049 409.48Z" fill="#A1CECB"></path><path d="M24.2992 307.95C19.3292 293.56 16.6892 279.01 16.4492 264.71L21.7492 264.61C21.9892 278.33 24.5292 292.31 29.3092 306.16L24.2992 307.95Z" fill="#A1CECB"></path><path d="M186.949 396.54L185.789 391.27C198.179 388.44 210.429 384.19 222.219 378.64L224.439 383.54C212.319 389.25 199.709 393.63 186.949 396.54Z" fill="#A1CECB"></path><path d="M47.0611 180.51C49.3752 180.51 51.2511 178.598 51.2511 176.24C51.2511 173.882 49.3752 171.97 47.0611 171.97C44.747 171.97 42.8711 173.882 42.8711 176.24C42.8711 178.598 44.747 180.51 47.0611 180.51Z" fill="#FEFEFE"></path><path d="M149.108 307.83C149.128 307.59 149.228 307.4 149.378 307.29C149.538 307.18 149.728 307.17 149.928 307.25C150.878 307.64 152.698 308.55 154.718 308.32C157.458 308.01 159.118 305.83 159.958 306.49C160.428 306.86 160.298 307.59 159.898 308.6C159.008 310.61 157.418 311.93 155.498 312.25C152.878 312.59 149.668 309.55 149.168 308.23C149.118 308.11 149.098 307.97 149.108 307.83Z" fill="#EAEAEA"></path><path d="M400.539 480.56L389.539 482.68L396.729 469.83L400.539 480.56Z" fill="#EAEAEA"></path><path d="M404.148 459.66L398.988 458.41C401.148 449.13 402.208 438.49 403.328 427.22C403.638 424.05 403.958 420.86 404.308 417.67L409.578 418.26C409.238 421.43 408.918 424.61 408.608 427.76C407.458 439.22 406.388 450.03 404.148 459.66Z" fill="#A1CECB"></path><path d="M315.409 508.6C317.723 508.6 319.599 506.688 319.599 504.33C319.599 501.972 317.723 500.06 315.409 500.06C313.095 500.06 311.219 501.972 311.219 504.33C311.219 506.688 313.095 508.6 315.409 508.6Z" fill="#FEFEFE"></path><path d="M254.55 176.45C249.72 164.17 248.19 150.38 250.89 136.44C254.85 115.95 267.1 99.27 283.39 89.31L268.14 58.78C243 73.38 223.99 98.62 217.96 129.83C213.81 151.33 216.41 172.58 224.25 191.32L254.55 176.45Z" fill="#FEFEFE"></path><path d="M291.879 84.8899C304.289 79.4899 318.359 77.6999 332.589 80.5499C353.239 84.6999 369.929 97.7699 379.589 115.05L409.889 100.18C395.749 73.5499 370.499 53.3099 339.069 46.9999C317.169 42.5999 295.519 45.6299 276.629 54.3599L291.879 84.8899Z" fill="#FEFEFE"></path><path d="M260.752 188.68C253.692 177.58 249.572 164.36 249.572 150.14C249.572 129.25 258.432 110.48 272.532 97.5L251.782 70.54C229.882 89.82 216.012 118.33 216.012 150.14C216.012 172.05 222.592 192.39 233.842 209.23L260.752 188.68Z" fill="#F1EFEF"></path><path d="M280.021 91.49C291.171 83.75 304.631 79.22 319.141 79.22C340.191 79.22 359.041 88.76 371.801 103.81L398.711 83.25C379.791 59.9 351.171 45.02 319.151 45.02C296.831 45.02 276.161 52.25 259.281 64.54L280.021 91.49Z" fill="#F1F1F1"></path><path d="M404.429 91.03L377.529 111.59C384.599 122.69 388.719 135.92 388.719 150.14C388.719 189.31 357.569 221.06 319.139 221.06C298.079 221.06 279.229 211.51 266.469 196.45L239.559 217.01C258.479 240.37 287.099 255.26 319.139 255.26C376.099 255.26 422.269 208.2 422.269 150.14C422.269 128.22 415.689 107.87 404.429 91.03Z" fill="#E0E0E0"></path><path d="M278.809 165.6C284.949 182.23 300.689 194.06 319.149 194.06C332.399 194.06 344.239 187.96 352.149 178.38L319.149 150.14L278.809 165.6Z" fill="#F4EEEE"></path><path d="M334.428 109.07L319.148 150.14L352.148 178.38C358.438 170.74 362.238 160.9 362.238 150.14C362.228 131.37 350.678 115.36 334.428 109.07Z" fill="#FEFEFE"></path><path d="M334.429 109.07C329.679 107.23 324.529 106.22 319.149 106.22C295.349 106.22 276.059 125.88 276.059 150.14C276.059 155.58 277.039 160.79 278.809 165.6L319.149 150.14L334.429 109.07Z" fill="#FEFEFE"></path><path d="M357 0H263V30H357V0Z" fill="#F1F1F1"></path><path d="M348.928 21C345.198 21 343.328 18.45 341.678 16.19C340.128 14.08 338.798 12.25 336.118 12.25C333.438 12.25 332.098 14.07 330.548 16.19C328.898 18.44 327.028 21 323.298 21C319.568 21 317.698 18.45 316.048 16.19C314.498 14.08 313.168 12.25 310.488 12.25C307.808 12.25 306.468 14.07 304.928 16.19C303.278 18.44 301.408 21 297.678 21C293.958 21 292.088 18.45 290.428 16.19C288.878 14.08 287.548 12.25 284.868 12.25C282.188 12.25 280.848 14.07 279.308 16.19C277.658 18.44 275.788 21 272.058 21C271.468 21 270.988 20.49 270.988 19.87C270.988 19.25 271.468 18.74 272.058 18.74C274.738 18.74 276.078 16.92 277.618 14.8C279.268 12.55 281.138 9.98999 284.868 9.98999C288.588 9.98999 290.458 12.55 292.118 14.8C293.668 16.91 294.998 18.74 297.678 18.74C300.358 18.74 301.698 16.92 303.238 14.8C304.888 12.55 306.758 9.98999 310.488 9.98999C314.218 9.98999 316.088 12.54 317.738 14.8C319.288 16.91 320.618 18.74 323.298 18.74C325.978 18.74 327.318 16.92 328.868 14.8C330.518 12.55 332.388 9.98999 336.118 9.98999C339.848 9.98999 341.718 12.54 343.368 14.8C344.918 16.91 346.248 18.74 348.938 18.74C349.528 18.74 350.008 19.25 350.008 19.87C349.998 20.49 349.518 21 348.928 21Z" fill="#E0E0E0"></path><path d="M319.2 506C317.74 506 316.34 505.96 315 505.88C314.42 505.85 313.97 505.34 314.01 504.74C314.04 504.14 314.55 503.69 315.12 503.72C335.46 504.9 370.45 497.3 383.44 471.55C389.25 460.03 390.89 443.5 392.61 426.01C395.47 397.02 398.43 367.04 420.4 353.16C420.9 352.85 421.54 353.01 421.85 353.51C422.15 354.02 422 354.69 421.51 355C400.43 368.32 397.53 397.76 394.72 426.23C392.97 443.93 391.32 460.66 385.32 472.55C372.72 497.5 340.41 506 319.2 506Z" fill="#A1CECB"></path><path d="M649.963 513.94L646.383 523.61L647.753 533.61L650.433 535.99L661.693 532.61L664.463 528.33L661.573 513.18L649.963 513.94Z" fill="#F7CA2C"></path><path d="M691.154 515.19L687.464 522.04L685.984 533.24L689.734 537.2L701.244 534.79L704.364 530.77L702.794 515.43L691.154 515.19Z" fill="#F7CA2C"></path><path d="M712.162 213.29C713.262 211.56 714.912 206.66 715.642 205.18C713.032 204.86 709.852 208.06 709.262 210.33C709.932 210.42 711.572 212.62 712.162 213.29Z" fill="#B5001B"></path><path d="M689.984 261.09C682.554 260.39 675.994 249.74 675.994 249.74C675.844 247.3 675.844 244.86 675.994 242.42L678.244 238.08L680.204 238.63L680.334 237.2C679.754 237.12 683.394 237.85 682.674 237.67C677.594 236.37 669.834 232.16 668.214 223.54C667.074 217.53 669.854 212.42 670.294 209.01C670.734 205.6 669.614 203 669.444 199.12C669.214 194.13 671.904 188.23 674.484 187.07C686.104 181.81 705.044 190.18 705.044 190.18C705.044 190.18 711.274 193.87 707.054 207.28C707.804 206.91 706.104 209.65 707.054 209.58C708.724 209.35 710.404 209.85 711.674 210.95C713.924 213.15 713.404 217.81 707.794 223.66C707.734 223.73 707.664 223.8 707.594 223.87C707.284 225.14 707.054 226.44 706.904 227.74C706.904 227.94 706.854 228.14 706.824 228.35C706.524 230.75 706.134 233.87 705.764 236.88C705.234 241.23 704.944 244.99 704.814 246.45C704.484 249.98 697.424 261.8 689.984 261.09Z" fill="#F7CA2C"></path><path d="M707.072 207.27C711.282 193.9 705.052 190.15 705.052 190.15C705.052 190.15 686.112 181.78 674.502 187.04C672.682 187.86 672.072 190.48 671.422 192.7C676.172 189.75 684.762 192.23 691.652 193.27C694.952 193.77 693.042 197.13 693.942 197.41C701.452 196.98 705.832 201.26 703.252 211.48L707.002 209.53C706.232 209.46 707.772 206.91 707.072 207.27Z" fill="#DFB726"></path><path d="M716.132 204.45C716.842 202.09 717.042 199.46 717.142 195.84C717.372 188.02 713.232 183.64 705.842 180.23L698.672 177.44C698.022 177.18 685.862 173.05 679.202 174.95C676.702 175.66 673.052 178.01 672.552 180.09C671.272 185.35 670.422 188.17 670.602 192.5C675.942 182.37 678.392 196.49 694.772 189.02C697.772 187.63 696.152 192.88 697.022 193.16C705.492 192.67 709.992 198.18 705.002 211.43C707.342 210.75 708.972 209.85 710.262 210.01C712.322 208.49 715.762 205.69 716.132 204.45Z" fill="#B5001B"></path><path d="M706.865 228.34C699.695 237.67 689.075 240.32 682.585 240.9L680.445 239.34C679.855 239.27 683.445 237.84 682.695 237.67C687.545 235.29 701.085 228.51 707.805 223.66C707.745 223.73 707.675 223.8 707.605 223.87C707.295 225.14 707.065 226.44 706.915 227.74C706.865 227.93 706.865 228.13 706.865 228.34Z" fill="#DFB726"></path><path d="M706.563 211.18C706.883 210.97 707.813 210.49 707.813 210.49L707.893 207.82L703.723 209.26C702.913 209.54 702.333 210.25 702.223 211.09L701.093 220.33C695.383 222.06 681.913 227.84 679.703 227.61C676.893 227.36 676.873 223.76 675.193 224.16C673.523 224.56 673.223 226.65 672.193 226.41C671.663 226.27 668.793 223.23 668.043 221.48C668.043 221.48 668.303 227.64 668.423 228.73C668.683 231.28 672.533 237.28 672.533 237.28C672.913 237.94 673.573 238.38 674.323 238.48L680.873 239.37L684.573 238.22C689.693 236.82 702.593 229.43 703.013 228.05C705.403 220.06 703.443 213.29 706.563 211.18Z" fill="#9E0216"></path><path d="M707.031 213.97C707.031 213.97 709.161 211.66 710.241 213.73C711.311 215.8 708.901 218.86 708.901 218.86L707.031 213.97Z" fill="#94791A"></path><path d="M705.484 532.92C705.484 532.92 708.904 534.42 702.404 549.44C700.904 552.95 694.004 555.04 687.284 554.85C680.564 554.66 677.664 553.63 677.194 551.77C676.724 549.91 680.744 543.88 680.744 543.88L705.484 532.92Z" fill="#1F1844"></path><path d="M705.411 531.42C705.411 531.42 705.471 528.22 704.021 527.48C703.341 531.23 701.521 528.32 699.441 526.2C697.651 524.35 696.921 522.84 693.491 522.57C690.061 522.31 688.981 525.09 687.531 526.2C684.981 528.16 684.931 527 684.121 529.88C683.371 532.43 681.181 541.72 679.221 545.46C678.741 546.31 678.871 547.36 679.541 548.07C682.721 551.22 689.941 550.08 693.881 549.41C698.391 548.66 702.411 545.87 704.151 539.89C705.911 533.91 705.411 531.42 705.411 531.42Z" fill="#9E0216"></path><path d="M665.983 535.47V539.78C665.983 541.31 664.853 542.61 663.343 542.82C660.343 543.24 655.453 543.95 652.833 544.46C648.813 545.25 639.213 548.74 633.793 549.09C628.383 549.44 622.263 549.53 619.563 547.78C616.863 546.04 617.463 541.93 617.463 541.93L665.983 535.47Z" fill="#1F1844"></path><path d="M664.423 523.95C664.423 523.95 667.213 534.6 665.643 536.17C664.073 537.74 652.283 538.53 649.123 540.54C645.963 542.55 633.153 545.69 626.333 545.17C619.513 544.65 617.603 543.77 617.423 541.94C617.253 540.11 630.943 537.57 633.393 535.74C635.853 533.91 637.333 527.48 640.733 525.26C644.133 523.04 641.483 519.15 645.103 518.97C648.723 518.8 647.713 524.56 653.053 524.9C656.873 525.04 660.683 524.72 664.423 523.95Z" fill="#9E0216"></path><path d="M716.461 331.33L681.581 339.7L663.021 336.31C663.021 336.31 635.091 415.85 633.211 424.88C631.331 433.91 646.591 517.48 646.591 517.48H665.031C665.031 517.48 666.911 493.76 665.031 472.31C663.151 450.86 659.561 439.57 659.561 435.05C659.561 430.53 684.221 383.1 684.221 383.1C684.221 383.1 690.031 411.4 692.291 431.66C696.301 467.42 685.271 520.12 685.271 520.12H705.951C705.951 520.12 713.561 505.67 719.961 470.66C726.361 435.65 713.431 437.11 720.651 409.08C732.211 364.22 716.461 331.33 716.461 331.33Z" fill="#0A304F"></path><path d="M712.464 238.56C712.464 239.97 711.144 251.07 708.754 248.58C707.144 246.89 701.714 246.04 698.184 245.67C701.394 241.61 707.784 230.69 707.784 230.69C707.784 230.69 712.464 237.25 712.464 238.56Z" fill="#0A304F"></path><path d="M695.223 317.22C694.633 318.16 681.383 323.23 680.603 323.63C679.153 324.38 665.583 325.44 658.343 325.75V325.19C658.343 325.19 647.863 325.36 643.613 321.26C639.353 317.17 638.863 314.22 640.833 306.04C642.803 297.86 652.943 259.07 654.423 256.61C655.893 254.15 659.003 248.26 662.933 247.12C665.433 246.3 667.863 245.28 670.203 244.06C669.703 244.62 669.343 245.1 669.353 245.35C669.403 245.97 667.963 247.48 668.043 247.89C668.123 248.3 667.423 249.61 667.183 250.39C666.853 251.27 666.643 252.19 666.563 253.13C666.483 254.35 666.973 254.97 668.653 258.45C670.323 261.93 672.403 265.77 672.403 265.77L675.573 275.17L675.983 274.85C676.293 276.67 676.993 280.42 677.993 286.11C679.253 293.26 683.103 302.38 687.053 308.77C686.783 308.96 695.223 317.22 695.223 317.22Z" fill="#003C66"></path><path d="M734.453 269.63C734.403 270.31 734.353 271.01 734.283 271.73C733.303 282.31 727.633 293.67 726.213 302.28C724.793 310.89 721.353 343.04 721.353 343.04C721.353 343.04 684.333 349.96 673.403 347.11C662.473 344.26 658.383 339.71 658.383 339.71V325.76C665.613 325.45 679.193 324.4 680.643 323.64C681.523 323.05 682.253 322.25 682.763 321.32L693.273 317.64C695.333 319.81 697.473 321.09 700.463 321.27C706.023 321.6 718.573 305.24 721.193 299.45C722.913 295.65 729.853 280 734.453 269.63Z" fill="#003C66"></path><path d="M686.175 242.13C685.305 241.6 684.525 240.92 683.885 240.12C683.475 239.54 683.055 239.22 682.615 239.52C681.905 238.93 680.415 237.85 679.345 237.79C677.845 237.71 676.725 236.73 675.705 237.47C674.685 238.21 674.205 240.66 674.205 240.66C674.205 240.66 673.505 240.16 672.565 241.41C672.005 242.16 670.955 243.2 670.215 244.05C669.715 244.61 669.355 245.09 669.365 245.34C669.415 245.96 667.975 247.47 668.055 247.88C668.135 248.29 667.435 249.6 667.195 250.38C666.865 251.26 666.655 252.18 666.575 253.12C666.495 254.34 666.985 254.96 668.665 258.44C670.335 261.92 672.415 265.76 672.415 265.76L675.585 275.16L675.995 274.84L685.345 267.5C684.425 265.47 683.215 262.24 684.315 261.45C685.955 260.26 686.925 253.49 686.925 253.49L687.125 253.35C687.125 251.85 687.075 249.54 687.125 247.84C687.335 245.16 686.585 242.3 686.175 242.13ZM682.415 246.67C682.165 247.61 682.045 248.92 681.015 248.22C679.915 247.27 678.955 246.16 678.155 244.95C678.155 244.78 678.195 242.25 678.155 241.95C678.115 241.65 677.785 240.89 678.445 240.93C679.525 241.18 680.585 241.5 681.625 241.88C681.675 242.06 681.755 242.26 681.845 242.49C682.695 244.54 682.645 245.72 682.415 246.67Z" fill="#DFB726"></path><path d="M695.961 313.9L685.451 317.59L683.261 318.34C683.261 318.34 682.191 313.59 682.601 310.65C682.861 308.82 688.681 303.79 689.041 303.78C689.391 304.33 690.081 305.99 690.441 306.51C692.101 309.09 693.951 311.56 695.961 313.9Z" fill="#DFB726"></path><path d="M663.012 305.39L664.052 288.37L659.812 307.25C659.812 307.25 663.382 308 663.802 308.17C664.212 308.34 673.463 309.67 676.893 309.48C678.723 309.36 662.622 309.82 681.932 308.2L663.012 305.39Z" fill="#0A304F"></path><path d="M732.323 252.09C730.823 249.9 726.863 246.83 722.603 244.34C719.513 242.52 714.793 239.88 712.453 238.58C712.453 239.99 711.133 251.09 708.743 248.6C707.133 246.91 701.703 246.06 698.173 245.69C697.803 246.21 697.353 246.67 696.863 247.07C694.883 248.36 688.353 252.59 687.103 253.38L686.903 253.52C686.903 253.52 685.923 260.28 684.293 261.48C683.193 262.28 684.403 265.51 685.323 267.53L675.973 274.87C676.283 276.69 676.983 280.44 677.983 286.13C679.443 293.9 682.253 301.35 686.293 308.13L686.613 308.63C686.963 309.18 687.323 309.72 687.683 310.24C689.373 312.82 691.233 315.29 693.253 317.63C695.313 319.8 697.453 321.08 700.443 321.26C706.003 321.59 718.553 305.23 721.173 299.44C722.883 295.69 729.833 280 734.433 269.63C735.073 260.23 733.743 254.12 732.323 252.09Z" fill="#003C66"></path><path d="M707.475 290.45C707.475 290.45 708.455 291.95 707.715 292.74C706.975 293.53 705.185 295.16 705.185 295.16C705.185 295.16 700.435 291.41 698.715 288.07C699.395 287.33 699.965 286.51 700.435 285.62C700.885 284.68 701.505 283.83 702.275 283.13C702.565 282.96 704.405 281.33 705.065 281.63C705.715 281.93 705.245 283.73 705.235 283.8C705.375 283.69 708.235 281.46 709.085 283.05C709.555 284.06 709.395 285.26 708.675 286.11C708.675 286.11 710.025 285.86 710.175 287.06C710.305 288.25 707.475 290.45 707.475 290.45Z" fill="#DFB726"></path><path d="M685.344 267.52L697.784 287.42L699.644 284.92L685.344 267.52Z" fill="#0A304F"></path><path d="M673.194 206.809C673.019 205.261 672.13 204.091 671.208 204.195C670.286 204.3 669.68 205.639 669.856 207.187C670.031 208.734 670.92 209.904 671.842 209.8C672.764 209.695 673.37 208.356 673.194 206.809Z" fill="white"></path><path d="M688.228 208.71C688.007 207.169 687.083 206.026 686.164 206.158C685.246 206.289 684.681 207.646 684.902 209.188C685.123 210.73 686.047 211.873 686.966 211.741C687.884 211.609 688.449 210.252 688.228 208.71Z" fill="white"></path><path d="M671.217 210.531C670.297 210.481 669.687 209.791 669.867 209.001C670.047 208.211 670.937 207.611 671.857 207.661C672.777 207.711 673.387 208.401 673.207 209.191C673.027 209.981 672.137 210.581 671.217 210.531Z" fill="black"></path><path d="M686.175 211.961C685.255 211.891 684.695 211.201 684.915 210.401C685.135 209.611 686.065 209.021 686.985 209.091C687.905 209.161 688.465 209.851 688.245 210.651C688.015 211.441 687.095 212.031 686.175 211.961Z" fill="black"></path><path d="M677.434 232.06C678.104 232.06 678.614 232.01 679.184 231.94C679.734 231.86 680.314 231.78 680.864 231.67C681.434 231.58 681.974 231.46 682.504 231.36C683.034 231.24 683.464 231.16 683.904 230.97L684.134 230.87C684.264 230.82 684.434 230.79 684.604 230.81C684.774 230.83 684.904 230.88 684.964 230.95C685.334 231.43 684.714 231.9 684.114 232.19C683.504 232.49 682.734 232.72 681.874 232.86C681.034 232.99 680.134 233.08 679.204 233.02C678.304 232.97 677.264 232.8 676.764 232.42C676.664 232.34 676.674 232.25 676.784 232.17C676.894 232.09 677.084 232.05 677.284 232.05L677.434 232.06Z" fill="white"></path><path d="M356.135 503.68C352.825 510 349.955 514.28 347.165 516.57C343.165 519.87 341.775 533.34 342.945 538.65C342.855 538.66 342.765 538.66 342.675 538.65C338.395 538.12 336.595 532.74 337.055 524.85C337.295 519.65 336.905 514.44 335.895 509.33L345.215 496.12C348.715 499.13 350.895 502.39 356.135 503.68Z" fill="#8D3C00"></path><path d="M351.106 546.3C351.106 546.3 336.966 547.71 332.486 544.41C328.006 541.11 329.986 536.52 329.516 529.6C329.046 522.68 326.796 521.34 326.796 521.34L321.496 526.75L318.816 524.03C318.816 524.03 322.936 517.66 326.466 513.3C328.966 510.21 333.496 509.49 335.916 509.33C336.916 514.42 337.306 519.62 337.076 524.8C336.626 532.69 338.416 538.08 342.696 538.6C344.636 539.4 347.576 539.28 349.676 539.93C352.726 540.86 351.106 546.3 351.106 546.3Z" fill="#201F4F"></path><path d="M393.087 536.87H388.667C385.457 536.87 376.787 532.78 373.087 527.97C369.387 523.16 367.187 523.28 367.187 523.28L366.917 522.23L363.637 508.84H378.037C378.957 513.29 380.587 520.8 382.007 525.09C383.767 530.41 390.337 535.06 392.457 536.44L393.087 536.87Z" fill="#8D3C00"></path><path d="M407.127 546.73C407.127 546.73 382.597 548.95 381.477 545.5C380.357 542.05 372.217 537.24 372.217 537.24V546.74H367.777C367.777 546.74 364.927 537.98 364.687 531.18C364.607 528.44 365.177 525.71 366.337 523.23C366.337 523.23 369.867 520.82 373.567 525.63C377.267 530.44 385.417 536.89 388.627 536.89H393.077L392.427 536.48C397.087 538.18 400.687 540.72 404.147 541.57C409.587 542.91 407.127 546.73 407.127 546.73Z" fill="#201F4F"></path><path d="M403.366 352.26C399.826 353.55 399.706 351.39 389.786 353.57C387.206 354.14 384.686 357 381.856 357.14C364.816 358.06 354.776 353.02 347.016 350.59C344.436 356.6 339.556 377.33 344.766 400.06C351.216 428.02 353.106 452.43 356.026 472.78C346.046 489.64 338.586 503.77 338.586 503.77C339.916 505.7 341.486 507.45 343.256 508.99C345.426 510.96 348.036 512.39 350.866 513.17C351.646 513.36 352.436 513.48 353.236 513.53C354.456 509.78 357.116 504.99 360.746 499.64C361.896 505.36 363.346 511.01 365.106 516.57H380.256C380.256 516.57 377.206 500.84 375.176 480.67C394.126 457.58 407.466 446.88 412.676 437.52C419.636 425.02 404.936 373.33 403.366 352.26ZM390.106 431.97C383.986 437.92 377.516 441.52 373.446 448.65C373.576 439.38 374.576 400.06 378.346 384.3C380.166 397.15 385.906 410.19 390.106 431.97Z" fill="black"></path><path d="M408.057 350.48C402.227 352.87 396.197 354.75 390.037 356.09C387.357 356.66 384.637 357.01 381.907 357.13C364.867 358.05 350.287 352.27 342.527 349.84C344.157 345.81 353.457 320.04 352.747 314.83C354.997 317.08 351.817 315.74 354.357 316.71C354.527 316.76 354.677 316.83 354.827 316.88C366.757 321.32 375.857 322.02 383.827 314.81C385.757 313.08 387.427 311.48 388.857 310.05C392.677 310.19 396.497 309.94 400.257 309.3C399.997 310.87 398.437 316.74 399.817 323.43C401.807 333.22 407.237 348.19 408.057 350.48Z" fill="#D84326"></path><path d="M354.155 243.18C359.175 250.59 367.185 255.42 376.085 256.4L376.015 255.23L375.945 253.79C369.655 251.94 362.125 247.58 353.375 238.46L353.565 238.68C353.825 239.97 354.005 241.27 354.105 242.58C354.115 242.78 354.115 242.97 354.155 243.18Z" fill="url(#paint0_linear)"></path><path d="M392.977 239.95C391.007 248.51 383.067 252.4 377.957 253.47C377.457 253.56 376.997 253.64 376.567 253.69C376.367 253.73 376.177 253.75 375.977 253.76L376.047 255.21L376.187 257.05L376.297 258.69L378.397 284.79C378.597 285.66 378.237 286.56 377.507 287.05C376.777 287.54 375.807 287.54 375.077 287.04C367.737 281.93 355.637 269.41 355.487 266.82C355.487 266.82 355.407 257.54 354.367 245.54C354.307 244.79 354.237 244.04 354.167 243.2C354.167 243 354.167 242.79 354.117 242.6C354.117 242.19 354.027 241.71 353.967 241.22C353.907 240.37 353.767 239.52 353.577 238.69C353.507 238.62 353.447 238.55 353.387 238.48C351.977 236.93 350.767 235.2 349.807 233.34C348.967 231.61 348.817 229.62 349.387 227.78C349.787 226.36 350.687 225.14 351.937 224.34C357.137 221.11 359.447 193.07 380.437 207.13C381.477 206.84 386.537 205 389.277 206.93C391.347 208.37 391.157 212.69 392.147 217.36C391.747 220.15 391.267 222.83 391.497 225.36C391.787 228.76 394.357 233.97 392.977 239.95Z" fill="#8D3C00"></path><path d="M376.015 255.23C376.015 255.23 361.535 253.54 354.345 245.53C354.285 244.78 354.215 244.03 354.145 243.19C354.145 242.99 354.145 242.78 354.095 242.59C354.095 242.18 354.005 241.7 353.945 241.21C362.735 248.31 370.215 252.02 376.535 253.72C376.335 253.76 376.145 253.78 375.945 253.79L376.015 255.23Z" fill="#592600"></path><path d="M354.538 228.8C354.538 228.8 352.498 226.4 351.348 228.42C350.198 230.44 352.478 233.6 352.478 233.6L354.538 228.8Z" fill="#592600"></path><path d="M392.486 214.33C392.396 215.34 392.266 216.34 392.136 217.33C391.676 215.6 389.546 209.63 387.626 208.03C386.276 206.9 385.136 210.28 383.256 209.43C379.976 208 379.506 206.92 375.366 207.3C373.716 207.92 372.016 208.42 370.296 208.8C368.446 209.13 367.616 206.82 367.196 208.8C366.776 210.78 366.786 213.48 364.516 213.48C362.246 213.48 360.766 214.92 360.586 216.37C360.416 217.82 364.216 223.02 362.286 224.29C360.086 225.79 358.496 231.21 358.496 231.21C358.496 231.21 355.826 221.6 350.416 225.63C348.916 220.96 349.386 220.1 349.386 214.42C349.386 212.47 349.826 206.11 350.336 204.1C353.046 193.66 366.746 190.98 375.536 191.58C384.346 192.2 393.326 204.54 392.486 214.33Z" fill="black"></path><path d="M339.016 173.79L340.826 174.16C341.136 174.23 341.406 174.44 341.536 174.73L341.766 175.26C341.926 175.63 342.306 175.86 342.706 175.85L344.046 175.77C344.356 175.76 344.656 175.9 344.846 176.14C345.036 176.38 345.106 176.71 345.026 177.01L344.946 177.26C344.866 177.54 344.926 177.84 345.086 178.08C345.246 178.32 345.526 178.47 345.816 178.49L346.616 178.54C347.146 178.58 347.546 179.04 347.526 179.58V179.77C347.506 180.2 347.756 180.59 348.156 180.74C349.086 181.06 349.986 181.45 350.856 181.91C350.976 182.06 350.596 182.97 350.286 183.65C350.096 184.1 350.276 184.62 350.706 184.86C351.596 185.37 352.906 186.2 352.696 186.6C352.116 187.33 351.466 188 350.746 188.6C350.546 188.8 350.446 189.09 350.486 189.37C350.526 189.65 350.686 189.91 350.926 190.06L352.246 190.92C352.486 191.07 352.646 191.31 352.686 191.59C352.726 191.87 352.636 192.15 352.446 192.35L351.156 193.63C350.976 193.82 350.886 194.07 350.906 194.33C350.926 194.59 351.046 194.82 351.256 194.98L352.756 196.28C353.096 196.56 353.196 197.05 353.006 197.44L351.896 199.47C351.776 199.73 351.776 200.03 351.896 200.29L353.156 203.02" stroke="black" stroke-width="4.2276" stroke-linecap="round"></path><path d="M340.117 180.2L341.927 179.85C342.237 179.79 342.567 179.89 342.797 180.11L343.217 180.52C343.507 180.8 343.937 180.87 344.307 180.71L345.517 180.14C345.797 180.01 346.127 180.02 346.397 180.17C346.667 180.32 346.857 180.59 346.897 180.89V181.15C346.927 181.44 347.087 181.7 347.337 181.86C347.587 182.02 347.887 182.06 348.167 181.96L348.917 181.7C349.427 181.54 349.967 181.81 350.147 182.32L350.197 182.49C350.337 182.89 350.727 183.16 351.147 183.16C352.127 183.1 353.117 183.12 354.087 183.21C354.257 183.3 354.257 184.29 354.227 185.04C354.217 185.53 354.587 185.94 355.067 186C356.087 186.14 357.617 186.41 357.577 186.86C357.317 187.75 356.967 188.62 356.537 189.44C356.427 189.71 356.447 190.01 356.597 190.26C356.747 190.51 356.997 190.68 357.287 190.71L358.787 191C359.067 191.03 359.317 191.2 359.467 191.44C359.617 191.68 359.637 191.98 359.537 192.25L358.787 193.93C358.697 194.17 358.707 194.44 358.827 194.67C358.947 194.9 359.147 195.07 359.397 195.14L361.317 195.76C361.747 195.89 362.027 196.3 361.987 196.74L361.727 199.04C361.707 199.32 361.817 199.6 362.027 199.79L364.217 201.83" stroke="black" stroke-width="4.2276" stroke-linecap="round"></path><path d="M346.746 170.25L348.556 170.62C348.866 170.68 349.136 170.9 349.266 171.19L349.496 171.72C349.666 172.09 350.036 172.32 350.446 172.31L351.776 172.24C352.086 172.23 352.386 172.36 352.576 172.61C352.766 172.85 352.836 173.17 352.756 173.48L352.676 173.73C352.596 174.01 352.656 174.31 352.816 174.55C352.986 174.79 353.256 174.94 353.546 174.96L354.356 175.02C354.886 175.06 355.296 175.52 355.256 176.06V176.24C355.226 176.67 355.486 177.06 355.886 177.21C356.816 177.53 357.716 177.93 358.586 178.38C358.706 178.53 358.326 179.44 358.006 180.12C357.816 180.57 357.996 181.09 358.426 181.33C359.316 181.84 360.626 182.67 360.416 183.08C359.836 183.81 359.186 184.47 358.476 185.07C358.276 185.27 358.176 185.56 358.206 185.84C358.236 186.12 358.406 186.38 358.646 186.53L359.966 187.39C360.206 187.53 360.366 187.78 360.406 188.05C360.446 188.33 360.356 188.61 360.166 188.81L358.866 190.09C358.686 190.28 358.606 190.53 358.616 190.79C358.636 191.05 358.756 191.28 358.956 191.44L360.456 192.74C360.806 193.02 360.906 193.51 360.706 193.9L359.606 195.94C359.476 196.19 359.476 196.5 359.606 196.75L360.856 199.48" stroke="black" stroke-width="4.2276" stroke-linecap="round"></path><path d="M353.766 168.74L355.346 169.68C355.616 169.84 355.796 170.12 355.826 170.43L355.876 171C355.906 171.41 356.176 171.75 356.566 171.87L357.846 172.24C358.146 172.33 358.396 172.56 358.496 172.86C358.596 173.16 358.556 173.49 358.376 173.75L358.226 173.96C358.056 174.2 358.016 174.5 358.096 174.78C358.176 175.06 358.376 175.29 358.646 175.41L359.396 175.73C359.886 175.95 360.116 176.51 359.916 177.01L359.836 177.18C359.676 177.58 359.786 178.03 360.116 178.31C360.896 178.92 361.616 179.58 362.286 180.31C362.356 180.48 361.696 181.22 361.176 181.77C360.846 182.13 360.846 182.68 361.176 183.05C361.856 183.8 362.816 185.04 362.486 185.35C361.706 185.85 360.866 186.27 359.996 186.6C359.736 186.73 359.556 186.96 359.496 187.24C359.436 187.52 359.506 187.81 359.686 188.03L360.656 189.28C360.836 189.5 360.906 189.78 360.846 190.05C360.796 190.32 360.616 190.56 360.376 190.69L358.736 191.48C358.506 191.6 358.336 191.81 358.266 192.06C358.196 192.31 358.236 192.58 358.376 192.79L359.406 194.52C359.636 194.9 359.586 195.38 359.266 195.69L357.556 197.25C357.346 197.44 357.246 197.72 357.266 198L357.566 201" stroke="black" stroke-width="4.2276" stroke-linecap="round"></path><path d="M368.705 169.51L366.885 169.87C366.575 169.93 366.305 170.15 366.175 170.44L365.935 170.97C365.775 171.34 365.405 171.57 364.995 171.56L363.665 171.48C363.355 171.47 363.055 171.6 362.855 171.85C362.655 172.1 362.595 172.42 362.675 172.72L362.755 172.97C362.825 173.25 362.775 173.55 362.605 173.79C362.435 174.03 362.175 174.18 361.885 174.2L361.075 174.25C360.545 174.29 360.145 174.75 360.165 175.29V175.48C360.185 175.91 359.935 176.3 359.535 176.45C358.605 176.77 357.705 177.16 356.835 177.62C356.715 177.77 357.095 178.68 357.405 179.36C357.595 179.81 357.415 180.33 356.995 180.57C356.105 181.08 354.795 181.91 355.005 182.31C355.585 183.04 356.235 183.71 356.945 184.31C357.145 184.51 357.245 184.8 357.205 185.08C357.165 185.36 357.005 185.61 356.765 185.76L355.455 186.62C355.215 186.76 355.055 187.01 355.015 187.28C354.975 187.55 355.065 187.84 355.255 188.04L356.555 189.32C356.725 189.51 356.815 189.76 356.795 190.02C356.775 190.28 356.645 190.51 356.445 190.67L354.945 191.97C354.605 192.25 354.505 192.74 354.705 193.13L355.805 195.16C355.935 195.42 355.935 195.72 355.805 195.98L354.555 198.71" stroke="black" stroke-width="4.2276" stroke-linecap="round"></path><path d="M361.685 168L360.116 168.94C359.846 169.1 359.666 169.38 359.636 169.69L359.586 170.27C359.556 170.68 359.276 171.02 358.886 171.13L357.605 171.5C357.305 171.59 357.065 171.82 356.955 172.12C356.845 172.42 356.896 172.75 357.086 173L357.235 173.2C357.405 173.44 357.446 173.75 357.366 174.03C357.286 174.31 357.085 174.54 356.815 174.66L356.065 174.98C355.575 175.19 355.345 175.76 355.545 176.26L355.616 176.43C355.776 176.83 355.666 177.28 355.336 177.56C354.566 178.17 353.836 178.83 353.166 179.55C353.106 179.73 353.756 180.47 354.276 181.05C354.606 181.41 354.606 181.96 354.276 182.33C353.596 183.08 352.635 184.32 352.965 184.63C353.755 185.13 354.585 185.55 355.455 185.88C355.715 186 355.895 186.24 355.955 186.52C356.015 186.8 355.946 187.09 355.756 187.31L354.795 188.56C354.615 188.77 354.545 189.06 354.595 189.33C354.645 189.6 354.825 189.84 355.075 189.97L356.715 190.76C356.945 190.88 357.115 191.09 357.175 191.34C357.235 191.59 357.196 191.86 357.056 192.07L356.026 193.8C355.796 194.18 355.855 194.67 356.175 194.98L357.886 196.53C358.086 196.73 358.195 197 358.175 197.28L357.875 200.28" stroke="black" stroke-width="4.2276" stroke-linecap="round"></path><path d="M376.878 175.13L375.068 175.5C374.758 175.56 374.488 175.78 374.358 176.07L374.128 176.6C373.968 176.97 373.598 177.21 373.188 177.19L371.848 177.11C371.538 177.1 371.238 177.24 371.048 177.48C370.858 177.72 370.788 178.05 370.868 178.35L370.948 178.59C371.028 178.87 370.978 179.18 370.808 179.42C370.638 179.66 370.368 179.81 370.078 179.83L369.278 179.88C368.748 179.92 368.338 180.38 368.368 180.92V181.1C368.388 181.53 368.138 181.93 367.728 182.08C366.798 182.4 365.898 182.79 365.028 183.25C364.918 183.39 365.288 184.31 365.608 184.99C365.798 185.44 365.618 185.96 365.188 186.2C364.298 186.71 362.988 187.54 363.198 187.94C363.778 188.67 364.428 189.34 365.138 189.94C365.338 190.14 365.438 190.42 365.408 190.71C365.378 190.99 365.208 191.25 364.968 191.39L363.648 192.25C363.408 192.39 363.248 192.64 363.208 192.92C363.168 193.2 363.258 193.48 363.448 193.69L364.748 194.97C364.928 195.16 365.018 195.41 364.998 195.67C364.978 195.93 364.858 196.17 364.648 196.33L363.148 197.67C362.798 197.95 362.698 198.44 362.898 198.83L363.998 200.86C364.128 201.12 364.128 201.42 363.998 201.68L362.738 204.4" stroke="black" stroke-width="4.2276" stroke-linecap="round"></path><path d="M371.817 171.37L370.237 172.31C369.967 172.47 369.787 172.75 369.757 173.06L369.707 173.64C369.677 174.04 369.397 174.39 369.007 174.5L367.727 174.87C367.427 174.96 367.177 175.19 367.077 175.49C366.977 175.79 367.017 176.12 367.197 176.38L367.347 176.59C367.517 176.83 367.557 177.13 367.477 177.41C367.397 177.69 367.197 177.92 366.927 178.04L366.177 178.36C365.687 178.58 365.457 179.14 365.657 179.64L365.737 179.81C365.897 180.21 365.787 180.66 365.457 180.94C364.677 181.54 363.957 182.21 363.287 182.93C363.217 183.11 363.877 183.85 364.397 184.39C364.727 184.75 364.727 185.3 364.397 185.67C363.717 186.42 362.757 187.66 363.087 187.98C363.867 188.48 364.707 188.9 365.577 189.23C365.837 189.36 366.017 189.59 366.077 189.87C366.137 190.15 366.067 190.44 365.887 190.66L364.917 191.9C364.737 192.12 364.667 192.4 364.727 192.68C364.777 192.95 364.957 193.19 365.197 193.32L366.837 194.07C367.067 194.19 367.237 194.4 367.307 194.65C367.377 194.9 367.337 195.17 367.197 195.38L366.167 197.11C365.927 197.49 365.987 197.98 366.307 198.29L368.017 199.84C368.227 200.03 368.327 200.31 368.307 200.59L368.007 203.59" stroke="black" stroke-width="4.2276" stroke-linecap="round"></path><path d="M381.148 179.17L379.338 179.54C379.028 179.61 378.758 179.82 378.628 180.12L378.398 180.65C378.238 181.02 377.858 181.26 377.448 181.24L376.118 181.16C375.808 181.14 375.508 181.28 375.308 181.52C375.108 181.76 375.048 182.09 375.128 182.39L375.208 182.64C375.288 182.92 375.228 183.22 375.068 183.46C374.898 183.7 374.628 183.85 374.338 183.87L373.528 183.93C372.998 183.97 372.598 184.43 372.618 184.97V185.15C372.648 185.58 372.388 185.97 371.988 186.13C371.058 186.45 370.158 186.84 369.288 187.29C369.168 187.44 369.548 188.35 369.858 189.04C370.048 189.49 369.868 190.01 369.448 190.25C368.558 190.76 367.248 191.59 367.458 191.99C368.038 192.72 368.688 193.39 369.398 193.99C369.598 194.19 369.698 194.48 369.658 194.76C369.618 195.04 369.458 195.29 369.218 195.44L367.908 196.3C367.668 196.44 367.508 196.69 367.468 196.97C367.428 197.25 367.518 197.53 367.708 197.74L369.008 199.02C369.188 199.21 369.268 199.46 369.248 199.72C369.228 199.98 369.098 200.22 368.898 200.38L367.398 201.68C367.048 201.96 366.948 202.44 367.158 202.84L368.258 204.88C368.388 205.14 368.388 205.44 368.258 205.7L367.008 208.42" stroke="black" stroke-width="4.2276" stroke-linecap="round"></path><path d="M382.948 186.11L381.188 185.58C380.878 185.49 380.548 185.55 380.298 185.75L379.838 186.11C379.518 186.36 379.088 186.39 378.738 186.19L377.598 185.49C377.328 185.33 376.998 185.3 376.708 185.43C376.418 185.55 376.208 185.81 376.148 186.12L376.098 186.37C376.038 186.66 375.848 186.9 375.578 187.03C375.318 187.16 375.008 187.17 374.738 187.05L373.988 186.72C373.498 186.51 372.928 186.72 372.698 187.2L372.618 187.37C372.438 187.76 372.028 187.98 371.608 187.93C370.638 187.77 369.658 187.69 368.668 187.68C368.498 187.76 368.398 188.73 368.348 189.48C368.308 189.97 367.898 190.35 367.408 190.35C366.378 190.35 364.828 190.49 364.828 190.94C364.988 191.86 365.238 192.75 365.578 193.62C365.658 193.89 365.608 194.19 365.438 194.42C365.268 194.65 365.008 194.8 364.728 194.81L363.158 194.94C362.878 194.96 362.618 195.1 362.458 195.32C362.298 195.55 362.238 195.83 362.308 196.1L362.838 197.84C362.908 198.09 362.868 198.36 362.718 198.58C362.578 198.8 362.348 198.95 362.088 198.99L360.118 199.4C359.688 199.49 359.368 199.87 359.368 200.31V202.62C359.378 202.92 359.238 203.2 358.998 203.37L356.598 205.17" stroke="black" stroke-width="4.2276" stroke-linecap="round"></path><path d="M374.145 177.66L372.565 178.6C372.295 178.76 372.115 179.04 372.085 179.35L372.035 179.93C372.005 180.33 371.735 180.68 371.345 180.79L370.065 181.16C369.765 181.25 369.515 181.48 369.415 181.78C369.315 182.08 369.355 182.41 369.535 182.67L369.685 182.88C369.855 183.12 369.895 183.42 369.815 183.7C369.735 183.98 369.535 184.21 369.265 184.33L368.515 184.65C368.025 184.86 367.795 185.43 367.995 185.93L368.075 186.1C368.235 186.5 368.125 186.95 367.795 187.23C367.015 187.83 366.285 188.5 365.615 189.22C365.555 189.4 366.205 190.14 366.725 190.68C367.055 191.04 367.055 191.59 366.725 191.96C366.045 192.71 365.085 193.96 365.415 194.27C366.205 194.77 367.035 195.18 367.905 195.52C368.165 195.65 368.345 195.88 368.405 196.16C368.465 196.44 368.395 196.73 368.205 196.95L367.245 198.19C367.065 198.41 366.995 198.69 367.045 198.97C367.095 199.25 367.275 199.48 367.525 199.61L369.165 200.36C369.395 200.48 369.555 200.69 369.625 200.94C369.695 201.19 369.655 201.45 369.515 201.67L368.485 203.4C368.245 203.78 368.305 204.27 368.625 204.58L370.335 206.13C370.545 206.32 370.645 206.6 370.625 206.88L370.325 209.88" stroke="black" stroke-width="4.2276" stroke-linecap="round"></path><path d="M344.957 174.62L346.767 174.27C347.087 174.21 347.407 174.31 347.637 174.53L348.057 174.93C348.347 175.21 348.777 175.29 349.147 175.12L350.357 174.55C350.637 174.42 350.967 174.43 351.237 174.58C351.507 174.73 351.697 174.99 351.737 175.3V175.56C351.777 175.85 351.937 176.11 352.177 176.26C352.427 176.42 352.727 176.46 353.007 176.37L353.757 176.11C354.267 175.95 354.817 176.22 354.987 176.73L355.037 176.9C355.177 177.3 355.567 177.57 355.987 177.56C356.967 177.5 357.957 177.52 358.937 177.61C359.107 177.71 359.097 178.69 359.067 179.44C359.057 179.93 359.427 180.34 359.907 180.4C360.927 180.54 362.457 180.81 362.417 181.26C362.157 182.15 361.807 183.02 361.377 183.84C361.267 184.11 361.287 184.41 361.437 184.66C361.587 184.91 361.837 185.08 362.127 185.11L363.677 185.4C363.957 185.44 364.207 185.6 364.357 185.85C364.507 186.09 364.527 186.39 364.427 186.66L363.677 188.33C363.587 188.57 363.597 188.84 363.717 189.07C363.837 189.3 364.037 189.47 364.287 189.54L366.207 190.16C366.637 190.29 366.917 190.7 366.877 191.14L366.617 193.44C366.597 193.72 366.707 194 366.917 194.19L369.107 196.23" stroke="black" stroke-width="4.2276" stroke-linecap="round"></path><path d="M335.555 183.91L337.365 183.56C337.675 183.5 338.005 183.6 338.235 183.82L338.655 184.23C338.945 184.51 339.385 184.58 339.755 184.41L340.955 183.83C341.235 183.7 341.565 183.71 341.835 183.86C342.105 184.01 342.295 184.28 342.335 184.58V184.84C342.375 185.13 342.535 185.39 342.785 185.54C343.035 185.7 343.335 185.73 343.615 185.64L344.365 185.38C344.875 185.21 345.425 185.48 345.605 185.99L345.655 186.16C345.795 186.57 346.185 186.83 346.615 186.82C347.595 186.76 348.585 186.77 349.555 186.87C349.725 186.96 349.725 187.94 349.695 188.7C349.695 189.19 350.055 189.6 350.545 189.65C351.565 189.78 353.095 190.05 353.055 190.5C352.795 191.4 352.455 192.26 352.025 193.09C351.915 193.36 351.935 193.66 352.085 193.91C352.235 194.16 352.485 194.33 352.775 194.36L354.325 194.65C354.605 194.69 354.855 194.85 355.005 195.09C355.155 195.33 355.175 195.63 355.085 195.89L354.375 197.57C354.285 197.81 354.295 198.08 354.415 198.31C354.535 198.54 354.735 198.71 354.985 198.78L356.905 199.4C357.335 199.53 357.605 199.93 357.575 200.38L357.335 202.68C357.315 202.96 357.415 203.24 357.625 203.43L359.835 205.46" stroke="black" stroke-width="4.2276" stroke-linecap="round"></path><path d="M335.566 188.64L337.116 187.63C337.386 187.46 337.716 187.42 338.016 187.54L338.556 187.75C338.936 187.9 339.366 187.8 339.636 187.5L340.526 186.51C340.736 186.28 341.046 186.16 341.356 186.2C341.666 186.24 341.946 186.42 342.096 186.69L342.216 186.92C342.356 187.18 342.616 187.36 342.906 187.41C343.196 187.46 343.496 187.38 343.716 187.18L344.336 186.65C344.746 186.3 345.346 186.35 345.706 186.75L345.826 186.89C346.106 187.21 346.566 187.31 346.956 187.14C347.846 186.71 348.766 186.35 349.706 186.07C349.896 186.07 350.266 187 350.526 187.71C350.706 188.16 351.206 188.4 351.676 188.27C352.666 188 354.186 187.67 354.316 188.1C354.406 189.02 354.406 189.95 354.316 190.88C354.316 191.17 354.446 191.44 354.666 191.62C354.896 191.8 355.186 191.86 355.466 191.79L356.966 191.47C357.236 191.4 357.526 191.46 357.746 191.63C357.966 191.8 358.106 192.06 358.116 192.34V194.16C358.126 194.42 358.236 194.66 358.436 194.83C358.636 195 358.886 195.08 359.146 195.05L361.156 194.88C361.606 194.83 362.016 195.11 362.156 195.53L362.806 197.78C362.886 198.05 363.096 198.27 363.366 198.37L366.176 199.42" stroke="black" stroke-width="4.2276" stroke-linecap="round"></path><path d="M336.496 194.53L337.726 193.16C337.946 192.92 338.266 192.8 338.586 192.84L339.156 192.91C339.556 192.96 339.946 192.75 340.136 192.39L340.746 191.2C340.896 190.92 341.156 190.73 341.466 190.69C341.776 190.65 342.086 190.75 342.306 190.97L342.486 191.16C342.686 191.37 342.976 191.48 343.266 191.45C343.556 191.43 343.826 191.27 343.986 191.03L344.446 190.36C344.756 189.92 345.346 189.81 345.796 190.1L345.946 190.21C346.296 190.45 346.776 190.43 347.106 190.16C347.856 189.52 348.646 188.94 349.476 188.42C349.666 188.42 350.226 189.17 350.696 189.79C350.986 190.18 351.526 190.29 351.946 190.04C352.836 189.53 354.196 188.82 354.456 189.2C354.796 190.07 355.046 190.96 355.206 191.88C355.276 192.16 355.476 192.38 355.736 192.5C355.996 192.61 356.296 192.6 356.546 192.46L357.956 191.75C358.206 191.62 358.496 191.6 358.756 191.71C359.016 191.82 359.216 192.04 359.296 192.31L359.746 194.07C359.816 194.32 359.996 194.52 360.226 194.64C360.456 194.76 360.726 194.76 360.966 194.67L362.866 194C363.286 193.84 363.756 193.99 363.996 194.37L365.186 196.35C365.336 196.59 365.596 196.75 365.886 196.78L368.886 197.07" stroke="black" stroke-width="4.2276" stroke-linecap="round"></path><path d="M335.117 203.66L335.917 202C336.057 201.7 336.337 201.5 336.667 201.45L337.227 201.35C337.627 201.29 337.947 200.99 338.027 200.6L338.287 199.29C338.357 198.99 338.557 198.73 338.847 198.6C339.137 198.47 339.457 198.49 339.727 198.64L339.947 198.78C340.207 198.92 340.507 198.94 340.777 198.84C341.047 198.73 341.257 198.51 341.357 198.23L341.607 197.48C341.777 196.97 342.327 196.7 342.837 196.86L343.007 196.91C343.417 197.04 343.857 196.89 344.107 196.53C344.647 195.71 345.247 194.93 345.897 194.19C346.067 194.11 346.857 194.7 347.447 195.17C347.837 195.47 348.387 195.43 348.717 195.06C349.467 194.31 350.567 193.26 350.897 193.56C351.477 194.3 351.977 195.09 352.397 195.93C352.537 196.18 352.797 196.34 353.077 196.38C353.357 196.42 353.647 196.32 353.847 196.12L355.007 195.05C355.207 194.85 355.487 194.76 355.757 194.79C356.027 194.82 356.287 194.97 356.437 195.21L357.357 196.78C357.497 197 357.717 197.15 357.977 197.19C358.237 197.24 358.497 197.17 358.697 197.02L360.327 195.84C360.687 195.57 361.177 195.59 361.517 195.89L363.217 197.46C363.417 197.65 363.697 197.73 363.967 197.68L366.917 197.13" stroke="black" stroke-width="4.2276" stroke-linecap="round"></path><path d="M336.738 210.24L337.538 208.58C337.678 208.28 337.968 208.08 338.288 208.03L338.858 207.94C339.248 207.87 339.568 207.58 339.658 207.19L339.918 205.88C339.978 205.57 340.188 205.31 340.468 205.18C340.758 205.05 341.088 205.07 341.358 205.22L341.578 205.36C341.828 205.5 342.138 205.52 342.408 205.42C342.678 205.32 342.888 205.1 342.988 204.82L343.238 204.07C343.408 203.56 343.958 203.29 344.468 203.45L344.638 203.5C345.048 203.63 345.488 203.48 345.738 203.13C346.278 202.31 346.878 201.53 347.528 200.79C347.698 200.71 348.488 201.3 349.078 201.77C349.468 202.07 350.018 202.03 350.348 201.66C351.098 200.91 352.198 199.86 352.528 200.16C353.108 200.9 353.608 201.69 354.028 202.53C354.168 202.78 354.428 202.94 354.708 202.98C354.988 203.02 355.278 202.92 355.478 202.72L356.638 201.65C356.838 201.46 357.118 201.36 357.388 201.39C357.668 201.42 357.918 201.57 358.068 201.81L358.988 203.39C359.128 203.61 359.348 203.75 359.608 203.8C359.868 203.85 360.118 203.78 360.328 203.62L361.968 202.44C362.328 202.18 362.818 202.2 363.158 202.49L364.858 204.06C365.068 204.24 365.338 204.32 365.608 204.27L368.558 203.72" stroke="black" stroke-width="4.2276" stroke-linecap="round"></path><path d="M341.625 215.68L342.425 214.01C342.575 213.72 342.855 213.52 343.175 213.47L343.745 213.37C344.145 213.31 344.455 213.01 344.545 212.62L344.805 211.31C344.865 211 345.075 210.74 345.355 210.61C345.645 210.48 345.975 210.5 346.245 210.65L346.465 210.79C346.715 210.94 347.025 210.96 347.295 210.85C347.565 210.75 347.785 210.52 347.875 210.24L348.125 209.49C348.295 208.98 348.845 208.7 349.355 208.86L349.525 208.92C349.935 209.05 350.375 208.89 350.625 208.54C351.165 207.72 351.765 206.94 352.415 206.2C352.585 206.12 353.375 206.71 353.965 207.18C354.355 207.47 354.895 207.43 355.235 207.07C355.985 206.32 357.085 205.26 357.415 205.57C357.975 206.31 358.465 207.11 358.875 207.94C359.025 208.18 359.275 208.35 359.555 208.38C359.835 208.41 360.125 208.32 360.325 208.12L361.485 207.05C361.685 206.85 361.965 206.75 362.245 206.78C362.525 206.81 362.775 206.97 362.925 207.2L363.845 208.77C363.985 208.99 364.205 209.13 364.465 209.18C364.725 209.23 364.975 209.16 365.185 209L366.825 207.83C367.185 207.56 367.675 207.58 368.015 207.88L369.715 209.45C369.935 209.64 370.225 209.72 370.505 209.67L373.455 209.11" stroke="black" stroke-width="4.2276" stroke-linecap="round"></path><path d="M360.895 207.36C370.383 207.36 378.075 199.668 378.075 190.18C378.075 180.692 370.383 173 360.895 173C351.407 173 343.715 180.692 343.715 190.18C343.715 199.668 351.407 207.36 360.895 207.36Z" fill="black"></path><path d="M347.965 205.53C350.047 205.53 351.735 203.842 351.735 201.76C351.735 199.678 350.047 197.99 347.965 197.99C345.883 197.99 344.195 199.678 344.195 201.76C344.195 203.842 345.883 205.53 347.965 205.53Z" fill="black"></path><path d="M348.868 212.32C350.95 212.32 352.638 210.632 352.638 208.55C352.638 206.468 350.95 204.78 348.868 204.78C346.786 204.78 345.098 206.468 345.098 208.55C345.098 210.632 346.786 212.32 348.868 212.32Z" fill="black"></path><path d="M349.317 218.89C351.399 218.89 353.087 217.202 353.087 215.12C353.087 213.038 351.399 211.35 349.317 211.35C347.235 211.35 345.547 213.038 345.547 215.12C345.547 217.202 347.235 218.89 349.317 218.89Z" fill="black"></path><path d="M351.016 225.2C353.098 225.2 354.786 223.512 354.786 221.43C354.786 219.348 353.098 217.66 351.016 217.66C348.934 217.66 347.246 219.348 347.246 221.43C347.246 223.512 348.934 225.2 351.016 225.2Z" fill="black"></path><path d="M375.465 196.45C377.31 196.45 378.805 194.955 378.805 193.11C378.805 191.265 377.31 189.77 375.465 189.77C373.62 189.77 372.125 191.265 372.125 193.11C372.125 194.955 373.62 196.45 375.465 196.45Z" fill="black"></path><path d="M376.086 191.54C377.931 191.54 379.426 190.045 379.426 188.2C379.426 186.355 377.931 184.86 376.086 184.86C374.241 184.86 372.746 186.355 372.746 188.2C372.746 190.045 374.241 191.54 376.086 191.54Z" fill="black"></path><path d="M376.086 186.53C377.931 186.53 379.426 185.035 379.426 183.19C379.426 181.345 377.931 179.85 376.086 179.85C374.241 179.85 372.746 181.345 372.746 183.19C372.746 185.035 374.241 186.53 376.086 186.53Z" fill="black"></path><path d="M372.746 182.63C374.591 182.63 376.086 181.135 376.086 179.29C376.086 177.445 374.591 175.95 372.746 175.95C370.902 175.95 369.406 177.445 369.406 179.29C369.406 181.135 370.902 182.63 372.746 182.63Z" fill="black"></path><path d="M368.695 179.29C370.54 179.29 372.035 177.795 372.035 175.95C372.035 174.105 370.54 172.61 368.695 172.61C366.851 172.61 365.355 174.105 365.355 175.95C365.355 177.795 366.851 179.29 368.695 179.29Z" fill="black"></path><path d="M362.535 177.9C364.38 177.9 365.875 176.405 365.875 174.56C365.875 172.715 364.38 171.22 362.535 171.22C360.691 171.22 359.195 172.715 359.195 174.56C359.195 176.405 360.691 177.9 362.535 177.9Z" fill="black"></path><path d="M357.528 177.9C359.372 177.9 360.868 176.405 360.868 174.56C360.868 172.715 359.372 171.22 357.528 171.22C355.683 171.22 354.188 172.715 354.188 174.56C354.188 176.405 355.683 177.9 357.528 177.9Z" fill="black"></path><path d="M353.246 179.86C355.091 179.86 356.586 178.365 356.586 176.52C356.586 174.675 355.091 173.18 353.246 173.18C351.402 173.18 349.906 174.675 349.906 176.52C349.906 178.365 351.402 179.86 353.246 179.86Z" fill="black"></path><path d="M348.867 181.87C350.712 181.87 352.207 180.375 352.207 178.53C352.207 176.685 350.712 175.19 348.867 175.19C347.023 175.19 345.527 176.685 345.527 178.53C345.527 180.375 347.023 181.87 348.867 181.87Z" fill="black"></path><path d="M347.547 201.94C349.392 201.94 350.887 200.445 350.887 198.6C350.887 196.755 349.392 195.26 347.547 195.26C345.702 195.26 344.207 196.755 344.207 198.6C344.207 200.445 345.702 201.94 347.547 201.94Z" fill="black"></path><path d="M345.375 197.12C347.22 197.12 348.715 195.625 348.715 193.78C348.715 191.935 347.22 190.44 345.375 190.44C343.531 190.44 342.035 191.935 342.035 193.78C342.035 195.625 343.531 197.12 345.375 197.12Z" fill="black"></path><path d="M344.758 191.54C346.603 191.54 348.098 190.045 348.098 188.2C348.098 186.355 346.603 184.86 344.758 184.86C342.913 184.86 341.418 186.355 341.418 188.2C341.418 190.045 342.913 191.54 344.758 191.54Z" fill="black"></path><path d="M346.098 186.53C347.942 186.53 349.438 185.035 349.438 183.19C349.438 181.345 347.942 179.85 346.098 179.85C344.253 179.85 342.758 181.345 342.758 183.19C342.758 185.035 344.253 186.53 346.098 186.53Z" fill="black"></path><path d="M404.048 320.77V320.91C402.388 321.32 400.677 321.51 398.967 321.46C396.237 321.46 385.077 319.92 380.438 319.31C383.438 317.11 396.208 308.8 396.208 308.8L399.788 308.25C401.348 309.36 403.378 311.13 404.028 313.12C404.998 316.09 404.218 319.98 404.048 320.77Z" fill="#8D3C00"></path><path d="M410.785 319.81C408.625 320.62 406.325 320.94 404.025 320.76C404.195 319.97 404.975 316.08 404.025 313.08C403.375 311.1 401.345 309.33 399.785 308.21C400.535 308.08 401.155 307.99 401.195 307.98C401.245 307.96 407.515 306.56 409.455 305.73C410.235 305.44 411.075 305.39 411.885 305.59C412.125 307.42 412.635 311.28 412.635 313.21C412.745 315.77 412.265 319.14 410.785 319.81Z" fill="#D84326"></path><path d="M405.888 290.88H405.778C404.848 291.05 394.848 297.13 394.238 297.38C393.628 297.63 386.168 300.92 386.168 300.92L376.878 306.6C373.988 306.6 367.248 304.54 366.368 304.54C365.478 304.49 364.598 304.25 363.798 303.86C363.798 303.86 357.118 297.99 355.818 297.16C354.528 296.33 356.008 296.61 352.818 295.52C349.628 294.42 347.228 293.6 345.018 293.41C342.708 293.17 340.368 293.39 338.148 294.06C335.948 294.81 336.408 295.8 336.958 296.44C337.508 297.08 339.958 297.19 341.178 296.85C342.398 296.51 345.388 297.53 345.388 297.53C343.398 297.64 341.428 298 339.518 298.6C337.318 299.46 334.938 300.1 335.258 301.66C335.578 303.22 337.418 302.67 338.138 302.71C336.858 303.86 336.258 304.27 336.898 305.41C337.538 306.55 339.588 305.87 339.738 305.82C339.698 305.95 339.238 307.66 341.718 307.75C344.188 307.84 348.868 307.75 350.428 308.5C351.988 309.25 354.598 310.93 354.598 310.93L364.138 308.46L364.248 308.42C364.788 310.04 365.138 313.05 365.368 316.6C365.468 320.06 365.098 323.52 364.278 326.89C361.818 327.82 356.078 329.74 352.598 328.89C348.088 327.79 340.578 318.99 337.808 312.37C335.028 305.75 328.568 279.97 330.298 273.88C333.298 263.03 351.598 262.42 358.318 262.42C362.678 262.42 365.268 269.34 371.488 269.33C374.838 269.33 376.578 261.82 378.608 262.01C398.338 263.96 399.778 267.3 405.888 290.88Z" fill="#D84326"></path><path d="M377.125 304.64L364.275 308.45L364.165 308.49L354.625 310.96C354.625 310.96 352.015 309.32 350.455 308.53C348.905 307.75 344.315 307.85 341.745 307.78C339.175 307.71 339.735 305.98 339.765 305.85C339.615 305.9 337.515 306.54 336.925 305.44C336.335 304.34 336.875 303.89 338.165 302.74C337.415 302.69 335.595 303.24 335.285 301.69C334.975 300.14 337.345 299.49 339.545 298.63C341.445 298.03 343.415 297.66 345.415 297.55C345.415 297.55 342.415 296.5 341.205 296.87C339.995 297.24 337.545 297.1 336.985 296.46C336.425 295.82 335.975 294.81 338.175 294.08C340.405 293.42 342.735 293.2 345.045 293.43C347.245 293.62 349.635 294.44 352.845 295.54C356.055 296.64 354.585 296.37 355.845 297.18C357.105 298 363.825 303.88 363.825 303.88C364.625 304.28 365.505 304.51 366.395 304.56C367.245 304.56 371.885 304.61 374.785 304.64H377.125Z" fill="#8D3C00"></path><path d="M413.386 304.91C413.116 305.47 412.486 305.75 411.886 305.59C411.086 305.39 410.236 305.44 409.456 305.73C407.476 306.56 401.296 307.93 401.196 307.98C401.086 308.03 400.546 308.09 399.786 308.21L396.176 308.79C396.176 308.79 383.406 317.13 380.406 319.3L380.296 319.38C378.006 321.07 368.786 325.05 365.476 326.45L365.306 326.51L365.046 326.62L364.296 326.91C365.116 323.54 365.486 320.08 365.386 316.62C365.156 313.08 364.806 310.06 364.266 308.44L377.116 304.63L386.126 300.91C386.126 300.91 393.586 297.61 394.196 297.37C394.816 297.14 404.796 291.04 405.736 290.87H405.846C407.556 290.64 408.986 292.53 408.936 293.32C408.956 293.68 408.886 294.04 408.706 294.36C408.706 294.36 410.536 294.36 410.906 295.86C411.136 296.88 411.246 297.93 411.226 298.98C411.226 298.98 412.366 298.52 412.786 299.44C413.206 300.36 412.966 302.32 412.456 302.6C411.956 302.91 414.336 303.4 413.386 304.91Z" fill="#8D3C00"></path><path d="M387.628 229.954C388.55 229.849 389.156 228.51 388.98 226.963C388.805 225.415 387.916 224.245 386.994 224.349C386.072 224.454 385.466 225.793 385.641 227.341C385.817 228.888 386.706 230.058 387.628 229.954Z" fill="#33312D"></path><path d="M379.63 243.425C380.3 243.465 380.81 243.345 381.38 243.215C381.93 243.045 382.51 242.895 383.06 242.665C383.63 242.475 384.18 242.235 384.71 242.025C385.25 241.785 385.67 241.595 386.11 241.185L386.34 240.965C386.47 240.845 386.65 240.805 386.81 240.845C386.98 240.885 387.11 241.015 387.16 241.175C387.52 242.295 386.89 243.345 386.29 244.005C385.67 244.675 384.9 245.175 384.04 245.465C383.2 245.735 382.3 245.905 381.37 245.725C380.47 245.585 379.43 245.155 378.94 244.235C378.84 244.055 378.85 243.845 378.96 243.675C379.07 243.505 379.26 243.405 379.46 243.415L379.63 243.425Z" fill="white"></path><path d="M372.66 231.894C373.578 231.762 374.143 230.406 373.922 228.864C373.701 227.322 372.777 226.179 371.858 226.311C370.94 226.443 370.375 227.8 370.596 229.341C370.817 230.883 371.741 232.026 372.66 231.894Z" fill="#33312D"></path><path d="M553.858 240.21C548.868 247.57 540.918 252.37 532.078 253.36L532.138 252.19L532.218 250.76C538.478 248.92 545.958 244.59 554.668 235.51C554.608 235.59 554.548 235.66 554.478 235.73C554.218 237.01 554.038 238.31 553.948 239.61C553.888 239.8 553.868 240.01 553.858 240.21Z" fill="url(#paint1_linear)"></path><path d="M553.469 225.9C553.469 225.9 555.499 223.51 556.649 225.53C557.799 227.55 555.529 230.68 555.529 230.68L553.469 225.9Z" fill="url(#paint2_linear)"></path><path d="M576.981 331.37C590.357 308.214 581.747 278.205 557.75 264.343C533.752 250.481 503.455 258.014 490.079 281.17C476.703 304.325 485.313 334.334 509.31 348.197C533.308 362.059 563.605 354.525 576.981 331.37Z" fill="#710110"></path><path d="M554.719 212.57C558.419 228.71 563.479 254.62 578.749 287.23C557.339 296.23 518.339 295.3 489.039 283.07C496.949 267.22 503.269 240.03 501.399 222.12C501.629 218.75 553.789 208.53 554.719 212.57Z" fill="#710110"></path><path d="M500.82 271.58H513.72V315.27H500.82V271.58Z" fill="#D84326"></path><path d="M457.602 313.11C457.792 313.24 460.592 315.84 462.182 317.32C462.862 317.96 463.792 318.28 464.732 318.21L476.442 317.27L479.512 316.92V312.46L457.602 313.11Z" fill="#DFB726"></path><path d="M508.48 322.91L476.43 317.26V311.36H508.48V322.91Z" fill="#D84326"></path><path d="M516.67 287.22C525.424 287.22 532.52 280.124 532.52 271.37C532.52 262.616 525.424 255.52 516.67 255.52C507.917 255.52 500.82 262.616 500.82 271.37C500.82 280.124 507.917 287.22 516.67 287.22Z" fill="#D84326"></path><path d="M529.81 386.66C549.261 386.66 565.03 371.957 565.03 353.82C565.03 335.683 549.261 320.98 529.81 320.98C510.358 320.98 494.59 335.683 494.59 353.82C494.59 371.957 510.358 386.66 529.81 386.66Z" fill="#0A304F"></path><path d="M496.609 342.85C477.399 373.95 498.369 534.26 498.739 552.5C498.779 554.34 497.769 556.03 496.139 556.85L486.229 561.24C485.099 562.03 485.649 563.83 487.019 563.83H502.859C504.589 563.83 506.009 562.45 506.089 560.69L533.549 371.44C533.549 371.43 507.729 324.83 496.609 342.85Z" fill="#0A304F"></path><path d="M496.609 342.85C477.399 373.95 498.369 534.26 498.739 552.5C498.779 554.34 497.769 556.03 496.139 556.85L486.229 561.24C485.099 562.03 485.649 563.83 487.019 563.83H502.859C504.589 563.83 506.009 562.45 506.089 560.69L531.339 386.67C531.339 386.67 522.379 377.73 513.659 366.41C507.939 358.96 501.669 350.49 496.609 342.85Z" fill="#0A304F"></path><path d="M563.002 342.85H496.602L504.502 322.75C508.172 304.97 502.592 282.03 502.592 282.03L556.422 288.03C556.422 288.03 550.562 302.52 555.092 322.75L563.002 342.85Z" fill="#EE8F94"></path><path d="M532.369 249.677C547.247 247.768 557.59 232.826 555.469 216.304C553.349 199.782 539.569 187.936 524.69 189.846C509.811 191.756 499.469 206.697 501.589 223.219C503.71 239.741 517.49 251.587 532.369 249.677Z" fill="#710110"></path><path d="M511.839 237.405C513.727 237.191 515.077 235.421 514.854 233.451C514.631 231.48 512.92 230.056 511.032 230.27C509.144 230.484 507.794 232.254 508.017 234.225C508.24 236.195 509.951 237.619 511.839 237.405Z" fill="#E3646A"></path><path d="M525.328 233.03H537.398V254.1H525.328V233.03Z" fill="#BF8F68"></path><path d="M525.328 233.03H537.388V254.11H525.328V233.03Z" fill="#DFB726"></path><path d="M529.058 241.93C532.998 241.42 536.438 239.42 539.048 236.43C542.998 231.92 545.078 225.17 544.158 217.98C542.628 206.02 533.378 197.35 523.498 198.62C513.618 199.89 506.858 210.61 508.398 222.57C509.938 234.53 519.178 243.2 529.058 241.93Z" fill="#DFB726"></path><path d="M532.363 222.038C533.284 221.934 533.89 220.594 533.715 219.047C533.539 217.499 532.65 216.329 531.728 216.434C530.806 216.538 530.201 217.877 530.376 219.425C530.551 220.972 531.441 222.142 532.363 222.038Z" fill="#33312D"></path><path d="M524.349 232.63C525.019 232.67 525.529 232.55 526.099 232.42C526.649 232.25 527.229 232.1 527.779 231.87C528.349 231.68 528.899 231.44 529.429 231.23C529.969 230.99 530.389 230.8 530.829 230.39L531.059 230.17C531.189 230.05 531.369 230.01 531.529 230.05C531.699 230.09 531.829 230.22 531.879 230.38C532.239 231.5 531.609 232.55 531.009 233.21C530.389 233.88 529.619 234.38 528.759 234.67C527.919 234.94 527.019 235.11 526.089 234.93C525.189 234.79 524.149 234.36 523.659 233.44C523.559 233.26 523.569 233.05 523.679 232.88C523.789 232.71 523.979 232.61 524.179 232.62L524.349 232.63Z" fill="white"></path><path d="M506.102 204.85C506.102 204.85 510.182 206.28 514.602 202.94C518.892 199.71 522.132 203.42 524.422 206C529.332 211.53 536.972 216.01 543.692 214.23C548.502 212.96 547.712 196.82 532.662 193.49C516.922 190.01 506.102 204.85 506.102 204.85Z" fill="#710110"></path><path d="M538.219 225.72L545.249 224.82C548.059 224.46 550.049 221.89 549.679 219.08L549.629 218.71C549.269 215.9 546.699 213.92 543.889 214.27L536.859 215.17L538.219 225.72Z" fill="#DFB726"></path><path d="M562.998 342.85C579.348 381.87 570.508 465.48 547.718 552.31C547.198 554.29 548.238 556.35 550.098 557.15L559.598 560.73C561.158 561.67 560.498 564.11 558.678 564.11H541.778C539.948 564.1 538.458 562.64 538.398 560.81L529.328 361.38C529.338 361.37 552.608 345.68 562.998 342.85Z" fill="#0A304F"></path><path d="M546.792 231.384C548.68 231.17 550.03 229.4 549.807 227.429C549.584 225.459 547.873 224.035 545.985 224.249C544.097 224.463 542.747 226.233 542.97 228.203C543.193 230.174 544.905 231.597 546.792 231.384Z" fill="#E3646A"></path><path d="M529.918 307.98C545.156 307.98 557.508 295.628 557.508 280.39C557.508 265.153 545.156 252.8 529.918 252.8C514.681 252.8 502.328 265.153 502.328 280.39C502.328 295.628 514.681 307.98 529.918 307.98Z" fill="#EE8F94"></path><path d="M496.609 342.85H562.999L555.099 322.75C552.349 310.48 553.429 300.35 554.699 294.26C556.599 290.18 557.509 285.46 557.509 280.4C557.509 265.16 545.159 252.81 529.919 252.81C514.679 252.81 502.329 265.16 502.329 280.4C502.329 283.89 502.999 287.21 504.189 290.29C505.499 298.58 506.799 311.67 504.509 322.76L496.609 342.85Z" fill="#D84326"></path><path d="M512 308.9C512 308.9 557.39 335.95 572.83 314C580.72 302.78 575.7 263.84 546.03 254.11C527.75 257.93 536.57 274.68 536.57 274.68C536.57 274.68 553.78 280.13 557.51 299.75C560.06 313.13 512.34 303.42 512.34 303.42L512 308.9Z" fill="#D84326"></path><path d="M512 308.9L502.2 305.39L500.46 304.89C499.72 304.94 499.05 305.37 498.69 306.01L497.46 308.19L494.57 306.45L495.52 303.25C495.79 302.34 496.48 301.6 497.37 301.27L500.06 299.59L497.01 300.25L494.57 302.27L492.32 302.35L496.76 298.13L500.66 297.51C501.24 297.42 501.83 297.52 502.33 297.81L512.33 303.42L512 308.9Z" fill="#DFB726"></path><path d="M500.188 308.72H441.038C440.208 308.72 439.478 308.17 439.248 307.37L429.048 271.84C428.888 271.28 428.998 270.67 429.348 270.2C429.698 269.73 430.258 269.46 430.838 269.46H489.998C490.838 269.46 491.568 270.01 491.798 270.81L501.998 306.34C502.158 306.9 502.048 307.51 501.698 307.98C501.328 308.44 500.778 308.72 500.188 308.72Z" fill="#222222"></path><path d="M512.021 314H442.171C440.711 314 439.531 312.82 439.531 311.36C439.531 309.9 440.711 308.72 442.171 308.72H512.021C513.481 308.72 514.661 309.9 514.661 311.36C514.661 312.82 513.481 314 512.021 314Z" fill="black"></path><path d="M537.39 245.98C537.39 245.98 537.4 251.7 544.9 253.71L536.56 255.91L537.39 245.98ZM525.33 245.27V249.75C525.33 251.76 523.95 253.49 521.99 253.95L513.66 255.81L526.72 255.56L525.33 245.27Z" fill="#BF8F68"></path><path d="M514.828 255.55C514.878 255.59 514.928 255.6 514.978 255.62C515.508 255.85 516.058 256.05 516.608 256.22C518.878 256.96 521.658 257.49 524.768 257.76H524.778C527.078 257.96 529.538 258.01 532.118 257.89C534.558 257.79 536.978 257.52 539.378 257.09C540.728 256.84 542.008 256.55 543.208 256.23C544.708 255.84 546.178 255.33 547.598 254.71C546.698 254.36 545.788 254.04 544.888 253.71C544.228 253.47 543.558 253.25 542.898 253.03C540.468 251.98 539.108 250.48 538.348 249.15L537.388 249C537.298 249 537.228 248.99 537.138 248.97C536.708 248.92 536.278 248.87 535.838 248.83H535.828C532.848 248.57 529.848 248.65 526.878 249.06H526.868C526.528 249.1 526.198 249.15 525.858 249.21C525.668 249.24 525.498 249.27 525.318 249.3V249.75C525.318 251.76 523.938 253.5 521.978 253.95L514.828 255.55Z" fill="#DFB726"></path><path d="M517.394 223.969C518.313 223.837 518.878 222.48 518.657 220.939C518.435 219.397 517.511 218.254 516.593 218.386C515.674 218.518 515.109 219.874 515.33 221.416C515.552 222.958 516.476 224.101 517.394 223.969Z" fill="#33312D"></path><path d="M240.227 242.751C238.267 251.271 230.377 255.141 225.267 256.221C224.777 256.321 224.317 256.391 223.887 256.451L223.297 256.521L223.377 257.961L223.507 259.791L223.617 261.411L230.587 307.711C230.797 308.581 230.447 309.481 229.707 309.981C228.967 310.481 227.997 310.471 227.267 309.961C219.977 304.871 203.747 266.721 203.607 264.151C203.607 264.151 202.857 260.231 201.817 248.301C201.757 247.551 201.687 246.801 201.617 245.961C201.617 245.761 201.577 245.551 201.567 245.361C201.527 244.961 201.477 244.471 201.417 243.991C201.347 243.141 201.217 242.301 201.037 241.471C200.967 241.401 200.907 241.331 200.847 241.251C197.997 238.031 195.977 235.001 195.857 232.731C195.747 231.471 195.867 230.191 196.217 228.981C196.647 227.581 196.837 208.351 198.087 207.581C203.257 204.371 209.777 204.471 222.557 202.161C228.747 201.041 233.517 204.271 236.237 206.191C238.297 207.631 239.237 214.981 239.397 220.251C238.997 223.041 238.517 225.691 238.747 228.211C239.047 231.621 241.607 236.811 240.227 242.751Z" fill="url(#paint3_linear)"></path><path d="M182.66 546.471C183.41 547.971 196.93 544.301 196.93 544.301L196.62 542.951L192.74 526.031C192.57 521.051 192.93 516.061 193.81 511.151C189.8 513.301 181.09 511.751 181.09 511.751C181.09 511.751 181.9 517.451 180.97 519.301C180.78 519.711 180.63 520.141 180.54 520.581C180 523.531 179.97 526.551 180.44 529.511C180.79 531.421 181.3 537.091 181.81 541.381C181.94 543.111 182.22 544.811 182.66 546.471Z" fill="url(#paint4_linear)"></path><path d="M181.48 549.061C182.76 552.861 188.49 556.461 193.25 555.821C197.67 555.181 200.89 548.821 196.59 542.991L196.9 544.341C196.9 544.341 183.38 547.981 182.63 546.511C182.18 544.851 181.89 543.151 181.76 541.441C181.69 541.191 181.13 536.561 181.01 536.261C180.63 538.971 180.77 546.941 181.48 549.061Z" fill="#201F4F"></path><path d="M243.969 541.821C243.969 542.941 237.959 545.801 236.459 546.331C234.959 546.861 231.899 544.711 232.019 540.601C232.139 536.491 224.799 519.931 224.419 518.931C224.149 518.181 224.809 517.431 225.169 517.031C225.309 516.891 225.399 516.811 225.399 516.811L224.399 511.821L237.969 508.961C237.969 508.961 238.849 516.811 239.349 519.051C239.849 521.301 239.719 525.161 240.469 529.111C241.149 532.701 243.469 539.321 243.889 541.371C243.939 541.511 243.969 541.671 243.969 541.821Z" fill="url(#paint5_linear)"></path><path d="M250.567 552.791C248.577 554.161 239.487 552.041 235.117 551.041C230.747 550.041 230.517 542.781 230.267 540.081C230.157 538.811 228.657 536.071 226.867 533.151C225.707 531.271 224.437 529.321 223.327 527.661L222.077 525.771C221.457 524.841 221.267 523.691 221.547 522.621C222.377 519.441 223.887 517.841 225.177 517.031C224.797 517.401 224.137 518.191 224.427 518.931C224.807 519.931 232.147 536.491 232.027 540.601C231.907 544.721 234.927 546.831 236.467 546.331C238.007 545.831 243.977 542.971 243.977 541.821C243.967 541.661 243.947 541.501 243.907 541.341C246.837 544.581 252.177 551.671 250.567 552.791Z" fill="#201F4F"></path><path d="M238.048 337.511C248.808 369.841 245.728 435.471 245.728 435.471L239.408 513.851H222.538C218.408 466.461 223.818 438.001 223.818 438.001L217.758 385.991L209.328 439.011L195.428 513.851H178.248C177.738 501.221 181.038 469.651 187.608 436.501C182.558 407.211 181.278 400.051 183.298 374.921C185.318 349.791 197.948 337.021 197.948 337.021L238.048 337.511Z" fill="#FADF80"></path><path d="M202.52 262.231L215.65 272.331L227.27 305.181V355.181L188.52 351.081L195.58 334.001L189.38 302.391L172.71 330.431L179.78 349.631L168.66 359.741L153.33 330.941C153.34 330.941 159.07 280.931 202.52 262.231Z" fill="#13847F"></path><path d="M224.25 260.721L223.94 262.221L222.56 269.121L227.28 305.171V355.181L246.14 352.961C246.14 352.961 236.38 321.671 238.05 318.301C239.72 314.931 243.1 304.161 243.1 304.161L266.01 321.741C267.1 322.571 268.56 322.731 269.81 322.171C271.06 321.611 271.91 320.411 272.02 319.041L273.07 305.171C273.07 305.171 242.16 283.021 239.8 271.561C227.27 263.221 224.25 260.721 224.25 260.721Z" fill="#13847F"></path><path d="M202.52 262.231H195.58L196.13 270.711L206.95 274.381L205.95 280.951L227.27 305.181L215.65 272.331L202.52 262.231Z" fill="#0A5D5A"></path><path d="M272.008 285.091C272.018 285.051 272.038 285.011 272.058 284.981C272.018 282.711 272.208 280.451 272.618 278.221C273.688 273.041 276.188 268.261 279.838 264.421C280.388 263.791 285.728 261.601 286.308 260.751C286.898 259.891 289.348 261.881 286.848 264.831C284.348 267.771 282.138 269.071 282.548 269.371C282.808 269.571 285.698 267.751 290.688 266.881C298.148 265.571 303.698 265.471 303.718 267.441C303.768 267.911 303.588 268.381 303.248 268.711C302.908 269.041 302.428 269.191 301.958 269.121C303.058 269.211 308.638 269.791 308.648 271.561C308.648 273.531 304.898 273.061 304.898 273.061C304.898 273.061 308.548 273.771 304.988 274.891C301.428 276.011 295.088 276.441 295.088 276.441C295.088 276.441 302.098 276.141 301.558 278.081C301.018 280.021 293.868 278.941 291.278 279.401C288.688 279.861 286.348 281.071 283.018 283.531C282.228 284.081 281.478 284.691 280.768 285.331L280.688 286.781C280.978 292.671 281.248 308.561 277.018 320.701C276.388 322.511 274.928 323.921 273.098 324.501C271.268 325.081 269.268 324.761 267.708 323.651C266.058 322.481 264.548 321.121 263.198 319.601C263.178 319.591 269.908 293.061 272.008 285.091Z" fill="url(#paint6_linear)"></path><path d="M220.227 210.471C220.227 210.471 233.327 208.911 238.847 213.661C243.927 205.861 240.057 194.011 228.797 193.671C217.537 193.331 202.327 190.711 196.177 202.311C190.027 213.911 192.927 223.741 195.907 230.481C198.677 224.801 203.267 226.961 204.997 230.481C208.337 224.781 210.907 218.671 212.657 212.311C212.657 212.311 202.007 213.681 202.007 211.171C202.007 209.681 213.717 212.711 220.227 210.471Z" fill="#222222"></path><path d="M178.22 351.081L181.7 357.461L186.07 359.711L183.29 375.481C183.29 375.481 177.4 371.851 175.89 368.821C174.37 365.791 175 364.521 175 364.521L170.4 358.161L178.22 351.081Z" fill="url(#paint7_linear)"></path><path d="M223.367 257.951C223.367 257.951 208.957 256.271 201.817 248.301C201.757 247.551 201.687 246.801 201.617 245.961C201.617 245.761 201.577 245.551 201.567 245.361C201.527 244.961 201.477 244.471 201.417 243.991C210.167 251.051 217.597 254.741 223.887 256.431L223.297 256.501L223.367 257.951Z" fill="url(#paint8_linear)"></path><path d="M227.219 543.561H225.529L223.309 527.651C224.419 529.311 225.699 531.261 226.849 533.141L227.219 543.561Z" fill="#201F4F"></path><path d="M181.559 540.611L181.789 541.421C181.279 537.121 180.779 531.451 180.419 529.551C179.949 526.591 179.979 523.571 180.519 520.621C179.219 521.991 178.529 523.831 178.609 525.711C178.719 528.641 180.469 536.741 181.559 540.611Z" fill="#201F4F"></path><path d="M221.527 225.52C221.351 223.972 220.462 222.802 219.54 222.906C218.618 223.011 218.012 224.35 218.188 225.898C218.363 227.445 219.252 228.615 220.174 228.511C221.096 228.406 221.702 227.067 221.527 225.52Z" fill="white"></path><path d="M236.56 227.421C236.339 225.88 235.415 224.737 234.496 224.869C233.578 225 233.013 226.357 233.234 227.899C233.455 229.441 234.379 230.583 235.298 230.452C236.216 230.32 236.782 228.963 236.56 227.421Z" fill="white"></path><path d="M219.549 229.245C218.629 229.195 218.019 228.505 218.199 227.715C218.379 226.925 219.269 226.325 220.189 226.375C221.109 226.425 221.719 227.115 221.539 227.905C221.359 228.695 220.469 229.295 219.549 229.245Z" fill="black"></path><path d="M234.511 230.675C233.591 230.605 233.031 229.915 233.251 229.115C233.471 228.325 234.401 227.735 235.321 227.805C236.241 227.875 236.801 228.575 236.581 229.365C236.351 230.155 235.431 230.745 234.511 230.675Z" fill="black"></path><path d="M227.53 241.985C226.86 242.025 226.35 241.905 225.78 241.775C225.23 241.605 224.65 241.455 224.1 241.225C223.53 241.035 222.98 240.795 222.45 240.585C221.91 240.345 221.49 240.155 221.05 239.745L220.82 239.525C220.69 239.405 220.51 239.365 220.35 239.405C220.18 239.445 220.05 239.575 220 239.735C219.64 240.855 220.27 241.905 220.87 242.565C221.49 243.235 222.26 243.735 223.12 244.025C223.96 244.295 224.86 244.465 225.79 244.285C226.69 244.145 227.73 243.715 228.22 242.795C228.32 242.615 228.31 242.405 228.2 242.235C228.09 242.065 227.9 241.965 227.7 241.975L227.53 241.985Z" fill="white"></path><path fill-rule="evenodd" clip-rule="evenodd" d="M268.031 260.79L307.261 261.48C307.841 263.69 308.121 265.42 308.121 266.69C308.121 267.96 307.831 269.68 307.261 271.85H268.031C268.651 269.39 268.951 267.55 268.951 266.32C268.961 265.09 268.651 263.24 268.031 260.79Z" fill="#8CC6C0"></path><path fill-rule="evenodd" clip-rule="evenodd" d="M274.41 260.89L277.12 260.95C277.7 262.32 277.98 264.14 277.98 266.42C277.98 268.69 277.69 270.5 277.12 271.84L274.48 271.85C275.1 269.44 275.4 267.63 275.4 266.42C275.39 265.21 275.06 263.37 274.41 260.89Z" fill="#0F9283"></path><path fill-rule="evenodd" clip-rule="evenodd" d="M287.43 261.23L290.07 261.28C290.5 262.12 290.79 263.86 290.93 266.52C290.8 269.2 290.51 270.98 290.07 271.85H287.43C288.05 269.48 288.35 267.7 288.35 266.52C288.35 265.34 288.05 263.57 287.43 261.23Z" fill="#0F9283"></path><path fill-rule="evenodd" clip-rule="evenodd" d="M290.902 261.27L293.552 261.33C294.092 262.55 294.352 264.28 294.352 266.51C294.352 268.74 294.062 270.52 293.492 271.83L290.852 271.84C291.532 269.77 291.862 268.03 291.812 266.64C291.762 265.25 291.472 263.47 290.902 261.27Z" fill="#0F9283"></path><path d="M268.991 268.78L257.871 268.33" stroke="#13847F" stroke-width="0.6" stroke-linecap="square"></path><path d="M268.991 267.97L257.871 267.52" stroke="#13847F" stroke-width="0.6" stroke-linecap="square"></path><path d="M268.991 267.17L257.871 266.72" stroke="#0A5D5A" stroke-width="0.6" stroke-linecap="square"></path><path d="M268.991 266.77L257.871 266.32" stroke="#13847F" stroke-width="0.6" stroke-linecap="square"></path><path d="M268.991 265.96L257.871 265.51" stroke="#0A5D5A" stroke-width="0.6" stroke-linecap="square"></path><path d="M268.991 265.56L257.871 265.11" stroke="#13847F" stroke-width="0.6" stroke-linecap="square"></path><path d="M268.991 264.75L257.871 264.31" stroke="#0A5D5A" stroke-width="0.6" stroke-linecap="square"></path><path d="M268.991 263.85L257.871 263.6" stroke="#13847F" stroke-width="0.6" stroke-linecap="square"></path><path d="M268.991 263.05L257.871 262.79" stroke="#0A5D5A" stroke-width="0.6" stroke-linecap="square"></path><path d="M268.991 270.39L257.871 269.94" stroke="#13847F" stroke-width="0.6" stroke-linecap="square"></path><path fill-rule="evenodd" clip-rule="evenodd" d="M257.789 261.08L268.429 260.53C268.549 260.53 268.639 260.8 268.639 261.14C268.639 261.48 268.539 261.76 268.429 261.76L257.789 261.8C257.669 261.8 257.579 261.64 257.579 261.45C257.569 261.25 257.669 261.08 257.789 261.08Z" fill="#0F9283"></path><path fill-rule="evenodd" clip-rule="evenodd" d="M268.031 260.79L269.071 260.8C269.651 262.17 269.931 264.01 269.931 266.32C269.931 268.64 269.641 270.48 269.071 271.84L268.031 271.85C268.651 269.39 268.951 267.55 268.951 266.32C268.961 265.09 268.651 263.24 268.031 260.79Z" fill="#0F9283"></path><path d="M303.24 230.009H283.93V237.449H303.24V230.009Z" fill="white"></path><path fill-rule="evenodd" clip-rule="evenodd" d="M286.042 237.449H304.352C304.522 237.449 304.652 237.589 304.652 237.749V238.149C304.652 238.319 304.512 238.449 304.352 238.449H286.042C285.872 238.449 285.742 238.309 285.742 238.149V237.749C285.742 237.579 285.872 237.449 286.042 237.449Z" fill="#DFB726"></path><path d="M284.23 234.929H303.34" stroke="#94791A" stroke-width="0.6" stroke-linecap="square"></path><path d="M284.23 232.319H303.34" stroke="#94791A" stroke-width="0.6" stroke-linecap="square"></path><path d="M284.23 234.529H303.34" stroke="#DFB726" stroke-width="0.6" stroke-linecap="square"></path><path d="M284.23 233.319H303.34" stroke="#94791A" stroke-width="0.6" stroke-linecap="square"></path><path d="M284.23 235.539H303.34" stroke="#DFB726" stroke-width="0.6" stroke-linecap="square"></path><path d="M284.23 236.539H303.34" stroke="#94791A" stroke-width="0.6" stroke-linecap="square"></path><path d="M284.23 231.509H303.34" stroke="#94791A" stroke-width="0.6" stroke-linecap="square"></path><path d="M284.23 233.729H303.34" stroke="#DFB726" stroke-width="0.6" stroke-linecap="square"></path><path fill-rule="evenodd" clip-rule="evenodd" d="M286.3 229.359C284.72 232.019 284.34 234.629 286.3 238.009C282.64 238.009 270.55 238.009 250.01 238.009C247.59 235.129 247.59 232.239 250.01 229.359C256.41 229.359 274.78 229.359 286.3 229.359Z" fill="#FADF80"></path><path fill-rule="evenodd" clip-rule="evenodd" d="M270.69 229.359C268.4 232.739 269.21 235.669 270.69 238.009C269.66 238.009 265.97 238.009 259.61 238.009C258.02 235.129 258.02 232.239 259.61 229.359C261.4 229.359 267.46 229.359 270.69 229.359Z" fill="#AE8B0C"></path><path fill-rule="evenodd" clip-rule="evenodd" d="M286.392 229.359C284.102 232.739 284.912 235.669 286.392 238.009C285.362 238.009 285.022 238.009 285.372 238.009C283.782 235.129 283.782 232.239 285.372 229.359C287.152 229.359 283.152 229.359 286.392 229.359Z" fill="#AE8B0C"></path><path fill-rule="evenodd" clip-rule="evenodd" d="M286.042 229.399H304.352C304.522 229.399 304.652 229.539 304.652 229.699V230.099C304.652 230.269 304.512 230.399 304.352 230.399H286.042C285.872 230.399 285.742 230.259 285.742 230.099V229.699C285.742 229.539 285.872 229.399 286.042 229.399Z" fill="#DFB726"></path><path d="M305.544 252.06H288.574V260.52H305.544V252.06Z" fill="white"></path><path fill-rule="evenodd" clip-rule="evenodd" d="M290.476 260.52H306.496C306.666 260.52 306.796 260.66 306.796 260.82V261.22C306.796 261.39 306.656 261.52 306.496 261.52H290.476C290.306 261.52 290.176 261.38 290.176 261.22V260.82C290.176 260.66 290.306 260.52 290.476 260.52Z" fill="#D84326"></path><path d="M288.844 257.66H305.634" stroke="#D2AC85" stroke-width="0.6" stroke-linecap="square"></path><path d="M288.844 254.69H305.634" stroke="#975218" stroke-width="0.6" stroke-linecap="square"></path><path d="M288.844 257.21H305.634" stroke="#975218" stroke-width="0.6" stroke-linecap="square"></path><path d="M288.844 255.84H305.634" stroke="#D2AC85" stroke-width="0.6" stroke-linecap="square"></path><path d="M288.844 258.35H305.634" stroke="#975218" stroke-width="0.6" stroke-linecap="square"></path><path d="M288.844 259.49H305.634" stroke="#D2AC85" stroke-width="0.6" stroke-linecap="square"></path><path d="M288.844 253.78H305.634" stroke="#975218" stroke-width="0.6" stroke-linecap="square"></path><path d="M288.844 256.29H305.634" stroke="#975218" stroke-width="0.6" stroke-linecap="square"></path><path fill-rule="evenodd" clip-rule="evenodd" d="M290.664 251.33C289.274 254.36 288.934 257.32 290.664 261.16C287.444 261.16 274.804 261.16 252.734 261.16C250.604 257.88 250.604 254.61 252.734 251.33C258.344 251.33 280.534 251.33 290.664 251.33Z" fill="#FF9D8A"></path><path fill-rule="evenodd" clip-rule="evenodd" d="M266.565 251.33C265.175 255.17 265.665 258.5 266.565 261.16C265.945 261.16 263.705 261.16 259.845 261.16C258.875 257.88 258.875 254.61 259.845 251.33C260.925 251.33 264.605 251.33 266.565 251.33Z" fill="#D84326"></path><path fill-rule="evenodd" clip-rule="evenodd" d="M276.213 251.33C274.823 255.17 275.313 258.5 276.213 261.16C275.593 261.16 273.353 261.16 269.493 261.16C268.523 257.88 268.523 254.61 269.493 251.33C270.583 251.33 274.253 251.33 276.213 251.33Z" fill="#D84326"></path><path fill-rule="evenodd" clip-rule="evenodd" d="M285.873 251.33C284.483 255.17 284.973 258.5 285.873 261.16C285.253 261.16 283.013 261.16 279.153 261.16C278.183 257.88 278.183 254.61 279.153 251.33C280.243 251.33 283.913 251.33 285.873 251.33Z" fill="#D84326"></path><path fill-rule="evenodd" clip-rule="evenodd" d="M290.743 251.33C288.733 255.17 289.443 258.5 290.743 261.16C289.843 261.16 289.543 261.16 289.843 261.16C288.443 257.88 288.443 254.61 289.843 251.33C291.413 251.33 287.893 251.33 290.743 251.33Z" fill="#D84326"></path><path fill-rule="evenodd" clip-rule="evenodd" d="M290.667 251.328H306.557C306.727 251.328 306.857 251.468 306.857 251.628V252.028C306.857 252.198 306.717 252.328 306.557 252.328H290.667C290.497 252.328 290.367 252.188 290.367 252.028V251.628C290.367 251.468 290.497 251.328 290.667 251.328Z" fill="#D84326"></path><path d="M310.838 239.283H293.738V250.623H310.838V239.283Z" fill="white"></path><path fill-rule="evenodd" clip-rule="evenodd" d="M295.668 250.623H311.808C311.978 250.623 312.108 250.763 312.108 250.923V251.323C312.108 251.493 311.968 251.623 311.808 251.623H295.668C295.498 251.623 295.368 251.483 295.368 251.323V250.923C295.358 250.753 295.498 250.623 295.668 250.623Z" fill="#006285"></path><path d="M294.008 246.663H310.938" stroke="#1978C5" stroke-width="0.6" stroke-linecap="square"></path><path d="M294.008 242.703H310.938" stroke="#1978C5" stroke-width="0.6" stroke-linecap="square"></path><path d="M294.008 246.123H310.938" stroke="#1978C5" stroke-width="0.6" stroke-linecap="square"></path><path d="M294.008 244.323H310.938" stroke="#14609E" stroke-width="0.6" stroke-linecap="square"></path><path d="M294.008 247.563H310.938" stroke="#14609E" stroke-width="0.6" stroke-linecap="square"></path><path d="M294.008 249.183H310.938" stroke="#1978C5" stroke-width="0.6" stroke-linecap="square"></path><path d="M294.008 241.443H310.938" stroke="#14609E" stroke-width="0.6" stroke-linecap="square"></path><path d="M294.008 244.863H310.938" stroke="#14609E" stroke-width="0.6" stroke-linecap="square"></path><path fill-rule="evenodd" clip-rule="evenodd" d="M295.897 238.203C294.497 242.253 294.157 246.213 295.897 251.343C292.667 251.343 279.957 251.343 257.767 251.343C256.047 247.373 256.047 242.993 257.767 238.203C263.417 238.203 285.717 238.203 295.897 238.203Z" fill="#A4C4CF"></path><path fill-rule="evenodd" clip-rule="evenodd" d="M265.657 238.203C263.697 243.333 264.397 247.793 265.657 251.343C264.777 251.343 264.217 251.343 263.977 251.343C262.617 246.963 262.617 242.583 263.977 238.203C265.517 238.203 262.897 238.203 265.657 238.203Z" fill="#006285"></path><path fill-rule="evenodd" clip-rule="evenodd" d="M269.075 238.203C267.115 243.333 267.815 247.793 269.075 251.343C268.195 251.343 267.635 251.343 267.395 251.343C266.035 246.963 266.035 242.583 267.395 238.203C268.935 238.203 266.315 238.203 269.075 238.203Z" fill="#006285"></path><path fill-rule="evenodd" clip-rule="evenodd" d="M287.798 238.203C285.838 243.333 286.538 247.793 287.798 251.343C286.918 251.343 286.358 251.343 286.118 251.343C284.758 246.963 284.758 242.583 286.118 238.203C287.658 238.203 285.038 238.203 287.798 238.203Z" fill="#006285"></path><path fill-rule="evenodd" clip-rule="evenodd" d="M291.216 238.203C289.256 243.333 289.956 247.793 291.216 251.343C290.336 251.343 289.776 251.343 289.536 251.343C288.176 246.963 288.176 242.583 289.536 238.203C291.076 238.203 288.456 238.203 291.216 238.203Z" fill="#006285"></path><path fill-rule="evenodd" clip-rule="evenodd" d="M295.897 238.203C293.857 243.333 294.577 247.793 295.897 251.343C294.977 251.343 294.677 251.343 294.987 251.343C293.567 246.963 293.567 242.583 294.987 238.203C296.587 238.203 293.017 238.203 295.897 238.203Z" fill="#006285"></path><path fill-rule="evenodd" clip-rule="evenodd" d="M295.698 238.251H311.788C311.958 238.251 312.088 238.391 312.088 238.551V238.951C312.088 239.121 311.948 239.251 311.788 239.251H295.698C295.528 239.251 295.398 239.111 295.398 238.951V238.551C295.398 238.391 295.528 238.251 295.698 238.251Z" fill="#006285"></path><path fill-rule="evenodd" clip-rule="evenodd" d="M744.751 339.45C761.181 367.01 780.311 393.69 791.801 423.82C791.341 420.27 790.851 416.72 790.301 413.18C787.381 394.4 783.761 375.76 779.951 357.14C778.011 347.66 775.961 338.21 773.861 328.77C772.731 323.7 771.611 318.62 770.461 313.55C770.181 312.32 769.941 310.18 769.591 308C780.761 344.64 791.521 381.31 799.401 418.83C800.431 423.75 801.311 428.67 802.031 433.58C802.281 432.46 802.521 431.34 802.781 430.22C805.971 416.84 810.751 403.56 816.441 391.05C819.161 385.07 822.291 379.21 825.971 373.76C828.261 370.36 833.681 366.32 835.771 362.84C824.321 383.84 820.191 410.11 813.581 432.94C811.971 438.51 810.341 444.07 808.751 449.64C818.721 429.65 834.191 413.22 855.691 406.1C829.661 423.3 814.051 453.42 803.531 484.22C803.501 484.59 803.451 484.95 803.421 485.32C806.521 479.44 810.421 474.13 815.701 470.41C827.011 462.44 839.561 464.76 850.541 471.6C841.931 466.13 826.361 471.11 819.121 476.67C813.931 480.65 809.501 486 805.651 491.21C804.731 492.46 803.471 493.92 802.141 495.47C800.281 507.57 797.241 519.59 792.941 531.51C793.651 528.09 793.141 522.61 793.331 520.06C793.351 519.78 793.371 519.51 793.391 519.23C792.741 521.84 792.101 524.42 791.501 526.96C792.711 522.11 793.371 517.06 793.881 511.95C794.011 509.75 794.141 507.56 794.281 505.36C794.241 501.19 794.071 497.01 793.771 492.82C792.741 488.75 791.591 484.91 790.641 481.71C787.211 470.18 782.181 459.14 775.991 448.83C770.341 439.43 763.581 430.91 755.781 423.21C751.571 419.06 747.171 415.11 742.831 411.1C741.261 409.65 738.451 406.09 736.031 404.23C753.701 413.97 771.891 424.51 784.781 440.21C783.271 434.41 781.631 428.69 779.891 423.08C771.051 394.64 759.931 365.16 744.751 339.45Z" fill="#A1CECB"></path><path fill-rule="evenodd" clip-rule="evenodd" d="M762.398 495.44C762.398 527.03 764.898 552.64 798.478 552.64C832.058 552.64 834.558 527.03 834.558 495.44" fill="#C5CFD6"></path></g><defs><linearGradient id="paint0_linear" x1="351.415" y1="242.787" x2="371.278" y2="255.373" gradientUnits="userSpaceOnUse"><stop stop-color="#A04400"></stop><stop offset="1" stop-color="#753200"></stop></linearGradient><linearGradient id="paint1_linear" x1="553.94" y1="240.85" x2="534.158" y2="253.297" gradientUnits="userSpaceOnUse"><stop stop-color="#A04400"></stop><stop offset="1" stop-color="#753200"></stop></linearGradient><linearGradient id="paint2_linear" x1="555.591" y1="226.249" x2="552.413" y2="228.25" gradientUnits="userSpaceOnUse"><stop stop-color="#A04400"></stop><stop offset="1" stop-color="#3D1B00"></stop></linearGradient><linearGradient id="paint3_linear" x1="224.53" y1="248.963" x2="235.583" y2="246.501" gradientUnits="userSpaceOnUse"><stop stop-color="#401B00"></stop><stop offset="1" stop-color="#823700"></stop></linearGradient><linearGradient id="paint4_linear" x1="188.723" y1="545.269" x2="190.978" y2="513.818" gradientUnits="userSpaceOnUse"><stop stop-color="#823700"></stop><stop offset="1" stop-color="#401B00"></stop></linearGradient><linearGradient id="paint5_linear" x1="232.079" y1="577.855" x2="237.303" y2="611.882" gradientUnits="userSpaceOnUse"><stop stop-color="#401B00"></stop><stop offset="1" stop-color="#823700"></stop></linearGradient><linearGradient id="paint6_linear" x1="308.609" y1="292.709" x2="354.074" y2="292.709" gradientUnits="userSpaceOnUse"><stop stop-color="#401B00"></stop><stop offset="1" stop-color="#823700"></stop></linearGradient><linearGradient id="paint7_linear" x1="-1274.35" y1="363.24" x2="-1258.68" y2="363.24" gradientUnits="userSpaceOnUse"><stop stop-color="#552400"></stop><stop offset="1" stop-color="#823700"></stop></linearGradient><linearGradient id="paint8_linear" x1="198.175" y1="247.914" x2="179.388" y2="258.355" gradientUnits="userSpaceOnUse"><stop stop-color="#A04400"></stop><stop offset="1" stop-color="#3D1B00"></stop></linearGradient><clipPath id="clip0"><rect width="855.68" height="564.1" fill="white"></rect></clipPath></defs></svg> 