<?xml version="1.0" encoding="UTF-8"?> <svg xmlns="http://www.w3.org/2000/svg" width="141" height="79" viewBox="0 0 141 79" fill="none"><g clip-path="url(#clip0)"><path d="M0.849625 15.16C16.9496 7.79002 34.2296 3.00002 51.8196 1.03002C56.2096 0.54002 60.6096 0.23002 65.0196 0.0900204C69.2796 -0.0499796 73.6396 -0.16998 77.8096 0.90002C84.8796 2.73002 90.4596 9.06002 90.6496 16.5C90.8296 23.59 85.8296 31.7 78.4096 32.91C75.0396 33.46 70.8396 31.54 70.7696 27.67C70.7196 24.41 74.4896 21.52 76.9296 19.86C82.5796 16.03 89.7696 14.7 96.4796 15.63C103.6 16.61 109.99 20.15 115.06 25.19C126.95 37.04 129.9 54.26 130.42 70.36C130.49 72.61 130.53 74.86 130.54 77.11C129.65 76.95 128.76 76.79 127.87 76.63C131.03 73.07 134.19 69.5 137.35 65.94C138.42 64.73 140.98 65.94 139.72 67.36C136.56 70.92 133.4 74.49 130.24 78.05C129.63 78.74 127.58 78.87 127.57 77.57C127.45 62.49 126.53 46.54 118.08 33.52C114.5 28.01 109.62 23.27 103.65 20.41C98.1496 17.78 91.6696 17.19 85.7696 18.66C82.8896 19.38 80.1396 20.68 77.7796 22.48C75.7096 24.06 71.9196 27.26 74.9496 29.76C77.7296 32.05 81.9096 29.01 83.8196 26.92C86.0296 24.51 87.3896 21.39 87.6396 18.13C88.1796 11.39 83.4596 5.18002 77.0696 3.39002C73.3396 2.34002 69.3496 2.47002 65.5196 2.57002C61.5296 2.68002 57.5396 2.95002 53.5696 3.36002C37.7396 4.99002 22.1596 8.93002 7.45963 15.03C5.62963 15.79 3.80962 16.59 1.99962 17.42C0.379619 18.17 -0.920375 15.97 0.849625 15.16Z" fill="#DF1F2C"></path><path d="M121.951 68.5701C125.011 70.9301 128.081 73.2901 131.141 75.6601C131.851 76.2101 129.321 77.5701 128.621 77.1201C128.021 76.7401 127.421 76.3501 126.811 75.9701C126.311 75.6501 127.231 75.0001 127.471 74.8701C127.911 74.6201 128.821 74.1901 129.331 74.5101C129.931 74.8901 130.531 75.2801 131.141 75.6601C130.301 76.1501 129.461 76.6301 128.621 77.1201C125.561 74.7601 122.491 72.4001 119.431 70.0301C118.751 69.5001 121.261 68.0401 121.951 68.5701Z" fill="#DF1F2C"></path></g><defs><clipPath id="clip0"><rect width="140.07" height="78.64" fill="white" transform="matrix(-1 0 0 1 140.07 0)"></rect></clipPath></defs></svg> 