<?xml version="1.0" encoding="UTF-8"?> <svg xmlns="http://www.w3.org/2000/svg" width="114" height="126" viewBox="0 0 114 126" fill="none"><g clip-path="url(#clip0)"><path d="M113.58 1.48996C112.56 11.63 110.12 21.6 106.26 31.03C104.55 35.23 102.56 39.39 99.7703 42.99C97.1403 46.38 93.8003 49.06 89.9803 50.98C82.2103 54.9 73.2203 55.83 64.6503 56.33C56.5503 56.81 46.5903 56.31 41.4003 49.06C39.4003 46.27 38.2103 42.83 38.6303 39.38C39.0503 35.9 41.4503 33 44.7003 31.78C48.1403 30.48 52.1003 31.01 55.3903 32.49C59.0103 34.12 61.6903 37.11 63.4303 40.64C65.3403 44.5 66.1303 48.83 66.6003 53.08C67.1603 58.13 67.4103 63.24 67.2203 68.32C66.8703 77.71 64.9503 87.04 60.4203 95.34C56.3903 102.73 50.3803 108.95 42.7703 112.64C34.3603 116.71 24.8103 117.47 15.6003 117.62C13.3203 117.66 11.0403 117.65 8.76033 117.64C7.10033 117.63 6.54033 115.49 8.51033 115.5C17.0303 115.54 25.7703 115.58 34.0403 113.3C41.8903 111.14 48.6403 106.73 53.6703 100.32C64.5403 86.45 65.8403 67.32 63.3603 50.47C62.3203 43.42 59.4303 34.88 51.4603 33.39C48.3103 32.8 44.9403 33.66 42.9903 36.33C41.0903 38.93 41.1503 42.41 42.2903 45.31C45.3403 53.1 53.8803 54.54 61.3503 54.32C69.2203 54.09 77.5503 53.33 84.9603 50.5C88.5703 49.12 92.0103 47.13 94.7603 44.39C97.7903 41.38 100.04 37.65 101.83 33.79C105.68 25.51 108.29 16.59 109.78 7.58996C110.16 5.30996 110.46 3.01996 110.69 0.709965C110.82 -0.620036 113.73 0.0799645 113.58 1.48996Z" fill="#DF1F2C"></path><path d="M7.97013 114.58C6.67013 114.81 5.37014 115.04 4.07014 115.26C6.69014 117.76 9.39013 120.31 11.6201 123.12C12.4601 124.18 11.0801 125.94 9.97013 125.02C6.50013 122.16 3.40013 118.57 0.300135 115.29C-0.339865 114.61 0.120135 113.25 1.05013 113.11C6.05013 112.38 11.0501 111.57 16.0601 110.92C17.3701 110.75 17.7801 112.76 16.4401 113.03C14.0901 113.49 11.7401 113.91 9.39014 114.33C9.43014 114.35 9.47013 114.37 9.51013 114.39" fill="#DF1F2C"></path></g><defs><clipPath id="clip0"><rect width="113.59" height="125.28" fill="white" transform="matrix(-1 0 0 1 113.59 0)"></rect></clipPath></defs></svg> 