<?xml version="1.0" encoding="UTF-8"?> <svg xmlns="http://www.w3.org/2000/svg" width="109" height="96" viewBox="0 0 109 96" fill="none"><g clip-path="url(#clip0)"><path d="M28.85 40.82V54.5H8.34C4.56 54.5 1.5 51.44 1.5 47.66V30.56C1.5 26.78 4.56 23.72 8.34 23.72H28.85V27.14" stroke="black" stroke-width="3" stroke-miterlimit="10" stroke-linecap="round" stroke-linejoin="round"></path><path d="M28.8501 54.49C28.8501 54.49 63.0401 61.33 76.7101 76.71V1.5C63.0401 18.59 28.8501 23.72 28.8501 23.72" stroke="black" stroke-width="3" stroke-miterlimit="10" stroke-linecap="round" stroke-linejoin="round"></path><path d="M76.72 25.86C82.62 27.38 86.97 32.73 86.97 39.1C86.97 45.47 82.61 50.83 76.71 52.34" stroke="black" stroke-width="3" stroke-miterlimit="10" stroke-linecap="round" stroke-linejoin="round"></path><path d="M6.62988 54.49L17.4899 90.17C18.1499 92.33 20.1399 93.81 22.3999 93.81H37.3999C39.2899 93.81 40.8199 92.28 40.8199 90.39V87.44C40.8199 86.01 40.4599 84.6 39.7799 83.35L32.3399 69.71C31.1699 67.56 30.3899 65.21 30.0399 62.79L28.8499 54.49" stroke="black" stroke-width="3" stroke-miterlimit="10" stroke-linecap="round" stroke-linejoin="round"></path><path d="M27.1396 68.17H30.5596" stroke="black" stroke-width="3" stroke-miterlimit="10" stroke-linecap="round" stroke-linejoin="round"></path><path d="M32.2695 76.7101H35.6895" stroke="black" stroke-width="3" stroke-miterlimit="10" stroke-linecap="round" stroke-linejoin="round"></path><path d="M35.6895 85.26H39.1095" stroke="black" stroke-width="3" stroke-miterlimit="10" stroke-linecap="round" stroke-linejoin="round"></path><path d="M97.23 39.1101H107.48" stroke="black" stroke-width="3" stroke-miterlimit="10" stroke-linecap="round" stroke-linejoin="round"></path><path d="M97.02 59.41L104.27 66.67" stroke="black" stroke-width="3" stroke-miterlimit="10" stroke-linecap="round" stroke-linejoin="round"></path><path d="M97.02 18.8L104.27 11.55" stroke="black" stroke-width="3" stroke-miterlimit="10" stroke-linecap="round" stroke-linejoin="round"></path></g><defs><clipPath id="clip0"><rect width="108.98" height="95.31" fill="white"></rect></clipPath></defs></svg> 