<?xml version="1.0" encoding="UTF-8"?> <svg xmlns="http://www.w3.org/2000/svg" width="96" height="96" viewBox="0 0 96 96" fill="none"><g clip-path="url(#clip0)"><path d="M91.6901 37.28H61.4601L46.3501 47.86V30.95V4.02C46.3501 2.35 47.7001 1 49.3701 1H91.6901C93.3601 1 94.7101 2.35 94.7101 4.02V34.25C94.7201 35.92 93.3601 37.28 91.6901 37.28Z" stroke="#020203" stroke-width="2" stroke-miterlimit="10" stroke-linecap="round" stroke-linejoin="round"></path><path d="M62.9702 10.0699V28.2099L79.6002 19.1399L62.9702 10.0699Z" stroke="#020203" stroke-width="2" stroke-miterlimit="10" stroke-linecap="round" stroke-linejoin="round"></path><path d="M88.6699 46.35V79.6" stroke="#020203" stroke-width="2" stroke-miterlimit="10" stroke-linecap="round" stroke-linejoin="round"></path><path d="M7.0498 79.5999V32.7399C7.0498 29.3999 9.7598 26.6899 13.0998 26.6899H37.2898" stroke="#020203" stroke-width="2" stroke-miterlimit="10" stroke-linecap="round" stroke-linejoin="round"></path><path d="M85.65 94.7199H10.07C5.06 94.7199 1 90.6599 1 85.6499H37.28V88.6699H58.44V85.6499H94.72C94.72 90.6599 90.66 94.7199 85.65 94.7199Z" stroke="#020203" stroke-width="2" stroke-miterlimit="10" stroke-linecap="round" stroke-linejoin="round"></path><path d="M36.5799 59.9499C40.1399 57.5699 39.8099 56.0499 40.2399 52.5899C40.4699 50.7199 40.5399 48.7199 39.6399 46.9999C38.8199 45.4299 37.2999 44.3499 35.6499 43.7899C34.7399 43.4799 33.7499 43.3199 32.7499 43.3199C31.7499 43.3199 30.7599 43.4899 29.8499 43.7899C28.1999 44.3499 26.6799 45.4299 25.8599 46.9999C24.9599 48.7099 25.0299 50.7199 25.2599 52.5899C25.6799 56.0499 25.3499 57.5699 28.9199 59.9499" stroke="#020203" stroke-width="2" stroke-miterlimit="10" stroke-linecap="round" stroke-linejoin="round"></path><path d="M14.6001 78.09V75.07C14.6001 72.05 16.1101 70.54 19.1301 69.02C20.6401 68.26 25.1801 66 25.1801 66C25.1801 66 28.2001 67.51 32.7401 67.51C37.2801 67.51 40.3001 66 40.3001 66L64.1401 48.35C65.4001 47.42 67.1401 47.54 68.2601 48.64C69.5101 49.88 69.5201 51.9 68.2801 53.14L48.1201 73.3C46.9901 74.43 46.3501 75.97 46.3501 77.58V78.1" stroke="#020203" stroke-width="2" stroke-miterlimit="10" stroke-linecap="round" stroke-linejoin="round"></path></g><defs><clipPath id="clip0"><rect width="95.72" height="95.72" fill="white"></rect></clipPath></defs></svg> 