<?xml version="1.0" encoding="UTF-8"?> <svg xmlns="http://www.w3.org/2000/svg" width="117" height="93" viewBox="0 0 117 93" fill="none"><path d="M114.708 78.2026H2.2919C1.70359 78.2026 1.22559 77.7288 1.22559 77.1457V2.27186C1.22559 1.68871 1.70359 1.2149 2.2919 1.2149H114.696C115.284 1.2149 115.762 1.68871 115.762 2.27186V77.1457C115.774 77.7288 115.296 78.2026 114.708 78.2026Z" stroke="#020203" stroke-width="2" stroke-miterlimit="10" stroke-linecap="round" stroke-linejoin="round"></path><path d="M66.7852 78.2026V91.7851" stroke="#020203" stroke-width="2" stroke-miterlimit="10" stroke-linecap="round" stroke-linejoin="round"></path><path d="M50.2139 78.2026V91.7851" stroke="#020203" stroke-width="2" stroke-miterlimit="10" stroke-linecap="round" stroke-linejoin="round"></path><path d="M33.019 91.7852H83.9813" stroke="#020203" stroke-width="2" stroke-miterlimit="10" stroke-linecap="round" stroke-linejoin="round"></path><path d="M67.3739 17.9075H40.042" stroke="#020203" stroke-width="2" stroke-miterlimit="10" stroke-linecap="round" stroke-linejoin="round"></path><path d="M29.0725 17.9075H18.103" stroke="#020203" stroke-width="2" stroke-miterlimit="10" stroke-linecap="round" stroke-linejoin="round"></path><path d="M67.3739 32.7413H18.103" stroke="#020203" stroke-width="2" stroke-miterlimit="10" stroke-linecap="round" stroke-linejoin="round"></path><path d="M46.967 47.5874H18.103" stroke="#020203" stroke-width="2" stroke-miterlimit="10" stroke-linecap="round" stroke-linejoin="round"></path><path d="M67.3738 47.5874H57.9854" stroke="#020203" stroke-width="2" stroke-miterlimit="10" stroke-linecap="round" stroke-linejoin="round"></path><path d="M67.3739 62.4211H18.103" stroke="#020203" stroke-width="2" stroke-miterlimit="10" stroke-linecap="round" stroke-linejoin="round"></path><path d="M99.5346 15.6357H79.2012V39.7027H99.5346V15.6357Z" stroke="#020203" stroke-width="2" stroke-miterlimit="10" stroke-linecap="round" stroke-linejoin="round"></path><path d="M99.5346 53.1151H79.2012V63.7819H99.5346V53.1151Z" stroke="#020203" stroke-width="2" stroke-miterlimit="10" stroke-linecap="round" stroke-linejoin="round"></path></svg> 